<svg xmlns="http://www.w3.org/2000/svg" viewBox="0 0 143.7 63.87"><defs><style>.cls-1{fill:#d5860b;}.cls-2{fill:#f4a508;}.cls-3{fill:#00a6c2;}.cls-4{fill:#00ccef;}.cls-5{fill:#2ce4ff;}.cls-6{fill:#e2eaff;}</style></defs><title>button_buy_mone</title><g id="Слой_2" data-name="Слой 2"><g id="Слой_1-2" data-name="Слой 1"><rect class="cls-1" y="4.44" width="143.7" height="59.42" rx="21.32"/><rect class="cls-2" width="143.7" height="58.49" rx="21.16"/><polygon class="cls-3" points="28 16.4 39.13 16.4 36.66 27.61 28 16.4"/><polygon class="cls-4" points="39.13 16.4 49.23 27.61 36.66 27.61 39.13 16.4"/><polygon class="cls-3" points="36.66 27.61 49.23 27.61 28 47.47 36.66 27.61"/><polygon class="cls-3" points="28 16.4 16.88 16.4 19.35 27.61 28 16.4"/><polygon class="cls-4" points="16.88 16.4 6.78 27.61 19.35 27.61 16.88 16.4"/><polygon class="cls-3" points="19.35 27.61 6.78 27.61 28 47.47 19.35 27.61"/><polygon class="cls-4" points="28 47.47 36.66 27.61 19.35 27.61 28 47.47"/><polygon class="cls-5" points="28 16.4 19.35 27.61 36.66 27.61 28 16.4"/><path class="cls-6" d="M19.87,29.24l4.69-6.07A.87.87,0,0,0,24.43,22l-.91-.73a.82.82,0,0,0-1.16.13l-4.69,6.08a.86.86,0,0,0,.13,1.19l.91.73A.81.81,0,0,0,19.87,29.24Z"/></g></g></svg>