<svg xmlns="http://www.w3.org/2000/svg" viewBox="0 0 261.41 371.58"><defs><style>.cls-1{fill:#006177;}.cls-2{opacity:0.1;}.cls-3{opacity:0.13;}.cls-4{fill:#00a6c2;}.cls-5{fill:#00ccef;}.cls-6{fill:#2ce4ff;}.cls-7{opacity:0.28;}.cls-8{fill:#e2eaff;}.cls-9{fill:#fff;}</style></defs><title>diam_1</title><g id="Слой_2" data-name="Слой 2"><g id="Слой_1-2" data-name="Слой 1"><path class="cls-1" d="M261.41,24.65V346.93a24.74,24.74,0,0,1-24.69,24.65h-212a24.51,24.51,0,0,1-10.12-2.18h0c-.29-.13-.57-.28-.85-.42l-.6-.33a.51.51,0,0,1-.16-.09,23.74,23.74,0,0,1-2.72-1.69A24.62,24.62,0,0,1,0,346.93V24.65A24.74,24.74,0,0,1,24.69,0h212A24.74,24.74,0,0,1,261.41,24.65Z"/><path class="cls-2" d="M199.83,0,0,199.52V24.65A24.74,24.74,0,0,1,24.69,0Z"/><path class="cls-3" d="M261.41,107.46V345.39c0,14.41-11.41,26.19-25.36,26.19H24.69a24.51,24.51,0,0,1-10.12-2.18h0c-.29-.13-.57-.28-.85-.42l-.6-.33a.51.51,0,0,1-.16-.09,23.74,23.74,0,0,1-2.72-1.69l0-.06h0Z"/><polygon class="cls-4" points="59.29 134.71 89.59 120.45 96.91 153.41 59.29 134.71"/><polygon class="cls-5" points="89.59 120.45 131.15 137.3 96.91 153.41 89.59 120.45"/><polygon class="cls-4" points="96.91 153.41 131.15 137.3 98.25 217.27 96.91 153.41"/><polygon class="cls-4" points="59.28 134.7 28.98 148.96 49.78 175.58 59.28 134.7"/><polygon class="cls-5" points="28.98 148.96 15.54 191.69 49.78 175.58 28.98 148.96"/><polygon class="cls-4" points="49.78 175.58 15.54 191.69 98.25 217.27 49.78 175.58"/><polygon class="cls-5" points="98.25 217.27 96.91 153.4 49.78 175.58 98.25 217.27"/><polygon class="cls-6" points="59.28 134.7 49.78 175.58 96.91 153.4 59.28 134.7"/><g class="cls-7"><polygon points="59.2 134.63 89.5 120.37 96.82 153.33 59.2 134.63"/><polygon points="89.5 120.37 131.06 137.22 96.82 153.33 89.5 120.37"/><polygon points="96.82 153.33 131.06 137.22 98.17 217.19 96.82 153.33"/><polygon points="59.2 134.63 28.9 148.88 49.69 175.5 59.2 134.63"/><polygon points="28.9 148.88 15.45 191.61 49.69 175.5 28.9 148.88"/><polygon points="49.69 175.5 15.45 191.61 98.16 217.19 49.69 175.5"/><polygon points="98.16 217.19 96.82 153.32 49.69 175.5 98.16 217.19"/><polygon points="59.2 134.63 49.69 175.5 96.82 153.32 59.2 134.63"/><rect x="37.76" y="162.92" width="27.71" height="8.45" rx="3.57" transform="translate(-122.87 179.56) rotate(-76.91)"/></g><polygon class="cls-4" points="181.35 103.55 227.54 127.4 193.76 167.51 181.35 103.55"/><polygon class="cls-5" points="227.54 127.4 245.96 194.46 193.76 167.51 227.54 127.4"/><polygon class="cls-4" points="193.76 167.51 245.96 194.46 116.17 229.43 193.76 167.51"/><polygon class="cls-4" points="181.35 103.54 135.16 79.7 121.91 130.41 181.35 103.54"/><polygon class="cls-5" points="135.16 79.7 69.72 103.46 121.91 130.41 135.16 79.7"/><polygon class="cls-4" points="121.91 130.41 69.72 103.46 116.17 229.42 121.91 130.41"/><polygon class="cls-5" points="116.17 229.42 193.76 167.5 121.91 130.41 116.17 229.42"/><polygon class="cls-6" points="181.35 103.54 121.91 130.41 193.76 167.5 181.35 103.54"/><path class="cls-8" d="M120.38,138.27l32.75-14.8a3.58,3.58,0,0,0,1.78-4.72l-2.47-5.45a3.58,3.58,0,0,0-4.72-1.77L115,126.33a3.57,3.57,0,0,0-1.78,4.71l2.47,5.45A3.57,3.57,0,0,0,120.38,138.27Z"/><path class="cls-9" d="M87.09,94.83l14-.82a1.41,1.41,0,0,1,.86,2.59l-11.66,7.71a15.21,15.21,0,0,0-6.8,13.58l.83,14a1.41,1.41,0,0,1-2.59.86L74,121.05a15.23,15.23,0,0,0-13.59-6.78l-14,.82a1.41,1.41,0,0,1-.86-2.59l11.67-7.71A15.23,15.23,0,0,0,64,91.21l-.82-13.95a1.41,1.41,0,0,1,2.59-.86L73.5,88.05A15.21,15.21,0,0,0,87.09,94.83Z"/><polygon class="cls-4" points="86.63 7.68 97.75 7.68 95.28 18.89 86.63 7.68"/><polygon class="cls-5" points="97.75 7.68 107.86 18.89 95.28 18.89 97.75 7.68"/><polygon class="cls-4" points="95.28 18.89 107.86 18.89 86.63 38.75 95.28 18.89"/><polygon class="cls-4" points="86.63 7.68 75.5 7.68 77.97 18.89 86.63 7.68"/><polygon class="cls-5" points="75.5 7.68 65.4 18.89 77.97 18.89 75.5 7.68"/><polygon class="cls-4" points="77.97 18.89 65.4 18.89 86.63 38.75 77.97 18.89"/><polygon class="cls-5" points="86.63 38.75 95.28 18.89 77.97 18.89 86.63 38.75"/><polygon class="cls-6" points="86.63 7.68 77.97 18.89 95.28 18.89 86.63 7.68"/><path class="cls-8" d="M78.49,20.52l4.69-6.07a.86.86,0,0,0-.13-1.19l-.91-.74a.83.83,0,0,0-1.16.14l-4.69,6.08a.87.87,0,0,0,.13,1.19l.91.73A.81.81,0,0,0,78.49,20.52Z"/><path class="cls-9" d="M139.32,36.14a9.61,9.61,0,0,1-3.71-.68,7.19,7.19,0,0,1-2.85-2.11,9.68,9.68,0,0,1-1.82-3.6,18.52,18.52,0,0,1-.64-5.13V23.9a23.07,23.07,0,0,1,.75-6.33,12.25,12.25,0,0,1,2-4.23A7.62,7.62,0,0,1,136,11a9.12,9.12,0,0,1,3.65-.74,9.85,9.85,0,0,1,2.67.35,6.61,6.61,0,0,1,2.17,1,6.13,6.13,0,0,1,1.61,1.75,7.65,7.65,0,0,1,1,2.44h-3.32a3.89,3.89,0,0,0-1.5-1.9,4.69,4.69,0,0,0-2.6-.65,6.3,6.3,0,0,0-2.48.47,4.72,4.72,0,0,0-2,1.54,8.21,8.21,0,0,0-1.33,2.88,18.92,18.92,0,0,0-.56,4.5,6,6,0,0,1,1.2-1.49,5.94,5.94,0,0,1,1.54-1,8.17,8.17,0,0,1,1.69-.56,9.22,9.22,0,0,1,1.72-.18,10,10,0,0,1,3.38.54,7.16,7.16,0,0,1,2.56,1.57,6.74,6.74,0,0,1,1.63,2.56,9.86,9.86,0,0,1,.57,3.47v.36a8.19,8.19,0,0,1-.66,3.31,8,8,0,0,1-4.44,4.32A8.5,8.5,0,0,1,139.32,36.14Zm-.28-3A5.36,5.36,0,0,0,143,31.79a5.21,5.21,0,0,0,1.34-3.85v-.36A5.17,5.17,0,0,0,143,23.76a6.47,6.47,0,0,0-7.86,0,5.17,5.17,0,0,0-1.34,3.82v.36a5.22,5.22,0,0,0,1.34,3.83A5.32,5.32,0,0,0,139,33.12Z"/><path class="cls-9" d="M160.55,36.14a9.47,9.47,0,0,1-3.42-.61,6.66,6.66,0,0,1-2.81-2.1,11.21,11.21,0,0,1-1.91-4,23.43,23.43,0,0,1-.71-6.25v-.72a20.53,20.53,0,0,1,.71-5.83,10.45,10.45,0,0,1,1.91-3.76,6.74,6.74,0,0,1,2.81-2,9.72,9.72,0,0,1,6.83,0,6.74,6.74,0,0,1,2.81,2,10.45,10.45,0,0,1,1.91,3.76,20.53,20.53,0,0,1,.71,5.83v.72a23.43,23.43,0,0,1-.71,6.25,11.21,11.21,0,0,1-1.91,4,6.66,6.66,0,0,1-2.81,2.1A9.46,9.46,0,0,1,160.55,36.14Zm0-3a5.56,5.56,0,0,0,2.12-.41,4.13,4.13,0,0,0,1.75-1.51,8.79,8.79,0,0,0,1.2-3.06,23.26,23.26,0,0,0,.44-5v-.72a19.5,19.5,0,0,0-.44-4.6,8,8,0,0,0-1.2-2.85,4.15,4.15,0,0,0-1.75-1.44,5.93,5.93,0,0,0-4.23,0A4.14,4.14,0,0,0,156.67,15a8,8,0,0,0-1.2,2.85,19.5,19.5,0,0,0-.44,4.6v.72a23.26,23.26,0,0,0,.44,5,8.79,8.79,0,0,0,1.2,3.06,4.12,4.12,0,0,0,1.77,1.51A5.58,5.58,0,0,0,160.55,33.19Z"/></g></g></svg>