<svg xmlns="http://www.w3.org/2000/svg" viewBox="0 0 261.41 371.58"><defs><style>.cls-1{fill:#006177;}.cls-2{opacity:0.1;}.cls-3{opacity:0.13;}.cls-4{fill:#00a6c2;}.cls-5{fill:#00ccef;}.cls-6{fill:#2ce4ff;}.cls-7{opacity:0.25;}.cls-8{fill:#84848d;}.cls-9{fill:#9999a4;}.cls-10{fill:#ce6b26;}.cls-11{fill:#8e4a1a;}.cls-12{fill:#b75e20;}.cls-13{fill:#b87339;}.cls-14{fill:#e28548;}.cls-15{fill:#e2eaff;}.cls-16{fill:#fff;}</style></defs><title>diam_5</title><g id="Слой_2" data-name="Слой 2"><g id="Слой_1-2" data-name="Слой 1"><path class="cls-1" d="M261.41,24.65V346.93a24.74,24.74,0,0,1-24.69,24.65h-212a24.51,24.51,0,0,1-10.12-2.18h0c-.29-.13-.57-.28-.85-.42l-.6-.33a.51.51,0,0,1-.16-.09,23.74,23.74,0,0,1-2.72-1.69A24.62,24.62,0,0,1,0,346.93V24.65A24.74,24.74,0,0,1,24.69,0h212A24.74,24.74,0,0,1,261.41,24.65Z"/><path class="cls-2" d="M199.83,0,0,199.52V24.65A24.74,24.74,0,0,1,24.69,0Z"/><path class="cls-3" d="M261.41,107.46V345.39c0,14.41-11.41,26.19-25.36,26.19H24.69a24.51,24.51,0,0,1-10.12-2.18h0c-.29-.13-.57-.28-.85-.42l-.6-.33a.51.51,0,0,1-.16-.09,23.74,23.74,0,0,1-2.72-1.69l0-.06h0Z"/><polygon class="cls-4" points="40.24 57.41 62.34 48.72 66 72.38 40.24 57.41"/><polygon class="cls-5" points="62.34 48.72 90.98 62.55 66 72.38 62.34 48.72"/><polygon class="cls-4" points="66 72.38 90.98 62.55 64 117.63 66 72.38"/><polygon class="cls-4" points="40.24 57.41 18.14 66.1 31.63 85.89 40.24 57.41"/><polygon class="cls-5" points="18.14 66.1 6.65 95.71 31.63 85.89 18.14 66.1"/><polygon class="cls-4" points="31.63 85.89 6.65 95.71 64 117.63 31.63 85.89"/><polygon class="cls-5" points="64 117.63 66 72.37 31.63 85.89 64 117.63"/><polygon class="cls-6" points="40.24 57.41 31.63 85.89 66 72.37 40.24 57.41"/><g class="cls-7"><polygon points="40.2 57.44 62.3 48.74 65.96 72.4 40.2 57.44"/><polygon points="62.3 48.74 90.93 62.58 65.96 72.4 62.3 48.74"/><polygon points="65.96 72.4 90.93 62.58 63.96 117.66 65.96 72.4"/><polygon points="40.2 57.43 18.1 66.12 31.58 85.92 40.2 57.43"/><polygon points="18.1 66.12 6.61 95.74 31.58 85.92 18.1 66.12"/><polygon points="31.58 85.92 6.61 95.74 63.96 117.65 31.58 85.92"/><polygon points="63.96 117.65 65.96 72.4 31.58 85.92 63.96 117.65"/><polygon points="40.2 57.43 31.58 85.92 65.96 72.4 40.2 57.43"/><rect x="23.51" y="77.1" width="19.65" height="5.99" rx="3" transform="translate(-52.98 88.81) rotate(-73.17)"/></g><polygon class="cls-4" points="33.79 135.01 45.94 124.66 53.44 138.91 33.79 135.01"/><polygon class="cls-5" points="45.94 124.66 67.18 127.22 53.44 138.91 45.94 124.66"/><polygon class="cls-4" points="53.44 138.91 67.18 127.22 62.07 168.13 53.44 138.91"/><polygon class="cls-4" points="33.78 135.01 21.63 145.35 34.53 155 33.78 135.01"/><polygon class="cls-5" points="21.63 145.35 20.8 166.7 34.53 155 21.63 145.35"/><polygon class="cls-4" points="34.53 155 20.8 166.7 62.07 168.13 34.53 155"/><polygon class="cls-5" points="62.07 168.13 53.44 138.91 34.53 155 62.07 168.13"/><polygon class="cls-6" points="33.78 135.01 34.53 155 53.44 138.91 33.78 135.01"/><polygon class="cls-4" points="222.34 58.49 246.54 74.56 225.31 94.79 222.34 58.49"/><polygon class="cls-5" points="246.54 74.56 252.67 112.95 225.31 94.79 246.54 74.56"/><polygon class="cls-4" points="225.31 94.79 252.67 112.95 178.41 124.45 225.31 94.79"/><polygon class="cls-4" points="222.34 58.48 198.13 42.41 187.66 69.78 222.34 58.48"/><polygon class="cls-5" points="198.13 42.41 160.31 51.62 187.66 69.78 198.13 42.41"/><polygon class="cls-4" points="187.66 69.78 160.31 51.62 178.41 124.45 187.66 69.78"/><polygon class="cls-5" points="178.41 124.45 225.32 94.78 187.66 69.78 178.41 124.45"/><polygon class="cls-6" points="222.34 58.48 187.66 69.78 225.32 94.78 222.34 58.48"/><g class="cls-7"><polygon points="33.78 135 45.94 124.65 53.44 138.9 33.78 135"/><polygon points="45.94 124.65 67.17 127.21 53.44 138.9 45.94 124.65"/><polygon points="53.44 138.9 67.17 127.21 62.07 168.12 53.44 138.9"/><polygon points="33.78 135 21.62 145.34 34.53 155 33.78 135"/><polygon points="21.62 145.34 20.79 166.69 34.53 155 21.62 145.34"/><polygon points="34.53 155 20.79 166.69 62.06 168.12 34.53 155"/><polygon points="62.06 168.12 53.44 138.9 34.53 155 62.06 168.12"/><polygon points="33.78 135 34.53 155 53.44 138.9 33.78 135"/><rect x="27.76" y="148.89" width="13.21" height="4.03" rx="2.01" transform="translate(-115.14 190.92) rotate(-92.15)"/></g><g class="cls-7"><polygon points="222.34 58.49 246.54 74.56 225.31 94.79 222.34 58.49"/><polygon points="246.54 74.56 252.67 112.95 225.31 94.79 246.54 74.56"/><polygon points="225.31 94.79 252.67 112.95 178.41 124.45 225.31 94.79"/><polygon points="222.34 58.48 198.13 42.41 187.66 69.78 222.34 58.48"/><polygon points="198.13 42.41 160.31 51.62 187.66 69.78 198.13 42.41"/><polygon points="187.66 69.78 160.31 51.62 178.41 124.45 187.66 69.78"/><polygon points="178.41 124.45 225.32 94.78 187.66 69.78 178.41 124.45"/><polygon points="222.34 58.48 187.66 69.78 225.32 94.78 222.34 58.48"/><rect x="182.7" y="63.8" width="24.08" height="7.33" rx="3.66" transform="translate(-11.32 63.66) rotate(-18.05)"/></g><polygon class="cls-4" points="235.96 135.57 245.78 143.23 236.05 151.18 235.96 135.57"/><polygon class="cls-5" points="245.78 143.23 247.14 159.83 236.05 151.18 245.78 143.23"/><polygon class="cls-4" points="236.05 151.18 247.14 159.83 215.03 162.33 236.05 151.18"/><polygon class="cls-4" points="235.96 135.57 226.14 127.92 220.78 139.27 235.96 135.57"/><polygon class="cls-5" points="226.14 127.92 209.68 130.62 220.78 139.27 226.14 127.92"/><polygon class="cls-4" points="220.78 139.27 209.68 130.62 215.04 162.33 220.78 139.27"/><polygon class="cls-5" points="215.04 162.33 236.05 151.18 220.78 139.27 215.04 162.33"/><polygon class="cls-6" points="235.96 135.57 220.78 139.27 236.05 151.18 235.96 135.57"/><g class="cls-7"><polygon points="235.96 135.68 245.78 143.33 236.05 151.28 235.96 135.68"/><polygon points="245.78 143.33 247.14 159.93 236.05 151.28 245.78 143.33"/><polygon points="236.05 151.28 247.14 159.93 215.03 162.43 236.05 151.28"/><polygon points="235.96 135.67 226.14 128.02 220.78 139.37 235.96 135.67"/><polygon points="226.14 128.02 209.68 130.72 220.78 139.37 226.14 128.02"/><polygon points="220.78 139.37 209.68 130.72 215.04 162.43 220.78 139.37"/><polygon points="215.04 162.43 236.05 151.28 220.78 139.37 215.04 162.43"/><polygon points="235.96 135.67 220.78 139.37 236.05 151.28 235.96 135.67"/></g><path class="cls-8" d="M170.77,75.18V95a17.65,17.65,0,0,1-7.33,14.32V73.09a7.55,7.55,0,0,0-7.55-7.55H110.33a7.56,7.56,0,0,0-7.56,7.55v36.27A17.63,17.63,0,0,1,95.45,95V75.18a17.68,17.68,0,0,1,17.69-17.67h39.93A17.69,17.69,0,0,1,170.77,75.18Z"/><rect class="cls-9" x="90.74" y="77.21" width="16.25" height="5.41" rx="2.7"/><rect class="cls-9" x="158.87" y="77.21" width="16.25" height="5.41" rx="2.7"/><path class="cls-10" d="M227.36,98.25v51.4H227V106.37a17.69,17.69,0,0,0-17.7-17.67H56.19a17.7,17.7,0,0,0-17.34,14.11V98.25A17.67,17.67,0,0,1,56.54,80.57H209.68A17.67,17.67,0,0,1,227.36,98.25Z"/><path class="cls-11" d="M227.37,149.64v51.41a17.68,17.68,0,0,1-17.7,17.67H56.54a17.68,17.68,0,0,1-17.69-17.67V149.64Z"/><path class="cls-12" d="M227,106.37v43.28H38.85V102.81A17.7,17.7,0,0,1,56.19,88.7H209.32A17.69,17.69,0,0,1,227,106.37Z"/><path class="cls-13" d="M227,149.65v8.12H38.49v-51.4a17.33,17.33,0,0,1,.36-3.56v46.84Z"/><rect class="cls-14" x="122.57" y="80.57" width="21.32" height="138.15"/><polygon class="cls-4" points="199.34 170.36 228.41 170.36 221.95 198.94 199.34 170.36"/><polygon class="cls-5" points="228.41 170.36 254.8 198.94 221.95 198.94 228.41 170.36"/><polygon class="cls-4" points="221.95 198.94 254.8 198.94 199.34 249.57 221.95 198.94"/><polygon class="cls-4" points="199.34 170.35 170.27 170.35 176.73 198.93 199.34 170.35"/><polygon class="cls-5" points="170.27 170.35 143.88 198.93 176.73 198.93 170.27 170.35"/><polygon class="cls-4" points="176.73 198.93 143.88 198.93 199.34 249.57 176.73 198.93"/><polygon class="cls-5" points="199.34 249.57 221.95 198.93 176.73 198.93 199.34 249.57"/><polygon class="cls-6" points="199.34 170.35 176.73 198.93 221.95 198.93 199.34 170.35"/><path class="cls-15" d="M179,201.92l10.38-13.12a3.67,3.67,0,0,0-.61-5.15h0a3.68,3.68,0,0,0-5.15.6l-10.38,13.12a3.67,3.67,0,0,0,.61,5.15h0A3.68,3.68,0,0,0,179,201.92Z"/><polygon class="cls-4" points="48.57 184.94 73.68 170.32 82.52 198.25 48.57 184.94"/><polygon class="cls-5" points="73.68 170.32 110.89 181.72 82.52 198.25 73.68 170.32"/><polygon class="cls-4" points="82.52 198.25 110.89 181.72 88.55 253.37 82.52 198.25"/><polygon class="cls-4" points="48.56 184.94 23.45 199.56 43.46 221 48.56 184.94"/><polygon class="cls-5" points="23.45 199.56 15.09 237.53 43.46 221 23.45 199.56"/><polygon class="cls-4" points="43.46 221 15.09 237.53 88.54 253.36 43.46 221"/><polygon class="cls-5" points="88.54 253.36 82.52 198.25 43.46 221 88.54 253.36"/><polygon class="cls-6" points="48.56 184.94 43.46 221 82.52 198.25 48.56 184.94"/><rect class="cls-15" x="32.47" y="209.96" width="24.05" height="7.34" rx="3.67" transform="translate(-173.27 227.74) rotate(-81.94)"/><polygon class="cls-4" points="130.74 210.37 150.39 208.71 147.66 228.4 130.74 210.37"/><polygon class="cls-5" points="150.39 208.71 169.86 226.52 147.66 228.4 150.39 208.71"/><polygon class="cls-4" points="147.66 228.4 169.86 226.52 135.28 263.92 147.66 228.4"/><polygon class="cls-4" points="130.74 210.37 111.09 212.03 117.09 230.98 130.74 210.37"/><polygon class="cls-5" points="111.09 212.03 94.89 232.85 117.09 230.98 111.09 212.03"/><polygon class="cls-4" points="117.09 230.98 94.89 232.85 135.28 263.91 117.09 230.98"/><polygon class="cls-5" points="135.28 263.91 147.66 228.39 117.09 230.98 135.28 263.91"/><polygon class="cls-6" points="130.74 210.37 117.09 230.98 147.66 228.39 130.74 210.37"/><path class="cls-15" d="M118.6,233.19l6.7-10.12a2.1,2.1,0,0,0-.59-2.9l-.66-.43a2.1,2.1,0,0,0-2.9.59l-6.7,10.12a2.1,2.1,0,0,0,.59,2.9l.66.43A2.09,2.09,0,0,0,118.6,233.19Z"/><polygon class="cls-4" points="67.33 93.46 83.28 87.61 85.52 104.59 67.33 93.46"/><polygon class="cls-5" points="83.28 87.61 103.54 97.97 85.52 104.59 83.28 87.61"/><polygon class="cls-4" points="85.52 104.59 103.54 97.97 83.34 136.93 85.52 104.59"/><polygon class="cls-4" points="67.33 93.46 51.38 99.32 60.7 113.7 67.33 93.46"/><polygon class="cls-5" points="51.38 99.32 42.68 120.31 60.7 113.7 51.38 99.32"/><polygon class="cls-4" points="60.7 113.7 42.68 120.31 83.34 136.93 60.7 113.7"/><polygon class="cls-5" points="83.34 136.93 85.51 104.59 60.7 113.7 83.34 136.93"/><polygon class="cls-6" points="67.33 93.46 60.7 113.7 85.51 104.59 67.33 93.46"/><rect class="cls-15" x="55.02" y="107.41" width="14.06" height="4.29" rx="2.14" transform="translate(-61.38 134.41) rotate(-71.86)"/><polygon class="cls-4" points="200.1 103.24 215.63 110.13 205.38 123.87 200.1 103.24"/><polygon class="cls-5" points="215.63 110.13 222.92 131.66 205.38 123.87 215.63 110.13"/><polygon class="cls-4" points="205.38 123.87 222.92 131.66 181.25 145.56 205.38 123.87"/><polygon class="cls-4" points="200.1 103.23 184.57 96.34 181.22 113.14 200.1 103.23"/><polygon class="cls-5" points="184.57 96.34 163.67 105.35 181.22 113.14 184.57 96.34"/><polygon class="cls-4" points="181.22 113.14 163.67 105.35 181.25 145.55 181.22 113.14"/><polygon class="cls-5" points="181.25 145.55 205.38 123.86 181.22 113.14 181.25 145.55"/><polygon class="cls-6" points="200.1 103.23 181.22 113.14 205.38 123.86 200.1 103.23"/><path class="cls-15" d="M181.74,115.28l8.66-4.55a2.15,2.15,0,0,0,.91-2.89h0a2.15,2.15,0,0,0-2.9-.9l-8.67,4.55a2.14,2.14,0,0,0-.9,2.89h0A2.16,2.16,0,0,0,181.74,115.28Z"/><path class="cls-8" d="M136.94,141.91h-7.43c-5.17,0-9.41,3.89-9.41,8.63v14c0,4.75,4.24,8.64,9.41,8.64h7.43c5.17,0,9.41-3.89,9.41-8.64v-14C146.35,145.8,142.11,141.91,136.94,141.91Zm5.7,20.54c0,3.41-3,6.21-6.78,6.21h-5.27c-3.73,0-6.78-2.8-6.78-6.21v-9.82a6.54,6.54,0,0,1,6.78-6.22h5.27a6.54,6.54,0,0,1,6.78,6.22Z"/><rect class="cls-8" x="130.3" y="161.84" width="5.85" height="15.51"/><path class="cls-16" d="M17.17,197.12l-3.58-7.7a.86.86,0,0,1,1.27-1.06l7,4.86A9.25,9.25,0,0,0,31,194l7.71-3.58a.86.86,0,0,1,1.06,1.27l-4.87,7a9.22,9.22,0,0,0-.8,9.18l3.58,7.7a.86.86,0,0,1-1.28,1.06l-7-4.86a9.28,9.28,0,0,0-9.2-.8l-7.71,3.57a.86.86,0,0,1-1.07-1.27l4.88-7A9.24,9.24,0,0,0,17.17,197.12Z"/><path class="cls-16" d="M167.55,156.17l2.82-10.75a1.13,1.13,0,0,1,2.18,0l3,10.72a12.09,12.09,0,0,0,8.61,8.48l10.78,2.83a1.12,1.12,0,0,1,0,2.17l-10.74,3a12.1,12.1,0,0,0-8.49,8.59l-2.83,10.76a1.12,1.12,0,0,1-2.17,0l-3-10.72a12.13,12.13,0,0,0-8.61-8.49l-10.77-2.82a1.12,1.12,0,0,1,0-2.17l10.74-3A12.11,12.11,0,0,0,167.55,156.17Z"/><path class="cls-16" d="M186.71,91.14l4-3.62a.54.54,0,0,1,.89.56L190,93.21a5.86,5.86,0,0,0,1.26,5.69l3.63,4a.54.54,0,0,1-.56.88l-5.14-1.61a5.88,5.88,0,0,0-5.7,1.26l-4,3.63a.55.55,0,0,1-.89-.57l1.62-5.12a5.86,5.86,0,0,0-1.27-5.7l-3.63-4a.54.54,0,0,1,.57-.88L181,92.4A5.85,5.85,0,0,0,186.71,91.14Z"/><polygon class="cls-4" points="86.63 7.68 97.75 7.68 95.28 18.89 86.63 7.68"/><polygon class="cls-5" points="97.75 7.68 107.86 18.89 95.28 18.89 97.75 7.68"/><polygon class="cls-4" points="95.28 18.89 107.86 18.89 86.63 38.75 95.28 18.89"/><polygon class="cls-4" points="86.63 7.68 75.5 7.68 77.97 18.89 86.63 7.68"/><polygon class="cls-5" points="75.5 7.68 65.4 18.89 77.97 18.89 75.5 7.68"/><polygon class="cls-4" points="77.97 18.89 65.4 18.89 86.63 38.75 77.97 18.89"/><polygon class="cls-5" points="86.63 38.75 95.28 18.89 77.97 18.89 86.63 38.75"/><polygon class="cls-6" points="86.63 7.68 77.97 18.89 95.28 18.89 86.63 7.68"/><path class="cls-15" d="M78.49,20.52l4.69-6.07a.86.86,0,0,0-.13-1.19l-.91-.74a.83.83,0,0,0-1.16.14l-4.69,6.08a.87.87,0,0,0,.13,1.19l.91.73A.81.81,0,0,0,78.49,20.52Z"/><path class="cls-16" d="M130.61,36.14a9.63,9.63,0,0,1-3.72-.68,7.32,7.32,0,0,1-2.84-2.11,9.68,9.68,0,0,1-1.82-3.6,18.15,18.15,0,0,1-.64-5.13V23.9a23.5,23.5,0,0,1,.74-6.33,12.43,12.43,0,0,1,2-4.23,7.62,7.62,0,0,1,3-2.38,9,9,0,0,1,3.64-.74,9.75,9.75,0,0,1,2.67.35,6.31,6.31,0,0,1,3.79,2.79,7.88,7.88,0,0,1,1,2.44h-3.33a3.84,3.84,0,0,0-1.5-1.9,4.66,4.66,0,0,0-2.6-.65,6.25,6.25,0,0,0-2.47.47,4.75,4.75,0,0,0-2,1.54,8.38,8.38,0,0,0-1.32,2.88,19.32,19.32,0,0,0-.57,4.5,6,6,0,0,1,1.2-1.49,6.11,6.11,0,0,1,1.54-1,8.26,8.26,0,0,1,1.7-.56,8.43,8.43,0,0,1,1.71-.18,10,10,0,0,1,3.38.54,7.2,7.2,0,0,1,2.57,1.57,6.72,6.72,0,0,1,1.62,2.56,9.86,9.86,0,0,1,.57,3.47v.36a8.35,8.35,0,0,1-.65,3.31,8.14,8.14,0,0,1-1.79,2.61,8.27,8.27,0,0,1-2.65,1.71A8.54,8.54,0,0,1,130.61,36.14Zm-.28-3a5.33,5.33,0,0,0,3.92-1.33,5.17,5.17,0,0,0,1.35-3.85v-.36a5.13,5.13,0,0,0-1.35-3.82,6.46,6.46,0,0,0-7.85,0,5.13,5.13,0,0,0-1.35,3.82v.36a5.19,5.19,0,0,0,1.35,3.83A5.31,5.31,0,0,0,130.33,33.12Z"/><path class="cls-16" d="M163,35.78V29.7H150.42V27.11l12.23-16.53h3.68V26.75h3.19V29.7h-3.19v6.08Zm-9.06-9H163V14.54Z"/><path class="cls-16" d="M182.25,36.14a9.46,9.46,0,0,1-3.41-.61,6.63,6.63,0,0,1-2.82-2.1,11.21,11.21,0,0,1-1.91-4,23.47,23.47,0,0,1-.7-6.25v-.72a20.57,20.57,0,0,1,.7-5.83A10.45,10.45,0,0,1,176,12.87a6.71,6.71,0,0,1,2.82-2,9.69,9.69,0,0,1,6.82,0,6.74,6.74,0,0,1,2.81,2,10.45,10.45,0,0,1,1.91,3.76,20.53,20.53,0,0,1,.71,5.83v.72a23.43,23.43,0,0,1-.71,6.25,11.21,11.21,0,0,1-1.91,4,6.66,6.66,0,0,1-2.81,2.1A9.46,9.46,0,0,1,182.25,36.14Zm0-3a5.56,5.56,0,0,0,2.12-.41,4.13,4.13,0,0,0,1.75-1.51,8.79,8.79,0,0,0,1.2-3.06,23.18,23.18,0,0,0,.45-5v-.72a19.43,19.43,0,0,0-.45-4.6,8,8,0,0,0-1.2-2.85,4.15,4.15,0,0,0-1.75-1.44,5.74,5.74,0,0,0-2.12-.39,5.85,5.85,0,0,0-2.11.39A4.06,4.06,0,0,0,178.38,15a8.23,8.23,0,0,0-1.21,2.85,20,20,0,0,0-.44,4.6v.72a23.91,23.91,0,0,0,.44,5,9,9,0,0,0,1.21,3.06,4,4,0,0,0,1.76,1.51A5.66,5.66,0,0,0,182.25,33.19Z"/><path class="cls-16" d="M204.18,36.14a9.55,9.55,0,0,1-3.42-.61,6.66,6.66,0,0,1-2.81-2.1,11.21,11.21,0,0,1-1.91-4,23.47,23.47,0,0,1-.7-6.25v-.72a20.57,20.57,0,0,1,.7-5.83A10.45,10.45,0,0,1,198,12.87a6.74,6.74,0,0,1,2.81-2,9.72,9.72,0,0,1,6.83,0,6.74,6.74,0,0,1,2.81,2,10.45,10.45,0,0,1,1.91,3.76,20.53,20.53,0,0,1,.71,5.83v.72a23.43,23.43,0,0,1-.71,6.25,11.21,11.21,0,0,1-1.91,4,6.66,6.66,0,0,1-2.81,2.1A9.46,9.46,0,0,1,204.18,36.14Zm0-3a5.56,5.56,0,0,0,2.12-.41,4.13,4.13,0,0,0,1.75-1.51,8.79,8.79,0,0,0,1.2-3.06,23.18,23.18,0,0,0,.45-5v-.72a19.43,19.43,0,0,0-.45-4.6,8,8,0,0,0-1.2-2.85,4.15,4.15,0,0,0-1.75-1.44,5.74,5.74,0,0,0-2.12-.39,5.85,5.85,0,0,0-2.11.39A4.14,4.14,0,0,0,200.3,15a8.42,8.42,0,0,0-1.2,2.85,20,20,0,0,0-.44,4.6v.72a23.91,23.91,0,0,0,.44,5,9.2,9.2,0,0,0,1.2,3.06,4.12,4.12,0,0,0,1.77,1.51A5.66,5.66,0,0,0,204.18,33.19Z"/></g></g></svg>