<?xml version="1.0" encoding="UTF-8"?>
<svg id="_Слой_2" data-name="Слой 2" xmlns="http://www.w3.org/2000/svg" viewBox="0 0 1125 2436">
  <defs>
    <style>
      .cls-1 {
        fill: #004059;
      }

      .cls-2 {
        opacity: .05;
      }

      .cls-2, .cls-3, .cls-4, .cls-5, .cls-6, .cls-7, .cls-8, .cls-9 {
        fill: #fff;
      }

      .cls-10 {
        opacity: .14;
      }

      .cls-11 {
        fill: #ffc533;
      }

      .cls-12 {
        fill: #d2a12b;
      }

      .cls-4, .cls-13 {
        opacity: 0;
      }

      .cls-5 {
        opacity: .87;
      }

      .cls-6 {
        opacity: .3;
      }

      .cls-14 {
        opacity: .2;
      }

      .cls-14, .cls-15, .cls-13 {
        fill: #006177;
      }

      .cls-7 {
        opacity: .17;
      }

      .cls-16 {
        fill: #0088ae;
      }

      .cls-17 {
        fill: #ffd373;
      }

      .cls-15 {
        opacity: .06;
      }

      .cls-8 {
        opacity: .13;
      }

      .cls-9 {
        opacity: .09;
      }
    </style>
  </defs>
  <g id="_Слой_1-2" data-name="Слой 1">
    <g>
      <rect class="cls-16" width="1125" height="2436"/>
      <polygon class="cls-14" points="1125 0 1125 984.01 0 203.99 0 0 1125 0"/>
      <polygon class="cls-15" points="1125 976.68 1125 1721.64 0 947.6 0 202.64 1125 976.68"/>
      <polygon class="cls-14" points="1125 1725.26 1125 2436 857.03 2436 0 1849.32 0 955.15 1125 1725.26"/>
      <polygon class="cls-13" points="857.03 2436 0 2436 0 1846.33 857.03 2436"/>
    </g>
    <g>
      <g>
        <path class="cls-1" d="M1039.94,63.12v108.6c0,1.99-.26,3.92-.76,5.76-.5,1.88-1.24,3.66-2.21,5.3-3.81,6.61-10.95,11.06-19.14,11.06H0V41.01h1017.83c8.16,0,15.29,4.42,19.11,11,.97,1.64,1.72,3.42,2.23,5.3.5,1.85.77,3.8.77,5.81Z"/>
        <polygon class="cls-2" points="706.93 41.01 841.31 193.84 631.5 193.84 497.12 41.01 706.93 41.01"/>
        <polygon class="cls-9" points="497.05 41.01 631.43 193.84 421.62 193.84 287.24 41.01 497.05 41.01"/>
        <polygon class="cls-8" points="287.21 41.01 421.59 193.84 211.78 193.84 77.4 41.01 287.21 41.01"/>
        <path class="cls-4" d="M1039.94,63.12v108.6c0,1.99-.26,3.92-.76,5.76-.5,1.88-1.24,3.66-2.21,5.3-3.81,6.61-10.95,11.06-19.14,11.06h-172.99l-134.38-152.83h307.37c8.16,0,15.29,4.42,19.11,11,.97,1.64,1.72,3.42,2.23,5.3.5,1.85.77,3.8.77,5.81Z"/>
        <polygon class="cls-7" points="211.66 193.84 1.85 193.84 0 193.84 0 41.01 77.28 41.01 211.66 193.84"/>
        <path class="cls-3" d="M1039.17,57.31H0v-5.3h1036.94c.97,1.64,1.72,3.42,2.23,5.3Z"/>
        <path class="cls-3" d="M1039.18,177.48c-.5,1.88-1.24,3.66-2.21,5.3H0v-5.3h1039.18Z"/>
      </g>
      <g>
        <g>
          <g>
            <path class="cls-11" d="M118.75,117.43c0,23.12-18.75,41.86-41.86,41.86-.32,0-.63,0-.95-.01-2.55-.05-5.04-.34-7.45-.84-2.51-.51-4.95-1.24-7.28-2.18-3.02-1.22-5.87-2.78-8.49-4.65-10.71-7.58-17.7-20.06-17.7-34.18,0-23.11,18.74-41.86,41.86-41.86,7.33,0,14.22,1.88,20.2,5.19,2.94,1.62,5.67,3.59,8.12,5.85,1.65,1.53,3.19,3.19,4.6,4.96,1.3,1.65,2.48,3.42,3.52,5.26,3.45,6.08,5.42,13.11,5.42,20.6Z"/>
            <circle class="cls-17" cx="76.88" cy="117.43" r="35.71"/>
            <g>
              <rect class="cls-12" x="74.35" y="86.68" width="5.06" height="5.06" rx="1.1" ry="1.1"/>
              <rect class="cls-12" x="86.89" y="89.54" width="5.06" height="5.06" rx="1.1" ry="1.1" transform="translate(-32.33 132.68) rotate(-64.29)"/>
              <rect class="cls-12" x="96.94" y="97.56" width="5.06" height="5.06" rx="1.1" ry="1.1" transform="translate(-40.7 83.85) rotate(-38.57)"/>
              <rect class="cls-12" x="102.51" y="109.14" width="5.06" height="5.06" rx="1.1" ry="1.1" transform="translate(-22.21 26.17) rotate(-12.86)"/>
              <rect class="cls-12" x="102.51" y="121.99" width="5.06" height="5.06" rx="1.1" ry="1.1" transform="translate(-39.73 199.22) rotate(-77.14)"/>
              <rect class="cls-12" x="96.94" y="133.57" width="5.06" height="5.06" rx="1.1" ry="1.1" transform="translate(-68.96 129.01) rotate(-51.43)"/>
              <rect class="cls-12" x="86.89" y="141.59" width="5.06" height="5.06" rx="1.1" ry="1.1" transform="translate(-53.68 53.07) rotate(-25.71)"/>
              <rect class="cls-12" x="74.35" y="144.45" width="5.06" height="5.06" rx="1.1" ry="1.1"/>
              <rect class="cls-12" x="61.82" y="141.59" width="5.06" height="5.06" rx="1.1" ry="1.1" transform="translate(-93.42 139.56) rotate(-64.29)"/>
              <rect class="cls-12" x="51.77" y="133.57" width="5.06" height="5.06" rx="1.1" ry="1.1" transform="translate(-73.01 63.55) rotate(-38.57)"/>
              <rect class="cls-12" x="46.19" y="121.99" width="5.06" height="5.06" rx="1.1" ry="1.1" transform="translate(-26.49 13.96) rotate(-12.86)"/>
              <rect class="cls-12" x="46.19" y="109.14" width="5.06" height="5.06" rx="1.1" ry="1.1" transform="translate(-70.99 134.32) rotate(-77.14)"/>
              <rect class="cls-12" x="51.77" y="97.56" width="5.06" height="5.06" rx="1.1" ry="1.1" transform="translate(-57.8 80.13) rotate(-51.43)"/>
              <rect class="cls-12" x="61.82" y="89.54" width="5.06" height="5.06" rx="1.1" ry="1.1" transform="translate(-33.57 37.04) rotate(-25.71)"/>
              <rect class="cls-12" x="74.35" y="86.68" width="5.06" height="5.06" rx="1.1" ry="1.1"/>
            </g>
            <g>
              <path class="cls-12" d="M87.31,119.63c-.86-1.33-2.13-2.44-3.79-3.32-1.32-.7-2.89-1.39-4.7-2.08-.45-.17-.93-.34-1.42-.52-.76-.3-1.45-.58-2.07-.84-.34-.15-.67-.3-.97-.44-.83-.38-1.45-.83-1.85-1.35-.4-.52-.61-1.21-.61-2.06,0-1,.22-1.77.67-2.31.45-.55,1.02-.95,1.73-1.18.33-.11.68-.19,1.03-.25v-7.2c-1.8.17-3.42.66-4.85,1.43-1.83,1-3.25,2.4-4.27,4.18-1.02,1.78-1.54,3.91-1.54,6.39,0,2.04.39,3.73,1.16,5.04.77,1.3,1.91,2.4,3.38,3.28,1.48.88,3.35,1.75,5.58,2.61.18.06.36.13.54.18,1.12.41,2.09.75,2.9,1.06.21.08.4.16.58.25.66.31,1.19.66,1.59,1.04.5.51.75,1.22.75,2.18,0,1.3-.45,2.28-1.36,2.92-.29.21-.62.39-.98.53v7.54c2.63-.37,4.79-1.35,6.5-2.99,2.2-2.08,3.3-4.99,3.3-8.69,0-2.28-.44-4.07-1.3-5.4ZM65.83,124.27l-2.83,6.3c1.66,2.07,3.67,3.64,6.04,4.71,2.02.89,4.11,1.42,6.29,1.56v-7.25c-1.38-.12-2.8-.54-4.24-1.26-1.73-.87-3.48-2.21-5.26-4.05ZM83.06,99.26c-1.36-.6-2.76-.98-4.24-1.15v7.35c.67.17,1.33.42,1.99.75,1.39.7,2.83,1.82,4.33,3.36l3.18-6.22c-1.58-1.89-3.33-3.26-5.26-4.09Z"/>
              <path class="cls-12" d="M78.82,98.12v7.35c-.74-.2-1.48-.3-2.23-.3-.43,0-.85.03-1.25.11v-7.2c.52-.05,1.05-.08,1.6-.08.64,0,1.27.03,1.89.12Z"/>
              <path class="cls-12" d="M78.82,95.78v2.33c-.62-.09-1.24-.12-1.89-.12-.55,0-1.08.02-1.6.08v-2.29h3.48Z"/>
              <path class="cls-12" d="M78.82,129.17v7.54c-.74.1-1.52.15-2.34.15-.39,0-.76-.01-1.14-.03v-7.25c.28.03.57.04.85.04,1.01,0,1.89-.15,2.64-.45Z"/>
              <path class="cls-12" d="M78.82,136.71v2.36h-3.48v-2.25c.38.02.76.03,1.14.03.82,0,1.6-.05,2.34-.15Z"/>
            </g>
            <path class="cls-6" d="M105.21,86.6l-43.6,69.62-.4.04c-3.02-1.22-5.87-2.78-8.49-4.65l44.37-70.85c2.94,1.62,5.67,3.59,8.12,5.85Z"/>
            <path class="cls-6" d="M113.33,96.83l-37.39,62.45c-2.55-.05-5.04-.34-7.45-.84l41.31-66.88c1.3,1.65,2.48,3.42,3.52,5.26Z"/>
          </g>
          <path class="cls-5" d="M55.08,81.1l1.38-5.13c.14-.53.89-.53,1.04,0l1.39,5.13c.54,1.99,2.09,3.54,4.08,4.08l5.13,1.38c.53.14.53.89,0,1.04l-5.13,1.39c-1.99.54-3.54,2.09-4.08,4.08l-1.38,5.13c-.14.53-.89.53-1.04,0l-1.39-5.13c-.54-1.99-2.09-3.54-4.08-4.08l-5.13-1.38c-.53-.14-.53-.89,0-1.04l5.13-1.39c1.99-.54,3.54-2.09,4.08-4.08Z"/>
        </g>
        <g class="cls-10">
          <g>
            <path class="cls-3" d="M118.51,117.39c0,23.12-18.75,41.86-41.86,41.86-.32,0-.63,0-.95-.01-2.55-.05-5.04-.34-7.45-.84-2.51-.51-4.95-1.24-7.28-2.18-3.02-1.22-5.87-2.78-8.49-4.65-10.71-7.58-17.7-20.06-17.7-34.18,0-23.11,18.74-41.86,41.86-41.86,7.33,0,14.22,1.88,20.2,5.19,2.94,1.62,5.67,3.59,8.12,5.85,1.65,1.53,3.19,3.19,4.6,4.96,1.3,1.65,2.48,3.42,3.52,5.26,3.45,6.08,5.42,13.11,5.42,20.6Z"/>
            <circle class="cls-3" cx="76.64" cy="117.4" r="35.71"/>
            <g>
              <rect class="cls-3" x="74.11" y="86.65" width="5.06" height="5.06" rx="1.1" ry="1.1"/>
              <rect class="cls-3" x="86.65" y="89.51" width="5.06" height="5.06" rx="1.1" ry="1.1" transform="translate(-32.44 132.44) rotate(-64.29)"/>
              <rect class="cls-3" x="96.7" y="97.52" width="5.06" height="5.06" rx="1.1" ry="1.1" transform="translate(-40.73 83.69) rotate(-38.57)"/>
              <rect class="cls-3" x="102.27" y="109.1" width="5.06" height="5.06" rx="1.1" ry="1.1" transform="translate(-22.21 26.12) rotate(-12.86)"/>
              <rect class="cls-3" x="102.27" y="121.96" width="5.06" height="5.06" rx="1.1" ry="1.1" transform="translate(-39.88 198.96) rotate(-77.14)"/>
              <rect class="cls-3" x="96.7" y="133.54" width="5.06" height="5.06" rx="1.1" ry="1.1" transform="translate(-69.02 128.81) rotate(-51.43)"/>
              <rect class="cls-3" x="86.65" y="141.56" width="5.06" height="5.06" rx="1.1" ry="1.1" transform="translate(-53.68 52.96) rotate(-25.71)"/>
              <rect class="cls-3" x="74.11" y="144.42" width="5.06" height="5.06" rx="1.1" ry="1.1"/>
              <rect class="cls-3" x="61.58" y="141.56" width="5.06" height="5.06" rx="1.1" ry="1.1" transform="translate(-93.52 139.33) rotate(-64.29)"/>
              <rect class="cls-3" x="51.53" y="133.54" width="5.06" height="5.06" rx="1.1" ry="1.1" transform="translate(-73.04 63.39) rotate(-38.57)"/>
              <rect class="cls-3" x="45.95" y="121.96" width="5.06" height="5.06" rx="1.1" ry="1.1" transform="translate(-26.49 13.91) rotate(-12.86)"/>
              <rect class="cls-3" x="45.95" y="109.1" width="5.06" height="5.06" rx="1.1" ry="1.1" transform="translate(-71.14 134.05) rotate(-77.14)"/>
              <rect class="cls-3" x="51.53" y="97.52" width="5.06" height="5.06" rx="1.1" ry="1.1" transform="translate(-57.87 79.93) rotate(-51.43)"/>
              <rect class="cls-3" x="61.58" y="89.51" width="5.06" height="5.06" rx="1.1" ry="1.1" transform="translate(-33.58 36.93) rotate(-25.71)"/>
              <rect class="cls-3" x="74.11" y="86.65" width="5.06" height="5.06" rx="1.1" ry="1.1"/>
            </g>
            <g>
              <path class="cls-3" d="M87.07,119.59c-.86-1.33-2.13-2.44-3.79-3.32-1.32-.7-2.89-1.39-4.7-2.08-.45-.17-.93-.34-1.42-.52-.76-.3-1.45-.58-2.07-.84-.34-.15-.67-.3-.97-.44-.83-.38-1.45-.83-1.85-1.35-.4-.52-.61-1.21-.61-2.06,0-1,.22-1.77.67-2.31.45-.55,1.02-.95,1.73-1.18.33-.11.68-.19,1.03-.25v-7.2c-1.8.17-3.42.66-4.85,1.43-1.83,1-3.25,2.4-4.27,4.18-1.02,1.78-1.54,3.91-1.54,6.39,0,2.04.39,3.73,1.16,5.04.77,1.3,1.91,2.4,3.38,3.28,1.48.88,3.35,1.75,5.58,2.61.18.06.36.13.54.18,1.12.41,2.09.75,2.9,1.06.21.08.4.16.58.25.66.31,1.19.66,1.59,1.04.5.51.75,1.22.75,2.18,0,1.3-.45,2.28-1.36,2.92-.29.21-.62.39-.98.53v7.54c2.63-.37,4.79-1.35,6.5-2.99,2.2-2.08,3.3-4.99,3.3-8.69,0-2.28-.44-4.07-1.3-5.4ZM65.59,124.23l-2.83,6.3c1.66,2.07,3.67,3.64,6.04,4.71,2.02.89,4.11,1.42,6.29,1.56v-7.25c-1.38-.12-2.8-.54-4.24-1.26-1.73-.87-3.48-2.21-5.26-4.05ZM82.82,99.23c-1.36-.6-2.76-.98-4.24-1.15v7.35c.67.17,1.33.42,1.99.75,1.39.7,2.83,1.82,4.33,3.36l3.18-6.22c-1.58-1.89-3.33-3.26-5.26-4.09Z"/>
              <path class="cls-3" d="M78.58,98.08v7.35c-.74-.2-1.48-.3-2.23-.3-.43,0-.85.03-1.25.11v-7.2c.52-.05,1.05-.08,1.6-.08.64,0,1.27.03,1.89.12Z"/>
              <path class="cls-3" d="M78.58,95.75v2.33c-.62-.09-1.24-.12-1.89-.12-.55,0-1.08.02-1.6.08v-2.29h3.48Z"/>
              <path class="cls-3" d="M78.58,129.13v7.54c-.74.1-1.52.15-2.34.15-.39,0-.76-.01-1.14-.03v-7.25c.28.03.57.04.85.04,1.01,0,1.89-.15,2.64-.45Z"/>
              <path class="cls-3" d="M78.58,136.68v2.36h-3.48v-2.25c.38.02.76.03,1.14.03.82,0,1.6-.05,2.34-.15Z"/>
            </g>
            <path class="cls-6" d="M104.97,86.56l-43.6,69.62-.4.04c-3.02-1.22-5.87-2.78-8.49-4.65l44.37-70.85c2.94,1.62,5.67,3.59,8.12,5.85Z"/>
            <path class="cls-6" d="M113.09,96.79l-37.39,62.45c-2.55-.05-5.04-.34-7.45-.84l41.31-66.88c1.3,1.65,2.48,3.42,3.52,5.26Z"/>
          </g>
          <path class="cls-5" d="M54.83,81.06l1.38-5.13c.14-.53.89-.53,1.04,0l1.39,5.13c.54,1.99,2.09,3.54,4.08,4.08l5.13,1.38c.53.14.53.89,0,1.04l-5.13,1.39c-1.99.54-3.54,2.09-4.08,4.08l-1.38,5.13c-.14.53-.89.53-1.04,0l-1.39-5.13c-.54-1.99-2.09-3.54-4.08-4.08l-5.13-1.38c-.53-.14-.53-.89,0-1.04l5.13-1.39c1.99-.54,3.54-2.09,4.08-4.08Z"/>
        </g>
      </g>
    </g>
  </g>
</svg>