<svg xmlns="http://www.w3.org/2000/svg" viewBox="0 0 261.01 371.58"><defs><style>.cls-1{fill:#0051c1;}.cls-2{fill:#006177;}.cls-26,.cls-3{opacity:0.1;}.cls-12,.cls-4{opacity:0.18;}.cls-5{fill:#3c1f0f;}.cls-6{fill:#773a28;}.cls-7{fill:#ff9600;}.cls-8{fill:#a9dcf9;}.cls-15,.cls-8{opacity:0.35;}.cls-9{fill:#683123;}.cls-10{fill:#30180d;}.cls-11{fill:#bed9e2;opacity:0.6;}.cls-12{fill:#cae7f4;}.cls-13{fill:#3e4649;}.cls-13,.cls-14{opacity:0.45;}.cls-15,.cls-19,.cls-20,.cls-24,.cls-29{fill:#fff;}.cls-16{fill:#ffc533;}.cls-17{fill:#ffd373;}.cls-18{fill:#d2a12b;}.cls-19{opacity:0.3;}.cls-20{opacity:0.87;}.cls-21{fill:#417c41;}.cls-22{fill:#4c9350;}.cls-23{fill:#42c352;}.cls-25{fill:#3c703c;}.cls-27{fill:#e2a92e;}.cls-28{fill:#ffb936;}.cls-29{opacity:0.12;}</style></defs><title>money_2</title><g id="Слой_2" data-name="Слой 2"><g id="Слой_1-2" data-name="Слой 1"><rect class="cls-1" width="261.01" height="371.58" rx="24.65"/><path class="cls-2" d="M261,24.65V346.93a24.72,24.72,0,0,1-24.65,24.65H24.65a24.42,24.42,0,0,1-10.1-2.18h0c-.29-.13-.57-.28-.85-.42l-.6-.33a.51.51,0,0,1-.16-.09,23.74,23.74,0,0,1-2.72-1.69A24.63,24.63,0,0,1,0,346.93V24.65A24.72,24.72,0,0,1,24.65,0H236.36A24.72,24.72,0,0,1,261,24.65Z"/><path class="cls-3" d="M199.52,0,0,199.52V24.65A24.72,24.72,0,0,1,24.65,0Z"/><path class="cls-4" d="M261,107.46V345.39c0,14.41-11.39,26.19-25.32,26.19h-211a24.42,24.42,0,0,1-10.1-2.18h0c-.29-.13-.57-.28-.85-.42l-.6-.33a.51.51,0,0,1-.16-.09,23.74,23.74,0,0,1-2.72-1.69l.05-.06h0Z"/><rect class="cls-5" x="67.71" y="74.46" width="126.5" height="15.75" rx="2.41"/><rect class="cls-5" x="67.71" y="265.54" width="126.5" height="15.75" rx="2.41"/><path class="cls-6" d="M176.68,256.33v9.2H85.23v-9.2a1.55,1.55,0,0,1,0-.22,4.17,4.17,0,0,1,4.16-4h83.12a3.93,3.93,0,0,1,1.45.27A4.15,4.15,0,0,1,176.68,256.33Z"/><path class="cls-7" d="M143.81,227.62l16.81,24.46H101.29l16.81-24.46A15.61,15.61,0,0,1,143.81,227.62Z"/><path class="cls-7" d="M131.43,175l2.44-2.95a.61.61,0,0,0-.48-1h-4.87a.61.61,0,0,0-.48,1l2.44,2.95A.63.63,0,0,0,131.43,175Z"/><path class="cls-7" d="M131.43,187.53l2.44-2.95a.61.61,0,0,0-.48-1h-4.87a.61.61,0,0,0-.48,1l2.44,2.95A.61.61,0,0,0,131.43,187.53Z"/><path class="cls-7" d="M131.43,199.43l2.44-3a.61.61,0,0,0-.48-1h-4.87a.61.61,0,0,0-.48,1l2.44,3A.61.61,0,0,0,131.43,199.43Z"/><path class="cls-7" d="M131.43,210.07l2.44-2.94a.62.62,0,0,0-.48-1h-4.87a.62.62,0,0,0-.48,1l2.44,2.94A.61.61,0,0,0,131.43,210.07Z"/><path class="cls-7" d="M131.88,168l26.87-32.8a1,1,0,0,0,.23-.67,2.3,2.3,0,0,0-.48-1.41c-3.55-4.57-13.22,2.31-26.6,1.64-9.5-.48-19.13-2.87-25.25-3-3-.07-3.8,1.55-4,2a1.22,1.22,0,0,0-.07.69,1.32,1.32,0,0,0,.21.43L130.26,168A1,1,0,0,0,131.88,168Z"/><path class="cls-6" d="M176.81,99.39v-9.2H85.36v9.2a.78.78,0,0,0,0,.22,4.16,4.16,0,0,0,4.15,4h83.12a3.89,3.89,0,0,0,1.45-.27A4.16,4.16,0,0,0,176.81,99.39Z"/><path class="cls-8" d="M172.4,135.76c-8.24,22.56-35,38.48-41.31,42.11h-.27a129.63,129.63,0,0,1-25.17-18.72c-.85-.83-1.7-1.69-2.53-2.57a73.4,73.4,0,0,1-8.47-10.64l-.27-.43a50.17,50.17,0,0,1-4.87-9.75c-1.8-4.92-4.69-12.85-1.23-21.19a25,25,0,0,1,9.4-11h66.54a25,25,0,0,1,9.41,11C177.1,122.91,174.2,130.84,172.4,135.76Z"/><path class="cls-8" d="M173.63,241.17a25,25,0,0,1-9.41,11H97.68a25,25,0,0,1-9.4-11c-3.46-8.34-.57-16.27,1.23-21.19,8.23-22.56,35-38.49,41.31-42.11h.27c5.22,3,24.36,14.38,35.51,30.95.15.2.29.41.42.62A51.1,51.1,0,0,1,172.4,220C174.2,224.9,177.1,232.83,173.63,241.17Z"/><rect class="cls-9" x="89.84" y="261.45" width="28.27" height="1.42" rx="0.71"/><rect class="cls-9" x="98.11" y="255.44" width="37.31" height="1.42" rx="0.71"/><rect class="cls-10" x="81.87" y="277.11" width="53.87" height="1.42" rx="0.71"/><rect class="cls-10" x="77.15" y="267.99" width="28.02" height="1.42" rx="0.71"/><rect class="cls-10" x="108.16" y="271.99" width="30.61" height="1.42" rx="0.71"/><rect class="cls-9" x="132.44" y="97.35" width="37.31" height="1.42" rx="0.71"/><rect class="cls-9" x="86.66" y="92.65" width="30.82" height="1.42" rx="0.71"/><rect class="cls-9" x="106.77" y="100.46" width="12.15" height="1.42" rx="0.71"/><rect class="cls-10" x="108.42" y="84.6" width="53.87" height="1.42" rx="0.71"/><rect class="cls-10" x="158.05" y="78.05" width="28.88" height="1.42" rx="0.71"/><rect class="cls-10" x="76.61" y="80.14" width="31.38" height="1.42" rx="0.71"/><rect class="cls-10" x="127.87" y="76.17" width="20.55" height="1.42" rx="0.71"/><rect class="cls-9" x="158.62" y="258.46" width="14.48" height="1.42" rx="0.71"/><rect class="cls-10" x="154.35" y="268.05" width="30.61" height="1.42" rx="0.71"/><path class="cls-11" d="M122.6,74.46,93.48,103.58H89.4a4.18,4.18,0,0,1-4.16-4l9.43-9.42,15.74-15.75Z"/><path class="cls-12" d="M136.32,103.58,94.38,145.51a50.17,50.17,0,0,1-4.87-9.75c-1.8-4.92-4.69-12.85-1.23-21.19a25,25,0,0,1,9.4-11Z"/><path class="cls-13" d="M173.63,241.17a25,25,0,0,1-9.41,11h-41l43.34-43.34c.15.2.29.41.42.62A51.1,51.1,0,0,1,172.4,220C174.2,224.9,177.1,232.83,173.63,241.17Z"/><polygon class="cls-11" points="161 74.46 145.25 90.2 131.88 103.58 124.13 103.58 153.25 74.46 161 74.46"/><path class="cls-14" d="M194.21,267.94v10.94a2.41,2.41,0,0,1-2.41,2.41H145.11l15.74-15.75h0L174,252.43a4.15,4.15,0,0,1,2.71,3.9v9.21H191.8A2.41,2.41,0,0,1,194.21,267.94Z"/><rect class="cls-11" x="155.56" y="136.2" width="2.87" height="19.5" rx="1.44" transform="translate(149.18 -68.26) rotate(45)"/><rect class="cls-11" x="154.99" y="119.07" width="4.02" height="25.76" rx="1.44" transform="translate(139.28 -72.37) rotate(45)"/><rect class="cls-15" x="103.16" y="204.76" width="2.87" height="21.4" rx="1.44" transform="translate(182.99 -10.85) rotate(45)"/><rect class="cls-15" x="101.06" y="212.76" width="4.15" height="26.25" rx="1.61" transform="translate(189.93 -6.77) rotate(45)"/><rect class="cls-11" x="99.93" y="106.74" width="3.02" height="20.48" rx="1.44" transform="translate(112.43 -37.47) rotate(45)"/><path class="cls-16" d="M256.82,247A41.86,41.86,0,0,1,215,288.89H214a40.56,40.56,0,0,1-7.45-.84,40,40,0,0,1-7.28-2.18,41.12,41.12,0,0,1-8.49-4.65,41.86,41.86,0,1,1,52.49-65,44.25,44.25,0,0,1,4.6,5,40.86,40.86,0,0,1,3.52,5.26A41.6,41.6,0,0,1,256.82,247Z"/><circle class="cls-17" cx="214.96" cy="247.03" r="35.71"/><rect class="cls-18" x="212.43" y="216.28" width="5.06" height="5.06" rx="1.1"/><rect class="cls-18" x="224.96" y="219.14" width="5.06" height="5.06" rx="1.1" transform="translate(-70.93 330.46) rotate(-64.29)"/><rect class="cls-18" x="235.01" y="227.16" width="5.06" height="5.06" rx="1.1" transform="translate(-91.38 198.22) rotate(-38.57)"/><rect class="cls-18" x="240.59" y="238.74" width="5.06" height="5.06" rx="1.1" transform="translate(-47.59 60.15) rotate(-12.86)"/><rect class="cls-18" x="240.59" y="251.6" width="5.06" height="5.06" rx="1.1" transform="translate(-58.73 434.6) rotate(-77.14)"/><rect class="cls-18" x="235.01" y="263.18" width="5.06" height="5.06" rx="1.1" transform="translate(-118.3 285.76) rotate(-51.43)"/><rect class="cls-18" x="224.96" y="271.19" width="5.06" height="5.06" rx="1.1" transform="translate(-96.23 125.81) rotate(-25.71)"/><rect class="cls-18" x="212.43" y="274.05" width="5.06" height="5.06" rx="1.1"/><rect class="cls-18" x="199.9" y="271.19" width="5.06" height="5.06" rx="1.1" transform="translate(-132.02 337.34) rotate(-64.29)"/><rect class="cls-18" x="189.85" y="263.18" width="5.06" height="5.06" rx="1.1" transform="translate(-123.69 177.91) rotate(-38.57)"/><rect class="cls-18" x="184.27" y="251.6" width="5.06" height="5.06" rx="1.1" transform="translate(-51.86 47.94) rotate(-12.86)"/><rect class="cls-18" x="184.27" y="238.74" width="5.06" height="5.06" rx="1.1" transform="translate(-89.99 369.7) rotate(-77.14)"/><rect class="cls-18" x="189.85" y="227.16" width="5.06" height="5.06" rx="1.1" transform="translate(-107.15 236.88) rotate(-51.43)"/><rect class="cls-18" x="199.9" y="219.14" width="5.06" height="5.06" rx="1.1" transform="translate(-76.13 109.78) rotate(-25.71)"/><rect class="cls-18" x="212.43" y="216.28" width="5.06" height="5.06" rx="1.1"/><path class="cls-18" d="M225.39,249.23a9.92,9.92,0,0,0-3.79-3.32,42.31,42.31,0,0,0-4.7-2.08c-.46-.18-.93-.35-1.42-.52l-2.07-.84-1-.44a4.7,4.7,0,0,1-1.85-1.35,3.33,3.33,0,0,1-.61-2.07,3.53,3.53,0,0,1,.67-2.31,3.78,3.78,0,0,1,1.73-1.18,6.15,6.15,0,0,1,1-.24v-7.2a12.48,12.48,0,0,0-4.85,1.43,10.71,10.71,0,0,0-4.27,4.17,12.71,12.71,0,0,0-1.54,6.4,9.87,9.87,0,0,0,1.16,5,9.49,9.49,0,0,0,3.38,3.27,36.9,36.9,0,0,0,5.58,2.62l.54.18c1.12.41,2.09.75,2.9,1.06.21.08.41.16.59.25a5.76,5.76,0,0,1,1.59,1,3,3,0,0,1,.74,2.18,3.38,3.38,0,0,1-1.35,2.93,4.58,4.58,0,0,1-1,.52v7.54a11.33,11.33,0,0,0,6.49-3q3.3-3.13,3.3-8.69A9.86,9.86,0,0,0,225.39,249.23Zm-21.48,4.64-2.83,6.3a16.06,16.06,0,0,0,6,4.7,18.18,18.18,0,0,0,6.29,1.56v-7.25a11.77,11.77,0,0,1-4.24-1.26A19.94,19.94,0,0,1,203.91,253.87Zm17.23-25a14.58,14.58,0,0,0-4.24-1.15v7.35a9.86,9.86,0,0,1,2,.75,16.79,16.79,0,0,1,4.33,3.36L226.4,233A14.35,14.35,0,0,0,221.14,228.87Z"/><path class="cls-18" d="M216.9,227.72v7.35a8.15,8.15,0,0,0-2.23-.3,6.56,6.56,0,0,0-1.26.11v-7.2a13.94,13.94,0,0,1,1.6-.08A13.14,13.14,0,0,1,216.9,227.72Z"/><path class="cls-18" d="M216.9,225.39v2.33a13.14,13.14,0,0,0-1.89-.12,13.94,13.94,0,0,0-1.6.08v-2.29Z"/><path class="cls-18" d="M216.9,258.77v7.54a17.47,17.47,0,0,1-2.35.16c-.38,0-.76,0-1.14,0v-7.25a8.19,8.19,0,0,0,.85,0A7,7,0,0,0,216.9,258.77Z"/><path class="cls-18" d="M216.9,266.31v2.37h-3.49v-2.25c.38,0,.76,0,1.14,0A17.47,17.47,0,0,0,216.9,266.31Z"/><path class="cls-19" d="M243.29,216.2l-43.61,69.62-.39,0a41.12,41.12,0,0,1-8.49-4.65l44.36-70.85A41.73,41.73,0,0,1,243.29,216.2Z"/><path class="cls-19" d="M251.41,226.43,214,288.88a40.56,40.56,0,0,1-7.45-.84l41.32-66.87A40.86,40.86,0,0,1,251.41,226.43Z"/><path class="cls-20" d="M193.15,210.7l1.38-5.14a.54.54,0,0,1,1,0L197,210.7a5.75,5.75,0,0,0,4.08,4.07l5.13,1.38a.54.54,0,0,1,0,1L201,218.58a5.78,5.78,0,0,0-4.08,4.08l-1.37,5.13a.54.54,0,0,1-1,0l-1.39-5.13a5.8,5.8,0,0,0-4.08-4.08l-5.14-1.37a.54.54,0,0,1,0-1l5.14-1.39A5.75,5.75,0,0,0,193.15,210.7Z"/><path class="cls-21" d="M97.57,284.42l-1.3,0H42.47c-6.49-.11-13.43-1.38-16.15-3l0,0-.24-.15-7.78-5.15-.17-.12L18,276c-2.08-1.59,1-2.86,7.2-3H79l1.38,0c6.29.21,12.79,1.46,15.32,3h0l.16.1,7.81,5.17.17.11.09.07C105.85,283,103.12,284.21,97.57,284.42Z"/><ellipse class="cls-21" cx="60.98" cy="278.74" rx="3" ry="13.87" transform="translate(-221.95 315.67) rotate(-85.1)"/><ellipse class="cls-21" cx="60.98" cy="278.74" rx="1.37" ry="6.31" transform="matrix(0.09, -1, 1, 0.09, -221.94, 315.68)"/><path class="cls-21" d="M95.74,276.05H93.19c-1.41,0-2.85-.08-4.26-.22-3.9-.37-7.47-1.21-8.94-2.17l0,0L79,273H87.2a16,16,0,0,1,4.9.71,3.07,3.07,0,0,1,.57.27l3.06,2Z"/><path class="cls-21" d="M107.19,283.89c-.14.33-1.16.56-2.74.56H96.27l-.92-.62,0,0c-1.95-1.31.73-2.37,6-2.38h2.55l.1.07,3,2a.6.6,0,0,1,.25.26A.17.17,0,0,1,107.19,283.89Z"/><path class="cls-21" d="M42.93,284.45H34.77c-2.19,0-4.64-.44-5.46-1l-3-2,0,0,0,0h2.52c5.3,0,11.17,1.06,13.2,2.37l0,0Z"/><path class="cls-21" d="M20.62,276H18.08L18,276l-3-2c-.82-.55.29-1,2.49-1h8.18l.93.61,0,0C28.58,275,25.9,276,20.62,276Z"/><polygon class="cls-21" points="28.81 281.46 26.25 281.46 18.02 276.01 20.57 276.01 20.62 276.04 28.77 281.44 28.81 281.46"/><polygon class="cls-21" points="101.42 281.5 103.98 281.5 95.74 276.05 93.19 276.05 101.42 281.5"/><polygon class="cls-21" points="81.32 273.66 80.36 273.02 25.23 273.02 26.19 273.66 81.32 273.66"/><polygon class="cls-21" points="97.62 284.45 96.66 283.81 41.53 283.81 42.49 284.45 97.62 284.45"/><path class="cls-22" d="M97.55,271.25l-1.3,0-.92-.61,0,0h1.34Z"/><path class="cls-23" d="M104.3,269.77H55.09v1.51H42c-6.35-.17-13-1.41-15.67-2.95l0,0-.24-.15L18.24,263l-.17-.12-.05,0c-2.08-1.58,1-2.86,7.2-3H79l1.39,0c6.28.21,12.78,1.46,15.31,3h0l.16.09,7.81,5.18.17.11.09.07C104.61,268.86,104.7,269.35,104.3,269.77Z"/><ellipse class="cls-22" cx="60.96" cy="265.57" rx="3" ry="13.87" transform="translate(-208.84 303.61) rotate(-85.1)"/><ellipse class="cls-24" cx="60.97" cy="265.57" rx="1.37" ry="6.31" transform="translate(-208.84 303.61) rotate(-85.1)"/><path class="cls-22" d="M95.72,262.87H93.17c-1.41,0-2.85-.08-4.26-.22-3.89-.38-7.47-1.21-8.94-2.17l0,0-.93-.61h8.17a16,16,0,0,1,4.9.71,3.07,3.07,0,0,1,.57.27l3.06,2Z"/><path class="cls-22" d="M96.25,271.27l1.3,0,0,0H96.25Z"/><path class="cls-22" d="M106.14,269.77H94.67c.08-.88,2.59-1.5,6.63-1.51h2.55l.1.07Z"/><path class="cls-22" d="M42.91,271.27H34.75a13,13,0,0,1-5.46-1l-3-2,0,0,0,0h2.52c5.3,0,11.17,1.07,13.2,2.38l0,0h0Z"/><path class="cls-22" d="M20.6,262.87H18.06l-.06,0-3-2a.66.66,0,0,1-.25-.26.25.25,0,0,1,0-.17c.13-.3,1-.52,2.38-.55h8.54l.93.61,0,0C28.56,261.8,25.88,262.86,20.6,262.87Z"/><polygon class="cls-22" points="28.79 268.29 26.23 268.29 18 262.83 20.55 262.83 20.61 262.87 28.75 268.26 28.79 268.29"/><polygon class="cls-22" points="101.41 268.33 103.96 268.33 95.72 262.87 93.17 262.87 101.41 268.33"/><polygon class="cls-22" points="81.3 260.49 80.34 259.85 25.21 259.85 26.17 260.49 81.3 260.49"/><polygon class="cls-22" points="55.09 270.64 55.09 271.28 42.47 271.28 42.47 271.28 42.45 271.27 41.51 270.64 55.09 270.64"/><path class="cls-22" d="M97.6,271.28H96.25l1.3,0Z"/><path class="cls-22" d="M107.19,270.64c0,.37-1,.64-2.76.64H97.6l0,0c3.6-.14,6-.7,6.75-1.48h1.84l.78.52C107.1,270.41,107.19,270.53,107.19,270.64Z"/><path class="cls-22" d="M96.25,271.27H55.09v-.64H95.3l0,0Z"/><path class="cls-23" d="M95.3,270.64H55.09v-.87H94.67C94.64,270,94.84,270.33,95.3,270.64Z"/><path class="cls-22" d="M104.3,269.77c-.74.78-3.15,1.34-6.75,1.48l-.91-.61H95.3c-.46-.31-.66-.6-.63-.87Z"/><path class="cls-21" d="M107.19,270.63v13.26c-.17.33-1.45.56-3.43.56H42V271.28h61.77c2,0,3.28-.24,3.44-.58A.15.15,0,0,0,107.19,270.63Z"/><path class="cls-21" d="M42,271.28v2.38H14.74V260.57a.56.56,0,0,0,.25.27l3,2h0l.06,0,.09.06,8.08,5.36h0l0,0,3,2a13,13,0,0,0,5.47,1Z"/><polygon class="cls-25" points="26.41 271.38 26.15 271.57 14.74 263.52 14.74 263.15 26.41 271.38"/><polygon class="cls-25" points="19.56 269.78 19.3 269.96 14.74 266.75 14.74 266.38 19.56 269.78"/><polygon class="cls-25" points="29.45 279.78 29.19 279.96 25.02 277.02 14.74 269.77 14.74 269.4 21.75 274.34 25.42 276.94 29.45 279.78"/><rect class="cls-25" x="65.15" y="243.36" width="0.26" height="61.61" transform="translate(-208.89 339.45) rotate(-90)"/><rect class="cls-25" x="63.03" y="246.12" width="0.26" height="61.61" transform="translate(-213.76 340.09) rotate(-90)"/><path class="cls-25" d="M107.19,278.14v.32l-.08.05a5.13,5.13,0,0,1-1.79.4H43.7v-.26h61.58a4.2,4.2,0,0,0,1.16-.18A3.74,3.74,0,0,0,107.19,278.14Z"/><path class="cls-25" d="M107.19,273.47v.32l-.08,0a4.94,4.94,0,0,1-1.79.41h-1.21a1.36,1.36,0,0,0,0-.29h1.14a4.2,4.2,0,0,0,1.16-.18A3.74,3.74,0,0,0,107.19,273.47Z"/><path class="cls-21" d="M102.83,269.08c-.42,0-.85,0-1.3,0H47.74c-6.49-.11-13.44-1.38-16.16-3l0,0-.24-.15-7.78-5.15-.17-.12-.05,0c-2.09-1.58,1-2.86,7.2-3H84.29l1.39,0c6.28.21,12.78,1.46,15.31,3h0l.16.1L109,266l.16.11.09.08C111.12,267.66,108.38,268.87,102.83,269.08Z"/><ellipse class="cls-21" cx="66.24" cy="263.4" rx="3" ry="13.87" transform="translate(-201.86 306.89) rotate(-85.1)"/><ellipse class="cls-21" cx="66.25" cy="263.4" rx="1.37" ry="6.31" transform="translate(-201.85 306.89) rotate(-85.1)"/><path class="cls-21" d="M101,260.71H98.45c-1.41,0-2.85-.08-4.26-.21-3.89-.38-7.46-1.21-8.94-2.18h0l-.93-.62h8.17a15.78,15.78,0,0,1,4.91.72,2.25,2.25,0,0,1,.56.27l3.06,2Z"/><path class="cls-21" d="M112.46,268.55c-.14.33-1.17.56-2.74.56h-8.19l-.92-.61,0,0c-2-1.31.73-2.38,6-2.39h2.55l.11.08,3,1.95a.72.72,0,0,1,.26.27A.22.22,0,0,1,112.46,268.55Z"/><path class="cls-21" d="M48.19,269.11H40c-2.2,0-4.65-.44-5.47-1l-3-2,0,0,0,0H34c5.3,0,11.17,1.07,13.2,2.38l0,0Z"/><path class="cls-21" d="M25.89,260.71H23.34l-.05,0-3-2c-.82-.54.29-1,2.48-1h8.18l.93.61,0,0C33.84,259.64,31.16,260.7,25.89,260.71Z"/><polygon class="cls-21" points="34.07 266.13 31.52 266.13 23.28 260.67 25.83 260.67 25.89 260.71 34.03 266.1 34.07 266.13"/><polygon class="cls-21" points="106.69 266.17 109.24 266.17 101 260.71 98.45 260.71 106.69 266.17"/><polygon class="cls-21" points="86.58 258.32 85.63 257.69 30.5 257.69 31.45 258.32 86.58 258.32"/><polygon class="cls-21" points="102.88 269.11 101.92 268.48 46.79 268.48 47.75 269.11 102.88 269.11"/><path class="cls-22" d="M102.81,255.91c-.41,0-.85,0-1.3,0l-.92-.62h1.31Z"/><path class="cls-23" d="M109.57,254.43H60.35v1.51H47.23c-6.34-.16-13-1.41-15.67-2.94l0,0-.24-.15-7.78-5.16-.17-.11-.05,0c-2.09-1.59,1-2.86,7.2-3H84.27l1.39,0c6.28.21,12.79,1.46,15.32,3h0l.15.1,7.82,5.17.16.11.1.07C109.87,253.52,110,254,109.57,254.43Z"/><ellipse class="cls-22" cx="66.22" cy="250.23" rx="3" ry="13.87" transform="translate(-188.75 294.83) rotate(-85.1)"/><ellipse class="cls-24" cx="66.23" cy="250.23" rx="1.37" ry="6.31" transform="translate(-188.75 294.83) rotate(-85.1)"/><path class="cls-22" d="M101,247.54H98.43c-1.4,0-2.85-.08-4.26-.21-3.89-.38-7.46-1.21-8.94-2.18h0l-.93-.62h8.17a15.78,15.78,0,0,1,4.91.72,2.25,2.25,0,0,1,.56.27l3.07,2Z"/><path class="cls-22" d="M101.51,255.94c.45,0,.89,0,1.3,0l0,0h-1.35Z"/><path class="cls-22" d="M111.4,254.43H99.93c.09-.88,2.6-1.5,6.63-1.51h2.55l.11.07Z"/><path class="cls-22" d="M48.17,255.94H40c-2.2,0-4.65-.44-5.47-1l-3-2,0,0,0,0H34c5.29,0,11.16,1.07,13.19,2.38h0Z"/><path class="cls-22" d="M25.87,247.54H23.32l-.05,0-3-2a.7.7,0,0,1-.26-.26.22.22,0,0,1,0-.16c.13-.31,1-.53,2.38-.56h8.54l.93.61,0,0C33.82,246.47,31.14,247.53,25.87,247.54Z"/><polygon class="cls-22" points="34.05 252.96 31.5 252.96 23.26 247.5 25.81 247.5 25.87 247.54 34.02 252.93 34.05 252.96"/><polygon class="cls-22" points="106.67 252.99 109.22 252.99 100.98 247.54 98.43 247.54 106.67 252.99"/><polygon class="cls-22" points="86.57 245.15 85.61 244.52 30.48 244.52 31.44 245.15 86.57 245.15"/><polygon class="cls-22" points="60.35 255.31 60.35 255.94 47.73 255.94 47.73 255.94 47.72 255.93 46.78 255.31 60.35 255.31"/><path class="cls-22" d="M102.86,255.94h-1.35c.45,0,.89,0,1.3,0Z"/><path class="cls-22" d="M112.46,255.3c0,.37-1.06.64-2.76.64h-6.84l0,0c3.6-.14,6-.69,6.76-1.48h1.83l.78.52C112.37,255.08,112.46,255.19,112.46,255.3Z"/><path class="cls-22" d="M101.51,255.94H60.35v-.63h40.24Z"/><path class="cls-23" d="M100.57,255.31H60.35v-.88H99.93C99.9,254.7,100.1,255,100.57,255.31Z"/><path class="cls-22" d="M109.57,254.43c-.74.79-3.16,1.34-6.76,1.48l-.91-.6h-1.33c-.47-.31-.67-.61-.64-.88Z"/><path class="cls-21" d="M112.45,255.3v13.25c-.17.33-1.45.56-3.42.56H47.23V255.94H109c2,0,3.29-.23,3.44-.57A.17.17,0,0,0,112.45,255.3Z"/><path class="cls-21" d="M47.23,255.94v2.38H20V245.24a.6.6,0,0,0,.25.26l3,2h0l.05,0,.1.06L31.5,253h0l0,0,3,2c.82.55,3.27,1,5.47,1Z"/><polygon class="cls-25" points="31.68 256.05 31.42 256.23 20.01 248.18 20.01 247.81 31.68 256.05"/><polygon class="cls-25" points="24.82 254.44 24.56 254.63 20.01 251.41 20.01 251.04 24.82 254.44"/><polygon class="cls-25" points="34.71 264.44 34.45 264.63 30.28 261.69 20.01 254.44 20.01 254.06 27.01 259.01 30.69 261.6 34.71 264.44"/><rect class="cls-25" x="70.41" y="228.03" width="0.26" height="61.61" transform="translate(-188.29 329.38) rotate(-90)"/><rect class="cls-25" x="68.3" y="230.78" width="0.26" height="61.61" transform="translate(-193.16 330.01) rotate(-90)"/><path class="cls-25" d="M112.45,262.81v.32l-.08,0a5.15,5.15,0,0,1-1.79.41H49v-.26h61.59a4.63,4.63,0,0,0,1.16-.18A4.31,4.31,0,0,0,112.45,262.81Z"/><path class="cls-25" d="M112.45,258.13v.33l-.08,0a4.92,4.92,0,0,1-1.79.4h-1.2c0-.1,0-.2,0-.29h1.15a5.14,5.14,0,0,0,1.16-.18A3.58,3.58,0,0,0,112.45,258.13Z"/><path class="cls-21" d="M92.05,253.45l-1.31,0H37c-6.49-.1-13.44-1.29-16.16-2.76l0,0-.24-.14-7.78-4.82-.17-.11-.05,0c-2.08-1.48,1-2.68,7.2-2.78H73.5l1.39,0c6.29.2,12.79,1.37,15.32,2.79h0l.16.09,7.81,4.83.16.11.1.06C100.33,252.12,97.6,253.25,92.05,253.45Z"/><ellipse class="cls-21" cx="55.46" cy="248.14" rx="2.81" ry="13.87" transform="translate(-196.31 283.71) rotate(-85.44)"/><ellipse class="cls-21" cx="55.46" cy="248.14" rx="1.28" ry="6.31" transform="translate(-196.3 283.72) rotate(-85.44)"/><path class="cls-21" d="M90.21,245.62H87.67c-1.41,0-2.86-.08-4.26-.2-3.9-.36-7.47-1.13-9-2h0l-.94-.58h8.18a16.82,16.82,0,0,1,4.9.67,3.08,3.08,0,0,1,.57.26l3.06,1.89Z"/><path class="cls-21" d="M101.67,253c-.14.31-1.16.53-2.74.53H90.75l-.93-.58h0c-2-1.23.72-2.22,6-2.23h2.55l.11.06,3,1.83a.58.58,0,0,1,.25.25A.2.2,0,0,1,101.67,253Z"/><path class="cls-21" d="M37.4,253.48H29.25a13.75,13.75,0,0,1-5.47-.93l-3-1.84,0,0,0,0h2.53c5.29,0,11.16,1,13.19,2.23l0,0Z"/><path class="cls-21" d="M15.1,245.62H12.56l-.06,0-3-1.87c-.82-.51.29-.92,2.49-.92h8.18l.92.57,0,0C23.05,244.62,20.38,245.61,15.1,245.62Z"/><polygon class="cls-21" points="23.29 250.69 20.73 250.69 12.49 245.59 15.04 245.59 15.1 245.62 23.25 250.66 23.29 250.69"/><polygon class="cls-21" points="95.9 250.72 98.45 250.72 90.22 245.63 87.66 245.63 95.9 250.72"/><polygon class="cls-21" points="75.8 243.39 74.84 242.8 19.71 242.8 20.67 243.39 75.8 243.39"/><polygon class="cls-21" points="92.09 253.48 91.14 252.89 36.01 252.89 36.96 253.48 92.09 253.48"/><path class="cls-22" d="M92,241.14l-1.3,0-.93-.58h1.32Z"/><path class="cls-23" d="M98.78,239.76H49.57v1.41H36.44c-6.34-.15-13-1.32-15.67-2.75l0,0-.24-.14-7.78-4.82-.17-.11-.05,0c-2.08-1.48,1-2.68,7.2-2.78H73.48l1.39,0c6.29.2,12.79,1.37,15.32,2.79h0l.16.09,7.81,4.83.16.11.1.06C99.09,238.9,99.18,239.36,98.78,239.76Z"/><ellipse class="cls-22" cx="55.44" cy="235.83" rx="2.81" ry="13.87" transform="translate(-184.05 272.36) rotate(-85.44)"/><ellipse class="cls-24" cx="55.44" cy="235.83" rx="1.28" ry="6.31" transform="translate(-184.04 272.36) rotate(-85.44)"/><path class="cls-22" d="M90.2,233.31H87.65c-1.41,0-2.86-.08-4.26-.21-3.9-.35-7.47-1.12-9-2h0l-.94-.58h8.18a16.82,16.82,0,0,1,4.9.67,3.08,3.08,0,0,1,.57.26l3.06,1.89Z"/><path class="cls-22" d="M90.73,241.17l1.3,0,0,0Z"/><path class="cls-22" d="M100.62,239.76H89.15c.08-.83,2.59-1.41,6.63-1.41h2.54l.11.06Z"/><path class="cls-22" d="M37.39,241.17H29.23a13.69,13.69,0,0,1-5.46-.93l-3-1.84,0,0,0,0h2.52c5.29,0,11.16,1,13.2,2.23h0Z"/><path class="cls-22" d="M15.08,233.31H12.54l-.06,0-3-1.87a.54.54,0,0,1-.25-.25.14.14,0,0,1,0-.15c.13-.28,1-.49,2.38-.52h8.54l.92.57s0,0,0,0C23,232.31,20.36,233.3,15.08,233.31Z"/><polygon class="cls-22" points="23.27 238.38 20.71 238.38 12.47 233.28 15.03 233.28 15.08 233.31 23.23 238.35 23.27 238.38"/><polygon class="cls-22" points="95.88 238.41 98.44 238.41 90.2 233.31 87.64 233.31 95.88 238.41"/><polygon class="cls-22" points="75.78 231.08 74.82 230.49 19.69 230.49 20.65 231.08 75.78 231.08"/><polygon class="cls-22" points="49.57 240.57 49.57 241.17 36.94 241.17 36.94 241.17 36.93 241.16 35.99 240.57 49.57 240.57"/><path class="cls-22" d="M92.08,241.17H90.73l1.3,0Z"/><path class="cls-22" d="M101.67,240.57c0,.35-1,.6-2.76.6H92.08l0,0c3.59-.13,6-.65,6.75-1.38h1.84l.78.48Q101.67,240.42,101.67,240.57Z"/><path class="cls-22" d="M90.73,241.17H49.57v-.59H89.8Z"/><path class="cls-23" d="M89.78,240.58H49.57v-.82H89.15C89.12,240,89.32,240.29,89.78,240.58Z"/><path class="cls-22" d="M98.78,239.76c-.74.73-3.16,1.25-6.75,1.38l-.91-.56H89.78c-.46-.29-.66-.57-.63-.82Z"/><path class="cls-21" d="M101.67,240.57V253c-.17.31-1.45.53-3.43.53H36.44V241.17H98.22c2,0,3.28-.22,3.43-.54A.14.14,0,0,0,101.67,240.57Z"/><path class="cls-21" d="M36.44,241.17v2.22H9.22V231.16a.58.58,0,0,0,.25.25l3,1.87h0l.06,0,.09.06,8.08,5h0l0,0,3,1.84a13.75,13.75,0,0,0,5.47.93Z"/><polygon class="cls-25" points="20.89 241.27 20.63 241.44 9.22 233.92 9.22 233.57 20.89 241.27"/><polygon class="cls-25" points="14.04 239.77 13.78 239.94 9.22 236.94 9.22 236.59 14.04 239.77"/><polygon class="cls-25" points="23.93 249.11 23.67 249.29 19.5 246.54 9.22 239.76 9.22 239.41 16.22 244.03 19.9 246.46 23.93 249.11"/><rect class="cls-25" x="59.64" y="213.07" width="0.24" height="61.61" transform="translate(-184.11 303.63) rotate(-90)"/><rect class="cls-25" x="57.52" y="215.64" width="0.24" height="61.61" transform="translate(-188.8 304.08) rotate(-90)"/><path class="cls-25" d="M101.67,247.58v.3l-.09.05a5.52,5.52,0,0,1-1.79.38H38.17v-.25H99.76a4.44,4.44,0,0,0,1.16-.16A4.07,4.07,0,0,0,101.67,247.58Z"/><path class="cls-25" d="M101.67,243.22v.3l-.09,0a5.27,5.27,0,0,1-1.79.38h-1.2a.82.82,0,0,0,0-.27h1.15a5,5,0,0,0,1.16-.17A4.13,4.13,0,0,0,101.67,243.22Z"/><path class="cls-21" d="M186.48,191.69c.36-.16.72-.34,1.1-.52l.18-.09.21-.1,43.9-21.93.18-.09.21-.11.38-.19c5.39-2.8,10.73-6.71,12.4-9.08l0,0,.14-.21,4.54-7.29.1-.17s0,0,0,0c1.14-2.11-2-1.8-7.17.69l-.37.18-.39.19L198,174.82l-.4.2-1.15.6c-5.18,2.8-10.15,6.49-11.68,8.75h0l-.09.14-4.56,7.32a1.29,1.29,0,0,0-.09.16l-.06.09C179,194,181.75,193.85,186.48,191.69Z"/><ellipse class="cls-21" cx="214.95" cy="171.94" rx="12.99" ry="2.62" transform="matrix(0.86, -0.52, 0.52, 0.86, -57.91, 135.71)"/><ellipse class="cls-21" cx="214.94" cy="171.94" rx="5.91" ry="1.19" transform="translate(-57.91 135.7) rotate(-31.09)"/><path class="cls-21" d="M184.8,184.37h0l2.13-1.06c1.18-.6,2.36-1.26,3.49-1.95,3.11-1.93,5.79-4.07,6.65-5.45l0,0,.54-.87h0l-6.84,3.42a15.74,15.74,0,0,0-3.84,2.61,2.73,2.73,0,0,0-.37.45l-1.78,2.87Z"/><path class="cls-21" d="M178.21,195.3c.25.2,1.19,0,2.51-.7l6.86-3.43h0l.54-.87v0c1.13-1.84-1.52-1.56-5.94.64L180.06,192l-.07.1-1.73,2.77a.64.64,0,0,0-.11.31A.15.15,0,0,0,178.21,195.3Z"/><path class="cls-21" d="M232.26,168.85h0l6.83-3.41a13,13,0,0,0,4.2-3.06l1.75-2.8,0,0,0,0-2.12,1c-4.43,2.23-8.94,5.51-10.14,7.39l0,0Z"/><path class="cls-21" d="M247.72,152.94l2.13-1.06,0,0,1.75-2.83c.48-.77-.62-.65-2.46.27l-6.84,3.42h0l-.54.86,0,0C240.64,155.43,243.29,155.14,247.72,152.94Z"/><polygon class="cls-21" points="242.94 160.61 245.08 159.54 249.88 151.82 247.75 152.89 247.72 152.94 242.96 160.57 242.94 160.61"/><polygon class="cls-21" points="182.13 191.02 179.99 192.09 184.79 184.37 186.93 183.3 182.13 191.02"/><polygon class="cls-21" points="195.95 176.47 196.51 175.57 242.69 152.51 242.13 153.41 195.95 176.47"/><polygon class="cls-21" points="186.45 191.74 187.01 190.84 233.19 167.77 232.63 168.67 186.45 191.74"/><path class="cls-22" d="M181.43,181.37c.36-.16.73-.33,1.1-.52l.54-.87v0l-1.12.56Z"/><path class="cls-23" d="M175.21,183l41.22-20.59.58,1.18,9.81-4.9.18-.09.22-.11.37-.19.41-.21c5.25-2.78,10.36-6.55,12-8.87l0,0c.05-.07.1-.14.14-.21l4.54-7.29.1-.17,0,0c1.13-2.12-2-1.81-7.18.68l-.36.18-.2.1-.2.09L193,164.5l-.39.2c-.39.19-.77.39-1.15.6-5.19,2.8-10.15,6.5-11.69,8.75h0l-.09.14-4.56,7.32-.09.16a.41.41,0,0,0,0,.09C174.6,182.46,174.71,182.88,175.21,183Z"/><ellipse class="cls-22" cx="209.9" cy="161.62" rx="12.99" ry="2.62" transform="translate(-53.31 131.62) rotate(-31.09)"/><ellipse class="cls-24" cx="209.89" cy="161.62" rx="5.91" ry="1.19" transform="translate(-53.31 131.61) rotate(-31.09)"/><path class="cls-22" d="M179.75,174.05h0l2.13-1.06c1.18-.59,2.36-1.26,3.49-2,3.12-1.93,5.79-4.07,6.66-5.45v0l.55-.87h0l-6.85,3.42a15.75,15.75,0,0,0-3.83,2.61,2.3,2.3,0,0,0-.37.45l-1.79,2.87Z"/><path class="cls-22" d="M182.53,180.85c-.37.19-.74.36-1.1.52l0,0,1.13-.56Z"/><path class="cls-22" d="M173.67,183.81l9.61-4.8c-.41-.65-2.75-.09-6.14,1.59L175,181.67l-.06.1Z"/><path class="cls-22" d="M227.22,158.53h0l6.83-3.41a13,13,0,0,0,4.2-3.06l1.74-2.8,0,0,0,0-2.11,1.05c-4.44,2.23-8.94,5.51-10.14,7.39v0h0Z"/><path class="cls-22" d="M242.67,142.62l2.13-1.06,0-.05,1.76-2.83a.58.58,0,0,0,.11-.31.13.13,0,0,0-.07-.12c-.22-.19-1,0-2.2.56l-.31.14-6.84,3.42h0l-.55.86,0,0C235.6,145.11,238.25,144.82,242.67,142.62Z"/><polygon class="cls-22" points="237.9 150.29 240.04 149.22 244.84 141.5 242.7 142.57 242.67 142.62 237.92 150.25 237.9 150.29"/><polygon class="cls-22" points="177.08 180.7 174.94 181.77 179.75 174.05 181.89 172.99 177.08 180.7"/><polygon class="cls-22" points="190.91 166.15 191.47 165.26 237.65 142.19 237.09 143.09 190.91 166.15"/><polygon class="cls-22" points="216.77 163.13 217.01 163.63 227.59 158.35 227.59 158.35 227.59 158.34 228.14 157.46 216.77 163.13"/><path class="cls-22" d="M181.4,181.42l1.52-.76-.21.11-.18.08c-.37.19-.74.36-1.1.52Z"/><path class="cls-22" d="M173.12,184.93c.14.29,1.13.06,2.56-.65l5.72-2.86,0,0c-3.06,1.4-5.3,2-6.22,1.67l-1.54.77-.46.73C173.11,184.72,173.08,184.84,173.12,184.93Z"/><path class="cls-22" d="M182.53,180.85l.18-.08.21-.11,34.09-17-.24-.5L183.08,180v0Z"/><path class="cls-23" d="M183.08,180l33.69-16.83-.34-.68L183.28,179C183.41,179.21,183.35,179.53,183.08,180Z"/><path class="cls-22" d="M175.21,183c.92.31,3.16-.27,6.22-1.67l.53-.85,1.12-.56c.27-.43.33-.75.2-1Z"/><path class="cls-21" d="M173.12,184.93l5.1,10.37c.27.19,1.43-.17,3.08-1l51.77-25.86L228,158.14l-42.68,21.32-.27.13-.22.11-.72.36L176.26,184c-1.68.84-2.84,1.19-3.1,1Z"/><path class="cls-21" d="M228,158.14l.91,1.87,22.81-11.39-5-10.25a.67.67,0,0,1-.11.32l-1.75,2.82h0l0,.05-.05.08L240,149.22h0l0,0-1.74,2.8a12.94,12.94,0,0,1-4.21,3.06Z"/><polygon class="cls-25" points="241.07 151.72 241.36 151.75 247.83 140.68 247.69 140.39 241.07 151.72"/><polygon class="cls-25" points="246.2 147.59 246.49 147.63 249.07 143.21 248.93 142.92 246.2 147.59"/><polygon class="cls-25" points="241.76 159.56 242.05 159.59 244.41 155.55 250.23 145.57 250.09 145.28 246.12 152.08 244.04 155.65 241.76 159.56"/><polygon class="cls-25" points="183.73 182.95 183.83 183.15 235.44 157.37 235.34 157.17 183.73 182.95"/><polygon class="cls-25" points="186.56 184.22 186.66 184.42 238.28 158.64 238.17 158.44 186.56 184.22"/><path class="cls-25" d="M176,190.8l.12.25h.09a5.08,5.08,0,0,0,1.65-.44l4.4-2.19,2.14-1.07L204,177.59l5.92-3,9.8-4.9,5.93-3,3.87-1.93-.1-.21-3.53,1.76-5.91,3-9.84,4.91-5.91,2.95L184.66,187,182.52,188l-4.73,2.36a4.43,4.43,0,0,1-1,.35A3.69,3.69,0,0,1,176,190.8Z"/><path class="cls-25" d="M174.21,187.15l.12.25h.09a4.73,4.73,0,0,0,1.66-.44l1-.5a.67.67,0,0,1-.13-.21l-1,.48a5.17,5.17,0,0,1-1.05.34A3.67,3.67,0,0,1,174.21,187.15Z"/><g class="cls-26"><path d="M186.47,191.69c.36-.16.73-.33,1.1-.52l.18-.08L188,191l43.9-21.92.18-.1.21-.11.38-.19c5.39-2.8,10.73-6.7,12.4-9.08l0,0,.14-.22,4.54-7.29.1-.16s0,0,0,0c1.13-2.12-2-1.81-7.18.68l-.37.18-.39.19L198,174.82l-.39.2-1.16.6c-5.18,2.8-10.15,6.5-11.68,8.75h0l-.09.15-4.56,7.31-.09.16a.31.31,0,0,0-.05.1C179,194.05,181.74,193.85,186.47,191.69Z"/><ellipse cx="214.94" cy="171.94" rx="12.99" ry="2.62" transform="translate(-57.91 135.7) rotate(-31.09)"/><ellipse cx="214.93" cy="171.94" rx="5.91" ry="1.19" transform="translate(-57.92 135.7) rotate(-31.09)"/><path d="M184.79,184.37h0l2.13-1.07c1.18-.59,2.36-1.26,3.49-1.95,3.12-1.93,5.79-4.07,6.65-5.45l0,0,.55-.87h0l-6.85,3.42a16,16,0,0,0-3.83,2.61,2.23,2.23,0,0,0-.37.45l-1.79,2.87Z"/><path d="M178.21,195.3c.24.21,1.18,0,2.51-.7l6.85-3.42h0l.54-.86v0c1.13-1.84-1.52-1.55-5.94.64L180.05,192l-.07.1-1.73,2.78a.61.61,0,0,0-.11.31A.13.13,0,0,0,178.21,195.3Z"/><path d="M232.25,168.85h0l6.83-3.42a12.67,12.67,0,0,0,4.19-3.06l1.75-2.8,0,0,0,0-2.11,1c-4.44,2.23-9,5.51-10.14,7.39l0,0Z"/><path d="M247.71,152.94l2.13-1.06,0,0,1.76-2.82c.47-.77-.63-.66-2.47.26l-6.84,3.42h0l-.54.87,0,0C240.63,155.43,243.28,155.15,247.71,152.94Z"/><polygon points="242.93 160.61 245.07 159.54 249.88 151.83 247.74 152.89 247.71 152.94 242.96 160.57 242.93 160.61"/><polygon points="182.12 191.02 179.98 192.09 184.79 184.37 186.93 183.31 182.12 191.02"/><polygon points="195.94 176.47 196.5 175.58 242.69 152.51 242.13 153.41 195.94 176.47"/><polygon points="186.44 191.74 187 190.84 233.18 167.78 232.62 168.67 186.44 191.74"/><path d="M181.42,181.37c.36-.16.73-.33,1.1-.52l.54-.86s0,0,0,0l-1.12.56Z"/><path d="M175.2,183l41.23-20.59.58,1.18,9.8-4.89.19-.1.21-.1.38-.2.4-.21c5.25-2.78,10.36-6.55,12-8.86l0,0,.14-.22,4.54-7.29.1-.16,0,0c1.13-2.11-2-1.81-7.18.68l-.36.18-.2.1-.2.09L193,164.5l-.39.2-1.15.61c-5.19,2.79-10.15,6.49-11.68,8.74h0l-.1.15-4.56,7.32-.09.15s0,.07-.05.1C174.59,182.46,174.7,182.88,175.2,183Z"/><ellipse cx="209.89" cy="161.62" rx="12.99" ry="2.62" transform="translate(-53.31 131.61) rotate(-31.09)"/><ellipse cx="209.89" cy="161.62" rx="5.91" ry="1.19" transform="translate(-53.31 131.61) rotate(-31.09)"/><path d="M179.74,174.06h0l2.14-1.07c1.17-.59,2.36-1.25,3.48-2,3.12-1.92,5.79-4.07,6.66-5.44v0l.55-.87h0l-6.85,3.42a16,16,0,0,0-3.83,2.61,3.08,3.08,0,0,0-.37.45l-1.78,2.87Z"/><path d="M182.52,180.85c-.37.19-.74.36-1.1.52l0,0,1.13-.56Z"/><path d="M173.66,183.81l9.61-4.8c-.41-.65-2.75-.09-6.13,1.59L175,181.67l-.06.1Z"/><path d="M227.21,158.54h0l6.83-3.41a13,13,0,0,0,4.2-3.06l1.74-2.8,0,0,0,0-2.11,1.06c-4.43,2.22-8.94,5.5-10.14,7.38v0h0Z"/><path d="M242.66,142.63l2.13-1.07,0-.05,1.76-2.82a.64.64,0,0,0,.11-.31.15.15,0,0,0-.06-.13c-.23-.19-1,0-2.21.56l-.3.14-6.85,3.42h0l-.55.87v0C235.59,145.12,238.24,144.83,242.66,142.63Z"/><polygon points="237.89 150.29 240.03 149.22 244.83 141.51 242.69 142.57 242.66 142.63 237.91 150.26 237.89 150.29"/><polygon points="177.07 180.71 174.93 181.77 179.74 174.06 181.88 172.99 177.07 180.71"/><polygon points="190.9 166.16 191.46 165.26 237.64 142.19 237.08 143.09 190.9 166.16"/><polygon points="216.76 163.14 217 163.63 227.58 158.35 227.58 158.35 227.59 158.34 228.13 157.46 216.76 163.14"/><path d="M181.39,181.42l1.52-.76-.21.11-.18.08c-.37.19-.74.36-1.1.52Z"/><path d="M173.11,184.93c.15.29,1.13.06,2.56-.65l5.72-2.86,0,0c-3.06,1.4-5.3,2-6.22,1.67l-1.54.77-.45.74C173.1,184.72,173.07,184.85,173.11,184.93Z"/><path d="M182.52,180.85l.18-.08.21-.11,34.1-17-.25-.49L183.07,180s0,0,0,0Z"/><path d="M183.07,180l33.69-16.82-.33-.69L183.27,179C183.4,179.21,183.34,179.53,183.07,180Z"/><path d="M175.2,183c.92.31,3.16-.27,6.22-1.67l.53-.85,1.12-.56c.27-.43.33-.75.2-1Z"/><path d="M173.11,184.93l5.1,10.37c.27.19,1.43-.16,3.09-1l51.76-25.86L228,158.14l-42.68,21.32-.27.13-.22.11-.72.37L176.25,184c-1.67.84-2.84,1.19-3.1,1Z"/><path d="M228,158.14l.91,1.87,22.81-11.39-5-10.24a.64.64,0,0,1-.11.31l-1.75,2.82h0l0,.05,0,.09L240,149.22l0,0,0,0-1.74,2.8a13,13,0,0,1-4.2,3.06Z"/><polygon points="241.06 151.72 241.36 151.76 247.82 140.68 247.68 140.39 241.06 151.72"/><polygon points="246.19 147.6 246.48 147.63 249.06 143.21 248.92 142.92 246.19 147.6"/><polygon points="241.75 159.56 242.04 159.6 244.4 155.55 250.22 145.57 250.08 145.28 246.11 152.08 244.03 155.65 241.75 159.56"/><polygon points="183.72 182.95 183.82 183.15 235.43 157.38 235.33 157.17 183.72 182.95"/><polygon points="186.56 184.22 186.66 184.42 238.27 158.65 238.17 158.44 186.56 184.22"/><path d="M176,190.81l.12.25h.09a5.2,5.2,0,0,0,1.66-.43l4.39-2.2,2.14-1.06L204,177.59q2.85-1.41,5.92-3l9.8-4.89,5.93-3,3.87-1.93-.1-.21-3.52,1.76-5.92,3-9.84,4.91c-2,1-3.94,2-5.9,2.95L184.65,187,182.51,188l-4.73,2.36a5,5,0,0,1-1,.34A3.82,3.82,0,0,1,176,190.81Z"/><path d="M174.2,187.15l.13.25h.08a5,5,0,0,0,1.66-.43l1-.5a1,1,0,0,1-.13-.22l-1,.48a4.2,4.2,0,0,1-1,.34A3.83,3.83,0,0,1,174.2,187.15Z"/></g><path class="cls-27" d="M29.92,130.68c0,.36,0,.73,0,1.08a23.15,23.15,0,0,1-2,8.8h0a16.68,16.68,0,0,1-.89,1.68,13.09,13.09,0,0,1-2,2.6l0,0h0a9.16,9.16,0,0,1-2.27,1.67l-.4.19a3.79,3.79,0,0,1-.42.18,6.91,6.91,0,0,1-2.42.44H19a6.4,6.4,0,0,1-1.68-.32,7.3,7.3,0,0,1-1.29-.56c-.18-.09-.36-.2-.54-.31a10.7,10.7,0,0,1-2.12-1.85c-2.68-3-4.43-8-4.43-13.62C9,121.47,13.65,114,19.44,114h0a6.81,6.81,0,0,1,2.36.44,8.08,8.08,0,0,1,2.2,1.25l.45.37.46.43a12.4,12.4,0,0,1,1.57,1.9c.22.32.43.65.63,1s.34.61.49.93l0,0c.11.21.21.41.3.62h0c.21.47.41,1,.59,1.46s.37,1.12.52,1.7h0a23.1,23.1,0,0,1,.65,3.35A27,27,0,0,1,29.92,130.68Z"/><path class="cls-16" d="M34.75,130.68c0,9-4.5,16.37-10.13,16.67H24a6.55,6.55,0,0,1-1.86-.33l-.31-.11a6.92,6.92,0,0,1-.84-.37c-.23-.12-.45-.25-.68-.39a10.7,10.7,0,0,1-2.12-1.85c-2.68-3-4.43-8-4.43-13.62,0-6.55,2.37-12.22,5.83-14.94a8.39,8.39,0,0,1,2.23-1.29,6.91,6.91,0,0,1,2.42-.44,5.72,5.72,0,0,1,.59,0,7.9,7.9,0,0,1,4.47,2,12.54,12.54,0,0,1,2,2.33,15.8,15.8,0,0,1,1.15,2,18.75,18.75,0,0,1,.89,2.09A24.75,24.75,0,0,1,34.75,130.68Z"/><ellipse class="cls-17" cx="24.27" cy="130.68" rx="8.94" ry="14.23"/><path class="cls-18" d="M23.91,120.45h.72c.15,0,.27-.2.27-.44v-1.14c0-.24-.12-.44-.27-.44h-.72c-.15,0-.27.2-.27.44V120C23.64,120.25,23.76,120.45,23.91,120.45Z"/><path class="cls-18" d="M26.81,121.24l.64.49c.14.11.31,0,.37-.2l.31-1a.55.55,0,0,0-.13-.58l-.64-.49c-.14-.11-.3,0-.37.2l-.31,1A.59.59,0,0,0,26.81,121.24Z"/><path class="cls-18" d="M29.21,124l.44.88c.1.19.27.22.39.07l.56-.71a.6.6,0,0,0,0-.61l-.44-.89c-.1-.19-.27-.22-.39-.07l-.56.71A.62.62,0,0,0,29.21,124Z"/><path class="cls-18" d="M30.62,128.06l.16,1.1c0,.24.19.39.33.33l.7-.25c.15-.05.24-.29.21-.52l-.16-1.11c0-.24-.18-.39-.33-.33l-.7.25C30.68,127.58,30.59,127.82,30.62,128.06Z"/><path class="cls-18" d="M30.78,132.73l-.16,1.11c0,.23.06.47.21.52l.7.25c.15.06.29-.09.33-.33l.16-1.1c0-.24-.06-.48-.21-.53l-.7-.25C31,132.34,30.82,132.49,30.78,132.73Z"/><path class="cls-18" d="M29.65,137.05l-.44.89a.6.6,0,0,0,0,.61l.56.71c.12.15.29.12.39-.07l.44-.89a.6.6,0,0,0,0-.61L30,137C29.92,136.83,29.75,136.86,29.65,137.05Z"/><path class="cls-18" d="M27.45,140.16l-.64.49a.59.59,0,0,0-.13.59l.31,1c.07.22.23.31.37.21L28,142a.55.55,0,0,0,.13-.58l-.31-1C27.76,140.15,27.59,140.05,27.45,140.16Z"/><path class="cls-18" d="M24.63,141.45h-.72c-.15,0-.27.19-.27.43V143c0,.24.12.44.27.44h.72c.15,0,.27-.2.27-.44v-1.14C24.9,141.64,24.78,141.45,24.63,141.45Z"/><path class="cls-18" d="M21.73,140.65l-.65-.49c-.13-.11-.3,0-.36.2l-.31,1a.57.57,0,0,0,.12.58l.65.5c.13.1.3,0,.37-.21l.31-1A.62.62,0,0,0,21.73,140.65Z"/><path class="cls-18" d="M19.33,137.94l-.44-.89c-.1-.19-.27-.22-.39-.07l-.56.71a.6.6,0,0,0,0,.61l.44.89c.1.19.27.22.39.07l.56-.71A.6.6,0,0,0,19.33,137.94Z"/><path class="cls-18" d="M17.91,133.84l-.15-1.11c0-.24-.19-.39-.33-.33l-.7.25c-.15,0-.24.29-.21.53l.16,1.1c0,.24.18.39.33.33l.7-.25A.48.48,0,0,0,17.91,133.84Z"/><path class="cls-18" d="M17.76,129.16l.15-1.1a.49.49,0,0,0-.2-.53l-.7-.25c-.15-.06-.3.09-.33.33l-.16,1.11c0,.23.06.47.21.52l.7.25C17.57,129.55,17.72,129.4,17.76,129.16Z"/><path class="cls-18" d="M18.89,124.84l.44-.88a.62.62,0,0,0,0-.62l-.56-.71c-.12-.15-.29-.12-.39.07l-.44.89a.6.6,0,0,0,0,.61l.56.71C18.62,125.06,18.79,125,18.89,124.84Z"/><path class="cls-18" d="M21.08,121.73l.65-.49a.61.61,0,0,0,.13-.59l-.31-1c-.07-.22-.24-.31-.37-.2l-.65.49a.57.57,0,0,0-.12.58l.31,1C20.78,121.75,21,121.84,21.08,121.73Z"/><path class="cls-18" d="M23.91,120.45h.72c.15,0,.27-.2.27-.44v-1.14c0-.24-.12-.44-.27-.44h-.72c-.15,0-.27.2-.27.44V120C23.64,120.25,23.76,120.45,23.91,120.45Z"/><path class="cls-18" d="M26.88,131.56a3.35,3.35,0,0,0-.95-1.33,10.39,10.39,0,0,0-1.18-.83l-.35-.2-.52-.34-.24-.17a1.51,1.51,0,0,1-.47-.54,1.91,1.91,0,0,1-.15-.82,2,2,0,0,1,.17-.92,1,1,0,0,1,.43-.47.93.93,0,0,1,.26-.1V123a2.34,2.34,0,0,0-1.21.57,3.81,3.81,0,0,0-1.07,1.67,7.37,7.37,0,0,0-.39,2.54,5.94,5.94,0,0,0,.29,2,3.46,3.46,0,0,0,.85,1.3,7.83,7.83,0,0,0,1.4,1l.13.08.73.42.14.1a1.55,1.55,0,0,1,.4.41,1.63,1.63,0,0,1,.19.87,1.72,1.72,0,0,1-.34,1.17,1.27,1.27,0,0,1-.25.21v3a2.58,2.58,0,0,0,1.63-1.19,6.21,6.21,0,0,0,.83-3.46A5.71,5.71,0,0,0,26.88,131.56Zm-5.38,1.85-.71,2.5a5,5,0,0,0,1.52,1.88,3.39,3.39,0,0,0,1.57.62v-2.89a2.22,2.22,0,0,1-1.06-.5A6.37,6.37,0,0,1,21.5,133.41Zm4.32-10a2.72,2.72,0,0,0-1.07-.46v2.93a1.55,1.55,0,0,1,.5.3,5,5,0,0,1,1.09,1.34l.79-2.48A4.32,4.32,0,0,0,25.82,123.45Z"/><path class="cls-18" d="M24.75,123v2.93a1.22,1.22,0,0,0-.55-.12,1.12,1.12,0,0,0-.32,0V123a2.6,2.6,0,0,1,.4,0A1.83,1.83,0,0,1,24.75,123Z"/><path class="cls-18" d="M24.75,122.06V123a1.83,1.83,0,0,0-.47,0,2.6,2.6,0,0,0-.4,0v-.91Z"/><path class="cls-18" d="M24.75,135.36v3a2.72,2.72,0,0,1-.58.06h-.29v-2.89l.21,0A1.16,1.16,0,0,0,24.75,135.36Z"/><path class="cls-18" d="M24.75,138.36v.94h-.87v-.89h.29A2.72,2.72,0,0,0,24.75,138.36Z"/><path class="cls-27" d="M21.86,146.91l.31.11-.35.33H19.44A6.91,6.91,0,0,0,21.86,146.91Z"/><path class="cls-27" d="M24.27,147.35h0Z"/><path class="cls-27" d="M24,147.35H21.82l.35-.33A6.55,6.55,0,0,0,24,147.35Z"/><path class="cls-27" d="M24.27,114a6.91,6.91,0,0,0-2.42.44,6.81,6.81,0,0,0-2.36-.44Z"/><path class="cls-27" d="M41.85,145.3q0,.54,0,1.08a23.34,23.34,0,0,1-2,8.8h0a16.73,16.73,0,0,1-.9,1.68,12.73,12.73,0,0,1-2,2.6l0,0h0a9,9,0,0,1-2.27,1.68l-.4.19-.42.18a6.87,6.87,0,0,1-2.42.44h-.42a6.4,6.4,0,0,1-1.68-.32,7.3,7.3,0,0,1-1.29-.56,5.64,5.64,0,0,1-.53-.31,10.47,10.47,0,0,1-2.13-1.85c-2.68-3-4.43-8-4.43-13.62,0-9.21,4.69-16.67,10.48-16.67h.06a6.81,6.81,0,0,1,2.36.44A8,8,0,0,1,36,130.32a5.54,5.54,0,0,1,.45.37l.46.42A13.72,13.72,0,0,1,38.46,133c.22.32.42.65.63,1s.33.61.49.93l0,.05.3.62h0c.2.47.4,1,.58,1.46s.37,1.12.52,1.7h0a23.51,23.51,0,0,1,.65,3.36A26.92,26.92,0,0,1,41.85,145.3Z"/><path class="cls-16" d="M46.68,145.3c0,9-4.51,16.37-10.13,16.67H36a7,7,0,0,1-1.87-.33l-.31-.11c-.28-.11-.56-.23-.84-.37s-.45-.25-.67-.39a10.47,10.47,0,0,1-2.13-1.85c-2.68-3-4.43-8-4.43-13.62,0-6.55,2.38-12.22,5.83-14.94a8.44,8.44,0,0,1,2.24-1.29,6.81,6.81,0,0,1,2.41-.44c.2,0,.4,0,.6,0a7.87,7.87,0,0,1,4.46,2,12.58,12.58,0,0,1,2,2.33,18.71,18.71,0,0,1,1.15,2,20.8,20.8,0,0,1,.88,2.09A24.75,24.75,0,0,1,46.68,145.3Z"/><ellipse class="cls-17" cx="36.19" cy="145.3" rx="8.94" ry="14.23"/><path class="cls-18" d="M35.84,135.07h.71c.15,0,.28-.2.28-.44v-1.14c0-.24-.13-.44-.28-.44h-.71c-.16,0-.28.2-.28.44v1.14C35.56,134.87,35.68,135.07,35.84,135.07Z"/><path class="cls-18" d="M38.73,135.86l.65.49c.14.11.3,0,.37-.2l.31-1a.6.6,0,0,0-.13-.58l-.65-.5c-.13-.1-.3,0-.36.21l-.31,1A.59.59,0,0,0,38.73,135.86Z"/><path class="cls-18" d="M41.13,138.57l.45.89c.09.19.26.22.38.07l.56-.71a.63.63,0,0,0,0-.61l-.45-.89c-.09-.19-.27-.22-.39-.07l-.56.71A.66.66,0,0,0,41.13,138.57Z"/><path class="cls-18" d="M42.55,142.67l.16,1.11c0,.24.18.39.33.33l.69-.25c.15-.05.24-.29.21-.52l-.16-1.11c0-.24-.18-.39-.33-.33l-.69.25A.47.47,0,0,0,42.55,142.67Z"/><path class="cls-18" d="M42.71,147.35l-.16,1.11a.47.47,0,0,0,.21.52l.69.25c.15.06.3-.09.33-.33l.16-1.1c0-.24-.06-.48-.21-.53L43,147C42.89,147,42.74,147.11,42.71,147.35Z"/><path class="cls-18" d="M41.58,151.67l-.45.89a.66.66,0,0,0,0,.61l.56.71c.12.15.3.12.39-.07l.45-.89a.63.63,0,0,0,0-.61L42,151.6C41.84,151.45,41.67,151.48,41.58,151.67Z"/><path class="cls-18" d="M39.38,154.78l-.65.49a.59.59,0,0,0-.12.59l.31,1c.06.22.23.31.36.21l.65-.5a.6.6,0,0,0,.13-.58l-.31-1C39.68,154.77,39.52,154.67,39.38,154.78Z"/><path class="cls-18" d="M36.55,156.06h-.71c-.16,0-.28.2-.28.44v1.14c0,.24.12.44.28.44h.71c.15,0,.28-.2.28-.44V156.5C36.83,156.26,36.7,156.06,36.55,156.06Z"/><path class="cls-18" d="M33.65,155.27l-.64-.49c-.14-.11-.3,0-.37.2l-.31,1a.55.55,0,0,0,.13.58l.64.5c.14.1.3,0,.37-.21l.31-1A.57.57,0,0,0,33.65,155.27Z"/><path class="cls-18" d="M31.26,152.56l-.45-.89c-.09-.19-.27-.22-.39-.07l-.56.71a.65.65,0,0,0,0,.61l.45.89c.09.19.26.22.38.07l.56-.71A.63.63,0,0,0,31.26,152.56Z"/><path class="cls-18" d="M29.84,148.46l-.16-1.11c0-.24-.18-.39-.33-.33l-.7.25c-.15,0-.24.29-.21.53l.16,1.1c0,.24.19.39.33.33l.7-.25C29.78,148.93,29.87,148.69,29.84,148.46Z"/><path class="cls-18" d="M29.68,143.78l.16-1.11c0-.23-.06-.47-.21-.52l-.7-.25c-.14-.06-.29.09-.33.33l-.16,1.11c0,.23.06.47.21.52l.7.25C29.5,144.17,29.65,144,29.68,143.78Z"/><path class="cls-18" d="M30.81,139.46l.45-.89a.63.63,0,0,0-.05-.61l-.56-.71c-.12-.15-.29-.12-.38.07l-.45.89a.65.65,0,0,0,0,.61l.56.71C30.54,139.68,30.72,139.65,30.81,139.46Z"/><path class="cls-18" d="M33,136.35l.64-.49a.57.57,0,0,0,.13-.59l-.31-1c-.07-.22-.23-.31-.37-.21l-.64.5a.55.55,0,0,0-.13.58l.31,1C32.71,136.37,32.87,136.46,33,136.35Z"/><path class="cls-18" d="M35.84,135.07h.71c.15,0,.28-.2.28-.44v-1.14c0-.24-.13-.44-.28-.44h-.71c-.16,0-.28.2-.28.44v1.14C35.56,134.87,35.68,135.07,35.84,135.07Z"/><path class="cls-18" d="M38.8,146.18a3.36,3.36,0,0,0-.94-1.33,11.38,11.38,0,0,0-1.18-.83l-.36-.2c-.19-.12-.36-.23-.51-.34l-.25-.17a1.39,1.39,0,0,1-.46-.54A1.91,1.91,0,0,1,35,142a2.05,2.05,0,0,1,.16-.92,1.06,1.06,0,0,1,.44-.47.82.82,0,0,1,.26-.1v-2.87a2.38,2.38,0,0,0-1.22.57,3.92,3.92,0,0,0-1.07,1.66,7.74,7.74,0,0,0-.38,2.55,5.74,5.74,0,0,0,.29,2,3.32,3.32,0,0,0,.84,1.3,8.21,8.21,0,0,0,1.4,1l.14.08.72.42.15.1a1.89,1.89,0,0,1,.24,2.45,1.21,1.21,0,0,1-.24.21v3a2.58,2.58,0,0,0,1.63-1.19,6.21,6.21,0,0,0,.82-3.46A5.71,5.71,0,0,0,38.8,146.18ZM33.43,148l-.71,2.5a5,5,0,0,0,1.51,1.88,3.42,3.42,0,0,0,1.58.62v-2.89a2.25,2.25,0,0,1-1.07-.5A6.16,6.16,0,0,1,33.43,148Zm4.31-10a2.68,2.68,0,0,0-1.06-.46v2.93a1.85,1.85,0,0,1,.5.29,5.12,5.12,0,0,1,1.08,1.34l.8-2.47A4.42,4.42,0,0,0,37.74,138.07Z"/><path class="cls-18" d="M36.68,137.61v2.93a1.26,1.26,0,0,0-.56-.12,1.06,1.06,0,0,0-.31,0v-2.87a2.5,2.5,0,0,1,.4,0A1.88,1.88,0,0,1,36.68,137.61Z"/><path class="cls-18" d="M36.68,136.68v.93a1.88,1.88,0,0,0-.47-.05,2.5,2.5,0,0,0-.4,0v-.91Z"/><path class="cls-18" d="M36.68,150v3a2.81,2.81,0,0,1-.59.06h-.28v-2.89l.21,0A1.21,1.21,0,0,0,36.68,150Z"/><path class="cls-18" d="M36.68,153v.94h-.87V153h.28A2.81,2.81,0,0,0,36.68,153Z"/><path class="cls-19" d="M43.29,133,32.37,160.75l-.1,0a10.23,10.23,0,0,1-2.13-1.86l11.11-28.22A12.58,12.58,0,0,1,43.29,133Z"/><path class="cls-19" d="M45.32,137.09l-.94,2.49-.87,2.31-.76,2-.93,2.45L36.9,159.46v0l-.63,1.68L36,162a7,7,0,0,1-1.87-.33l.11-.29.08-.19.69-1.77.61-1.59.68-1.74,1.36-3.52,1.5-3.85,2.54-6.54,1.91-4.91.87-2.24A20.8,20.8,0,0,1,45.32,137.09Z"/><path class="cls-27" d="M33.78,161.53l.31.11-.35.33H31.36A6.87,6.87,0,0,0,33.78,161.53Z"/><path class="cls-27" d="M36.19,162h0Z"/><path class="cls-28" d="M36,162H33.74l.35-.33A7,7,0,0,0,36,162Z"/><path class="cls-28" d="M32.37,160.74,31.23,162h-.29a6.4,6.4,0,0,1-1.68-.32,7.3,7.3,0,0,1-1.29-.56l2.17-2.16Z"/><path class="cls-27" d="M36.19,128.63a6.81,6.81,0,0,0-2.41.44,6.81,6.81,0,0,0-2.36-.44Z"/><path class="cls-27" d="M59.92,195a3,3,0,0,1-.89,1.29c-2.23,1.94-7.81,2.08-14.84,0-.14,0-.28-.07-.41-.12-1.11-.33-2.2-.7-3.27-1.1l-.13-.05q-1.59-.62-3.12-1.32h0c-1-.45-1.94-.93-2.85-1.43h0l-1.07-.6c-.94-.54-1.83-1.1-2.67-1.67h0c-3.66-2.5-6.23-5.23-6.88-7.6a3.79,3.79,0,0,1-.14-1.22,2.9,2.9,0,0,1,.15-.84,3.27,3.27,0,0,1,1.46-1.7,6.48,6.48,0,0,1,1.43-.61,7.83,7.83,0,0,1,1.06-.26,17.9,17.9,0,0,1,4.55-.15h0c.41,0,.84.08,1.28.13h0a38,38,0,0,1,6,1.26l.47.15c.53.15,1.05.32,1.57.5s1,.36,1.53.55q1.24.47,2.46,1h0c.48.21,1,.42,1.41.65h0c.53.25,1,.51,1.56.77s.78.41,1.15.63c.89.47,1.73,1,2.53,1.5l.16.1c.69.45,1.34.91,2,1.37l.3.24c.66.5,1.26,1,1.82,1.52a17.42,17.42,0,0,1,2.06,2.24,9.58,9.58,0,0,1,1,1.6,6.22,6.22,0,0,1,.33.83,2.14,2.14,0,0,1,.09.27A3.39,3.39,0,0,1,59.92,195Z"/><path class="cls-16" d="M61.32,190.9v0a3.25,3.25,0,0,1-1.47,1.7,7.29,7.29,0,0,1-.74.37c-2.66,1.1-7.34,1-13-.61l-.5-.15a2.77,2.77,0,0,1-.41-.12h0c-1.08-.32-2.15-.69-3.2-1.08h0c-1.06-.41-2.11-.85-3.13-1.31l-.05,0h0l-.07,0c-1.38-.63-2.69-1.31-3.93-2l-.05,0c-4-2.34-7.23-5-8.73-7.51a7.58,7.58,0,0,1-.7-1.48,2.68,2.68,0,0,1-.07-.27,3.43,3.43,0,0,1,0-2.06l.05-.12c1.18-3,7.43-3.6,15.69-1.2a50.91,50.91,0,0,1,9,3.62,42.13,42.13,0,0,1,3.84,2.22c.8.53,1.56,1.06,2.26,1.6s1.26,1,1.82,1.54a11.36,11.36,0,0,1,3.49,4.93A3.46,3.46,0,0,1,61.32,190.9Z"/><ellipse class="cls-17" cx="43.24" cy="183.61" rx="6.3" ry="16.64" transform="translate(-142.93 153.16) rotate(-67.46)"/><path class="cls-18" d="M41.18,178.13l1.24.36c.26.08.44,0,.41-.09l-.16-.59c0-.12-.27-.29-.54-.36l-1.23-.36c-.26-.08-.45,0-.41.09l.16.59C40.68,177.89,40.92,178.06,41.18,178.13Z"/><path class="cls-18" d="M46.3,180l1.18.58c.25.12.52.16.6.08l.39-.38c.09-.08,0-.24-.3-.37L47,179.33c-.25-.12-.52-.15-.61-.07l-.39.37C45.91,179.71,46.05,179.88,46.3,180Z"/><path class="cls-18" d="M50.81,182.61l.89.68a1.11,1.11,0,0,0,.68.23l.87-.08c.18,0,.17-.16,0-.3l-.89-.69a1.23,1.23,0,0,0-.68-.23l-.86.09C50.61,182.33,50.62,182.46,50.81,182.61Z"/><path class="cls-18" d="M53.83,185.44l.43.66a1.09,1.09,0,0,0,.62.34l1.16.21c.25,0,.38,0,.29-.16l-.43-.66a1.06,1.06,0,0,0-.62-.33l-1.17-.22C53.87,185.23,53.74,185.31,53.83,185.44Z"/><path class="cls-18" d="M54.76,188l-.12.49c0,.11.17.27.43.38l1.24.48c.26.1.5.1.52,0l.12-.49c0-.11-.17-.28-.43-.38l-1.24-.48C55,187.84,54.79,187.84,54.76,188Z"/><path class="cls-18" d="M53.41,189.62l-.64.23c-.14.05-.06.21.16.34l1.07.65a.93.93,0,0,0,.65.16l.65-.24c.13,0,.06-.2-.16-.34l-1.07-.65A1,1,0,0,0,53.41,189.62Z"/><path class="cls-18" d="M50.06,190.13l-1-.07c-.22,0-.29.09-.14.24l.68.68a1.11,1.11,0,0,0,.66.29l1,.07c.22,0,.29-.09.14-.24l-.68-.68A1.11,1.11,0,0,0,50.06,190.13Z"/><path class="cls-18" d="M45.36,189.37,44.13,189c-.26-.07-.45,0-.41.09l.15.59a.87.87,0,0,0,.54.37l1.23.36c.27.07.45,0,.42-.09l-.16-.59C45.87,189.61,45.62,189.45,45.36,189.37Z"/><path class="cls-18" d="M40.25,187.51l-1.18-.58c-.25-.13-.52-.16-.61-.08l-.39.37c-.08.08.06.25.31.37l1.18.58c.25.12.52.16.6.08l.39-.38C40.64,187.79,40.5,187.63,40.25,187.51Z"/><path class="cls-18" d="M35.74,184.9l-.9-.69a1.16,1.16,0,0,0-.68-.23l-.86.09c-.18,0-.18.15,0,.29l.9.69a1.13,1.13,0,0,0,.67.23l.87-.09C35.93,185.17,35.93,185,35.74,184.9Z"/><path class="cls-18" d="M32.72,182.06l-.43-.66a1.12,1.12,0,0,0-.62-.33l-1.17-.22c-.24,0-.37,0-.28.17l.43.65a1.09,1.09,0,0,0,.61.34l1.17.22C32.68,182.27,32.81,182.2,32.72,182.06Z"/><path class="cls-18" d="M31.79,179.56l.11-.5c0-.1-.16-.27-.43-.37l-1.23-.48c-.27-.11-.5-.1-.53,0l-.12.5c0,.1.17.27.43.37l1.24.48C31.53,179.66,31.76,179.66,31.79,179.56Z"/><path class="cls-18" d="M33.13,177.89l.64-.24c.14-.05.07-.2-.16-.34l-1.06-.65a1,1,0,0,0-.66-.16l-.64.24c-.14,0-.07.2.16.34l1.06.65A1,1,0,0,0,33.13,177.89Z"/><path class="cls-18" d="M36.48,177.38l1.05.07c.22,0,.28-.1.14-.24l-.68-.69a1.2,1.2,0,0,0-.67-.29l-1-.07c-.22,0-.28.1-.14.24l.68.69A1.28,1.28,0,0,0,36.48,177.38Z"/><path class="cls-18" d="M41.18,178.13l1.24.36c.26.08.44,0,.41-.09l-.16-.59c0-.12-.27-.29-.54-.36l-1.23-.36c-.26-.08-.45,0-.41.09l.16.59C40.68,177.89,40.92,178.06,41.18,178.13Z"/><path class="cls-18" d="M47.86,185.38A9.13,9.13,0,0,0,46,184.22c-.61-.31-1.33-.65-2.15-1l-.64-.29-.94-.43-.44-.21a5.67,5.67,0,0,1-.88-.52,1,1,0,0,1-.38-.5c0-.21,0-.34.16-.39a1.5,1.5,0,0,1,.69,0l.43.08-.4-1.49a10.07,10.07,0,0,0-2-.31,2.71,2.71,0,0,0-1.61.33.94.94,0,0,0-.31,1.12,2.62,2.62,0,0,0,.78,1.19,8.87,8.87,0,0,0,1.65,1.1c.69.37,1.54.78,2.55,1.24l.25.11,1.31.58.27.12a6.49,6.49,0,0,1,.74.42,1,1,0,0,1,.44.54c.08.27-.06.42-.42.44a2.82,2.82,0,0,1-.39,0l.42,1.56a6.92,6.92,0,0,0,2.64.2c.83-.16,1.15-.62.94-1.38A2.59,2.59,0,0,0,47.86,185.38Zm-9-1.74-.88.94a16.27,16.27,0,0,0,2.88,1.73,21.44,21.44,0,0,0,2.8,1.11l-.4-1.49a16.19,16.19,0,0,1-1.91-.79A21.64,21.64,0,0,1,38.85,183.64Zm6-3a18.41,18.41,0,0,0-1.9-.77l.41,1.52c.3.12.6.25.91.4A18.74,18.74,0,0,1,46.37,183l1-.88A14.84,14.84,0,0,0,44.89,180.64Z"/><path class="cls-18" d="M43,179.87l.41,1.52a7.6,7.6,0,0,0-1-.34c-.18-.06-.36-.1-.53-.14l-.4-1.49.68.19Z"/><path class="cls-18" d="M42.86,179.39l.13.48-.82-.26-.68-.19-.13-.47Z"/><path class="cls-18" d="M44.73,186.28l.42,1.56c-.31-.07-.65-.16-1-.27a4.74,4.74,0,0,1-.5-.15l-.4-1.49.37.11A5.9,5.9,0,0,0,44.73,186.28Z"/><path class="cls-18" d="M45.15,187.84l.13.49-1.5-.44-.13-.47a4.74,4.74,0,0,0,.5.15C44.5,187.68,44.84,187.77,45.15,187.84Z"/><path class="cls-19" d="M53.75,180.81l-1.14.68-1.29.77-.55.32-3.71,2.21-1.57.94-.9.53-1.08.64-.5.3L39.92,189l-1.15.68-.05,0h0l-.07,0c-1.38-.63-2.69-1.31-3.93-2l1.12-.66,3-1.79,1.25-.74,1.4-.84.79-.47.64-.37,1.51-.9,1.31-.78,1.25-.74.92-.56.89-.53,1.12-.66A42.13,42.13,0,0,1,53.75,180.81Z"/><path class="cls-19" d="M57.83,184l-1.27.81-1.17.76-1,.67L51.62,188l-5.18,3.36-.42.27-.8.51,0,0h0c-1.08-.32-2.15-.69-3.2-1.08h0l1.2-.73.83-.52.93-.55,1.86-1.14,2.05-1.25,6-3.7,1.19-.73C56.67,182.92,57.27,183.43,57.83,184Z"/><path class="cls-27" d="M25.23,178.62a3.27,3.27,0,0,0-1.46,1.7l1.39-4a3.43,3.43,0,0,0,0,2.06A2.68,2.68,0,0,0,25.23,178.62Z"/><path class="cls-27" d="M61.31,190.94l-1.39,4a3.39,3.39,0,0,0,0-2.05,2.14,2.14,0,0,0-.09-.27A3.25,3.25,0,0,0,61.31,190.94Z"/><path class="cls-29" d="M38.77,189.72l-4.37,2.54h0l-1.07-.6c-.94-.54-1.83-1.1-2.67-1.67l4.06-2.36s0,0,0,0c1.24.72,2.55,1.4,3.93,2Z"/><path class="cls-29" d="M45.17,192.13,40.38,195q-1.59-.62-3.12-1.32L41.9,191C43,191.42,44.08,191.81,45.17,192.13Z"/><path class="cls-27" d="M245.48,95a2.94,2.94,0,0,1,.67,1.41c.57,2.9-2.07,7.81-7.35,12.9-.1.1-.2.2-.31.29-.83.79-1.7,1.56-2.58,2.28a.48.48,0,0,1-.11.09c-.88.72-1.78,1.41-2.69,2.06h0c-.88.62-1.77,1.21-2.65,1.76h0q-.52.33-1.05.63c-.93.54-1.87,1-2.78,1.48h0c-4,1.92-7.64,2.81-10,2.19a4.18,4.18,0,0,1-1.13-.48,3,3,0,0,1-.66-.56,3.22,3.22,0,0,1-.74-2.11,5.72,5.72,0,0,1,.17-1.54,9.45,9.45,0,0,1,.31-1,17.58,17.58,0,0,1,2.13-4h0c.23-.34.48-.69.75-1h0a38.64,38.64,0,0,1,4.06-4.53l.37-.34c.39-.39.79-.75,1.21-1.11s.82-.71,1.23-1.06c.69-.57,1.38-1.12,2.09-1.64h0c.42-.31.83-.61,1.26-.9h0c.48-.34,1-.66,1.45-1s.74-.47,1.11-.69c.86-.53,1.72-1,2.56-1.45l.17-.08q1.09-.57,2.16-1l.35-.15c.77-.32,1.51-.59,2.23-.81a16.69,16.69,0,0,1,3-.68,9.47,9.47,0,0,1,1.89-.08,6,6,0,0,1,.88.12,2.3,2.3,0,0,1,.28.06A3.47,3.47,0,0,1,245.48,95Z"/><path class="cls-16" d="M242.65,91.72l0,0a3.19,3.19,0,0,1,.74,2.12,4.68,4.68,0,0,1,0,.83c-.36,2.86-2.8,6.85-7,11-.13.12-.26.24-.38.37l-.31.29,0,0c-.82.78-1.67,1.52-2.53,2.24l0,0c-.88.71-1.79,1.41-2.69,2.06l0,0h0l-.07.05c-1.23.88-2.48,1.68-3.71,2.4l-.05,0c-4,2.35-8,3.77-10.85,3.84a7.59,7.59,0,0,1-1.63-.13l-.28-.07a3.36,3.36,0,0,1-1.78-1,.39.39,0,0,1-.08-.1c-2-2.5.56-8.23,6.76-14.2a50.34,50.34,0,0,1,7.61-6,41.48,41.48,0,0,1,3.84-2.22c.85-.43,1.7-.83,2.52-1.17a23.36,23.36,0,0,1,2.23-.81,11.29,11.29,0,0,1,6-.58A3.45,3.45,0,0,1,242.65,91.72Z"/><ellipse class="cls-17" cx="227.34" cy="103.79" rx="16.64" ry="6.3" transform="translate(-16.07 160.45) rotate(-37.64)"/><path class="cls-18" d="M221.56,102.85l.92-.89c.2-.19.26-.37.13-.41l-.59-.15a.83.83,0,0,0-.58.28l-.93.89c-.19.19-.25.37-.12.41l.59.15A.85.85,0,0,0,221.56,102.85Z"/><path class="cls-18" d="M225.72,99.34l1.09-.74c.23-.15.4-.37.37-.48l-.13-.53c0-.11-.24-.07-.47.08l-1.09.74c-.23.15-.4.37-.37.49l.13.52C225.28,99.53,225.49,99.5,225.72,99.34Z"/><path class="cls-18" d="M230.23,96.72l1-.43a1.22,1.22,0,0,0,.54-.48l.35-.79c.07-.17,0-.23-.26-.14l-1,.44a1.15,1.15,0,0,0-.54.47l-.35.79C229.89,96.75,230,96.81,230.23,96.72Z"/><path class="cls-18" d="M234.19,95.51l.78-.05a1,1,0,0,0,.6-.36l.77-.91c.17-.19.16-.34,0-.33l-.78,0a1.07,1.07,0,0,0-.6.37l-.77.9C234,95.37,234,95.52,234.19,95.51Z"/><path class="cls-18" d="M236.83,96l.37.35c.07.07.32,0,.54-.19l1-.83c.22-.18.33-.39.25-.46l-.37-.35c-.07-.07-.32,0-.54.19l-1,.83C236.86,95.67,236.75,95.87,236.83,96Z"/><path class="cls-18" d="M237.61,98l-.12.67c0,.15.15.16.38,0l1.09-.6a1,1,0,0,0,.46-.49l.12-.68c0-.14-.15-.15-.38,0l-1.09.6A.93.93,0,0,0,237.61,98Z"/><path class="cls-18" d="M236.38,101.11l-.58.87c-.12.18-.06.29.14.24l.93-.25a1.18,1.18,0,0,0,.59-.43l.57-.87c.12-.18.06-.29-.13-.24l-.94.25A1.11,1.11,0,0,0,236.38,101.11Z"/><path class="cls-18" d="M233.39,104.81l-.92.89c-.2.19-.26.37-.13.41l.59.15a.83.83,0,0,0,.58-.28l.93-.9c.19-.18.25-.37.12-.4l-.59-.15C233.85,104.49,233.59,104.62,233.39,104.81Z"/><path class="cls-18" d="M229.23,108.32l-1.09.73c-.23.16-.4.38-.37.49l.13.53c0,.11.24.07.47-.08l1.09-.74c.23-.16.4-.38.37-.49l-.13-.52C229.67,108.13,229.46,108.16,229.23,108.32Z"/><path class="cls-18" d="M224.72,110.94l-1,.43a1.09,1.09,0,0,0-.53.48l-.36.79c-.07.17,0,.23.26.14l1-.44a1.15,1.15,0,0,0,.54-.47l.35-.8C225.06,110.91,224.94,110.84,224.72,110.94Z"/><path class="cls-18" d="M220.76,112.15l-.78,0a1.12,1.12,0,0,0-.6.37l-.77.91c-.17.19-.16.34,0,.32l.78,0a1.07,1.07,0,0,0,.6-.37l.77-.9C220.92,112.29,220.92,112.14,220.76,112.15Z"/><path class="cls-18" d="M218.12,111.71l-.37-.35c-.07-.07-.32,0-.54.19l-1,.83c-.22.18-.33.39-.25.46l.37.35c.07.07.32,0,.54-.19l1-.83C218.09,112,218.2,111.78,218.12,111.71Z"/><path class="cls-18" d="M217.34,109.71l.12-.67c0-.15-.15-.16-.38,0l-1.09.6a.92.92,0,0,0-.46.49l-.12.68c0,.14.15.15.38,0l1.09-.61A.88.88,0,0,0,217.34,109.71Z"/><path class="cls-18" d="M218.57,106.55l.58-.87c.12-.19.06-.29-.14-.24l-.93.25a1.18,1.18,0,0,0-.59.43l-.57.87c-.12.18-.06.29.13.24L218,107A1.17,1.17,0,0,0,218.57,106.55Z"/><path class="cls-18" d="M221.56,102.85l.92-.89c.2-.19.26-.37.13-.41l-.59-.15a.83.83,0,0,0-.58.28l-.93.89c-.19.19-.25.37-.12.41l.59.15A.85.85,0,0,0,221.56,102.85Z"/><path class="cls-18" d="M231.17,100.66a9.1,9.1,0,0,0-1.91,1c-.58.37-1.23.83-2,1.35l-.56.42-.85.6-.4.28a4.43,4.43,0,0,1-.88.5,1,1,0,0,1-.63.08c-.2,0-.29-.16-.26-.33A1.56,1.56,0,0,1,224,104l.28-.33-1.49-.39a9.46,9.46,0,0,0-1.27,1.59,2.64,2.64,0,0,0-.52,1.56c0,.42.31.69.82.83a2.51,2.51,0,0,0,1.42-.09,8.5,8.5,0,0,0,1.77-.88c.67-.42,1.45-.95,2.35-1.6l.21-.16,1.16-.85.24-.17c.28-.19.53-.33.73-.44a1,1,0,0,1,.7-.11c.27.07.32.26.16.58a2.21,2.21,0,0,1-.21.33l1.56.41a6.66,6.66,0,0,0,1.49-2.19c.28-.8,0-1.3-.73-1.5A2.6,2.6,0,0,0,231.17,100.66Zm-6,7,.39,1.23a16.59,16.59,0,0,0,2.93-1.63,21.87,21.87,0,0,0,2.36-1.88l-1.5-.4a14,14,0,0,1-1.63,1.26A20,20,0,0,1,225.17,107.61Zm.41-6.73a17.86,17.86,0,0,0-1.61,1.26l1.52.4c.25-.2.52-.39.8-.58a16.07,16.07,0,0,1,2.1-1.17l-.26-1.33A14.44,14.44,0,0,0,225.58,100.88Z"/><path class="cls-18" d="M224,102.14l1.52.4c-.28.22-.54.45-.78.68s-.27.27-.39.4l-1.49-.39c.16-.17.33-.33.5-.5S223.75,102.33,224,102.14Z"/><path class="cls-18" d="M223.49,102l.48.12c-.22.19-.43.38-.64.59s-.34.33-.5.5l-.47-.13Z"/><path class="cls-18" d="M230.39,103.82l1.56.41c-.21.24-.46.48-.72.74l-.38.36-1.5-.4a3.45,3.45,0,0,0,.28-.26A6.6,6.6,0,0,0,230.39,103.82Z"/><path class="cls-18" d="M232,104.23l.49.13-1.13,1.09-.46-.12.38-.36C231.49,104.71,231.74,104.47,232,104.23Z"/><path class="cls-19" d="M230.13,93.28l0,1.32,0,1.51v.63l.07,4.32,0,1.83,0,1,0,1.26v.59l.07,3.59,0,1.33,0,0h0l-.07.05c-1.23.88-2.48,1.68-3.71,2.4l0-1.31-.06-3.49,0-1.45,0-1.63v-1.66l0-1.76,0-1.52,0-1.45V97.84l0-1,0-1.3A41.48,41.48,0,0,1,230.13,93.28Z"/><path class="cls-19" d="M234.88,91.3l.08,1.5.08,1.4.06,1.23.18,3.24.33,6.18,0,.5.05.94v.06l0,0c-.82.78-1.67,1.52-2.53,2.24l0,0,0-1.4,0-1,0-1.07L233,103l-.06-2.4-.2-7.1,0-1.39A23.36,23.36,0,0,1,234.88,91.3Z"/><path class="cls-27" d="M214.06,116.93a3.22,3.22,0,0,0,.74,2.11l-2.8-3.21a3.36,3.36,0,0,0,1.78,1Z"/><path class="cls-27" d="M242.68,91.75l2.8,3.21a3.47,3.47,0,0,0-1.78-1,2.3,2.3,0,0,0-.28-.06A3.19,3.19,0,0,0,242.68,91.75Z"/><path class="cls-29" d="M230.42,110.7l0,5.06h0q-.52.33-1.05.63c-.93.54-1.87,1-2.78,1.48l0-4.69h0c1.23-.72,2.48-1.52,3.71-2.4Z"/><path class="cls-29" d="M235.69,106.35l.11,5.58c-.88.72-1.78,1.41-2.69,2.06v-5.35C234,107.92,234.87,107.13,235.69,106.35Z"/><path class="cls-21" d="M16.15,73.38c.15.13.32.26.49.39l.08.06.1.07,20.29,15,.08.06.1.07.18.13C40,91,43,92.53,44.52,92.75h.15l4.4.38h.13c1.23,0,.37-1.32-2-3.13L47,89.9c0-.05-.12-.09-.18-.14l-20.29-15-.18-.14-.54-.39c-2.5-1.72-5.35-3.14-6.74-3.31H19l-4.41-.38h-.15C13.32,70.5,14.05,71.72,16.15,73.38Z"/><ellipse class="cls-21" cx="31.84" cy="81.83" rx="1.35" ry="6.68" transform="translate(-54.44 65.54) rotate(-58.05)"/><ellipse class="cls-21" cx="31.84" cy="81.83" rx="0.61" ry="3.04" transform="matrix(0.53, -0.85, 0.85, 0.53, -54.44, 65.54)"/><path class="cls-21" d="M19.11,70.91h0l1,.73c.54.4,1.12.79,1.7,1.14a12.25,12.25,0,0,0,4.05,1.78h0l.53,0h0l-3.16-2.34a8.4,8.4,0,0,0-2.09-1.15,1.43,1.43,0,0,0-.3-.06l-1.73-.15Z"/><path class="cls-21" d="M12.56,70.44c0,.16.3.53.91,1l3.17,2.35h0l.52,0h0c1.11.09.36-1.06-1.68-2.57l-1-.73h-.06l-1.67-.14a.27.27,0,0,0-.17,0S12.57,70.41,12.56,70.44Z"/><path class="cls-21" d="M37.29,89.05h0l3.16,2.34a6.67,6.67,0,0,0,2.38,1.21l1.69.15h0l-1-.72c-2-1.52-4.61-2.82-5.75-2.93h0Z"/><path class="cls-21" d="M48.19,92.42l1,.73h0l1.7.14c.46,0,.15-.43-.7-1.06l-3.16-2.35h0l-.52-.05h0C45.4,89.76,46.15,90.91,48.19,92.42Z"/><polygon class="cls-21" points="43.56 92.02 44.55 92.76 49.21 93.16 48.22 92.43 48.19 92.42 43.58 92.03 43.56 92.02"/><polygon class="cls-21" points="15.44 71.23 14.45 70.5 19.11 70.91 20.1 71.64 15.44 71.23"/><polygon class="cls-21" points="25.33 74.18 25.87 74.23 47.22 90.02 46.67 89.97 25.33 74.18"/><polygon class="cls-21" points="16.12 73.38 16.66 73.43 38 89.22 37.46 89.18 16.12 73.38"/><path class="cls-22" d="M19.7,68.66c.16.13.32.26.5.39l.52,0h0l-.52-.38Z"/><path class="cls-23" d="M17.48,66.2,36.54,80.3l-.41.54,4.53,3.36.09.06.1.07.17.13.19.13c2.5,1.76,5.42,3.23,6.86,3.44h.15l4.4.38h.13c1.24,0,.37-1.32-2-3.13l-.16-.12-.09-.07L50.42,85,30.13,70l-.19-.14-.54-.39c-2.49-1.72-5.34-3.13-6.74-3.31h-.08l-4.42-.38H18C17.61,65.78,17.44,65.94,17.48,66.2Z"/><ellipse class="cls-22" cx="35.39" cy="77.11" rx="1.35" ry="6.68" transform="translate(-48.76 66.34) rotate(-58.05)"/><ellipse class="cls-24" cx="35.39" cy="77.11" rx="0.61" ry="3.04" transform="translate(-48.76 66.33) rotate(-58.05)"/><path class="cls-22" d="M22.66,66.19h0l1,.73a20.32,20.32,0,0,0,1.71,1.14,12.22,12.22,0,0,0,4,1.78h0l.52,0h0l-3.17-2.34a8.23,8.23,0,0,0-2.09-1.15,1.25,1.25,0,0,0-.29-.06l-1.74-.15Z"/><path class="cls-22" d="M20.2,69.05c-.18-.13-.34-.26-.5-.39h0l.52.39Z"/><path class="cls-22" d="M16.77,65.67,21.21,69c.21-.34-.6-1.28-2.16-2.44l-1-.73H18Z"/><path class="cls-22" d="M40.85,84.33h0L44,86.67a6.67,6.67,0,0,0,2.38,1.21l1.69.15h0l-1-.72c-2.06-1.52-4.61-2.82-5.75-2.93h0Z"/><path class="cls-22" d="M51.74,87.71l1,.72h0l1.7.14a.27.27,0,0,0,.17,0,.05.05,0,0,0,0-.06c0-.14-.24-.47-.77-.88l-.13-.1L50.6,85.18h0l-.53-.05h0C49,85,49.7,86.19,51.74,87.71Z"/><polygon class="cls-22" points="47.12 87.3 48.1 88.04 52.76 88.44 51.77 87.71 51.74 87.7 47.14 87.31 47.12 87.3"/><polygon class="cls-22" points="18.99 66.51 18 65.78 22.66 66.19 23.65 66.92 18.99 66.51"/><polygon class="cls-22" points="28.89 69.46 29.43 69.51 50.77 85.3 50.23 85.25 28.89 69.46"/><polygon class="cls-22" points="36.3 80.61 36.13 80.84 41.02 84.46 41.02 84.46 41.02 84.46 41.56 84.5 36.3 80.61"/><path class="cls-22" d="M19.67,68.66l.7.52-.09-.07-.08-.06c-.18-.13-.34-.26-.5-.39Z"/><path class="cls-22" d="M16.13,65.68c-.1.14.24.54.9,1l2.64,2h0c-1.36-1.07-2.14-2-2.22-2.46l-.71-.53-.44,0C16.23,65.63,16.16,65.64,16.13,65.68Z"/><path class="cls-22" d="M20.2,69.05l.08.06.09.07L36.13,80.84l.17-.23L20.73,69.09h0Z"/><path class="cls-23" d="M20.73,69.09,36.3,80.61l.24-.31L21.21,69C21.15,69.07,21,69.11,20.73,69.09Z"/><path class="cls-22" d="M17.48,66.2c.08.49.86,1.39,2.22,2.46l.51,0,.52.38c.26,0,.42,0,.48-.13Z"/><path class="cls-21" d="M16.13,65.68l-3.57,4.76c0,.17.41.61,1.18,1.18L37.66,89.33l3.55-4.73L21.48,70l-.12-.09-.1-.07-.33-.25L17.29,66.9c-.77-.57-1.2-1-1.17-1.19Z"/><path class="cls-21" d="M41.21,84.6l-.64.86,10.54,7.79,3.52-4.69a.27.27,0,0,1-.17,0l-1.7-.14h-.08L48.1,88h0l-1.69-.15A6.67,6.67,0,0,1,44,86.67Z"/><polygon class="cls-25" points="47.2 89.09 47.25 89.24 53.84 89.62 53.94 89.48 47.2 89.09"/><polygon class="cls-25" points="50.29 90.48 50.34 90.62 52.97 90.78 53.07 90.64 50.29 90.48"/><polygon class="cls-25" points="43.77 91.24 43.82 91.38 46.22 91.52 52.16 91.86 52.25 91.73 48.21 91.49 46.09 91.37 43.77 91.24"/><polygon class="cls-25" points="19.51 70.09 19.44 70.18 43.3 87.83 43.37 87.74 19.51 70.09"/><polygon class="cls-25" points="19.59 71.68 19.52 71.78 43.37 89.43 43.44 89.33 19.59 71.68"/><path class="cls-25" d="M14.11,68.38l-.09.11s0,0,0,0a2.51,2.51,0,0,0,.59.66l2,1.5,1,.74,9,6.68,2.74,2L34,83.49l2.74,2,1.79,1.32.07-.09-1.63-1.21-2.73-2-4.55-3.37-2.73-2-9-6.68-1-.73c-.72-.54-1.45-1.09-2.18-1.62a2.48,2.48,0,0,1-.4-.4A1.91,1.91,0,0,1,14.11,68.38Z"/><path class="cls-25" d="M15.37,66.7l-.09.12a.05.05,0,0,1,0,0,2.47,2.47,0,0,0,.59.65c.06,0,.21.17.46.35a.41.41,0,0,1,.07-.11L16,67.42a1.86,1.86,0,0,1-.4-.4A1.44,1.44,0,0,1,15.37,66.7Z"/><g class="cls-26"><path d="M16.14,73.38l.5.38a.16.16,0,0,0,.08.06l.1.08,20.28,15,.09.07.1.07.18.12C40,91,43,92.53,44.52,92.74h0l.14,0,4.4.38h.12c1.24,0,.37-1.32-2-3.13L47,89.89l-.18-.13-20.29-15-.18-.13-.55-.39c-2.49-1.72-5.34-3.14-6.73-3.32H19l-4.42-.39h-.15C13.32,70.5,14.05,71.72,16.14,73.38Z"/><ellipse cx="31.84" cy="81.83" rx="1.35" ry="6.68" transform="translate(-54.44 65.54) rotate(-58.05)"/><ellipse cx="31.83" cy="81.82" rx="0.61" ry="3.04" transform="translate(-54.44 65.54) rotate(-58.05)"/><path d="M19.11,70.9h0l1,.73c.55.41,1.13.79,1.71,1.15a12.38,12.38,0,0,0,4.05,1.78h0l.53,0h0l-3.17-2.34a7.93,7.93,0,0,0-2.09-1.15,1.33,1.33,0,0,0-.29-.07l-1.73-.15Z"/><path d="M12.56,70.43c0,.16.3.54.91,1l3.16,2.34h0l.52,0h0c1.11.09.36-1.06-1.67-2.57l-1-.73h-.06l-1.68-.15a.27.27,0,0,0-.17,0A.07.07,0,0,0,12.56,70.43Z"/><path d="M37.29,89.05h0l3.15,2.33a6.46,6.46,0,0,0,2.39,1.21l1.69.15h0l-1-.73c-2-1.51-4.61-2.81-5.75-2.93h0Z"/><path d="M48.19,92.42l1,.73h0l1.71.15c.46,0,.15-.44-.7-1.07L47,89.89h0l-.52,0h0C45.4,89.76,46.15,90.91,48.19,92.42Z"/><polygon points="43.56 92.02 44.55 92.75 49.2 93.16 48.22 92.42 48.19 92.42 43.58 92.02 43.56 92.02"/><polygon points="15.44 71.23 14.45 70.5 19.11 70.9 20.09 71.63 15.44 71.23"/><polygon points="25.33 74.18 25.87 74.22 47.21 90.02 46.67 89.97 25.33 74.18"/><polygon points="16.11 73.38 16.66 73.43 38 89.22 37.46 89.17 16.11 73.38"/><path d="M19.7,68.66c.15.13.32.26.49.38l.52,0h0l-.52-.38Z"/><path d="M17.48,66.2,36.53,80.3l-.4.54,4.53,3.35.08.07.1.07.18.12.19.14c2.5,1.76,5.42,3.23,6.86,3.43h0l.13,0,4.4.38h.13c1.23,0,.37-1.32-2-3.13l-.17-.13-.09-.07L50.41,85,30.13,70l-.19-.13-.54-.39c-2.49-1.72-5.35-3.14-6.74-3.32h-.09l-4.41-.39H18C17.61,65.78,17.44,65.93,17.48,66.2Z"/><ellipse cx="35.39" cy="77.11" rx="1.35" ry="6.68" transform="translate(-48.76 66.33) rotate(-58.05)"/><ellipse cx="35.39" cy="77.11" rx="0.61" ry="3.04" transform="translate(-48.76 66.33) rotate(-58.05)"/><path d="M22.66,66.18h0l1,.73c.54.41,1.12.79,1.7,1.15a12.47,12.47,0,0,0,4,1.78h0l.53,0h0l-3.16-2.34a8.09,8.09,0,0,0-2.09-1.15,1.41,1.41,0,0,0-.3-.07l-1.73-.15Z"/><path d="M20.19,69c-.17-.12-.34-.25-.49-.38h0l.52.38Z"/><path d="M16.77,65.67,21.21,69c.2-.34-.6-1.29-2.16-2.44l-1-.73H18Z"/><path d="M40.84,84.33h0L44,86.66a6.51,6.51,0,0,0,2.38,1.21l1.69.15h0l-1-.73c-2.05-1.51-4.61-2.81-5.75-2.92h0Z"/><path d="M51.74,87.7l1,.73h0l1.7.15a.28.28,0,0,0,.17,0s0,0,0-.06-.25-.48-.77-.88l-.14-.11L50.6,85.17h0l-.52,0h0C49,85,49.7,86.19,51.74,87.7Z"/><polygon points="47.11 87.3 48.1 88.03 52.76 88.44 51.77 87.7 51.74 87.7 47.13 87.3 47.11 87.3"/><polygon points="18.99 66.51 18 65.78 22.66 66.18 23.65 66.91 18.99 66.51"/><polygon points="28.88 69.46 29.43 69.5 50.77 85.3 50.23 85.25 28.88 69.46"/><polygon points="36.3 80.61 36.13 80.84 41.01 84.45 41.01 84.45 41.02 84.45 41.55 84.5 36.3 80.61"/><path d="M19.67,68.66l.7.52-.1-.07L20.19,69c-.17-.12-.34-.25-.49-.38Z"/><path d="M16.13,65.68c-.1.13.23.53.89,1l2.65,2h0c-1.36-1.08-2.15-2-2.22-2.46l-.71-.53-.44,0C16.22,65.62,16.16,65.64,16.13,65.68Z"/><path d="M20.19,69l.08.07.1.07L36.13,80.84l.17-.23L20.73,69.09h0Z"/><path d="M20.73,69.09,36.3,80.61l.23-.31L21.21,69C21.15,69.06,21,69.11,20.73,69.09Z"/><path d="M17.48,66.2c.07.49.86,1.38,2.22,2.46l.51,0,.52.38c.26,0,.42,0,.48-.13Z"/><path d="M16.13,65.68l-3.57,4.75c0,.17.41.62,1.18,1.19l23.92,17.7,3.55-4.72L21.48,70l-.12-.09-.1-.08-.34-.24L17.29,66.9c-.77-.57-1.21-1-1.18-1.19Z"/><path d="M41.21,84.6l-.64.85,10.53,7.8,3.53-4.69a.28.28,0,0,1-.17,0l-1.7-.14h-.09L48.1,88h0l-1.69-.14A6.91,6.91,0,0,1,44,86.66Z"/><polygon points="47.2 89.09 47.25 89.23 53.84 89.61 53.93 89.48 47.2 89.09"/><polygon points="50.28 90.48 50.34 90.62 52.97 90.77 53.06 90.64 50.28 90.48"/><polygon points="43.76 91.23 43.81 91.37 46.22 91.51 52.15 91.86 52.25 91.72 48.21 91.49 46.09 91.37 43.76 91.23"/><polygon points="19.51 70.08 19.44 70.18 43.29 87.83 43.36 87.73 19.51 70.08"/><polygon points="19.59 71.68 19.52 71.77 43.37 89.42 43.44 89.33 19.59 71.68"/><path d="M14.11,68.37l-.09.12s0,0,0,0a2.51,2.51,0,0,0,.59.66l2,1.5,1,.73,9,6.69,2.74,2L34,83.49l2.75,2,1.78,1.32.07-.1-1.63-1.2-2.73-2-4.54-3.37-2.73-2-9-6.69-1-.73-2.18-1.62a2,2,0,0,1-.4-.39A1.73,1.73,0,0,1,14.11,68.37Z"/><path d="M15.36,66.7l-.08.11s0,0,0,0a2.67,2.67,0,0,0,.58.66l.47.35a.41.41,0,0,1,.07-.11L16,67.42a3,3,0,0,1-.4-.4A2.85,2.85,0,0,1,15.36,66.7Z"/></g></g></g></svg>