<svg xmlns="http://www.w3.org/2000/svg" viewBox="0 0 216.01 60.43"><defs><style>.cls-1{fill:#181c1e;}.cls-2{fill:#42c352;}.cls-3{fill:#4c9350;}.cls-4{fill:#fff;}</style></defs><title>money_info_bar</title><g id="Слой_2" data-name="Слой 2"><g id="Слой_1-2" data-name="Слой 1"><rect class="cls-1" width="216.01" height="60.43" rx="30.21"/><rect class="cls-2" x="22.98" y="34.43" width="34.77" height="18.37" rx="5.65"/><ellipse class="cls-3" cx="40.36" cy="43.62" rx="5.8" ry="5.17"/><ellipse class="cls-4" cx="40.37" cy="43.62" rx="2.64" ry="2.35"/><path class="cls-3" d="M56,34.44H52.31v1a4.12,4.12,0,0,0,4.33,3.86h1.11V36A1.69,1.69,0,0,0,56,34.44Z"/><path class="cls-3" d="M57.75,51.22V48H56.64a4.12,4.12,0,0,0-4.33,3.87v1H56A1.69,1.69,0,0,0,57.75,51.22Z"/><path class="cls-3" d="M24.77,52.81h3.65v-1A4.12,4.12,0,0,0,24.09,48H23v3.26A1.69,1.69,0,0,0,24.77,52.81Z"/><path class="cls-3" d="M23,36v3.27h1.11a4.12,4.12,0,0,0,4.33-3.87v-1H24.76A1.69,1.69,0,0,0,23,36Z"/><rect class="cls-3" x="22.97" y="39.23" width="1.14" height="8.77"/><rect class="cls-3" x="56.61" y="39.29" width="1.14" height="8.77"/><rect class="cls-3" x="40.06" y="22.6" width="1.02" height="24.69" transform="translate(5.62 75.51) rotate(-90)"/><rect class="cls-3" x="40.06" y="39.95" width="1.02" height="24.69" transform="translate(-11.73 92.86) rotate(-90)"/></g></g></svg>