<svg xmlns="http://www.w3.org/2000/svg" viewBox="0 0 261.01 371.58"><defs><style>.cls-1{fill:#006177;}.cls-2{opacity:0.1;}.cls-3{opacity:0.13;}.cls-4{fill:#3c1f0f;}.cls-5{fill:#773a28;}.cls-6{fill:#ff9600;}.cls-7{fill:#a9dcf9;}.cls-14,.cls-7{opacity:0.35;}.cls-8{fill:#683123;}.cls-9{fill:#30180d;}.cls-10{fill:#bed9e2;opacity:0.6;}.cls-11{fill:#cae7f4;opacity:0.18;}.cls-12{fill:#3e4649;}.cls-12,.cls-13{opacity:0.45;}.cls-14,.cls-18,.cls-19,.cls-25{fill:#fff;}.cls-15{fill:#ffc533;}.cls-16{fill:#ffd373;}.cls-17{fill:#d2a12b;}.cls-18,.cls-23,.cls-28,.cls-31{opacity:0.3;}.cls-19{opacity:0.87;}.cls-20{opacity:0.2;}.cls-21{fill:#be882b;}.cls-22,.cls-23{fill:#e2aa30;}.cls-24{fill:#e2a92e;}.cls-25,.cls-32{opacity:0.12;}.cls-26{fill:#ce972c;}.cls-27,.cls-28{fill:#f1ba31;}.cls-29{fill:#ffb936;}.cls-30{opacity:0.05;}</style></defs><title>money_1</title><g id="Слой_2" data-name="Слой 2"><g id="Слой_1-2" data-name="Слой 1"><path class="cls-1" d="M261,24.65V346.93a24.72,24.72,0,0,1-24.65,24.65H24.65a24.42,24.42,0,0,1-10.1-2.18h0c-.29-.13-.57-.28-.85-.42l-.6-.33a.51.51,0,0,1-.16-.09,23.74,23.74,0,0,1-2.72-1.69A24.63,24.63,0,0,1,0,346.93V24.65A24.72,24.72,0,0,1,24.65,0H236.36A24.72,24.72,0,0,1,261,24.65Z"/><path class="cls-2" d="M199.52,0,0,199.52V24.65A24.72,24.72,0,0,1,24.65,0Z"/><path class="cls-3" d="M261,107.46V345.39c0,14.41-11.39,26.19-25.32,26.19h-211a24.42,24.42,0,0,1-10.1-2.18h0c-.29-.13-.57-.28-.85-.42l-.6-.33a.51.51,0,0,1-.16-.09,23.74,23.74,0,0,1-2.72-1.69l.05-.06h0Z"/><rect class="cls-4" x="67.7" y="74.46" width="126.5" height="15.75" rx="2.41"/><rect class="cls-4" x="67.7" y="265.54" width="126.5" height="15.75" rx="2.41"/><path class="cls-5" d="M176.68,256.33v9.2H85.23v-9.2a1.55,1.55,0,0,1,0-.22,4.16,4.16,0,0,1,4.15-4h83.12a3.89,3.89,0,0,1,1.45.27A4.15,4.15,0,0,1,176.68,256.33Z"/><path class="cls-6" d="M143.81,227.62l16.81,24.46H101.29l16.81-24.46A15.61,15.61,0,0,1,143.81,227.62Z"/><path class="cls-6" d="M131.42,175l2.44-2.95a.61.61,0,0,0-.47-1h-4.88a.61.61,0,0,0-.47,1l2.44,2.95A.62.62,0,0,0,131.42,175Z"/><path class="cls-6" d="M131.42,187.53l2.44-2.95a.61.61,0,0,0-.47-1h-4.88a.61.61,0,0,0-.47,1l2.44,2.95A.6.6,0,0,0,131.42,187.53Z"/><path class="cls-6" d="M131.42,199.43l2.44-3a.61.61,0,0,0-.47-1h-4.88a.61.61,0,0,0-.47,1l2.44,3A.6.6,0,0,0,131.42,199.43Z"/><path class="cls-6" d="M131.42,210.07l2.44-2.94a.62.62,0,0,0-.47-1h-4.88a.62.62,0,0,0-.47,1l2.44,2.94A.6.6,0,0,0,131.42,210.07Z"/><path class="cls-6" d="M131.88,168l26.86-32.8a1,1,0,0,0,.24-.67,2.3,2.3,0,0,0-.48-1.41c-3.55-4.57-13.22,2.31-26.6,1.64-9.5-.48-19.13-2.87-25.25-3-3-.07-3.8,1.55-4,2a1.22,1.22,0,0,0-.07.69,1,1,0,0,0,.21.43L130.26,168A1,1,0,0,0,131.88,168Z"/><path class="cls-5" d="M176.81,99.39v-9.2H85.36v9.2a1.55,1.55,0,0,0,0,.22,4.17,4.17,0,0,0,4.15,4h83.12a3.89,3.89,0,0,0,1.45-.27A4.16,4.16,0,0,0,176.81,99.39Z"/><path class="cls-7" d="M172.4,135.76c-8.24,22.56-35,38.48-41.31,42.11h-.27a129.63,129.63,0,0,1-25.17-18.72c-.86-.83-1.71-1.69-2.54-2.57a74,74,0,0,1-8.46-10.64l-.27-.43a50.21,50.21,0,0,1-4.88-9.75c-1.79-4.92-4.69-12.85-1.22-21.19a25,25,0,0,1,9.4-11h66.54a25,25,0,0,1,9.41,11C177.09,122.91,174.2,130.84,172.4,135.76Z"/><path class="cls-7" d="M173.63,241.17a25,25,0,0,1-9.41,11H97.68a25,25,0,0,1-9.4-11c-3.47-8.34-.57-16.27,1.22-21.19,8.24-22.56,35-38.49,41.32-42.11h.27c5.22,3,24.36,14.38,35.51,30.95.15.2.29.41.42.62A51.1,51.1,0,0,1,172.4,220C174.2,224.9,177.09,232.83,173.63,241.17Z"/><rect class="cls-8" x="89.83" y="261.45" width="28.27" height="1.42" rx="0.71"/><rect class="cls-8" x="98.11" y="255.44" width="37.31" height="1.42" rx="0.71"/><rect class="cls-9" x="81.87" y="277.11" width="53.87" height="1.42" rx="0.71"/><rect class="cls-9" x="77.15" y="267.99" width="28.02" height="1.42" rx="0.71"/><rect class="cls-9" x="108.16" y="271.99" width="30.61" height="1.42" rx="0.71"/><rect class="cls-8" x="132.44" y="97.35" width="37.31" height="1.42" rx="0.71"/><rect class="cls-8" x="86.66" y="92.65" width="30.82" height="1.42" rx="0.71"/><rect class="cls-8" x="106.77" y="100.46" width="12.15" height="1.42" rx="0.71"/><rect class="cls-9" x="108.42" y="84.6" width="53.87" height="1.42" rx="0.71"/><rect class="cls-9" x="158.05" y="78.05" width="28.88" height="1.42" rx="0.71"/><rect class="cls-9" x="76.61" y="80.14" width="31.38" height="1.42" rx="0.71"/><rect class="cls-9" x="127.87" y="76.17" width="20.55" height="1.42" rx="0.71"/><rect class="cls-8" x="158.61" y="258.46" width="14.48" height="1.42" rx="0.71"/><rect class="cls-9" x="154.35" y="268.05" width="30.61" height="1.42" rx="0.71"/><path class="cls-10" d="M122.6,74.46,93.48,103.58H89.39a4.17,4.17,0,0,1-4.15-4l9.42-9.42,15.75-15.75Z"/><path class="cls-11" d="M136.32,103.58,94.38,145.51a50.21,50.21,0,0,1-4.88-9.75c-1.79-4.92-4.69-12.85-1.22-21.19a25,25,0,0,1,9.4-11Z"/><path class="cls-12" d="M173.63,241.17a25,25,0,0,1-9.41,11h-41l43.34-43.34c.15.2.29.41.42.62A51.1,51.1,0,0,1,172.4,220C174.2,224.9,177.09,232.83,173.63,241.17Z"/><polygon class="cls-10" points="161 74.46 145.25 90.2 131.88 103.58 124.13 103.58 153.25 74.46 161 74.46"/><path class="cls-13" d="M194.2,267.94v10.94a2.41,2.41,0,0,1-2.4,2.41H145.1l15.75-15.75h0l13.1-13.1a4.15,4.15,0,0,1,2.72,3.9v9.21H191.8A2.41,2.41,0,0,1,194.2,267.94Z"/><rect class="cls-10" x="155.56" y="136.2" width="2.87" height="19.5" rx="1.44" transform="translate(149.18 -68.26) rotate(45)"/><rect class="cls-10" x="154.98" y="119.07" width="4.02" height="25.76" rx="1.44" transform="translate(139.28 -72.36) rotate(45)"/><rect class="cls-14" x="103.15" y="204.76" width="2.87" height="21.4" rx="1.44" transform="translate(182.99 -10.85) rotate(45)"/><rect class="cls-14" x="101.06" y="212.76" width="4.15" height="26.25" rx="1.61" transform="translate(189.93 -6.77) rotate(45)"/><rect class="cls-10" x="99.93" y="106.74" width="3.02" height="20.48" rx="1.44" transform="translate(112.43 -37.46) rotate(45)"/><path class="cls-15" d="M256.82,247A41.86,41.86,0,0,1,215,288.89h-1a40.55,40.55,0,0,1-7.44-.84,40.07,40.07,0,0,1-7.29-2.18A42,42,0,0,1,173.1,247a41.86,41.86,0,0,1,70.18-30.83,43.34,43.34,0,0,1,4.6,5A41.7,41.7,0,0,1,256.82,247Z"/><circle class="cls-16" cx="214.96" cy="247.03" r="35.71"/><rect class="cls-17" x="212.43" y="216.28" width="5.06" height="5.06" rx="1.1"/><rect class="cls-17" x="224.96" y="219.14" width="5.06" height="5.06" rx="1.1" transform="translate(-70.93 330.45) rotate(-64.29)"/><rect class="cls-17" x="235.01" y="227.16" width="5.06" height="5.06" rx="1.1" transform="translate(-91.38 198.21) rotate(-38.57)"/><rect class="cls-17" x="240.59" y="238.74" width="5.06" height="5.06" rx="1.1" transform="matrix(0.97, -0.22, 0.22, 0.97, -47.59, 60.15)"/><rect class="cls-17" x="240.59" y="251.6" width="5.06" height="5.06" rx="1.1" transform="translate(-58.73 434.6) rotate(-77.14)"/><rect class="cls-17" x="235.01" y="263.18" width="5.06" height="5.06" rx="1.1" transform="translate(-118.3 285.76) rotate(-51.43)"/><rect class="cls-17" x="224.96" y="271.19" width="5.06" height="5.06" rx="1.1" transform="translate(-96.23 125.81) rotate(-25.71)"/><rect class="cls-17" x="212.43" y="274.05" width="5.06" height="5.06" rx="1.1"/><rect class="cls-17" x="199.9" y="271.19" width="5.06" height="5.06" rx="1.1" transform="translate(-132.02 337.34) rotate(-64.29)"/><rect class="cls-17" x="189.85" y="263.18" width="5.06" height="5.06" rx="1.1" transform="translate(-123.7 177.91) rotate(-38.57)"/><rect class="cls-17" x="184.27" y="251.6" width="5.06" height="5.06" rx="1.1" transform="translate(-51.86 47.94) rotate(-12.86)"/><rect class="cls-17" x="184.27" y="238.74" width="5.06" height="5.06" rx="1.1" transform="translate(-89.99 369.69) rotate(-77.14)"/><rect class="cls-17" x="189.85" y="227.16" width="5.06" height="5.06" rx="1.1" transform="translate(-107.15 236.88) rotate(-51.43)"/><rect class="cls-17" x="199.9" y="219.14" width="5.06" height="5.06" rx="1.1" transform="translate(-76.13 109.78) rotate(-25.71)"/><rect class="cls-17" x="212.43" y="216.28" width="5.06" height="5.06" rx="1.1"/><path class="cls-17" d="M225.38,249.23a10,10,0,0,0-3.78-3.32,41.71,41.71,0,0,0-4.71-2.08c-.45-.18-.92-.35-1.41-.52-.77-.3-1.45-.58-2.07-.84l-1-.44a4.7,4.7,0,0,1-1.85-1.35,3.27,3.27,0,0,1-.61-2.07,3.53,3.53,0,0,1,.67-2.31,3.73,3.73,0,0,1,1.73-1.18,5.93,5.93,0,0,1,1-.24v-7.2a12.48,12.48,0,0,0-4.85,1.43,10.71,10.71,0,0,0-4.27,4.17,12.61,12.61,0,0,0-1.54,6.4,9.87,9.87,0,0,0,1.16,5,9.41,9.41,0,0,0,3.38,3.27,36.9,36.9,0,0,0,5.58,2.62l.54.18c1.12.41,2.09.75,2.9,1.06a6.31,6.31,0,0,1,.58.25,5.47,5.47,0,0,1,1.59,1,3,3,0,0,1,.75,2.18,3.39,3.39,0,0,1-1.36,2.93,4.15,4.15,0,0,1-1,.52v7.54a11.36,11.36,0,0,0,6.5-3q3.3-3.13,3.3-8.69A9.77,9.77,0,0,0,225.38,249.23Zm-21.47,4.64-2.83,6.3a16,16,0,0,0,6,4.7,18.18,18.18,0,0,0,6.29,1.56v-7.25a11.77,11.77,0,0,1-4.24-1.26A19.94,19.94,0,0,1,203.91,253.87Zm17.22-25a14.41,14.41,0,0,0-4.24-1.15v7.35a10,10,0,0,1,2,.75,16.79,16.79,0,0,1,4.33,3.36L226.4,233A14.3,14.3,0,0,0,221.13,228.87Z"/><path class="cls-17" d="M216.89,227.72v7.35a8,8,0,0,0-2.23-.3,6.39,6.39,0,0,0-1.25.11v-7.2a13.82,13.82,0,0,1,1.6-.08A12.91,12.91,0,0,1,216.89,227.72Z"/><path class="cls-17" d="M216.89,225.39v2.33a12.91,12.91,0,0,0-1.88-.12,13.82,13.82,0,0,0-1.6.08v-2.29Z"/><path class="cls-17" d="M216.89,258.77v7.54a17.21,17.21,0,0,1-2.34.16c-.38,0-.76,0-1.14,0v-7.25a8.06,8.06,0,0,0,.85,0A7,7,0,0,0,216.89,258.77Z"/><path class="cls-17" d="M216.89,266.31v2.37h-3.48v-2.25c.38,0,.76,0,1.14,0A17.21,17.21,0,0,0,216.89,266.31Z"/><path class="cls-18" d="M243.28,216.2l-43.6,69.62-.4,0a41.38,41.38,0,0,1-8.49-4.65l44.37-70.85A42,42,0,0,1,243.28,216.2Z"/><path class="cls-18" d="M251.41,226.43,214,288.88a40.55,40.55,0,0,1-7.44-.84l41.31-66.87A42,42,0,0,1,251.41,226.43Z"/><path class="cls-19" d="M193.15,210.7l1.38-5.14a.54.54,0,0,1,1,0L197,210.7a5.78,5.78,0,0,0,4.09,4.07l5.13,1.38a.54.54,0,0,1,0,1L201,218.58a5.78,5.78,0,0,0-4.08,4.08l-1.38,5.13a.54.54,0,0,1-1,0l-1.38-5.13a5.8,5.8,0,0,0-4.08-4.08l-5.14-1.37a.54.54,0,0,1,0-1l5.13-1.39A5.76,5.76,0,0,0,193.15,210.7Z"/><path class="cls-15" d="M241.33,107a10.86,10.86,0,0,1-10.86,10.86h-.25a11.18,11.18,0,0,1-1.93-.22,10.3,10.3,0,0,1-1.89-.57,11.15,11.15,0,0,1-2.2-1.2,10.86,10.86,0,0,1,11.51-18.38A11.26,11.26,0,0,1,237.82,99a12.13,12.13,0,0,1,1.19,1.29,10.5,10.5,0,0,1,.91,1.37A10.72,10.72,0,0,1,241.33,107Z"/><circle class="cls-16" cx="230.47" cy="106.97" r="9.26"/><rect class="cls-17" x="229.81" y="99" width="1.31" height="1.31" rx="0.29"/><rect class="cls-17" x="233.06" y="99.74" width="1.31" height="1.31" rx="0.29" transform="translate(41.86 267.41) rotate(-64.29)"/><rect class="cls-17" x="235.67" y="101.82" width="1.31" height="1.31" rx="0.29" transform="translate(-12.33 169.7) rotate(-38.57)"/><rect class="cls-17" x="237.12" y="104.82" width="1.31" height="1.31" rx="0.29" transform="translate(-17.51 55.55) rotate(-12.86)"/><rect class="cls-17" x="237.12" y="108.15" width="1.31" height="1.31" rx="0.29" transform="translate(78.78 316.41) rotate(-77.14)"/><rect class="cls-17" x="235.67" y="111.16" width="1.31" height="1.31" rx="0.29" transform="translate(1.56 226.87) rotate(-51.43)"/><rect class="cls-17" x="233.06" y="113.24" width="1.31" height="1.31" rx="0.29" transform="translate(-26.27 112.69) rotate(-25.71)"/><rect class="cls-17" x="229.81" y="113.98" width="1.31" height="1.31" rx="0.29"/><rect class="cls-17" x="226.56" y="113.24" width="1.31" height="1.31" rx="0.29" transform="translate(26.02 269.19) rotate(-64.29)"/><rect class="cls-17" x="223.96" y="111.16" width="1.31" height="1.31" rx="0.29" transform="translate(-20.71 164.44) rotate(-38.57)"/><rect class="cls-17" x="222.51" y="108.15" width="1.31" height="1.31" rx="0.29" transform="translate(-18.62 52.39) rotate(-12.86)"/><rect class="cls-17" x="222.51" y="104.82" width="1.31" height="1.31" rx="0.29" transform="translate(70.67 299.57) rotate(-77.14)"/><rect class="cls-17" x="223.96" y="101.82" width="1.31" height="1.31" rx="0.29" transform="translate(4.45 214.19) rotate(-51.43)"/><rect class="cls-17" x="226.56" y="99.74" width="1.31" height="1.31" rx="0.29" transform="translate(-21.06 108.53) rotate(-25.71)"/><rect class="cls-17" x="229.81" y="99" width="1.31" height="1.31" rx="0.29"/><path class="cls-17" d="M233.17,107.54a2.6,2.6,0,0,0-1-.86,11.24,11.24,0,0,0-1.22-.54l-.37-.13-.53-.22-.25-.12a1.07,1.07,0,0,1-.48-.35.8.8,0,0,1-.16-.53.89.89,0,0,1,.17-.6,1,1,0,0,1,.45-.31,1.31,1.31,0,0,1,.27-.06V102a3.2,3.2,0,0,0-1.26.37,2.84,2.84,0,0,0-1.11,1.09,3.3,3.3,0,0,0-.4,1.65,2.57,2.57,0,0,0,.3,1.31,2.48,2.48,0,0,0,.88.85,10.54,10.54,0,0,0,1.45.68l.14,0,.75.27.15.07a1.46,1.46,0,0,1,.41.27.75.75,0,0,1,.2.56.88.88,0,0,1-.35.76,1.3,1.3,0,0,1-.26.14v2a2.8,2.8,0,0,0,2.54-3A2.5,2.5,0,0,0,233.17,107.54Zm-5.57,1.21-.73,1.63a4.15,4.15,0,0,0,1.57,1.22,4.59,4.59,0,0,0,1.63.4v-1.88a3.12,3.12,0,0,1-1.1-.32A5.4,5.4,0,0,1,227.6,108.75Zm4.47-6.49a3.82,3.82,0,0,0-1.1-.3v1.91a2.73,2.73,0,0,1,.52.19,4.17,4.17,0,0,1,1.12.88l.83-1.62A3.77,3.77,0,0,0,232.07,102.26Z"/><path class="cls-17" d="M231,102v1.91a1.89,1.89,0,0,0-.58-.08,1.66,1.66,0,0,0-.32,0V102l.41,0A3.91,3.91,0,0,1,231,102Z"/><path class="cls-17" d="M231,101.36v.6a3.91,3.91,0,0,0-.49,0l-.41,0v-.59Z"/><path class="cls-17" d="M231,110v2a3.91,3.91,0,0,1-.61,0h-.29v-1.88h.22A2,2,0,0,0,231,110Z"/><path class="cls-17" d="M231,112v.62h-.9V112h.29A3.91,3.91,0,0,0,231,112Z"/><path class="cls-18" d="M237.82,99,226.51,117h-.11a11.15,11.15,0,0,1-2.2-1.2l11.51-18.38A11.26,11.26,0,0,1,237.82,99Z"/><path class="cls-18" d="M239.92,101.63l-9.7,16.2a11.18,11.18,0,0,1-1.93-.22L239,100.26A10.5,10.5,0,0,1,239.92,101.63Z"/><path class="cls-20" d="M241.38,107a10.86,10.86,0,0,1-10.86,10.86h-.25a11.18,11.18,0,0,1-1.93-.22,10.3,10.3,0,0,1-1.89-.57,10.66,10.66,0,0,1-2.2-1.2A10.86,10.86,0,1,1,237.87,99a11.13,11.13,0,0,1,1.19,1.28,10.5,10.5,0,0,1,.91,1.37A10.75,10.75,0,0,1,241.38,107Z"/><path class="cls-21" d="M88.13,274a6.36,6.36,0,0,1-.71,3.29C84.59,283,73.64,287.9,58,289.65l-.91.11q-3.7.38-7.4.5l-.3,0c-2.45.07-4.89.06-7.29,0h0c-2.32-.08-4.61-.24-6.84-.47h0q-1.32-.12-2.61-.3c-2.31-.29-4.55-.67-6.69-1.11h0c-9.34-1.95-16.71-5.23-20-9.4a8.66,8.66,0,0,1-1.3-2.3,6.45,6.45,0,0,1-.39-1.81,7,7,0,0,1,1.5-4.57A12.7,12.7,0,0,1,8,267.89a21.27,21.27,0,0,1,1.9-1.4,38.23,38.23,0,0,1,8.9-4.06h0c.84-.28,1.73-.55,2.64-.79h0a82,82,0,0,1,12.88-2.41c.35-.05.72-.08,1.07-.11,1.17-.13,2.34-.23,3.52-.3s2.33-.14,3.49-.18c1.91-.07,3.83-.1,5.71-.07h0c1.12,0,2.22.05,3.33.12h0c1.26.05,2.52.13,3.75.24.94.08,1.88.16,2.8.28,2.16.22,4.25.53,6.27.89l.39.07c1.74.33,3.42.69,5,1.11l.79.21c1.73.46,3.35,1,4.88,1.53a36.55,36.55,0,0,1,5.94,2.72,21.14,21.14,0,0,1,3.34,2.36A12.25,12.25,0,0,1,86,269.45a4.4,4.4,0,0,1,.4.46A7.48,7.48,0,0,1,88.13,274Z"/><path class="cls-22" d="M87.55,264.78v.07a6.93,6.93,0,0,1-1.51,4.6,13,13,0,0,1-1.17,1.36c-4.37,4.39-13.76,8-26.35,9.56l-1.12.13-.91.11h-.08c-2.43.25-4.86.42-7.27.5h-.06c-2.44.07-4.9.08-7.3,0h-.32c-3.25-.11-6.42-.38-9.47-.77h-.13c-10-1.29-18.53-4-23.55-7.67a16.82,16.82,0,0,1-2.61-2.36l-.38-.48a7.38,7.38,0,0,1-1.69-4.1,2.44,2.44,0,0,1,0-.27c-.12-6.9,11.77-13.32,30.16-15.38a107.73,107.73,0,0,1,20.9-.29A90.41,90.41,0,0,1,64.15,251c2,.38,4,.81,5.82,1.3s3.35,1,4.87,1.55c5,1.83,8.91,4.17,11,6.9A7.53,7.53,0,0,1,87.55,264.78Z"/><path class="cls-22" d="M37,256.1l2.75-.31c.58-.07.92-.3.74-.52l-.8-1a1.79,1.79,0,0,0-1.37-.28l-2.75.31c-.58.06-.91.3-.74.52l.8,1A1.84,1.84,0,0,0,37,256.1Z"/><path class="cls-22" d="M48.67,255.57l2.82.17c.6,0,1.17-.12,1.27-.34l.47-1.07c.1-.23-.31-.45-.91-.48l-2.82-.17c-.6,0-1.17.11-1.27.34l-.47,1.07C47.66,255.32,48.07,255.53,48.67,255.57Z"/><path class="cls-22" d="M59.8,257l2.34.62a2.44,2.44,0,0,0,1.53-.1l1.65-.89c.35-.19.23-.45-.27-.58l-2.34-.62a2.54,2.54,0,0,0-1.54.1l-1.64.89C59.18,256.62,59.3,256.88,59.8,257Z"/><path class="cls-22" d="M68.14,260.14l1.4.95a2.32,2.32,0,0,0,1.5.16l2.5-.53c.53-.12.72-.37.42-.57l-1.39-.95a2.32,2.32,0,0,0-1.5-.16l-2.5.54C68,259.69,67.85,259.94,68.14,260.14Z"/><path class="cls-22" d="M72.06,264.34l.18,1.08c0,.23.56.41,1.16.39l2.86-.07c.61,0,1.07-.21,1-.44l-.18-1.08c0-.23-.56-.41-1.17-.39l-2.85.07C72.49,263.91,72,264.11,72.06,264.34Z"/><path class="cls-22" d="M70.77,268.77l-1.08,1c-.23.21,0,.46.61.54l2.64.41a2.11,2.11,0,0,0,1.44-.23l1.09-1c.23-.21,0-.45-.61-.54l-2.65-.41A2.12,2.12,0,0,0,70.77,268.77Z"/><path class="cls-22" d="M64.54,272.56l-2.13.73c-.45.16-.49.42-.08.59l1.92.8a2.48,2.48,0,0,0,1.55,0l2.13-.73c.45-.15.49-.42.08-.59l-1.92-.8A2.56,2.56,0,0,0,64.54,272.56Z"/><path class="cls-22" d="M54.58,275l-2.75.31c-.58.06-.92.3-.74.52l.8,1a1.83,1.83,0,0,0,1.37.29L56,276.8c.58-.07.91-.3.74-.52l-.8-1A1.79,1.79,0,0,0,54.58,275Z"/><path class="cls-22" d="M42.88,275.49l-2.82-.18c-.6,0-1.17.12-1.27.35l-.47,1.07c-.1.23.31.44.91.48l2.83.17c.59,0,1.16-.12,1.26-.35l.47-1.06C43.89,275.74,43.48,275.52,42.88,275.49Z"/><path class="cls-22" d="M31.76,274l-2.35-.62a2.44,2.44,0,0,0-1.53.11l-1.65.89c-.35.18-.23.45.27.58l2.34.62a2.46,2.46,0,0,0,1.54-.11l1.64-.89C32.37,274.43,32.25,274.17,31.76,274Z"/><path class="cls-22" d="M23.41,270.91,22,270a2.32,2.32,0,0,0-1.5-.16l-2.5.53c-.53.11-.72.37-.42.57l1.39.94a2.32,2.32,0,0,0,1.5.16l2.5-.53C23.51,271.37,23.7,271.11,23.41,270.91Z"/><path class="cls-22" d="M19.49,266.71l-.18-1.08c0-.23-.56-.4-1.16-.39l-2.86.07c-.61,0-1.07.22-1,.45l.17,1.08c0,.23.56.4,1.17.39l2.85-.07C19.06,267.14,19.52,266.94,19.49,266.71Z"/><path class="cls-22" d="M20.78,262.28l1.08-1c.23-.21,0-.46-.61-.55l-2.64-.4a2,2,0,0,0-1.44.23l-1.09,1c-.23.22.05.46.61.55l2.65.4A2,2,0,0,0,20.78,262.28Z"/><path class="cls-22" d="M27,258.49l2.12-.73c.45-.15.49-.42.08-.59l-1.92-.8a2.48,2.48,0,0,0-1.55,0l-2.13.72c-.45.16-.49.42-.08.59l1.92.8A2.51,2.51,0,0,0,27,258.49Z"/><path class="cls-22" d="M37,256.1l2.75-.31c.58-.07.92-.3.74-.52l-.8-1a1.79,1.79,0,0,0-1.37-.28l-2.75.31c-.58.06-.91.3-.74.52l.8,1A1.84,1.84,0,0,0,37,256.1Z"/><path class="cls-22" d="M56.24,265a20.1,20.1,0,0,0-4.58-.8c-1.47-.11-3.17-.19-5.11-.25l-1.51,0-2.23-.08-1.05-.06a10.66,10.66,0,0,1-2.17-.29,2.19,2.19,0,0,1-1.17-.69c-.28-.36-.28-.67,0-.91a3.23,3.23,0,0,1,1.33-.62l.92-.2-2-2.62a21.19,21.19,0,0,0-4.26,1,5.75,5.75,0,0,0-2.93,2,2,2,0,0,0,.32,2.49,5.37,5.37,0,0,0,2.54,1.71,18.57,18.57,0,0,0,4.17.83q2.52.24,6.11.34h.57l3.09.07.63,0a12.92,12.92,0,0,1,1.82.21,2.19,2.19,0,0,1,1.34.71c.36.47.2.88-.48,1.21a4.82,4.82,0,0,1-.8.3l2.13,2.74a14.65,14.65,0,0,0,5.41-1.79q2.28-1.5.72-3.52A5.52,5.52,0,0,0,56.24,265Zm-19.35,4-1,2.59a34.52,34.52,0,0,0,7.14,1.06,48.35,48.35,0,0,0,6.49-.11l-2-2.64a29.87,29.87,0,0,1-4.44,0A45,45,0,0,1,36.89,269Zm9.52-11a40.37,40.37,0,0,0-4.4,0l2.07,2.68c.69,0,1.4,0,2.13,0a37.72,37.72,0,0,1,5.11.76l1.31-2.61A32.22,32.22,0,0,0,46.41,258Z"/><path class="cls-22" d="M42,258.05l2.07,2.68a20.1,20.1,0,0,0-2.23.13c-.42,0-.81.1-1.18.17l-2-2.62,1.52-.2C40.78,258.15,41.39,258.09,42,258.05Z"/><path class="cls-22" d="M41.35,257.21l.66.84c-.62,0-1.23.1-1.85.16l-1.52.2-.64-.83Z"/><path class="cls-22" d="M50.76,269.35l2.13,2.74c-.68.11-1.42.22-2.21.31l-1.11.11-2-2.64.82-.07A13.91,13.91,0,0,0,50.76,269.35Z"/><path class="cls-22" d="M52.89,272.09l.67.86-3.36.38-.63-.82,1.11-.11C51.47,272.31,52.21,272.2,52.89,272.09Z"/><path class="cls-23" d="M64.15,251l-1.7,2.29-1.94,2.6L59.7,257l-5.55,7.46-2.33,3.16-1.35,1.81-1.61,2.17-.76,1-4.6,6.22-1.72,2.29h-.32c-3.25-.11-6.42-.38-9.47-.77l1.68-2.25,4.47-6,1.86-2.5,2.09-2.83,1.19-1.58.95-1.28,2.26-3,1.94-2.63,1.87-2.5,1.39-1.87L53,252l1.66-2.25A90.41,90.41,0,0,1,64.15,251Z"/><path class="cls-23" d="M74.84,253.86,73,256.53,71.3,259l-1.5,2.19-4,5.77-7.53,11-.61.89-1.15,1.67-.07.12h-.08c-2.43.25-4.86.42-7.27.5h-.06l1.77-2.43L52.09,277l1.37-1.87,2.75-3.81,3-4.18,9-12.35L70,252.31C71.69,252.78,73.32,253.3,74.84,253.86Z"/><path class="cls-21" d="M5.7,270.29a7,7,0,0,0-1.5,4.57l-.57-9.15a7.38,7.38,0,0,0,1.69,4.1Z"/><path class="cls-24" d="M87.55,264.85l.58,9.16a7.48,7.48,0,0,0-1.69-4.1,4.4,4.4,0,0,0-.4-.46A6.93,6.93,0,0,0,87.55,264.85Z"/><path class="cls-25" d="M41.78,281.11l-6.58,8.67h0q-1.32-.12-2.61-.3c-2.31-.29-4.55-.67-6.69-1.11l6.12-8h0c3.05.39,6.22.66,9.47.77Z"/><path class="cls-25" d="M56.49,280.61l-7.13,9.67c-2.45.07-4.89.06-7.29,0l7-9.14C51.5,281,54.06,280.86,56.49,280.61Z"/><path class="cls-26" d="M94.24,266a6.36,6.36,0,0,1-.71,3.29c-2.83,5.7-13.78,10.6-29.45,12.36-.3,0-.61.08-.91.1-2.47.26-4.94.42-7.4.51h-.3c-2.45.07-4.89.06-7.29,0h0c-2.32-.08-4.61-.23-6.84-.47h0c-.88-.08-1.75-.18-2.61-.29-2.31-.3-4.55-.68-6.69-1.12h0c-9.34-1.94-16.71-5.22-20-9.4a8.61,8.61,0,0,1-1.3-2.29,6.53,6.53,0,0,1-.39-1.81,7,7,0,0,1,1.5-4.58,12.7,12.7,0,0,1,2.32-2.4,19.44,19.44,0,0,1,1.9-1.39,38,38,0,0,1,8.9-4.06h0c.84-.28,1.73-.55,2.64-.8h0a81.59,81.59,0,0,1,12.87-2.42l1.07-.1c1.17-.14,2.35-.24,3.52-.31s2.33-.14,3.5-.18c1.9-.07,3.82-.09,5.7-.07h0c1.12,0,2.22.06,3.33.12h0c1.26.05,2.52.13,3.75.24,1,.08,1.88.16,2.8.28,2.16.22,4.25.53,6.27.89l.39.07c1.74.33,3.42.69,5,1.11l.79.21c1.73.46,3.35,1,4.88,1.53a36.55,36.55,0,0,1,5.94,2.73A20.06,20.06,0,0,1,90.81,260a12.25,12.25,0,0,1,1.34,1.36,5.85,5.85,0,0,1,.4.47A7.45,7.45,0,0,1,94.24,266Z"/><path class="cls-27" d="M93.66,256.73v.08a6.91,6.91,0,0,1-1.51,4.59A12.09,12.09,0,0,1,91,262.76c-4.37,4.4-13.76,8-26.35,9.56l-1.12.14-.91.1h-.08c-2.43.25-4.86.41-7.27.49h-.06c-2.44.07-4.9.07-7.29,0h-.33c-3.25-.11-6.42-.37-9.47-.76l-.13,0c-10-1.29-18.52-4-23.54-7.67a16.46,16.46,0,0,1-2.62-2.36l-.38-.48a7.35,7.35,0,0,1-1.69-4.09,2.62,2.62,0,0,1,0-.28c-.12-6.9,11.77-13.31,30.16-15.37a107.84,107.84,0,0,1,20.91-.3c3.29.27,6.47.69,9.46,1.24,2,.39,4,.82,5.82,1.31s3.35,1,4.87,1.54c5,1.83,8.91,4.18,11,6.91A7.5,7.5,0,0,1,93.66,256.73Z"/><path class="cls-27" d="M43.08,248.05l2.75-.31c.58-.06.92-.3.75-.52l-.81-1a1.83,1.83,0,0,0-1.37-.29l-2.74.31c-.59.07-.92.3-.75.52l.8,1A1.79,1.79,0,0,0,43.08,248.05Z"/><path class="cls-27" d="M54.78,247.52l2.82.18c.6,0,1.17-.12,1.27-.35l.47-1.07c.1-.23-.31-.44-.91-.48l-2.82-.17c-.6,0-1.17.12-1.27.35L53.87,247C53.77,247.27,54.18,247.49,54.78,247.52Z"/><path class="cls-27" d="M65.91,249l2.34.62a2.43,2.43,0,0,0,1.53-.11l1.65-.89c.35-.18.23-.45-.27-.58l-2.34-.62a2.46,2.46,0,0,0-1.54.11l-1.64.89C65.29,248.58,65.41,248.84,65.91,249Z"/><path class="cls-27" d="M74.25,252.1l1.4.94a2.32,2.32,0,0,0,1.5.16l2.5-.53c.53-.11.72-.37.42-.57l-1.39-.94a2.32,2.32,0,0,0-1.5-.16l-2.5.53C74.15,251.64,74,251.9,74.25,252.1Z"/><path class="cls-27" d="M78.17,256.3l.18,1.08c0,.23.56.4,1.16.39l2.86-.07c.61,0,1.07-.22,1-.45l-.18-1.08c0-.23-.56-.4-1.17-.39l-2.85.07C78.6,255.87,78.14,256.07,78.17,256.3Z"/><path class="cls-27" d="M76.89,260.73l-1.09,1c-.23.21,0,.46.61.55l2.65.4a2,2,0,0,0,1.43-.23l1.09-1c.23-.22,0-.46-.61-.55l-2.65-.4A2,2,0,0,0,76.89,260.73Z"/><path class="cls-27" d="M70.65,264.52l-2.13.73c-.45.15-.49.42-.08.59l1.92.8a2.51,2.51,0,0,0,1.56,0l2.12-.72c.45-.16.49-.42.08-.59l-1.92-.81A2.56,2.56,0,0,0,70.65,264.52Z"/><path class="cls-27" d="M60.69,266.91l-2.75.31c-.58.07-.91.3-.74.52l.8,1a1.79,1.79,0,0,0,1.37.28l2.75-.31c.58-.06.92-.3.74-.52l-.8-1A1.84,1.84,0,0,0,60.69,266.91Z"/><path class="cls-27" d="M49,267.44l-2.82-.17c-.6,0-1.17.12-1.27.34l-.47,1.07c-.1.23.31.45.91.48l2.83.17c.59,0,1.17-.11,1.26-.34l.47-1.07C50,267.69,49.59,267.48,49,267.44Z"/><path class="cls-27" d="M37.87,266l-2.35-.62a2.44,2.44,0,0,0-1.53.1l-1.65.89c-.35.19-.23.45.27.58l2.34.62a2.54,2.54,0,0,0,1.54-.1l1.64-.89C38.48,266.39,38.36,266.13,37.87,266Z"/><path class="cls-27" d="M29.52,262.87l-1.4-.95a2.31,2.31,0,0,0-1.5-.16l-2.5.53c-.53.12-.72.37-.42.57l1.39.95a2.32,2.32,0,0,0,1.5.16l2.5-.54C29.62,263.32,29.81,263.07,29.52,262.87Z"/><path class="cls-27" d="M25.6,258.67l-.18-1.08c0-.23-.56-.41-1.16-.39l-2.86.07c-.61,0-1.07.21-1,.44l.17,1.08c0,.23.56.41,1.17.39l2.85-.07C25.17,259.1,25.64,258.9,25.6,258.67Z"/><path class="cls-27" d="M26.89,254.24l1.08-1c.23-.21,0-.46-.6-.54l-2.65-.41a2.12,2.12,0,0,0-1.44.23l-1.08,1c-.23.21,0,.45.6.54l2.65.41A2.12,2.12,0,0,0,26.89,254.24Z"/><path class="cls-27" d="M33.13,250.45l2.12-.73c.45-.16.49-.42.08-.59l-1.92-.8a2.48,2.48,0,0,0-1.55,0l-2.13.73c-.45.15-.49.42-.08.59l1.92.8A2.59,2.59,0,0,0,33.13,250.45Z"/><path class="cls-27" d="M43.08,248.05l2.75-.31c.58-.06.92-.3.75-.52l-.81-1a1.83,1.83,0,0,0-1.37-.29l-2.74.31c-.59.07-.92.3-.75.52l.8,1A1.79,1.79,0,0,0,43.08,248.05Z"/><path class="cls-27" d="M62.35,256.91a20.67,20.67,0,0,0-4.58-.8c-1.47-.11-3.17-.19-5.11-.25l-1.51,0-2.23-.08-1.05-.06a10,10,0,0,1-2.17-.29,2.12,2.12,0,0,1-1.17-.68c-.28-.37-.28-.67,0-.91a3.11,3.11,0,0,1,1.33-.62,8.28,8.28,0,0,1,.92-.2l-2-2.62a22,22,0,0,0-4.26,1,5.82,5.82,0,0,0-2.93,2,2,2,0,0,0,.32,2.5,5.36,5.36,0,0,0,2.54,1.7,18,18,0,0,0,4.17.83c1.68.16,3.72.27,6.11.35h.57l3.09.08.63,0a14.38,14.38,0,0,1,1.82.21,2.24,2.24,0,0,1,1.34.71c.36.48.2.88-.48,1.21a4.82,4.82,0,0,1-.8.3L59,264a14.47,14.47,0,0,0,5.41-1.79c1.52-1,1.76-2.17.72-3.51A5.54,5.54,0,0,0,62.35,256.91Zm-19.35,4-1,2.6a35.21,35.21,0,0,0,7.14,1.06,48.34,48.34,0,0,0,6.49-.12l-2-2.63a32.85,32.85,0,0,1-4.44,0A43.63,43.63,0,0,1,43,260.92Zm9.52-11a35.89,35.89,0,0,0-4.4,0l2.07,2.67q1,0,2.13.06a36.41,36.41,0,0,1,5.12.75l1.3-2.6A30.74,30.74,0,0,0,52.52,250Z"/><path class="cls-27" d="M48.12,250l2.07,2.67c-.77,0-1.51,0-2.23.13-.41.05-.81.11-1.18.18l-2-2.62c.48-.08,1-.14,1.52-.2S47.5,250,48.12,250Z"/><path class="cls-27" d="M47.46,249.16l.66.85c-.62,0-1.23.09-1.85.16s-1,.12-1.52.2l-.64-.83Z"/><path class="cls-27" d="M56.87,261.3,59,264c-.68.12-1.42.22-2.21.31l-1.11.11-2-2.63.83-.08A14,14,0,0,0,56.87,261.3Z"/><path class="cls-27" d="M59,264l.67.86-3.36.38-.63-.82,1.11-.11C57.58,264.26,58.32,264.16,59,264Z"/><path class="cls-28" d="M70.26,243l-1.7,2.3-1.94,2.59-.81,1.09-5.55,7.46-2.33,3.17-1.35,1.8L55,263.54l-.76,1-4.6,6.22-1.71,2.3h-.33c-3.25-.11-6.42-.37-9.47-.76L39.78,270l4.47-6,1.86-2.51,2.09-2.83,1.19-1.58,1-1.27,2.26-3,1.94-2.63,1.87-2.51,1.39-1.86,1.33-1.8,1.67-2.25C64.09,242,67.27,242.41,70.26,243Z"/><path class="cls-28" d="M81,245.81l-1.83,2.67L77.42,251l-1.51,2.19-4,5.77-7.53,11-.6.9-1.16,1.67-.07.11h-.08c-2.43.25-4.86.41-7.27.49h-.06L57,270.63l1.23-1.72L59.57,267l2.75-3.8,3-4.18,9-12.36,1.76-2.43C77.8,244.73,79.43,245.25,81,245.81Z"/><path class="cls-26" d="M11.81,262.24a7,7,0,0,0-1.5,4.58l-.57-9.15a7.35,7.35,0,0,0,1.69,4.09Z"/><path class="cls-24" d="M93.66,256.81l.58,9.15a7.45,7.45,0,0,0-1.69-4.09,5.85,5.85,0,0,0-.4-.47A6.91,6.91,0,0,0,93.66,256.81Z"/><path class="cls-25" d="M47.9,273.07l-6.59,8.66h0c-.88-.08-1.75-.18-2.61-.29-2.31-.3-4.55-.68-6.69-1.12l6.12-8h0c3,.39,6.22.65,9.47.76Z"/><path class="cls-25" d="M62.6,272.56l-7.13,9.67c-2.45.07-4.89.06-7.29,0l7-9.13C57.61,273,60.17,272.81,62.6,272.56Z"/><path class="cls-24" d="M100.23,258.19a6.36,6.36,0,0,1-.71,3.29c-2.82,5.7-13.78,10.61-29.44,12.36-.31,0-.62.08-.91.1-2.47.26-5,.43-7.41.51h-.29c-2.45.07-4.89.06-7.29,0h0c-2.32-.09-4.61-.24-6.84-.48h0c-.88-.09-1.76-.19-2.61-.3-2.31-.29-4.56-.67-6.69-1.12h0c-9.33-1.95-16.71-5.23-20-9.4a8.53,8.53,0,0,1-1.3-2.3,6.53,6.53,0,0,1-.39-1.81,6.92,6.92,0,0,1,1.5-4.58,12.94,12.94,0,0,1,2.31-2.4A19.61,19.61,0,0,1,22,250.68a37.82,37.82,0,0,1,8.9-4.06h0c.84-.28,1.73-.55,2.64-.8h0a83.11,83.11,0,0,1,12.88-2.42l1.07-.1c1.17-.14,2.34-.23,3.52-.3s2.33-.14,3.49-.19c1.91-.06,3.82-.09,5.7-.06h0c1.13,0,2.23.05,3.33.11h0q1.89.09,3.75.24c.94.08,1.87.16,2.8.29,2.15.21,4.25.52,6.26.88l.4.08q2.61.48,5,1.1l.79.21c1.72.47,3.35,1,4.87,1.53a37.54,37.54,0,0,1,6,2.73,20.56,20.56,0,0,1,3.33,2.35,14.4,14.4,0,0,1,1.35,1.36,5.71,5.71,0,0,1,.39.47A7.41,7.41,0,0,1,100.23,258.19Z"/><path class="cls-15" d="M99.65,249V249a6.91,6.91,0,0,1-1.51,4.59A10.53,10.53,0,0,1,97,255c-4.36,4.4-13.76,8-26.34,9.57l-1.13.13c-.3,0-.61.08-.91.1h-.08c-2.42.25-4.85.41-7.26.49h-.06c-2.45.07-4.9.08-7.3,0h-.32c-3.25-.12-6.43-.38-9.48-.77l-.12,0c-10-1.29-18.53-4-23.55-7.67a16.33,16.33,0,0,1-2.61-2.36c-.14-.16-.26-.32-.39-.48a7.4,7.4,0,0,1-1.68-4.09,1.29,1.29,0,0,1,0-.28c-.13-6.9,11.76-13.31,30.16-15.37a108.53,108.53,0,0,1,20.9-.3c3.29.27,6.47.69,9.46,1.24,2,.39,4,.82,5.82,1.31s3.35,1,4.88,1.54c5,1.83,8.91,4.18,11,6.91A7.48,7.48,0,0,1,99.65,249Z"/><ellipse class="cls-16" cx="57.69" cy="249.47" rx="35.8" ry="13.55" transform="translate(-0.43 0.1) rotate(-0.1)"/><path class="cls-17" d="M49.08,240.28l2.74-.3c.59-.07.92-.3.75-.52l-.8-1a1.79,1.79,0,0,0-1.37-.28l-2.75.31c-.58.06-.92.29-.75.51l.81,1A1.78,1.78,0,0,0,49.08,240.28Z"/><path class="cls-17" d="M60.78,239.76l2.82.17c.6,0,1.17-.12,1.27-.35l.46-1.07c.1-.22-.31-.44-.9-.48l-2.83-.17c-.6,0-1.17.12-1.27.35l-.46,1.07C59.77,239.5,60.18,239.72,60.78,239.76Z"/><path class="cls-17" d="M71.9,241.2l2.34.62a2.54,2.54,0,0,0,1.54-.1l1.65-.89c.34-.19.22-.45-.27-.58l-2.34-.62a2.47,2.47,0,0,0-1.54.1l-1.65.89C71.28,240.81,71.41,241.07,71.9,241.2Z"/><path class="cls-17" d="M80.25,244.33l1.4.94a2.25,2.25,0,0,0,1.5.16l2.5-.53c.53-.11.72-.37.42-.57l-1.39-.94a2.35,2.35,0,0,0-1.51-.16l-2.49.53C80.15,243.88,80,244.13,80.25,244.33Z"/><path class="cls-17" d="M84.17,248.53l.17,1.08c0,.23.57.4,1.17.39l2.86-.07c.6,0,1.07-.22,1-.44l-.17-1.09c0-.22-.56-.4-1.17-.39l-2.86.07C84.6,248.1,84.13,248.3,84.17,248.53Z"/><path class="cls-17" d="M82.88,253l-1.08,1c-.23.22,0,.46.6.55l2.65.4a2,2,0,0,0,1.44-.23l1.08-1c.23-.21,0-.46-.6-.54l-2.65-.41A2.06,2.06,0,0,0,82.88,253Z"/><path class="cls-17" d="M76.64,256.75l-2.12.73c-.45.15-.49.42-.08.59l1.91.8a2.59,2.59,0,0,0,1.56,0l2.13-.73c.45-.16.48-.42.08-.59l-1.92-.8A2.52,2.52,0,0,0,76.64,256.75Z"/><path class="cls-17" d="M66.69,259.15l-2.75.3c-.58.07-.92.3-.75.52l.81,1a1.78,1.78,0,0,0,1.37.28l2.74-.31c.58-.06.92-.3.75-.52l-.8-1A1.79,1.79,0,0,0,66.69,259.15Z"/><path class="cls-17" d="M55,259.67l-2.83-.17c-.59,0-1.16.12-1.26.35l-.47,1.07c-.1.22.31.44.91.47l2.82.18c.6,0,1.17-.12,1.27-.35l.47-1.07C56,259.92,55.59,259.71,55,259.67Z"/><path class="cls-17" d="M43.86,258.23l-2.34-.62a2.47,2.47,0,0,0-1.54.1l-1.64.89c-.35.19-.23.45.27.58l2.34.62a2.47,2.47,0,0,0,1.54-.1l1.64-.89C44.48,258.62,44.36,258.36,43.86,258.23Z"/><path class="cls-17" d="M35.51,255.1l-1.39-.95a2.26,2.26,0,0,0-1.5-.15l-2.5.53c-.53.11-.72.37-.43.57l1.4.94a2.31,2.31,0,0,0,1.5.16l2.5-.53C35.62,255.55,35.81,255.3,35.51,255.1Z"/><path class="cls-17" d="M31.59,250.9l-.17-1.08c0-.23-.56-.4-1.17-.39l-2.85.07c-.61,0-1.07.21-1,.44l.18,1.08c0,.23.56.41,1.16.39l2.86-.07C31.17,251.33,31.63,251.13,31.59,250.9Z"/><path class="cls-17" d="M32.88,246.47l1.09-1c.23-.21,0-.45-.61-.54l-2.65-.41a2.06,2.06,0,0,0-1.44.24l-1.08,1c-.23.21,0,.46.6.54l2.65.41A2,2,0,0,0,32.88,246.47Z"/><path class="cls-17" d="M39.12,242.68l2.13-.73c.45-.15.48-.42.08-.59l-1.92-.8a2.59,2.59,0,0,0-1.56,0l-2.12.73c-.45.15-.49.42-.08.59l1.91.8A2.59,2.59,0,0,0,39.12,242.68Z"/><path class="cls-17" d="M49.08,240.28l2.74-.3c.59-.07.92-.3.75-.52l-.8-1a1.79,1.79,0,0,0-1.37-.28l-2.75.31c-.58.06-.92.29-.75.51l.81,1A1.78,1.78,0,0,0,49.08,240.28Z"/><path class="cls-17" d="M68.35,249.14a20.26,20.26,0,0,0-4.58-.79c-1.47-.11-3.18-.19-5.11-.25l-1.51,0L54.92,248l-1.06,0a10.55,10.55,0,0,1-2.16-.3,2.09,2.09,0,0,1-1.17-.68c-.28-.36-.28-.67,0-.91a3.22,3.22,0,0,1,1.34-.62c.29-.08.6-.14.92-.2l-2-2.62a21,21,0,0,0-4.26,1.05,5.79,5.79,0,0,0-2.94,2,2,2,0,0,0,.33,2.49,5.41,5.41,0,0,0,2.53,1.71,18.6,18.6,0,0,0,4.18.82q2.52.24,6.1.35h.58c1.18,0,2.21,0,3.09.07q.33,0,.63,0a14.82,14.82,0,0,1,1.82.2,2.16,2.16,0,0,1,1.33.72c.37.47.21.87-.48,1.21a5.82,5.82,0,0,1-.79.29L65,256.28a14.59,14.59,0,0,0,5.4-1.79q2.3-1.5.72-3.52A5.62,5.62,0,0,0,68.35,249.14Zm-19.36,4-.94,2.6a34.42,34.42,0,0,0,7.14,1.06,48.35,48.35,0,0,0,6.49-.11l-2-2.64a32.7,32.7,0,0,1-4.43,0A43.76,43.76,0,0,1,49,253.15Zm9.53-11a38.15,38.15,0,0,0-4.41,0l2.08,2.67c.69,0,1.39,0,2.12.06a34.73,34.73,0,0,1,5.12.76l1.3-2.61A31.26,31.26,0,0,0,58.52,242.2Z"/><path class="cls-17" d="M54.11,242.24l2.08,2.67c-.77,0-1.52.05-2.24.13q-.62.08-1.17.18l-2-2.62,1.51-.2C52.88,242.33,53.49,242.28,54.11,242.24Z"/><path class="cls-17" d="M53.46,241.39l.65.85c-.62,0-1.23.09-1.85.16l-1.51.2-.65-.83Z"/><path class="cls-17" d="M62.87,253.53,65,256.28c-.69.11-1.42.21-2.22.3l-1.1.12-2-2.64.83-.08A13.91,13.91,0,0,0,62.87,253.53Z"/><path class="cls-17" d="M65,256.28l.66.86-3.35.37-.63-.81,1.1-.12C63.58,256.49,64.31,256.39,65,256.28Z"/><path class="cls-18" d="M76.25,235.19l-1.7,2.3-1.93,2.59-.81,1.09-5.55,7.47-2.33,3.16-1.36,1.81L61,255.78l-.76,1L55.6,263l-1.71,2.3h-.32c-3.25-.12-6.43-.38-9.48-.77l1.68-2.26,4.48-6,1.86-2.51,2.09-2.82,1.18-1.59,1-1.27,2.26-3,1.94-2.63,1.87-2.51L63.79,238l1.33-1.79L66.79,234C70.08,234.22,73.26,234.64,76.25,235.19Z"/><path class="cls-18" d="M87,238l-1.84,2.68-1.7,2.48-1.5,2.18-4,5.77-7.52,11-.61.89-1.15,1.67-.08.11h-.08c-2.42.25-4.85.41-7.26.49h-.06L63,262.87l1.23-1.72,1.38-1.88,2.75-3.8,3-4.18,9-12.36,1.76-2.43C83.8,237,85.42,237.48,87,238Z"/><path class="cls-24" d="M17.81,254.47a6.92,6.92,0,0,0-1.5,4.58l-.57-9.15A7.4,7.4,0,0,0,17.42,254C17.55,254.15,17.67,254.31,17.81,254.47Z"/><path class="cls-24" d="M99.66,249l.57,9.15a7.41,7.41,0,0,0-1.69-4.09,5.71,5.71,0,0,0-.39-.47A6.91,6.91,0,0,0,99.66,249Z"/><path class="cls-25" d="M53.89,265.3,47.31,274h0c-.88-.09-1.76-.19-2.61-.3-2.31-.29-4.56-.67-6.69-1.12l6.11-8h0c3,.39,6.23.65,9.48.77Z"/><path class="cls-25" d="M68.59,264.79l-7.12,9.67c-2.45.07-4.89.06-7.29,0l7-9.13C63.6,265.22,66.17,265,68.59,264.79Z"/><path class="cls-24" d="M47,152.54c0,.52,0,1.05,0,1.56a30.66,30.66,0,0,1-3.25,12.72h0a22.52,22.52,0,0,1-1.44,2.43A19.36,19.36,0,0,1,39,173l0,0h0a15,15,0,0,1-3.66,2.42l-.64.28c-.23.09-.45.18-.68.25a12.16,12.16,0,0,1-3.89.65H29.9a1,1,0,0,1-.17,0h-.3a11.66,11.66,0,0,1-2.7-.47,12.9,12.9,0,0,1-2.08-.8c-.29-.14-.57-.3-.85-.46a15.65,15.65,0,0,1-3.42-2.68c-4.31-4.36-7.13-11.55-7.13-19.68,0-13.31,7.55-24.11,16.86-24.11h.09a12.57,12.57,0,0,1,3.8.64,13.37,13.37,0,0,1,3.52,1.81c.25.17.49.35.73.54s.49.4.73.61a19.13,19.13,0,0,1,2.54,2.75c.35.46.69.95,1,1.45s.54.88.8,1.34l0,.07c.17.3.33.6.48.91h0c.34.68.66,1.39.94,2.12s.6,1.61.84,2.46h0a30.23,30.23,0,0,1,1,4.85A34,34,0,0,1,47,152.54Z"/><path class="cls-15" d="M54.75,152.54c0,13-7.25,23.66-16.3,24.1h-1a11.61,11.61,0,0,1-3-.48L34,176c-.45-.15-.9-.33-1.35-.53s-.73-.36-1.09-.57a15.84,15.84,0,0,1-3.41-2.68C23.84,167.86,21,160.67,21,152.54c0-9.47,3.82-17.67,9.38-21.6a13.89,13.89,0,0,1,3.6-1.87,12,12,0,0,1,3.88-.64c.32,0,.65,0,1,0A13.28,13.28,0,0,1,46,131.42a18.65,18.65,0,0,1,3.27,3.36,24.2,24.2,0,0,1,1.85,2.86,25.54,25.54,0,0,1,1.42,3A32.33,32.33,0,0,1,54.75,152.54Z"/><ellipse class="cls-16" cx="37.88" cy="152.54" rx="14.38" ry="20.57"/><path class="cls-17" d="M37.3,137.74h1.15c.25,0,.45-.28.45-.63v-1.65c0-.34-.2-.63-.45-.63H37.3c-.24,0-.44.29-.44.63v1.65C36.86,137.46,37.06,137.74,37.3,137.74Z"/><path class="cls-17" d="M42,138.89l1,.71c.22.15.49,0,.6-.29l.49-1.48a.77.77,0,0,0-.2-.85l-1-.71c-.22-.16-.48,0-.59.29l-.5,1.48A.79.79,0,0,0,42,138.89Z"/><path class="cls-17" d="M45.82,142.82l.72,1.28a.36.36,0,0,0,.62.1l.9-1a.84.84,0,0,0,.07-.89L47.41,141a.36.36,0,0,0-.62-.1l-.9,1A.85.85,0,0,0,45.82,142.82Z"/><path class="cls-17" d="M48.1,148.74l.26,1.61c0,.34.29.55.53.47l1.12-.36a.67.67,0,0,0,.33-.76l-.25-1.6c-.06-.34-.3-.56-.53-.48l-1.12.36A.69.69,0,0,0,48.1,148.74Z"/><path class="cls-17" d="M48.36,155.5l-.26,1.6a.69.69,0,0,0,.34.76l1.12.37c.23.07.47-.14.53-.48l.25-1.6a.67.67,0,0,0-.33-.76L48.89,155C48.65,154.94,48.41,155.16,48.36,155.5Z"/><path class="cls-17" d="M46.54,161.74,45.82,163a.84.84,0,0,0,.07.89l.9,1a.36.36,0,0,0,.62-.1l.72-1.29a.84.84,0,0,0-.07-.89l-.9-1A.36.36,0,0,0,46.54,161.74Z"/><path class="cls-17" d="M43,166.24,42,167a.78.78,0,0,0-.21.84l.5,1.48c.11.32.37.45.59.3l1-.71a.77.77,0,0,0,.2-.85l-.49-1.48C43.49,166.22,43.22,166.09,43,166.24Z"/><path class="cls-17" d="M38.45,168.1H37.3c-.24,0-.44.29-.44.64v1.64c0,.35.2.63.44.63h1.15c.25,0,.45-.28.45-.63v-1.64C38.9,168.39,38.7,168.1,38.45,168.1Z"/><path class="cls-17" d="M33.79,167l-1-.72c-.22-.15-.49,0-.6.3l-.5,1.48a.79.79,0,0,0,.21.85l1,.71c.22.15.48,0,.59-.3l.5-1.48A.78.78,0,0,0,33.79,167Z"/><path class="cls-17" d="M29.94,163l-.72-1.29a.36.36,0,0,0-.62-.1l-.9,1a.84.84,0,0,0-.07.89l.72,1.29a.36.36,0,0,0,.62.1l.9-1A.84.84,0,0,0,29.94,163Z"/><path class="cls-17" d="M27.66,157.1l-.26-1.6c0-.34-.29-.56-.53-.48l-1.12.37a.67.67,0,0,0-.33.76l.25,1.6c.06.34.29.55.53.48l1.12-.37A.69.69,0,0,0,27.66,157.1Z"/><path class="cls-17" d="M27.4,150.35l.26-1.61a.69.69,0,0,0-.34-.76l-1.12-.36c-.24-.08-.47.14-.53.48l-.25,1.6a.67.67,0,0,0,.33.76l1.12.36C27.11,150.9,27.35,150.69,27.4,150.35Z"/><path class="cls-17" d="M29.22,144.1l.72-1.28a.85.85,0,0,0-.07-.9l-.9-1a.36.36,0,0,0-.62.1l-.72,1.29a.84.84,0,0,0,.07.89l.9,1A.36.36,0,0,0,29.22,144.1Z"/><path class="cls-17" d="M32.76,139.6l1-.71A.79.79,0,0,0,34,138l-.5-1.48c-.11-.31-.37-.45-.59-.29l-1,.71a.79.79,0,0,0-.21.85l.5,1.48C32.27,139.62,32.54,139.75,32.76,139.6Z"/><path class="cls-17" d="M37.3,137.74h1.15c.25,0,.45-.28.45-.63v-1.65c0-.34-.2-.63-.45-.63H37.3c-.24,0-.44.29-.44.63v1.65C36.86,137.46,37.06,137.74,37.3,137.74Z"/><path class="cls-17" d="M42.08,153.81a5,5,0,0,0-1.52-1.92,18.06,18.06,0,0,0-1.9-1.2l-.57-.29-.83-.49-.39-.25a2.14,2.14,0,0,1-.75-.78,2.53,2.53,0,0,1-.25-1.19,2.7,2.7,0,0,1,.27-1.33,1.69,1.69,0,0,1,.7-.68,2.3,2.3,0,0,1,.42-.14v-4.15a4,4,0,0,0-2,.83,5.65,5.65,0,0,0-1.72,2.4A9.94,9.94,0,0,0,33,148.3a7.77,7.77,0,0,0,.47,2.91,4.88,4.88,0,0,0,1.36,1.88A13.92,13.92,0,0,0,37,154.6l.22.1,1.17.62.23.14a2.47,2.47,0,0,1,.64.6,2.18,2.18,0,0,1,.3,1.25,2.31,2.31,0,0,1-.55,1.69,1.45,1.45,0,0,1-.39.3v4.35a4.18,4.18,0,0,0,2.62-1.72,8.37,8.37,0,0,0,1.33-5A7.57,7.57,0,0,0,42.08,153.81Zm-8.65,2.67-1.14,3.63a7.59,7.59,0,0,0,2.43,2.71,5.75,5.75,0,0,0,2.54.89v-4.17a3.71,3.71,0,0,1-1.71-.73A9.11,9.11,0,0,1,33.43,156.48Zm6.94-14.4a4.5,4.5,0,0,0-1.71-.66v4.23a3.29,3.29,0,0,1,.8.43A8,8,0,0,1,41.21,148l1.28-3.58A6.6,6.6,0,0,0,40.37,142.08Z"/><path class="cls-17" d="M38.66,141.42v4.23a2.39,2.39,0,0,0-.9-.17,2.07,2.07,0,0,0-.5.06v-4.15a4.4,4.4,0,0,1,.64,0A3.84,3.84,0,0,1,38.66,141.42Z"/><path class="cls-17" d="M38.66,140.07v1.35a3.84,3.84,0,0,0-.76-.07,4.4,4.4,0,0,0-.64,0v-1.32Z"/><path class="cls-17" d="M38.66,159.3v4.35a5.67,5.67,0,0,1-.94.08,3.46,3.46,0,0,1-.46,0v-4.17a1.94,1.94,0,0,0,.34,0A2.11,2.11,0,0,0,38.66,159.3Z"/><path class="cls-17" d="M38.66,163.65V165h-1.4v-1.3a3.46,3.46,0,0,0,.46,0A5.67,5.67,0,0,0,38.66,163.65Z"/><path class="cls-18" d="M49.29,134.78l-17.56,40.1-.16,0a15.65,15.65,0,0,1-3.42-2.68L46,131.42A18.65,18.65,0,0,1,49.29,134.78Z"/><path class="cls-18" d="M52.56,140.67l-1.5,3.6-1.4,3.33-1.24,3-1.48,3.55L39,173v0l-1,2.42-.49,1.17a11.61,11.61,0,0,1-3-.48l.18-.41.12-.28,1.11-2.56,1-2.3L38,168.1l2.2-5.09,2.41-5.57L46.67,148l3.07-7.09,1.4-3.25A25.54,25.54,0,0,1,52.56,140.67Z"/><path class="cls-24" d="M34,176l.5.16-.56.49H30.11A12.16,12.16,0,0,0,34,176Z"/><path class="cls-24" d="M37.88,176.65h0Z"/><path class="cls-29" d="M37.5,176.64H33.94l.56-.49A11.61,11.61,0,0,0,37.5,176.64Z"/><path class="cls-29" d="M31.74,174.86l-1.84,1.78a1,1,0,0,1-.17,0h-.3a11.66,11.66,0,0,1-2.7-.47,12.9,12.9,0,0,1-2.08-.8l3.5-3.14Z"/><path class="cls-24" d="M37.88,128.43a12,12,0,0,0-3.88.64,12.57,12.57,0,0,0-3.8-.64Z"/><path class="cls-15" d="M41.91,86A10.86,10.86,0,0,1,31.05,96.89h-.24a11.07,11.07,0,0,1-1.93-.21A11.51,11.51,0,0,1,27,96.1a10.44,10.44,0,0,1-2.2-1.21,10.85,10.85,0,0,1,11.5-18.37A10.94,10.94,0,0,1,38.4,78a11.31,11.31,0,0,1,2.11,2.65A10.85,10.85,0,0,1,41.91,86Z"/><circle class="cls-16" cx="31.05" cy="86.03" r="9.26"/><rect class="cls-17" x="30.4" y="78.05" width="1.31" height="1.31" rx="0.29"/><rect class="cls-17" x="33.65" y="78.79" width="1.31" height="1.31" rx="0.29" transform="translate(-52.16 75.88) rotate(-64.29)"/><rect class="cls-17" x="36.25" y="80.87" width="1.31" height="1.31" rx="0.29" transform="translate(-42.78 40.8) rotate(-38.57)"/><rect class="cls-17" x="37.7" y="83.88" width="1.31" height="1.31" rx="0.29" transform="translate(-17.85 10.65) rotate(-12.86)"/><rect class="cls-17" x="37.7" y="87.21" width="1.31" height="1.31" rx="0.29" transform="translate(-55.84 105.71) rotate(-77.14)"/><rect class="cls-17" x="36.25" y="90.22" width="1.31" height="1.31" rx="0.29" transform="translate(-57.15 63.07) rotate(-51.43)"/><rect class="cls-17" x="33.65" y="92.3" width="1.31" height="1.31" rx="0.29" transform="translate(-36.93 24.09) rotate(-25.71)"/><rect class="cls-17" x="30.4" y="93.04" width="1.31" height="1.31" rx="0.29"/><rect class="cls-17" x="27.15" y="92.3" width="1.31" height="1.31" rx="0.29" transform="translate(-68.01 77.67) rotate(-64.29)"/><rect class="cls-17" x="24.54" y="90.22" width="1.31" height="1.31" rx="0.29" transform="translate(-51.16 35.53) rotate(-38.57)"/><rect class="cls-17" x="23.09" y="87.21" width="1.31" height="1.31" rx="0.29" transform="translate(-18.96 7.49) rotate(-12.86)"/><rect class="cls-17" x="23.09" y="83.88" width="1.31" height="1.31" rx="0.29" transform="translate(-63.95 88.88) rotate(-77.14)"/><rect class="cls-17" x="24.54" y="80.87" width="1.31" height="1.31" rx="0.29" transform="translate(-54.26 50.39) rotate(-51.43)"/><rect class="cls-17" x="27.15" y="78.79" width="1.31" height="1.31" rx="0.29" transform="translate(-31.72 19.93) rotate(-25.71)"/><rect class="cls-17" x="30.4" y="78.05" width="1.31" height="1.31" rx="0.29"/><path class="cls-17" d="M33.76,86.6a2.67,2.67,0,0,0-1-.86,13.29,13.29,0,0,0-1.22-.54l-.37-.14-.54-.21-.25-.12a1.15,1.15,0,0,1-.48-.35.81.81,0,0,1-.16-.54.86.86,0,0,1,.62-.9,1.31,1.31,0,0,1,.27-.06V81a3.2,3.2,0,0,0-1.26.37,2.88,2.88,0,0,0-1.11,1.08,3.37,3.37,0,0,0-.39,1.66,2.57,2.57,0,0,0,.3,1.31,2.45,2.45,0,0,0,.87.85,10.54,10.54,0,0,0,1.45.68l.14,0,.75.28.16.06a1.62,1.62,0,0,1,.41.27.77.77,0,0,1,.19.57.88.88,0,0,1-.35.76,1.19,1.19,0,0,1-.25.13v2a2.92,2.92,0,0,0,1.68-.77A3,3,0,0,0,34.1,88,2.56,2.56,0,0,0,33.76,86.6Zm-5.57,1.2-.74,1.64A4.34,4.34,0,0,0,29,90.66a4.87,4.87,0,0,0,1.63.4V89.18a3,3,0,0,1-1.1-.33A4.94,4.94,0,0,1,28.19,87.8Zm4.46-6.48a3.47,3.47,0,0,0-1.09-.3v1.91a2.11,2.11,0,0,1,.51.19A4.34,4.34,0,0,1,33.2,84L34,82.38A3.59,3.59,0,0,0,32.65,81.32Z"/><path class="cls-17" d="M31.56,81v1.91a2,2,0,0,0-.58-.08,1.84,1.84,0,0,0-.33,0V81a2.82,2.82,0,0,1,.42,0Z"/><path class="cls-17" d="M31.56,80.41V81l-.49,0a2.82,2.82,0,0,0-.42,0v-.6Z"/><path class="cls-17" d="M31.56,89.07v2a6,6,0,0,1-.61,0h-.3V89.18h.22A1.85,1.85,0,0,0,31.56,89.07Z"/><path class="cls-17" d="M31.56,91v.61h-.91v-.58H31A6,6,0,0,0,31.56,91Z"/><path class="cls-18" d="M38.4,78,27.09,96.09H27a10.44,10.44,0,0,1-2.2-1.21l11.5-18.37A10.94,10.94,0,0,1,38.4,78Z"/><path class="cls-18" d="M40.51,80.68l-9.7,16.2a11.07,11.07,0,0,1-1.93-.21L39.59,79.32A11.19,11.19,0,0,1,40.51,80.68Z"/><path class="cls-20" d="M42,86A10.86,10.86,0,0,1,31.1,96.88h-.24a11.07,11.07,0,0,1-1.93-.21A9.85,9.85,0,0,1,27,96.09a10.44,10.44,0,0,1-2.2-1.21,10.85,10.85,0,0,1,11.5-18.37A10.94,10.94,0,0,1,38.45,78a11.16,11.16,0,0,1,1.19,1.29,10.57,10.57,0,0,1,.92,1.37A10.82,10.82,0,0,1,42,86Z"/><path class="cls-24" d="M226.39,161.17c.13.36.27.72.41,1.07a24.5,24.5,0,0,0,5.2,8h0a17.08,17.08,0,0,0,1.5,1.35,14,14,0,0,0,2.94,1.86l0,0h0a9.88,9.88,0,0,0,2.87.85l.47,0,.49,0a7.27,7.27,0,0,0,2.57-.43L243,174l.11,0,.18-.08a7.16,7.16,0,0,0,1.55-.93,7.49,7.49,0,0,0,1.09-1c.15-.16.29-.34.42-.51a11,11,0,0,0,1.45-2.62c1.58-4,1.52-9.57-.51-15.18-3.33-9.18-10.72-14.94-16.49-12.84h-.06a7.38,7.38,0,0,0-2.19,1.3,8.62,8.62,0,0,0-1.73,2,5.74,5.74,0,0,0-.32.53,6.54,6.54,0,0,0-.3.59,13.36,13.36,0,0,0-.89,2.47c-.1.4-.19.81-.26,1.22s-.11.73-.16,1.11a.13.13,0,0,1,0,.06c0,.24,0,.48-.07.73h0c0,.54-.06,1.1,0,1.67s0,1.24.09,1.88h0a25.81,25.81,0,0,0,.57,3.58A29.16,29.16,0,0,0,226.39,161.17Z"/><path class="cls-15" d="M221.57,162.92c3.27,9,10.42,14.69,16.14,13a2.06,2.06,0,0,0,.35-.12l.24-.09a7.16,7.16,0,0,0,1.74-1l.27-.22a8.82,8.82,0,0,0,.7-.67c.18-.2.36-.42.53-.64a10.66,10.66,0,0,0,1.45-2.62c1.58-4,1.53-9.57-.51-15.18-2.37-6.54-6.79-11.33-11.22-12.79a8.59,8.59,0,0,0-2.7-.48,7.27,7.27,0,0,0-2.57.43,5,5,0,0,0-.58.24,8.35,8.35,0,0,0-3.72,3.65,13.26,13.26,0,0,0-1.19,3.06,17.49,17.49,0,0,0-.42,2.39,20.87,20.87,0,0,0-.13,2.41A26.24,26.24,0,0,0,221.57,162.92Z"/><ellipse class="cls-16" cx="232.03" cy="159.12" rx="9.49" ry="15.1" transform="translate(-40.36 88.7) rotate(-19.95)"/><path class="cls-17" d="M228.68,148.78,228,149c-.15.06-.35-.1-.44-.34l-.41-1.13c-.09-.24,0-.48.12-.54l.71-.26c.15-.05.35.1.43.34l.42,1.14C228.88,148.49,228.83,148.73,228.68,148.78Z"/><path class="cls-17" d="M226.07,150.62l-.46.73c-.1.15-.3.12-.44-.07l-.68-.91a.62.62,0,0,1-.08-.63l.46-.73c.1-.15.3-.12.44.07l.68.91A.6.6,0,0,1,226.07,150.62Z"/><path class="cls-17" d="M224.67,154.2l-.12,1.05c0,.22-.19.31-.37.21l-.81-.51a.68.68,0,0,1-.27-.6l.13-1c0-.23.18-.32.36-.21l.81.5A.7.7,0,0,1,224.67,154.2Z"/><path class="cls-17" d="M224.74,158.8,225,160c.05.24,0,.44-.21.44H224c-.16,0-.34-.2-.39-.44l-.25-1.17c-.05-.24,0-.45.21-.45h.79C224.51,158.35,224.69,158.56,224.74,158.8Z"/><path class="cls-17" d="M226.27,163.52l.56,1a.52.52,0,0,1,0,.6l-.6.5c-.13.11-.33,0-.45-.21l-.56-1a.51.51,0,0,1,0-.6l.6-.51C226,163.21,226.15,163.3,226.27,163.52Z"/><path class="cls-17" d="M229,167.42l.77.73a.68.68,0,0,1,.18.63l-.3.91c-.07.19-.25.22-.41.07l-.77-.73a.68.68,0,0,1-.18-.63l.3-.91C228.62,167.3,228.8,167.27,229,167.42Z"/><path class="cls-17" d="M232.28,169.73l.82.26a.59.59,0,0,1,.34.54l.06,1.13c0,.24-.11.39-.29.34l-.82-.26a.63.63,0,0,1-.34-.54l-.06-1.13C232,169.83,232.11,169.67,232.28,169.73Z"/><path class="cls-17" d="M235.57,170l.71-.26c.15,0,.35.1.43.34l.42,1.13c.08.24,0,.48-.12.54l-.71.26c-.15.05-.35-.1-.44-.34l-.41-1.13C235.36,170.29,235.42,170,235.57,170Z"/><path class="cls-17" d="M238.17,168.15l.47-.73c.09-.15.29-.12.44.07l.68.91a.62.62,0,0,1,.08.63l-.46.73c-.1.15-.3.12-.44-.07l-.68-.91A.6.6,0,0,1,238.17,168.15Z"/><path class="cls-17" d="M239.58,164.57l.12-1c0-.22.19-.31.36-.21l.82.51a.67.67,0,0,1,.26.6l-.12,1.05c0,.22-.19.31-.36.21l-.81-.51A.65.65,0,0,1,239.58,164.57Z"/><path class="cls-17" d="M239.51,160l-.24-1.16c-.05-.25,0-.45.21-.45h.78c.17,0,.35.2.4.45l.24,1.16c0,.25,0,.45-.21.45h-.78C239.74,160.42,239.56,160.22,239.51,160Z"/><path class="cls-17" d="M238,155.25l-.56-1.05a.53.53,0,0,1,0-.6l.61-.5c.12-.11.33,0,.45.21l.56,1.05a.53.53,0,0,1,0,.6l-.61.5C238.3,155.57,238.1,155.47,238,155.25Z"/><path class="cls-17" d="M235.28,151.35l-.76-.72a.68.68,0,0,1-.18-.64l.3-.9c.06-.2.25-.23.41-.08l.77.73a.68.68,0,0,1,.18.63l-.3.91C235.63,151.47,235.45,151.5,235.28,151.35Z"/><path class="cls-17" d="M232,149l-.82-.26a.58.58,0,0,1-.34-.53l-.07-1.14c0-.24.12-.39.3-.34l.82.26a.65.65,0,0,1,.34.54l.06,1.14C232.27,149,232.14,149.1,232,149Z"/><path class="cls-17" d="M228.68,148.78,228,149c-.15.06-.35-.1-.44-.34l-.41-1.13c-.09-.24,0-.48.12-.54l.71-.26c.15-.05.35.1.43.34l.42,1.14C228.88,148.49,228.83,148.73,228.68,148.78Z"/><path class="cls-17" d="M230.19,163.21a6.65,6.65,0,0,0,2.08,3.15,2.74,2.74,0,0,0,2,.6l-1.08-3a1,1,0,0,1-.32-.12,1.77,1.77,0,0,1-.76-1,1.74,1.74,0,0,1-.13-.93,1.61,1.61,0,0,1,.24-.56l.11-.15.58-.69.1-.12a8.5,8.5,0,0,0,1-1.54,3.56,3.56,0,0,0,.37-1.61,6.17,6.17,0,0,0-.43-2.11,8.21,8.21,0,0,0-1.31-2.4,4.16,4.16,0,0,0-1.67-1.27,2.56,2.56,0,0,0-1.42-.13l1,2.86a.94.94,0,0,1,.29,0,1.08,1.08,0,0,1,.61.31,2.19,2.19,0,0,1,.5.86,1.94,1.94,0,0,1,.14.87,1.5,1.5,0,0,1-.26.71l-.18.26-.4.52-.28.33a11.09,11.09,0,0,0-.87,1.26,3.48,3.48,0,0,0-.47,1.66A6.45,6.45,0,0,0,230.19,163.21Zm4.85-.29a2.33,2.33,0,0,1-.87.89l1,2.88a3.46,3.46,0,0,0,1.35-1.19,5.34,5.34,0,0,0,.83-2.42l-1.62-2.24A6.4,6.4,0,0,1,235,162.92Zm-7.9-8.35,1.69,2.18a5.39,5.39,0,0,1,.6-1.73,2.4,2.4,0,0,1,.39-.48l-1.06-2.92a2.84,2.84,0,0,0-.89.84A4.59,4.59,0,0,0,227.14,154.57Z"/><path class="cls-17" d="M228.76,151.62l1.06,2.92a1.62,1.62,0,0,1,.51-.32,1.3,1.3,0,0,1,.33-.07l-1-2.86-.41.12A1.85,1.85,0,0,0,228.76,151.62Z"/><path class="cls-17" d="M228.42,150.7l.34.92a1.85,1.85,0,0,1,.45-.21l.41-.12-.33-.91Z"/><path class="cls-17" d="M233.24,164l1.08,3a3.39,3.39,0,0,0,.61-.15l.28-.12-1-2.88-.21.09A1.29,1.29,0,0,1,233.24,164Z"/><path class="cls-17" d="M234.32,167l.35.94.87-.32-.33-.89-.28.12A3.39,3.39,0,0,1,234.32,167Z"/><path class="cls-18" d="M220.51,149.44l20.93,23.71.1,0a10.66,10.66,0,0,0,1.45-2.62l-21.3-24.13A12.81,12.81,0,0,0,220.51,149.44Z"/><path class="cls-18" d="M220,154.24l1.84,2.14,1.7,2,1.5,1.75,1.81,2.12,9.64,11.26,0,0L237.7,175l.6.69a7.16,7.16,0,0,0,1.74-1l-.22-.25-.14-.16-1.33-1.52-1.19-1.36-1.3-1.49-2.64-3-2.88-3.3-4.91-5.6-3.68-4.21-1.67-1.92A20.87,20.87,0,0,0,220,154.24Z"/><path class="cls-24" d="M240.31,174.44l-.27.22.47.21,2.37-.86A7.27,7.27,0,0,1,240.31,174.44Z"/><path class="cls-24" d="M238.06,175.75l.24-.08h0Z"/><path class="cls-29" d="M238.3,175.66h0l2.21-.8-.47-.21A7.16,7.16,0,0,1,238.3,175.66Z"/><path class="cls-29" d="M241.43,173.14,243,174l.11,0,.18-.08a7.16,7.16,0,0,0,1.55-.93,7.49,7.49,0,0,0,1.09-1L243,170.51Z"/><path class="cls-24" d="M226,142.49a7.27,7.27,0,0,1,2.57-.43,7.38,7.38,0,0,1,2.19-1.3Z"/><path class="cls-24" d="M208.94,129.35a2.22,2.22,0,0,1-.67,1c-1.7,1.52-6,1.68-11.42.17l-.31-.08c-.86-.25-1.7-.52-2.53-.82l-.1,0c-.82-.3-1.63-.63-2.41-1h0c-.76-.34-1.5-.7-2.21-1.07h0l-.83-.45c-.72-.41-1.42-.83-2.07-1.26h0c-2.83-1.89-4.84-4-5.36-5.78a2.86,2.86,0,0,1-.13-.93,2.68,2.68,0,0,1,.11-.65,2.48,2.48,0,0,1,1.11-1.32,4.55,4.55,0,0,1,1.09-.49c.26-.08.53-.15.82-.21a13.69,13.69,0,0,1,3.49-.16h0l1,.09h0a29.9,29.9,0,0,1,4.6.92l.37.11q.6.17,1.2.36l1.19.41c.64.23,1.28.48,1.9.74h0c.37.16.73.31,1.09.48h0c.41.19.82.38,1.21.59s.6.3.89.46c.69.36,1.34.74,2,1.13a1.25,1.25,0,0,1,.12.08c.54.34,1,.68,1.53,1l.23.17c.51.39,1,.77,1.41,1.16a13.21,13.21,0,0,1,1.61,1.7,6.8,6.8,0,0,1,.79,1.22,4.77,4.77,0,0,1,.27.63,1.72,1.72,0,0,1,.07.21A2.66,2.66,0,0,1,208.94,129.35Z"/><path class="cls-15" d="M210,126.21v0a2.43,2.43,0,0,1-1.11,1.32,4.37,4.37,0,0,1-.57.3c-2,.87-5.63.82-10-.34l-.39-.11a2.8,2.8,0,0,1-.31-.09h0c-.84-.24-1.67-.51-2.48-.81h0c-.82-.31-1.63-.63-2.42-1l0,0h0l0,0c-1.07-.47-2.09-1-3.05-1.51l0,0c-3.13-1.75-5.61-3.79-6.79-5.68a6.49,6.49,0,0,1-.55-1.13l-.06-.21a2.7,2.7,0,0,1,0-1.59.36.36,0,0,1,0-.09c.88-2.3,5.68-2.85,12.06-1.08a38.75,38.75,0,0,1,7,2.69,30.79,30.79,0,0,1,3,1.68c.62.39,1.21.8,1.76,1.21s1,.77,1.41,1.16a8.76,8.76,0,0,1,2.74,3.76A2.73,2.73,0,0,1,210,126.21Z"/><ellipse class="cls-16" cx="195.99" cy="120.79" rx="4.84" ry="12.8" transform="translate(11.06 257.91) rotate(-68.2)"/><path class="cls-17" d="M194.36,116.59l.95.26c.2.06.35,0,.32-.07l-.13-.45a.64.64,0,0,0-.42-.28l-1-.26c-.2-.06-.34,0-.32.07l.13.45C194,116.41,194.16,116.53,194.36,116.59Z"/><path class="cls-17" d="M198.31,118l.91.43c.2.09.41.12.47,0l.3-.29c.06-.06-.05-.19-.24-.28l-.91-.43c-.2-.09-.41-.12-.47-.06l-.3.3C198,117.76,198.12,117.88,198.31,118Z"/><path class="cls-17" d="M201.81,119.94l.69.52a1,1,0,0,0,.53.17l.66-.08c.14,0,.14-.12,0-.23l-.69-.52a1,1,0,0,0-.53-.17l-.66.08C201.66,119.73,201.66,119.83,201.81,119.94Z"/><path class="cls-17" d="M204.16,122.09l.34.5a.79.79,0,0,0,.48.25l.9.16c.19,0,.28,0,.21-.13l-.33-.5a.82.82,0,0,0-.48-.25l-.9-.16C204.19,121.93,204.09,122,204.16,122.09Z"/><path class="cls-17" d="M204.9,124l-.08.38c0,.08.13.21.33.28l1,.36c.2.08.38.07.4,0l.09-.38c0-.08-.14-.21-.34-.29l-1-.35C205.1,123.92,204.92,123.92,204.9,124Z"/><path class="cls-17" d="M203.88,125.3l-.49.19c-.1,0,0,.16.13.26l.82.49a.72.72,0,0,0,.51.12l.49-.19c.11,0,0-.16-.12-.26l-.83-.49A.76.76,0,0,0,203.88,125.3Z"/><path class="cls-17" d="M201.31,125.73l-.8,0c-.17,0-.22.07-.11.18l.53.52a.91.91,0,0,0,.51.22l.81,0c.17,0,.21-.07.1-.18l-.53-.52A.91.91,0,0,0,201.31,125.73Z"/><path class="cls-17" d="M197.69,125.2l-1-.27c-.2-.05-.34,0-.31.08l.12.45a.66.66,0,0,0,.42.27l.95.27c.21,0,.35,0,.32-.08l-.13-.45C198.08,125.38,197.89,125.25,197.69,125.2Z"/><path class="cls-17" d="M193.73,123.81l-.91-.43c-.19-.09-.4-.12-.47-.06l-.29.3c-.07.06,0,.18.23.28l.92.43c.19.09.4.12.46,0l.3-.29C194,124,193.93,123.9,193.73,123.81Z"/><path class="cls-17" d="M190.24,121.85l-.7-.52a.85.85,0,0,0-.52-.17l-.67.08c-.14,0-.13.11,0,.22l.7.52a.85.85,0,0,0,.52.17l.67-.07C190.39,122.06,190.38,122,190.24,121.85Z"/><path class="cls-17" d="M187.88,119.7l-.33-.5a.89.89,0,0,0-.48-.26l-.9-.15c-.19,0-.29,0-.22.13l.34.5a.84.84,0,0,0,.48.25l.9.16C187.86,119.86,188,119.8,187.88,119.7Z"/><path class="cls-17" d="M187.14,117.78l.09-.38c0-.08-.13-.21-.34-.29l-.95-.35c-.21-.08-.39-.08-.41,0l-.08.38c0,.08.13.21.33.28l1,.36C186.94,117.87,187.12,117.86,187.14,117.78Z"/><path class="cls-17" d="M188.16,116.48l.49-.19c.11,0,0-.15-.12-.26l-.83-.49a.74.74,0,0,0-.51-.11l-.49.19c-.1,0,0,.16.13.26l.82.49A.76.76,0,0,0,188.16,116.48Z"/><path class="cls-17" d="M190.74,116.06l.8,0c.17,0,.22-.08.1-.19l-.53-.52a.84.84,0,0,0-.51-.21l-.8-.05c-.17,0-.22.08-.11.19l.53.52A1,1,0,0,0,190.74,116.06Z"/><path class="cls-17" d="M194.36,116.59l.95.26c.2.06.35,0,.32-.07l-.13-.45a.64.64,0,0,0-.42-.28l-1-.26c-.2-.06-.34,0-.32.07l.13.45C194,116.41,194.16,116.53,194.36,116.59Z"/><path class="cls-17" d="M199.57,122.1a7.72,7.72,0,0,0-1.41-.88c-.47-.23-1-.48-1.67-.76l-.49-.21-.73-.33-.34-.16a3.36,3.36,0,0,1-.68-.38.79.79,0,0,1-.3-.38c0-.16,0-.26.12-.31a1.26,1.26,0,0,1,.53,0l.33,0-.33-1.14a7.56,7.56,0,0,0-1.55-.22,2.08,2.08,0,0,0-1.24.27.72.72,0,0,0-.22.87,2,2,0,0,0,.61.9,6.3,6.3,0,0,0,1.28.83q.79.42,2,.93l.19.08,1,.44.21.09a4.74,4.74,0,0,1,.57.31.76.76,0,0,1,.35.42c.06.2,0,.31-.32.33a1.5,1.5,0,0,1-.3,0l.34,1.19a5.32,5.32,0,0,0,2,.13c.64-.13.88-.49.71-1.07A2,2,0,0,0,199.57,122.1Zm-6.95-1.25-.67.73a12.24,12.24,0,0,0,2.23,1.31,17.91,17.91,0,0,0,2.17.83l-.33-1.15a13.66,13.66,0,0,1-1.47-.59A16.81,16.81,0,0,1,192.62,120.85Zm4.62-2.37a13.13,13.13,0,0,0-1.47-.57l.33,1.16c.23.09.46.19.7.31a14.09,14.09,0,0,1,1.6.93l.77-.69A11.38,11.38,0,0,0,197.24,118.48Z"/><path class="cls-17" d="M195.77,117.91l.33,1.16c-.26-.1-.51-.18-.76-.25l-.41-.1-.33-1.14.53.14Z"/><path class="cls-17" d="M195.66,117.54l.11.37-.64-.19-.53-.14-.1-.36Z"/><path class="cls-17" d="M197.17,122.83l.34,1.19-.78-.19-.38-.11-.33-1.15.29.08A5.32,5.32,0,0,0,197.17,122.83Z"/><path class="cls-17" d="M197.51,124l.1.37-1.16-.32-.1-.35.38.11Z"/><path class="cls-18" d="M204.05,118.53l-.87.53-1,.6-.42.26L199,121.65l-1.2.74-.69.42-.82.51-.39.23L193.49,125l-.87.53,0,0h0l0,0c-1.07-.47-2.09-1-3.05-1.51l.86-.53,2.29-1.4.95-.59,1.07-.66.61-.36.48-.3,1.16-.71,1-.61,1-.58.71-.44.68-.41.85-.53A30.79,30.79,0,0,1,204.05,118.53Z"/><path class="cls-18" d="M207.22,120.9l-1,.64-.9.6-.79.52-2.08,1.39-4,2.63-.32.22-.61.4,0,0h0c-.84-.24-1.67-.51-2.48-.81h0l.91-.58.64-.4.71-.44,1.42-.9,1.56-1,4.62-2.9.91-.57C206.32,120.12,206.79,120.51,207.22,120.9Z"/><path class="cls-24" d="M182.09,117.13a2.48,2.48,0,0,0-1.11,1.32l1-3.12a2.7,2.7,0,0,0,0,1.59Z"/><path class="cls-24" d="M210,126.24l-1,3.11a2.66,2.66,0,0,0,0-1.58,1.72,1.72,0,0,0-.07-.21A2.43,2.43,0,0,0,210,126.24Z"/><path class="cls-25" d="M192.62,125.53l-3.34,2h0l-.83-.45c-.72-.41-1.42-.83-2.07-1.26l3.1-1.85s0,0,0,0c1,.53,2,1,3.05,1.51Z"/><path class="cls-25" d="M197.57,127.32l-3.66,2.26c-.82-.3-1.63-.63-2.41-1l3.54-2.09C195.85,126.8,196.73,127.08,197.57,127.32Z"/><g class="cls-30"><path d="M208.94,129.33a2.24,2.24,0,0,1-.67,1c-1.7,1.52-6,1.68-11.42.18l-.31-.09c-.86-.25-1.7-.52-2.53-.82l-.1,0c-.82-.3-1.63-.63-2.41-1h0c-.76-.34-1.5-.69-2.21-1.07h0l-.83-.45c-.72-.41-1.42-.83-2.07-1.26h0c-2.83-1.9-4.84-4-5.36-5.78a3,3,0,0,1-.13-.94,2.68,2.68,0,0,1,.11-.65,2.48,2.48,0,0,1,1.11-1.32,5,5,0,0,1,1.09-.49c.26-.08.53-.15.82-.21a13.69,13.69,0,0,1,3.49-.16h0l1,.09h0a29.9,29.9,0,0,1,4.6.92l.37.11c.4.11.8.23,1.2.37s.8.26,1.19.4c.64.23,1.28.48,1.9.74h0c.37.16.73.31,1.09.48h0c.41.18.82.38,1.21.58s.6.3.89.46c.69.36,1.34.75,2,1.13a1.25,1.25,0,0,1,.12.08c.54.34,1,.69,1.53,1l.23.17c.51.39,1,.77,1.41,1.16a13.21,13.21,0,0,1,1.61,1.7,6.8,6.8,0,0,1,.79,1.22,4.37,4.37,0,0,1,.27.64,1.18,1.18,0,0,1,.07.2A2.69,2.69,0,0,1,208.94,129.33Z"/><path d="M210,126.19v0a2.45,2.45,0,0,1-1.11,1.33,6.05,6.05,0,0,1-.57.29c-2,.88-5.63.82-10-.34l-.39-.11-.31-.08h0c-.84-.24-1.67-.51-2.48-.81h0c-.82-.31-1.63-.63-2.42-1h-.05l0,0c-1.07-.47-2.09-1-3.05-1.52l0,0c-3.13-1.76-5.61-3.8-6.79-5.69a6.49,6.49,0,0,1-.55-1.13l-.06-.21a2.66,2.66,0,0,1,0-1.58.3.3,0,0,1,0-.1c.88-2.3,5.68-2.85,12.06-1.08a38.75,38.75,0,0,1,7,2.69,30.79,30.79,0,0,1,3,1.68c.62.39,1.21.8,1.76,1.21s1,.77,1.41,1.16a8.76,8.76,0,0,1,2.74,3.76A2.77,2.77,0,0,1,210,126.19Z"/><ellipse cx="195.99" cy="120.76" rx="4.84" ry="12.8" transform="translate(11.08 257.89) rotate(-68.2)"/><path d="M194.36,116.56l.95.27c.2,0,.35,0,.32-.08l-.13-.45a.64.64,0,0,0-.42-.27l-1-.27c-.2-.05-.34,0-.32.07l.13.46A.66.66,0,0,0,194.36,116.56Z"/><path d="M198.31,118l.91.43c.2.09.41.12.47.05l.3-.29c.06-.06-.05-.19-.24-.28l-.91-.43c-.2-.09-.41-.12-.47-.06l-.3.3C198,117.73,198.12,117.85,198.31,118Z"/><path d="M201.81,119.91l.69.52a1,1,0,0,0,.53.17l.66-.08c.14,0,.14-.12,0-.23l-.69-.51a.87.87,0,0,0-.53-.17l-.66.07C201.66,119.7,201.66,119.8,201.81,119.91Z"/><path d="M204.16,122.06l.34.5a.79.79,0,0,0,.48.25l.9.16c.19,0,.28,0,.21-.13l-.33-.5a.82.82,0,0,0-.48-.25l-.9-.16C204.19,121.9,204.09,122,204.16,122.06Z"/><path d="M204.9,124l-.08.38c0,.08.13.21.33.28l1,.36c.2.08.38.07.4,0l.09-.38c0-.08-.14-.21-.34-.28l-1-.36C205.1,123.89,204.92,123.9,204.9,124Z"/><path d="M203.88,125.28l-.49.18c-.1,0,0,.16.13.27l.82.48a.72.72,0,0,0,.51.12l.49-.19c.11,0,0-.16-.12-.26l-.83-.49A.74.74,0,0,0,203.88,125.28Z"/><path d="M201.31,125.7l-.8,0c-.17,0-.22.07-.11.18l.53.53a.9.9,0,0,0,.51.21l.81,0c.17,0,.21-.07.1-.18l-.53-.52A.91.91,0,0,0,201.31,125.7Z"/><path d="M197.69,125.17l-1-.27c-.2-.05-.34,0-.31.08l.12.45a.66.66,0,0,0,.42.27l.95.27c.21,0,.35,0,.32-.07l-.13-.46C198.08,125.35,197.89,125.22,197.69,125.17Z"/><path d="M193.73,123.78l-.91-.43c-.19-.09-.4-.12-.47-.06l-.29.3c-.07.06,0,.19.23.28l.92.43c.19.09.4.12.46.06l.3-.3C194,124,193.93,123.87,193.73,123.78Z"/><path d="M190.24,121.82l-.7-.52a.92.92,0,0,0-.52-.17l-.67.08c-.14,0-.13.12,0,.23l.7.51a.85.85,0,0,0,.52.17l.67-.07C190.39,122,190.38,121.93,190.24,121.82Z"/><path d="M187.88,119.67l-.33-.5a.82.82,0,0,0-.48-.25l-.9-.16c-.19,0-.29,0-.22.13l.34.5a.79.79,0,0,0,.48.25l.9.16C187.86,119.83,188,119.77,187.88,119.67Z"/><path d="M187.14,117.75l.09-.38c0-.08-.13-.21-.34-.28l-.95-.36c-.21-.08-.39-.07-.41,0l-.08.38c0,.08.13.21.33.28l1,.36C186.94,117.84,187.12,117.83,187.14,117.75Z"/><path d="M188.16,116.45l.49-.19c.11,0,0-.15-.12-.26l-.83-.48a.71.71,0,0,0-.51-.12l-.49.19c-.1,0,0,.16.13.26l.82.49A.76.76,0,0,0,188.16,116.45Z"/><path d="M190.74,116l.8,0c.17,0,.22-.07.1-.18l-.53-.53a.9.9,0,0,0-.51-.21l-.8-.05c-.17,0-.22.08-.11.19l.53.52A1,1,0,0,0,190.74,116Z"/><path d="M194.36,116.56l.95.27c.2,0,.35,0,.32-.08l-.13-.45a.64.64,0,0,0-.42-.27l-1-.27c-.2-.05-.34,0-.32.07l.13.46A.66.66,0,0,0,194.36,116.56Z"/><path d="M199.57,122.07a7.22,7.22,0,0,0-1.41-.87c-.47-.24-1-.49-1.67-.77l-.49-.21-.73-.33-.34-.15a3.86,3.86,0,0,1-.68-.39.79.79,0,0,1-.3-.38c0-.16,0-.26.12-.31a1.26,1.26,0,0,1,.53,0l.33,0-.33-1.14a7.56,7.56,0,0,0-1.55-.22,2.08,2.08,0,0,0-1.24.27.73.73,0,0,0-.22.87,2,2,0,0,0,.61.9,6.3,6.3,0,0,0,1.28.83q.79.42,2,.93l.19.08,1,.44.21.09a4.74,4.74,0,0,1,.57.31.79.79,0,0,1,.35.42c.06.2,0,.31-.32.33a1.5,1.5,0,0,1-.3,0l.34,1.19a5.13,5.13,0,0,0,2,.13c.64-.13.88-.49.71-1.07A2,2,0,0,0,199.57,122.07Zm-6.95-1.25-.67.74a12.82,12.82,0,0,0,2.23,1.3,17.91,17.91,0,0,0,2.17.83l-.33-1.15a11.86,11.86,0,0,1-1.47-.59A15.46,15.46,0,0,1,192.62,120.82Zm4.62-2.36a15.47,15.47,0,0,0-1.47-.58l.33,1.17a5.89,5.89,0,0,1,.7.3,14.09,14.09,0,0,1,1.6.93l.77-.69A10.7,10.7,0,0,0,197.24,118.46Z"/><path d="M195.77,117.88l.33,1.17a6.22,6.22,0,0,0-.76-.26l-.41-.1-.33-1.14.53.14Z"/><path d="M195.66,117.51l.11.37-.64-.19-.53-.14-.1-.36Z"/><path d="M197.17,122.8l.34,1.19-.78-.19-.38-.11-.33-1.15.29.08A4.42,4.42,0,0,0,197.17,122.8Z"/><path d="M197.51,124l.1.37-1.16-.32-.1-.35.38.11Z"/><path class="cls-31" d="M204.05,118.5l-.87.53-1,.6-.42.26L199,121.62l-1.2.74-.69.42-.82.51-.39.23L193.49,125l-.87.53h-.05l0,0c-1.07-.47-2.09-1-3.05-1.52l.86-.53,2.29-1.4.95-.58,1.07-.66.61-.37.48-.3,1.16-.7,1-.62,1-.58.71-.43.68-.42.85-.53A30.79,30.79,0,0,1,204.05,118.5Z"/><path class="cls-31" d="M207.22,120.87l-1,.64-.9.6-.79.52L202.49,124l-4,2.63-.32.22-.61.4,0,0h0c-.84-.24-1.67-.51-2.48-.81h0l.91-.57.64-.41.71-.44,1.42-.89,1.56-1,4.62-2.9.91-.57C206.32,120.09,206.79,120.48,207.22,120.87Z"/><path d="M182.09,117.1a2.48,2.48,0,0,0-1.11,1.32l1-3.11a2.66,2.66,0,0,0,0,1.58Z"/><path d="M210,126.21l-1,3.12a2.69,2.69,0,0,0,0-1.59,1.18,1.18,0,0,0-.07-.2A2.45,2.45,0,0,0,210,126.21Z"/><path class="cls-32" d="M192.62,125.5l-3.34,2h0l-.83-.45c-.72-.41-1.42-.83-2.07-1.26l3.1-1.85s0,0,0,0c1,.53,2,1,3.05,1.52Z"/><path class="cls-32" d="M197.57,127.3l-3.66,2.25c-.82-.3-1.63-.63-2.41-1l3.54-2.09C195.85,126.77,196.73,127.06,197.57,127.3Z"/></g></g></g></svg>