<?xml version="1.0" encoding="UTF-8"?>
<svg id="_Слой_2" data-name="Слой 2" xmlns="http://www.w3.org/2000/svg" viewBox="0 0 237.91 79.12">
  <defs>
    <style>
      .cls-1 {
        fill: #1290ad;
      }

      .cls-2 {
        fill: #fff;
      }
    </style>
  </defs>
  <g id="_Слой_1-2" data-name="Слой 1">
    <g>
      <path class="cls-1" d="M0,0h237.91v61.13c0,9.93-8.06,17.98-17.98,17.98H0V0H0Z" transform="translate(237.91 79.12) rotate(-180)"/>
      <g>
        <path class="cls-2" d="M114.32-1.91h.61c2.63,0,4.77,2.14,4.77,4.77v77.44c0,.4-.33.73-.73.73h-8.7c-.4,0-.73-.33-.73-.73V2.86c0-2.63,2.14-4.77,4.77-4.77Z" transform="translate(75.06 154.18) rotate(-90)"/>
        <path class="cls-2" d="M129.07,14.09l33.98,22.12c2.28,1.49,2.28,5.2,0,6.69l-33.98,22.12c-2.28,1.49-5.14-.37-5.14-3.35h0c0-1.82.87-3.5,2.27-4.4l23.58-15.11c1.8-1.15,1.8-4.07,0-5.22l-23.58-15.11c-1.4-.9-2.27-2.58-2.27-4.4h0c0-2.97,2.85-4.83,5.14-3.35Z"/>
      </g>
    </g>
  </g>
</svg>