<?xml version="1.0" encoding="UTF-8"?>
<svg id="_Слой_2" data-name="Слой 2" xmlns="http://www.w3.org/2000/svg" viewBox="0 0 200.26 35.23">
  <defs>
    <style>
      .cls-1 {
        fill: #f7ac3b;
      }
    </style>
  </defs>
  <g id="_Слой_1-2" data-name="Слой 1">
    <polygon class="cls-1" points="18.52 0 22.89 13.46 37.04 13.46 25.6 21.77 29.97 35.23 18.52 26.91 7.07 35.23 11.45 21.77 0 13.46 14.15 13.46 18.52 0"/>
    <polygon class="cls-1" points="59.32 0 63.7 13.46 77.85 13.46 66.4 21.77 70.77 35.23 59.32 26.91 47.88 35.23 52.25 21.77 40.8 13.46 54.95 13.46 59.32 0"/>
    <polygon class="cls-1" points="100.13 0 104.5 13.46 118.65 13.46 107.2 21.77 111.57 35.23 100.13 26.91 88.68 35.23 93.05 21.77 81.61 13.46 95.76 13.46 100.13 0"/>
    <polygon class="cls-1" points="140.93 0 145.3 13.46 159.45 13.46 148.01 21.77 152.38 35.23 140.93 26.91 129.49 35.23 133.86 21.77 122.41 13.46 136.56 13.46 140.93 0"/>
    <polygon class="cls-1" points="181.74 0 186.11 13.46 200.26 13.46 188.81 21.77 193.18 35.23 181.74 26.91 170.29 35.23 174.66 21.77 163.21 13.46 177.36 13.46 181.74 0"/>
  </g>
</svg>