<svg xmlns="http://www.w3.org/2000/svg" viewBox="0 0 325.06 82.81"><defs><style>.cls-1{fill:#1a1a1a;opacity:0.76;}.cls-2{fill:#00a6c2;}.cls-3{fill:#00ccef;}.cls-4{fill:#2ce4ff;}.cls-5{fill:#e2eaff;}</style></defs><title>info_diamondldpi</title><g id="Слой_2" data-name="Слой 2"><g id="Слой_1-2" data-name="Слой 1"><rect class="cls-1" width="325.06" height="82.81" rx="32.12"/><polygon class="cls-2" points="64.63 15.18 83.84 15.18 79.57 34.1 64.63 15.18"/><polygon class="cls-3" points="83.84 15.18 101.28 34.1 79.57 34.1 83.84 15.18"/><polygon class="cls-2" points="79.57 34.1 101.28 34.1 64.63 67.63 79.57 34.1"/><polygon class="cls-2" points="64.63 15.18 45.41 15.18 49.68 34.1 64.63 15.18"/><polygon class="cls-3" points="45.41 15.18 27.97 34.1 49.68 34.1 45.41 15.18"/><polygon class="cls-2" points="49.68 34.1 27.97 34.1 64.63 67.62 49.68 34.1"/><polygon class="cls-3" points="64.63 67.62 79.57 34.1 49.68 34.1 64.63 67.62"/><polygon class="cls-4" points="64.63 15.18 49.68 34.1 79.57 34.1 64.63 15.18"/><rect class="cls-5" x="44.77" y="27.8" width="15.92" height="4.85" rx="2.43" transform="translate(-3.68 52.87) rotate(-51.7)"/></g></g></svg>