<svg xmlns="http://www.w3.org/2000/svg" viewBox="0 0 178.6 181.36"><defs><style>.cls-1{fill:#2576a9;}.cls-2,.cls-4{fill:#35a2ff;}.cls-3{fill:none;}.cls-3,.cls-4{stroke:#fff;}.cls-3,.cls-4,.cls-5{stroke-miterlimit:10;}.cls-3,.cls-5{stroke-width:3px;}.cls-5{fill:#fff;stroke:#35a2ff;}</style></defs><title>Shopldpi</title><g id="Слой_2" data-name="Слой 2"><g id="Слой_1-2" data-name="Слой 1"><rect class="cls-1" x="0.3" y="13.45" width="178.29" height="167.9" rx="33.31"/><rect class="cls-2" width="178.29" height="167.9" rx="33.31"/><rect class="cls-3" x="6.55" y="59.19" width="165.19" height="19.27" rx="3.5"/><path class="cls-3" d="M55.59,59.19H122.7l22.41,0L125.29,24.93c-1.57-2.71-5.1-4.46-9-4.46H62c-3.89,0-7.41,1.75-9,4.46L33.18,59.16Z"/><polygon class="cls-3" points="134.71 78.47 43.59 78.47 13.16 78.52 43.59 147.44 134.71 147.44 165.13 78.52 134.71 78.47"/><rect class="cls-4" x="40.44" y="87.48" width="4.59" height="4.59"/><rect class="cls-4" x="53.32" y="87.48" width="4.59" height="4.59"/><rect class="cls-4" x="66.2" y="87.48" width="4.59" height="4.59"/><rect class="cls-4" x="79.08" y="87.48" width="4.59" height="4.59"/><rect class="cls-4" x="91.96" y="87.48" width="4.59" height="4.59"/><rect class="cls-4" x="104.85" y="87.48" width="4.59" height="4.59"/><rect class="cls-4" x="117.73" y="87.48" width="4.59" height="4.59"/><rect class="cls-4" x="130.61" y="87.48" width="4.59" height="4.59"/><rect class="cls-4" x="143.49" y="87.48" width="4.59" height="4.59"/><rect class="cls-4" x="40.44" y="101.16" width="4.59" height="4.59"/><rect class="cls-4" x="53.32" y="101.16" width="4.59" height="4.59"/><rect class="cls-4" x="66.2" y="101.16" width="4.59" height="4.59"/><rect class="cls-4" x="79.08" y="101.16" width="4.59" height="4.59"/><rect class="cls-4" x="91.96" y="101.16" width="4.59" height="4.59"/><rect class="cls-4" x="104.85" y="101.16" width="4.59" height="4.59"/><rect class="cls-4" x="117.73" y="101.16" width="4.59" height="4.59"/><rect class="cls-4" x="130.61" y="101.16" width="4.59" height="4.59"/><rect class="cls-4" x="143.49" y="101.16" width="4.59" height="4.59"/><rect class="cls-4" x="53.32" y="114.83" width="4.59" height="4.59"/><rect class="cls-4" x="66.2" y="114.83" width="4.59" height="4.59"/><rect class="cls-4" x="79.08" y="114.83" width="4.59" height="4.59"/><rect class="cls-4" x="91.96" y="114.83" width="4.59" height="4.59"/><rect class="cls-4" x="104.85" y="114.83" width="4.59" height="4.59"/><rect class="cls-4" x="117.73" y="114.83" width="4.59" height="4.59"/><rect class="cls-4" x="130.61" y="114.83" width="4.59" height="4.59"/><rect class="cls-4" x="143.49" y="114.83" width="4.59" height="4.59"/><rect class="cls-4" x="66.2" y="128.51" width="4.59" height="4.59"/><rect class="cls-4" x="79.08" y="128.51" width="4.59" height="4.59"/><rect class="cls-4" x="91.96" y="128.51" width="4.59" height="4.59"/><rect class="cls-4" x="104.85" y="128.51" width="4.59" height="4.59"/><rect class="cls-4" x="117.73" y="128.51" width="4.59" height="4.59"/><rect class="cls-4" x="130.61" y="128.51" width="4.59" height="4.59"/><rect class="cls-4" x="143.49" y="128.51" width="4.59" height="4.59"/><rect class="cls-4" x="81.57" y="106.43" width="81.34" height="48.16" rx="3.02"/><circle class="cls-4" cx="122.24" cy="130.52" r="13.56"/><circle class="cls-4" cx="122.25" cy="130.51" r="6.17"/><path class="cls-4" d="M158.74,106.44h-73a4.17,4.17,0,0,0-4.17,4.17V119h0v23h0v8.42a4.17,4.17,0,0,0,4.16,4.17h73a4.17,4.17,0,0,0,4.17-4.17V119.17h0v-8.56A4.17,4.17,0,0,0,158.74,106.44Zm1.49,12.73v22.69a10.13,10.13,0,0,0-10,10H94.29a10.12,10.12,0,0,0-10.06-10V119.15a10.13,10.13,0,0,0,10.07-10h55.88c0,5.54,4.52,9.33,10.06,9.37Z"/><rect class="cls-5" x="73.49" y="16.97" width="31.91" height="7" rx="3.5"/></g></g></svg>