<?xml version="1.0" encoding="UTF-8"?>
<svg id="_Слой_2" data-name="Слой 2" xmlns="http://www.w3.org/2000/svg" xmlns:xlink="http://www.w3.org/1999/xlink" viewBox="0 0 261.41 371.58">
  <defs>
    <style>
      .cls-1 {
        fill: #e2eaff;
      }

      .cls-2 {
        fill: #00a6c2;
      }

      .cls-3 {
        fill: #00ccef;
      }

      .cls-4 {
        opacity: .92;
      }

      .cls-5 {
        fill: #fff;
      }

      .cls-6 {
        opacity: .25;
      }

      .cls-7 {
        fill: #2ce4ff;
      }

      .cls-8 {
        fill: url(#_Безымянный_градиент_37);
      }

      .cls-9 {
        opacity: .36;
      }

      .cls-10 {
        opacity: .15;
      }

      .cls-11 {
        opacity: .1;
      }

      .cls-12 {
        opacity: .28;
      }
    </style>
    <linearGradient id="_Безымянный_градиент_37" data-name="Безымянный градиент 37" x1="-17.41" y1="30.8" x2="278.82" y2="340.78" gradientUnits="userSpaceOnUse">
      <stop offset="0" stop-color="#007a87"/>
      <stop offset="1" stop-color="#006177"/>
    </linearGradient>
  </defs>
  <g id="_Слой_1-2" data-name="Слой 1">
    <g>
      <g>
        <path class="cls-8" d="M261.41,24.65v322.28c0,13.56-11.11,24.65-24.69,24.65H24.69c-3.6,0-7.02-.78-10.12-2.18t-.02-.01c-.29-.13-.57-.28-.85-.42-.2-.11-.4-.22-.6-.33-.06-.02-.11-.05-.16-.09-.94-.51-1.86-1.06-2.72-1.69-6.18-4.48-10.22-11.76-10.22-19.93V24.65C0,11.09,11.11,0,24.69,0h212.03c13.58,0,24.69,11.09,24.69,24.65Z"/>
        <path class="cls-11" d="M199.83,0L0,199.52V24.65C0,11.09,11.11,0,24.69,0h175.14Z"/>
        <path class="cls-11" d="M261.41,107.46v237.93c0,14.41-11.41,26.19-25.36,26.19H24.69c-3.6,0-7.02-.78-10.12-2.18t-.02-.01c-.29-.13-.57-.28-.85-.42-.2-.11-.4-.22-.6-.33-.06-.02-.11-.05-.16-.09-.94-.51-1.86-1.06-2.72-1.69l.05-.06h.01L261.41,107.46Z"/>
      </g>
      <g>
        <g>
          <polygon class="cls-2" points="130.25 105.2 171.86 106.54 161.29 147.15 130.25 105.2"/>
          <polygon class="cls-3" points="171.86 106.54 208.31 148.67 161.29 147.15 171.86 106.54"/>
          <polygon class="cls-2" points="161.29 147.15 208.31 148.67 126.58 218.59 161.29 147.15"/>
          <polygon class="cls-2" points="130.25 105.19 88.64 103.85 96.56 145.06 130.25 105.19"/>
          <polygon class="cls-3" points="88.64 103.85 49.54 143.54 96.56 145.06 88.64 103.85"/>
          <polygon class="cls-2" points="96.56 145.06 49.54 143.54 126.58 218.58 96.56 145.06"/>
          <polygon class="cls-3" points="126.58 218.58 161.29 147.14 96.56 145.06 126.58 218.58"/>
          <polygon class="cls-7" points="130.25 105.19 96.56 145.06 161.29 147.14 130.25 105.19"/>
          <g class="cls-12">
            <polygon points="130.25 105.2 171.86 106.54 161.29 147.15 130.25 105.2"/>
            <polygon points="171.86 106.54 208.31 148.66 161.29 147.15 171.86 106.54"/>
            <polygon points="161.29 147.15 208.31 148.66 126.59 218.58 161.29 147.15"/>
            <polygon points="130.25 105.19 88.64 103.85 96.57 145.05 130.25 105.19"/>
            <polygon points="88.64 103.85 49.55 143.54 96.57 145.05 88.64 103.85"/>
            <polygon points="96.57 145.05 49.55 143.54 126.59 218.58 96.57 145.05"/>
            <polygon points="126.59 218.58 161.29 147.14 96.57 145.05 126.59 218.58"/>
            <polygon points="130.25 105.19 96.57 145.05 161.29 147.14 130.25 105.19"/>
            <path d="M99.39,149.82l16.12-19.08c1.68-1.99,1.43-5-.57-6.68l-.78-.66c-1.99-1.68-5-1.42-6.68.57l-16.12,19.08c-1.68,1.99-1.43,5,.57,6.68l.78.66c1.99,1.68,5,1.42,6.68-.57Z"/>
          </g>
        </g>
        <g class="cls-11">
          <polygon points="130.27 105.2 171.88 106.54 161.31 147.15 130.27 105.2"/>
          <polygon points="171.88 106.54 208.33 148.66 161.31 147.15 171.88 106.54"/>
          <polygon points="161.31 147.15 208.33 148.66 126.61 218.58 161.31 147.15"/>
          <polygon points="130.27 105.19 88.66 103.85 96.59 145.05 130.27 105.19"/>
          <polygon points="88.66 103.85 49.57 143.54 96.59 145.05 88.66 103.85"/>
          <polygon points="96.59 145.05 49.57 143.54 126.61 218.58 96.59 145.05"/>
          <polygon points="126.61 218.58 161.31 147.14 96.59 145.05 126.61 218.58"/>
          <polygon points="130.27 105.19 96.59 145.05 161.31 147.14 130.27 105.19"/>
          <g class="cls-12">
            <polygon points="130.28 105.19 171.89 106.53 161.32 147.14 130.28 105.19"/>
            <polygon points="171.89 106.53 208.34 148.66 161.32 147.14 171.89 106.53"/>
            <polygon points="161.32 147.14 208.34 148.66 126.61 218.58 161.32 147.14"/>
            <polygon points="130.28 105.18 88.67 103.84 96.59 145.05 130.28 105.18"/>
            <polygon points="88.67 103.84 49.57 143.53 96.59 145.05 88.67 103.84"/>
            <polygon points="96.59 145.05 49.57 143.53 126.61 218.57 96.59 145.05"/>
            <polygon points="126.61 218.57 161.32 147.14 96.59 145.05 126.61 218.57"/>
            <polygon points="130.28 105.18 96.59 145.05 161.32 147.14 130.28 105.18"/>
            <path d="M99.41,149.82l16.12-19.08c1.68-1.99,1.43-5-.57-6.68l-.78-.66c-1.99-1.68-5-1.42-6.68.57l-16.12,19.08c-1.68,1.99-1.43,5,.57,6.68l.78.66c1.99,1.68,5,1.42,6.68-.57Z"/>
          </g>
        </g>
        <g>
          <polygon class="cls-2" points="192.8 162 226.28 162 218.83 194.91 192.8 162"/>
          <polygon class="cls-3" points="226.28 162 256.67 194.91 218.83 194.91 226.28 162"/>
          <polygon class="cls-2" points="218.83 194.91 256.67 194.91 192.8 253.23 218.83 194.91"/>
          <polygon class="cls-2" points="192.8 161.99 159.32 161.99 166.76 194.91 192.8 161.99"/>
          <polygon class="cls-3" points="159.32 161.99 128.93 194.91 166.76 194.91 159.32 161.99"/>
          <polygon class="cls-2" points="166.76 194.91 128.93 194.91 192.8 253.22 166.76 194.91"/>
          <polygon class="cls-3" points="192.8 253.22 218.83 194.91 166.76 194.91 192.8 253.22"/>
          <polygon class="cls-7" points="192.8 161.99 166.76 194.91 218.83 194.91 192.8 161.99"/>
          <path class="cls-1" d="M169.15,198.67l12.46-15.75c1.3-1.64,1.02-4.05-.63-5.35l-.65-.51c-1.65-1.3-4.05-1.01-5.35.63l-12.46,15.75c-1.3,1.64-1.02,4.05.63,5.35l.65.51c1.65,1.3,4.05,1.01,5.35-.63Z"/>
        </g>
        <g class="cls-11">
          <polygon points="192.79 161.99 226.27 161.99 218.83 194.91 192.79 161.99"/>
          <polygon points="226.27 161.99 256.66 194.91 218.83 194.91 226.27 161.99"/>
          <polygon points="218.83 194.91 256.66 194.91 192.79 253.22 218.83 194.91"/>
          <polygon points="192.79 161.99 159.31 161.99 166.75 194.9 192.79 161.99"/>
          <polygon points="159.31 161.99 128.92 194.9 166.75 194.9 159.31 161.99"/>
          <polygon points="166.75 194.9 128.92 194.9 192.79 253.22 166.75 194.9"/>
          <polygon points="192.79 253.22 218.83 194.9 166.75 194.9 192.79 253.22"/>
          <polygon points="192.79 161.99 166.75 194.9 218.83 194.9 192.79 161.99"/>
          <path d="M169.14,198.66l12.46-15.75c1.3-1.64,1.02-4.05-.63-5.35l-.65-.51c-1.65-1.3-4.05-1.01-5.35.63l-12.46,15.75c-1.3,1.64-1.02,4.05.63,5.35l.65.51c1.65,1.3,4.05,1.01,5.35-.63Z"/>
        </g>
        <g>
          <polygon class="cls-2" points="50.63 145.07 81.44 131.99 87.49 165.19 50.63 145.07"/>
          <polygon class="cls-3" points="81.44 131.99 122.3 150.41 87.49 165.19 81.44 131.99"/>
          <polygon class="cls-2" points="87.49 165.19 122.3 150.41 86.37 229.03 87.49 165.19"/>
          <polygon class="cls-2" points="50.63 145.06 19.82 158.14 39.56 185.52 50.63 145.06"/>
          <polygon class="cls-3" points="19.82 158.14 4.74 200.3 39.56 185.52 19.82 158.14"/>
          <polygon class="cls-2" points="39.56 185.52 4.74 200.3 86.37 229.02 39.56 185.52"/>
          <polygon class="cls-3" points="86.37 229.02 87.49 165.18 39.56 185.52 86.37 229.02"/>
          <polygon class="cls-7" points="50.63 145.06 39.56 185.52 87.49 165.18 50.63 145.06"/>
          <rect class="cls-1" x="27.96" y="173.03" width="27.7" height="8.45" rx="3.81" ry="3.81" transform="translate(-140.2 170.82) rotate(-74.7)"/>
        </g>
        <g class="cls-10">
          <polygon points="50.67 145.02 81.48 131.94 87.53 165.14 50.67 145.02"/>
          <polygon points="81.48 131.94 122.34 150.36 87.53 165.14 81.48 131.94"/>
          <polygon points="87.53 165.14 122.34 150.36 86.41 228.98 87.53 165.14"/>
          <polygon points="50.67 145.01 19.86 158.09 39.6 185.47 50.67 145.01"/>
          <polygon points="19.86 158.09 4.78 200.25 39.6 185.47 19.86 158.09"/>
          <polygon points="39.6 185.47 4.78 200.25 86.41 228.97 39.6 185.47"/>
          <polygon points="86.41 228.97 87.53 165.13 39.6 185.47 86.41 228.97"/>
          <polygon points="50.67 145.01 39.6 185.47 87.53 165.13 50.67 145.01"/>
          <rect x="28" y="172.98" width="27.7" height="8.45" rx="3.81" ry="3.81" transform="translate(-140.12 170.82) rotate(-74.7)"/>
        </g>
        <g>
          <polygon class="cls-2" points="57.2 67.33 71.26 59.37 75.98 74.96 57.2 67.33"/>
          <polygon class="cls-3" points="71.26 59.37 91.87 65.96 75.98 74.96 71.26 59.37"/>
          <polygon class="cls-2" points="75.98 74.96 91.87 65.96 78.96 105.64 75.98 74.96"/>
          <polygon class="cls-2" points="57.2 67.33 43.14 75.29 54.12 87.34 57.2 67.33"/>
          <polygon class="cls-3" points="43.14 75.29 38.23 96.33 54.12 87.34 43.14 75.29"/>
          <polygon class="cls-2" points="54.12 87.34 38.23 96.33 78.96 105.64 54.12 87.34"/>
          <polygon class="cls-3" points="78.96 105.64 75.98 74.96 54.12 87.34 78.96 105.64"/>
          <polygon class="cls-7" points="57.2 67.33 54.12 87.34 75.98 74.96 57.2 67.33"/>
          <rect class="cls-1" x="48.05" y="81.21" width="13.37" height="4.08" rx="1.03" ry="1.03" transform="translate(-35.88 124.67) rotate(-81.24)"/>
        </g>
        <g>
          <polygon class="cls-2" points="156.23 43.28 168.75 45.07 164.2 56.98 156.23 43.28"/>
          <polygon class="cls-3" points="168.75 45.07 178.35 59 164.2 56.98 168.75 45.07"/>
          <polygon class="cls-2" points="164.2 56.98 178.35 59 151.34 77.39 164.2 56.98"/>
          <polygon class="cls-2" points="156.23 43.27 143.71 41.48 144.73 54.19 156.23 43.27"/>
          <polygon class="cls-3" points="143.71 41.48 130.58 52.16 144.73 54.19 143.71 41.48"/>
          <polygon class="cls-2" points="144.73 54.19 130.58 52.16 151.34 77.39 144.73 54.19"/>
          <polygon class="cls-3" points="151.34 77.39 164.2 56.97 144.73 54.19 151.34 77.39"/>
          <polygon class="cls-7" points="156.23 43.27 144.73 54.19 164.2 56.97 156.23 43.27"/>
          <path class="cls-1" d="M144.93,56.18l6.48-6.15c.31-.29.32-.78.03-1.08l-1.14-1.2c-.29-.31-.78-.32-1.08-.03l-6.48,6.15c-.31.29-.32.78-.03,1.08l1.14,1.2c.29.31.78.32,1.08.03Z"/>
        </g>
        <g>
          <g>
            <g>
              <polygon class="cls-3" points="95.9 206.35 71.1 213.24 103.8 227.93 95.9 206.35"/>
              <polygon class="cls-2" points="103.8 227.93 71.1 213.24 112.17 275.23 103.8 227.93"/>
              <polygon class="cls-3" points="103.8 227.93 122.98 232.72 112.17 275.23 103.8 227.93"/>
              <polygon class="cls-3" points="142.36 237.55 142.36 237.56 142.35 237.55 142.36 237.55"/>
              <polygon class="cls-7" points="125.59 222.44 125.59 222.45 125.59 222.44 122.98 232.72 103.8 227.93 125.59 222.44"/>
              <polygon class="cls-2" points="95.9 206.35 99.31 192.32 71.1 213.24 95.9 206.35"/>
              <g>
                <polygon class="cls-2" points="125.59 222.44 125.59 222.44 125.58 222.44 103.8 227.93 95.9 206.35 101.92 209.61 100.95 210.47 105.27 215.37 108.04 212.93 112.15 215.15 110.13 216.94 114.45 221.84 118.27 218.47 125.59 222.44"/>
                <g>
                  <polygon class="cls-2" points="125.59 222.44 159.36 222.48 142.11 237.67 125.59 222.44"/>
                  <polygon class="cls-3" points="159.36 222.48 177.86 240.37 142.11 237.67 159.36 222.48"/>
                  <polygon class="cls-2" points="142.11 237.67 177.86 240.37 112.17 275.23 142.11 237.67"/>
                  <polygon class="cls-3" points="142.11 237.67 122.98 232.72 112.17 275.23 142.11 237.67"/>
                  <polygon class="cls-3" points="103.63 227.71 103.63 227.72 103.64 227.71 103.63 227.71"/>
                  <polygon class="cls-7" points="125.59 222.44 125.58 222.44 125.59 222.44 122.98 232.72 142.11 237.67 125.59 222.44"/>
                  <polygon class="cls-2" points="159.36 222.48 163.06 208.53 177.86 240.37 159.36 222.48"/>
                </g>
              </g>
            </g>
            <polygon class="cls-2" points="111.91 213.21 106.32 218.14 97.58 208.23 99.54 206.5 111.91 213.21"/>
            <polygon class="cls-2" points="121.17 218.34 114.77 223.97 107.56 215.78 110.94 212.8 121.17 218.34"/>
            <polygon class="cls-7" points="163.06 208.53 159.36 222.48 125.59 222.44 125.59 222.44 118.27 218.47 112.15 215.15 108.04 212.93 101.92 209.61 95.9 206.35 99.31 192.32 120.92 192.87 130.52 193.12 130.53 193.12 133.03 193.19 135.6 194.49 141.85 197.69 163.06 208.53"/>
          </g>
          <polygon class="cls-3" points="103.8 227.93 112.17 275.23 142.35 237.55 103.8 227.93"/>
          <polygon class="cls-7" points="125.59 222.44 103.8 227.93 142.35 237.55 125.59 222.44"/>
          <g class="cls-4">
            <polygon class="cls-5" points="130.52 193.12 108.04 212.93 101.92 209.61 120.92 192.87 130.52 193.12"/>
            <polygon class="cls-5" points="141.85 197.69 118.27 218.47 112.15 215.15 135.6 194.49 141.85 197.69"/>
          </g>
        </g>
        <path class="cls-5" d="M94.47,195.93l2.99-7.15c.31-.74,1.4-.59,1.5.2l1,7.69c.39,2.98,2.34,5.53,5.11,6.7l7.16,3c.74.31.59,1.4-.2,1.5l-7.69.99c-2.98.38-5.53,2.33-6.69,5.1l-2.99,7.15c-.31.74-1.4.59-1.5-.2l-1-7.69c-.39-2.98-2.34-5.53-5.11-6.7l-7.16-3c-.74-.31-.59-1.4.2-1.5l7.69-.99c2.98-.38,5.53-2.33,6.69-5.1Z"/>
        <path class="cls-5" d="M161.29,150.42l6.03-8.7c.62-.9,2.04-.4,1.95.69l-.84,10.55c-.32,4.09,1.55,8.04,4.93,10.38l8.72,6.02c.9.62.4,2.03-.69,1.95l-10.56-.84c-4.1-.32-8.06,1.55-10.39,4.93l-6.03,8.7c-.62.9-2.04.4-1.95-.69l.84-10.55c.32-4.09-1.55-8.04-4.93-10.38l-8.72-6.02c-.9-.62-.4-2.03.69-1.95l10.56.84c4.1.32,8.06-1.55,10.39-4.93Z"/>
        <path class="cls-5" d="M37.66,73.16l-2.56-3.85c-.26-.4.17-.89.6-.68l4.15,2.05c1.61.79,3.52.67,5.02-.32l3.86-2.56c.4-.26.89.17.68.6l-2.05,4.15c-.79,1.61-.67,3.52.32,5.01l2.56,3.85c.26.4-.17.89-.6.68l-4.15-2.05c-1.61-.79-3.52-.67-5.02.32l-3.86,2.56c-.4.26-.89-.17-.68-.6l2.05-4.15c.79-1.61.67-3.52-.32-5.01Z"/>
        <g>
          <g>
            <g>
              <polygon class="cls-3" points="196.92 69.22 180.56 69.66 198.48 83.75 196.92 69.22"/>
              <polygon class="cls-2" points="198.48 83.75 180.56 69.66 196.38 114.22 198.48 83.75"/>
              <polygon class="cls-3" points="198.48 83.75 209.58 89.65 196.38 114.22 198.48 83.75"/>
              <polygon class="cls-3" points="220.8 95.61 220.8 95.61 220.79 95.61 220.8 95.61"/>
              <polygon class="cls-7" points="212.77 83.71 212.77 83.71 212.77 83.71 209.58 89.65 198.48 83.75 212.77 83.71"/>
              <polygon class="cls-2" points="196.92 69.22 201.18 61.08 180.56 69.66 196.92 69.22"/>
              <g>
                <polygon class="cls-2" points="212.77 83.71 212.77 83.71 212.77 83.71 198.48 83.75 196.92 69.21 200.14 72.16 199.41 72.53 201.32 76.22 203.4 75.14 205.6 77.15 204.07 77.94 205.98 81.62 208.86 80.13 212.77 83.71"/>
                <g>
                  <polygon class="cls-2" points="212.77 83.71 233.6 88.92 220.63 95.64 212.77 83.71"/>
                  <polygon class="cls-3" points="233.6 88.92 242.27 102.8 220.63 95.64 233.6 88.92"/>
                  <polygon class="cls-2" points="220.63 95.64 242.27 102.8 196.38 114.22 220.63 95.64"/>
                  <polygon class="cls-3" points="220.63 95.64 209.58 89.65 196.38 114.22 220.63 95.64"/>
                  <polygon class="cls-3" points="198.41 83.59 198.41 83.59 198.42 83.59 198.41 83.59"/>
                  <polygon class="cls-7" points="212.77 83.71 212.76 83.71 212.77 83.71 209.58 89.65 220.63 95.64 212.77 83.71"/>
                  <polygon class="cls-2" points="233.6 88.92 238.03 80.88 242.27 102.8 233.6 88.92"/>
                </g>
              </g>
            </g>
            <polygon class="cls-2" points="205.75 75.91 201.54 78.09 197.67 70.63 199.14 69.87 205.75 75.91"/>
            <polygon class="cls-2" points="210.67 80.5 205.86 82.99 202.67 76.83 205.21 75.51 210.67 80.5"/>
            <polygon class="cls-7" points="238.03 80.88 233.6 88.92 212.77 83.71 212.77 83.71 208.86 80.13 205.6 77.15 203.4 75.14 200.14 72.16 196.92 69.21 201.18 61.08 214.43 64.74 220.32 66.37 220.32 66.37 221.85 66.8 223.24 68 226.61 70.93 238.03 80.88"/>
          </g>
          <polygon class="cls-3" points="198.48 83.75 196.38 114.22 220.79 95.61 198.48 83.75"/>
          <polygon class="cls-7" points="212.77 83.71 198.48 83.75 220.79 95.61 212.77 83.71"/>
          <g class="cls-4">
            <polygon class="cls-5" points="220.32 66.37 203.4 75.14 200.14 72.16 214.43 64.74 220.32 66.37"/>
            <polygon class="cls-5" points="226.61 70.93 208.86 80.13 205.6 77.15 223.24 68 226.61 70.93"/>
          </g>
        </g>
        <g class="cls-6">
          <g>
            <g>
              <polygon points="196.89 69.22 180.53 69.66 198.45 83.75 196.89 69.22"/>
              <polygon points="198.45 83.75 180.53 69.66 196.35 114.22 198.45 83.75"/>
              <polygon points="198.45 83.75 209.55 89.65 196.35 114.22 198.45 83.75"/>
              <polygon points="220.77 95.61 220.77 95.61 220.76 95.61 220.77 95.61"/>
              <polygon points="212.74 83.71 212.74 83.71 212.74 83.71 209.55 89.65 198.45 83.75 212.74 83.71"/>
              <polygon points="196.89 69.22 201.15 61.08 180.53 69.66 196.89 69.22"/>
              <g>
                <polygon points="212.74 83.71 212.74 83.71 212.74 83.71 198.45 83.75 196.89 69.22 200.11 72.16 199.38 72.53 201.29 76.22 203.37 75.14 205.57 77.15 204.05 77.94 205.96 81.62 208.83 80.13 212.74 83.71"/>
                <g>
                  <polygon points="212.74 83.71 233.57 88.92 220.6 95.64 212.74 83.71"/>
                  <polygon points="233.57 88.92 242.24 102.8 220.6 95.64 233.57 88.92"/>
                  <polygon points="220.6 95.64 242.24 102.8 196.35 114.22 220.6 95.64"/>
                  <polygon points="220.6 95.64 209.55 89.65 196.35 114.22 220.6 95.64"/>
                  <polygon points="198.38 83.59 198.38 83.59 198.39 83.59 198.38 83.59"/>
                  <polygon points="212.74 83.71 212.74 83.71 212.74 83.71 209.55 89.65 220.6 95.64 212.74 83.71"/>
                  <polygon points="233.57 88.92 238 80.88 242.24 102.8 233.57 88.92"/>
                </g>
              </g>
            </g>
            <polygon points="205.72 75.91 201.51 78.09 197.64 70.63 199.11 69.87 205.72 75.91"/>
            <polygon points="210.64 80.5 205.83 82.99 202.64 76.83 205.18 75.51 210.64 80.5"/>
            <polygon points="238 80.88 233.57 88.92 212.74 83.71 212.74 83.71 208.83 80.13 205.57 77.15 203.37 75.14 200.11 72.16 196.89 69.22 201.15 61.08 214.4 64.74 220.29 66.37 220.29 66.37 221.83 66.8 223.21 68 226.58 70.93 238 80.88"/>
          </g>
          <polygon points="198.45 83.75 196.35 114.22 220.76 95.61 198.45 83.75"/>
          <polygon points="212.74 83.71 198.45 83.75 220.76 95.61 212.74 83.71"/>
          <g class="cls-4">
            <polygon points="220.29 66.37 203.37 75.14 200.11 72.16 214.4 64.74 220.29 66.37"/>
            <polygon points="226.58 70.93 208.83 80.13 205.57 77.15 223.21 68 226.58 70.93"/>
          </g>
        </g>
        <g>
          <g>
            <g>
              <polygon class="cls-3" points="107.71 77.53 102.32 82.66 112.66 81.96 107.71 77.53"/>
              <polygon class="cls-2" points="112.66 81.96 102.32 82.66 121.22 92.89 112.66 81.96"/>
              <polygon class="cls-3" points="112.66 81.96 118.2 80.58 121.22 92.89 112.66 81.96"/>
              <polygon class="cls-3" points="123.8 79.18 123.8 79.18 123.8 79.18 123.8 79.18"/>
              <polygon class="cls-7" points="117.47 77.6 117.47 77.6 117.47 77.6 118.2 80.58 112.66 81.96 117.47 77.6"/>
              <polygon class="cls-2" points="107.71 77.53 106.67 73.49 102.32 82.66 107.71 77.53"/>
              <g>
                <polygon class="cls-2" points="117.47 77.6 117.47 77.6 117.47 77.6 112.66 81.96 107.71 77.53 109.69 77.55 109.56 77.89 111.33 78.56 111.7 77.56 113.05 77.57 112.78 78.3 114.55 78.96 115.06 77.58 117.47 77.6"/>
                <g>
                  <polygon class="cls-2" points="117.47 77.6 126.09 73.02 123.75 79.24 117.47 77.6"/>
                  <polygon class="cls-3" points="126.09 73.02 133.24 75.07 123.75 79.24 126.09 73.02"/>
                  <polygon class="cls-2" points="123.75 79.24 133.24 75.07 121.22 92.89 123.75 79.24"/>
                  <polygon class="cls-3" points="123.75 79.24 118.2 80.58 121.22 92.89 123.75 79.24"/>
                  <polygon class="cls-3" points="112.59 81.93 112.59 81.93 112.59 81.93 112.59 81.93"/>
                  <polygon class="cls-7" points="117.47 77.6 117.47 77.6 117.47 77.6 118.2 80.58 123.75 79.24 117.47 77.6"/>
                  <polygon class="cls-2" points="126.09 73.02 125.14 68.96 133.24 75.07 126.09 73.02"/>
                </g>
              </g>
            </g>
            <polygon class="cls-2" points="112.73 77.1 111.97 79.12 108.39 77.78 108.66 77.08 112.73 77.1"/>
            <polygon class="cls-2" points="115.79 77.16 114.92 79.46 111.97 78.35 112.42 77.13 115.79 77.16"/>
            <polygon class="cls-7" points="125.14 68.96 126.09 73.02 117.47 77.6 117.47 77.6 115.06 77.58 113.05 77.57 111.7 77.56 109.69 77.55 107.71 77.53 106.67 73.49 112.26 70.7 114.74 69.45 114.75 69.45 115.39 69.13 116.22 69.11 118.26 69.08 125.14 68.96"/>
          </g>
          <polygon class="cls-3" points="112.66 81.96 121.22 92.89 123.8 79.18 112.66 81.96"/>
          <polygon class="cls-7" points="117.47 77.6 112.66 81.96 123.8 79.18 117.47 77.6"/>
          <g class="cls-4">
            <polygon class="cls-5" points="114.74 69.45 111.7 77.56 109.69 77.55 112.26 70.7 114.74 69.45"/>
            <polygon class="cls-5" points="118.26 69.08 115.06 77.58 113.05 77.57 116.22 69.11 118.26 69.08"/>
          </g>
        </g>
        <g>
          <g>
            <g>
              <polygon class="cls-3" points="25.03 119.61 19.37 127.4 32.37 124.1 25.03 119.61"/>
              <polygon class="cls-2" points="32.37 124.1 19.37 127.4 45.84 136.02 32.37 124.1"/>
              <polygon class="cls-3" points="32.37 124.1 39.11 121.04 45.84 136.02 32.37 124.1"/>
              <polygon class="cls-3" points="45.92 117.94 45.92 117.95 45.91 117.95 45.92 117.94"/>
              <polygon class="cls-7" points="37.48 117.42 37.49 117.42 37.48 117.42 39.11 121.04 32.37 124.1 37.48 117.42"/>
              <polygon class="cls-2" points="25.03 119.61 22.77 114.71 19.37 127.4 25.03 119.61"/>
              <g>
                <polygon class="cls-2" points="37.48 117.42 37.48 117.42 37.48 117.42 32.37 124.1 25.03 119.61 27.56 119.17 27.47 119.64 29.88 120.07 30.13 118.72 31.85 118.41 31.67 119.4 34.08 119.84 34.41 117.96 37.48 117.42"/>
                <g>
                  <polygon class="cls-2" points="37.48 117.42 47.39 109.57 45.87 118.04 37.48 117.42"/>
                  <polygon class="cls-3" points="47.39 109.57 56.98 110.51 45.87 118.04 47.39 109.57"/>
                  <polygon class="cls-2" points="45.87 118.04 56.98 110.51 45.84 136.02 45.87 118.04"/>
                  <polygon class="cls-3" points="45.87 118.04 39.11 121.04 45.84 136.02 45.87 118.04"/>
                  <polygon class="cls-3" points="32.27 124.07 32.28 124.08 32.28 124.07 32.27 124.07"/>
                  <polygon class="cls-7" points="37.48 117.42 37.48 117.42 37.48 117.42 39.11 121.04 45.87 118.04 37.48 117.42"/>
                  <polygon class="cls-2" points="47.39 109.57 45.23 104.62 56.98 110.51 47.39 109.57"/>
                </g>
              </g>
            </g>
            <polygon class="cls-2" points="31.33 117.9 30.83 120.64 25.96 119.77 26.14 118.81 31.33 117.9"/>
            <polygon class="cls-2" points="35.23 117.25 34.67 120.38 30.65 119.66 30.94 118 35.23 117.25"/>
            <polygon class="cls-7" points="45.23 104.62 47.39 109.57 37.48 117.42 37.48 117.42 34.41 117.96 31.85 118.41 30.13 118.72 27.56 119.17 25.03 119.61 22.77 114.71 29.23 109.84 32.1 107.68 32.1 107.67 32.85 107.11 33.91 106.9 36.49 106.38 45.23 104.62"/>
          </g>
          <polygon class="cls-3" points="32.37 124.1 45.84 136.02 45.91 117.95 32.37 124.1"/>
          <polygon class="cls-7" points="37.48 117.42 32.37 124.1 45.91 117.95 37.48 117.42"/>
          <g class="cls-4">
            <polygon class="cls-5" points="32.1 107.68 30.13 118.72 27.56 119.17 29.23 109.84 32.1 107.68"/>
            <polygon class="cls-5" points="36.49 106.38 34.41 117.96 31.85 118.41 33.91 106.9 36.49 106.38"/>
          </g>
        </g>
        <g class="cls-6">
          <g>
            <g>
              <polygon points="25.03 119.63 19.37 127.42 32.37 124.11 25.03 119.63"/>
              <polygon points="32.37 124.11 19.37 127.42 45.84 136.03 32.37 124.11"/>
              <polygon points="32.37 124.11 39.11 121.05 45.84 136.03 32.37 124.11"/>
              <polygon points="45.92 117.96 45.92 117.96 45.91 117.96 45.92 117.96"/>
              <polygon points="37.48 117.43 37.49 117.43 37.48 117.43 39.11 121.05 32.37 124.11 37.48 117.43"/>
              <polygon points="25.03 119.63 22.77 114.72 19.37 127.42 25.03 119.63"/>
              <g>
                <polygon points="37.48 117.43 37.48 117.43 37.48 117.43 32.37 124.11 25.03 119.62 27.56 119.18 27.47 119.66 29.88 120.09 30.13 118.73 31.85 118.42 31.67 119.42 34.08 119.85 34.41 117.97 37.48 117.43"/>
                <g>
                  <polygon points="37.48 117.43 47.39 109.58 45.87 118.05 37.48 117.43"/>
                  <polygon points="47.39 109.58 56.98 110.52 45.87 118.05 47.39 109.58"/>
                  <polygon points="45.87 118.05 56.98 110.52 45.84 136.03 45.87 118.05"/>
                  <polygon points="45.87 118.05 39.11 121.05 45.84 136.03 45.87 118.05"/>
                  <polygon points="32.27 124.09 32.28 124.09 32.28 124.09 32.27 124.09"/>
                  <polygon points="37.48 117.43 37.48 117.43 37.48 117.43 39.11 121.05 45.87 118.05 37.48 117.43"/>
                  <polygon points="47.39 109.58 45.23 104.63 56.98 110.52 47.39 109.58"/>
                </g>
              </g>
            </g>
            <polygon points="31.33 117.91 30.83 120.66 25.96 119.79 26.14 118.82 31.33 117.91"/>
            <polygon points="35.23 117.26 34.67 120.4 30.65 119.68 30.95 118.01 35.23 117.26"/>
            <polygon points="45.23 104.63 47.39 109.58 37.48 117.43 37.48 117.43 34.41 117.97 31.85 118.42 30.13 118.73 27.56 119.18 25.03 119.62 22.77 114.72 29.23 109.85 32.1 107.69 32.1 107.69 32.85 107.12 33.91 106.91 36.49 106.39 45.23 104.63"/>
          </g>
          <polygon points="32.37 124.11 45.84 136.03 45.91 117.96 32.37 124.11"/>
          <polygon points="37.48 117.43 32.37 124.11 45.91 117.96 37.48 117.43"/>
          <g class="cls-4">
            <polygon points="32.1 107.69 30.13 118.73 27.56 119.18 29.23 109.85 32.1 107.69"/>
            <polygon points="36.49 106.39 34.41 117.97 31.85 118.42 33.91 106.91 36.49 106.39"/>
          </g>
        </g>
        <g class="cls-9">
          <g>
            <g>
              <polygon points="107.71 77.53 102.32 82.65 112.66 81.96 107.71 77.53"/>
              <polygon points="112.66 81.96 102.32 82.65 121.22 92.89 112.66 81.96"/>
              <polygon points="112.66 81.96 118.2 80.58 121.22 92.89 112.66 81.96"/>
              <polygon points="123.8 79.18 123.8 79.18 123.8 79.18 123.8 79.18"/>
              <polygon points="117.47 77.6 117.47 77.6 117.47 77.6 118.2 80.58 112.66 81.96 117.47 77.6"/>
              <polygon points="107.71 77.53 106.67 73.49 102.32 82.65 107.71 77.53"/>
              <g>
                <polygon points="117.47 77.6 117.47 77.6 117.47 77.6 112.66 81.96 107.71 77.53 109.69 77.54 109.56 77.89 111.33 78.56 111.7 77.56 113.05 77.57 112.78 78.3 114.55 78.96 115.06 77.58 117.47 77.6"/>
                <g>
                  <polygon points="117.47 77.6 126.09 73.02 123.75 79.24 117.47 77.6"/>
                  <polygon points="126.09 73.02 133.24 75.07 123.75 79.24 126.09 73.02"/>
                  <polygon points="123.75 79.24 133.24 75.07 121.22 92.89 123.75 79.24"/>
                  <polygon points="123.75 79.24 118.2 80.58 121.22 92.89 123.75 79.24"/>
                  <polygon points="112.59 81.93 112.59 81.93 112.59 81.93 112.59 81.93"/>
                  <polygon points="117.47 77.6 117.47 77.6 117.47 77.6 118.2 80.58 123.75 79.24 117.47 77.6"/>
                  <polygon points="126.09 73.02 125.14 68.96 133.24 75.07 126.09 73.02"/>
                </g>
              </g>
            </g>
            <polygon points="112.73 77.1 111.97 79.12 108.39 77.78 108.66 77.07 112.73 77.1"/>
            <polygon points="115.79 77.15 114.92 79.46 111.97 78.35 112.42 77.13 115.79 77.15"/>
            <polygon points="125.14 68.96 126.09 73.02 117.47 77.6 117.47 77.6 115.06 77.58 113.05 77.57 111.7 77.56 109.69 77.54 107.71 77.53 106.67 73.49 112.26 70.69 114.74 69.45 114.75 69.45 115.39 69.13 116.22 69.11 118.26 69.08 125.14 68.96"/>
          </g>
          <polygon points="112.66 81.96 121.22 92.89 123.8 79.18 112.66 81.96"/>
          <polygon points="117.47 77.6 112.66 81.96 123.8 79.18 117.47 77.6"/>
          <g class="cls-4">
            <polygon points="114.74 69.45 111.7 77.56 109.69 77.54 112.26 70.69 114.74 69.45"/>
            <polygon points="118.26 69.08 115.06 77.58 113.05 77.57 116.22 69.11 118.26 69.08"/>
          </g>
        </g>
      </g>
      <g>
        <polygon class="cls-2" points="86.63 7.67 97.76 7.67 95.28 18.88 86.63 7.67"/>
        <polygon class="cls-3" points="97.76 7.67 107.86 18.88 95.28 18.88 97.76 7.67"/>
        <polygon class="cls-2" points="95.28 18.88 107.86 18.88 86.63 38.74 95.28 18.88"/>
        <polygon class="cls-2" points="86.63 7.66 75.5 7.66 77.97 18.87 86.63 7.66"/>
        <polygon class="cls-3" points="75.5 7.66 65.4 18.87 77.97 18.87 75.5 7.66"/>
        <polygon class="cls-2" points="77.97 18.87 65.4 18.87 86.63 38.74 77.97 18.87"/>
        <polygon class="cls-3" points="86.63 38.74 95.28 18.87 77.97 18.87 86.63 38.74"/>
        <polygon class="cls-7" points="86.63 7.66 77.97 18.87 95.28 18.87 86.63 7.66"/>
        <path class="cls-1" d="M78.49,20.51l4.69-6.08c.28-.36.22-.9-.14-1.18l-.91-.74c-.36-.29-.88-.22-1.16.14l-4.69,6.08c-.28.36-.22.9.14,1.18l.91.74c.36.29.88.22,1.16-.14Z"/>
      </g>
    </g>
  </g>
</svg>