<?xml version="1.0" encoding="UTF-8"?>
<svg id="_Слой_2" data-name="Слой 2" xmlns="http://www.w3.org/2000/svg" xmlns:xlink="http://www.w3.org/1999/xlink" viewBox="0 0 261.41 371.58">
  <defs>
    <style>
      .cls-1 {
        fill: #e2eaff;
      }

      .cls-2 {
        fill: #00a6c2;
      }

      .cls-3 {
        fill: #8e4a1a;
      }

      .cls-4 {
        fill: #00ccef;
      }

      .cls-5 {
        fill: #84848d;
      }

      .cls-6 {
        opacity: .92;
      }

      .cls-7 {
        fill: #e28548;
      }

      .cls-8 {
        fill: #fff;
      }

      .cls-9 {
        opacity: .25;
      }

      .cls-10 {
        fill: #2ce4ff;
      }

      .cls-11 {
        fill: url(#_Безымянный_градиент_37);
      }

      .cls-12 {
        fill: #b87339;
      }

      .cls-13 {
        fill: #ce6b26;
      }

      .cls-14 {
        opacity: .39;
      }

      .cls-15 {
        fill: #b75e20;
      }

      .cls-16 {
        opacity: .1;
      }

      .cls-17 {
        fill: #9999a4;
      }
    </style>
    <linearGradient id="_Безымянный_градиент_37" data-name="Безымянный градиент 37" x1="-17.41" y1="30.8" x2="278.82" y2="340.78" gradientUnits="userSpaceOnUse">
      <stop offset="0" stop-color="#007a87"/>
      <stop offset="1" stop-color="#006177"/>
    </linearGradient>
  </defs>
  <g id="_Слой_1-2" data-name="Слой 1">
    <g>
      <g>
        <path class="cls-11" d="M261.41,24.65v322.28c0,13.56-11.11,24.65-24.69,24.65H24.69c-3.6,0-7.02-.78-10.12-2.18t-.02-.01c-.29-.13-.57-.28-.85-.42-.2-.11-.4-.22-.6-.33-.06-.02-.11-.05-.16-.09-.94-.51-1.86-1.06-2.72-1.69-6.18-4.48-10.22-11.76-10.22-19.93V24.65C0,11.09,11.11,0,24.69,0h212.03c13.58,0,24.69,11.09,24.69,24.65Z"/>
        <path class="cls-16" d="M199.83,0L0,199.52V24.65C0,11.09,11.11,0,24.69,0h175.14Z"/>
        <path class="cls-16" d="M261.41,107.46v237.93c0,14.41-11.41,26.19-25.36,26.19H24.69c-3.6,0-7.02-.78-10.12-2.18t-.02-.01c-.29-.13-.57-.28-.85-.42-.2-.11-.4-.22-.6-.33-.06-.02-.11-.05-.16-.09-.94-.51-1.86-1.06-2.72-1.69l.05-.06h.01L261.41,107.46Z"/>
      </g>
      <g>
        <g>
          <polygon class="cls-2" points="40.25 57.41 62.34 48.72 66 72.38 40.25 57.41"/>
          <polygon class="cls-4" points="62.34 48.72 90.98 62.55 66 72.38 62.34 48.72"/>
          <polygon class="cls-2" points="66 72.38 90.98 62.55 64 117.63 66 72.38"/>
          <polygon class="cls-2" points="40.24 57.41 18.14 66.1 31.63 85.89 40.24 57.41"/>
          <polygon class="cls-4" points="18.14 66.1 6.65 95.71 31.63 85.89 18.14 66.1"/>
          <polygon class="cls-2" points="31.63 85.89 6.65 95.71 64 117.63 31.63 85.89"/>
          <polygon class="cls-4" points="64 117.63 66 72.37 31.63 85.89 64 117.63"/>
          <polygon class="cls-10" points="40.24 57.41 31.63 85.89 66 72.37 40.24 57.41"/>
        </g>
        <g class="cls-9">
          <polygon points="40.2 57.44 62.3 48.74 65.96 72.4 40.2 57.44"/>
          <polygon points="62.3 48.74 90.93 62.58 65.96 72.4 62.3 48.74"/>
          <polygon points="65.96 72.4 90.93 62.58 63.96 117.66 65.96 72.4"/>
          <polygon points="40.2 57.43 18.1 66.12 31.58 85.92 40.2 57.43"/>
          <polygon points="18.1 66.12 6.61 95.74 31.58 85.92 18.1 66.12"/>
          <polygon points="31.58 85.92 6.61 95.74 63.96 117.65 31.58 85.92"/>
          <polygon points="63.96 117.65 65.96 72.4 31.58 85.92 63.96 117.65"/>
          <polygon points="40.2 57.43 31.58 85.92 65.96 72.4 40.2 57.43"/>
          <rect x="23.51" y="77.1" width="19.65" height="5.99" rx="3" ry="3" transform="translate(-52.98 88.81) rotate(-73.17)"/>
        </g>
        <g>
          <polygon class="cls-2" points="33.79 135.01 45.94 124.66 53.44 138.91 33.79 135.01"/>
          <polygon class="cls-4" points="45.94 124.66 67.18 127.22 53.44 138.91 45.94 124.66"/>
          <polygon class="cls-2" points="53.44 138.91 67.18 127.22 62.07 168.13 53.44 138.91"/>
          <polygon class="cls-2" points="33.78 135.01 21.63 145.35 34.53 155 33.78 135.01"/>
          <polygon class="cls-4" points="21.63 145.35 20.8 166.7 34.53 155 21.63 145.35"/>
          <polygon class="cls-2" points="34.53 155 20.8 166.7 62.07 168.13 34.53 155"/>
          <polygon class="cls-4" points="62.07 168.13 53.44 138.91 34.53 155 62.07 168.13"/>
          <polygon class="cls-10" points="33.78 135.01 34.53 155 53.44 138.91 33.78 135.01"/>
        </g>
        <g>
          <polygon class="cls-2" points="222.33 58.49 246.54 74.56 225.31 94.79 222.33 58.49"/>
          <polygon class="cls-4" points="246.54 74.56 252.67 112.95 225.31 94.79 246.54 74.56"/>
          <polygon class="cls-2" points="225.31 94.79 252.67 112.95 178.41 124.45 225.31 94.79"/>
          <polygon class="cls-2" points="222.34 58.48 198.13 42.41 187.66 69.78 222.34 58.48"/>
          <polygon class="cls-4" points="198.13 42.41 160.31 51.62 187.66 69.78 198.13 42.41"/>
          <polygon class="cls-2" points="187.66 69.78 160.31 51.62 178.41 124.45 187.66 69.78"/>
          <polygon class="cls-4" points="178.41 124.45 225.32 94.78 187.66 69.78 178.41 124.45"/>
          <polygon class="cls-10" points="222.34 58.48 187.66 69.78 225.32 94.78 222.34 58.48"/>
        </g>
        <g class="cls-9">
          <polygon points="33.78 135 45.94 124.65 53.44 138.9 33.78 135"/>
          <polygon points="45.94 124.65 67.17 127.21 53.44 138.9 45.94 124.65"/>
          <polygon points="53.44 138.9 67.17 127.21 62.07 168.12 53.44 138.9"/>
          <polygon points="33.78 135 21.62 145.35 34.53 154.99 33.78 135"/>
          <polygon points="21.62 145.35 20.79 166.69 34.53 154.99 21.62 145.35"/>
          <polygon points="34.53 154.99 20.79 166.69 62.06 168.12 34.53 154.99"/>
          <polygon points="62.06 168.12 53.44 138.9 34.53 154.99 62.06 168.12"/>
          <polygon points="33.78 135 34.53 154.99 53.44 138.9 33.78 135"/>
          <rect x="27.76" y="148.89" width="13.21" height="4.03" rx="2.01" ry="2.01" transform="translate(-115.14 190.92) rotate(-92.15)"/>
        </g>
        <g class="cls-9">
          <polygon points="222.33 58.49 246.54 74.56 225.31 94.79 222.33 58.49"/>
          <polygon points="246.54 74.56 252.67 112.95 225.31 94.79 246.54 74.56"/>
          <polygon points="225.31 94.79 252.67 112.95 178.41 124.45 225.31 94.79"/>
          <polygon points="222.34 58.48 198.13 42.41 187.66 69.78 222.34 58.48"/>
          <polygon points="198.13 42.41 160.31 51.62 187.66 69.78 198.13 42.41"/>
          <polygon points="187.66 69.78 160.31 51.62 178.41 124.45 187.66 69.78"/>
          <polygon points="178.41 124.45 225.32 94.78 187.66 69.78 178.41 124.45"/>
          <polygon points="222.34 58.48 187.66 69.78 225.32 94.78 222.34 58.48"/>
          <rect x="182.7" y="63.8" width="24.08" height="7.33" rx="3.66" ry="3.66" transform="translate(-11.32 63.66) rotate(-18.05)"/>
        </g>
        <g>
          <polygon class="cls-2" points="235.96 135.57 245.78 143.23 236.05 151.18 235.96 135.57"/>
          <polygon class="cls-4" points="245.78 143.23 247.14 159.83 236.05 151.18 245.78 143.23"/>
          <polygon class="cls-2" points="236.05 151.18 247.14 159.83 215.04 162.33 236.05 151.18"/>
          <polygon class="cls-2" points="235.96 135.57 226.14 127.91 220.78 139.27 235.96 135.57"/>
          <polygon class="cls-4" points="226.14 127.91 209.68 130.62 220.78 139.27 226.14 127.91"/>
          <polygon class="cls-2" points="220.78 139.27 209.68 130.62 215.04 162.33 220.78 139.27"/>
          <polygon class="cls-4" points="215.04 162.33 236.05 151.18 220.78 139.27 215.04 162.33"/>
          <polygon class="cls-10" points="235.96 135.57 220.78 139.27 236.05 151.18 235.96 135.57"/>
        </g>
        <g class="cls-9">
          <polygon points="235.96 135.68 245.78 143.33 236.05 151.28 235.96 135.68"/>
          <polygon points="245.78 143.33 247.14 159.93 236.05 151.28 245.78 143.33"/>
          <polygon points="236.05 151.28 247.14 159.93 215.04 162.43 236.05 151.28"/>
          <polygon points="235.96 135.67 226.14 128.02 220.78 139.37 235.96 135.67"/>
          <polygon points="226.14 128.02 209.68 130.72 220.78 139.37 226.14 128.02"/>
          <polygon points="220.78 139.37 209.68 130.72 215.04 162.43 220.78 139.37"/>
          <polygon points="215.04 162.43 236.05 151.28 220.78 139.37 215.04 162.43"/>
          <polygon points="235.96 135.67 220.78 139.37 236.05 151.28 235.96 135.67"/>
        </g>
        <g>
          <path class="cls-5" d="M170.77,75.18v19.86c0,5.89-2.89,11.1-7.33,14.31v-36.26c0-4.17-3.38-7.55-7.56-7.55h-45.56c-4.17,0-7.56,3.38-7.56,7.55v36.26c-4.44-3.2-7.33-8.43-7.33-14.31v-19.86c0-9.76,7.92-17.67,17.69-17.67h39.93c9.77,0,17.69,7.91,17.69,17.67Z"/>
          <rect class="cls-17" x="90.74" y="77.21" width="16.25" height="5.41" rx="2.7" ry="2.7"/>
          <rect class="cls-17" x="158.87" y="77.21" width="16.25" height="5.41" rx="2.7" ry="2.7"/>
          <path class="cls-13" d="M227.36,98.25v51.4h-.35v-43.28c0-9.76-7.93-17.67-17.7-17.67H56.19c-8.55,0-15.69,6.06-17.34,14.11v-4.56c0-9.77,7.91-17.67,17.68-17.67h153.14c9.77,0,17.68,7.9,17.68,17.67Z"/>
          <path class="cls-3" d="M227.37,149.64v51.41c0,9.76-7.92,17.67-17.69,17.67H56.54c-9.77,0-17.69-7.91-17.69-17.67v-51.41h188.52Z"/>
          <path class="cls-15" d="M227.02,106.37v43.28H38.85v-46.84c1.65-8.05,8.79-14.11,17.34-14.11h153.13c9.77,0,17.7,7.92,17.7,17.67Z"/>
          <path class="cls-12" d="M227.02,149.65v8.13H38.49v-51.4c0-1.22.12-2.42.36-3.56v46.84h188.16Z"/>
          <rect class="cls-7" x="122.57" y="80.57" width="21.32" height="138.15"/>
        </g>
        <g>
          <polygon class="cls-2" points="199.34 170.36 228.41 170.36 221.95 198.94 199.34 170.36"/>
          <polygon class="cls-4" points="228.41 170.36 254.8 198.94 221.95 198.94 228.41 170.36"/>
          <polygon class="cls-2" points="221.95 198.94 254.8 198.94 199.34 249.57 221.95 198.94"/>
          <polygon class="cls-2" points="199.34 170.35 170.27 170.35 176.73 198.93 199.34 170.35"/>
          <polygon class="cls-4" points="170.27 170.35 143.88 198.93 176.73 198.93 170.27 170.35"/>
          <polygon class="cls-2" points="176.73 198.93 143.88 198.93 199.34 249.57 176.73 198.93"/>
          <polygon class="cls-4" points="199.34 249.57 221.95 198.93 176.73 198.93 199.34 249.57"/>
          <polygon class="cls-10" points="199.34 170.35 176.73 198.93 221.95 198.93 199.34 170.35"/>
          <path class="cls-1" d="M179.03,201.92l10.38-13.12c1.25-1.58.98-3.9-.6-5.15h0c-1.58-1.25-3.9-.98-5.15.6l-10.38,13.12c-1.25,1.58-.98,3.9.6,5.15h0c1.58,1.25,3.9.98,5.15-.6Z"/>
        </g>
        <g class="cls-16">
          <polygon points="199.33 170.36 228.4 170.36 221.94 198.94 199.33 170.36"/>
          <polygon points="228.4 170.36 254.79 198.94 221.94 198.94 228.4 170.36"/>
          <polygon points="221.94 198.94 254.79 198.94 199.33 249.57 221.94 198.94"/>
          <polygon points="199.33 170.35 170.26 170.35 176.72 198.93 199.33 170.35"/>
          <polygon points="170.26 170.35 143.87 198.93 176.72 198.93 170.26 170.35"/>
          <polygon points="176.72 198.93 143.87 198.93 199.33 249.57 176.72 198.93"/>
          <polygon points="199.33 249.57 221.94 198.93 176.72 198.93 199.33 249.57"/>
          <polygon points="199.33 170.35 176.72 198.93 221.94 198.93 199.33 170.35"/>
          <path d="M179.02,201.91l10.38-13.12c1.25-1.58.98-3.9-.6-5.15h0c-1.58-1.25-3.9-.98-5.15.6l-10.38,13.12c-1.25,1.58-.98,3.9.6,5.15h0c1.58,1.25,3.9.98,5.15-.6Z"/>
        </g>
        <g>
          <polygon class="cls-2" points="130.74 210.37 150.39 208.71 147.66 228.4 130.74 210.37"/>
          <polygon class="cls-4" points="150.39 208.71 169.86 226.52 147.66 228.4 150.39 208.71"/>
          <polygon class="cls-2" points="147.66 228.4 169.86 226.52 135.28 263.92 147.66 228.4"/>
          <polygon class="cls-2" points="130.74 210.37 111.09 212.03 117.09 230.98 130.74 210.37"/>
          <polygon class="cls-4" points="111.09 212.03 94.89 232.85 117.09 230.98 111.09 212.03"/>
          <polygon class="cls-2" points="117.09 230.98 94.89 232.85 135.28 263.91 117.09 230.98"/>
          <polygon class="cls-4" points="135.28 263.91 147.66 228.39 117.09 230.98 135.28 263.91"/>
          <polygon class="cls-10" points="130.74 210.37 117.09 230.98 147.66 228.39 130.74 210.37"/>
          <path class="cls-1" d="M118.6,233.19l6.7-10.11c.64-.96.37-2.27-.59-2.9l-.65-.43c-.96-.63-2.27-.37-2.9.59l-6.7,10.11c-.64.96-.37,2.27.59,2.9l.65.43c.96.63,2.27.37,2.9-.59Z"/>
        </g>
        <g>
          <polygon class="cls-2" points="67.33 93.46 83.29 87.61 85.51 104.59 67.33 93.46"/>
          <polygon class="cls-4" points="83.29 87.61 103.54 97.97 85.51 104.59 83.29 87.61"/>
          <polygon class="cls-2" points="85.51 104.59 103.54 97.97 83.34 136.93 85.51 104.59"/>
          <polygon class="cls-2" points="67.33 93.46 51.38 99.32 60.7 113.7 67.33 93.46"/>
          <polygon class="cls-4" points="51.38 99.32 42.68 120.31 60.7 113.7 51.38 99.32"/>
          <polygon class="cls-2" points="60.7 113.7 42.68 120.31 83.34 136.93 60.7 113.7"/>
          <polygon class="cls-4" points="83.34 136.93 85.51 104.59 60.7 113.7 83.34 136.93"/>
          <polygon class="cls-10" points="67.33 93.46 60.7 113.7 85.51 104.59 67.33 93.46"/>
          <rect class="cls-1" x="55.02" y="107.41" width="14.06" height="4.29" rx="2.14" ry="2.14" transform="translate(-61.38 134.41) rotate(-71.86)"/>
        </g>
        <g>
          <path class="cls-5" d="M136.94,141.91h-7.42c-5.18,0-9.42,3.88-9.42,8.63v13.99c0,4.75,4.24,8.63,9.42,8.63h7.42c5.18,0,9.42-3.88,9.42-8.63v-13.99c0-4.75-4.24-8.63-9.42-8.63ZM142.64,162.45c0,3.42-3.05,6.22-6.78,6.22h-5.26c-3.73,0-6.78-2.8-6.78-6.22v-9.81c0-3.42,3.05-6.22,6.78-6.22h5.26c3.73,0,6.78,2.8,6.78,6.22v9.81Z"/>
          <rect class="cls-5" x="130.3" y="161.84" width="5.85" height="15.51"/>
        </g>
        <g>
          <g>
            <g>
              <polygon class="cls-4" points="29.43 209.4 15.78 225.55 44.77 220.4 29.43 209.4"/>
              <polygon class="cls-2" points="44.77 220.4 15.78 225.55 72.34 248.64 44.77 220.4"/>
              <polygon class="cls-4" points="44.77 220.4 60.01 214.78 72.34 248.64 44.77 220.4"/>
              <polygon class="cls-4" points="75.41 209.09 75.41 209.1 75.4 209.09 75.41 209.09"/>
              <polygon class="cls-10" points="57.03 206.59 57.03 206.59 57.03 206.59 60.01 214.78 44.77 220.4 57.03 206.59"/>
              <polygon class="cls-2" points="29.43 209.4 25.25 198.31 15.78 225.55 29.43 209.4"/>
              <g>
                <polygon class="cls-2" points="57.03 206.59 57.03 206.59 57.02 206.6 44.77 220.4 29.43 209.4 35.03 208.83 34.76 209.86 39.96 211.19 40.71 208.25 44.54 207.86 43.99 210.01 49.18 211.34 50.22 207.28 57.03 206.59"/>
                <g>
                  <polygon class="cls-2" points="57.03 206.59 79.97 190.99 75.29 209.29 57.03 206.59"/>
                  <polygon class="cls-4" points="79.97 190.99 100.8 194.58 75.29 209.29 79.97 190.99"/>
                  <polygon class="cls-2" points="75.29 209.29 100.8 194.58 72.34 248.64 75.29 209.29"/>
                  <polygon class="cls-4" points="75.29 209.29 60.01 214.78 72.34 248.64 75.29 209.29"/>
                  <polygon class="cls-4" points="44.56 220.33 44.56 220.33 44.57 220.32 44.56 220.33"/>
                  <polygon class="cls-10" points="57.03 206.59 57.02 206.6 57.03 206.6 60.01 214.78 75.29 209.29 57.03 206.59"/>
                  <polygon class="cls-2" points="79.97 190.99 76.03 179.81 100.8 194.58 79.97 190.99"/>
                </g>
              </g>
            </g>
            <polygon class="cls-2" points="43.47 206.65 41.95 212.59 31.44 209.9 31.97 207.82 43.47 206.65"/>
            <polygon class="cls-2" points="52.13 205.86 50.39 212.63 41.7 210.41 42.62 206.82 52.13 205.86"/>
            <polygon class="cls-10" points="76.03 179.81 79.97 190.99 57.03 206.59 57.03 206.59 50.22 207.28 44.54 207.86 40.71 208.25 35.03 208.83 29.43 209.4 25.25 198.31 40.18 188.68 46.81 184.41 46.81 184.4 48.54 183.29 50.89 182.99 56.62 182.27 76.03 179.81"/>
          </g>
          <polygon class="cls-4" points="44.77 220.4 72.34 248.64 75.4 209.09 44.77 220.4"/>
          <polygon class="cls-10" points="57.03 206.59 44.77 220.4 75.4 209.09 57.03 206.59"/>
          <g class="cls-6">
            <polygon class="cls-8" points="46.81 184.41 40.71 208.25 35.03 208.83 40.18 188.68 46.81 184.41"/>
            <polygon class="cls-8" points="56.62 182.27 50.22 207.28 44.54 207.86 50.89 182.99 56.62 182.27"/>
          </g>
        </g>
        <g>
          <g>
            <g>
              <polygon class="cls-4" points="183.09 99.42 168.71 100.93 185.46 112.11 183.09 99.42"/>
              <polygon class="cls-2" points="185.46 112.11 168.71 100.93 185.71 139.11 185.46 112.11"/>
              <polygon class="cls-4" points="185.46 112.11 195.65 116.55 185.71 139.11 185.46 112.11"/>
              <polygon class="cls-4" points="205.94 121.03 205.94 121.03 205.94 121.03 205.94 121.03"/>
              <polygon class="cls-10" points="198.05 111.09 198.05 111.1 198.05 111.1 195.65 116.55 185.46 112.11 198.05 111.09"/>
              <polygon class="cls-2" points="183.09 99.42 186.28 91.96 168.71 100.93 183.09 99.42"/>
              <g>
                <polygon class="cls-2" points="198.05 111.09 198.05 111.09 198.04 111.09 185.46 112.11 183.09 99.42 186.12 101.79 185.51 102.17 187.45 105.29 189.21 104.19 191.28 105.81 189.99 106.61 191.93 109.73 194.36 108.21 198.05 111.09"/>
                <g>
                  <polygon class="cls-2" points="198.05 111.09 216.76 114.25 205.79 121.07 198.05 111.09"/>
                  <polygon class="cls-4" points="216.76 114.25 225.35 125.88 205.79 121.07 216.76 114.25"/>
                  <polygon class="cls-2" points="205.79 121.07 225.35 125.88 185.71 139.11 205.79 121.07"/>
                  <polygon class="cls-4" points="205.79 121.07 195.65 116.55 185.71 139.11 205.79 121.07"/>
                  <polygon class="cls-4" points="185.39 111.98 185.39 111.98 185.4 111.98 185.39 111.98"/>
                  <polygon class="cls-10" points="198.05 111.09 198.04 111.09 198.05 111.1 195.65 116.55 205.79 121.07 198.05 111.09"/>
                  <polygon class="cls-2" points="216.76 114.25 220.11 106.86 225.35 125.88 216.76 114.25"/>
                </g>
              </g>
            </g>
            <polygon class="cls-2" points="191.33 104.71 187.77 106.92 183.84 100.62 185.09 99.84 191.33 104.71"/>
            <polygon class="cls-2" points="195.98 108.41 191.91 110.94 188.67 105.73 190.83 104.39 195.98 108.41"/>
            <polygon class="cls-10" points="220.11 106.86 216.76 114.25 198.05 111.09 198.05 111.09 194.36 108.21 191.28 105.81 189.21 104.19 186.12 101.79 183.09 99.42 186.28 91.96 198.2 94.27 203.5 95.3 203.51 95.3 204.89 95.57 206.19 96.53 209.36 98.89 220.11 106.86"/>
          </g>
          <polygon class="cls-4" points="185.46 112.11 185.71 139.11 205.94 121.03 185.46 112.11"/>
          <polygon class="cls-10" points="198.05 111.09 185.46 112.11 205.94 121.03 198.05 111.09"/>
          <g class="cls-6">
            <polygon class="cls-8" points="203.5 95.3 189.21 104.19 186.12 101.79 198.2 94.27 203.5 95.3"/>
            <polygon class="cls-8" points="209.36 98.89 194.36 108.21 191.28 105.81 206.19 96.53 209.36 98.89"/>
          </g>
        </g>
        <path class="cls-8" d="M20.85,197.94l-3.58-7.7c-.37-.8.55-1.57,1.27-1.06l6.97,4.86c2.7,1.89,6.2,2.19,9.19.81l7.71-3.58c.8-.37,1.57.55,1.07,1.27l-4.87,6.96c-1.89,2.7-2.2,6.19-.81,9.18l3.58,7.7c.37.8-.55,1.57-1.27,1.06l-6.97-4.86c-2.7-1.89-6.2-2.19-9.19-.81l-7.71,3.58c-.8.37-1.57-.55-1.07-1.27l4.87-6.96c1.89-2.7,2.2-6.19.81-9.18Z"/>
        <path class="cls-8" d="M167.55,156.17l2.83-10.76c.29-1.11,1.87-1.12,2.17-.01l2.97,10.72c1.15,4.16,4.43,7.39,8.61,8.48l10.78,2.82c1.11.29,1.12,1.87.01,2.17l-10.74,2.96c-4.16,1.15-7.4,4.42-8.49,8.59l-2.83,10.76c-.29,1.11-1.87,1.12-2.17.01l-2.97-10.72c-1.15-4.16-4.43-7.39-8.61-8.48l-10.78-2.82c-1.11-.29-1.12-1.87-.01-2.17l10.74-2.96c4.16-1.15,7.4-4.42,8.49-8.59Z"/>
        <path class="cls-8" d="M186.71,91.14l3.97-3.62c.41-.37,1.05.03.89.56l-1.61,5.13c-.63,1.99-.15,4.16,1.26,5.7l3.63,3.97c.37.41-.03,1.05-.56.88l-5.13-1.61c-1.99-.62-4.16-.14-5.7,1.26l-3.97,3.62c-.41.37-1.05-.03-.89-.56l1.61-5.13c.63-1.99.15-4.16-1.26-5.7l-3.63-3.97c-.37-.41.03-1.05.56-.88l5.13,1.61c1.99.62,4.16.14,5.7-1.26Z"/>
      </g>
      <g>
        <g>
          <g>
            <polygon class="cls-4" points="195.95 226.55 180.92 226.25 196.75 239.95 195.95 226.55"/>
            <polygon class="cls-2" points="196.75 239.95 180.92 226.25 193.52 267.82 196.75 239.95"/>
            <polygon class="cls-4" points="196.75 239.95 206.69 245.84 193.52 267.82 196.75 239.95"/>
            <polygon class="cls-4" points="216.72 251.79 216.72 251.79 216.72 251.78 216.72 251.79"/>
            <polygon class="cls-10" points="209.87 240.52 209.87 240.53 209.87 240.52 206.69 245.84 196.75 239.95 209.87 240.52"/>
            <polygon class="cls-2" points="195.95 226.55 200.2 219.27 180.92 226.25 195.95 226.55"/>
            <g>
              <polygon class="cls-2" points="209.87 240.52 209.87 240.52 209.86 240.52 196.75 239.95 195.95 226.55 198.77 229.38 198.08 229.7 199.68 233.17 201.64 232.26 203.57 234.2 202.14 234.86 203.73 238.32 206.43 237.08 209.87 240.52"/>
              <g>
                <polygon class="cls-2" points="209.87 240.52 228.76 246.19 216.57 251.81 209.87 240.52"/>
                <polygon class="cls-4" points="228.76 246.19 236.11 259.3 216.57 251.81 228.76 246.19"/>
                <polygon class="cls-2" points="216.57 251.81 236.11 259.3 193.52 267.82 216.57 251.81"/>
                <polygon class="cls-4" points="216.57 251.81 206.68 245.84 193.52 267.82 216.57 251.81"/>
                <polygon class="cls-4" points="196.7 239.8 196.7 239.8 196.7 239.8 196.7 239.8"/>
                <polygon class="cls-10" points="209.87 240.52 209.86 240.52 209.87 240.52 206.68 245.84 216.57 251.81 209.87 240.52"/>
                <polygon class="cls-2" points="228.76 246.19 233.16 239.01 236.11 259.3 228.76 246.19"/>
              </g>
            </g>
          </g>
          <polygon class="cls-2" points="203.76 233.07 199.8 234.89 196.57 227.88 197.96 227.24 203.76 233.07"/>
          <polygon class="cls-2" points="208.08 237.49 203.56 239.57 200.89 233.78 203.28 232.68 208.08 237.49"/>
          <polygon class="cls-10" points="233.16 239.01 228.76 246.19 209.87 240.52 209.87 240.52 206.43 237.08 203.57 234.2 201.64 232.26 198.77 229.38 195.95 226.55 200.2 219.27 212.2 223.2 217.53 224.94 217.54 224.94 218.93 225.4 220.14 226.56 223.11 229.39 233.16 239.01"/>
        </g>
        <polygon class="cls-4" points="196.75 239.95 193.52 267.82 216.72 251.78 196.75 239.95"/>
        <polygon class="cls-10" points="209.87 240.52 196.75 239.95 216.72 251.78 209.87 240.52"/>
        <g class="cls-6">
          <polygon class="cls-8" points="217.53 224.94 201.64 232.26 198.77 229.38 212.2 223.2 217.53 224.94"/>
          <polygon class="cls-8" points="223.11 229.39 206.43 237.08 203.57 234.2 220.14 226.56 223.11 229.39"/>
        </g>
      </g>
      <g>
        <g>
          <g>
            <polygon class="cls-4" points="78.78 26.61 73.73 31.41 83.41 30.77 78.78 26.61"/>
            <polygon class="cls-2" points="83.41 30.77 73.73 31.41 91.43 41 83.41 30.77"/>
            <polygon class="cls-4" points="83.41 30.76 88.6 29.47 91.43 41 83.41 30.76"/>
            <polygon class="cls-4" points="93.85 28.16 93.85 28.16 93.84 28.16 93.85 28.16"/>
            <polygon class="cls-10" points="87.92 26.68 87.92 26.68 87.92 26.68 88.6 29.47 83.41 30.76 87.92 26.68"/>
            <polygon class="cls-2" points="78.78 26.61 77.81 22.83 73.73 31.41 78.78 26.61"/>
            <g>
              <polygon class="cls-2" points="87.92 26.68 87.92 26.68 87.92 26.68 83.41 30.76 78.78 26.61 80.63 26.63 80.51 26.96 82.17 27.58 82.52 26.64 83.78 26.65 83.52 27.33 85.18 27.95 85.66 26.66 87.92 26.68"/>
              <g>
                <polygon class="cls-2" points="87.92 26.68 95.99 22.39 93.8 28.22 87.92 26.68"/>
                <polygon class="cls-4" points="95.99 22.39 102.68 24.31 93.8 28.22 95.99 22.39"/>
                <polygon class="cls-2" points="93.8 28.22 102.68 24.31 91.43 41 93.8 28.22"/>
                <polygon class="cls-4" points="93.8 28.22 88.6 29.47 91.43 41 93.8 28.22"/>
                <polygon class="cls-4" points="83.34 30.73 83.34 30.73 83.35 30.73 83.34 30.73"/>
                <polygon class="cls-10" points="87.92 26.68 87.92 26.68 87.92 26.68 88.6 29.47 93.8 28.22 87.92 26.68"/>
                <polygon class="cls-2" points="95.99 22.39 95.1 18.59 102.68 24.31 95.99 22.39"/>
              </g>
            </g>
          </g>
          <polygon class="cls-2" points="83.48 26.22 82.77 28.11 79.42 26.85 79.67 26.19 83.48 26.22"/>
          <polygon class="cls-2" points="86.34 26.26 85.53 28.42 82.76 27.38 83.19 26.24 86.34 26.26"/>
          <polygon class="cls-10" points="95.1 18.59 95.99 22.39 87.92 26.68 87.92 26.68 85.66 26.66 83.78 26.65 82.52 26.64 80.63 26.63 78.78 26.61 77.81 22.83 83.04 20.21 85.36 19.05 85.37 19.05 85.97 18.75 86.75 18.73 88.65 18.7 95.1 18.59"/>
        </g>
        <polygon class="cls-4" points="83.41 30.77 91.43 41 93.84 28.16 83.41 30.77"/>
        <polygon class="cls-10" points="87.92 26.68 83.41 30.77 93.84 28.16 87.92 26.68"/>
        <g class="cls-6">
          <polygon class="cls-8" points="85.36 19.05 82.52 26.64 80.63 26.63 83.04 20.21 85.36 19.05"/>
          <polygon class="cls-8" points="88.65 18.7 85.66 26.66 83.78 26.65 86.75 18.73 88.65 18.7"/>
        </g>
      </g>
      <g class="cls-14">
        <g>
          <g>
            <polygon points="78.78 26.61 73.73 31.41 83.41 30.76 78.78 26.61"/>
            <polygon points="83.41 30.76 73.73 31.41 91.43 40.99 83.41 30.76"/>
            <polygon points="83.41 30.76 88.6 29.47 91.43 40.99 83.41 30.76"/>
            <polygon points="93.85 28.15 93.85 28.16 93.84 28.15 93.85 28.15"/>
            <polygon points="87.92 26.68 87.92 26.68 87.92 26.68 88.6 29.47 83.41 30.76 87.92 26.68"/>
            <polygon points="78.78 26.61 77.81 22.83 73.73 31.41 78.78 26.61"/>
            <g>
              <polygon points="87.92 26.68 87.92 26.68 87.92 26.68 83.41 30.76 78.78 26.61 80.63 26.63 80.51 26.95 82.17 27.57 82.52 26.64 83.78 26.65 83.52 27.33 85.18 27.95 85.66 26.66 87.92 26.68"/>
              <g>
                <polygon points="87.92 26.68 95.99 22.39 93.8 28.21 87.92 26.68"/>
                <polygon points="95.99 22.39 102.68 24.31 93.8 28.21 95.99 22.39"/>
                <polygon points="93.8 28.21 102.68 24.31 91.43 40.99 93.8 28.21"/>
                <polygon points="93.8 28.21 88.6 29.47 91.43 40.99 93.8 28.21"/>
                <polygon points="83.34 30.73 83.34 30.73 83.35 30.73 83.34 30.73"/>
                <polygon points="87.92 26.68 87.92 26.68 87.92 26.68 88.6 29.47 93.8 28.21 87.92 26.68"/>
                <polygon points="95.99 22.39 95.1 18.59 102.68 24.31 95.99 22.39"/>
              </g>
            </g>
          </g>
          <polygon points="83.48 26.21 82.77 28.1 79.42 26.85 79.67 26.19 83.48 26.21"/>
          <polygon points="86.34 26.26 85.53 28.42 82.76 27.38 83.19 26.24 86.34 26.26"/>
          <polygon points="95.1 18.59 95.99 22.39 87.92 26.68 87.92 26.68 85.66 26.66 83.78 26.65 82.52 26.64 80.63 26.63 78.78 26.61 77.81 22.83 83.04 20.21 85.37 19.05 85.37 19.05 85.97 18.74 86.75 18.73 88.65 18.7 95.1 18.59"/>
        </g>
        <polygon points="83.41 30.76 91.43 40.99 93.84 28.15 83.41 30.76"/>
        <polygon points="87.92 26.68 83.41 30.76 93.84 28.15 87.92 26.68"/>
        <g class="cls-6">
          <polygon points="85.37 19.05 82.52 26.64 80.63 26.63 83.04 20.21 85.37 19.05"/>
          <polygon points="88.65 18.7 85.66 26.66 83.78 26.65 86.75 18.73 88.65 18.7"/>
        </g>
      </g>
    </g>
  </g>
</svg>