<?xml version="1.0" encoding="UTF-8"?>
<svg id="_Слой_2" data-name="Слой 2" xmlns="http://www.w3.org/2000/svg" xmlns:xlink="http://www.w3.org/1999/xlink" viewBox="0 0 261.41 371.58">
  <defs>
    <style>
      .cls-1 {
        fill: #e2eaff;
      }

      .cls-2 {
        fill: #00a6c2;
      }

      .cls-3 {
        fill: #00ccef;
      }

      .cls-4 {
        fill: #c5773f;
      }

      .cls-5 {
        fill: #b2801a;
      }

      .cls-6 {
        fill: #c3861e;
      }

      .cls-7 {
        fill: #85461e;
      }

      .cls-8 {
        opacity: .92;
      }

      .cls-9 {
        fill: #ccaa6e;
      }

      .cls-10 {
        opacity: .3;
      }

      .cls-11 {
        fill: #fff;
      }

      .cls-12 {
        opacity: .25;
      }

      .cls-13 {
        opacity: .4;
      }

      .cls-14 {
        fill: #2ce4ff;
      }

      .cls-15 {
        fill: url(#_Безымянный_градиент_37);
      }

      .cls-16 {
        opacity: .15;
      }

      .cls-17 {
        opacity: .2;
      }

      .cls-18 {
        opacity: .1;
      }

      .cls-19 {
        fill: #cca352;
      }

      .cls-20 {
        fill: #d3a54c;
      }

      .cls-21 {
        fill: #bc8919;
      }

      .cls-22 {
        fill: #ce921e;
      }

      .cls-23 {
        fill: #ce961c;
      }

      .cls-24 {
        opacity: .08;
      }
    </style>
    <linearGradient id="_Безымянный_градиент_37" data-name="Безымянный градиент 37" x1="-17.41" y1="30.8" x2="278.82" y2="340.78" gradientUnits="userSpaceOnUse">
      <stop offset="0" stop-color="#007a87"/>
      <stop offset="1" stop-color="#006177"/>
    </linearGradient>
  </defs>
  <g id="_Слой_1-2" data-name="Слой 1">
    <g>
      <g>
        <path class="cls-15" d="M261.41,24.65v322.28c0,13.56-11.11,24.65-24.69,24.65H24.69c-3.6,0-7.02-.78-10.12-2.18t-.02-.01c-.29-.13-.57-.28-.85-.42-.2-.11-.4-.22-.6-.33-.06-.02-.11-.05-.16-.09-.94-.51-1.86-1.06-2.72-1.69-6.18-4.48-10.22-11.76-10.22-19.93V24.65C0,11.09,11.11,0,24.69,0h212.03c13.58,0,24.69,11.09,24.69,24.65Z"/>
        <path class="cls-18" d="M199.83,0L0,199.52V24.65C0,11.09,11.11,0,24.69,0h175.14Z"/>
        <path class="cls-18" d="M261.41,107.46v237.93c0,14.41-11.41,26.19-25.36,26.19H24.69c-3.6,0-7.02-.78-10.12-2.18t-.02-.01c-.29-.13-.57-.28-.85-.42-.2-.11-.4-.22-.6-.33-.06-.02-.11-.05-.16-.09-.94-.51-1.86-1.06-2.72-1.69l.05-.06h.01L261.41,107.46Z"/>
      </g>
      <g>
        <g>
          <polygon class="cls-7" points="52.2 222.78 141.09 175.26 141.09 76.13 52.2 123.64 52.2 222.78"/>
          <polygon class="cls-4" points="60.56 128.41 52.2 136.1 52.2 123.95 60.56 128.41"/>
          <polygon class="cls-21" points="141.09 175.26 229.98 222.78 229.98 123.64 141.09 76.13 141.09 175.26"/>
          <polygon class="cls-5" points="52.2 123.95 141.3 76.38 103.06 59.25 21.23 98.92 52.2 123.95"/>
          <polygon class="cls-21" points="141.3 76.38 229.98 123.95 257.88 94.16 176.18 54.61 141.3 76.38"/>
          <g>
            <g>
              <g>
                <polygon class="cls-3" points="117.08 86.38 104.82 95.07 125.69 96.67 117.08 86.38"/>
                <polygon class="cls-2" points="125.69 96.67 104.82 95.07 139.66 121 125.69 96.67"/>
                <polygon class="cls-3" points="125.69 96.67 137.18 95.5 139.66 121 125.69 96.67"/>
                <polygon class="cls-3" points="148.79 94.32 148.79 94.33 148.78 94.32 148.79 94.32"/>
                <polygon class="cls-14" points="136.58 89.34 136.58 89.34 136.58 89.34 137.18 95.5 125.69 96.67 136.58 89.34"/>
                <polygon class="cls-2" points="117.08 86.38 116.17 77.99 104.82 95.07 117.08 86.38"/>
                <g>
                  <polygon class="cls-2" points="136.58 89.34 136.58 89.34 136.58 89.34 125.69 96.67 117.08 86.38 121.03 86.98 120.67 87.64 124.02 89.48 125.05 87.59 127.75 88 126.99 89.38 130.34 91.22 131.77 88.61 136.58 89.34"/>
                  <g>
                    <polygon class="cls-2" points="136.58 89.34 155.14 82.67 148.67 94.44 136.58 89.34"/>
                    <polygon class="cls-3" points="155.14 82.67 168.85 88.84 148.67 94.44 155.14 82.67"/>
                    <polygon class="cls-2" points="148.67 94.44 168.85 88.84 139.66 121 148.67 94.44"/>
                    <polygon class="cls-3" points="148.67 94.44 137.18 95.5 139.66 121 148.67 94.44"/>
                    <polygon class="cls-3" points="125.56 96.58 125.56 96.59 125.57 96.58 125.56 96.58"/>
                    <polygon class="cls-14" points="136.58 89.34 136.58 89.34 136.58 89.34 137.18 95.5 148.67 94.44 136.58 89.34"/>
                    <polygon class="cls-2" points="155.14 82.67 154.41 74.27 168.85 88.84 155.14 82.67"/>
                  </g>
                </g>
              </g>
              <polygon class="cls-2" points="127.24 86.98 125.14 90.79 118.37 87.08 119.11 85.74 127.24 86.98"/>
              <polygon class="cls-2" points="133.34 87.96 130.94 92.32 125.35 89.25 126.62 86.94 133.34 87.96"/>
              <polygon class="cls-14" points="154.41 74.28 155.14 82.67 136.58 89.34 136.58 89.34 131.77 88.61 127.75 88 125.05 87.59 121.03 86.98 117.08 86.38 116.17 78 128.16 74.02 133.48 72.25 133.49 72.25 134.87 71.79 136.54 72 140.61 72.52 154.41 74.28"/>
            </g>
            <polygon class="cls-3" points="125.69 96.67 139.66 121 148.78 94.32 125.69 96.67"/>
            <polygon class="cls-14" points="136.58 89.34 125.69 96.67 148.78 94.32 136.58 89.34"/>
            <polygon class="cls-14" points="136.58 89.34 125.69 96.67 148.78 94.32 136.58 89.34"/>
            <polygon class="cls-3" points="125.69 96.67 139.66 121 148.78 94.32 125.69 96.67"/>
          </g>
          <g class="cls-13">
            <g>
              <g>
                <polygon points="117.08 86.37 104.82 95.07 125.69 96.67 117.08 86.37"/>
                <polygon points="125.69 96.67 104.82 95.07 139.66 121 125.69 96.67"/>
                <polygon points="125.69 96.67 137.18 95.5 139.66 121 125.69 96.67"/>
                <polygon points="148.79 94.32 148.79 94.32 148.78 94.32 148.79 94.32"/>
                <polygon points="136.58 89.33 136.58 89.34 136.58 89.34 137.18 95.5 125.69 96.67 136.58 89.33"/>
                <polygon points="117.08 86.37 116.18 77.99 104.82 95.07 117.08 86.37"/>
                <g>
                  <polygon points="136.58 89.33 136.58 89.34 136.58 89.34 125.69 96.67 117.08 86.37 121.04 86.97 120.67 87.63 124.02 89.47 125.05 87.58 127.75 87.99 127 89.37 130.34 91.21 131.77 88.6 136.58 89.33"/>
                  <g>
                    <polygon points="136.58 89.33 155.14 82.67 148.68 94.43 136.58 89.33"/>
                    <polygon points="155.14 82.67 168.85 88.84 148.68 94.43 155.14 82.67"/>
                    <polygon points="148.68 94.43 168.85 88.84 139.66 121 148.68 94.43"/>
                    <polygon points="148.68 94.43 137.18 95.5 139.66 121 148.68 94.43"/>
                    <polygon points="125.56 96.58 125.56 96.58 125.57 96.58 125.56 96.58"/>
                    <polygon points="136.58 89.33 136.58 89.34 136.58 89.34 137.18 95.5 148.68 94.43 136.58 89.33"/>
                    <polygon points="155.14 82.67 154.41 74.27 168.85 88.84 155.14 82.67"/>
                  </g>
                </g>
              </g>
              <polygon points="127.24 86.97 125.14 90.79 118.38 87.07 119.11 85.73 127.24 86.97"/>
              <polygon points="133.34 87.96 130.94 92.32 125.35 89.24 126.62 86.94 133.34 87.96"/>
              <polygon points="154.41 74.27 155.14 82.67 136.58 89.33 136.58 89.33 131.77 88.6 127.75 87.99 125.05 87.58 121.04 86.97 117.08 86.37 116.17 77.99 128.16 74.01 133.48 72.25 133.49 72.25 134.87 71.79 136.54 72 140.62 72.52 154.41 74.27"/>
            </g>
            <polygon points="125.69 96.67 139.66 121 148.78 94.32 125.69 96.67"/>
            <polygon points="136.58 89.33 125.69 96.67 148.78 94.32 136.58 89.33"/>
            <polygon points="136.58 89.34 125.69 96.67 148.78 94.32 136.58 89.34"/>
            <polygon points="125.69 96.67 139.66 121 148.78 94.32 125.69 96.67"/>
          </g>
          <g>
            <g>
              <g>
                <polygon class="cls-3" points="160.94 92.97 148.84 95.74 164.26 103.54 160.94 92.97"/>
                <polygon class="cls-2" points="164.26 103.54 148.84 95.74 167.24 126.51 164.26 103.54"/>
                <polygon class="cls-3" points="164.26 103.54 173.39 106.28 167.24 126.51 164.26 103.54"/>
                <polygon class="cls-3" points="182.62 109.04 182.62 109.04 182.61 109.04 182.62 109.04"/>
                <polygon class="cls-14" points="174.88 101.38 174.88 101.39 174.88 101.39 173.39 106.28 164.26 103.54 174.88 101.38"/>
                <polygon class="cls-2" points="160.94 92.97 162.89 86.29 148.84 95.74 160.94 92.97"/>
                <g>
                  <polygon class="cls-2" points="174.88 101.38 174.88 101.39 174.87 101.39 164.26 103.54 160.94 92.97 163.76 94.68 163.28 95.07 165.25 97.53 166.64 96.41 168.57 97.58 167.55 98.39 169.52 100.85 171.44 99.31 174.88 101.38"/>
                  <g>
                    <polygon class="cls-2" points="174.88 101.38 191.14 102.16 182.5 109.09 174.88 101.38"/>
                    <polygon class="cls-3" points="191.14 102.16 199.65 111.18 182.5 109.09 191.14 102.16"/>
                    <polygon class="cls-2" points="182.5 109.09 199.65 111.18 167.24 126.51 182.5 109.09"/>
                    <polygon class="cls-3" points="182.5 109.09 173.39 106.28 167.24 126.51 182.5 109.09"/>
                    <polygon class="cls-3" points="164.19 103.43 164.19 103.44 164.19 103.44 164.19 103.43"/>
                    <polygon class="cls-14" points="174.88 101.38 174.87 101.39 174.88 101.39 173.39 106.28 182.5 109.09 174.88 101.38"/>
                    <polygon class="cls-2" points="191.14 102.16 193.23 95.52 199.65 111.18 191.14 102.16"/>
                  </g>
                </g>
              </g>
              <polygon class="cls-2" points="168.5 96.63 165.69 98.89 161.7 93.92 162.69 93.13 168.5 96.63"/>
              <polygon class="cls-2" points="172.84 99.31 169.63 101.88 166.34 97.77 168.04 96.41 172.84 99.31"/>
              <polygon class="cls-14" points="193.23 95.52 191.14 102.15 174.88 101.38 174.88 101.38 171.44 99.31 168.57 97.58 166.64 96.41 163.76 94.68 160.94 92.97 162.89 86.29 173.29 87.04 177.91 87.37 177.91 87.37 179.11 87.46 180.32 88.15 183.26 89.83 193.23 95.52"/>
            </g>
            <polygon class="cls-3" points="164.26 103.54 167.24 126.51 182.61 109.04 164.26 103.54"/>
            <polygon class="cls-14" points="174.88 101.38 164.26 103.54 182.61 109.04 174.88 101.38"/>
            <g class="cls-8">
              <polygon class="cls-11" points="177.91 87.37 166.64 96.41 163.76 94.68 173.29 87.04 177.91 87.37"/>
              <polygon class="cls-11" points="183.26 89.83 171.44 99.31 168.57 97.58 180.32 88.15 183.26 89.83"/>
            </g>
          </g>
          <g class="cls-10">
            <g>
              <g>
                <polygon points="160.93 92.97 148.83 95.74 164.25 103.55 160.93 92.97"/>
                <polygon points="164.25 103.55 148.83 95.74 167.23 126.51 164.25 103.55"/>
                <polygon points="164.25 103.54 173.38 106.28 167.23 126.51 164.25 103.54"/>
                <polygon points="182.61 109.04 182.61 109.04 182.61 109.04 182.61 109.04"/>
                <polygon points="174.87 101.38 174.87 101.39 174.87 101.39 173.38 106.28 164.25 103.54 174.87 101.38"/>
                <polygon points="160.93 92.97 162.88 86.29 148.83 95.74 160.93 92.97"/>
                <g>
                  <polygon points="174.87 101.38 174.87 101.39 174.87 101.39 164.25 103.54 160.93 92.97 163.76 94.68 163.27 95.07 165.24 97.53 166.63 96.41 168.56 97.58 167.55 98.39 169.52 100.85 171.43 99.31 174.87 101.38"/>
                  <g>
                    <polygon points="174.87 101.38 191.13 102.16 182.49 109.09 174.87 101.38"/>
                    <polygon points="191.13 102.16 199.64 111.18 182.49 109.09 191.13 102.16"/>
                    <polygon points="182.49 109.09 199.64 111.18 167.23 126.51 182.49 109.09"/>
                    <polygon points="182.49 109.09 173.38 106.28 167.23 126.51 182.49 109.09"/>
                    <polygon points="164.18 103.43 164.18 103.44 164.18 103.44 164.18 103.43"/>
                    <polygon points="174.87 101.38 174.87 101.39 174.87 101.39 173.38 106.28 182.49 109.09 174.87 101.38"/>
                    <polygon points="191.13 102.16 193.23 95.52 199.64 111.18 191.13 102.16"/>
                  </g>
                </g>
              </g>
              <polygon points="168.49 96.63 165.68 98.89 161.7 93.92 162.68 93.13 168.49 96.63"/>
              <polygon points="172.83 99.31 169.63 101.88 166.33 97.77 168.03 96.42 172.83 99.31"/>
              <polygon points="193.23 95.52 191.13 102.15 174.87 101.38 174.87 101.38 171.43 99.31 168.56 97.58 166.63 96.41 163.76 94.68 160.93 92.97 162.88 86.29 173.28 87.04 177.9 87.37 177.9 87.37 179.11 87.46 180.31 88.15 183.25 89.83 193.23 95.52"/>
            </g>
            <polygon points="164.25 103.55 167.23 126.51 182.61 109.04 164.25 103.55"/>
            <polygon points="174.87 101.38 164.25 103.55 182.61 109.04 174.87 101.38"/>
            <g class="cls-8">
              <polygon points="177.9 87.37 166.63 96.41 163.76 94.68 173.28 87.04 177.9 87.37"/>
              <polygon points="183.25 89.83 171.43 99.31 168.56 97.58 180.31 88.15 183.25 89.83"/>
            </g>
          </g>
          <g>
            <g>
              <polygon class="cls-2" points="100.66 91.53 116.79 88.98 115.56 106.51 100.66 91.53"/>
              <polygon class="cls-3" points="116.79 88.98 133.78 103.62 115.56 106.51 116.79 88.98"/>
              <polygon class="cls-2" points="115.56 106.51 133.78 103.62 107.19 138.56 115.56 106.51"/>
              <polygon class="cls-2" points="100.66 91.53 84.54 94.08 90.48 110.48 100.66 91.53"/>
              <polygon class="cls-3" points="84.54 94.08 72.26 113.37 90.48 110.48 84.54 94.08"/>
              <polygon class="cls-2" points="90.48 110.48 72.26 113.37 107.19 138.56 90.48 110.48"/>
              <polygon class="cls-3" points="107.19 138.56 115.56 106.51 90.48 110.48 107.19 138.56"/>
              <polygon class="cls-14" points="100.66 91.53 90.48 110.48 115.56 106.51 100.66 91.53"/>
            </g>
            <g class="cls-10">
              <polygon points="100.66 91.53 116.79 88.98 115.56 106.51 100.66 91.53"/>
              <polygon points="116.79 88.98 133.78 103.62 115.56 106.51 116.79 88.98"/>
              <polygon points="115.56 106.51 133.78 103.62 107.19 138.56 115.56 106.51"/>
              <polygon points="100.66 91.53 84.54 94.08 90.48 110.48 100.66 91.53"/>
              <polygon points="84.54 94.08 72.26 113.37 90.48 110.48 84.54 94.08"/>
              <polygon points="90.48 110.48 72.26 113.37 107.19 138.56 90.48 110.48"/>
              <polygon points="107.19 138.56 115.56 106.51 90.48 110.48 107.19 138.56"/>
              <polygon points="100.66 91.53 90.48 110.48 115.56 106.51 100.66 91.53"/>
              <path d="M91.79,112.44l5.09-9.48c.45-.84.18-1.91-.61-2.39l-.72-.44c-.78-.48-1.79-.19-2.24.65l-5.09,9.48c-.45.84-.18,1.91.61,2.39l.72.44c.78.48,1.79.19,2.24-.65Z"/>
            </g>
          </g>
          <g>
            <g>
              <polygon class="cls-2" points="214.1 111.35 224.49 119.81 214.39 128.87 214.1 111.35"/>
              <polygon class="cls-3" points="224.49 119.81 226.13 138.43 214.39 128.87 224.49 119.81"/>
              <polygon class="cls-2" points="214.39 128.87 226.13 138.43 192.49 141.67 214.39 128.87"/>
              <polygon class="cls-2" points="214.1 111.35 203.71 102.89 198.22 115.71 214.1 111.35"/>
              <polygon class="cls-3" points="203.71 102.89 186.48 106.14 198.22 115.71 203.71 102.89"/>
              <polygon class="cls-2" points="198.22 115.71 186.48 106.14 192.49 141.66 198.22 115.71"/>
              <polygon class="cls-3" points="192.49 141.66 214.39 128.87 198.22 115.71 192.49 141.66"/>
              <polygon class="cls-14" points="214.1 111.35 198.22 115.71 214.39 128.87 214.1 111.35"/>
            </g>
            <g class="cls-10">
              <polygon points="214.1 111.35 224.49 119.81 214.39 128.87 214.1 111.35"/>
              <polygon points="224.49 119.81 226.13 138.43 214.39 128.87 224.49 119.81"/>
              <polygon points="214.39 128.87 226.13 138.43 192.49 141.67 214.39 128.87"/>
              <polygon points="214.1 111.35 203.71 102.89 198.22 115.71 214.1 111.35"/>
              <polygon points="203.71 102.89 186.48 106.14 198.22 115.71 203.71 102.89"/>
              <polygon points="198.22 115.71 186.48 106.14 192.49 141.66 198.22 115.71"/>
              <polygon points="192.49 141.66 214.39 128.87 198.22 115.71 192.49 141.66"/>
              <polygon points="214.1 111.35 198.22 115.71 214.39 128.87 214.1 111.35"/>
              <path d="M197.91,117.6l7.94-2.18c.7-.19,1.13-.96.95-1.71l-.17-.69c-.18-.75-.9-1.2-1.6-1.01l-7.94,2.18c-.7.19-1.13.96-.95,1.71l.17.69c.18.75.9,1.2,1.6,1.01Z"/>
            </g>
          </g>
          <g>
            <g>
              <g>
                <polygon class="cls-3" points="166.69 112.8 155.7 115.05 169.61 122.49 166.69 112.8"/>
                <polygon class="cls-2" points="169.61 122.49 155.7 115.05 172.1 143.44 169.61 122.49"/>
                <polygon class="cls-3" points="169.61 122.49 177.86 125.17 172.1 143.44 169.61 122.49"/>
                <polygon class="cls-3" points="186.2 127.89 186.2 127.89 186.2 127.89 186.2 127.89"/>
                <polygon class="cls-14" points="179.25 120.76 179.25 120.76 179.25 120.76 177.86 125.17 169.61 122.49 179.25 120.76"/>
                <polygon class="cls-2" points="166.69 112.8 168.52 106.77 155.7 115.05 166.69 112.8"/>
                <g>
                  <polygon class="cls-2" points="179.25 120.76 179.25 120.76 179.25 120.76 169.61 122.49 166.69 112.8 169.24 114.42 168.8 114.76 170.56 117.04 171.83 116.06 173.57 117.16 172.64 117.87 174.4 120.15 176.16 118.8 179.25 120.76"/>
                  <g>
                    <polygon class="cls-2" points="179.25 120.76 193.99 121.82 186.09 127.93 179.25 120.76"/>
                    <polygon class="cls-3" points="193.99 121.82 201.62 130.22 186.09 127.93 193.99 121.82"/>
                    <polygon class="cls-2" points="186.09 127.93 201.62 130.22 172.1 143.44 186.09 127.93"/>
                    <polygon class="cls-3" points="186.09 127.93 177.86 125.17 172.1 143.44 186.09 127.93"/>
                    <polygon class="cls-3" points="169.54 122.39 169.54 122.39 169.55 122.39 169.54 122.39"/>
                    <polygon class="cls-14" points="179.25 120.76 179.25 120.76 179.25 120.76 177.86 125.17 186.09 127.93 179.25 120.76"/>
                    <polygon class="cls-2" points="193.99 121.82 195.95 115.83 201.62 130.22 193.99 121.82"/>
                  </g>
                </g>
              </g>
              <polygon class="cls-2" points="173.51 116.3 170.95 118.28 167.38 113.68 168.27 112.98 173.51 116.3"/>
              <polygon class="cls-2" points="177.42 118.83 174.5 121.1 171.55 117.29 173.1 116.09 177.42 118.83"/>
              <polygon class="cls-14" points="195.95 115.83 193.99 121.82 179.25 120.76 179.25 120.76 176.16 118.8 173.57 117.16 171.83 116.06 169.24 114.42 166.69 112.8 168.52 106.77 177.94 107.68 182.12 108.09 182.13 108.09 183.22 108.19 184.3 108.85 186.96 110.44 195.95 115.83"/>
            </g>
            <polygon class="cls-3" points="169.61 122.49 172.1 143.44 186.2 127.89 169.61 122.49"/>
            <polygon class="cls-14" points="179.25 120.76 169.61 122.49 186.2 127.89 179.25 120.76"/>
            <g class="cls-8">
              <polygon class="cls-11" points="182.12 108.09 171.83 116.06 169.24 114.42 177.94 107.68 182.12 108.09"/>
              <polygon class="cls-11" points="186.96 110.44 176.16 118.8 173.57 117.16 184.3 108.85 186.96 110.44"/>
            </g>
          </g>
          <g class="cls-12">
            <g>
              <g>
                <polygon points="166.69 112.8 155.7 115.05 169.61 122.49 166.69 112.8"/>
                <polygon points="169.61 122.49 155.7 115.05 172.1 143.44 169.61 122.49"/>
                <polygon points="169.61 122.49 177.86 125.18 172.1 143.44 169.61 122.49"/>
                <polygon points="186.2 127.89 186.2 127.89 186.2 127.89 186.2 127.89"/>
                <polygon points="179.25 120.76 179.26 120.76 179.25 120.76 177.86 125.18 169.61 122.49 179.25 120.76"/>
                <polygon points="166.69 112.8 168.52 106.77 155.7 115.05 166.69 112.8"/>
                <g>
                  <polygon points="179.25 120.76 179.25 120.76 179.25 120.76 169.61 122.49 166.69 112.8 169.24 114.42 168.8 114.76 170.56 117.04 171.83 116.06 173.57 117.16 172.64 117.88 174.41 120.15 176.16 118.8 179.25 120.76"/>
                  <g>
                    <polygon points="179.25 120.76 193.99 121.82 186.09 127.93 179.25 120.76"/>
                    <polygon points="193.99 121.82 201.62 130.22 186.09 127.93 193.99 121.82"/>
                    <polygon points="186.09 127.93 201.62 130.22 172.1 143.44 186.09 127.93"/>
                    <polygon points="186.09 127.93 177.86 125.18 172.1 143.44 186.09 127.93"/>
                    <polygon points="169.54 122.39 169.54 122.39 169.55 122.39 169.54 122.39"/>
                    <polygon points="179.25 120.76 179.25 120.76 179.25 120.76 177.86 125.18 186.09 127.93 179.25 120.76"/>
                    <polygon points="193.99 121.82 195.95 115.83 201.62 130.22 193.99 121.82"/>
                  </g>
                </g>
              </g>
              <polygon points="173.51 116.3 170.95 118.28 167.38 113.68 168.28 112.98 173.51 116.3"/>
              <polygon points="177.43 118.83 174.5 121.1 171.55 117.29 173.1 116.09 177.43 118.83"/>
              <polygon points="195.95 115.84 193.99 121.82 179.26 120.76 179.25 120.76 176.16 118.8 173.57 117.16 171.83 116.06 169.24 114.42 166.69 112.8 168.52 106.77 177.94 107.68 182.13 108.09 182.13 108.09 183.22 108.19 184.31 108.85 186.96 110.44 195.95 115.84"/>
            </g>
            <polygon points="169.61 122.49 172.1 143.44 186.2 127.89 169.61 122.49"/>
            <polygon points="179.25 120.76 169.61 122.49 186.2 127.89 179.25 120.76"/>
            <g class="cls-8">
              <polygon points="182.13 108.09 171.83 116.06 169.24 114.42 177.94 107.68 182.13 108.09"/>
              <polygon points="186.96 110.44 176.16 118.8 173.57 117.16 184.31 108.85 186.96 110.44"/>
            </g>
          </g>
          <g>
            <g>
              <g>
                <polygon class="cls-3" points="122.95 111.85 112.87 120.77 131.8 120.17 122.95 111.85"/>
                <polygon class="cls-2" points="131.8 120.17 112.87 120.77 146.96 140.46 131.8 120.17"/>
                <polygon class="cls-3" points="131.8 120.17 141.99 118.01 146.96 140.46 131.8 120.17"/>
                <polygon class="cls-3" points="152.3 115.83 152.3 115.83 152.29 115.83 152.3 115.83"/>
                <polygon class="cls-14" points="140.79 112.59 140.79 112.59 140.79 112.59 141.99 118.01 131.8 120.17 140.79 112.59"/>
                <polygon class="cls-2" points="122.95 111.85 121.24 104.48 112.87 120.77 122.95 111.85"/>
                <g>
                  <polygon class="cls-2" points="140.79 112.58 140.79 112.59 140.79 112.59 131.8 120.17 122.95 111.84 126.57 112 126.32 112.62 129.52 113.93 130.25 112.15 132.72 112.25 132.18 113.55 135.38 114.86 136.39 112.4 140.79 112.58"/>
                  <g>
                    <polygon class="cls-2" points="140.79 112.58 156.75 104.85 152.21 115.94 140.79 112.58"/>
                    <polygon class="cls-3" points="156.75 104.85 169.73 109 152.21 115.94 156.75 104.85"/>
                    <polygon class="cls-2" points="152.21 115.94 169.73 109 146.96 140.46 152.21 115.94"/>
                    <polygon class="cls-3" points="152.21 115.94 141.99 118.01 146.96 140.46 152.21 115.94"/>
                    <polygon class="cls-3" points="131.67 120.1 131.67 120.1 131.67 120.1 131.67 120.1"/>
                    <polygon class="cls-14" points="140.79 112.59 140.79 112.59 140.79 112.59 141.99 118.01 152.21 115.94 140.79 112.59"/>
                    <polygon class="cls-2" points="156.75 104.85 155.2 97.45 169.73 109 156.75 104.85"/>
                  </g>
                </g>
              </g>
              <polygon class="cls-2" points="132.14 111.39 130.67 114.99 124.19 112.34 124.71 111.08 132.14 111.39"/>
              <polygon class="cls-2" points="137.73 111.68 136.04 115.79 130.69 113.6 131.59 111.42 137.73 111.68"/>
              <polygon class="cls-14" points="155.2 97.45 156.75 104.85 140.79 112.58 140.79 112.58 136.39 112.4 132.72 112.25 130.25 112.15 126.57 112 122.95 111.84 121.24 104.48 131.58 99.77 136.17 97.68 136.18 97.68 137.37 97.14 138.9 97.16 142.61 97.23 155.2 97.45"/>
            </g>
            <polygon class="cls-3" points="131.8 120.17 146.96 140.46 152.29 115.83 131.8 120.17"/>
            <polygon class="cls-14" points="140.79 112.59 131.8 120.17 152.29 115.83 140.79 112.59"/>
            <g class="cls-8">
              <polygon class="cls-11" points="136.17 97.68 130.25 112.15 126.57 112 131.58 99.77 136.17 97.68"/>
              <polygon class="cls-11" points="142.61 97.23 136.39 112.4 132.72 112.25 138.9 97.16 142.61 97.23"/>
            </g>
          </g>
          <g class="cls-17">
            <g>
              <g>
                <polygon points="122.94 111.84 112.86 120.77 131.79 120.16 122.94 111.84"/>
                <polygon points="131.79 120.16 112.86 120.77 146.95 140.45 131.79 120.16"/>
                <polygon points="131.79 120.16 141.98 118.01 146.95 140.45 131.79 120.16"/>
                <polygon points="152.29 115.83 152.29 115.83 152.28 115.83 152.29 115.83"/>
                <polygon points="140.78 112.58 140.79 112.58 140.78 112.58 141.98 118.01 131.79 120.16 140.78 112.58"/>
                <polygon points="122.94 111.84 121.23 104.47 112.86 120.77 122.94 111.84"/>
                <g>
                  <polygon points="140.78 112.58 140.78 112.58 140.78 112.58 131.79 120.16 122.94 111.84 126.56 111.99 126.31 112.61 129.51 113.92 130.24 112.14 132.71 112.24 132.18 113.55 135.38 114.86 136.38 112.4 140.78 112.58"/>
                  <g>
                    <polygon points="140.78 112.58 156.75 104.84 152.2 115.94 140.78 112.58"/>
                    <polygon points="156.75 104.84 169.72 109 152.2 115.94 156.75 104.84"/>
                    <polygon points="152.2 115.94 169.72 109 146.95 140.45 152.2 115.94"/>
                    <polygon points="152.2 115.94 141.98 118.01 146.95 140.45 152.2 115.94"/>
                    <polygon points="131.66 120.1 131.66 120.1 131.67 120.1 131.66 120.1"/>
                    <polygon points="140.78 112.58 140.78 112.58 140.78 112.58 141.98 118.01 152.2 115.94 140.78 112.58"/>
                    <polygon points="156.75 104.84 155.19 97.44 169.72 109 156.75 104.84"/>
                  </g>
                </g>
              </g>
              <polygon points="132.14 111.38 130.66 114.99 124.18 112.34 124.7 111.08 132.14 111.38"/>
              <polygon points="137.72 111.67 136.04 115.78 130.69 113.59 131.58 111.41 137.72 111.67"/>
              <polygon points="155.19 97.44 156.75 104.84 140.79 112.58 140.78 112.58 136.38 112.4 132.71 112.24 130.24 112.14 126.56 111.99 122.94 111.84 121.23 104.47 131.57 99.77 136.17 97.68 136.17 97.68 137.37 97.13 138.89 97.16 142.6 97.22 155.19 97.44"/>
            </g>
            <polygon points="131.79 120.16 146.95 140.45 152.28 115.83 131.79 120.16"/>
            <polygon points="140.78 112.58 131.79 120.16 152.28 115.83 140.78 112.58"/>
            <g class="cls-8">
              <polygon points="136.17 97.68 130.24 112.14 126.56 111.99 131.57 99.77 136.17 97.68"/>
              <polygon points="142.6 97.22 136.38 112.4 132.71 112.24 138.89 97.16 142.6 97.22"/>
            </g>
          </g>
          <g>
            <polygon class="cls-2" points="83.3 108.9 99.6 108.9 95.97 126.06 83.3 108.9"/>
            <polygon class="cls-3" points="99.6 108.9 114.39 126.06 95.97 126.06 99.6 108.9"/>
            <polygon class="cls-2" points="95.97 126.06 114.39 126.06 83.3 156.45 95.97 126.06"/>
            <polygon class="cls-2" points="83.3 108.9 66.99 108.9 70.62 126.05 83.3 108.9"/>
            <polygon class="cls-3" points="66.99 108.9 52.2 126.05 70.62 126.05 66.99 108.9"/>
            <polygon class="cls-2" points="70.62 126.05 52.2 126.05 83.3 156.45 70.62 126.05"/>
            <polygon class="cls-3" points="83.3 156.45 95.97 126.05 70.62 126.05 83.3 156.45"/>
            <polygon class="cls-14" points="83.3 108.9 70.62 126.05 95.97 126.05 83.3 108.9"/>
            <path class="cls-1" d="M71.65,128.19l6.34-8.57c.56-.76.44-1.86-.27-2.46l-.65-.55c-.71-.6-1.74-.47-2.3.29l-6.34,8.57c-.56.76-.44,1.86.27,2.46l.65.55c.71.6,1.74.47,2.3-.29Z"/>
          </g>
          <g>
            <g>
              <polygon class="cls-2" points="117.94 117.22 126.38 115.63 125.97 124.87 117.94 117.22"/>
              <polygon class="cls-3" points="126.38 115.63 135.51 123.08 125.97 124.87 126.38 115.63"/>
              <polygon class="cls-2" points="125.97 124.87 135.51 123.08 121.99 141.85 125.97 124.87"/>
              <polygon class="cls-2" points="117.94 117.22 109.49 118.81 112.83 127.34 117.94 117.22"/>
              <polygon class="cls-3" points="109.49 118.81 103.29 129.13 112.83 127.34 109.49 118.81"/>
              <polygon class="cls-2" points="112.83 127.34 103.29 129.13 121.99 141.85 112.83 127.34"/>
              <polygon class="cls-3" points="121.99 141.85 125.97 124.87 112.83 127.34 121.99 141.85"/>
              <polygon class="cls-14" points="117.94 117.22 112.83 127.34 125.97 124.87 117.94 117.22"/>
            </g>
            <g class="cls-17">
              <polygon points="117.92 117.23 126.36 115.64 125.95 124.88 117.92 117.23"/>
              <polygon points="126.36 115.64 135.49 123.09 125.95 124.88 126.36 115.64"/>
              <polygon points="125.95 124.88 135.49 123.09 121.97 141.86 125.95 124.88"/>
              <polygon points="117.92 117.23 109.48 118.82 112.82 127.35 117.92 117.23"/>
              <polygon points="109.48 118.82 103.27 129.14 112.82 127.35 109.48 118.82"/>
              <polygon points="112.82 127.35 103.27 129.14 121.97 141.86 112.82 127.35"/>
              <polygon points="121.97 141.86 125.95 124.88 112.82 127.35 121.97 141.86"/>
              <polygon points="117.92 117.23 112.82 127.35 125.95 124.88 117.92 117.23"/>
              <path d="M113.53,128.36l2.55-5.06c.23-.45.07-1.01-.35-1.25l-.39-.22c-.42-.24-.94-.07-1.17.37l-2.55,5.06c-.23.45-.07,1.01.35,1.25l.39.22c.42.24.94.07,1.17-.37Z"/>
            </g>
          </g>
          <g>
            <g>
              <g>
                <polygon class="cls-3" points="100.91 143.21 90.59 153.31 110.83 151.65 100.91 143.21"/>
                <polygon class="cls-2" points="110.83 151.65 90.59 153.31 128.15 172.56 110.83 151.65"/>
                <polygon class="cls-3" points="110.83 151.65 121.63 148.79 128.15 172.56 110.83 151.65"/>
                <polygon class="cls-3" points="132.55 145.9 132.55 145.91 132.54 145.91 132.55 145.9"/>
                <polygon class="cls-14" points="120.05 143.04 120.06 143.04 120.05 143.05 121.63 148.79 110.83 151.65 120.05 143.04"/>
                <polygon class="cls-2" points="100.91 143.21 98.68 135.4 90.59 153.31 100.91 143.21"/>
                <g>
                  <polygon class="cls-2" points="120.05 143.04 120.05 143.04 120.05 143.05 110.83 151.65 100.91 143.2 104.79 143.17 104.55 143.85 108.05 145.09 108.74 143.14 111.39 143.11 110.89 144.54 114.38 145.77 115.33 143.08 120.05 143.04"/>
                  <g>
                    <polygon class="cls-2" points="120.05 143.04 136.74 133.9 132.46 146.03 120.05 143.04"/>
                    <polygon class="cls-3" points="136.74 133.9 150.86 137.66 132.46 146.03 136.74 133.9"/>
                    <polygon class="cls-2" points="132.46 146.03 150.86 137.66 128.15 172.56 132.46 146.03"/>
                    <polygon class="cls-3" points="132.46 146.03 121.63 148.79 128.15 172.56 132.46 146.03"/>
                    <polygon class="cls-3" points="110.68 151.58 110.69 151.58 110.69 151.58 110.68 151.58"/>
                    <polygon class="cls-14" points="120.05 143.04 120.05 143.05 120.05 143.05 121.63 148.79 132.46 146.03 120.05 143.04"/>
                    <polygon class="cls-2" points="136.74 133.9 134.67 126.06 150.86 137.66 136.74 133.9"/>
                  </g>
                </g>
              </g>
              <polygon class="cls-2" points="110.73 142.23 109.34 146.16 102.26 143.67 102.75 142.29 110.73 142.23"/>
              <polygon class="cls-2" points="116.73 142.23 115.14 146.73 109.29 144.67 110.13 142.29 116.73 142.23"/>
              <polygon class="cls-14" points="134.67 126.06 136.73 133.9 120.06 143.04 120.05 143.04 115.33 143.08 111.39 143.11 108.74 143.14 104.79 143.17 100.91 143.2 98.68 135.4 109.5 129.81 114.31 127.33 114.32 127.33 115.57 126.68 117.2 126.63 121.18 126.5 134.67 126.06"/>
            </g>
            <polygon class="cls-3" points="110.83 151.65 128.15 172.56 132.54 145.91 110.83 151.65"/>
            <polygon class="cls-14" points="120.05 143.04 110.83 151.65 132.54 145.91 120.05 143.04"/>
            <g class="cls-8">
              <polygon class="cls-11" points="114.31 127.33 108.74 143.14 104.79 143.17 109.5 129.81 114.31 127.33"/>
              <polygon class="cls-11" points="121.18 126.5 115.33 143.08 111.39 143.11 117.2 126.63 121.18 126.5"/>
            </g>
          </g>
          <g>
            <g>
              <polygon class="cls-2" points="157.47 119.04 167.27 120.13 164.08 130.2 157.47 119.04"/>
              <polygon class="cls-3" points="167.27 120.13 175.16 131.44 164.08 130.2 167.27 120.13"/>
              <polygon class="cls-2" points="164.08 130.2 175.16 131.44 154.67 147.63 164.08 130.2"/>
              <polygon class="cls-2" points="157.47 119.03 147.67 117.94 148.83 128.5 157.47 119.03"/>
              <polygon class="cls-3" points="147.67 117.94 137.76 127.26 148.83 128.5 147.67 117.94"/>
              <polygon class="cls-2" points="148.83 128.5 137.76 127.26 154.67 147.63 148.83 128.5"/>
              <polygon class="cls-3" points="154.67 147.63 164.08 130.2 148.83 128.5 154.67 147.63"/>
              <polygon class="cls-14" points="157.47 119.03 148.83 128.5 164.08 130.2 157.47 119.03"/>
            </g>
            <g class="cls-18">
              <polygon points="157.47 119.04 167.27 120.13 164.08 130.2 157.47 119.04"/>
              <polygon points="167.27 120.13 175.16 131.44 164.08 130.2 167.27 120.13"/>
              <polygon points="164.08 130.2 175.16 131.44 154.67 147.63 164.08 130.2"/>
              <polygon points="157.47 119.03 147.67 117.94 148.83 128.5 157.47 119.03"/>
              <polygon points="147.67 117.94 137.76 127.26 148.83 128.5 147.67 117.94"/>
              <polygon points="148.83 128.5 137.76 127.26 154.67 147.63 148.83 128.5"/>
              <polygon points="154.67 147.63 164.08 130.2 148.83 128.5 154.67 147.63"/>
              <polygon points="157.47 119.03 148.83 128.5 164.08 130.2 157.47 119.03"/>
              <path d="M149.33,129.85l4.32-4.73c.38-.42.37-1.09-.02-1.5l-.36-.38c-.39-.41-1.02-.4-1.4.02l-4.32,4.73c-.38.42-.37,1.09.02,1.5l.36.38c.39.41,1.02.4,1.4-.02Z"/>
            </g>
          </g>
          <g>
            <g>
              <polygon class="cls-2" points="179.28 128.24 192.1 130.91 186.8 143.81 179.28 128.24"/>
              <polygon class="cls-3" points="192.1 130.91 201.29 146.83 186.8 143.81 192.1 130.91"/>
              <polygon class="cls-2" points="186.8 143.81 201.29 146.83 172.47 165.65 186.8 143.81"/>
              <polygon class="cls-2" points="179.28 128.24 166.46 125.57 166.85 139.66 179.28 128.24"/>
              <polygon class="cls-3" points="166.46 125.57 152.36 136.64 166.85 139.66 166.46 125.57"/>
              <polygon class="cls-2" points="166.85 139.66 152.36 136.64 172.47 165.65 166.85 139.66"/>
              <polygon class="cls-3" points="172.47 165.65 186.8 143.81 166.85 139.66 172.47 165.65"/>
              <polygon class="cls-14" points="179.28 128.24 166.85 139.66 186.8 143.81 179.28 128.24"/>
            </g>
            <g class="cls-12">
              <polygon points="179.28 128.24 192.1 130.91 186.8 143.81 179.28 128.24"/>
              <polygon points="192.1 130.91 201.29 146.83 186.8 143.81 192.1 130.91"/>
              <polygon points="186.8 143.81 201.29 146.83 172.47 165.65 186.8 143.81"/>
              <polygon points="179.28 128.24 166.46 125.57 166.85 139.66 179.28 128.24"/>
              <polygon points="166.46 125.57 152.36 136.64 166.85 139.66 166.46 125.57"/>
              <polygon points="166.85 139.66 152.36 136.64 172.47 165.65 166.85 139.66"/>
              <polygon points="172.47 165.65 186.8 143.81 166.85 139.66 172.47 165.65"/>
              <polygon points="179.28 128.24 166.85 139.66 186.8 143.81 179.28 128.24"/>
              <path d="M167.35,141.51l6.21-5.71c.55-.5.61-1.4.14-1.98l-.44-.54c-.47-.59-1.31-.65-1.85-.15l-6.21,5.71c-.55.5-.61,1.4-.14,1.98l.44.54c.47.59,1.31.65,1.85.15Z"/>
            </g>
          </g>
          <g>
            <g>
              <polygon class="cls-2" points="158.55 137.55 168.66 139.65 164.48 149.82 158.55 137.55"/>
              <polygon class="cls-3" points="168.66 139.65 175.9 152.2 164.48 149.82 168.66 139.65"/>
              <polygon class="cls-2" points="164.48 149.82 175.9 152.2 153.18 167.04 164.48 149.82"/>
              <polygon class="cls-2" points="158.55 137.55 148.44 135.44 148.75 146.55 158.55 137.55"/>
              <polygon class="cls-3" points="148.44 135.44 137.33 144.17 148.75 146.55 148.44 135.44"/>
              <polygon class="cls-2" points="148.75 146.55 137.33 144.17 153.18 167.04 148.75 146.55"/>
              <polygon class="cls-3" points="153.18 167.04 164.48 149.82 148.75 146.55 153.18 167.04"/>
              <polygon class="cls-14" points="158.55 137.55 148.75 146.55 164.48 149.82 158.55 137.55"/>
            </g>
            <g class="cls-16">
              <polygon points="158.55 137.55 168.66 139.65 164.48 149.82 158.55 137.55"/>
              <polygon points="168.66 139.65 175.9 152.2 164.48 149.82 168.66 139.65"/>
              <polygon points="164.48 149.82 175.9 152.2 153.18 167.04 164.48 149.82"/>
              <polygon points="158.55 137.55 148.44 135.44 148.75 146.55 158.55 137.55"/>
              <polygon points="148.44 135.44 137.33 144.17 148.75 146.55 148.44 135.44"/>
              <polygon points="148.75 146.55 137.33 144.17 153.18 167.04 148.75 146.55"/>
              <polygon points="153.18 167.04 164.48 149.82 148.75 146.55 153.18 167.04"/>
              <polygon points="158.55 137.55 148.75 146.55 164.48 149.82 158.55 137.55"/>
              <path d="M149.15,148.01l4.9-4.5c.43-.4.48-1.1.11-1.56l-.34-.43c-.37-.46-1.03-.52-1.46-.12l-4.9,4.5c-.43.4-.48,1.1-.11,1.56l.34.43c.37.46,1.03.52,1.46.12Z"/>
            </g>
          </g>
          <g class="cls-16">
            <polygon points="224.57 145.71 234.37 146.81 231.18 156.88 224.57 145.71"/>
            <polygon points="234.37 146.81 242.26 158.12 231.18 156.88 234.37 146.81"/>
            <polygon points="231.18 156.88 242.26 158.12 221.77 174.31 231.18 156.88"/>
            <polygon points="224.57 145.71 214.77 144.61 215.93 155.17 224.57 145.71"/>
            <polygon points="214.77 144.61 204.86 153.93 215.93 155.17 214.77 144.61"/>
            <polygon points="215.93 155.17 204.86 153.93 221.77 174.3 215.93 155.17"/>
            <polygon points="221.77 174.3 231.18 156.88 215.93 155.17 221.77 174.3"/>
            <polygon points="224.57 145.71 215.93 155.17 231.18 156.88 224.57 145.71"/>
          </g>
          <g>
            <polygon class="cls-2" points="144.7 150.16 157.97 151.77 153.53 165.37 144.7 150.16"/>
            <polygon class="cls-3" points="157.97 151.77 168.53 167.19 153.53 165.37 157.97 151.77"/>
            <polygon class="cls-2" points="153.53 165.37 168.53 167.19 140.58 188.85 153.53 165.37"/>
            <polygon class="cls-2" points="144.7 150.15 131.43 148.54 132.9 162.86 144.7 150.15"/>
            <polygon class="cls-3" points="131.43 148.54 117.9 161.04 132.9 162.86 131.43 148.54"/>
            <polygon class="cls-2" points="132.9 162.86 117.9 161.04 140.58 188.85 132.9 162.86"/>
            <polygon class="cls-3" points="140.58 188.85 153.53 165.37 132.9 162.86 140.58 188.85"/>
            <polygon class="cls-14" points="144.7 150.15 132.9 162.86 153.53 165.37 144.7 150.15"/>
            <path class="cls-1" d="M133.55,164.7l5.9-6.35c.52-.56.52-1.47,0-2.03l-.48-.51c-.52-.56-1.38-.55-1.9,0l-5.9,6.35c-.52.56-.52,1.47,0,2.03l.48.51c.52.56,1.38.55,1.9,0Z"/>
          </g>
          <g class="cls-24">
            <polygon points="144.79 150.16 158.06 151.77 153.62 165.37 144.79 150.16"/>
            <polygon points="158.06 151.77 168.62 167.19 153.62 165.37 158.06 151.77"/>
            <polygon points="153.62 165.37 168.62 167.19 140.68 188.85 153.62 165.37"/>
            <polygon points="144.79 150.15 131.52 148.54 132.99 162.86 144.79 150.15"/>
            <polygon points="131.52 148.54 118 161.04 132.99 162.86 131.52 148.54"/>
            <polygon points="132.99 162.86 118 161.04 140.68 188.85 132.99 162.86"/>
            <polygon points="140.68 188.85 153.62 165.37 132.99 162.86 140.68 188.85"/>
            <polygon points="144.79 150.15 132.99 162.86 153.62 165.37 144.79 150.15"/>
            <path d="M133.64,164.7l5.9-6.35c.52-.56.52-1.47,0-2.03l-.48-.51c-.52-.56-1.38-.55-1.9,0l-5.9,6.35c-.52.56-.52,1.47,0,2.03l.48.51c.52.56,1.38.55,1.9,0Z"/>
          </g>
          <polygon class="cls-23" points="229.99 123.95 229.99 209.08 140.78 256.6 140.78 171.45 229.99 123.95"/>
          <polygon class="cls-20" points="149.69 252.06 179.37 236.2 231.29 152.38 231.29 139.07 216.39 144.39 149.69 252.06"/>
          <polygon class="cls-21" points="229.98 207.81 229.98 221.81 141.08 269.33 141.08 255.33 229.98 207.81"/>
          <path class="cls-21" d="M141.09,255.32v14.01l-88.88-46.24v-84.52l.71.25v69.36c1.73-.98,28.99-15.77,57.16-.64,28.04,15.06,30.86,45.74,31.01,47.78Z"/>
          <path class="cls-19" d="M52.91,152.12c11.53,7.45,55.55,37.46,53.16,75.57-.17,2.67-.56,5.42-1.24,8.25-17.31-9.25-34.61-18.51-51.92-27.76v-56.06Z"/>
          <path class="cls-19" d="M141.08,171.47v83.85l-6.58-3.52c-10.96-11.13-23.29-25.37-35.19-43.03-13.95-20.7-23.43-40.31-29.91-56.51,21.82,5.28,43.64,10.56,65.46,15.84,2.07,1.12,4.15,2.25,6.22,3.37Z"/>
          <polygon class="cls-9" points="134.5 251.8 104.52 235.76 52.91 152.12 52.91 138.81 67.8 144.13 134.5 251.8"/>
          <polygon class="cls-6" points="172.51 200.69 252.83 153.86 229.99 123.67 140.78 171.27 172.51 200.69"/>
          <polygon class="cls-22" points="17.49 148.08 101.81 198.64 140.78 171.27 51.85 123.67 17.49 148.08"/>
          <g>
            <polygon class="cls-2" points="13.36 123.93 19.15 121 20.56 127.74 13.36 123.93"/>
            <polygon class="cls-3" points="19.15 121 27.1 124.44 20.56 127.74 19.15 121"/>
            <polygon class="cls-2" points="20.56 127.74 27.1 124.44 20.83 140.81 20.56 127.74"/>
            <polygon class="cls-2" points="13.36 123.93 7.57 126.85 11.55 132.29 13.36 123.93"/>
            <polygon class="cls-3" points="7.57 126.85 5.01 135.6 11.55 132.29 7.57 126.85"/>
            <polygon class="cls-2" points="11.55 132.29 5.01 135.6 20.83 140.81 11.55 132.29"/>
            <polygon class="cls-3" points="20.83 140.81 20.56 127.74 11.55 132.29 20.83 140.81"/>
            <polygon class="cls-14" points="13.36 123.93 11.55 132.29 20.56 127.74 13.36 123.93"/>
            <path class="cls-1" d="M12.25,132.87l.9-4.18c.08-.37-.14-.74-.48-.83l-.32-.08c-.35-.09-.69.15-.77.52l-.9,4.18c-.08.37.14.74.48.83l.32.08c.35.09.69-.15.77-.52Z"/>
          </g>
          <g>
            <polygon class="cls-2" points="162.45 252.71 166.15 246.73 170.85 251.95 162.45 252.71"/>
            <polygon class="cls-3" points="166.15 246.73 175.03 245.19 170.85 251.95 166.15 246.73"/>
            <polygon class="cls-2" points="170.85 251.95 175.03 245.19 177.73 263.51 170.85 251.95"/>
            <polygon class="cls-2" points="162.45 252.71 158.75 258.7 165.08 261.26 162.45 252.71"/>
            <polygon class="cls-3" points="158.75 258.7 160.9 268.03 165.08 261.26 158.75 258.7"/>
            <polygon class="cls-2" points="165.08 261.26 160.9 268.03 177.73 263.51 165.08 261.26"/>
            <polygon class="cls-3" points="177.73 263.51 170.84 251.95 165.08 261.26 177.73 263.51"/>
            <polygon class="cls-14" points="162.45 252.71 165.08 261.26 170.84 251.95 162.45 252.71"/>
            <path class="cls-1" d="M166.01,261.37l-1.32-4.28c-.12-.38-.5-.58-.85-.46l-.33.11c-.35.12-.55.53-.43.91l1.32,4.28c.12.38.5.58.85.46l.33-.11c.35-.12.55-.53.43-.91Z"/>
          </g>
          <g>
            <polygon class="cls-2" points="41.55 124.73 50.04 121.7 50.95 131.3 41.55 124.73"/>
            <polygon class="cls-3" points="50.04 121.7 60.54 127.88 50.95 131.3 50.04 121.7"/>
            <polygon class="cls-2" points="50.95 131.3 60.54 127.88 49.3 149.49 50.95 131.3"/>
            <polygon class="cls-2" points="41.55 124.73 33.06 127.76 37.74 136.02 41.55 124.73"/>
            <polygon class="cls-3" points="33.06 127.76 28.15 139.45 37.74 136.02 33.06 127.76"/>
            <polygon class="cls-2" points="37.74 136.02 28.15 139.45 49.3 149.49 37.74 136.02"/>
            <polygon class="cls-3" points="49.3 149.49 50.95 131.3 37.74 136.02 49.3 149.49"/>
            <polygon class="cls-14" points="41.55 124.73 37.74 136.02 50.95 131.3 41.55 124.73"/>
            <path class="cls-1" d="M38.63,136.94l1.9-5.64c.17-.5-.08-1.05-.54-1.23l-.43-.17c-.47-.18-.98.08-1.15.58l-1.9,5.64c-.17.5.08,1.05.54,1.23l.43.17c.47.18.98-.08,1.15-.58Z"/>
          </g>
          <g>
            <polygon class="cls-2" points="10.63 195.59 13.98 188.87 19.43 193.88 10.63 195.59"/>
            <polygon class="cls-3" points="13.98 188.87 23.21 186.29 19.43 193.88 13.98 188.87"/>
            <polygon class="cls-2" points="19.43 193.88 23.21 186.29 27.79 205.35 19.43 193.88"/>
            <polygon class="cls-2" points="10.63 195.59 7.28 202.31 14.22 204.34 10.63 195.59"/>
            <polygon class="cls-3" points="7.28 202.31 10.43 211.93 14.22 204.34 7.28 202.31"/>
            <polygon class="cls-2" points="14.22 204.34 10.43 211.93 27.79 205.35 14.22 204.34"/>
            <polygon class="cls-3" points="27.79 205.35 19.42 193.88 14.22 204.34 27.79 205.35"/>
            <polygon class="cls-14" points="10.63 195.59 14.22 204.34 19.42 193.88 10.63 195.59"/>
            <path class="cls-1" d="M15.2,204.35l-1.79-4.37c-.16-.39-.58-.56-.94-.39l-.33.16c-.36.17-.53.62-.37,1.01l1.79,4.37c.16.39.58.56.94.39l.33-.16c.36-.17.53-.62.37-1.01Z"/>
          </g>
          <g>
            <polygon class="cls-2" points="36.09 234.34 45.47 232.79 44.81 243.01 36.09 234.34"/>
            <polygon class="cls-3" points="45.47 232.79 55.41 241.26 44.81 243.01 45.47 232.79"/>
            <polygon class="cls-2" points="44.81 243.01 55.41 241.26 40.04 261.7 44.81 243.01"/>
            <polygon class="cls-2" points="36.09 234.34 26.71 235.88 30.22 245.41 36.09 234.34"/>
            <polygon class="cls-3" points="26.71 235.88 19.62 247.16 30.22 245.41 26.71 235.88"/>
            <polygon class="cls-2" points="30.22 245.41 19.62 247.16 40.04 261.7 30.22 245.41"/>
            <polygon class="cls-3" points="40.04 261.7 44.81 243 30.22 245.41 40.04 261.7"/>
            <polygon class="cls-14" points="36.09 234.34 30.22 245.41 44.81 243 36.09 234.34"/>
            <path class="cls-1" d="M30.99,246.55l2.93-5.54c.26-.49.1-1.11-.36-1.39l-.42-.26c-.46-.28-1.04-.1-1.3.39l-2.93,5.54c-.26.49-.1,1.11.36,1.39l.42.26c.46.28,1.04.1,1.3-.39Z"/>
          </g>
          <g>
            <polygon class="cls-2" points="74.25 134.86 80.21 136.76 77.14 142.62 74.25 134.86"/>
            <polygon class="cls-3" points="80.21 136.76 83.88 144.76 77.14 142.62 80.21 136.76"/>
            <polygon class="cls-2" points="77.14 142.62 83.88 144.76 69.4 152.26 77.14 142.62"/>
            <polygon class="cls-2" points="74.25 134.86 68.29 132.96 67.86 139.66 74.25 134.86"/>
            <polygon class="cls-3" points="68.29 132.96 61.12 137.52 67.86 139.66 68.29 132.96"/>
            <polygon class="cls-2" points="67.86 139.66 61.12 137.52 69.4 152.26 67.86 139.66"/>
            <polygon class="cls-3" points="69.4 152.26 77.14 142.62 67.86 139.66 69.4 152.26"/>
            <polygon class="cls-14" points="74.25 134.86 67.86 139.66 77.14 142.62 74.25 134.86"/>
            <path class="cls-1" d="M68.02,140.57l3.19-2.4c.28-.21.35-.63.15-.93l-.18-.28c-.2-.3-.59-.37-.87-.16l-3.19,2.4c-.28.21-.35.63-.15.93l.18.28c.2.3.59.37.87.16Z"/>
          </g>
          <g>
            <polygon class="cls-2" points="139.97 171.31 147.96 172.28 145.29 180.47 139.97 171.31"/>
            <polygon class="cls-3" points="147.96 172.28 154.31 181.57 145.29 180.47 147.96 172.28"/>
            <polygon class="cls-2" points="145.29 180.47 154.31 181.57 137.49 194.61 145.29 180.47"/>
            <polygon class="cls-2" points="139.97 171.31 131.99 170.34 132.87 178.96 139.97 171.31"/>
            <polygon class="cls-3" points="131.99 170.34 123.84 177.87 132.87 178.96 131.99 170.34"/>
            <polygon class="cls-2" points="132.87 178.96 123.84 177.87 137.49 194.61 132.87 178.96"/>
            <polygon class="cls-3" points="137.49 194.61 145.29 180.47 132.87 178.96 137.49 194.61"/>
            <polygon class="cls-14" points="139.97 171.31 132.87 178.96 145.29 180.47 139.97 171.31"/>
            <path class="cls-1" d="M133.26,180.07l3.55-3.82c.31-.34.31-.89,0-1.22l-.29-.31c-.32-.33-.83-.33-1.14,0l-3.55,3.82c-.31.34-.31.89,0,1.22l.29.31c.32.33.83.33,1.14,0Z"/>
          </g>
          <g>
            <polygon class="cls-2" points="117.23 203.26 122.87 200 124.62 206.65 117.23 203.26"/>
            <polygon class="cls-3" points="122.87 200 130.99 202.96 124.62 206.65 122.87 200"/>
            <polygon class="cls-2" points="124.62 206.65 130.99 202.96 125.57 219.69 124.62 206.65"/>
            <polygon class="cls-2" points="117.23 203.26 111.6 206.52 115.86 211.73 117.23 203.26"/>
            <polygon class="cls-3" points="111.6 206.52 109.49 215.42 115.86 211.73 111.6 206.52"/>
            <polygon class="cls-2" points="115.86 211.73 109.49 215.42 125.57 219.69 115.86 211.73"/>
            <polygon class="cls-3" points="125.57 219.69 124.62 206.65 115.86 211.73 125.57 219.69"/>
            <polygon class="cls-14" points="117.23 203.26 115.86 211.73 124.62 206.65 117.23 203.26"/>
            <path class="cls-1" d="M116.59,212.26l.69-4.23c.06-.37-.18-.73-.53-.8l-.32-.06c-.35-.06-.69.19-.75.56l-.69,4.23c-.06.37.18.73.53.8l.32.06c.35.06.69-.19.75-.56Z"/>
          </g>
          <g>
            <polygon class="cls-2" points="152.44 220.57 156.8 222.95 153.64 227.01 152.44 220.57"/>
            <polygon class="cls-3" points="156.8 222.95 158.56 229.7 153.64 227.01 156.8 222.95"/>
            <polygon class="cls-2" points="153.64 227.01 158.56 229.7 146.35 233.29 153.64 227.01"/>
            <polygon class="cls-2" points="152.44 220.57 148.08 218.18 146.85 223.3 152.44 220.57"/>
            <polygon class="cls-3" points="148.08 218.18 141.92 220.61 146.85 223.3 148.08 218.18"/>
            <polygon class="cls-2" points="146.85 223.3 141.92 220.61 146.35 233.29 146.85 223.3"/>
            <polygon class="cls-3" points="146.35 233.29 153.64 227.01 146.85 223.3 146.35 233.29"/>
            <polygon class="cls-14" points="152.44 220.57 146.85 223.3 153.64 227.01 152.44 220.57"/>
            <path class="cls-1" d="M146.85,224.02l2.79-1.37c.25-.12.36-.43.24-.7l-.1-.24c-.11-.26-.41-.38-.65-.26l-2.79,1.37c-.25.12-.36.43-.24.7l.1.24c.11.26.41.38.65.26Z"/>
          </g>
          <path class="cls-11" d="M169.25,102.53l2.42-4.75c.25-.49.95-.31.96.25l.14,5.4c.05,2.1,1.15,4,2.87,5l4.44,2.58c.46.27.29,1.01-.23,1.03l-5.06.15c-1.96.06-3.74,1.23-4.68,3.07l-2.42,4.75c-.25.49-.95.31-.96-.25l-.14-5.4c-.05-2.1-1.15-4-2.87-5l-4.44-2.58c-.46-.27-.29-1.01.23-1.03l5.06-.15c1.96-.06,3.74-1.23,4.68-3.07Z"/>
          <path class="cls-11" d="M170.05,135.38l3.47-3.93c.36-.41.99-.04.87.5l-1.16,5.26c-.45,2.04.15,4.18,1.58,5.62l3.68,3.71c.38.38.04,1.06-.47.93l-4.92-1.23c-1.91-.48-3.91.17-5.26,1.69l-3.47,3.93c-.36.41-.99.04-.87-.5l1.16-5.26c.45-2.04-.15-4.18-1.58-5.62l-3.68-3.71c-.38-.38-.04-1.06.47-.93l4.92,1.23c1.91.48,3.91-.17,5.26-1.69Z"/>
          <g>
            <polygon class="cls-2" points="66.88 173.83 74.6 172.99 73.67 181.31 66.88 173.83"/>
            <polygon class="cls-3" points="74.6 172.99 82.4 180.35 73.67 181.31 74.6 172.99"/>
            <polygon class="cls-2" points="73.67 181.31 82.4 180.35 69.04 196.37 73.67 181.31"/>
            <polygon class="cls-2" points="66.88 173.83 59.15 174.68 61.65 182.62 66.88 173.83"/>
            <polygon class="cls-3" points="59.15 174.68 52.91 183.58 61.65 182.62 59.15 174.68"/>
            <polygon class="cls-2" points="61.65 182.62 52.91 183.58 69.04 196.37 61.65 182.62"/>
            <polygon class="cls-3" points="69.04 196.37 73.67 181.3 61.65 182.62 69.04 196.37"/>
            <polygon class="cls-14" points="66.88 173.83 61.65 182.62 73.67 181.3 66.88 173.83"/>
            <path class="cls-1" d="M62.23,183.58l2.61-4.39c.23-.39.12-.91-.24-1.15l-.34-.23c-.36-.25-.85-.13-1.08.26l-2.61,4.39c-.23.39-.12.91.24,1.15l.34.23c.36.25.85.13,1.08-.26Z"/>
          </g>
          <g>
            <polygon class="cls-2" points="99.97 163.73 108.88 162.87 107.7 172.44 99.97 163.73"/>
            <polygon class="cls-3" points="108.88 162.87 117.77 171.46 107.7 172.44 108.88 162.87"/>
            <polygon class="cls-2" points="107.7 172.44 117.77 171.46 102.17 189.73 107.7 172.44"/>
            <polygon class="cls-2" points="99.97 163.73 91.06 164.59 93.83 173.78 99.97 163.73"/>
            <polygon class="cls-3" points="91.06 164.59 83.76 174.75 93.83 173.78 91.06 164.59"/>
            <polygon class="cls-2" points="93.83 173.78 83.76 174.75 102.17 189.73 93.83 173.78"/>
            <polygon class="cls-3" points="102.17 189.73 107.7 172.44 93.83 173.78 102.17 189.73"/>
            <polygon class="cls-14" points="99.97 163.73 93.83 173.78 107.7 172.44 99.97 163.73"/>
            <path class="cls-1" d="M94.5,174.89l3.07-5.02c.27-.44.15-1.04-.26-1.33l-.38-.27c-.41-.29-.98-.16-1.25.28l-3.07,5.02c-.27.44-.15,1.04.26,1.33l.38.27c.41.29.98.16,1.25-.28Z"/>
          </g>
          <g>
            <polygon class="cls-2" points="74.15 244.9 80.01 243.95 79.58 250.32 74.15 244.9"/>
            <polygon class="cls-3" points="80.01 243.95 86.2 249.25 79.58 250.32 80.01 243.95"/>
            <polygon class="cls-2" points="79.58 250.32 86.2 249.25 76.57 261.99 79.58 250.32"/>
            <polygon class="cls-2" points="74.15 244.89 68.29 245.84 70.47 251.8 74.15 244.89"/>
            <polygon class="cls-3" points="68.29 245.84 63.85 252.87 70.47 251.8 68.29 245.84"/>
            <polygon class="cls-2" points="70.47 251.8 63.85 252.87 76.57 261.99 70.47 251.8"/>
            <polygon class="cls-3" points="76.57 261.99 79.58 250.32 70.47 251.8 76.57 261.99"/>
            <polygon class="cls-14" points="74.15 244.89 70.47 251.8 79.58 250.32 74.15 244.89"/>
            <path class="cls-1" d="M70.95,252.51l1.84-3.45c.16-.3.06-.7-.22-.87l-.26-.16c-.28-.17-.65-.07-.81.24l-1.84,3.45c-.16.3-.06.7.22.87l.26.16c.28.17.65.07.81-.24Z"/>
          </g>
          <g>
            <polygon class="cls-2" points="104.89 239.98 108.74 241.06 106.89 244.88 104.89 239.98"/>
            <polygon class="cls-3" points="108.74 241.06 111.24 246.09 106.89 244.88 108.74 241.06"/>
            <polygon class="cls-2" points="106.89 244.88 111.24 246.09 102.14 251.22 106.89 244.88"/>
            <polygon class="cls-2" points="104.89 239.98 101.04 238.91 100.9 243.2 104.89 239.98"/>
            <polygon class="cls-3" points="101.04 238.91 96.55 241.98 100.9 243.2 101.04 238.91"/>
            <polygon class="cls-2" points="100.9 243.2 96.55 241.98 102.14 251.22 100.9 243.2"/>
            <polygon class="cls-3" points="102.14 251.22 106.89 244.87 100.9 243.2 102.14 251.22"/>
            <polygon class="cls-14" points="104.89 239.98 100.9 243.2 106.89 244.87 104.89 239.98"/>
            <path class="cls-1" d="M101.02,243.77l1.99-1.61c.18-.14.21-.41.08-.6l-.12-.17c-.13-.19-.39-.23-.56-.08l-1.99,1.61c-.18.14-.21.41-.08.6l.12.17c.13.19.39.23.56.08Z"/>
          </g>
          <g>
            <g>
              <g>
                <polygon class="cls-3" points="39.45 99.09 30.3 110.32 50.28 106.38 39.45 99.09"/>
                <polygon class="cls-2" points="50.28 106.38 30.3 110.32 69.9 125.26 50.28 106.38"/>
                <polygon class="cls-3" points="50.28 106.38 60.72 102.31 69.9 125.26 50.28 106.38"/>
                <polygon class="cls-3" points="71.27 98.2 71.27 98.21 71.27 98.2 71.27 98.2"/>
                <polygon class="cls-14" points="58.5 96.76 58.51 96.76 58.5 96.76 60.72 102.31 50.28 106.38 58.5 96.76"/>
                <polygon class="cls-2" points="39.45 99.09 36.34 91.57 30.3 110.32 39.45 99.09"/>
                <g>
                  <polygon class="cls-2" points="58.5 96.76 58.5 96.76 58.5 96.77 50.28 106.38 39.45 99.09 43.31 98.61 43.15 99.32 46.78 100.15 47.24 98.14 49.88 97.81 49.54 99.29 53.16 100.12 53.8 97.33 58.5 96.76"/>
                  <g>
                    <polygon class="cls-2" points="58.5 96.76 74.09 85.77 71.2 98.34 58.5 96.76"/>
                    <polygon class="cls-3" points="74.09 85.77 88.58 87.92 71.2 98.34 74.09 85.77"/>
                    <polygon class="cls-2" points="71.2 98.34 88.58 87.92 69.9 125.26 71.2 98.34"/>
                    <polygon class="cls-3" points="71.2 98.34 60.72 102.31 69.9 125.26 71.2 98.34"/>
                    <polygon class="cls-3" points="50.13 106.33 50.13 106.33 50.14 106.33 50.13 106.33"/>
                    <polygon class="cls-14" points="58.5 96.76 58.5 96.77 58.5 96.77 60.72 102.31 71.2 98.34 58.5 96.76"/>
                    <polygon class="cls-2" points="74.09 85.77 71.15 78.19 88.58 87.92 74.09 85.77"/>
                  </g>
                </g>
              </g>
              <polygon class="cls-2" points="49.12 97 48.18 101.08 40.85 99.4 41.17 97.97 49.12 97"/>
              <polygon class="cls-2" points="55.1 96.33 54.02 100.99 47.96 99.59 48.53 97.13 55.1 96.33"/>
              <polygon class="cls-14" points="71.15 78.19 74.09 85.77 58.5 96.76 58.5 96.76 53.8 97.33 49.88 97.81 47.24 98.14 43.31 98.61 39.45 99.09 36.34 91.57 46.5 84.77 51.01 81.76 51.01 81.75 52.19 80.97 53.81 80.73 57.76 80.15 71.15 78.19"/>
            </g>
            <polygon class="cls-3" points="50.28 106.38 69.9 125.26 71.27 98.2 50.28 106.38"/>
            <polygon class="cls-14" points="58.5 96.76 50.28 106.38 71.27 98.2 58.5 96.76"/>
            <g class="cls-8">
              <polygon class="cls-11" points="51.01 81.76 47.24 98.14 43.31 98.61 46.5 84.77 51.01 81.76"/>
              <polygon class="cls-11" points="57.76 80.15 53.8 97.33 49.88 97.81 53.81 80.73 57.76 80.15"/>
            </g>
          </g>
          <path class="cls-11" d="M33.4,90.4l-2.2-6.34c-.23-.66.52-1.14,1.03-.67l4.94,4.54c1.92,1.76,4.54,2.4,6.89,1.67l6.05-1.87c.63-.19,1.15.6.72,1.1l-4.13,4.8c-1.6,1.86-2.06,4.52-1.21,6.98l2.2,6.34c.23.66-.52,1.14-1.03.67l-4.94-4.54c-1.92-1.76-4.54-2.4-6.89-1.67l-6.05,1.87c-.63.19-1.15-.6-.72-1.1l4.13-4.8c1.6-1.86,2.06-4.52,1.21-6.98Z"/>
          <g>
            <g>
              <g>
                <polygon class="cls-3" points="14.25 167.27 11.03 172.19 18.93 169.75 14.25 167.27"/>
                <polygon class="cls-2" points="18.93 169.75 11.03 172.19 27.65 176.55 18.93 169.75"/>
                <polygon class="cls-3" points="18.93 169.75 22.98 167.67 27.65 176.55 18.93 169.75"/>
                <polygon class="cls-3" points="27.06 165.57 27.06 165.57 27.06 165.57 27.06 165.57"/>
                <polygon class="cls-14" points="21.85 165.52 21.85 165.52 21.85 165.52 22.98 167.67 18.93 169.75 21.85 165.52"/>
                <polygon class="cls-2" points="14.25 167.27 12.68 164.36 11.03 172.19 14.25 167.27"/>
                <g>
                  <polygon class="cls-2" points="21.84 165.52 21.85 165.52 21.84 165.52 18.93 169.75 14.25 167.27 15.79 166.91 15.75 167.21 17.25 167.39 17.36 166.55 18.41 166.31 18.33 166.92 19.83 167.11 19.97 165.95 21.84 165.52"/>
                  <g>
                    <polygon class="cls-2" points="21.84 165.52 27.68 160.43 27.04 165.62 21.84 165.52"/>
                    <polygon class="cls-3" points="27.68 160.43 33.62 160.68 27.04 165.62 27.68 160.43"/>
                    <polygon class="cls-2" points="27.04 165.62 33.62 160.68 27.65 176.55 27.04 165.62"/>
                    <polygon class="cls-3" points="27.04 165.62 22.98 167.67 27.65 176.55 27.04 165.62"/>
                    <polygon class="cls-3" points="18.87 169.74 18.87 169.74 18.87 169.74 18.87 169.74"/>
                    <polygon class="cls-14" points="21.84 165.52 21.84 165.53 21.85 165.52 22.98 167.67 27.04 165.62 21.84 165.52"/>
                    <polygon class="cls-2" points="27.68 160.43 26.17 157.49 33.62 160.68 27.68 160.43"/>
                  </g>
                </g>
              </g>
              <polygon class="cls-2" points="18.07 166.02 17.86 167.7 14.83 167.33 14.9 166.74 18.07 166.02"/>
              <polygon class="cls-2" points="20.45 165.49 20.22 167.42 17.71 167.11 17.84 166.09 20.45 165.49"/>
              <polygon class="cls-14" points="26.17 157.49 27.68 160.43 21.85 165.52 21.84 165.52 19.97 165.95 18.41 166.31 17.36 166.55 15.79 166.91 14.25 167.27 12.68 164.36 16.49 161.19 18.18 159.78 18.19 159.78 18.63 159.41 19.27 159.25 20.84 158.85 26.17 157.49"/>
            </g>
            <polygon class="cls-3" points="18.93 169.75 27.65 176.55 27.06 165.57 18.93 169.75"/>
            <polygon class="cls-14" points="21.85 165.52 18.93 169.75 27.06 165.57 21.85 165.52"/>
            <g class="cls-8">
              <polygon class="cls-11" points="18.18 159.78 17.36 166.55 15.79 166.91 16.49 161.19 18.18 159.78"/>
              <polygon class="cls-11" points="20.84 158.85 19.97 165.95 18.41 166.31 19.27 159.25 20.84 158.85"/>
            </g>
          </g>
          <g>
            <g>
              <g>
                <polygon class="cls-3" points="40.16 215.3 33.42 223.57 48.14 220.67 40.16 215.3"/>
                <polygon class="cls-2" points="48.14 220.67 33.42 223.57 62.59 234.58 48.14 220.67"/>
                <polygon class="cls-3" points="48.14 220.67 55.83 217.68 62.59 234.58 48.14 220.67"/>
                <polygon class="cls-3" points="63.6 214.65 63.6 214.65 63.6 214.65 63.6 214.65"/>
                <polygon class="cls-14" points="54.19 213.59 54.2 213.59 54.2 213.59 55.83 217.68 48.14 220.67 54.19 213.59"/>
                <polygon class="cls-2" points="40.16 215.3 37.87 209.76 33.42 223.57 40.16 215.3"/>
                <g>
                  <polygon class="cls-2" points="54.19 213.59 54.2 213.59 54.19 213.59 48.14 220.67 40.16 215.3 43.01 214.95 42.89 215.47 45.56 216.09 45.9 214.6 47.84 214.36 47.59 215.45 50.26 216.06 50.73 214.01 54.19 213.59"/>
                  <g>
                    <polygon class="cls-2" points="54.19 213.59 65.68 205.49 63.55 214.75 54.19 213.59"/>
                    <polygon class="cls-3" points="65.68 205.49 76.35 207.07 63.55 214.75 65.68 205.49"/>
                    <polygon class="cls-2" points="63.55 214.75 76.35 207.07 62.59 234.58 63.55 214.75"/>
                    <polygon class="cls-3" points="63.55 214.75 55.83 217.68 62.59 234.58 63.55 214.75"/>
                    <polygon class="cls-3" points="48.03 220.63 48.03 220.64 48.03 220.63 48.03 220.63"/>
                    <polygon class="cls-14" points="54.19 213.59 54.19 213.59 54.2 213.59 55.83 217.68 63.55 214.75 54.19 213.59"/>
                    <polygon class="cls-2" points="65.68 205.49 63.51 199.91 76.35 207.07 65.68 205.49"/>
                  </g>
                </g>
              </g>
              <polygon class="cls-2" points="47.28 213.76 46.59 216.77 41.19 215.53 41.43 214.48 47.28 213.76"/>
              <polygon class="cls-2" points="51.69 213.27 50.9 216.7 46.43 215.67 46.85 213.86 51.69 213.27"/>
              <polygon class="cls-14" points="63.51 199.91 65.68 205.49 54.2 213.59 54.19 213.59 50.73 214.01 47.84 214.36 45.9 214.6 43.01 214.95 40.16 215.3 37.87 209.76 45.35 204.76 48.67 202.53 48.68 202.53 49.54 201.95 50.74 201.78 53.65 201.35 63.51 199.91"/>
            </g>
            <polygon class="cls-3" points="48.14 220.67 62.59 234.58 63.6 214.65 48.14 220.67"/>
            <polygon class="cls-14" points="54.19 213.59 48.14 220.67 63.6 214.65 54.19 213.59"/>
            <g class="cls-8">
              <polygon class="cls-11" points="48.67 202.53 45.9 214.6 43.01 214.95 45.35 204.76 48.67 202.53"/>
              <polygon class="cls-11" points="53.65 201.35 50.73 214.01 47.84 214.36 50.74 201.78 53.65 201.35"/>
            </g>
          </g>
          <g>
            <g>
              <g>
                <polygon class="cls-3" points="85.38 201.81 80.99 202.7 86.54 205.67 85.38 201.81"/>
                <polygon class="cls-2" points="86.54 205.67 80.99 202.7 87.52 214.04 86.54 205.67"/>
                <polygon class="cls-3" points="86.54 205.67 89.83 206.75 87.52 214.04 86.54 205.67"/>
                <polygon class="cls-3" points="93.16 207.84 93.16 207.84 93.16 207.84 93.16 207.84"/>
                <polygon class="cls-14" points="90.39 204.99 90.39 204.99 90.39 204.99 89.83 206.75 86.54 205.67 90.39 204.99"/>
                <polygon class="cls-2" points="85.38 201.81 86.11 199.4 80.99 202.7 85.38 201.81"/>
                <g>
                  <polygon class="cls-2" points="90.39 204.99 90.39 204.99 90.39 204.99 86.54 205.67 85.38 201.81 86.39 202.45 86.22 202.59 86.92 203.5 87.43 203.11 88.12 203.55 87.75 203.83 88.45 204.74 89.15 204.2 90.39 204.99"/>
                  <g>
                    <polygon class="cls-2" points="90.39 204.99 96.27 205.42 93.11 207.85 90.39 204.99"/>
                    <polygon class="cls-3" points="96.27 205.42 99.31 208.77 93.11 207.85 96.27 205.42"/>
                    <polygon class="cls-2" points="93.11 207.85 99.31 208.77 87.52 214.04 93.11 207.85"/>
                    <polygon class="cls-3" points="93.11 207.85 89.83 206.75 87.52 214.04 93.11 207.85"/>
                    <polygon class="cls-3" points="86.51 205.63 86.51 205.63 86.51 205.63 86.51 205.63"/>
                    <polygon class="cls-14" points="90.39 204.99 90.39 204.99 90.39 204.99 89.83 206.75 93.11 207.85 90.39 204.99"/>
                    <polygon class="cls-2" points="96.27 205.42 97.05 203.03 99.31 208.77 96.27 205.42"/>
                  </g>
                </g>
              </g>
              <polygon class="cls-2" points="88.1 203.2 87.07 204 85.65 202.16 86.01 201.88 88.1 203.2"/>
              <polygon class="cls-2" points="89.66 204.22 88.49 205.12 87.31 203.6 87.93 203.12 89.66 204.22"/>
              <polygon class="cls-14" points="97.05 203.03 96.27 205.42 90.39 204.99 90.39 204.99 89.15 204.2 88.12 203.55 87.43 203.11 86.39 202.45 85.38 201.81 86.11 199.4 89.87 199.77 91.54 199.93 91.54 199.93 91.98 199.97 92.41 200.23 93.47 200.87 97.05 203.03"/>
            </g>
            <polygon class="cls-3" points="86.54 205.67 87.52 214.04 93.16 207.84 86.54 205.67"/>
            <polygon class="cls-14" points="90.39 204.99 86.54 205.67 93.16 207.84 90.39 204.99"/>
            <g class="cls-8">
              <polygon class="cls-11" points="91.54 199.93 87.43 203.11 86.39 202.45 89.87 199.77 91.54 199.93"/>
              <polygon class="cls-11" points="93.47 200.87 89.15 204.2 88.12 203.55 92.41 200.23 93.47 200.87"/>
            </g>
          </g>
          <g>
            <g>
              <g>
                <polygon class="cls-3" points="123.77 253.38 112.83 254.91 126.05 263.08 123.77 253.38"/>
                <polygon class="cls-2" points="126.05 263.08 112.83 254.91 127.21 283.84 126.05 263.08"/>
                <polygon class="cls-3" points="126.05 263.08 134 266.23 127.21 283.84 126.05 263.08"/>
                <polygon class="cls-3" points="142.03 269.42 142.03 269.42 142.03 269.41 142.03 269.42"/>
                <polygon class="cls-14" points="135.64 261.98 135.64 261.98 135.64 261.98 134 266.23 126.05 263.08 135.64 261.98"/>
                <polygon class="cls-2" points="123.77 253.38 125.95 247.56 112.83 254.91 123.77 253.38"/>
                <g>
                  <polygon class="cls-2" points="135.64 261.98 135.64 261.98 135.64 261.98 126.05 263.08 123.77 253.38 126.18 255.12 125.72 255.43 127.32 257.78 128.63 256.89 130.27 258.08 129.31 258.73 130.91 261.08 132.71 259.86 135.64 261.98"/>
                  <g>
                    <polygon class="cls-2" points="135.64 261.98 150.06 263.93 141.92 269.45 135.64 261.98"/>
                    <polygon class="cls-3" points="150.06 263.93 157.06 272.66 141.92 269.45 150.06 263.93"/>
                    <polygon class="cls-2" points="141.92 269.45 157.06 272.66 127.21 283.84 141.92 269.45"/>
                    <polygon class="cls-3" points="141.92 269.45 134 266.23 127.21 283.84 141.92 269.45"/>
                    <polygon class="cls-3" points="125.99 262.98 125.99 262.98 125.99 262.98 125.99 262.98"/>
                    <polygon class="cls-14" points="135.64 261.98 135.63 261.98 135.64 261.98 134 266.23 141.92 269.45 135.64 261.98"/>
                    <polygon class="cls-2" points="150.06 263.93 152.36 258.16 157.06 272.66 150.06 263.93"/>
                  </g>
                </g>
              </g>
              <polygon class="cls-2" points="130.27 257.24 127.62 259.03 124.4 254.28 125.32 253.65 130.27 257.24"/>
              <polygon class="cls-2" points="133.96 259.97 130.94 262.01 128.27 258.09 129.87 257 133.96 259.97"/>
              <polygon class="cls-14" points="152.36 258.16 150.06 263.93 135.64 261.98 135.64 261.98 132.71 259.86 130.27 258.08 128.63 256.89 126.18 255.12 123.77 253.38 125.94 247.56 135.15 249.03 139.24 249.69 139.24 249.69 140.31 249.86 141.34 250.57 143.85 252.3 152.36 258.16"/>
            </g>
            <polygon class="cls-3" points="126.05 263.08 127.21 283.84 142.03 269.41 126.05 263.08"/>
            <polygon class="cls-14" points="135.64 261.98 126.05 263.08 142.03 269.41 135.64 261.98"/>
            <g class="cls-8">
              <polygon class="cls-11" points="139.24 249.69 128.63 256.89 126.18 255.12 135.15 249.03 139.24 249.69"/>
              <polygon class="cls-11" points="143.85 252.3 132.71 259.86 130.27 258.08 141.34 250.57 143.85 252.3"/>
            </g>
          </g>
          <g>
            <g>
              <g>
                <polygon class="cls-3" points="192.23 208.45 171.89 212.59 197.61 226.38 192.23 208.45"/>
                <polygon class="cls-2" points="197.61 226.38 171.89 212.59 202.18 265.15 197.61 226.38"/>
                <polygon class="cls-3" points="197.61 226.38 212.87 231.37 202.18 265.15 197.61 226.38"/>
                <polygon class="cls-3" points="228.3 236.41 228.3 236.41 228.3 236.41 228.3 236.41"/>
                <polygon class="cls-14" points="215.46 223.2 215.46 223.21 215.46 223.21 212.87 231.37 197.61 226.38 215.46 223.2"/>
                <polygon class="cls-2" points="192.23 208.45 195.63 197.3 171.89 212.59 192.23 208.45"/>
                <g>
                  <polygon class="cls-2" points="215.46 223.2 215.46 223.2 215.45 223.2 197.61 226.38 192.23 208.45 196.94 211.45 196.12 212.08 199.38 216.3 201.73 214.49 204.95 216.53 203.23 217.85 206.49 222.07 209.73 219.56 215.46 223.2"/>
                  <g>
                    <polygon class="cls-2" points="215.46 223.2 242.72 225.2 228.1 236.49 215.46 223.2"/>
                    <polygon class="cls-3" points="242.72 225.2 256.83 240.75 228.1 236.49 242.72 225.2"/>
                    <polygon class="cls-2" points="228.1 236.49 256.83 240.75 202.18 265.15 228.1 236.49"/>
                    <polygon class="cls-3" points="228.1 236.49 212.87 231.37 202.18 265.15 228.1 236.49"/>
                    <polygon class="cls-3" points="197.49 226.19 197.49 226.2 197.5 226.2 197.49 226.19"/>
                    <polygon class="cls-14" points="215.46 223.2 215.45 223.2 215.46 223.21 212.87 231.37 228.1 236.49 215.46 223.2"/>
                    <polygon class="cls-2" points="242.72 225.2 246.36 214.12 256.83 240.75 242.72 225.2"/>
                  </g>
                </g>
              </g>
              <polygon class="cls-2" points="204.84 214.94 200.1 218.6 193.5 210.07 195.16 208.79 204.84 214.94"/>
              <polygon class="cls-2" points="212.08 219.63 206.65 223.81 201.21 216.76 204.08 214.55 212.08 219.63"/>
              <polygon class="cls-14" points="246.36 214.12 242.72 225.19 215.46 223.2 215.46 223.2 209.73 219.56 204.95 216.53 201.73 214.49 196.94 211.45 192.23 208.45 195.63 197.3 213.05 199 220.8 199.76 220.8 199.76 222.82 199.96 224.83 201.17 229.73 204.12 246.36 214.12"/>
            </g>
            <polygon class="cls-3" points="197.61 226.38 202.18 265.15 228.3 236.41 197.61 226.38"/>
            <polygon class="cls-14" points="215.46 223.2 197.61 226.38 228.3 236.41 215.46 223.2"/>
            <g class="cls-8">
              <polygon class="cls-11" points="220.8 199.76 201.73 214.49 196.94 211.45 213.05 199 220.8 199.76"/>
              <polygon class="cls-11" points="229.73 204.12 209.73 219.56 204.95 216.53 224.83 201.17 229.73 204.12"/>
            </g>
          </g>
        </g>
        <path class="cls-11" d="M203.34,202.34l4.24-4.8c.44-.5,1.21-.05,1.06.61l-1.41,6.43c-.55,2.49.19,5.11,1.93,6.86l4.49,4.53c.46.47.05,1.29-.57,1.13l-6.01-1.51c-2.33-.58-4.78.2-6.42,2.06l-4.24,4.8c-.44.5-1.21.05-1.06-.61l1.41-6.43c.55-2.49-.19-5.11-1.93-6.86l-4.49-4.53c-.46-.47-.05-1.29.57-1.13l6.01,1.51c2.33.58,4.78-.2,6.42-2.06Z"/>
        <path class="cls-11" d="M24.46,234.38l-.56-2.73c-.06-.28.27-.46.45-.25l1.77,2.06c.68.8,1.72,1.15,2.71.92l2.56-.6c.26-.06.43.29.23.48l-1.93,1.89c-.75.73-1.08,1.83-.86,2.89l.56,2.73c.06.28-.27.46-.45.25l-1.77-2.06c-.68-.8-1.72-1.15-2.71-.92l-2.56.6c-.26.06-.43-.29-.23-.48l1.93-1.89c.75-.73,1.08-1.83.86-2.89Z"/>
        <path class="cls-11" d="M5.29,124.46l-.75-2.11c-.08-.22.17-.4.33-.26l1.64,1.43c.63.55,1.5.7,2.26.39l1.98-.8c.2-.08.38.18.24.36l-1.33,1.75c-.52.68-.66,1.6-.37,2.42l.75,2.11c.08.22-.17.4-.33.26l-1.64-1.43c-.63-.55-1.5-.7-2.26-.39l-1.98.8c-.2.08-.38-.18-.24-.36l1.33-1.75c.52-.68.66-1.6.37-2.42Z"/>
        <path class="cls-11" d="M32.01,124.63l-.13-3.17c-.01-.33.39-.46.55-.19l1.6,2.68c.62,1.04,1.71,1.64,2.86,1.59l2.97-.14c.31-.01.43.41.18.59l-2.5,1.71c-.97.66-1.54,1.83-1.49,3.06l.13,3.17c.01.33-.39.46-.55.19l-1.6-2.68c-.62-1.04-1.71-1.64-2.86-1.59l-2.97.14c-.31.01-.43-.41-.18-.59l2.5-1.71c.97-.66,1.54-1.83,1.49-3.06Z"/>
        <path class="cls-11" d="M109.91,206.12l-.92-1.69c-.1-.17.09-.37.25-.27l1.59.96c.62.37,1.37.37,1.98-.01l1.58-.99c.16-.1.35.09.25.27l-.9,1.7c-.35.66-.34,1.47.01,2.12l.92,1.69c.1.17-.09.37-.25.27l-1.59-.96c-.62-.37-1.37-.37-1.98.01l-1.58.99c-.16.1-.35-.09-.25-.27l.9-1.7c.35-.66.34-1.47-.01-2.12Z"/>
        <path class="cls-11" d="M90.56,161.36l.27-2.83c.03-.29.4-.36.51-.09l1.1,2.59c.43,1,1.32,1.69,2.35,1.8l2.65.28c.27.03.33.43.08.55l-2.42,1.17c-.94.46-1.58,1.41-1.68,2.51l-.27,2.83c-.03.29-.4.36-.51.09l-1.1-2.59c-.43-1-1.32-1.69-2.35-1.8l-2.65-.28c-.27-.03-.33-.43-.08-.55l2.42-1.17c.94-.46,1.58-1.41,1.68-2.51Z"/>
        <path class="cls-11" d="M84.44,205.95l.37-1.19c.04-.12.2-.11.23.01l.24,1.22c.09.47.42.86.85,1.01l1.11.39c.11.04.11.22-.01.24l-1.15.26c-.44.1-.8.45-.95.91l-.37,1.19c-.04.12-.2.11-.23-.01l-.24-1.22c-.09-.47-.42-.86-.85-1.01l-1.11-.39c-.11-.04-.11-.22.01-.24l1.15-.26c.44-.1.8-.45.95-.91Z"/>
        <path class="cls-11" d="M128.76,250.22l1.79-1.82c.18-.19.48,0,.41.27l-.69,2.53c-.27.98-.03,2.04.63,2.78l1.7,1.91c.18.2,0,.52-.25.44l-2.37-.74c-.92-.29-1.91-.03-2.6.67l-1.79,1.82c-.18.19-.48,0-.41-.27l.69-2.53c.27-.98.03-2.04-.63-2.78l-1.7-1.91c-.18-.2,0-.52.25-.44l2.37.74c.92.29,1.91.03,2.6-.67Z"/>
        <path class="cls-11" d="M67.56,244.7l-.06-1.39c0-.14.17-.2.24-.08l.7,1.17c.27.46.75.72,1.26.7l1.3-.06c.13,0,.19.18.08.26l-1.1.75c-.43.29-.67.8-.65,1.34l.06,1.39c0,.14-.17.2-.24.08l-.7-1.17c-.27-.46-.75-.72-1.26-.7l-1.3.06c-.13,0-.19-.18-.08-.26l1.1-.75c.43-.29.67-.8.65-1.34Z"/>
      </g>
      <g>
        <polygon class="cls-2" points="86.63 7.68 97.76 7.68 95.28 18.89 86.63 7.68"/>
        <polygon class="cls-3" points="97.76 7.68 107.86 18.89 95.28 18.89 97.76 7.68"/>
        <polygon class="cls-2" points="95.28 18.89 107.86 18.89 86.63 38.75 95.28 18.89"/>
        <polygon class="cls-2" points="86.63 7.68 75.5 7.68 77.97 18.89 86.63 7.68"/>
        <polygon class="cls-3" points="75.5 7.68 65.4 18.89 77.97 18.89 75.5 7.68"/>
        <polygon class="cls-2" points="77.97 18.89 65.4 18.89 86.63 38.75 77.97 18.89"/>
        <polygon class="cls-3" points="86.63 38.75 95.28 18.89 77.97 18.89 86.63 38.75"/>
        <polygon class="cls-14" points="86.63 7.68 77.97 18.89 95.28 18.89 86.63 7.68"/>
        <path class="cls-1" d="M78.49,20.52l4.69-6.08c.28-.36.22-.9-.14-1.18l-.91-.74c-.36-.29-.88-.22-1.16.14l-4.69,6.08c-.28.36-.22.9.14,1.18l.91.74c.36.29.88.22,1.16-.14Z"/>
      </g>
    </g>
  </g>
</svg>