<?xml version="1.0" encoding="UTF-8"?>
<svg id="_Слой_2" data-name="Слой 2" xmlns="http://www.w3.org/2000/svg" xmlns:xlink="http://www.w3.org/1999/xlink" viewBox="0 0 261.41 371.58">
  <defs>
    <style>
      .cls-1 {
        fill: #e2eaff;
      }

      .cls-2 {
        fill: #00a6c2;
      }

      .cls-3 {
        fill: #00ccef;
      }

      .cls-4 {
        opacity: .29;
      }

      .cls-5 {
        opacity: .92;
      }

      .cls-6 {
        opacity: .3;
      }

      .cls-7 {
        fill: #fff;
      }

      .cls-8 {
        fill: #e50e2a;
      }

      .cls-9 {
        fill: #2ce4ff;
      }

      .cls-10 {
        fill: url(#_Безымянный_градиент_37);
      }

      .cls-11 {
        fill: #a60025;
      }

      .cls-12 {
        opacity: .1;
      }

      .cls-13 {
        fill: #fac71f;
      }

      .cls-14 {
        fill: #b60f34;
      }
    </style>
    <linearGradient id="_Безымянный_градиент_37" data-name="Безымянный градиент 37" x1="-17.41" y1="30.8" x2="278.82" y2="340.78" gradientUnits="userSpaceOnUse">
      <stop offset="0" stop-color="#007a87"/>
      <stop offset="1" stop-color="#006177"/>
    </linearGradient>
  </defs>
  <g id="_Слой_1-2" data-name="Слой 1">
    <g>
      <g>
        <path class="cls-10" d="M261.41,24.65v322.28c0,13.56-11.11,24.65-24.69,24.65H24.69c-3.6,0-7.02-.78-10.12-2.18t-.02-.01c-.29-.13-.57-.28-.85-.42-.2-.11-.4-.22-.6-.33-.06-.02-.11-.05-.16-.09-.94-.51-1.86-1.06-2.72-1.69-6.18-4.48-10.22-11.76-10.22-19.93V24.65C0,11.09,11.11,0,24.69,0h212.03c13.58,0,24.69,11.09,24.69,24.65Z"/>
        <path class="cls-12" d="M199.83,0L0,199.52V24.65C0,11.09,11.11,0,24.69,0h175.14Z"/>
        <path class="cls-12" d="M261.41,107.46v237.93c0,14.41-11.41,26.19-25.36,26.19H24.69c-3.6,0-7.02-.78-10.12-2.18t-.02-.01c-.29-.13-.57-.28-.85-.42-.2-.11-.4-.22-.6-.33-.06-.02-.11-.05-.16-.09-.94-.51-1.86-1.06-2.72-1.69l.05-.06h.01L261.41,107.46Z"/>
      </g>
      <g>
        <g>
          <g>
            <g>
              <polygon class="cls-3" points="193 150.64 186.27 151.41 194.17 156.57 193 150.64"/>
              <polygon class="cls-2" points="194.17 156.57 186.27 151.41 194.4 169.21 194.17 156.57"/>
              <polygon class="cls-3" points="194.17 156.57 198.96 158.6 194.4 169.21 194.17 156.57"/>
              <polygon class="cls-3" points="203.8 160.66 203.8 160.66 203.79 160.66 203.8 160.66"/>
              <polygon class="cls-9" points="200.06 156.04 200.06 156.04 200.06 156.04 198.96 158.6 194.17 156.57 200.06 156.04"/>
              <polygon class="cls-2" points="193 150.64 194.46 147.13 186.27 151.41 193 150.64"/>
              <g>
                <polygon class="cls-2" points="200.06 156.04 200.06 156.04 200.06 156.04 194.17 156.57 193 150.64 194.43 151.73 194.15 151.92 195.07 153.37 195.89 152.85 196.87 153.59 196.27 153.97 197.19 155.43 198.32 154.71 200.06 156.04"/>
                <g>
                  <polygon class="cls-2" points="200.06 156.04 208.83 157.44 203.73 160.68 200.06 156.04"/>
                  <polygon class="cls-3" points="208.83 157.44 212.91 162.85 203.73 160.68 208.83 157.44"/>
                  <polygon class="cls-2" points="203.73 160.68 212.91 162.85 194.4 169.21 203.73 160.68"/>
                  <polygon class="cls-3" points="203.73 160.68 198.96 158.6 194.4 169.21 203.73 160.68"/>
                  <polygon class="cls-3" points="194.13 156.51 194.13 156.51 194.14 156.51 194.13 156.51"/>
                  <polygon class="cls-9" points="200.06 156.04 200.06 156.04 200.06 156.04 198.96 158.6 203.73 160.68 200.06 156.04"/>
                  <polygon class="cls-2" points="208.83 157.44 210.37 153.96 212.91 162.85 208.83 157.44"/>
                </g>
              </g>
            </g>
            <polygon class="cls-2" points="196.88 153.08 195.22 154.13 193.36 151.19 193.94 150.83 196.88 153.08"/>
            <polygon class="cls-2" points="199.08 154.79 197.18 155.99 195.65 153.57 196.65 152.93 199.08 154.79"/>
            <polygon class="cls-9" points="210.37 153.96 208.84 157.44 200.06 156.04 200.06 156.04 198.32 154.71 196.87 153.59 195.89 152.85 194.43 151.73 193 150.64 194.46 147.13 200.06 148.16 202.55 148.62 202.55 148.62 203.19 148.74 203.81 149.19 205.3 150.27 210.37 153.96"/>
          </g>
          <polygon class="cls-3" points="194.17 156.57 194.4 169.21 203.79 160.66 194.17 156.57"/>
          <polygon class="cls-9" points="200.06 156.04 194.17 156.57 203.79 160.66 200.06 156.04"/>
        </g>
        <g class="cls-4">
          <g>
            <g>
              <polygon points="193 150.64 186.27 151.41 194.17 156.57 193 150.64"/>
              <polygon points="194.17 156.57 186.27 151.41 194.4 169.21 194.17 156.57"/>
              <polygon points="194.17 156.57 198.96 158.6 194.4 169.21 194.17 156.57"/>
              <polygon points="203.8 160.66 203.8 160.66 203.8 160.66 203.8 160.66"/>
              <polygon points="200.06 156.04 200.06 156.04 200.06 156.04 198.96 158.6 194.17 156.57 200.06 156.04"/>
              <polygon points="193 150.64 194.47 147.13 186.27 151.41 193 150.64"/>
              <g>
                <polygon points="200.06 156.04 200.06 156.04 200.06 156.04 194.17 156.57 193 150.64 194.43 151.73 194.15 151.91 195.07 153.37 195.89 152.85 196.87 153.59 196.27 153.97 197.19 155.42 198.32 154.71 200.06 156.04"/>
                <g>
                  <polygon points="200.06 156.04 208.84 157.44 203.73 160.68 200.06 156.04"/>
                  <polygon points="208.84 157.44 212.91 162.85 203.73 160.68 208.84 157.44"/>
                  <polygon points="203.73 160.68 212.91 162.85 194.4 169.21 203.73 160.68"/>
                  <polygon points="203.73 160.68 198.96 158.6 194.4 169.21 203.73 160.68"/>
                  <polygon points="194.14 156.51 194.14 156.51 194.14 156.51 194.14 156.51"/>
                  <polygon points="200.06 156.04 200.06 156.04 200.06 156.04 198.96 158.6 203.73 160.68 200.06 156.04"/>
                  <polygon points="208.84 157.44 210.37 153.96 212.91 162.85 208.84 157.44"/>
                </g>
              </g>
            </g>
            <polygon points="196.88 153.08 195.23 154.13 193.36 151.19 193.94 150.83 196.88 153.08"/>
            <polygon points="199.08 154.79 197.19 155.99 195.65 153.57 196.65 152.93 199.08 154.79"/>
            <polygon points="210.37 153.96 208.84 157.44 200.06 156.04 200.06 156.04 198.32 154.71 196.87 153.59 195.89 152.85 194.43 151.73 193 150.64 194.46 147.13 200.06 148.16 202.55 148.62 202.55 148.62 203.2 148.74 203.81 149.19 205.3 150.27 210.37 153.96"/>
          </g>
          <polygon points="194.17 156.57 194.4 169.21 203.8 160.66 194.17 156.57"/>
          <polygon points="200.06 156.04 194.17 156.57 203.8 160.66 200.06 156.04"/>
        </g>
        <g>
          <path class="cls-14" d="M169.09,155.3c3.47-9.26,5.46-20.03,5.46-31.53,0-34.62-18.02-62.68-40.26-62.68s-40.26,28.06-40.26,62.68c0,11.5,1.99,22.27,5.46,31.53-8.48-11.29-13.71-26.69-13.71-43.67,0-34.62,21.72-62.68,48.51-62.68s48.51,28.06,48.51,62.68c0,16.97-5.22,32.37-13.7,43.66Z"/>
          <polygon class="cls-8" points="213.34 242.75 49.57 242.75 55.2 208.4 71.84 106.84 190.89 106.84 207.83 209.39 213.34 242.75"/>
          <path class="cls-11" d="M213.34,242.75H49.57l5.63-34.36c20.01,6.69,45.93,14.7,76.27,14.87,30.25.17,56.19-7.32,76.36-13.87l5.51,33.36Z"/>
          <path class="cls-14" d="M57.14,105.22v20.87c0,5.33,2.87,10.24,7.5,12.87l54.3,30.79c6.72,3.81,14.94,3.84,21.68.08l57.39-30.94c4.79-2.58,7.78-7.59,7.78-13.03v-20.66H57.14Z"/>
          <rect class="cls-13" x="81.4" y="99.41" width="21.65" height="10.38"/>
          <rect class="cls-13" x="164.84" y="99.48" width="21.65" height="10.38"/>
          <ellipse class="cls-13" cx="130.21" cy="162.88" rx="6.35" ry="6.34"/>
        </g>
        <g>
          <polygon class="cls-2" points="149.13 236.76 165.79 234.85 163.97 251.65 149.13 236.76"/>
          <polygon class="cls-3" points="165.79 234.85 182.79 249.49 163.97 251.65 165.79 234.85"/>
          <polygon class="cls-2" points="163.97 251.65 182.79 249.49 154.35 282.15 163.97 251.65"/>
          <polygon class="cls-2" points="149.13 236.76 132.47 238.67 138.05 254.62 149.13 236.76"/>
          <polygon class="cls-3" points="132.47 238.67 119.23 256.78 138.05 254.62 132.47 238.67"/>
          <polygon class="cls-2" points="138.05 254.62 119.23 256.78 154.35 282.15 138.05 254.62"/>
          <polygon class="cls-3" points="154.35 282.15 163.97 251.65 138.05 254.62 154.35 282.15"/>
          <polygon class="cls-9" points="149.13 236.76 138.05 254.62 163.97 251.65 149.13 236.76"/>
          <path class="cls-1" d="M139.57,256.18l5.08-8.2c.61-.99.3-2.3-.69-2.91h0c-.99-.61-2.3-.3-2.91.68l-5.08,8.2c-.61.99-.3,2.3.69,2.91h0c.99.61,2.3.3,2.91-.68Z"/>
        </g>
        <g>
          <polygon class="cls-2" points="239.26 169.12 251.22 175.36 242.41 185.72 239.26 169.12"/>
          <polygon class="cls-3" points="251.22 175.36 255.91 192.77 242.41 185.72 251.22 175.36"/>
          <polygon class="cls-2" points="242.41 185.72 255.91 192.77 222.21 201.69 242.41 185.72"/>
          <polygon class="cls-2" points="239.26 169.11 227.31 162.88 223.81 176.01 239.26 169.11"/>
          <polygon class="cls-3" points="227.31 162.88 210.3 168.96 223.81 176.01 227.31 162.88"/>
          <polygon class="cls-2" points="223.81 176.01 210.3 168.96 222.21 201.69 223.81 176.01"/>
          <polygon class="cls-3" points="222.21 201.69 242.41 185.72 223.81 176.01 222.21 201.69"/>
          <polygon class="cls-9" points="239.26 169.11 223.81 176.01 242.41 185.72 239.26 169.11"/>
          <path class="cls-1" d="M224.11,177.73l7.09-3.17c.85-.38,1.24-1.39.86-2.25h0c-.38-.85-1.39-1.24-2.25-.86l-7.09,3.17c-.85.38-1.24,1.39-.86,2.25h0c.38.85,1.39,1.24,2.25.86Z"/>
        </g>
        <g>
          <polygon class="cls-2" points="239.65 114.41 248.37 118.96 241.94 126.52 239.65 114.41"/>
          <polygon class="cls-3" points="248.37 118.96 251.8 131.66 241.94 126.52 248.37 118.96"/>
          <polygon class="cls-2" points="241.94 126.52 251.8 131.66 227.21 138.17 241.94 126.52"/>
          <polygon class="cls-2" points="239.65 114.41 230.93 109.85 228.38 119.44 239.65 114.41"/>
          <polygon class="cls-3" points="230.93 109.85 218.53 114.3 228.38 119.44 230.93 109.85"/>
          <polygon class="cls-2" points="228.38 119.44 218.53 114.3 227.21 138.17 228.38 119.44"/>
          <polygon class="cls-3" points="227.21 138.17 241.94 126.52 228.38 119.44 227.21 138.17"/>
          <polygon class="cls-9" points="239.65 114.41 228.38 119.44 241.94 126.52 239.65 114.41"/>
          <path class="cls-1" d="M228.6,120.69l5.17-2.31c.62-.28.91-1.02.63-1.64h0c-.28-.62-1.02-.9-1.64-.63l-5.17,2.31c-.62.28-.91,1.02-.63,1.64h0c.28.62,1.02.9,1.64.63Z"/>
        </g>
        <g>
          <polygon class="cls-2" points="46.86 144.64 63.56 143.5 60.97 160.17 46.86 144.64"/>
          <polygon class="cls-3" points="63.56 143.5 79.84 158.88 60.97 160.17 63.56 143.5"/>
          <polygon class="cls-2" points="60.97 160.17 79.84 158.88 49.98 190.14 60.97 160.17"/>
          <polygon class="cls-2" points="46.86 144.63 30.16 145.77 35 161.94 46.86 144.63"/>
          <polygon class="cls-3" points="30.16 145.77 16.13 163.22 35 161.94 30.16 145.77"/>
          <polygon class="cls-2" points="35 161.94 16.13 163.22 49.98 190.14 35 161.94"/>
          <polygon class="cls-3" points="49.98 190.14 60.97 160.16 35 161.94 49.98 190.14"/>
          <polygon class="cls-9" points="46.86 144.63 35 161.94 60.97 160.16 46.86 144.63"/>
          <path class="cls-1" d="M36.43,163.56l5.45-7.94c.66-.96.41-2.28-.55-2.93h0c-.96-.66-2.28-.41-2.94.55l-5.45,7.94c-.66.96-.41,2.28.55,2.93h0c.96.66,2.28.41,2.94-.55Z"/>
        </g>
        <g>
          <polygon class="cls-2" points="40.13 76.83 59.74 74.03 58.14 93.92 40.13 76.83"/>
          <polygon class="cls-3" points="59.74 74.03 80.29 90.76 58.14 93.92 59.74 74.03"/>
          <polygon class="cls-2" points="58.14 93.92 80.29 90.76 47.78 130.24 58.14 93.92"/>
          <polygon class="cls-2" points="40.13 76.83 20.53 79.62 27.65 98.27 40.13 76.83"/>
          <polygon class="cls-3" points="20.53 79.62 5.5 101.43 27.65 98.27 20.53 79.62"/>
          <polygon class="cls-2" points="27.65 98.27 5.5 101.43 47.78 130.24 27.65 98.27"/>
          <polygon class="cls-3" points="47.78 130.24 58.14 93.92 27.65 98.27 47.78 130.24"/>
          <polygon class="cls-9" points="40.13 76.83 27.65 98.27 58.14 93.92 40.13 76.83"/>
          <path class="cls-1" d="M29.29,100.4l6.12-10.51c.58-1,.24-2.3-.76-2.89l-.67-.39c-1-.58-2.3-.24-2.89.76l-6.12,10.51c-.58,1-.24,2.3.76,2.89l.67.39c1,.58,2.3.24,2.89-.76Z"/>
        </g>
        <g>
          <polygon class="cls-2" points="209.77 73.77 219.23 78.85 212.11 87.02 209.77 73.77"/>
          <polygon class="cls-3" points="219.23 78.85 222.8 92.77 212.11 87.02 219.23 78.85"/>
          <polygon class="cls-2" points="212.11 87.02 222.8 92.77 195.87 99.55 212.11 87.02"/>
          <polygon class="cls-2" points="209.77 73.77 200.31 68.68 197.4 79.11 209.77 73.77"/>
          <polygon class="cls-3" points="200.31 68.68 186.71 73.37 197.4 79.11 200.31 68.68"/>
          <polygon class="cls-2" points="197.4 79.11 186.71 73.37 195.87 99.54 197.4 79.11"/>
          <polygon class="cls-3" points="195.87 99.54 212.11 87.02 197.4 79.11 195.87 99.54"/>
          <polygon class="cls-9" points="209.77 73.77 197.4 79.11 212.11 87.02 209.77 73.77"/>
          <path class="cls-1" d="M197.62,80.48l5.68-2.45c.68-.3,1-1.1.71-1.78h0c-.3-.68-1.1-1-1.78-.7l-5.68,2.45c-.68.3-1,1.1-.71,1.78h0c.3.68,1.1,1,1.78.7Z"/>
        </g>
        <g>
          <g>
            <g>
              <polygon class="cls-3" points="34.48 229.79 15.15 245.86 50.16 245.86 34.48 229.79"/>
              <polygon class="cls-2" points="50.16 245.86 15.15 245.86 76.56 284.63 50.16 245.86"/>
              <polygon class="cls-3" points="50.16 245.86 69.16 242.44 76.56 284.63 50.16 245.86"/>
              <polygon class="cls-3" points="88.36 238.99 88.36 238.99 88.35 238.99 88.36 238.99"/>
              <polygon class="cls-9" points="67.37 232.24 67.37 232.24 67.37 232.24 69.16 242.44 50.16 245.86 67.37 232.24"/>
              <polygon class="cls-2" points="34.48 229.79 31.9 215.94 15.15 245.86 34.48 229.79"/>
              <g>
                <polygon class="cls-2" points="67.37 232.24 67.37 232.24 67.36 232.24 50.15 245.86 34.48 229.79 41.15 230.29 40.63 231.44 46.44 234.08 47.93 230.79 52.48 231.13 51.39 233.53 57.2 236.17 59.26 231.64 67.37 232.24"/>
                <g>
                  <polygon class="cls-2" points="67.37 232.24 97.46 218.75 88.19 239.19 67.37 232.24"/>
                  <polygon class="cls-3" points="97.46 218.75 121.1 227.28 88.19 239.19 97.46 218.75"/>
                  <polygon class="cls-2" points="88.19 239.19 121.1 227.28 76.55 284.63 88.19 239.19"/>
                  <polygon class="cls-3" points="88.19 239.19 69.16 242.44 76.55 284.63 88.19 239.19"/>
                  <polygon class="cls-3" points="49.92 245.73 49.92 245.73 49.93 245.72 49.92 245.73"/>
                  <polygon class="cls-9" points="67.37 232.24 67.36 232.24 67.37 232.24 69.16 242.44 88.19 239.19 67.37 232.24"/>
                  <polygon class="cls-2" points="97.46 218.75 95.17 204.84 121.1 227.28 97.46 218.75"/>
                </g>
              </g>
            </g>
            <polygon class="cls-9" points="95.17 204.84 97.46 218.75 67.37 232.24 67.37 232.24 59.26 231.64 52.48 231.13 47.93 230.79 41.15 230.29 34.48 229.79 31.9 215.94 51.37 207.77 60.02 204.15 60.03 204.15 62.28 203.2 65.09 203.34 71.94 203.68 95.17 204.84"/>
          </g>
          <polygon class="cls-2" points="47.93 230.79 46.44 234.08 40.63 231.44 41.15 230.29 47.93 230.79"/>
          <polygon class="cls-2" points="59.26 231.64 57.2 236.17 51.39 233.53 52.48 231.13 59.26 231.64"/>
          <g class="cls-5">
            <polygon class="cls-7" points="60.02 204.15 47.93 230.79 41.15 230.29 51.37 207.77 60.02 204.15"/>
            <polygon class="cls-7" points="71.94 203.68 59.26 231.64 52.48 231.13 65.09 203.34 71.94 203.68"/>
          </g>
        </g>
        <g>
          <g>
            <g>
              <polygon class="cls-3" points="201.77 219.43 190.35 221.36 204.3 229.46 201.77 219.43"/>
              <polygon class="cls-2" points="204.3 229.46 190.35 221.36 205.84 251.02 204.3 229.46"/>
              <polygon class="cls-3" points="204.3 229.46 212.66 232.49 205.84 251.02 204.3 229.46"/>
              <polygon class="cls-3" points="221.11 235.56 221.11 235.56 221.11 235.56 221.11 235.56"/>
              <polygon class="cls-9" points="214.31 228.01 214.31 228.02 214.31 228.02 212.66 232.49 204.3 229.46 214.31 228.01"/>
              <polygon class="cls-2" points="201.77 219.43 203.95 213.31 190.35 221.36 201.77 219.43"/>
              <g>
                <polygon class="cls-2" points="214.31 228.01 214.31 228.01 214.31 228.01 204.3 229.46 201.77 219.43 204.31 221.17 203.84 221.51 205.54 223.9 206.9 222.94 208.63 224.13 207.65 224.83 209.35 227.23 211.22 225.9 214.31 228.01"/>
                <g>
                  <polygon class="cls-2" points="214.31 228.01 229.42 229.6 221 235.6 214.31 228.01"/>
                  <polygon class="cls-3" points="229.42 229.6 236.87 238.47 221 235.6 229.42 229.6"/>
                  <polygon class="cls-2" points="221 235.6 236.87 238.47 205.84 251.02 221 235.6"/>
                  <polygon class="cls-3" points="221 235.6 212.66 232.49 205.84 251.02 221 235.6"/>
                  <polygon class="cls-3" points="204.24 229.35 204.24 229.35 204.24 229.35 204.24 229.35"/>
                  <polygon class="cls-9" points="214.31 228.01 214.31 228.01 214.31 228.02 212.66 232.49 221 235.6 214.31 228.01"/>
                  <polygon class="cls-2" points="229.42 229.6 231.73 223.53 236.87 238.47 229.42 229.6"/>
                </g>
              </g>
            </g>
            <polygon class="cls-2" points="208.62 223.24 205.88 225.19 202.43 220.35 203.39 219.67 208.62 223.24"/>
            <polygon class="cls-2" points="212.52 225.97 209.4 228.2 206.55 224.19 208.2 223.02 212.52 225.97"/>
            <polygon class="cls-9" points="231.73 223.53 229.42 229.6 214.31 228.01 214.31 228.01 211.22 225.9 208.63 224.13 206.9 222.94 204.31 221.17 201.77 219.43 203.95 213.31 213.59 214.56 217.88 215.12 217.88 215.12 219 215.27 220.09 215.97 222.74 217.69 231.73 223.53"/>
          </g>
          <polygon class="cls-3" points="204.3 229.46 205.84 251.02 221.11 235.56 204.3 229.46"/>
          <polygon class="cls-9" points="214.31 228.01 204.3 229.46 221.11 235.56 214.31 228.01"/>
          <g class="cls-5">
            <polygon class="cls-7" points="217.88 215.12 206.9 222.94 204.31 221.17 213.59 214.56 217.88 215.12"/>
            <polygon class="cls-7" points="222.74 217.69 211.22 225.9 208.63 224.13 220.09 215.97 222.74 217.69"/>
          </g>
        </g>
        <g>
          <g>
            <g>
              <polygon class="cls-3" points="32.77 230.01 13.09 246.43 48.79 246.36 32.77 230.01"/>
              <polygon class="cls-2" points="48.79 246.36 13.09 246.43 75.79 285.85 48.79 246.36"/>
              <polygon class="cls-3" points="48.79 246.36 68.16 242.83 75.79 285.85 48.79 246.36"/>
              <polygon class="cls-3" points="87.73 239.27 87.73 239.28 87.72 239.27 87.73 239.27"/>
              <polygon class="cls-9" points="66.31 232.44 66.32 232.44 66.31 232.44 68.16 242.83 48.79 246.36 66.31 232.44"/>
              <polygon class="cls-2" points="32.77 230.01 30.11 215.89 13.09 246.43 32.77 230.01"/>
              <g>
                <polygon class="cls-2" points="66.31 232.43 66.31 232.44 66.31 232.44 48.79 246.36 32.77 230.01 39.57 230.5 39.04 231.68 44.98 234.35 46.49 231 51.13 231.34 50.03 233.78 55.95 236.46 58.04 231.84 66.31 232.43"/>
                <g>
                  <polygon class="cls-2" points="66.31 232.44 96.97 218.62 87.56 239.48 66.31 232.44"/>
                  <polygon class="cls-3" points="96.97 218.62 121.1 227.26 87.56 239.48 96.97 218.62"/>
                  <polygon class="cls-2" points="87.56 239.48 121.1 227.26 75.79 285.85 87.56 239.48"/>
                  <polygon class="cls-3" points="87.56 239.48 68.16 242.83 75.79 285.85 87.56 239.48"/>
                  <polygon class="cls-3" points="48.55 246.23 48.55 246.23 48.56 246.22 48.55 246.23"/>
                  <polygon class="cls-9" points="66.31 232.44 66.31 232.44 66.31 232.44 68.16 242.83 87.56 239.48 66.31 232.44"/>
                  <polygon class="cls-2" points="96.97 218.62 94.61 204.44 121.1 227.26 96.97 218.62"/>
                </g>
              </g>
            </g>
            <polygon class="cls-2" points="50.12 229.67 47.06 236.44 35.06 231.03 36.13 228.66 50.12 229.67"/>
            <polygon class="cls-2" points="60.62 230.53 57.13 238.26 47.22 233.79 49.07 229.69 60.62 230.53"/>
            <polygon class="cls-9" points="94.61 204.44 96.97 218.62 66.32 232.43 66.31 232.43 58.04 231.84 51.13 231.34 46.49 231 39.57 230.5 32.77 230.01 30.11 215.89 49.94 207.52 58.76 203.8 58.77 203.8 61.06 202.84 63.93 202.97 70.92 203.31 94.61 204.44"/>
          </g>
          <polygon class="cls-3" points="48.79 246.36 75.79 285.85 87.72 239.27 48.79 246.36"/>
          <polygon class="cls-9" points="66.31 232.44 48.79 246.36 87.72 239.27 66.31 232.44"/>
          <g class="cls-5">
            <polygon class="cls-7" points="58.76 203.8 46.49 231 39.57 230.5 49.94 207.52 58.76 203.8"/>
            <polygon class="cls-7" points="70.92 203.31 58.04 231.84 51.13 231.34 63.93 202.97 70.92 203.31"/>
          </g>
        </g>
        <path class="cls-7" d="M17.97,76.34l-.41-5.56c-.04-.57.7-.84,1.03-.36l3.15,4.6c1.22,1.78,3.3,2.78,5.46,2.62l5.57-.41c.58-.04.84.7.36,1.03l-4.61,3.15c-1.79,1.22-2.79,3.3-2.63,5.45l.41,5.56c.04.57-.7.84-1.03.36l-3.15-4.6c-1.22-1.78-3.3-2.78-5.46-2.62l-5.57.41c-.58.04-.84-.7-.36-1.03l4.61-3.15c1.79-1.22,2.79-3.3,2.63-5.45Z"/>
        <path class="cls-7" d="M27.63,204.76l-.26-9.1c-.03-.94,1.21-1.31,1.7-.51l4.8,7.73c1.86,3,5.18,4.78,8.71,4.68l9.11-.26c.94-.03,1.31,1.21.51,1.7l-7.75,4.79c-3,1.86-4.79,5.17-4.69,8.7l.26,9.1c.03.94-1.21,1.31-1.7.51l-4.8-7.73c-1.86-3-5.18-4.78-8.71-4.68l-9.11.26c-.94.03-1.31-1.21-.51-1.7l7.75-4.79c3-1.86,4.79-5.17,4.69-8.7Z"/>
        <path class="cls-7" d="M221.97,162.5l-3.67-3.55c-.38-.37-.03-1,.48-.87l4.96,1.23c1.92.48,3.95-.11,5.33-1.53l3.55-3.67c.37-.38,1-.03.87.48l-1.23,4.95c-.48,1.92.11,3.95,1.53,5.32l3.67,3.55c.38.37.03,1-.48.87l-4.96-1.23c-1.92-.48-3.95.11-5.33,1.53l-3.55,3.67c-.37.38-1,.03-.87-.48l1.23-4.95c.48-1.92-.11-3.95-1.53-5.32Z"/>
        <path class="cls-7" d="M194.98,213.33l-5.2-3.51c-.54-.36-.25-1.2.4-1.16l6.26.43c2.43.17,4.76-.97,6.13-2.98l3.52-5.19c.36-.54,1.2-.25,1.16.4l-.43,6.25c-.17,2.42.97,4.76,2.98,6.12l5.2,3.51c.54.36.25,1.2-.4,1.16l-6.26-.43c-2.43-.17-4.76.97-6.13,2.98l-3.52,5.19c-.36.54-1.2.25-1.16-.4l.43-6.25c.17-2.42-.97-4.76-2.98-6.12Z"/>
        <g>
          <g>
            <g>
              <polygon class="cls-3" points="119.74 81.4 114.68 85.9 124.1 85.6 119.74 81.4"/>
              <polygon class="cls-2" points="124.1 85.6 114.68 85.9 131.55 95.81 124.1 85.6"/>
              <polygon class="cls-3" points="124.1 85.6 129.19 84.51 131.55 95.81 124.1 85.6"/>
              <polygon class="cls-3" points="134.34 83.41 134.34 83.42 134.33 83.41 134.34 83.41"/>
              <polygon class="cls-9" points="128.62 81.78 128.62 81.78 128.62 81.78 129.19 84.51 124.1 85.6 128.62 81.78"/>
              <polygon class="cls-2" points="119.74 81.4 118.93 77.69 114.68 85.9 119.74 81.4"/>
              <g>
                <polygon class="cls-2" points="128.62 81.78 128.62 81.78 128.62 81.78 124.1 85.6 119.74 81.4 121.54 81.48 121.41 81.79 123 82.45 123.38 81.56 124.6 81.61 124.33 82.26 125.92 82.92 126.43 81.69 128.62 81.78"/>
                <g>
                  <polygon class="cls-2" points="128.62 81.78 136.61 77.89 134.29 83.47 128.62 81.78"/>
                  <polygon class="cls-3" points="136.61 77.89 143.05 79.98 134.29 83.47 136.61 77.89"/>
                  <polygon class="cls-2" points="134.29 83.47 143.05 79.98 131.55 95.81 134.29 83.47"/>
                  <polygon class="cls-3" points="134.29 83.47 129.19 84.51 131.55 95.81 134.29 83.47"/>
                  <polygon class="cls-3" points="124.04 85.56 124.04 85.56 124.04 85.56 124.04 85.56"/>
                  <polygon class="cls-9" points="128.62 81.78 128.62 81.78 128.62 81.78 129.19 84.51 134.29 83.47 128.62 81.78"/>
                  <polygon class="cls-2" points="136.61 77.89 135.88 74.16 143.05 79.98 136.61 77.89"/>
                </g>
              </g>
            </g>
            <polygon class="cls-2" points="124.32 81.18 123.57 82.99 120.36 81.65 120.62 81.02 124.32 81.18"/>
            <polygon class="cls-2" points="127.1 81.32 126.24 83.39 123.59 82.29 124.05 81.19 127.1 81.32"/>
            <polygon class="cls-9" points="135.88 74.16 136.61 77.88 128.62 81.78 128.62 81.78 126.43 81.69 124.6 81.61 123.38 81.56 121.54 81.48 119.74 81.4 118.93 77.69 124.1 75.33 126.4 74.28 126.4 74.28 127 74 127.76 74.01 129.61 74.05 135.88 74.16"/>
          </g>
          <polygon class="cls-3" points="124.1 85.6 131.55 95.81 134.33 83.41 124.1 85.6"/>
          <polygon class="cls-9" points="128.62 81.78 124.1 85.6 134.33 83.41 128.62 81.78"/>
          <g class="cls-5">
            <polygon class="cls-7" points="126.4 74.28 123.38 81.56 121.54 81.48 124.1 75.33 126.4 74.28"/>
            <polygon class="cls-7" points="129.61 74.05 126.43 81.69 124.6 81.61 127.76 74.01 129.61 74.05"/>
          </g>
        </g>
        <g class="cls-6">
          <g>
            <g>
              <polygon points="119.72 81.39 114.65 85.88 124.08 85.58 119.72 81.39"/>
              <polygon points="124.08 85.58 114.65 85.88 131.53 95.8 124.08 85.58"/>
              <polygon points="124.08 85.58 129.17 84.5 131.53 95.8 124.08 85.58"/>
              <polygon points="134.31 83.4 134.31 83.4 134.31 83.4 134.31 83.4"/>
              <polygon points="128.6 81.76 128.6 81.76 128.6 81.77 129.17 84.5 124.08 85.58 128.6 81.76"/>
              <polygon points="119.72 81.39 118.91 77.68 114.65 85.88 119.72 81.39"/>
              <g>
                <polygon points="128.6 81.76 128.6 81.76 128.6 81.76 124.08 85.58 119.72 81.39 121.52 81.47 121.39 81.78 122.98 82.44 123.35 81.54 124.58 81.59 124.31 82.25 125.9 82.91 126.41 81.67 128.6 81.76"/>
                <g>
                  <polygon points="128.6 81.76 136.59 77.87 134.27 83.46 128.6 81.76"/>
                  <polygon points="136.59 77.87 143.03 79.96 134.27 83.46 136.59 77.87"/>
                  <polygon points="134.27 83.46 143.03 79.96 131.53 95.8 134.27 83.46"/>
                  <polygon points="134.27 83.46 129.17 84.5 131.53 95.8 134.27 83.46"/>
                  <polygon points="124.02 85.55 124.02 85.55 124.02 85.55 124.02 85.55"/>
                  <polygon points="128.6 81.76 128.6 81.77 128.6 81.77 129.17 84.5 134.27 83.46 128.6 81.76"/>
                  <polygon points="136.59 77.87 135.85 74.14 143.03 79.96 136.59 77.87"/>
                </g>
              </g>
            </g>
            <polygon points="124.3 81.16 123.55 82.97 120.33 81.64 120.6 81.01 124.3 81.16"/>
            <polygon points="127.08 81.31 126.22 83.38 123.57 82.27 124.02 81.18 127.08 81.31"/>
            <polygon points="135.85 74.14 136.59 77.87 128.6 81.76 128.6 81.76 126.41 81.67 124.58 81.59 123.35 81.54 121.52 81.47 119.72 81.39 118.91 77.68 124.08 75.31 126.38 74.26 126.38 74.26 126.98 73.99 127.74 74 129.59 74.03 135.85 74.14"/>
          </g>
          <polygon points="124.08 85.58 131.53 95.8 134.31 83.4 124.08 85.58"/>
          <polygon points="128.6 81.76 124.08 85.58 134.31 83.4 128.6 81.76"/>
          <g class="cls-5">
            <polygon points="126.38 74.26 123.35 81.54 121.52 81.47 124.08 75.31 126.38 74.26"/>
            <polygon points="129.59 74.03 126.41 81.67 124.58 81.59 127.74 74 129.59 74.03"/>
          </g>
        </g>
      </g>
      <g>
        <polygon class="cls-2" points="86.63 7.68 97.76 7.68 95.28 18.89 86.63 7.68"/>
        <polygon class="cls-3" points="97.76 7.68 107.86 18.89 95.28 18.89 97.76 7.68"/>
        <polygon class="cls-2" points="95.28 18.89 107.86 18.89 86.63 38.75 95.28 18.89"/>
        <polygon class="cls-2" points="86.63 7.68 75.5 7.68 77.97 18.89 86.63 7.68"/>
        <polygon class="cls-3" points="75.5 7.68 65.4 18.89 77.97 18.89 75.5 7.68"/>
        <polygon class="cls-2" points="77.97 18.89 65.4 18.89 86.63 38.75 77.97 18.89"/>
        <polygon class="cls-3" points="86.63 38.75 95.28 18.89 77.97 18.89 86.63 38.75"/>
        <polygon class="cls-9" points="86.63 7.68 77.97 18.89 95.28 18.89 86.63 7.68"/>
        <path class="cls-1" d="M78.49,20.52l4.69-6.08c.28-.36.22-.9-.14-1.18l-.91-.74c-.36-.29-.88-.22-1.16.14l-4.69,6.08c-.28.36-.22.9.14,1.18l.91.74c.36.29.88.22,1.16-.14Z"/>
      </g>
    </g>
  </g>
</svg>