<?xml version="1.0" encoding="UTF-8"?>
<svg id="_Слой_2" data-name="Слой 2" xmlns="http://www.w3.org/2000/svg" xmlns:xlink="http://www.w3.org/1999/xlink" viewBox="0 0 261.41 371.58">
  <defs>
    <style>
      .cls-1 {
        fill: #e2eaff;
      }

      .cls-2 {
        fill: #00a6c2;
      }

      .cls-3 {
        fill: #00ccef;
      }

      .cls-4 {
        opacity: .12;
      }

      .cls-5 {
        opacity: .92;
      }

      .cls-6 {
        fill: #fff;
      }

      .cls-7 {
        opacity: .25;
      }

      .cls-8 {
        fill: #2ce4ff;
      }

      .cls-9 {
        fill: url(#_Безымянный_градиент_37);
      }

      .cls-10 {
        opacity: .1;
      }
    </style>
    <linearGradient id="_Безымянный_градиент_37" data-name="Безымянный градиент 37" x1="-17.41" y1="30.8" x2="278.82" y2="340.78" gradientUnits="userSpaceOnUse">
      <stop offset="0" stop-color="#007a87"/>
      <stop offset="1" stop-color="#006177"/>
    </linearGradient>
  </defs>
  <g id="_Слой_1-2" data-name="Слой 1">
    <g>
      <g>
        <path class="cls-9" d="M261.41,24.65v322.28c0,13.56-11.11,24.65-24.69,24.65H24.69c-3.6,0-7.02-.78-10.12-2.18t-.02-.01c-.29-.13-.57-.28-.85-.42-.2-.11-.4-.22-.6-.33-.06-.02-.11-.05-.16-.09-.94-.51-1.86-1.06-2.72-1.69-6.18-4.48-10.22-11.76-10.22-19.93V24.65C0,11.09,11.11,0,24.69,0h212.03c13.58,0,24.69,11.09,24.69,24.65Z"/>
        <path class="cls-10" d="M199.83,0L0,199.52V24.65C0,11.09,11.11,0,24.69,0h175.14Z"/>
        <path class="cls-10" d="M261.41,107.46v237.93c0,14.41-11.41,26.19-25.36,26.19H24.69c-3.6,0-7.02-.78-10.12-2.18t-.02-.01c-.29-.13-.57-.28-.85-.42-.2-.11-.4-.22-.6-.33-.06-.02-.11-.05-.16-.09-.94-.51-1.86-1.06-2.72-1.69l.05-.06h.01L261.41,107.46Z"/>
      </g>
      <g>
        <g>
          <polygon class="cls-2" points="83.08 75.42 124.47 70.05 120.56 111.93 83.08 75.42"/>
          <polygon class="cls-3" points="124.47 70.05 167.33 105.87 120.56 111.93 124.47 70.05"/>
          <polygon class="cls-2" points="120.56 111.93 167.33 105.87 97.74 188.19 120.56 111.93"/>
          <polygon class="cls-2" points="83.08 75.41 41.69 80.77 56.18 120.27 83.08 75.41"/>
          <polygon class="cls-3" points="41.69 80.77 9.41 126.33 56.18 120.27 41.69 80.77"/>
          <polygon class="cls-2" points="56.18 120.27 9.41 126.33 97.74 188.19 56.18 120.27"/>
          <polygon class="cls-3" points="97.74 188.19 120.56 111.93 56.18 120.27 97.74 188.19"/>
          <polygon class="cls-8" points="83.08 75.41 56.18 120.27 120.56 111.93 83.08 75.41"/>
        </g>
        <g class="cls-7">
          <polygon points="83.08 75.42 124.47 70.05 120.56 111.93 83.08 75.42"/>
          <polygon points="124.47 70.05 167.32 105.87 120.56 111.93 124.47 70.05"/>
          <polygon points="120.56 111.93 167.32 105.87 97.74 188.19 120.56 111.93"/>
          <polygon points="83.08 75.41 41.69 80.77 56.18 120.27 83.08 75.41"/>
          <polygon points="41.69 80.77 9.41 126.33 56.18 120.27 41.69 80.77"/>
          <polygon points="56.18 120.27 9.41 126.33 97.74 188.19 56.18 120.27"/>
          <polygon points="97.74 188.19 120.55 111.92 56.18 120.27 97.74 188.19"/>
          <polygon points="83.08 75.41 56.18 120.27 120.55 111.92 83.08 75.41"/>
          <path d="M59.17,125.48l14.01-23.37c1.03-1.72.47-3.97-1.26-5l-2.78-1.66c-1.72-1.03-3.97-.46-5,1.25l-14.01,23.37c-1.03,1.72-.47,3.97,1.26,5l2.78,1.66c1.72,1.03,3.97.46,5-1.25Z"/>
        </g>
        <g>
          <polygon class="cls-2" points="66.27 195.9 89.53 177.77 102.24 204.67 66.27 195.9"/>
          <polygon class="cls-3" points="89.53 177.77 128.53 184.18 102.24 204.67 89.53 177.77"/>
          <polygon class="cls-2" points="102.24 204.67 128.53 184.18 115.83 259.3 102.24 204.67"/>
          <polygon class="cls-2" points="66.26 195.9 43 214.03 66.05 232.87 66.26 195.9"/>
          <polygon class="cls-3" points="43 214.03 39.76 253.36 66.05 232.87 43 214.03"/>
          <polygon class="cls-2" points="66.05 232.87 39.76 253.36 115.82 259.29 66.05 232.87"/>
          <polygon class="cls-3" points="115.82 259.29 102.24 204.67 66.05 232.87 115.82 259.29"/>
          <polygon class="cls-8" points="66.26 195.9 66.05 232.87 102.24 204.67 66.26 195.9"/>
          <rect class="cls-1" x="53.87" y="221.59" width="24.41" height="7.45" rx="3.65" ry="3.65" transform="translate(-159.61 290.1) rotate(-89.67)"/>
        </g>
        <g>
          <polygon class="cls-2" points="204.96 91.06 177.36 85.38 177.9 113.77 204.96 91.06"/>
          <polygon class="cls-3" points="177.36 85.38 146.72 107.35 177.9 113.77 177.36 85.38"/>
          <polygon class="cls-2" points="177.9 113.77 146.72 107.35 189.43 166.25 177.9 113.77"/>
          <polygon class="cls-2" points="204.96 91.05 232.55 96.73 220.82 122.6 204.96 91.05"/>
          <polygon class="cls-3" points="232.55 96.73 252 129.02 220.82 122.6 232.55 96.73"/>
          <polygon class="cls-2" points="220.82 122.6 252 129.02 189.44 166.24 220.82 122.6"/>
          <polygon class="cls-3" points="189.44 166.24 177.9 113.76 220.82 122.6 189.44 166.24"/>
          <polygon class="cls-8" points="204.96 91.05 220.82 122.6 177.9 113.76 204.96 91.05"/>
          <path class="cls-1" d="M218.05,124.98l-7.28-14.48c-.88-1.75-.17-3.89,1.58-4.77h0c1.75-.88,3.89-.16,4.77,1.58l7.28,14.48c.88,1.75.17,3.89-1.58,4.77h0c-1.75.88-3.89.16-4.77-1.58Z"/>
        </g>
        <g class="cls-4">
          <polygon points="204.93 91.07 177.34 85.39 177.87 113.78 204.93 91.07"/>
          <polygon points="177.34 85.39 146.69 107.36 177.87 113.78 177.34 85.39"/>
          <polygon points="177.87 113.78 146.69 107.36 189.41 166.26 177.87 113.78"/>
          <polygon points="204.94 91.07 232.53 96.75 220.8 122.61 204.94 91.07"/>
          <polygon points="232.53 96.75 251.98 129.03 220.8 122.61 232.53 96.75"/>
          <polygon points="220.8 122.61 251.98 129.03 189.41 166.26 220.8 122.61"/>
          <polygon points="189.41 166.26 177.88 113.78 220.8 122.61 189.41 166.26"/>
          <polygon points="204.94 91.07 220.8 122.61 177.88 113.78 204.94 91.07"/>
          <path d="M218.03,124.99l-7.28-14.48c-.88-1.75-.17-3.89,1.58-4.77h0c1.75-.88,3.89-.16,4.77,1.58l7.28,14.48c.88,1.75.17,3.89-1.58,4.77h0c-1.75.88-3.89.16-4.77-1.58Z"/>
        </g>
        <g>
          <g>
            <g>
              <polygon class="cls-3" points="167.84 165.91 133.6 161.37 166.24 196.71 167.84 165.91"/>
              <polygon class="cls-2" points="166.24 196.71 133.6 161.37 151.71 259.52 166.24 196.71"/>
              <polygon class="cls-3" points="166.24 196.71 187.41 212.71 151.71 259.52 166.24 196.71"/>
              <polygon class="cls-3" points="208.8 228.87 208.8 228.88 208.79 228.87 208.8 228.87"/>
              <polygon class="cls-8" points="196.04 201.39 196.04 201.4 196.03 201.4 187.41 212.71 166.24 196.71 196.04 201.39"/>
              <polygon class="cls-2" points="167.84 165.91 179.42 150.38 133.6 161.37 167.84 165.91"/>
              <g>
                <polygon class="cls-2" points="196.04 201.39 196.04 201.39 196.03 201.39 166.24 196.71 167.84 165.91 173.56 173.11 171.91 173.65 174.67 181.98 179.37 180.42 183.28 185.33 179.84 186.47 182.59 194.79 189.09 192.64 196.04 201.39"/>
                <g>
                  <polygon class="cls-2" points="196.04 201.39 237.72 219.19 208.44 228.89 196.04 201.39"/>
                  <polygon class="cls-3" points="237.72 219.19 251.15 251.01 208.44 228.89 237.72 219.19"/>
                  <polygon class="cls-2" points="208.44 228.89 251.15 251.01 151.71 259.52 208.44 228.89"/>
                  <polygon class="cls-3" points="208.44 228.89 187.41 212.71 151.71 259.52 208.44 228.89"/>
                  <polygon class="cls-3" points="166.16 196.36 166.15 196.36 166.17 196.36 166.16 196.36"/>
                  <polygon class="cls-8" points="196.04 201.39 196.03 201.39 196.03 201.39 187.41 212.71 208.44 228.89 196.04 201.39"/>
                  <polygon class="cls-2" points="237.72 219.19 249.63 203.91 251.15 251.01 237.72 219.19"/>
                </g>
              </g>
            </g>
            <polygon class="cls-2" points="181.77 181.65 174.58 184.03 170.37 171.3 172.88 170.47 181.77 181.65"/>
            <polygon class="cls-2" points="193.36 194.24 181.75 198.08 176.83 183.2 182.98 181.17 193.36 194.24"/>
            <polygon class="cls-8" points="249.63 203.92 237.72 219.19 196.05 201.39 196.04 201.39 189.09 192.64 183.28 185.33 179.37 180.42 173.56 173.11 167.84 165.91 179.42 150.38 205.82 162.42 217.55 167.78 217.55 167.78 220.61 169.18 223.09 172.14 229.13 179.38 249.63 203.92"/>
          </g>
          <g class="cls-5">
            <polygon class="cls-6" points="217.55 167.78 179.37 180.42 173.56 173.11 205.82 162.42 217.55 167.78"/>
            <polygon class="cls-6" points="229.13 179.38 189.09 192.64 183.28 185.33 223.09 172.14 229.13 179.38"/>
          </g>
          <polygon class="cls-8" points="196.04 201.4 166.24 196.71 208.44 228.89 196.04 201.4"/>
          <polygon class="cls-3" points="166.24 196.71 151.71 259.52 208.44 228.89 166.24 196.71"/>
        </g>
        <path class="cls-6" d="M178.92,135.09l7.57-10.93c.78-1.13,2.56-.5,2.45.87l-1.05,13.25c-.41,5.14,1.95,10.1,6.2,13.03l10.94,7.56c1.13.78.5,2.55-.87,2.44l-13.27-1.05c-5.14-.41-10.11,1.95-13.05,6.19l-7.57,10.93c-.78,1.13-2.56.5-2.45-.87l1.05-13.25c.41-5.14-1.95-10.1-6.2-13.03l-10.94-7.56c-1.13-.78-.5-2.55.87-2.44l13.27,1.05c5.14.41,10.11-1.95,13.05-6.19Z"/>
        <path class="cls-6" d="M34.63,213.41l-5.72-6.32c-.59-.65.06-1.66.9-1.4l8.12,2.6c3.15,1.01,6.6.26,9.05-1.95l6.33-5.71c.65-.59,1.67.06,1.4.9l-2.6,8.11c-1.01,3.14-.26,6.59,1.95,9.03l5.72,6.32c.59.65-.06,1.66-.9,1.4l-8.12-2.6c-3.15-1.01-6.6-.26-9.05,1.95l-6.33,5.71c-.65.59-1.67-.06-1.4-.9l2.6-8.11c1.01-3.14.26-6.59-1.95-9.03Z"/>
      </g>
      <g>
        <polygon class="cls-2" points="86.63 7.68 97.76 7.68 95.28 18.89 86.63 7.68"/>
        <polygon class="cls-3" points="97.76 7.68 107.86 18.89 95.28 18.89 97.76 7.68"/>
        <polygon class="cls-2" points="95.28 18.89 107.86 18.89 86.63 38.75 95.28 18.89"/>
        <polygon class="cls-2" points="86.63 7.68 75.5 7.68 77.97 18.89 86.63 7.68"/>
        <polygon class="cls-3" points="75.5 7.68 65.4 18.89 77.97 18.89 75.5 7.68"/>
        <polygon class="cls-2" points="77.97 18.89 65.4 18.89 86.63 38.75 77.97 18.89"/>
        <polygon class="cls-3" points="86.63 38.75 95.28 18.89 77.97 18.89 86.63 38.75"/>
        <polygon class="cls-8" points="86.63 7.68 77.97 18.89 95.28 18.89 86.63 7.68"/>
        <path class="cls-1" d="M78.49,20.52l4.69-6.08c.28-.36.22-.9-.14-1.18l-.91-.74c-.36-.29-.88-.22-1.16.14l-4.69,6.08c-.28.36-.22.9.14,1.18l.91.74c.36.29.88.22,1.16-.14Z"/>
      </g>
    </g>
  </g>
</svg>