<?xml version="1.0" encoding="UTF-8"?>
<svg id="_Слой_2" data-name="Слой 2" xmlns="http://www.w3.org/2000/svg" xmlns:xlink="http://www.w3.org/1999/xlink" viewBox="0 0 261.41 371.58">
  <defs>
    <style>
      .cls-1 {
        fill: #e2eaff;
      }

      .cls-2 {
        fill: #00a6c2;
      }

      .cls-3 {
        fill: #00ccef;
      }

      .cls-4 {
        opacity: .92;
      }

      .cls-5 {
        fill: #fff;
      }

      .cls-6 {
        fill: #2ce4ff;
      }

      .cls-7 {
        fill: url(#_Безымянный_градиент_37);
      }

      .cls-8 {
        opacity: .1;
      }

      .cls-9 {
        opacity: .28;
      }
    </style>
    <linearGradient id="_Безымянный_градиент_37" data-name="Безымянный градиент 37" x1="23.13" y1="73.22" x2="203.74" y2="262.21" gradientUnits="userSpaceOnUse">
      <stop offset="0" stop-color="#007a87"/>
      <stop offset="1" stop-color="#006177"/>
    </linearGradient>
  </defs>
  <g id="_Слой_1-2" data-name="Слой 1">
    <g>
      <g>
        <g>
          <path class="cls-7" d="M261.41,24.65v322.28c0,13.56-11.11,24.65-24.69,24.65H24.69c-3.6,0-7.02-.78-10.12-2.18t-.02-.01c-.29-.13-.57-.28-.85-.42-.2-.11-.4-.22-.6-.33-.06-.02-.11-.05-.16-.09-.94-.51-1.86-1.06-2.72-1.69-6.18-4.48-10.22-11.76-10.22-19.93V24.65C0,11.09,11.11,0,24.69,0h212.03c13.58,0,24.69,11.09,24.69,24.65Z"/>
          <path class="cls-8" d="M199.83,0L0,199.52V24.65C0,11.09,11.11,0,24.69,0h175.14Z"/>
          <path class="cls-8" d="M261.41,107.46v237.93c0,14.41-11.41,26.19-25.36,26.19H24.69c-3.6,0-7.02-.78-10.12-2.18t-.02-.01c-.29-.13-.57-.28-.85-.42-.2-.11-.4-.22-.6-.33-.06-.02-.11-.05-.16-.09-.94-.51-1.86-1.06-2.72-1.69l.05-.06h.01L261.41,107.46Z"/>
        </g>
        <g>
          <g>
            <polygon class="cls-2" points="59.29 134.71 89.59 120.45 96.91 153.41 59.29 134.71"/>
            <polygon class="cls-3" points="89.59 120.45 131.15 137.3 96.91 153.41 89.59 120.45"/>
            <polygon class="cls-2" points="96.91 153.41 131.15 137.3 98.25 217.27 96.91 153.41"/>
            <polygon class="cls-2" points="59.28 134.7 28.98 148.96 49.78 175.58 59.28 134.7"/>
            <polygon class="cls-3" points="28.98 148.96 15.54 191.69 49.78 175.58 28.98 148.96"/>
            <polygon class="cls-2" points="49.78 175.58 15.54 191.69 98.25 217.27 49.78 175.58"/>
            <polygon class="cls-3" points="98.25 217.27 96.91 153.4 49.78 175.58 98.25 217.27"/>
            <polygon class="cls-6" points="59.28 134.7 49.78 175.58 96.91 153.4 59.28 134.7"/>
          </g>
          <g class="cls-9">
            <polygon points="59.2 134.63 89.5 120.37 96.82 153.33 59.2 134.63"/>
            <polygon points="89.5 120.37 131.06 137.22 96.82 153.33 89.5 120.37"/>
            <polygon points="96.82 153.33 131.06 137.22 98.17 217.19 96.82 153.33"/>
            <polygon points="59.2 134.62 28.9 148.88 49.69 175.5 59.2 134.62"/>
            <polygon points="28.9 148.88 15.45 191.61 49.69 175.5 28.9 148.88"/>
            <polygon points="49.69 175.5 15.45 191.61 98.16 217.19 49.69 175.5"/>
            <polygon points="98.16 217.19 96.82 153.32 49.69 175.5 98.16 217.19"/>
            <polygon points="59.2 134.62 49.69 175.5 96.82 153.32 59.2 134.62"/>
            <rect x="37.76" y="162.92" width="27.71" height="8.45" rx="3.57" ry="3.57" transform="translate(-122.87 179.56) rotate(-76.91)"/>
          </g>
          <g>
            <g>
              <g>
                <polygon class="cls-3" points="126.72 96.89 81.67 95.77 128.93 137.07 126.72 96.89"/>
                <polygon class="cls-2" points="128.93 137.07 81.67 95.77 118.81 220.57 128.93 137.07"/>
                <polygon class="cls-3" points="128.93 137.07 158.61 154.88 118.81 220.57 128.93 137.07"/>
                <polygon class="cls-3" points="188.61 172.87 188.6 172.88 188.59 172.86 188.61 172.87"/>
                <polygon class="cls-6" points="168.23 138.99 168.23 139.01 168.23 139 158.61 154.88 128.93 137.07 168.23 138.99"/>
                <polygon class="cls-2" points="126.72 96.89 139.59 75.14 81.67 95.77 126.72 96.89"/>
                <g>
                  <polygon class="cls-2" points="168.23 138.99 168.23 139 168.22 138.99 128.93 137.07 126.72 96.89 135.14 105.43 133.08 106.37 137.81 116.78 143.69 114.11 149.45 119.94 145.15 121.89 149.87 132.3 158 128.61 168.23 138.99"/>
                  <g>
                    <polygon class="cls-2" points="168.23 138.99 224.77 156.3 188.13 172.94 168.23 138.99"/>
                    <polygon class="cls-3" points="224.77 156.3 246.62 195.7 188.13 172.94 224.77 156.3"/>
                    <polygon class="cls-2" points="188.13 172.94 246.62 195.7 118.81 220.57 188.13 172.94"/>
                    <polygon class="cls-3" points="188.13 172.94 158.61 154.87 118.81 220.57 188.13 172.94"/>
                    <polygon class="cls-3" points="128.77 136.62 128.76 136.63 128.78 136.63 128.77 136.62"/>
                    <polygon class="cls-6" points="168.23 138.99 168.22 139 168.23 139 158.61 154.87 188.13 172.94 168.23 138.99"/>
                    <polygon class="cls-2" points="224.77 156.3 238.09 134.82 246.62 195.7 224.77 156.3"/>
                  </g>
                </g>
              </g>
              <polygon class="cls-2" points="150.04 116.55 138.14 121.96 128.57 100.89 132.73 99 150.04 116.55"/>
              <polygon class="cls-2" points="162.92 129.88 149.33 136.04 141.43 118.63 148.62 115.37 162.92 129.88"/>
              <polygon class="cls-6" points="238.09 134.82 224.77 156.29 168.24 139 168.23 138.99 158 128.61 149.45 119.94 143.69 114.11 135.14 105.43 126.72 96.89 139.58 75.14 175.5 87.09 191.46 92.4 191.47 92.41 195.62 93.79 199.26 97.3 208.1 105.85 238.09 134.82"/>
            </g>
            <polygon class="cls-3" points="128.93 137.07 118.81 220.57 188.59 172.86 128.93 137.07"/>
            <polygon class="cls-6" points="168.23 138.99 128.93 137.07 188.59 172.86 168.23 138.99"/>
            <g class="cls-4">
              <polygon class="cls-5" points="191.46 92.4 143.69 114.11 135.14 105.43 175.5 87.09 191.46 92.4"/>
              <polygon class="cls-5" points="208.1 105.85 158 128.61 149.45 119.94 199.26 97.3 208.1 105.85"/>
            </g>
          </g>
        </g>
      </g>
      <path class="cls-5" d="M100.45,86.09l13.97-.82c1.44-.09,2.07,1.79.86,2.59l-11.67,7.72c-4.52,2.99-7.11,8.16-6.79,13.57l.82,13.95c.09,1.44-1.79,2.07-2.59.86l-7.73-11.65c-3-4.52-8.17-7.1-13.59-6.78l-13.97.82c-1.44.09-2.07-1.79-.86-2.59l11.67-7.72c4.52-2.99,7.11-8.16,6.79-13.57l-.82-13.95c-.09-1.44,1.79-2.07,2.59-.86l7.73,11.65c3,4.52,8.17,7.1,13.59,6.78Z"/>
      <g>
        <polygon class="cls-2" points="86.63 7.68 97.76 7.68 95.28 18.89 86.63 7.68"/>
        <polygon class="cls-3" points="97.76 7.68 107.86 18.89 95.28 18.89 97.76 7.68"/>
        <polygon class="cls-2" points="95.28 18.89 107.86 18.89 86.63 38.75 95.28 18.89"/>
        <polygon class="cls-2" points="86.63 7.68 75.5 7.68 77.97 18.89 86.63 7.68"/>
        <polygon class="cls-3" points="75.5 7.68 65.4 18.89 77.97 18.89 75.5 7.68"/>
        <polygon class="cls-2" points="77.97 18.89 65.4 18.89 86.63 38.75 77.97 18.89"/>
        <polygon class="cls-3" points="86.63 38.75 95.28 18.89 77.97 18.89 86.63 38.75"/>
        <polygon class="cls-6" points="86.63 7.68 77.97 18.89 95.28 18.89 86.63 7.68"/>
        <path class="cls-1" d="M78.49,20.52l4.69-6.08c.28-.36.22-.9-.14-1.18l-.91-.74c-.36-.29-.88-.22-1.16.14l-4.69,6.08c-.28.36-.22.9.14,1.18l.91.74c.36.29.88.22,1.16-.14Z"/>
      </g>
    </g>
  </g>
</svg>