<?xml version="1.0" encoding="UTF-8"?>
<svg id="_Слой_2" data-name="Слой 2" xmlns="http://www.w3.org/2000/svg" viewBox="0 0 863.62 518.27">
  <defs>
    <style>
      .cls-1 {
        fill: #fff;
      }

      .cls-2 {
        fill: #262626;
      }

      .cls-3 {
        fill: #3f94c5;
      }
    </style>
  </defs>
  <g id="_Слой_1-2" data-name="Слой 1">
    <g>
      <path class="cls-2" d="M863.62,58.22v407.2c0,29.06-23.78,52.85-52.84,52.85H52.85c-29.06,0-52.85-23.79-52.85-52.85V58.22C0,33.44,17.3,12.5,40.42,6.87c3.99-.97,8.15-1.49,12.43-1.49h757.93c4.28,0,8.44.52,12.43,1.49,23.12,5.63,40.41,26.57,40.41,51.35Z"/>
      <path class="cls-1" d="M863.62,52.84v407.2c0,29.06-23.78,52.85-52.84,52.85H52.85c-29.06,0-52.85-23.79-52.85-52.85V52.84C0,28.06,17.3,7.12,40.42,1.49c3.99-.97,8.15-1.49,12.43-1.49h757.93c4.28,0,8.44.52,12.43,1.49,23.12,5.63,40.41,26.57,40.41,51.35Z"/>
      <path class="cls-3" d="M863.62,52.84v33.63H0v-33.63C0,28.06,17.3,7.12,40.42,1.49c3.99-.97,8.15-1.49,12.43-1.49h757.93c4.28,0,8.44.52,12.43,1.49,23.12,5.63,40.41,26.57,40.41,51.35Z"/>
    </g>
  </g>
</svg>