<?xml version="1.0" encoding="UTF-8"?>
<svg id="_Слой_2" data-name="Слой 2" xmlns="http://www.w3.org/2000/svg" xmlns:xlink="http://www.w3.org/1999/xlink" viewBox="0 0 261.01 371.58">
  <defs>
    <style>
      .cls-1 {
        fill: #a9dcf9;
      }

      .cls-1, .cls-2 {
        opacity: .35;
      }

      .cls-3 {
        fill: #3c1f0f;
      }

      .cls-4 {
        opacity: .12;
      }

      .cls-4, .cls-5, .cls-6, .cls-7, .cls-2 {
        fill: #fff;
      }

      .cls-8 {
        fill: #ffc533;
      }

      .cls-9 {
        fill: #3e4649;
      }

      .cls-9, .cls-10 {
        opacity: .45;
      }

      .cls-11 {
        fill: #d2a12b;
      }

      .cls-12 {
        fill: url(#_Безымянный_градиент_37);
      }

      .cls-6 {
        opacity: .87;
      }

      .cls-13 {
        fill: #417c41;
      }

      .cls-14 {
        fill: #bed9e2;
        opacity: .6;
      }

      .cls-7 {
        opacity: .3;
      }

      .cls-15 {
        fill: #30180d;
      }

      .cls-16 {
        fill: #cae7f4;
        opacity: .18;
      }

      .cls-17 {
        fill: #ffd373;
      }

      .cls-18 {
        fill: #4c9350;
      }

      .cls-19 {
        fill: #ffb936;
      }

      .cls-20 {
        fill: #e2a92e;
      }

      .cls-21 {
        fill: #ff9600;
      }

      .cls-22 {
        fill: #773a28;
      }

      .cls-23 {
        fill: #683123;
      }

      .cls-24 {
        fill: #42c352;
      }

      .cls-25 {
        fill: #3c703c;
      }

      .cls-26 {
        opacity: .1;
      }

      .cls-27 {
        fill: #0051c1;
      }
    </style>
    <linearGradient id="_Безымянный_градиент_37" data-name="Безымянный градиент 37" x1="63.17" y1="126.57" x2="259.16" y2="298.94" gradientUnits="userSpaceOnUse">
      <stop offset="0" stop-color="#007a87"/>
      <stop offset="1" stop-color="#006177"/>
    </linearGradient>
  </defs>
  <g id="_Слой_1-2" data-name="Слой 1">
    <g>
      <g>
        <rect class="cls-27" y="0" width="261.01" height="371.58" rx="24.65" ry="24.65"/>
        <g>
          <path class="cls-12" d="M261.01,24.65v322.28c0,13.56-11.09,24.65-24.65,24.65H24.65c-3.59,0-7.01-.78-10.1-2.18t-.02-.01c-.29-.13-.57-.28-.85-.42-.2-.11-.4-.22-.6-.33-.06-.02-.11-.05-.16-.09-.94-.51-1.86-1.06-2.72-1.69-6.17-4.48-10.2-11.76-10.2-19.93V24.65C0,11.09,11.09,0,24.65,0h211.71c13.56,0,24.65,11.09,24.65,24.65Z"/>
          <path class="cls-26" d="M199.52,0L0,199.52V24.65C0,11.09,11.09,0,24.65,0h174.87Z"/>
          <path class="cls-26" d="M261.01,107.46v237.93c0,14.41-11.39,26.19-25.32,26.19H24.65c-3.59,0-7.01-.78-10.1-2.18t-.02-.01c-.29-.13-.57-.28-.85-.42-.2-.11-.4-.22-.6-.33-.06-.02-.11-.05-.16-.09-.94-.51-1.86-1.06-2.72-1.69l.05-.06h.01L261.01,107.46Z"/>
        </g>
        <g>
          <rect class="cls-3" x="67.71" y="74.46" width="126.5" height="15.75" rx="2.41" ry="2.41"/>
          <rect class="cls-3" x="67.71" y="265.54" width="126.5" height="15.75" rx="2.41" ry="2.41"/>
          <path class="cls-22" d="M176.68,256.33v9.21h-91.45v-9.21c0-.07,0-.15.01-.21.1-2.2,1.93-3.95,4.15-3.95h83.12c.51,0,1,.09,1.45.27,1.58.58,2.72,2.12,2.72,3.9Z"/>
          <path class="cls-21" d="M143.81,227.62l16.81,24.45h-59.33l16.81-24.45c6.2-9.02,19.51-9.02,25.71,0Z"/>
          <path class="cls-21" d="M131.43,174.95l2.44-2.95c.33-.4.05-1-.47-1h-4.88c-.52,0-.8.6-.47,1l2.44,2.95c.24.3.7.3.94,0Z"/>
          <path class="cls-21" d="M131.43,187.53l2.44-2.95c.33-.4.05-1-.47-1h-4.88c-.52,0-.8.6-.47,1l2.44,2.95c.24.3.7.3.94,0Z"/>
          <path class="cls-21" d="M131.43,199.43l2.44-2.95c.33-.4.05-1-.47-1h-4.88c-.52,0-.8.6-.47,1l2.44,2.95c.24.3.7.3.94,0Z"/>
          <path class="cls-21" d="M131.43,210.07l2.44-2.95c.33-.4.05-1-.47-1h-4.88c-.52,0-.8.6-.47,1l2.44,2.95c.24.3.7.3.94,0Z"/>
          <path class="cls-21" d="M131.88,168.03l26.86-32.79c.16-.19.24-.43.24-.68,0-.43-.11-.93-.48-1.41-3.55-4.57-13.22,2.31-26.6,1.64-9.5-.48-19.13-2.87-25.25-3-3.02-.07-3.8,1.56-3.96,1.97-.15.38-.07.7-.07.7.04.15.11.29.21.42l27.43,33.15c.42.51,1.2.51,1.62,0Z"/>
          <path class="cls-22" d="M176.81,99.39v-9.21h-91.45v9.21c0,.07,0,.15.01.21.1,2.2,1.93,3.95,4.15,3.95h83.12c.51,0,1-.09,1.45-.27,1.58-.58,2.72-2.12,2.72-3.9Z"/>
          <path class="cls-1" d="M172.4,135.76c-8.24,22.56-34.99,38.48-41.32,42.11h-.27c-3.82-2.19-15.04-8.84-25.17-18.72-.86-.84-1.71-1.69-2.54-2.58-3.09-3.26-5.99-6.82-8.47-10.64-.09-.14-.18-.28-.27-.42-1.97-3.09-3.63-6.34-4.88-9.75-1.8-4.92-4.69-12.85-1.23-21.19,2.38-5.73,6.74-9.22,9.41-11h66.54c2.67,1.78,7.03,5.27,9.41,11,3.46,8.34.57,16.27-1.23,21.19Z"/>
          <path class="cls-1" d="M173.63,241.17c-2.38,5.73-6.74,9.21-9.41,10.99h-66.54c-2.66-1.78-7.03-5.26-9.41-10.99-3.46-8.34-.57-16.27,1.23-21.19,8.24-22.56,34.98-38.49,41.32-42.11h.27c5.22,3,24.36,14.38,35.51,30.95.15.21.29.41.42.62,2.18,3.32,4.03,6.85,5.38,10.55,1.8,4.91,4.69,12.85,1.23,21.19Z"/>
          <rect class="cls-23" x="89.84" y="261.45" width="28.27" height="1.42" rx=".71" ry=".71"/>
          <rect class="cls-23" x="98.11" y="255.44" width="37.31" height="1.42" rx=".71" ry=".71"/>
          <rect class="cls-15" x="81.87" y="277.11" width="53.87" height="1.42" rx=".71" ry=".71"/>
          <rect class="cls-15" x="77.15" y="267.99" width="28.02" height="1.42" rx=".71" ry=".71"/>
          <rect class="cls-15" x="108.16" y="271.99" width="30.61" height="1.42" rx=".71" ry=".71"/>
          <rect class="cls-23" x="132.44" y="97.35" width="37.31" height="1.42" rx=".71" ry=".71"/>
          <rect class="cls-23" x="86.66" y="92.65" width="30.82" height="1.42" rx=".71" ry=".71"/>
          <rect class="cls-23" x="106.77" y="100.46" width="12.15" height="1.42" rx=".71" ry=".71"/>
          <rect class="cls-15" x="108.42" y="84.6" width="53.87" height="1.42" rx=".71" ry=".71"/>
          <rect class="cls-15" x="158.05" y="78.05" width="28.88" height="1.42" rx=".71" ry=".71"/>
          <rect class="cls-15" x="76.61" y="80.14" width="31.38" height="1.42" rx=".71" ry=".71"/>
          <rect class="cls-15" x="127.87" y="76.17" width="20.55" height="1.42" rx=".71" ry=".71"/>
          <rect class="cls-23" x="158.62" y="258.46" width="14.48" height="1.42" rx=".71" ry=".71"/>
          <rect class="cls-15" x="154.35" y="268.05" width="30.61" height="1.42" rx=".71" ry=".71"/>
          <path class="cls-14" d="M122.6,74.46l-29.12,29.12h-4.08c-2.22,0-4.05-1.75-4.15-3.95l9.42-9.42,15.75-15.75h12.19Z"/>
          <path class="cls-16" d="M136.32,103.58l-41.94,41.94c-1.97-3.09-3.63-6.34-4.88-9.75-1.8-4.92-4.69-12.85-1.23-21.19,2.38-5.73,6.74-9.22,9.41-11h38.64Z"/>
          <path class="cls-9" d="M173.63,241.17c-2.38,5.73-6.74,9.21-9.41,10.99h-40.96l43.34-43.34c.15.21.29.41.42.62,2.18,3.32,4.03,6.85,5.38,10.55,1.8,4.91,4.69,12.85,1.23,21.19Z"/>
          <polygon class="cls-14" points="161 74.46 145.25 90.21 131.88 103.58 124.13 103.58 153.25 74.46 161 74.46"/>
          <path class="cls-10" d="M194.21,267.94v10.94c0,1.32-1.08,2.41-2.41,2.41h-46.7l15.75-15.75h0s13.11-13.11,13.11-13.11c1.58.58,2.72,2.12,2.72,3.9v9.21h15.12c1.32,0,2.41,1.08,2.41,2.41Z"/>
          <rect class="cls-14" x="155.56" y="136.2" width="2.87" height="19.5" rx="1.44" ry="1.44" transform="translate(149.18 -68.26) rotate(45)"/>
          <rect class="cls-14" x="154.99" y="119.07" width="4.02" height="25.76" rx="1.44" ry="1.44" transform="translate(139.28 -72.37) rotate(45)"/>
          <rect class="cls-2" x="103.16" y="204.76" width="2.87" height="21.4" rx="1.44" ry="1.44" transform="translate(182.99 -10.85) rotate(45)"/>
          <rect class="cls-2" x="101.06" y="212.76" width="4.15" height="26.25" rx="1.61" ry="1.61" transform="translate(189.93 -6.77) rotate(45)"/>
          <rect class="cls-14" x="99.93" y="106.74" width="3.02" height="20.48" rx="1.44" ry="1.44" transform="translate(112.43 -37.47) rotate(45)"/>
        </g>
        <g>
          <g>
            <path class="cls-8" d="M256.82,247.03c0,23.12-18.75,41.86-41.86,41.86-.32,0-.63,0-.95-.01-2.55-.05-5.04-.34-7.45-.84-2.51-.51-4.95-1.24-7.28-2.18-3.02-1.22-5.87-2.78-8.49-4.65-10.71-7.58-17.7-20.06-17.7-34.18,0-23.11,18.74-41.86,41.86-41.86,7.33,0,14.22,1.88,20.2,5.19,2.94,1.62,5.67,3.59,8.12,5.85,1.65,1.53,3.19,3.19,4.6,4.96,1.3,1.65,2.48,3.42,3.52,5.26,3.45,6.08,5.42,13.11,5.42,20.6Z"/>
            <circle class="cls-17" cx="214.96" cy="247.03" r="35.71"/>
            <g>
              <rect class="cls-11" x="212.43" y="216.28" width="5.06" height="5.06" rx="1.1" ry="1.1"/>
              <rect class="cls-11" x="224.96" y="219.14" width="5.06" height="5.06" rx="1.1" ry="1.1" transform="translate(-70.93 330.46) rotate(-64.29)"/>
              <rect class="cls-11" x="235.01" y="227.16" width="5.06" height="5.06" rx="1.1" ry="1.1" transform="translate(-91.38 198.22) rotate(-38.57)"/>
              <rect class="cls-11" x="240.59" y="238.74" width="5.06" height="5.06" rx="1.1" ry="1.1" transform="translate(-47.59 60.15) rotate(-12.86)"/>
              <rect class="cls-11" x="240.59" y="251.6" width="5.06" height="5.06" rx="1.1" ry="1.1" transform="translate(-58.73 434.6) rotate(-77.14)"/>
              <rect class="cls-11" x="235.01" y="263.18" width="5.06" height="5.06" rx="1.1" ry="1.1" transform="translate(-118.3 285.76) rotate(-51.43)"/>
              <rect class="cls-11" x="224.96" y="271.19" width="5.06" height="5.06" rx="1.1" ry="1.1" transform="translate(-96.23 125.81) rotate(-25.71)"/>
              <rect class="cls-11" x="212.43" y="274.05" width="5.06" height="5.06" rx="1.1" ry="1.1"/>
              <rect class="cls-11" x="199.9" y="271.19" width="5.06" height="5.06" rx="1.1" ry="1.1" transform="translate(-132.02 337.34) rotate(-64.29)"/>
              <rect class="cls-11" x="189.85" y="263.18" width="5.06" height="5.06" rx="1.1" ry="1.1" transform="translate(-123.69 177.91) rotate(-38.57)"/>
              <rect class="cls-11" x="184.27" y="251.6" width="5.06" height="5.06" rx="1.1" ry="1.1" transform="translate(-51.86 47.94) rotate(-12.86)"/>
              <rect class="cls-11" x="184.27" y="238.74" width="5.06" height="5.06" rx="1.1" ry="1.1" transform="translate(-89.99 369.7) rotate(-77.14)"/>
              <rect class="cls-11" x="189.85" y="227.16" width="5.06" height="5.06" rx="1.1" ry="1.1" transform="translate(-107.15 236.88) rotate(-51.43)"/>
              <rect class="cls-11" x="199.9" y="219.14" width="5.06" height="5.06" rx="1.1" ry="1.1" transform="translate(-76.13 109.78) rotate(-25.71)"/>
              <rect class="cls-11" x="212.43" y="216.28" width="5.06" height="5.06" rx="1.1" ry="1.1"/>
            </g>
            <g>
              <path class="cls-11" d="M225.39,249.23c-.86-1.33-2.13-2.44-3.79-3.32-1.32-.7-2.89-1.39-4.7-2.08-.45-.17-.93-.34-1.42-.52-.76-.3-1.45-.58-2.07-.84-.34-.15-.67-.3-.97-.44-.83-.38-1.45-.83-1.85-1.35-.4-.52-.61-1.21-.61-2.06,0-1,.22-1.77.67-2.31.45-.55,1.02-.95,1.73-1.18.33-.11.68-.19,1.03-.25v-7.2c-1.8.17-3.42.66-4.85,1.43-1.83,1-3.25,2.4-4.27,4.18-1.02,1.78-1.54,3.91-1.54,6.39,0,2.04.39,3.73,1.16,5.04.77,1.3,1.91,2.4,3.38,3.28,1.48.88,3.35,1.75,5.58,2.61.18.06.36.13.54.18,1.12.41,2.09.75,2.9,1.06.21.08.4.16.58.25.66.31,1.19.66,1.59,1.04.5.51.75,1.22.75,2.18,0,1.3-.45,2.28-1.36,2.92-.29.21-.62.39-.98.53v7.54c2.63-.37,4.79-1.35,6.5-2.99,2.2-2.08,3.3-4.99,3.3-8.69,0-2.28-.44-4.07-1.3-5.4ZM203.91,253.87l-2.83,6.3c1.66,2.07,3.67,3.64,6.04,4.71,2.02.89,4.11,1.42,6.29,1.56v-7.25c-1.38-.12-2.8-.54-4.24-1.26-1.73-.87-3.48-2.21-5.26-4.05ZM221.14,228.87c-1.36-.6-2.76-.98-4.24-1.15v7.35c.67.17,1.33.42,1.99.75,1.39.7,2.83,1.82,4.33,3.36l3.18-6.22c-1.58-1.89-3.33-3.26-5.26-4.09Z"/>
              <path class="cls-11" d="M216.9,227.72v7.35c-.74-.2-1.48-.3-2.23-.3-.43,0-.85.03-1.25.11v-7.2c.52-.05,1.05-.08,1.6-.08.64,0,1.27.03,1.89.12Z"/>
              <path class="cls-11" d="M216.9,225.39v2.33c-.62-.09-1.24-.12-1.89-.12-.55,0-1.08.02-1.6.08v-2.29h3.48Z"/>
              <path class="cls-11" d="M216.9,258.77v7.54c-.74.1-1.52.15-2.34.15-.39,0-.76-.01-1.14-.03v-7.25c.28.03.57.04.85.04,1.01,0,1.89-.15,2.64-.45Z"/>
              <path class="cls-11" d="M216.9,266.31v2.36h-3.48v-2.25c.38.02.76.03,1.14.03.82,0,1.6-.05,2.34-.15Z"/>
            </g>
            <path class="cls-7" d="M243.29,216.2l-43.6,69.62-.4.04c-3.02-1.22-5.87-2.78-8.49-4.65l44.37-70.85c2.94,1.62,5.67,3.59,8.12,5.85Z"/>
            <path class="cls-7" d="M251.41,226.43l-37.39,62.45c-2.55-.05-5.04-.34-7.45-.84l41.31-66.88c1.3,1.65,2.48,3.42,3.52,5.26Z"/>
          </g>
          <path class="cls-6" d="M193.15,210.7l1.38-5.13c.14-.53.89-.53,1.04,0l1.39,5.13c.54,1.99,2.09,3.54,4.08,4.08l5.13,1.38c.53.14.53.89,0,1.04l-5.13,1.39c-1.99.54-3.54,2.09-4.08,4.08l-1.38,5.13c-.14.53-.89.53-1.04,0l-1.39-5.13c-.54-1.99-2.09-3.54-4.08-4.08l-5.13-1.38c-.53-.14-.53-.89,0-1.04l5.13-1.39c1.99-.54,3.54-2.09,4.08-4.08Z"/>
        </g>
      </g>
      <g>
        <g>
          <g>
            <g>
              <path class="cls-13" d="M97.57,284.42c-.42.02-.85.03-1.3.03-.07,0-.14,0-.21,0-.08,0-.16,0-.25,0h-52.41c-.08,0-.15,0-.22,0-.08,0-.16,0-.25,0-.15,0-.3,0-.45,0-6.49-.11-13.44-1.38-16.16-2.96l-.03-.02c-.08-.05-.16-.1-.24-.15l-7.78-5.15c-.06-.04-.12-.08-.17-.12-.02-.01-.03-.03-.05-.04-2.08-1.59,1.04-2.86,7.2-2.97.15,0,.28,0,.44,0,.15,0,.31,0,.47,0h52.41c.16,0,.32,0,.47,0,.46,0,.92.01,1.39.03,6.29.21,12.79,1.46,15.32,2.99h0c.06.03.11.07.16.1l7.81,5.17c.06.04.11.08.16.11.03.03.06.05.09.07,1.89,1.49-.84,2.71-6.39,2.92Z"/>
              <path class="cls-13" d="M48.04,278.74c2.68,1.78,10.65,3.22,17.8,3.22s10.77-1.44,8.08-3.22c-2.68-1.78-10.65-3.22-17.8-3.22s-10.77,1.44-8.08,3.22Z"/>
              <path class="cls-13" d="M55.09,278.74c1.22.81,4.85,1.46,8.1,1.46s4.9-.66,3.68-1.46c-1.22-.81-4.85-1.46-8.1-1.46s-4.9.66-3.68,1.46Z"/>
              <path class="cls-13" d="M95.74,276.05h0s-2.55,0-2.55,0c-1.41,0-2.85-.08-4.26-.21-3.89-.38-7.47-1.21-8.94-2.17,0,0-.02-.01-.03-.02l-.93-.61h0s8.17,0,8.17,0c1.81,0,3.81.3,4.9.72.23.09.42.18.57.27l3.06,2.03h0Z"/>
              <path class="cls-13" d="M107.19,283.89c-.14.33-1.16.56-2.74.56h-8.19s-.92-.62-.92-.62c0,0-.02-.01-.03-.02-1.95-1.31.73-2.38,6-2.39h2.55l.11.07,2.97,1.96c.14.09.22.18.25.26.03.06.03.11,0,.16Z"/>
              <path class="cls-13" d="M42.93,284.45h0s-8.15,0-8.15,0c-2.2,0-4.64-.44-5.47-.99l-2.99-1.98-.03-.02-.04-.03h2.52c5.29,0,11.16,1.07,13.2,2.38.01,0,.03.02.04.02l.92.61Z"/>
              <path class="cls-13" d="M20.62,276.04h-2.54l-.06-.04-3.01-2c-.82-.55.29-.99,2.49-.99h8.18s.93.62.93.62c.01,0,.02.01.03.02,1.94,1.31-.74,2.38-6.01,2.38Z"/>
              <polygon class="cls-13" points="28.81 281.46 26.25 281.46 18.02 276.01 20.57 276.01 20.62 276.04 28.77 281.44 28.81 281.46"/>
              <polygon class="cls-13" points="101.42 281.5 103.98 281.5 95.74 276.05 93.19 276.05 101.42 281.5"/>
              <polygon class="cls-13" points="81.32 273.66 80.36 273.02 25.23 273.02 26.19 273.66 81.32 273.66"/>
              <polygon class="cls-13" points="97.62 284.45 96.66 283.81 41.53 283.81 42.49 284.45 97.62 284.45"/>
            </g>
            <g>
              <path class="cls-18" d="M97.55,271.25c-.42.02-.85.03-1.3.03l-.92-.61s-.02-.01-.03-.02h1.34l.91.6Z"/>
              <g>
                <g>
                  <g>
                    <path class="cls-24" d="M104.3,269.77h-49.21v1.51h-11.71c-.08,0-.15,0-.22,0-.08,0-.16,0-.25,0-.15,0-.3,0-.45,0-.16,0-.32,0-.49-.01-6.34-.16-13.02-1.41-15.67-2.95l-.03-.02c-.08-.05-.16-.1-.24-.15l-7.78-5.15c-.06-.04-.12-.08-.17-.12-.02-.01-.03-.03-.05-.04-2.08-1.59,1.04-2.86,7.2-2.97.15,0,.28,0,.44,0,.08,0,.15,0,.23,0,.08,0,.16,0,.23,0h52.41c.16,0,.32,0,.47,0,.46,0,.92.01,1.39.03,6.29.21,12.79,1.46,15.32,2.99h0c.06.03.11.07.16.1l7.81,5.17c.06.04.11.08.16.11.03.03.06.05.09.07.67.53.76,1.02.36,1.44Z"/>
                    <path class="cls-18" d="M48.02,265.57c2.68,1.78,10.65,3.22,17.8,3.22s10.77-1.44,8.08-3.22c-2.68-1.78-10.65-3.22-17.8-3.22s-10.77,1.44-8.08,3.22Z"/>
                    <path class="cls-5" d="M55.08,265.57c1.22.81,4.85,1.46,8.1,1.46s4.9-.66,3.68-1.46-4.85-1.46-8.1-1.46-4.9.66-3.68,1.46Z"/>
                    <path class="cls-18" d="M95.72,262.87h0s-2.55,0-2.55,0c-1.41,0-2.85-.08-4.26-.21-3.89-.38-7.47-1.21-8.94-2.17,0,0-.02-.01-.03-.02l-.93-.61h0s8.17,0,8.17,0c1.81,0,3.81.3,4.9.72.23.09.42.18.57.27l3.06,2.03h0Z"/>
                    <path class="cls-18" d="M96.25,271.27c.45,0,.88-.01,1.3-.03l.05.03h-1.35Z"/>
                    <path class="cls-18" d="M106.14,269.77h-11.47c.08-.88,2.59-1.5,6.63-1.51h2.55l.11.07,2.18,1.44Z"/>
                    <path class="cls-18" d="M42.91,271.27h0s-8.15,0-8.15,0c-2.2,0-4.64-.44-5.47-.99l-2.99-1.98-.03-.02-.04-.03h2.52c5.29,0,11.16,1.07,13.2,2.38,0,0,.01,0,.02.01,0,0,.01,0,.02.01l.92.61Z"/>
                    <path class="cls-18" d="M20.6,262.87h-2.54l-.06-.04-3.01-2c-.14-.09-.22-.18-.25-.26-.03-.06-.03-.11,0-.16.13-.31,1-.53,2.38-.56.11,0,.23,0,.36,0h8.18s.93.62.93.62c.01,0,.02.01.03.02,1.94,1.31-.74,2.38-6.01,2.38Z"/>
                    <polygon class="cls-18" points="28.79 268.29 26.23 268.29 18 262.83 20.55 262.83 20.6 262.87 28.75 268.26 28.79 268.29"/>
                    <polygon class="cls-18" points="101.41 268.33 103.96 268.33 95.72 262.87 93.17 262.87 101.41 268.33"/>
                    <polygon class="cls-18" points="81.3 260.49 80.34 259.85 25.21 259.85 26.17 260.49 81.3 260.49"/>
                    <polygon class="cls-18" points="55.09 270.64 55.09 271.28 42.47 271.28 42.47 271.28 42.45 271.27 41.51 270.64 55.09 270.64"/>
                    <path class="cls-18" d="M97.6,271.28h-1.81c.09,0,.17,0,.25,0,.07,0,.14,0,.21,0,.45,0,.88-.01,1.3-.03l.05.03Z"/>
                  </g>
                  <path class="cls-18" d="M107.19,270.64c0,.37-1.05.64-2.76.64h-6.83l-.05-.03c3.6-.14,6.01-.69,6.75-1.48h1.84l.78.52c.18.12.27.24.27.35Z"/>
                  <path class="cls-18" d="M96.25,271.27c-.07,0-.14,0-.21,0-.08,0-.16,0-.25,0h-40.7v-.64h40.21s.02.01.03.02l.92.61Z"/>
                </g>
                <path class="cls-24" d="M95.3,270.64h-40.21v-.87h39.58c-.03.27.17.56.63.87Z"/>
                <path class="cls-18" d="M104.3,269.77c-.74.78-3.16,1.34-6.75,1.48l-.91-.6h-1.34c-.46-.31-.66-.6-.63-.87h9.63Z"/>
              </g>
            </g>
            <path class="cls-13" d="M107.19,270.63v13.25c-.17.33-1.45.56-3.43.56h-61.8v-13.17h50.95c.11,0,.21,0,.31,0h.26c.15,0,.46,0,.87,0h9.38c2,0,3.28-.23,3.44-.57,0-.02.01-.05.01-.07Z"/>
            <path class="cls-13" d="M41.97,271.28v2.38H14.74v-13.08c.03.08.11.17.25.26l3,2h0l.06.04.09.06,8.08,5.36h.03l.03.02,2.99,1.98c.82.54,3.27.99,5.47.99h7.21Z"/>
          </g>
          <polygon class="cls-25" points="26.41 271.38 26.15 271.57 14.74 263.52 14.74 263.15 26.41 271.38"/>
          <polygon class="cls-25" points="19.56 269.78 19.3 269.96 14.74 266.75 14.74 266.38 19.56 269.78"/>
          <polygon class="cls-25" points="29.45 279.78 29.19 279.96 25.02 277.02 14.74 269.77 14.74 269.4 21.75 274.34 25.42 276.94 29.45 279.78"/>
          <rect class="cls-25" x="65.15" y="243.36" width=".26" height="61.61" transform="translate(-208.89 339.45) rotate(-90)"/>
          <rect class="cls-25" x="63.03" y="246.12" width=".26" height="61.61" transform="translate(-213.76 340.09) rotate(-90)"/>
          <path class="cls-25" d="M107.19,278.14v.32s-.06.04-.08.05c-.5.24-1.31.4-1.79.41h-5.24c-.77,0-1.63,0-2.55,0-5.43,0-13.45,0-23.35,0-2.26,0-4.62,0-7.07,0-3.71,0-7.61,0-11.7,0-2.31,0-4.67,0-7.09,0h-4.61v-.26h4.21c2.35,0,4.71,0,7.06,0,3.92,0,7.83,0,11.74,0,2.35,0,4.7,0,7.05,0,7.78,0,15.55,0,23.33,0h2.55c1.88,0,3.77,0,5.65,0,.27,0,.69-.04,1.16-.18.31-.09.56-.2.75-.3Z"/>
          <path class="cls-25" d="M107.19,273.47v.32s-.06.03-.08.04c-.5.24-1.31.41-1.79.41-.15,0-.56,0-1.2,0,.02-.1.03-.19.02-.29h1.15c.27,0,.69-.04,1.16-.18.31-.09.56-.2.75-.3Z"/>
        </g>
        <g>
          <g>
            <g>
              <path class="cls-13" d="M102.83,269.08c-.42.02-.85.03-1.3.03-.07,0-.14,0-.21,0-.08,0-.16,0-.25,0h-52.41c-.08,0-.15,0-.22,0-.08,0-.16,0-.25,0-.15,0-.3,0-.45,0-6.49-.11-13.44-1.38-16.16-2.96l-.03-.02c-.08-.05-.16-.1-.24-.15l-7.78-5.15c-.06-.04-.12-.08-.17-.12-.02-.01-.03-.03-.05-.04-2.08-1.59,1.04-2.86,7.2-2.97.15,0,.28,0,.44,0,.15,0,.31,0,.47,0h52.41c.16,0,.32,0,.47,0,.46,0,.92.01,1.39.03,6.29.21,12.79,1.46,15.32,2.99h0c.06.03.11.07.16.1l7.81,5.17c.06.04.11.08.16.11.03.03.06.05.09.07,1.89,1.49-.84,2.71-6.39,2.92Z"/>
              <path class="cls-13" d="M53.3,263.4c2.68,1.78,10.65,3.22,17.8,3.22s10.77-1.44,8.08-3.22c-2.68-1.78-10.65-3.22-17.8-3.22s-10.77,1.44-8.08,3.22Z"/>
              <path class="cls-13" d="M60.36,263.4c1.22.81,4.85,1.46,8.1,1.46s4.9-.66,3.68-1.46c-1.22-.81-4.85-1.46-8.1-1.46s-4.9.66-3.68,1.46Z"/>
              <path class="cls-13" d="M101,260.71h0s-2.55,0-2.55,0c-1.41,0-2.85-.08-4.26-.21-3.89-.38-7.47-1.21-8.94-2.17,0,0-.02-.01-.03-.02l-.93-.61h0s8.17,0,8.17,0c1.81,0,3.81.3,4.9.72.23.09.42.18.57.27l3.06,2.03h0Z"/>
              <path class="cls-13" d="M112.46,268.55c-.14.33-1.16.56-2.74.56h-8.19s-.92-.62-.92-.62c0,0-.02-.01-.03-.02-1.95-1.31.73-2.38,6-2.39h2.55l.11.07,2.97,1.96c.14.09.22.18.25.26.03.06.03.11,0,.16Z"/>
              <path class="cls-13" d="M48.19,269.11h0s-8.15,0-8.15,0c-2.2,0-4.64-.44-5.47-.99l-2.99-1.98-.03-.02-.04-.03h2.52c5.29,0,11.16,1.07,13.2,2.38.01,0,.03.02.04.02l.92.61Z"/>
              <path class="cls-13" d="M25.89,260.71h-2.54l-.06-.04-3.01-2c-.82-.55.29-.99,2.49-.99h8.18s.93.62.93.62c.01,0,.02.01.03.02,1.94,1.31-.74,2.38-6.01,2.38Z"/>
              <polygon class="cls-13" points="34.07 266.13 31.52 266.13 23.28 260.67 25.83 260.67 25.89 260.71 34.03 266.1 34.07 266.13"/>
              <polygon class="cls-13" points="106.69 266.17 109.24 266.17 101 260.71 98.45 260.71 106.69 266.17"/>
              <polygon class="cls-13" points="86.58 258.32 85.63 257.69 30.5 257.69 31.45 258.32 86.58 258.32"/>
              <polygon class="cls-13" points="102.88 269.11 101.92 268.48 46.79 268.48 47.75 269.11 102.88 269.11"/>
            </g>
            <g>
              <path class="cls-18" d="M102.81,255.91c-.42.02-.85.03-1.3.03l-.92-.61s-.02-.01-.03-.02h1.34l.91.6Z"/>
              <g>
                <g>
                  <g>
                    <path class="cls-24" d="M109.57,254.43h-49.21v1.51h-11.71c-.08,0-.15,0-.22,0-.08,0-.16,0-.25,0-.15,0-.3,0-.45,0-.16,0-.32,0-.49-.01-6.34-.16-13.02-1.41-15.67-2.95l-.03-.02c-.08-.05-.16-.1-.24-.15l-7.78-5.15c-.06-.04-.12-.08-.17-.12-.02-.01-.03-.03-.05-.04-2.08-1.59,1.04-2.86,7.2-2.97.15,0,.28,0,.44,0,.08,0,.15,0,.23,0,.08,0,.16,0,.23,0h52.41c.16,0,.32,0,.47,0,.46,0,.92.01,1.39.03,6.29.21,12.79,1.46,15.32,2.99h0c.06.03.11.07.16.1l7.81,5.17c.06.04.11.08.16.11.03.03.06.05.09.07.67.53.76,1.02.36,1.44Z"/>
                    <path class="cls-18" d="M53.28,250.23c2.68,1.78,10.65,3.22,17.8,3.22s10.77-1.44,8.08-3.22-10.65-3.22-17.8-3.22-10.77,1.44-8.08,3.22Z"/>
                    <path class="cls-5" d="M60.34,250.23c1.22.81,4.85,1.46,8.1,1.46s4.9-.66,3.68-1.46-4.85-1.46-8.1-1.46-4.9.66-3.68,1.46Z"/>
                    <path class="cls-18" d="M100.98,247.54h0s-2.55,0-2.55,0c-1.41,0-2.85-.08-4.26-.21-3.89-.38-7.47-1.21-8.94-2.17,0,0-.02-.01-.03-.02l-.93-.61h0s8.17,0,8.17,0c1.81,0,3.81.3,4.9.72.23.09.42.18.57.27l3.06,2.03h0Z"/>
                    <path class="cls-18" d="M101.51,255.94c.45,0,.88-.01,1.3-.03l.05.03h-1.35Z"/>
                    <path class="cls-18" d="M111.4,254.43h-11.47c.08-.88,2.59-1.5,6.63-1.51h2.55l.11.07,2.18,1.44Z"/>
                    <path class="cls-18" d="M48.17,255.94h0s-8.15,0-8.15,0c-2.2,0-4.64-.44-5.47-.99l-2.99-1.98-.03-.02-.04-.03h2.52c5.29,0,11.16,1.07,13.2,2.38,0,0,.01,0,.02.01,0,0,.01,0,.02.01l.92.61Z"/>
                    <path class="cls-18" d="M25.87,247.54h-2.54l-.06-.04-3.01-2c-.14-.09-.22-.18-.25-.26-.03-.06-.03-.11,0-.16.13-.31,1-.53,2.38-.56.11,0,.23,0,.36,0h8.18s.93.62.93.62c.01,0,.02.01.03.02,1.94,1.31-.74,2.38-6.01,2.38Z"/>
                    <polygon class="cls-18" points="34.05 252.96 31.5 252.96 23.26 247.5 25.81 247.5 25.87 247.54 34.02 252.93 34.05 252.96"/>
                    <polygon class="cls-18" points="106.67 252.99 109.22 252.99 100.98 247.54 98.43 247.54 106.67 252.99"/>
                    <polygon class="cls-18" points="86.57 245.15 85.61 244.52 30.48 244.52 31.44 245.15 86.57 245.15"/>
                    <polygon class="cls-18" points="60.35 255.31 60.35 255.94 47.73 255.94 47.73 255.94 47.72 255.93 46.78 255.31 60.35 255.31"/>
                    <path class="cls-18" d="M102.86,255.94h-1.81c.09,0,.17,0,.25,0,.07,0,.14,0,.21,0,.45,0,.88-.01,1.3-.03l.05.03Z"/>
                  </g>
                  <path class="cls-18" d="M112.46,255.3c0,.37-1.05.64-2.76.64h-6.83l-.05-.03c3.6-.14,6.01-.69,6.75-1.48h1.84l.78.52c.18.12.27.24.27.35Z"/>
                  <path class="cls-18" d="M101.51,255.94c-.07,0-.14,0-.21,0-.08,0-.16,0-.25,0h-40.7v-.64h40.21s.02.01.03.02l.92.61Z"/>
                </g>
                <path class="cls-24" d="M100.57,255.31h-40.21v-.87h39.58c-.03.27.17.56.63.87Z"/>
                <path class="cls-18" d="M109.57,254.43c-.74.78-3.16,1.34-6.75,1.48l-.91-.6h-1.34c-.46-.31-.66-.6-.63-.87h9.63Z"/>
              </g>
            </g>
            <path class="cls-13" d="M112.45,255.3v13.25c-.17.33-1.45.56-3.43.56h-61.8v-13.17h50.95c.11,0,.21,0,.31,0h.26c.15,0,.46,0,.87,0h9.38c2,0,3.28-.23,3.44-.57,0-.02.01-.05.01-.07Z"/>
            <path class="cls-13" d="M47.23,255.94v2.38h-27.22v-13.08c.03.08.11.17.25.26l3,2h0l.06.04.09.06,8.08,5.36h.03l.03.02,2.99,1.98c.82.54,3.27.99,5.47.99h7.21Z"/>
          </g>
          <polygon class="cls-25" points="31.68 256.05 31.42 256.23 20.01 248.18 20.01 247.81 31.68 256.05"/>
          <polygon class="cls-25" points="24.82 254.44 24.56 254.63 20.01 251.41 20.01 251.05 24.82 254.44"/>
          <polygon class="cls-25" points="34.71 264.44 34.45 264.63 30.28 261.69 20.01 254.43 20.01 254.07 27.01 259.01 30.69 261.6 34.71 264.44"/>
          <rect class="cls-25" x="70.41" y="228.03" width=".26" height="61.61" transform="translate(-188.29 329.38) rotate(-90)"/>
          <rect class="cls-25" x="68.3" y="230.78" width=".26" height="61.61" transform="translate(-193.16 330.01) rotate(-90)"/>
          <path class="cls-25" d="M112.45,262.81v.32s-.06.04-.08.05c-.5.24-1.31.4-1.79.41h-5.24c-.77,0-1.63,0-2.55,0-5.43,0-13.45,0-23.35,0-2.26,0-4.62,0-7.07,0-3.71,0-7.61,0-11.7,0-2.31,0-4.67,0-7.09,0h-4.61v-.26h4.21c2.35,0,4.71,0,7.06,0,3.92,0,7.83,0,11.74,0,2.35,0,4.7,0,7.05,0,7.78,0,15.55,0,23.33,0h2.55c1.88,0,3.77,0,5.65,0,.27,0,.69-.04,1.16-.18.31-.09.56-.2.75-.3Z"/>
          <path class="cls-25" d="M112.45,258.13v.32s-.06.03-.08.04c-.5.24-1.31.41-1.79.41-.15,0-.56,0-1.2,0,.02-.1.03-.19.02-.29h1.15c.27,0,.69-.04,1.16-.18.31-.09.56-.2.75-.3Z"/>
        </g>
        <g>
          <g>
            <g>
              <path class="cls-13" d="M92.05,253.45c-.42.02-.85.02-1.3.03-.07,0-.14,0-.21,0-.08,0-.16,0-.25,0h-52.41c-.08,0-.15,0-.22,0-.08,0-.16,0-.25,0-.15,0-.3,0-.45,0-6.49-.1-13.44-1.29-16.16-2.76l-.03-.02c-.08-.05-.16-.09-.24-.14l-7.78-4.81c-.06-.04-.12-.07-.17-.11-.02-.01-.03-.02-.05-.03-2.08-1.48,1.04-2.67,7.2-2.78.15,0,.28,0,.44,0,.15,0,.31,0,.47,0h52.41c.16,0,.32,0,.47,0,.46,0,.92.01,1.39.03,6.29.2,12.79,1.36,15.32,2.79h0c.06.03.11.06.16.09l7.81,4.83c.06.04.11.07.16.1.03.02.06.05.09.07,1.89,1.4-.84,2.53-6.39,2.72Z"/>
              <path class="cls-13" d="M42.52,248.14c2.68,1.66,10.65,3.01,17.8,3.01s10.77-1.35,8.08-3.01c-2.68-1.66-10.65-3.01-17.8-3.01s-10.77,1.35-8.08,3.01Z"/>
              <path class="cls-13" d="M49.57,248.14c1.22.76,4.85,1.37,8.1,1.37s4.9-.61,3.68-1.37c-1.22-.76-4.85-1.37-8.1-1.37s-4.9.61-3.68,1.37Z"/>
              <path class="cls-13" d="M90.21,245.62h0s-2.55,0-2.55,0c-1.41,0-2.85-.07-4.26-.2-3.89-.35-7.47-1.13-8.94-2.03,0,0-.02-.01-.03-.01l-.93-.57h0s8.17,0,8.17,0c1.81,0,3.81.28,4.9.67.23.08.42.17.57.26l3.06,1.9h0Z"/>
              <path class="cls-13" d="M101.67,252.95c-.14.31-1.16.53-2.74.53h-8.19s-.92-.58-.92-.58c0,0-.02-.01-.03-.02-1.95-1.23.73-2.22,6-2.23h2.55l.11.07,2.97,1.83c.14.09.22.17.25.25.03.05.03.1,0,.15Z"/>
              <path class="cls-13" d="M37.4,253.48h0s-8.15,0-8.15,0c-2.2,0-4.64-.41-5.47-.92l-2.99-1.85-.03-.02-.04-.02h2.52c5.29,0,11.16,1,13.2,2.22.01,0,.03.01.04.02l.92.57Z"/>
              <path class="cls-13" d="M15.1,245.62h-2.54l-.06-.03-3.01-1.87c-.82-.51.29-.92,2.49-.92h8.18s.93.58.93.58c.01,0,.02.01.03.02,1.94,1.23-.74,2.22-6.01,2.23Z"/>
              <polygon class="cls-13" points="23.29 250.69 20.73 250.69 12.49 245.59 15.04 245.59 15.1 245.62 23.25 250.66 23.29 250.69"/>
              <polygon class="cls-13" points="95.9 250.72 98.46 250.72 90.22 245.62 87.66 245.62 95.9 250.72"/>
              <polygon class="cls-13" points="75.8 243.39 74.84 242.8 19.71 242.8 20.67 243.39 75.8 243.39"/>
              <polygon class="cls-13" points="92.09 253.48 91.14 252.89 36.01 252.89 36.96 253.48 92.09 253.48"/>
            </g>
            <g>
              <path class="cls-18" d="M92.03,241.14c-.42.02-.85.02-1.3.03l-.92-.57s-.02-.01-.03-.02h1.34l.91.56Z"/>
              <g>
                <g>
                  <g>
                    <path class="cls-24" d="M98.78,239.76h-49.21v1.41h-11.71c-.08,0-.15,0-.22,0-.08,0-.16,0-.25,0-.15,0-.3,0-.45,0-.16,0-.32,0-.49-.01-6.34-.15-13.02-1.32-15.67-2.75l-.03-.02c-.08-.05-.16-.09-.24-.14l-7.78-4.81c-.06-.04-.12-.07-.17-.11-.02-.01-.03-.02-.05-.03-2.08-1.48,1.04-2.67,7.2-2.78.15,0,.28,0,.44,0,.08,0,.15,0,.23,0,.08,0,.16,0,.23,0h52.41c.16,0,.32,0,.47,0,.46,0,.92.01,1.39.03,6.29.2,12.79,1.36,15.32,2.79h0c.06.03.11.06.16.09l7.81,4.83c.06.04.11.07.16.1.03.02.06.05.09.07.67.49.76.95.36,1.35Z"/>
                    <path class="cls-18" d="M42.5,235.83c2.68,1.66,10.65,3.01,17.8,3.01s10.77-1.35,8.08-3.01-10.65-3.01-17.8-3.01-10.77,1.35-8.08,3.01Z"/>
                    <path class="cls-5" d="M49.55,235.83c1.22.76,4.85,1.37,8.1,1.37s4.9-.61,3.68-1.37c-1.22-.76-4.85-1.37-8.1-1.37s-4.9.61-3.68,1.37Z"/>
                    <path class="cls-18" d="M90.2,233.31h0s-2.55,0-2.55,0c-1.41,0-2.85-.07-4.26-.2-3.89-.35-7.47-1.13-8.94-2.03,0,0-.02-.01-.03-.01l-.93-.57h0s8.17,0,8.17,0c1.81,0,3.81.28,4.9.67.23.08.42.17.57.26l3.06,1.9h0Z"/>
                    <path class="cls-18" d="M90.73,241.17c.45,0,.88-.01,1.3-.03l.05.03h-1.35Z"/>
                    <path class="cls-18" d="M100.62,239.76h-11.47c.08-.82,2.59-1.41,6.63-1.41h2.55l.11.07,2.18,1.35Z"/>
                    <path class="cls-18" d="M37.39,241.17h0s-8.15,0-8.15,0c-2.2,0-4.64-.41-5.47-.92l-2.99-1.85-.03-.02-.04-.02h2.52c5.29,0,11.16,1,13.2,2.22,0,0,.01,0,.02.01,0,0,.01,0,.02.01l.92.57Z"/>
                    <path class="cls-18" d="M15.08,233.31h-2.54l-.06-.03-3.01-1.87c-.14-.09-.22-.17-.25-.25-.03-.05-.03-.1,0-.15.13-.29,1-.49,2.38-.52.11,0,.23,0,.36,0h8.18s.93.58.93.58c.01,0,.02.01.03.02,1.94,1.23-.74,2.22-6.01,2.23Z"/>
                    <polygon class="cls-18" points="23.27 238.38 20.71 238.38 12.48 233.28 15.03 233.28 15.08 233.31 23.23 238.35 23.27 238.38"/>
                    <polygon class="cls-18" points="95.88 238.41 98.44 238.41 90.2 233.31 87.64 233.31 95.88 238.41"/>
                    <polygon class="cls-18" points="75.78 231.08 74.82 230.49 19.69 230.49 20.65 231.08 75.78 231.08"/>
                    <polygon class="cls-18" points="49.57 240.58 49.57 241.17 36.94 241.17 36.94 241.17 36.93 241.16 35.99 240.58 49.57 240.58"/>
                    <path class="cls-18" d="M92.08,241.17h-1.81c.09,0,.17,0,.25,0,.07,0,.14,0,.21,0,.45,0,.88-.01,1.3-.03l.05.03Z"/>
                  </g>
                  <path class="cls-18" d="M101.67,240.57c0,.35-1.05.6-2.76.6h-6.83l-.05-.03c3.6-.13,6.01-.65,6.75-1.38h1.84l.78.49c.18.11.27.22.27.32Z"/>
                  <path class="cls-18" d="M90.73,241.17c-.07,0-.14,0-.21,0-.08,0-.16,0-.25,0h-40.7v-.59h40.21s.02.01.03.02l.92.57Z"/>
                </g>
                <path class="cls-24" d="M89.78,240.58h-40.21v-.82h39.58c-.03.25.17.53.63.82Z"/>
                <path class="cls-18" d="M98.78,239.76c-.74.73-3.16,1.25-6.75,1.38l-.91-.56h-1.34c-.46-.29-.66-.56-.63-.82h9.63Z"/>
              </g>
            </g>
            <path class="cls-13" d="M101.67,240.57v12.39c-.17.31-1.45.52-3.43.52h-61.8v-12.31h50.95c.11,0,.21,0,.31,0h.26c.15,0,.46,0,.87,0h9.38c2,0,3.28-.22,3.44-.54,0-.02.01-.04.01-.06Z"/>
            <path class="cls-13" d="M36.44,241.17v2.23H9.22v-12.23c.03.08.11.16.25.25l3,1.87h0l.06.03.09.06,8.08,5.01h.03l.03.02,2.99,1.85c.82.51,3.27.92,5.47.92h7.21Z"/>
          </g>
          <polygon class="cls-25" points="20.89 241.27 20.63 241.44 9.22 233.92 9.22 233.57 20.89 241.27"/>
          <polygon class="cls-25" points="14.04 239.77 13.78 239.94 9.22 236.94 9.22 236.59 14.04 239.77"/>
          <polygon class="cls-25" points="23.93 249.11 23.67 249.29 19.5 246.54 9.22 239.76 9.22 239.41 16.22 244.03 19.9 246.46 23.93 249.11"/>
          <rect class="cls-25" x="59.64" y="213.07" width=".24" height="61.61" transform="translate(-184.11 303.63) rotate(-90)"/>
          <rect class="cls-25" x="57.52" y="215.64" width=".24" height="61.61" transform="translate(-188.8 304.08) rotate(-90)"/>
          <path class="cls-25" d="M101.67,247.58v.3s-.06.03-.08.04c-.5.22-1.31.38-1.79.38h-5.24c-.77,0-1.63,0-2.55,0-5.43,0-13.45,0-23.35,0-2.26,0-4.62,0-7.07,0-3.71,0-7.61,0-11.7,0-2.31,0-4.67,0-7.09,0h-4.61v-.24h4.21c2.35,0,4.71,0,7.06,0,3.92,0,7.83,0,11.74,0,2.35,0,4.7,0,7.05,0,7.78,0,15.55,0,23.33,0h2.55c1.88,0,3.77,0,5.65,0,.27,0,.69-.04,1.16-.17.31-.09.56-.19.75-.28Z"/>
          <path class="cls-25" d="M101.67,243.22v.3s-.06.03-.08.04c-.5.23-1.31.38-1.79.38-.15,0-.56,0-1.2,0,.02-.09.03-.18.02-.27h1.15c.27,0,.69-.04,1.16-.17.31-.09.56-.19.75-.28Z"/>
        </g>
        <g>
          <g>
            <g>
              <g>
                <path class="cls-13" d="M186.48,191.69c.36-.16.72-.34,1.1-.52.06-.03.12-.06.18-.09.07-.03.14-.07.21-.1l43.9-21.93c.06-.03.12-.06.18-.09.07-.03.14-.07.21-.11.13-.06.25-.13.38-.2,5.39-2.8,10.72-6.7,12.4-9.07l.02-.03c.05-.07.1-.15.14-.22l4.54-7.29c.04-.06.07-.11.1-.16.01-.02.02-.03.03-.05,1.14-2.11-1.97-1.81-7.17.69-.12.06-.24.12-.37.18-.13.06-.26.13-.39.19l-43.9,21.93c-.13.07-.26.13-.4.2-.38.2-.77.4-1.15.6-5.18,2.8-10.15,6.49-11.68,8.75h0c-.03.05-.06.1-.09.14l-4.56,7.32c-.03.05-.07.11-.09.16-.02.03-.03.06-.05.1-1.01,1.96,1.74,1.77,6.48-.39Z"/>
                <path class="cls-13" d="M225.79,166.52c-1.56,2.51-7.69,6.97-13.67,9.96-5.99,2.99-9.57,3.38-8.01.87,1.56-2.51,7.69-6.97,13.67-9.96,5.99-2.99,9.57-3.38,8.01-.87Z"/>
                <path class="cls-13" d="M219.88,169.47c-.71,1.14-3.5,3.17-6.22,4.54-2.73,1.36-4.36,1.54-3.64.39.71-1.14,3.5-3.17,6.22-4.54s4.36-1.54,3.64-.39Z"/>
                <path class="cls-13" d="M184.8,184.37h0s2.14-1.07,2.14-1.07c1.18-.59,2.36-1.25,3.49-1.95,3.12-1.92,5.79-4.07,6.66-5.44,0,0,.01-.02.02-.02l.55-.87h0s-6.85,3.42-6.85,3.42c-1.52.76-3.07,1.83-3.83,2.61-.16.17-.29.32-.37.45l-1.78,2.87h0Z"/>
                <path class="cls-13" d="M178.21,195.3c.24.2,1.19-.05,2.51-.71l6.85-3.42h0s.54-.87.54-.87c0,0,.01-.02.01-.02,1.13-1.84-1.52-1.56-5.94.64l-2.14,1.07-.06.1-1.73,2.77c-.08.13-.12.23-.11.31,0,.05.02.1.06.13Z"/>
                <path class="cls-13" d="M232.26,168.85h0s6.83-3.41,6.83-3.41c1.84-.92,3.72-2.29,4.2-3.06l1.75-2.8.02-.03.02-.04-2.11,1.06c-4.43,2.22-8.94,5.51-10.14,7.38,0,.01-.02.02-.02.03l-.54.86Z"/>
                <path class="cls-13" d="M247.72,152.94l2.13-1.06.03-.05,1.75-2.82c.48-.77-.62-.65-2.46.27l-6.85,3.42h0s0,0,0,0l-.54.87s-.01.02-.02.03c-1.12,1.84,1.53,1.55,5.95-.65Z"/>
                <polygon class="cls-13" points="242.94 160.61 245.08 159.54 249.89 151.82 247.75 152.89 247.72 152.94 242.96 160.57 242.94 160.61"/>
                <polygon class="cls-13" points="182.13 191.02 179.99 192.09 184.79 184.37 186.93 183.3 182.13 191.02"/>
                <polygon class="cls-13" points="195.95 176.47 196.51 175.57 242.69 152.51 242.14 153.41 195.95 176.47"/>
                <polygon class="cls-13" points="186.45 191.74 187.01 190.84 233.19 167.77 232.63 168.67 186.45 191.74"/>
              </g>
              <g>
                <path class="cls-18" d="M181.43,181.37c.36-.16.72-.34,1.1-.52l.54-.87s.01-.02.01-.02l-1.12.56-.53.85Z"/>
                <g>
                  <g>
                    <g>
                      <path class="cls-24" d="M175.21,183.04l41.23-20.59.58,1.18,9.81-4.9c.06-.03.12-.06.18-.09.07-.03.14-.07.21-.11.13-.06.25-.13.38-.2.14-.07.27-.14.4-.21,5.25-2.78,10.37-6.55,11.99-8.86l.02-.03c.05-.07.1-.15.14-.22l4.54-7.29c.04-.06.07-.11.1-.16.01-.02.02-.03.03-.05,1.14-2.11-1.97-1.81-7.17.69-.12.06-.24.12-.37.18-.06.03-.13.06-.2.1-.06.03-.13.06-.2.1l-43.9,21.93c-.13.07-.26.13-.4.2-.38.2-.77.4-1.15.6-5.18,2.8-10.15,6.49-11.68,8.75h0c-.03.05-.06.1-.09.14l-4.56,7.32c-.03.05-.07.11-.09.16-.02.03-.03.06-.05.1-.36.69-.24,1.11.25,1.28Z"/>
                      <path class="cls-18" d="M220.74,156.2c-1.56,2.51-7.69,6.97-13.67,9.96-5.99,2.99-9.57,3.38-8.01.87s7.69-6.97,13.67-9.96c5.99-2.99,9.57-3.38,8.01-.87Z"/>
                      <path class="cls-5" d="M214.83,159.15c-.71,1.14-3.5,3.17-6.22,4.54-2.73,1.36-4.36,1.54-3.64.39.71-1.14,3.5-3.17,6.22-4.54,2.73-1.36,4.36-1.54,3.64-.39Z"/>
                      <path class="cls-18" d="M179.75,174.05h0s2.14-1.07,2.14-1.07c1.18-.59,2.36-1.25,3.49-1.95,3.12-1.92,5.79-4.07,6.66-5.44,0,0,.01-.02.02-.02l.55-.87h0s-6.85,3.42-6.85,3.42c-1.52.76-3.07,1.83-3.83,2.61-.16.17-.29.32-.37.45l-1.78,2.87h0Z"/>
                      <path class="cls-18" d="M182.53,180.85c-.38.19-.74.36-1.1.52l-.03.05,1.13-.56h0Z"/>
                      <path class="cls-18" d="M173.67,183.81l9.61-4.8c-.41-.66-2.75-.09-6.13,1.59l-2.14,1.07-.06.1-1.28,2.04Z"/>
                      <path class="cls-18" d="M227.22,158.53h0s6.83-3.41,6.83-3.41c1.84-.92,3.72-2.29,4.2-3.06l1.75-2.8.02-.03.02-.04-2.11,1.06c-4.43,2.22-8.94,5.51-10.14,7.38,0,0,0,.01-.01.02,0,0,0,.01-.01.02l-.54.86Z"/>
                      <path class="cls-18" d="M242.67,142.62l2.13-1.06.03-.05,1.75-2.82c.08-.13.12-.23.11-.31,0-.05-.02-.1-.06-.13-.22-.19-1.04,0-2.21.56-.1.05-.2.09-.3.15l-6.85,3.42h0s0,0,0,0l-.54.87s-.01.02-.02.03c-1.12,1.84,1.53,1.55,5.95-.65Z"/>
                      <polygon class="cls-18" points="237.9 150.29 240.04 149.22 244.84 141.5 242.7 142.57 242.67 142.62 237.92 150.25 237.9 150.29"/>
                      <polygon class="cls-18" points="177.08 180.7 174.94 181.77 179.75 174.05 181.89 172.99 177.08 180.7"/>
                      <polygon class="cls-18" points="190.91 166.15 191.47 165.26 237.65 142.19 237.09 143.09 190.91 166.15"/>
                      <polygon class="cls-18" points="216.77 163.13 217.01 163.63 227.59 158.35 227.59 158.35 227.59 158.34 228.14 157.46 216.77 163.13"/>
                      <path class="cls-18" d="M181.4,181.42l1.52-.76c-.07.04-.14.07-.21.1-.06.03-.12.06-.18.09-.38.19-.74.36-1.1.52l-.03.05Z"/>
                    </g>
                    <path class="cls-18" d="M173.12,184.93c.14.29,1.13.06,2.56-.65l5.73-2.86.03-.05c-3.07,1.4-5.3,1.97-6.22,1.67l-1.54.77-.46.73c-.11.17-.14.3-.09.38Z"/>
                    <path class="cls-18" d="M182.53,180.85c.06-.03.12-.06.18-.09.07-.03.14-.07.21-.1l34.09-17.03-.24-.5-33.69,16.83s-.01.02-.01.02l-.54.87Z"/>
                  </g>
                  <path class="cls-24" d="M183.08,179.96l33.69-16.83-.34-.68-33.16,16.56c.13.2.07.51-.19.95Z"/>
                  <path class="cls-18" d="M175.21,183.04c.92.3,3.16-.27,6.22-1.67l.53-.85,1.12-.56c.27-.43.32-.75.19-.95l-8.07,4.03Z"/>
                </g>
              </g>
              <path class="cls-13" d="M173.12,184.93l5.09,10.37c.27.19,1.43-.17,3.09-1l51.77-25.86-5.06-10.31-42.68,21.32c-.09.05-.18.09-.26.13l-.22.11c-.13.06-.38.19-.72.36l-7.86,3.92c-1.68.84-2.84,1.19-3.1.99-.02-.01-.03-.03-.04-.05Z"/>
              <path class="cls-13" d="M228.01,158.14l.92,1.87,22.8-11.39-5.03-10.24c0,.08-.03.18-.11.31l-1.75,2.82h0s-.03.05-.03.05l-.06.09-4.71,7.58h-.03s-.02.04-.02.04l-1.74,2.8c-.48.77-2.36,2.14-4.2,3.06l-6.04,3.02Z"/>
            </g>
            <polygon class="cls-25" points="241.07 151.72 241.36 151.75 247.83 140.68 247.69 140.39 241.07 151.72"/>
            <polygon class="cls-25" points="246.2 147.6 246.49 147.63 249.07 143.21 248.93 142.92 246.2 147.6"/>
            <polygon class="cls-25" points="241.76 159.56 242.05 159.59 244.41 155.55 250.23 145.57 250.09 145.28 246.12 152.08 244.04 155.65 241.76 159.56"/>
            <polygon class="cls-25" points="183.73 182.95 183.83 183.15 235.44 157.37 235.34 157.17 183.73 182.95"/>
            <polygon class="cls-25" points="186.56 184.22 186.67 184.42 238.27 158.64 238.17 158.44 186.56 184.22"/>
            <path class="cls-25" d="M176.01,190.8l.12.25s.06,0,.09,0c.51-.02,1.25-.23,1.66-.43l4.39-2.19c.65-.32,1.37-.68,2.14-1.07,4.55-2.27,11.27-5.63,19.56-9.77,1.9-.95,3.87-1.93,5.92-2.96,3.1-1.55,6.38-3.18,9.8-4.9,1.93-.96,3.92-1.96,5.94-2.97l3.86-1.93-.1-.2-3.52,1.76c-1.97.98-3.94,1.97-5.91,2.95-3.28,1.64-6.56,3.27-9.84,4.91-1.97.98-3.94,1.96-5.91,2.95-6.51,3.25-13.03,6.5-19.54,9.75l-2.14,1.07c-1.58.78-3.16,1.57-4.73,2.36-.23.11-.6.26-1.04.35-.3.06-.55.07-.74.08Z"/>
            <path class="cls-25" d="M174.21,187.15l.12.25s.06,0,.09,0c.51-.02,1.25-.23,1.66-.43.13-.06.47-.23,1.01-.5-.05-.07-.1-.14-.13-.22l-.96.48c-.23.11-.6.26-1.04.35-.3.06-.55.07-.74.08Z"/>
          </g>
          <g class="cls-26">
            <g>
              <g>
                <path d="M186.47,191.69c.36-.16.72-.34,1.1-.52.06-.03.12-.06.18-.09.07-.03.14-.07.21-.1l43.9-21.93c.06-.03.12-.06.18-.09.07-.03.14-.07.21-.11.13-.06.25-.13.38-.2,5.39-2.8,10.72-6.7,12.4-9.07l.02-.03c.05-.07.1-.15.14-.22l4.54-7.29c.04-.06.07-.11.1-.16.01-.02.02-.03.03-.05,1.14-2.11-1.97-1.81-7.17.69-.12.06-.24.12-.37.18-.13.06-.26.13-.39.19l-43.9,21.93c-.13.07-.26.13-.4.2-.38.2-.77.4-1.15.6-5.18,2.8-10.15,6.49-11.68,8.75h0c-.03.05-.06.1-.09.14l-4.56,7.32c-.03.05-.07.11-.09.16-.02.03-.03.06-.05.1-1.01,1.96,1.74,1.77,6.48-.39Z"/>
                <path d="M225.78,166.53c-1.56,2.51-7.69,6.97-13.67,9.96-5.99,2.99-9.57,3.38-8.01.87,1.56-2.51,7.69-6.97,13.67-9.96,5.99-2.99,9.57-3.38,8.01-.87Z"/>
                <path d="M219.87,169.48c-.71,1.14-3.5,3.17-6.22,4.54s-4.36,1.54-3.64.39c.71-1.14,3.5-3.17,6.22-4.54,2.73-1.36,4.36-1.54,3.64-.39Z"/>
                <path d="M184.79,184.37h0s2.14-1.07,2.14-1.07c1.18-.59,2.36-1.25,3.49-1.95,3.12-1.92,5.79-4.07,6.66-5.44,0,0,.01-.02.02-.02l.55-.87h0s-6.85,3.42-6.85,3.42c-1.52.76-3.07,1.83-3.83,2.61-.16.17-.29.32-.37.45l-1.78,2.87h0Z"/>
                <path d="M178.21,195.3c.24.2,1.19-.05,2.51-.71l6.85-3.42h0s.54-.87.54-.87c0,0,.01-.02.01-.02,1.13-1.84-1.52-1.56-5.94.64l-2.14,1.07-.06.1-1.73,2.77c-.08.13-.12.23-.11.31,0,.05.02.1.06.13Z"/>
                <path d="M232.25,168.85h0s6.83-3.41,6.83-3.41c1.84-.92,3.72-2.29,4.2-3.06l1.75-2.8.02-.03.02-.04-2.11,1.06c-4.43,2.22-8.94,5.51-10.14,7.38,0,.01-.02.02-.02.03l-.54.86Z"/>
                <path d="M247.71,152.94l2.13-1.06.03-.05,1.75-2.82c.48-.77-.62-.65-2.46.27l-6.85,3.42h0s0,0,0,0l-.54.87s-.01.02-.02.03c-1.12,1.84,1.53,1.55,5.95-.65Z"/>
                <polygon points="242.93 160.61 245.07 159.54 249.88 151.83 247.74 152.89 247.71 152.94 242.96 160.57 242.93 160.61"/>
                <polygon points="182.12 191.02 179.98 192.09 184.79 184.37 186.92 183.31 182.12 191.02"/>
                <polygon points="195.95 176.47 196.5 175.58 242.69 152.51 242.13 153.41 195.95 176.47"/>
                <polygon points="186.44 191.74 187 190.84 233.18 167.78 232.62 168.67 186.44 191.74"/>
              </g>
              <g>
                <path d="M181.42,181.37c.36-.16.72-.34,1.1-.52l.54-.87s.01-.02.01-.02l-1.12.56-.53.85Z"/>
                <g>
                  <g>
                    <g>
                      <path d="M175.2,183.04l41.23-20.59.58,1.18,9.81-4.9c.06-.03.12-.06.18-.09.07-.03.14-.07.21-.11.13-.06.25-.13.38-.2.14-.07.27-.14.4-.21,5.25-2.78,10.37-6.55,11.99-8.86l.02-.03c.05-.07.1-.15.14-.22l4.54-7.29c.04-.06.07-.11.1-.16.01-.02.02-.03.03-.05,1.14-2.11-1.97-1.81-7.17.69-.12.06-.24.12-.37.18-.06.03-.13.06-.2.1-.06.03-.13.06-.2.1l-43.9,21.93c-.13.07-.26.13-.4.2-.38.2-.77.4-1.15.6-5.18,2.8-10.15,6.49-11.68,8.75h0c-.03.05-.06.1-.09.14l-4.56,7.32c-.03.05-.07.11-.09.16-.02.03-.03.06-.05.1-.36.69-.24,1.11.25,1.28Z"/>
                      <path d="M220.73,156.21c-1.56,2.51-7.69,6.97-13.67,9.96-5.99,2.99-9.57,3.38-8.01.87,1.56-2.51,7.69-6.97,13.67-9.96s9.57-3.38,8.01-.87Z"/>
                      <path d="M214.82,159.16c-.71,1.14-3.5,3.17-6.22,4.54s-4.36,1.54-3.64.39,3.5-3.17,6.22-4.54c2.73-1.36,4.36-1.54,3.64-.39Z"/>
                      <path d="M179.74,174.06h0s2.14-1.07,2.14-1.07c1.18-.59,2.36-1.25,3.49-1.95,3.12-1.92,5.79-4.07,6.66-5.44,0,0,.01-.02.02-.02l.55-.87h0s-6.85,3.42-6.85,3.42c-1.52.76-3.07,1.83-3.83,2.61-.16.17-.29.32-.37.45l-1.78,2.87h0Z"/>
                      <path d="M182.52,180.85c-.38.19-.74.36-1.1.52l-.03.05,1.13-.56h0Z"/>
                      <path d="M173.66,183.81l9.61-4.8c-.41-.66-2.75-.09-6.13,1.59l-2.14,1.07-.06.1-1.28,2.04Z"/>
                      <path d="M227.21,158.54h0s6.83-3.41,6.83-3.41c1.84-.92,3.72-2.29,4.2-3.06l1.75-2.8.02-.03.02-.04-2.11,1.06c-4.43,2.22-8.94,5.51-10.14,7.38,0,0,0,.01-.01.02,0,0,0,.01-.01.02l-.54.86Z"/>
                      <path d="M242.66,142.63l2.13-1.06.03-.05,1.75-2.82c.08-.13.12-.23.11-.31,0-.05-.02-.1-.06-.13-.22-.19-1.04,0-2.21.56-.1.05-.2.09-.3.15l-6.85,3.42h0s0,0,0,0l-.54.87s-.01.02-.02.03c-1.12,1.84,1.53,1.55,5.95-.65Z"/>
                      <polygon points="237.89 150.29 240.03 149.22 244.83 141.51 242.69 142.57 242.66 142.63 237.91 150.26 237.89 150.29"/>
                      <polygon points="177.07 180.71 174.93 181.77 179.74 174.06 181.88 172.99 177.07 180.71"/>
                      <polygon points="190.9 166.16 191.46 165.26 237.64 142.19 237.08 143.09 190.9 166.16"/>
                      <polygon points="216.76 163.14 217.01 163.63 227.58 158.35 227.58 158.35 227.59 158.34 228.13 157.46 216.76 163.14"/>
                      <path d="M181.39,181.42l1.52-.76c-.07.04-.14.07-.21.1-.06.03-.12.06-.18.09-.38.19-.74.36-1.1.52l-.03.05Z"/>
                    </g>
                    <path d="M173.11,184.93c.14.29,1.13.06,2.56-.65l5.73-2.86.03-.05c-3.07,1.4-5.3,1.97-6.22,1.67l-1.54.77-.46.73c-.11.17-.14.3-.09.38Z"/>
                    <path d="M182.52,180.85c.06-.03.12-.06.18-.09.07-.03.14-.07.21-.1l34.09-17.03-.24-.5-33.69,16.83s-.01.02-.01.02l-.54.87Z"/>
                  </g>
                  <path d="M183.07,179.96l33.69-16.83-.34-.68-33.16,16.56c.13.2.07.51-.19.95Z"/>
                  <path d="M175.2,183.04c.92.3,3.16-.27,6.22-1.67l.53-.85,1.12-.56c.27-.43.32-.75.19-.95l-8.07,4.03Z"/>
                </g>
              </g>
              <path d="M173.11,184.93l5.09,10.37c.27.19,1.43-.17,3.09-1l51.77-25.86-5.06-10.31-42.68,21.32c-.09.05-.18.09-.26.13l-.22.11c-.13.06-.38.19-.72.36l-7.86,3.92c-1.68.84-2.84,1.19-3.1.99-.02-.01-.03-.03-.04-.05Z"/>
              <path d="M228,158.14l.92,1.87,22.8-11.39-5.03-10.24c0,.08-.03.18-.11.31l-1.75,2.82h0s-.03.05-.03.05l-.06.09-4.71,7.58h-.03s-.02.04-.02.04l-1.74,2.8c-.48.77-2.36,2.14-4.2,3.06l-6.04,3.02Z"/>
            </g>
            <polygon points="241.07 151.72 241.36 151.76 247.82 140.68 247.68 140.39 241.07 151.72"/>
            <polygon points="246.19 147.6 246.48 147.63 249.06 143.21 248.92 142.92 246.19 147.6"/>
            <polygon points="241.75 159.56 242.04 159.6 244.4 155.55 250.22 145.57 250.08 145.28 246.11 152.08 244.03 155.65 241.75 159.56"/>
            <polygon points="183.72 182.95 183.82 183.15 235.43 157.38 235.33 157.17 183.72 182.95"/>
            <polygon points="186.56 184.22 186.66 184.42 238.27 158.65 238.17 158.44 186.56 184.22"/>
            <path d="M176,190.81l.12.25s.06,0,.09,0c.51-.02,1.25-.23,1.66-.43l4.39-2.19c.65-.32,1.37-.68,2.14-1.07,4.55-2.27,11.27-5.63,19.56-9.77,1.9-.95,3.87-1.93,5.92-2.96,3.1-1.55,6.38-3.18,9.8-4.9,1.93-.96,3.92-1.96,5.94-2.97l3.86-1.93-.1-.2-3.52,1.76c-1.97.98-3.94,1.97-5.91,2.95-3.28,1.64-6.56,3.27-9.84,4.91-1.97.98-3.94,1.96-5.91,2.95-6.51,3.25-13.03,6.5-19.54,9.75l-2.14,1.07c-1.58.78-3.16,1.57-4.73,2.36-.23.11-.6.26-1.04.35-.3.06-.55.07-.74.08Z"/>
            <path d="M174.2,187.15l.12.25s.06,0,.09,0c.51-.02,1.25-.23,1.66-.43.13-.06.47-.23,1.01-.5-.05-.07-.1-.14-.13-.22l-.96.48c-.23.11-.6.26-1.04.35-.3.06-.55.07-.74.08Z"/>
          </g>
        </g>
      </g>
      <g>
        <g>
          <path class="cls-20" d="M29.92,130.68c0,.36,0,.72-.02,1.08-.13,3.28-.86,6.3-2.02,8.8h0c-.27.59-.57,1.16-.89,1.68-.59.99-1.27,1.86-2.01,2.59,0,.01-.02.02-.02.03h0c-.71.7-1.46,1.26-2.27,1.68-.13.07-.27.13-.4.19-.14.06-.28.12-.42.18-.78.29-1.59.45-2.42.45-.04,0-.09,0-.13,0-.04,0-.07,0-.11,0-.06,0-.13,0-.19,0-.57-.04-1.13-.15-1.68-.33-.44-.14-.87-.32-1.29-.55-.18-.1-.36-.2-.53-.31-.75-.49-1.47-1.11-2.12-1.85-2.68-3.02-4.43-7.99-4.43-13.62,0-9.21,4.69-16.67,10.48-16.67h.05c.81,0,1.6.16,2.36.45.77.28,1.5.71,2.19,1.25.15.12.3.24.45.37.15.14.3.27.45.42.57.55,1.09,1.2,1.58,1.9.22.32.43.65.63,1,.17.3.33.61.49.93,0,.02.02.04.03.05.1.21.2.41.3.63h0c.21.47.41.96.58,1.47.19.55.37,1.11.52,1.7h0c.29,1.07.51,2.19.65,3.36.12,1.02.19,2.08.19,3.15Z"/>
          <g>
            <path class="cls-8" d="M34.75,130.68c0,9.02-4.51,16.37-10.13,16.67-.12,0-.24,0-.35,0-.08,0-.16,0-.24,0-.64-.02-1.26-.14-1.86-.33-.1-.03-.21-.07-.31-.11-.28-.1-.56-.23-.84-.37-.23-.12-.45-.25-.68-.39-.75-.49-1.47-1.11-2.12-1.85-2.68-3.02-4.43-7.99-4.43-13.62,0-6.55,2.37-12.22,5.83-14.94.7-.56,1.45-1,2.24-1.29.77-.29,1.58-.45,2.41-.45.2,0,.4,0,.59.03,1.61.14,3.13.86,4.47,2.04.73.65,1.42,1.43,2.03,2.33.42.61.8,1.27,1.15,1.98.33.66.62,1.36.88,2.1.86,2.42,1.36,5.22,1.36,8.21Z"/>
            <ellipse class="cls-17" cx="24.27" cy="130.68" rx="8.94" ry="14.23"/>
            <g>
              <path class="cls-11" d="M23.91,120.45h.71c.15,0,.28-.2.28-.44v-1.14c0-.24-.12-.44-.28-.44h-.71c-.15,0-.28.2-.28.44v1.14c0,.24.12.44.28.44Z"/>
              <path class="cls-11" d="M26.81,121.24l.64.49c.14.1.3.01.37-.2l.31-1.02c.07-.22,0-.48-.13-.59l-.64-.49c-.14-.1-.3-.01-.37.2l-.31,1.02c-.07.22,0,.48.13.59Z"/>
              <path class="cls-11" d="M29.21,123.96l.45.89c.09.19.27.22.39.07l.56-.71c.12-.15.14-.43.04-.62l-.45-.89c-.09-.19-.27-.22-.39-.07l-.56.71c-.12.15-.14.43-.04.62Z"/>
              <path class="cls-11" d="M30.62,128.06l.16,1.11c.03.24.18.38.33.33l.7-.25c.15-.05.24-.29.21-.52l-.16-1.11c-.03-.24-.18-.38-.33-.33l-.7.25c-.15.05-.24.29-.21.52Z"/>
              <path class="cls-11" d="M30.78,132.73l-.16,1.11c-.03.24.06.47.21.52l.7.25c.15.05.3-.09.33-.33l.16-1.11c.03-.24-.06-.47-.21-.52l-.7-.25c-.15-.05-.3.09-.33.33Z"/>
              <path class="cls-11" d="M29.65,137.05l-.45.89c-.09.19-.07.47.04.62l.56.71c.12.15.29.12.39-.07l.45-.89c.09-.19.07-.47-.04-.62l-.56-.71c-.12-.15-.29-.12-.39.07Z"/>
              <path class="cls-11" d="M27.45,140.16l-.64.49c-.14.1-.19.37-.13.59l.31,1.02c.07.22.23.31.37.2l.64-.49c.14-.1.19-.37.13-.59l-.31-1.02c-.07-.22-.23-.31-.37-.2Z"/>
              <path class="cls-11" d="M24.63,141.45h-.71c-.15,0-.28.2-.28.44v1.14c0,.24.12.44.28.44h.71c.15,0,.28-.2.28-.44v-1.14c0-.24-.12-.44-.28-.44Z"/>
              <path class="cls-11" d="M21.73,140.65l-.64-.49c-.14-.1-.3-.01-.37.2l-.31,1.02c-.07.22,0,.48.13.59l.64.49c.14.1.3.01.37-.2l.31-1.02c.07-.22,0-.48-.13-.59Z"/>
              <path class="cls-11" d="M19.33,137.94l-.45-.89c-.09-.19-.27-.22-.39-.07l-.56.71c-.12.15-.14.43-.04.62l.45.89c.09.19.27.22.39.07l.56-.71c.12-.15.14-.43.04-.62Z"/>
              <path class="cls-11" d="M17.91,133.84l-.16-1.11c-.03-.24-.18-.38-.33-.33l-.7.25c-.15.05-.24.29-.21.52l.16,1.11c.03.24.18.38.33.33l.7-.25c.15-.05.24-.29.21-.52Z"/>
              <path class="cls-11" d="M17.76,129.16l.16-1.11c.03-.24-.06-.47-.21-.52l-.7-.25c-.15-.05-.3.09-.33.33l-.16,1.11c-.03.24.06.47.21.52l.7.25c.15.05.3-.09.33-.33Z"/>
              <path class="cls-11" d="M18.89,124.84l.45-.89c.09-.19.07-.47-.04-.62l-.56-.71c-.12-.15-.29-.12-.39.07l-.45.89c-.09.19-.07.47.04.62l.56.71c.12.15.29.12.39-.07Z"/>
              <path class="cls-11" d="M21.08,121.73l.64-.49c.14-.1.19-.37.13-.59l-.31-1.02c-.07-.22-.23-.31-.37-.2l-.64.49c-.14.1-.19.37-.13.59l.31,1.02c.07.22.23.31.37.2Z"/>
              <path class="cls-11" d="M23.91,120.45h.71c.15,0,.28-.2.28-.44v-1.14c0-.24-.12-.44-.28-.44h-.71c-.15,0-.28.2-.28.44v1.14c0,.24.12.44.28.44Z"/>
            </g>
            <g>
              <path class="cls-11" d="M26.88,131.56c-.21-.53-.53-.97-.95-1.32-.33-.28-.72-.55-1.18-.83-.11-.07-.23-.14-.35-.21-.19-.12-.36-.23-.52-.33-.09-.06-.17-.12-.24-.18-.21-.15-.36-.33-.46-.54-.1-.21-.15-.48-.15-.82,0-.4.06-.71.17-.92.11-.22.26-.38.43-.47.08-.04.17-.08.26-.1v-2.87c-.45.07-.86.26-1.21.57-.46.4-.81.95-1.07,1.66-.26.71-.38,1.56-.38,2.55,0,.81.1,1.49.29,2.01.19.52.48.95.85,1.31.37.35.84.7,1.4,1.04.05.03.09.05.14.07.28.16.52.3.73.42.05.03.1.06.15.1.17.12.3.26.4.42.12.2.19.49.19.87,0,.52-.11.91-.34,1.16-.07.09-.15.15-.24.21v3c.66-.15,1.2-.54,1.63-1.19.55-.83.83-1.99.83-3.46,0-.91-.11-1.62-.33-2.15ZM21.5,133.41l-.71,2.51c.41.83.92,1.45,1.51,1.87.51.36,1.03.56,1.58.62v-2.89c-.35-.05-.7-.21-1.06-.5-.43-.35-.87-.88-1.32-1.61ZM25.82,123.45c-.34-.24-.69-.39-1.06-.46v2.93c.17.07.33.17.5.3.35.28.71.72,1.09,1.34l.8-2.48c-.4-.75-.83-1.3-1.32-1.63Z"/>
              <path class="cls-11" d="M24.75,122.99v2.93c-.18-.08-.37-.12-.56-.12-.11,0-.21.01-.31.04v-2.87c.13-.02.26-.03.4-.03.16,0,.32.01.47.05Z"/>
              <path class="cls-11" d="M24.75,122.06v.93c-.15-.03-.31-.05-.47-.05-.14,0-.27,0-.4.03v-.91h.87Z"/>
              <path class="cls-11" d="M24.75,135.36v3c-.18.04-.38.06-.59.06-.1,0-.19,0-.29-.01v-2.89c.07.01.14.02.21.02.25,0,.47-.06.66-.18Z"/>
              <path class="cls-11" d="M24.75,138.36v.94h-.87v-.89c.09,0,.19.01.29.01.21,0,.4-.02.59-.06Z"/>
            </g>
          </g>
          <path class="cls-20" d="M21.86,146.91c.1.04.21.08.31.11l-.35.34h-2.38c.83,0,1.64-.16,2.42-.45Z"/>
          <path class="cls-20" d="M24.27,147.35h-.24.24Z"/>
          <path class="cls-20" d="M24.03,147.35h0s-2.21,0-2.21,0l.35-.34c.6.2,1.23.31,1.86.33Z"/>
          <path class="cls-20" d="M24.27,114.01c-.83,0-1.64.16-2.41.45-.76-.28-1.55-.44-2.36-.45h4.78Z"/>
        </g>
        <g>
          <path class="cls-20" d="M41.85,145.3c0,.36,0,.72-.02,1.08-.13,3.28-.86,6.3-2.02,8.8h0c-.27.59-.57,1.16-.89,1.68-.59.99-1.27,1.86-2.01,2.59,0,.01-.02.02-.02.03h0c-.71.7-1.46,1.26-2.27,1.68-.13.07-.27.13-.4.19-.14.06-.28.12-.42.18-.78.29-1.59.45-2.42.45-.04,0-.09,0-.13,0-.04,0-.07,0-.11,0-.06,0-.13,0-.19,0-.57-.04-1.13-.15-1.68-.33-.44-.14-.87-.32-1.29-.55-.18-.1-.36-.2-.53-.31-.75-.49-1.47-1.11-2.12-1.85-2.68-3.02-4.43-7.99-4.43-13.62,0-9.21,4.69-16.67,10.48-16.67h.05c.81,0,1.6.16,2.36.45.77.28,1.5.71,2.19,1.25.15.12.3.24.45.37.15.14.3.27.45.42.57.55,1.09,1.2,1.58,1.9.22.32.43.65.63,1,.17.3.33.61.49.93,0,.02.02.04.03.05.1.21.2.41.3.63h0c.21.47.41.96.58,1.47.19.55.37,1.11.52,1.7h0c.29,1.07.51,2.19.65,3.36.12,1.02.19,2.08.19,3.15Z"/>
          <g>
            <path class="cls-8" d="M46.68,145.3c0,9.02-4.51,16.37-10.13,16.67-.12,0-.24,0-.35,0-.08,0-.16,0-.24,0-.64-.02-1.26-.14-1.86-.33-.1-.03-.21-.07-.31-.11-.28-.1-.56-.23-.84-.37-.23-.12-.45-.25-.68-.39-.75-.49-1.47-1.11-2.12-1.85-2.68-3.02-4.43-7.99-4.43-13.62,0-6.55,2.37-12.22,5.83-14.94.7-.56,1.45-1,2.24-1.29.77-.29,1.58-.45,2.41-.45.2,0,.4,0,.59.03,1.61.14,3.13.86,4.47,2.04.73.65,1.42,1.43,2.03,2.33.42.61.8,1.27,1.15,1.98.33.66.62,1.36.88,2.1.86,2.42,1.36,5.22,1.36,8.21Z"/>
            <ellipse class="cls-17" cx="36.19" cy="145.3" rx="8.94" ry="14.23"/>
            <g>
              <path class="cls-11" d="M35.84,135.07h.71c.15,0,.28-.2.28-.44v-1.14c0-.24-.12-.44-.28-.44h-.71c-.15,0-.28.2-.28.44v1.14c0,.24.12.44.28.44Z"/>
              <path class="cls-11" d="M38.73,135.86l.64.49c.14.1.3.01.37-.2l.31-1.02c.07-.22,0-.48-.13-.59l-.64-.49c-.14-.1-.3-.01-.37.2l-.31,1.02c-.07.22,0,.48.13.59Z"/>
              <path class="cls-11" d="M41.13,138.57l.45.89c.09.19.27.22.39.07l.56-.71c.12-.15.14-.43.04-.62l-.45-.89c-.09-.19-.27-.22-.39-.07l-.56.71c-.12.15-.14.43-.04.62Z"/>
              <path class="cls-11" d="M42.55,142.67l.16,1.11c.03.24.18.38.33.33l.7-.25c.15-.05.24-.29.21-.52l-.16-1.11c-.03-.24-.18-.38-.33-.33l-.7.25c-.15.05-.24.29-.21.52Z"/>
              <path class="cls-11" d="M42.71,147.35l-.16,1.11c-.03.24.06.47.21.52l.7.25c.15.05.3-.09.33-.33l.16-1.11c.03-.24-.06-.47-.21-.52l-.7-.25c-.15-.05-.3.09-.33.33Z"/>
              <path class="cls-11" d="M41.58,151.67l-.45.89c-.09.19-.07.47.04.62l.56.71c.12.15.29.12.39-.07l.45-.89c.09-.19.07-.47-.04-.62l-.56-.71c-.12-.15-.29-.12-.39.07Z"/>
              <path class="cls-11" d="M39.38,154.78l-.64.49c-.14.1-.19.37-.13.59l.31,1.02c.07.22.23.31.37.2l.64-.49c.14-.1.19-.37.13-.59l-.31-1.02c-.07-.22-.23-.31-.37-.2Z"/>
              <path class="cls-11" d="M36.55,156.06h-.71c-.15,0-.28.2-.28.44v1.14c0,.24.12.44.28.44h.71c.15,0,.28-.2.28-.44v-1.14c0-.24-.12-.44-.28-.44Z"/>
              <path class="cls-11" d="M33.65,155.27l-.64-.49c-.14-.1-.3-.01-.37.2l-.31,1.02c-.07.22,0,.48.13.59l.64.49c.14.1.3.01.37-.2l.31-1.02c.07-.22,0-.48-.13-.59Z"/>
              <path class="cls-11" d="M31.26,152.56l-.45-.89c-.09-.19-.27-.22-.39-.07l-.56.71c-.12.15-.14.43-.04.62l.45.89c.09.19.27.22.39.07l.56-.71c.12-.15.14-.43.04-.62Z"/>
              <path class="cls-11" d="M29.84,148.46l-.16-1.11c-.03-.24-.18-.38-.33-.33l-.7.25c-.15.05-.24.29-.21.52l.16,1.11c.03.24.18.38.33.33l.7-.25c.15-.05.24-.29.21-.52Z"/>
              <path class="cls-11" d="M29.68,143.78l.16-1.11c.03-.24-.06-.47-.21-.52l-.7-.25c-.15-.05-.3.09-.33.33l-.16,1.11c-.03.24.06.47.21.52l.7.25c.15.05.3-.09.33-.33Z"/>
              <path class="cls-11" d="M30.81,139.46l.45-.89c.09-.19.07-.47-.04-.62l-.56-.71c-.12-.15-.29-.12-.39.07l-.45.89c-.09.19-.07.47.04.62l.56.71c.12.15.29.12.39-.07Z"/>
              <path class="cls-11" d="M33.01,136.35l.64-.49c.14-.1.19-.37.13-.59l-.31-1.02c-.07-.22-.23-.31-.37-.2l-.64.49c-.14.1-.19.37-.13.59l.31,1.02c.07.22.23.31.37.2Z"/>
              <path class="cls-11" d="M35.84,135.07h.71c.15,0,.28-.2.28-.44v-1.14c0-.24-.12-.44-.28-.44h-.71c-.15,0-.28.2-.28.44v1.14c0,.24.12.44.28.44Z"/>
            </g>
            <g>
              <path class="cls-11" d="M38.8,146.18c-.21-.53-.53-.97-.95-1.32-.33-.28-.72-.55-1.18-.83-.11-.07-.23-.14-.35-.21-.19-.12-.36-.23-.52-.33-.09-.06-.17-.12-.24-.18-.21-.15-.36-.33-.46-.54-.1-.21-.15-.48-.15-.82,0-.4.06-.71.17-.92.11-.22.26-.38.43-.47.08-.04.17-.08.26-.1v-2.87c-.45.07-.86.26-1.21.57-.46.4-.81.95-1.07,1.66-.26.71-.38,1.56-.38,2.55,0,.81.1,1.49.29,2.01.19.52.48.95.85,1.31.37.35.84.7,1.4,1.04.05.03.09.05.14.07.28.16.52.3.73.42.05.03.1.06.15.1.17.12.3.26.4.42.12.2.19.49.19.87,0,.52-.11.91-.34,1.16-.07.09-.15.15-.24.21v3c.66-.15,1.2-.54,1.63-1.19.55-.83.83-1.99.83-3.46,0-.91-.11-1.62-.33-2.15ZM33.43,148.03l-.71,2.51c.41.83.92,1.45,1.51,1.87.51.36,1.03.56,1.58.62v-2.89c-.35-.05-.7-.21-1.06-.5-.43-.35-.87-.88-1.32-1.61ZM37.74,138.07c-.34-.24-.69-.39-1.06-.46v2.93c.17.07.33.17.5.3.35.28.71.72,1.09,1.34l.8-2.48c-.4-.75-.83-1.3-1.32-1.63Z"/>
              <path class="cls-11" d="M36.68,137.61v2.93c-.18-.08-.37-.12-.56-.12-.11,0-.21.01-.31.04v-2.87c.13-.02.26-.03.4-.03.16,0,.32.01.47.05Z"/>
              <path class="cls-11" d="M36.68,136.68v.93c-.15-.03-.31-.05-.47-.05-.14,0-.27,0-.4.03v-.91h.87Z"/>
              <path class="cls-11" d="M36.68,149.98v3c-.18.04-.38.06-.59.06-.1,0-.19,0-.29-.01v-2.89c.07.01.14.02.21.02.25,0,.47-.06.66-.18Z"/>
              <path class="cls-11" d="M36.68,152.98v.94h-.87v-.89c.09,0,.19.01.29.01.21,0,.4-.02.59-.06Z"/>
            </g>
            <path class="cls-7" d="M43.29,133.02l-10.92,27.73-.1.02c-.76-.49-1.47-1.11-2.13-1.85l11.11-28.22c.74.65,1.42,1.43,2.03,2.33Z"/>
            <path class="cls-7" d="M45.32,137.09l-.94,2.49-.87,2.31-.77,2.04-.92,2.46-4.92,13.07v.03s-.64,1.68-.64,1.68l-.3.81c-.64-.02-1.26-.14-1.86-.33l.11-.28.07-.19.69-1.77.61-1.59.68-1.74,1.37-3.52,1.5-3.85,2.54-6.54,1.91-4.91.87-2.24c.33.66.62,1.36.88,2.1Z"/>
          </g>
          <path class="cls-20" d="M33.78,161.53c.1.04.21.08.31.11l-.35.34h-2.38c.83,0,1.64-.16,2.42-.45Z"/>
          <path class="cls-20" d="M36.19,161.97h-.24.24Z"/>
          <path class="cls-19" d="M35.96,161.97h0s-2.21,0-2.21,0l.35-.34c.6.2,1.23.31,1.86.33Z"/>
          <path class="cls-19" d="M32.37,160.74l-1.14,1.23s-.07,0-.11,0c-.06,0-.13,0-.19,0-.57-.04-1.13-.15-1.68-.33-.44-.14-.87-.32-1.29-.55l2.17-2.17,2.23,1.82Z"/>
          <path class="cls-20" d="M36.19,128.63c-.83,0-1.64.16-2.41.45-.76-.28-1.55-.44-2.36-.45h4.78Z"/>
        </g>
        <g>
          <path class="cls-20" d="M59.92,194.96c-.17.49-.47.92-.89,1.28-2.23,1.94-7.81,2.08-14.84.03-.14-.04-.28-.08-.41-.12-1.11-.33-2.2-.7-3.27-1.11-.05-.01-.08-.03-.13-.05-1.06-.41-2.11-.85-3.12-1.32h-.02c-.98-.46-1.93-.93-2.85-1.43h-.02c-.36-.2-.72-.4-1.07-.6-.94-.54-1.83-1.1-2.67-1.68h-.01c-3.65-2.51-6.23-5.23-6.88-7.6-.12-.44-.17-.84-.15-1.22.01-.3.07-.58.16-.84.24-.69.74-1.26,1.46-1.7.41-.25.88-.46,1.42-.62.33-.1.69-.19,1.07-.26,1.27-.23,2.8-.29,4.54-.15h0c.41.03.84.07,1.28.13h0c1.82.22,3.82.65,5.95,1.27.16.04.32.1.48.15.53.15,1.05.32,1.56.5.51.17,1.02.36,1.53.55.83.31,1.66.64,2.46.99h0c.48.21.95.42,1.41.65h.01c.53.25,1.06.51,1.57.78.39.2.78.4,1.15.62.89.48,1.73.99,2.53,1.5.05.04.11.07.16.1.69.45,1.34.91,1.96,1.38.1.08.2.16.3.23.66.51,1.26,1.02,1.82,1.53.81.75,1.51,1.5,2.06,2.23.41.54.76,1.08,1.01,1.61.14.27.25.55.33.82.04.09.06.18.09.27.21.77.2,1.46,0,2.06Z"/>
          <g>
            <path class="cls-8" d="M61.32,190.9v.03c-.25.69-.75,1.26-1.48,1.7-.23.14-.48.26-.75.37-2.66,1.1-7.33.97-13.01-.61-.17-.05-.34-.1-.51-.14-.14-.04-.28-.08-.41-.12h-.04c-1.09-.34-2.16-.7-3.21-1.1h-.03c-1.06-.42-2.11-.85-3.13-1.31l-.05-.02h0s-.08-.04-.08-.04c-1.37-.63-2.69-1.31-3.93-2.02-.02-.01-.03-.02-.05-.03-4.04-2.34-7.23-5.03-8.73-7.5-.3-.51-.54-1-.7-1.48-.03-.09-.05-.18-.08-.28-.21-.77-.2-1.46,0-2.06.01-.04.03-.08.05-.12,1.18-2.98,7.43-3.61,15.69-1.2,3.17.92,6.25,2.17,9.02,3.61,1.36.7,2.65,1.45,3.84,2.22.8.53,1.56,1.06,2.26,1.6.66.51,1.26,1.02,1.81,1.53,1.83,1.69,3.08,3.39,3.49,4.93.21.76.2,1.43,0,2.02Z"/>
            <path class="cls-17" d="M27.81,179.12c1.1,4.07,8.9,9.38,17.42,11.86,8.52,2.48,14.53,1.19,13.43-2.88-1.1-4.07-8.9-9.38-17.42-11.86-8.52-2.48-14.53-1.19-13.43,2.88Z"/>
            <g>
              <path class="cls-11" d="M41.18,178.13l1.23.36c.26.08.45.04.41-.09l-.16-.59c-.03-.12-.28-.29-.54-.37l-1.23-.36c-.26-.08-.45-.04-.41.09l.16.59c.03.12.28.29.54.37Z"/>
              <path class="cls-11" d="M46.3,180l1.18.58c.25.12.52.16.61.08l.39-.38c.08-.08-.05-.25-.3-.37l-1.18-.58c-.25-.12-.52-.16-.61-.08l-.39.38c-.08.08.05.25.3.37Z"/>
              <path class="cls-11" d="M50.81,182.61l.89.68c.19.15.49.25.68.23l.86-.09c.18-.02.18-.15-.01-.3l-.89-.68c-.19-.15-.49-.25-.68-.23l-.86.09c-.18.02-.18.15.01.3Z"/>
              <path class="cls-11" d="M53.83,185.44l.43.65c.09.14.37.29.62.34l1.17.22c.25.05.38-.03.28-.17l-.43-.65c-.09-.14-.37-.29-.62-.34l-1.17-.22c-.25-.05-.38.03-.28.17Z"/>
              <path class="cls-11" d="M54.76,187.95l-.12.49c-.03.1.17.27.43.38l1.24.48c.26.1.5.1.52,0l.12-.49c.03-.1-.17-.27-.43-.38l-1.24-.48c-.26-.1-.5-.1-.52,0Z"/>
              <path class="cls-11" d="M53.41,189.62l-.64.24c-.14.05-.06.2.16.34l1.06.65c.23.14.52.21.66.16l.64-.24c.14-.05.06-.2-.16-.34l-1.06-.65c-.23-.14-.52-.21-.66-.16Z"/>
              <path class="cls-11" d="M50.06,190.13l-1.04-.07c-.22-.01-.28.09-.14.24l.68.69c.14.15.44.28.66.29l1.04.07c.22.01.28-.09.14-.24l-.68-.69c-.14-.15-.44-.28-.66-.29Z"/>
              <path class="cls-11" d="M45.36,189.37l-1.23-.36c-.26-.08-.45-.04-.41.09l.16.59c.03.12.28.29.54.37l1.23.36c.26.08.45.04.41-.09l-.16-.59c-.03-.12-.28-.29-.54-.37Z"/>
              <path class="cls-11" d="M40.25,187.51l-1.18-.58c-.25-.12-.52-.16-.61-.08l-.39.38c-.08.08.05.25.3.37l1.18.58c.25.12.52.16.61.08l.39-.38c.08-.08-.05-.25-.3-.37Z"/>
              <path class="cls-11" d="M35.74,184.9l-.89-.68c-.19-.15-.49-.25-.68-.23l-.86.09c-.18.02-.18.15.01.3l.89.68c.19.15.49.25.68.23l.86-.09c.18-.02.18-.15-.01-.3Z"/>
              <path class="cls-11" d="M32.72,182.06l-.43-.65c-.09-.14-.37-.29-.62-.34l-1.17-.22c-.25-.05-.38.03-.28.17l.43.65c.09.14.37.29.62.34l1.17.22c.25.05.38-.03.28-.17Z"/>
              <path class="cls-11" d="M31.79,179.56l.12-.49c.03-.1-.17-.27-.43-.38l-1.24-.48c-.26-.1-.5-.1-.52,0l-.12.49c-.03.1.17.27.43.38l1.24.48c.26.1.5.1.52,0Z"/>
              <path class="cls-11" d="M33.13,177.89l.64-.24c.14-.05.06-.2-.16-.34l-1.06-.65c-.23-.14-.52-.21-.66-.16l-.64.24c-.14.05-.06.2.16.34l1.06.65c.23.14.52.21.66.16Z"/>
              <path class="cls-11" d="M36.48,177.38l1.04.07c.22.01.28-.09.14-.24l-.68-.69c-.14-.15-.44-.28-.66-.29l-1.04-.07c-.22-.01-.28.09-.14.24l.68.69c.14.15.44.28.66.29Z"/>
              <path class="cls-11" d="M41.18,178.13l1.23.36c.26.08.45.04.41-.09l-.16-.59c-.03-.12-.28-.29-.54-.37l-1.23-.36c-.26-.08-.45-.04-.41.09l.16.59c.03.12.28.29.54.37Z"/>
            </g>
            <g>
              <path class="cls-11" d="M47.86,185.38c-.45-.38-1.06-.77-1.82-1.16-.61-.31-1.33-.65-2.15-1.02-.21-.09-.42-.19-.64-.28-.35-.16-.66-.3-.94-.43-.16-.07-.31-.15-.44-.21-.38-.18-.67-.35-.88-.51-.2-.16-.33-.33-.38-.5-.06-.21,0-.34.16-.39.16-.06.39-.07.68-.03.14.02.28.05.43.08l-.4-1.49c-.77-.19-1.44-.3-2.01-.31-.73-.02-1.27.09-1.61.33-.34.24-.45.61-.31,1.13.11.42.38.82.78,1.19.41.37.96.73,1.64,1.1.69.37,1.54.78,2.56,1.24.08.04.16.07.24.11.5.22.94.42,1.31.58.09.04.18.08.27.12.3.15.55.29.74.41.24.17.39.35.44.54.07.27-.07.41-.42.43-.11,0-.25,0-.39-.01l.42,1.56c1.11.25,1.99.32,2.64.2.83-.15,1.15-.61.94-1.38-.13-.47-.42-.9-.87-1.28ZM38.85,183.64l-.87.94c.83.64,1.79,1.21,2.87,1.73.92.44,1.86.81,2.8,1.11l-.41-1.5c-.6-.2-1.24-.46-1.9-.79-.8-.4-1.63-.9-2.5-1.5ZM44.89,180.64c-.62-.29-1.25-.55-1.9-.77l.41,1.52c.3.12.6.25.9.41.64.32,1.32.73,2.06,1.24l1.02-.88c-.79-.59-1.62-1.09-2.5-1.51Z"/>
              <path class="cls-11" d="M42.99,179.87l.41,1.52c-.33-.13-.66-.25-.98-.34-.19-.05-.37-.1-.54-.14l-.4-1.49c.22.05.45.12.69.19.28.08.55.17.82.26Z"/>
              <path class="cls-11" d="M42.86,179.39l.13.48c-.27-.1-.54-.18-.82-.26-.24-.07-.47-.13-.69-.19l-.13-.47,1.51.44Z"/>
              <path class="cls-11" d="M44.73,186.28l.42,1.56c-.31-.07-.65-.16-1-.26-.17-.05-.33-.1-.49-.15l-.41-1.5c.12.04.25.08.37.12.44.13.81.21,1.11.24Z"/>
              <path class="cls-11" d="M45.15,187.84l.13.49-1.51-.44-.13-.46c.16.05.33.1.49.15.36.1.69.19,1,.26Z"/>
            </g>
            <path class="cls-7" d="M53.75,180.81l-1.14.68-1.29.77-.54.32-3.71,2.21-1.57.94-.9.53-1.08.64-.51.3-3.09,1.84-1.14.68-.05-.02h0s-.08-.04-.08-.04c-1.37-.63-2.69-1.31-3.93-2.02l1.12-.67,3-1.79,1.25-.74,1.4-.84.79-.47.64-.38,1.51-.9,1.3-.78,1.25-.74.93-.55.89-.53,1.12-.67c1.36.7,2.65,1.45,3.84,2.22Z"/>
            <path class="cls-7" d="M57.83,183.95l-1.27.82-1.17.76-1.03.67-2.73,1.77-5.19,3.36-.42.27-.79.51-.05.03h-.04c-1.09-.34-2.16-.7-3.21-1.1h-.03s1.2-.73,1.2-.73l.84-.52.92-.56,1.86-1.14,2.05-1.25,6.05-3.7,1.19-.73c.66.51,1.26,1.02,1.81,1.53Z"/>
          </g>
          <path class="cls-20" d="M25.23,178.62c-.72.44-1.22,1.01-1.46,1.7l1.39-4.03c-.21.6-.22,1.29,0,2.06.02.09.05.18.08.28Z"/>
          <path class="cls-20" d="M61.31,190.94l-1.39,4.03c.2-.59.22-1.29,0-2.06-.02-.09-.05-.18-.09-.27.73-.44,1.23-1.01,1.47-1.7Z"/>
          <path class="cls-4" d="M38.77,189.72l-4.37,2.54h-.02c-.36-.2-.72-.4-1.07-.6-.94-.54-1.83-1.1-2.67-1.68l4.06-2.35s-.02-.01,0,0c1.24.71,2.55,1.39,3.93,2.02l.14.06Z"/>
          <path class="cls-4" d="M45.17,192.13l-4.79,2.87c-1.06-.41-2.11-.85-3.12-1.32l4.64-2.66c1.05.4,2.18.78,3.27,1.11Z"/>
        </g>
        <g>
          <path class="cls-20" d="M245.48,94.96c.34.39.57.87.67,1.41.57,2.9-2.08,7.81-7.35,12.89-.1.1-.2.2-.31.3-.84.79-1.7,1.56-2.58,2.28-.04.03-.07.06-.11.09-.88.72-1.78,1.41-2.69,2.05h-.01c-.88.64-1.77,1.23-2.65,1.77h-.01c-.35.23-.7.44-1.04.64-.93.55-1.87,1.04-2.78,1.48h0c-3.99,1.93-7.64,2.81-10.01,2.19-.44-.11-.81-.27-1.13-.48-.25-.16-.47-.35-.66-.56-.48-.55-.72-1.27-.74-2.11-.01-.47.04-.99.17-1.54.08-.34.18-.69.31-1.05.43-1.22,1.14-2.58,2.13-4.02h0c.23-.35.48-.7.75-1.05h0c1.1-1.47,2.46-3,4.06-4.54.12-.12.24-.23.37-.34.39-.38.8-.75,1.21-1.11.41-.36.82-.71,1.24-1.06.68-.56,1.38-1.12,2.08-1.64h0c.42-.31.84-.61,1.26-.9h0c.48-.35.97-.67,1.45-.98.37-.24.74-.47,1.11-.69.86-.53,1.72-1.01,2.56-1.45.06-.03.11-.06.17-.08.73-.37,1.46-.72,2.17-1.02.12-.05.24-.1.35-.15.77-.32,1.51-.59,2.23-.82,1.05-.33,2.05-.56,2.96-.68.68-.09,1.32-.12,1.89-.08.31.02.6.06.88.12.1.01.19.04.28.06.77.2,1.37.56,1.78,1.03Z"/>
          <g>
            <path class="cls-8" d="M242.65,91.72l.02.03c.48.55.73,1.27.74,2.12,0,.27-.01.54-.05.83-.36,2.86-2.81,6.84-7,10.98-.13.12-.25.25-.38.37-.1.1-.2.2-.31.3l-.03.02c-.82.78-1.67,1.53-2.54,2.24l-.02.02c-.88.72-1.78,1.42-2.69,2.07l-.05.03h0s-.07.05-.07.05c-1.23.88-2.47,1.68-3.71,2.4-.02,0-.03.02-.05.03-4.04,2.35-7.96,3.77-10.85,3.84-.59.01-1.13-.03-1.63-.13-.1-.02-.19-.04-.28-.07-.77-.2-1.36-.55-1.78-1.03-.03-.03-.06-.06-.08-.1-2-2.51.57-8.24,6.76-14.21,2.37-2.29,4.99-4.34,7.62-6.03,1.29-.83,2.58-1.58,3.84-2.22.85-.43,1.69-.82,2.51-1.17.77-.32,1.51-.59,2.23-.81,2.38-.75,4.47-.98,6.02-.58.76.2,1.34.54,1.76,1Z"/>
            <path class="cls-17" d="M215.77,114.94c4.08,1.07,12.57-3.06,18.95-9.22,6.39-6.16,8.26-12.02,4.18-13.09-4.08-1.07-12.57,3.06-18.95,9.22-6.39,6.16-8.26,12.02-4.18,13.09Z"/>
            <g>
              <path class="cls-11" d="M221.56,102.85l.92-.89c.2-.19.25-.37.13-.4l-.59-.15c-.13-.03-.39.1-.58.28l-.92.89c-.2.19-.25.37-.13.4l.59.15c.13.03.39-.1.58-.28Z"/>
              <path class="cls-11" d="M225.72,99.34l1.09-.74c.23-.16.4-.37.37-.49l-.13-.53c-.03-.11-.24-.08-.47.08l-1.09.74c-.23.16-.4.37-.37.49l.13.53c.03.11.24.08.47-.08Z"/>
              <path class="cls-11" d="M230.23,96.72l1.04-.43c.22-.09.46-.31.54-.47l.35-.79c.08-.17-.04-.23-.26-.14l-1.04.43c-.22.09-.46.31-.54.47l-.35.79c-.08.17.04.23.26.14Z"/>
              <path class="cls-11" d="M234.19,95.51l.78-.05c.17-.01.43-.18.6-.37l.77-.9c.16-.19.16-.34,0-.33l-.78.05c-.17.01-.43.18-.6.37l-.77.9c-.16.19-.16.34,0,.33Z"/>
              <path class="cls-11" d="M236.83,95.95l.37.35c.08.07.32-.01.54-.19l1.03-.83c.22-.18.33-.38.26-.46l-.37-.35c-.08-.07-.32.01-.54.19l-1.03.83c-.22.18-.33.38-.26.46Z"/>
              <path class="cls-11" d="M237.61,97.95l-.11.68c-.02.14.15.16.38.03l1.09-.6c.23-.13.44-.35.46-.49l.11-.68c.02-.14-.15-.16-.38-.03l-1.09.6c-.23.13-.44.35-.46.49Z"/>
              <path class="cls-11" d="M236.38,101.11l-.58.87c-.12.18-.06.29.14.24l.93-.25c.2-.05.46-.25.58-.43l.58-.87c.12-.18.06-.29-.14-.24l-.93.25c-.2.05-.46.25-.58.43Z"/>
              <path class="cls-11" d="M233.39,104.81l-.92.89c-.2.19-.25.37-.13.4l.59.15c.13.03.39-.1.58-.28l.92-.89c.2-.19.25-.37.13-.4l-.59-.15c-.13-.03-.39.1-.58.28Z"/>
              <path class="cls-11" d="M229.23,108.32l-1.09.74c-.23.16-.4.37-.37.49l.13.53c.03.11.24.08.47-.08l1.09-.74c.23-.16.4-.37.37-.49l-.13-.53c-.03-.11-.24-.08-.47.08Z"/>
              <path class="cls-11" d="M224.72,110.94l-1.04.43c-.22.09-.46.31-.54.47l-.35.79c-.08.17.04.23.26.14l1.04-.43c.22-.09.46-.31.54-.47l.35-.79c.08-.17-.04-.23-.26-.14Z"/>
              <path class="cls-11" d="M220.76,112.15l-.78.05c-.17.01-.43.18-.6.37l-.77.9c-.16.19-.16.34,0,.33l.78-.05c.17-.01.43-.18.6-.37l.77-.9c.16-.19.16-.34,0-.33Z"/>
              <path class="cls-11" d="M218.12,111.71l-.37-.35c-.08-.07-.32.01-.54.19l-1.03.83c-.22.18-.33.38-.26.46l.37.35c.08.07.32-.01.54-.19l1.03-.83c.22-.18.33-.38.26-.46Z"/>
              <path class="cls-11" d="M217.34,109.71l.11-.68c.02-.14-.15-.16-.38-.03l-1.09.6c-.23.13-.44.35-.46.49l-.11.68c-.02.14.15.16.38.03l1.09-.6c.23-.13.44-.35.46-.49Z"/>
              <path class="cls-11" d="M218.57,106.55l.58-.87c.12-.18.06-.29-.14-.24l-.93.25c-.2.05-.46.25-.58.43l-.58.87c-.12.18-.06.29.14.24l.93-.25c.2-.05.46-.25.58-.43Z"/>
              <path class="cls-11" d="M221.56,102.85l.92-.89c.2-.19.25-.37.13-.4l-.59-.15c-.13-.03-.39.1-.58.28l-.92.89c-.2.19-.25.37-.13.4l.59.15c.13.03.39-.1.58-.28Z"/>
            </g>
            <g>
              <path class="cls-11" d="M231.17,100.66c-.55.2-1.19.53-1.91,1-.57.37-1.22.83-1.95,1.36-.18.13-.37.27-.57.41-.31.22-.59.42-.84.6-.14.1-.28.19-.41.28-.35.24-.64.41-.88.51-.24.1-.45.12-.62.08-.21-.05-.29-.17-.26-.33.03-.17.14-.37.32-.61.09-.11.18-.22.28-.33l-1.49-.39c-.55.57-.97,1.1-1.27,1.59-.39.63-.56,1.15-.52,1.56.04.42.31.69.83.83.42.11.9.08,1.42-.09.52-.17,1.11-.47,1.77-.88.66-.42,1.45-.95,2.35-1.6.07-.05.14-.11.21-.16.45-.33.83-.61,1.16-.85.08-.06.16-.12.24-.17.28-.19.52-.34.73-.44.27-.13.5-.17.69-.12.27.07.32.27.17.58-.05.1-.12.21-.21.33l1.56.41c.78-.84,1.27-1.57,1.49-2.19.28-.8.04-1.3-.73-1.5-.47-.12-.98-.08-1.54.11ZM225.17,107.61l.39,1.23c.97-.4,1.94-.95,2.93-1.63.84-.58,1.62-1.21,2.36-1.88l-1.5-.39c-.47.43-1.02.84-1.63,1.26-.74.49-1.59.97-2.54,1.42ZM225.58,100.88c-.56.39-1.1.81-1.61,1.26l1.52.4c.25-.2.52-.39.8-.58.59-.4,1.29-.79,2.1-1.17l-.26-1.33c-.9.39-1.75.86-2.55,1.42Z"/>
              <path class="cls-11" d="M223.97,102.14l1.52.4c-.28.22-.54.45-.78.68-.14.13-.27.27-.38.4l-1.49-.39c.16-.16.32-.33.5-.5.21-.2.42-.39.64-.58Z"/>
              <path class="cls-11" d="M223.49,102.02l.48.13c-.22.19-.43.38-.64.58-.18.17-.35.34-.5.5l-.47-.12,1.13-1.09Z"/>
              <path class="cls-11" d="M230.39,103.82l1.56.41c-.22.24-.46.48-.73.74-.13.12-.25.24-.38.35l-1.5-.39c.1-.09.19-.17.28-.26.33-.32.58-.6.76-.85Z"/>
              <path class="cls-11" d="M231.95,104.23l.49.13-1.13,1.09-.46-.12c.13-.12.25-.23.38-.35.27-.26.51-.5.73-.74Z"/>
            </g>
            <path class="cls-7" d="M230.13,93.28l.02,1.33.02,1.5v.63s.08,4.32.08,4.32l.04,1.83v1.05s.04,1.25.04,1.25v.59s.07,3.59.07,3.59l.02,1.33-.05.03h0s-.07.05-.07.05c-1.23.88-2.47,1.68-3.71,2.4l-.02-1.31-.06-3.49-.02-1.45-.03-1.63v-.92s-.02-.74-.02-.74l-.03-1.76-.03-1.52-.02-1.45-.02-1.08-.02-1.04-.02-1.3c1.29-.83,2.58-1.58,3.84-2.22Z"/>
            <path class="cls-7" d="M234.88,91.3l.08,1.51.08,1.4.07,1.23.18,3.25.33,6.17.03.5.05.94v.06s-.02.02-.02.02c-.82.78-1.67,1.53-2.54,2.24l-.02.02-.04-1.4-.03-.98-.03-1.08-.06-2.18-.06-2.4-.2-7.09-.04-1.39c.77-.32,1.51-.59,2.23-.81Z"/>
          </g>
          <path class="cls-20" d="M214.06,116.93c.02.85.26,1.56.74,2.11l-2.8-3.21c.42.48,1.01.83,1.78,1.03.09.02.18.05.28.07Z"/>
          <path class="cls-20" d="M242.68,91.75l2.8,3.21c-.41-.47-1.01-.83-1.78-1.03-.09-.02-.18-.05-.28-.06-.02-.85-.26-1.57-.74-2.12Z"/>
          <path class="cls-4" d="M230.42,110.7l.03,5.06h-.01c-.35.23-.7.44-1.04.64-.93.55-1.87,1.04-2.78,1.48l-.02-4.69s-.02,0,0,0c1.23-.72,2.48-1.52,3.71-2.4l.12-.09Z"/>
          <path class="cls-4" d="M235.69,106.35l.11,5.58c-.88.72-1.78,1.41-2.69,2.05v-5.35c.86-.71,1.76-1.5,2.58-2.28Z"/>
        </g>
        <g>
          <g>
            <g>
              <g>
                <path class="cls-13" d="M16.15,73.38c.16.13.32.25.5.38.03.02.05.04.08.06.03.02.06.05.1.07l20.29,15.01s.06.04.09.06c.03.02.06.05.1.07.06.04.12.09.18.13,2.54,1.82,5.57,3.35,7.05,3.57h.02s.09.01.13.02l4.4.38s.07,0,.1,0c.01,0,.02,0,.03,0,1.23.03.37-1.32-1.99-3.13-.06-.04-.11-.08-.17-.13-.06-.04-.12-.09-.18-.13l-20.29-15.01c-.06-.05-.12-.09-.18-.13-.18-.13-.36-.26-.55-.39-2.49-1.72-5.34-3.14-6.73-3.32h0s-.06,0-.09,0l-4.42-.38s-.06,0-.09,0c-.02,0-.04,0-.06,0-1.13,0-.4,1.21,1.69,2.88Z"/>
                <path class="cls-13" d="M36.85,85.54c-1.52-.13-4.99-1.9-7.76-3.95-2.77-2.05-3.78-3.6-2.26-3.47s4.99,1.9,7.76,3.95c2.77,2.05,3.78,3.6,2.26,3.47Z"/>
                <path class="cls-13" d="M34.12,83.52c-.69-.06-2.27-.86-3.53-1.8s-1.72-1.64-1.03-1.58c.69.06,2.27.86,3.53,1.8,1.26.93,1.72,1.64,1.03,1.58Z"/>
                <path class="cls-13" d="M19.11,70.91h0s.99.73.99.73c.55.4,1.13.79,1.71,1.14,1.61.98,3.22,1.71,4.05,1.78,0,0,.01,0,.01,0l.53.05h0s-3.16-2.34-3.16-2.34c-.7-.52-1.55-.98-2.09-1.15-.11-.04-.21-.06-.29-.06l-1.73-.15h0Z"/>
                <path class="cls-13" d="M12.56,70.44c-.04.16.3.53.91.99l3.17,2.34h0s.52.04.52.04c0,0,.01,0,.01,0,1.11.09.36-1.06-1.68-2.57l-.99-.73h-.06s-1.68-.15-1.68-.15c-.08,0-.13,0-.17.02-.02.01-.04.03-.04.06Z"/>
                <path class="cls-13" d="M37.29,89.05h0s3.16,2.34,3.16,2.34c.85.63,1.92,1.17,2.38,1.21l1.69.15h.02s.02,0,.02,0l-.98-.72c-2.05-1.51-4.61-2.81-5.75-2.93,0,0-.01,0-.02,0l-.52-.05Z"/>
                <path class="cls-13" d="M48.19,92.42l.98.73h.03s1.7.15,1.7.15c.46.04.15-.44-.7-1.07l-3.16-2.34h0s0,0,0,0l-.52-.05s-.01,0-.02,0c-1.1-.08-.35,1.06,1.69,2.58Z"/>
                <polygon class="cls-13" points="43.56 92.02 44.55 92.76 49.21 93.16 48.22 92.43 48.19 92.42 43.58 92.03 43.56 92.02"/>
                <polygon class="cls-13" points="15.44 71.23 14.45 70.5 19.11 70.91 20.1 71.64 15.44 71.23"/>
                <polygon class="cls-13" points="25.33 74.18 25.87 74.23 47.22 90.02 46.68 89.97 25.33 74.18"/>
                <polygon class="cls-13" points="16.12 73.38 16.66 73.43 38 89.22 37.46 89.18 16.12 73.38"/>
              </g>
              <g>
                <path class="cls-18" d="M19.7,68.66c.16.13.32.25.5.38l.52.04s.01,0,.01,0l-.52-.38-.51-.04Z"/>
                <g>
                  <g>
                    <g>
                      <path class="cls-24" d="M17.48,66.2l19.05,14.1-.41.54,4.53,3.35s.06.04.09.06c.03.02.06.05.1.07.06.04.12.09.18.13.06.05.13.09.19.14,2.5,1.76,5.42,3.22,6.86,3.43h.02s.09.01.13.02l4.4.38s.07,0,.1,0c.01,0,.02,0,.03,0,1.23.03.37-1.32-1.99-3.13-.06-.04-.11-.08-.17-.13-.03-.02-.06-.04-.09-.07-.03-.02-.06-.05-.09-.07l-20.29-15.01c-.06-.05-.12-.09-.18-.13-.18-.13-.36-.26-.55-.39-2.49-1.72-5.34-3.14-6.73-3.32h0s-.06,0-.09,0l-4.42-.38s-.06,0-.09,0c-.02,0-.04,0-.06,0-.4,0-.57.15-.53.41Z"/>
                      <path class="cls-18" d="M40.4,80.82c-1.52-.13-4.99-1.9-7.76-3.95-2.77-2.05-3.78-3.6-2.26-3.47,1.52.13,4.99,1.9,7.76,3.95,2.77,2.05,3.78,3.6,2.26,3.47Z"/>
                      <path class="cls-5" d="M37.67,78.8c-.69-.06-2.27-.86-3.53-1.8-1.26-.93-1.72-1.64-1.03-1.58.69.06,2.27.86,3.53,1.8,1.26.93,1.72,1.64,1.03,1.58Z"/>
                      <path class="cls-18" d="M22.66,66.19h0s.99.73.99.73c.55.4,1.13.79,1.71,1.14,1.61.98,3.22,1.71,4.05,1.78,0,0,.01,0,.01,0l.53.05h0s-3.16-2.34-3.16-2.34c-.7-.52-1.55-.98-2.09-1.15-.11-.04-.21-.06-.29-.06l-1.73-.15h0Z"/>
                      <path class="cls-18" d="M20.2,69.05c-.17-.13-.34-.26-.5-.38h-.03s.52.38.52.38h0Z"/>
                      <path class="cls-18" d="M16.77,65.67l4.44,3.29c.21-.34-.6-1.28-2.16-2.44l-.99-.73h-.06s-1.23-.11-1.23-.11Z"/>
                      <path class="cls-18" d="M40.85,84.33h0s3.16,2.34,3.16,2.34c.85.63,1.92,1.17,2.38,1.21l1.69.15h.02s.02,0,.02,0l-.98-.72c-2.05-1.51-4.61-2.81-5.75-2.93,0,0,0,0-.01,0,0,0,0,0-.01,0l-.52-.05Z"/>
                      <path class="cls-18" d="M51.74,87.71l.98.73h.03s1.7.15,1.7.15c.08,0,.13,0,.17-.02.02-.01.04-.03.04-.06.03-.15-.25-.48-.77-.88-.04-.03-.09-.07-.14-.1l-3.16-2.34h0s0,0,0,0l-.52-.05s-.01,0-.02,0c-1.1-.08-.35,1.06,1.69,2.58Z"/>
                      <polygon class="cls-18" points="47.11 87.3 48.1 88.04 52.76 88.44 51.77 87.71 51.74 87.71 47.14 87.31 47.11 87.3"/>
                      <polygon class="cls-18" points="18.99 66.51 18 65.78 22.66 66.19 23.65 66.92 18.99 66.51"/>
                      <polygon class="cls-18" points="28.89 69.46 29.43 69.51 50.77 85.3 50.23 85.25 28.89 69.46"/>
                      <polygon class="cls-18" points="36.3 80.61 36.13 80.84 41.02 84.46 41.02 84.46 41.02 84.46 41.56 84.5 36.3 80.61"/>
                      <path class="cls-18" d="M19.67,68.66l.7.52s-.07-.05-.1-.07c-.03-.02-.05-.04-.08-.06-.17-.13-.34-.26-.5-.38h-.03Z"/>
                    </g>
                    <path class="cls-18" d="M16.13,65.68c-.1.13.23.53.89,1.02l2.65,1.96h.03c-1.36-1.08-2.14-1.97-2.22-2.46l-.71-.53-.44-.04c-.1,0-.17,0-.2.05Z"/>
                    <path class="cls-18" d="M20.2,69.05s.05.04.08.06c.03.02.06.05.1.07l15.76,11.66.17-.23-15.57-11.52s-.01,0-.01,0l-.52-.04Z"/>
                  </g>
                  <path class="cls-24" d="M20.73,69.09l15.57,11.52.24-.31-15.32-11.34c-.06.11-.22.15-.48.13Z"/>
                  <path class="cls-18" d="M17.48,66.2c.08.49.86,1.38,2.22,2.46l.51.04.52.38c.26.02.42-.03.48-.13l-3.73-2.76Z"/>
                </g>
              </g>
              <path class="cls-13" d="M16.13,65.68l-3.57,4.75c-.02.17.41.62,1.18,1.18l23.92,17.7,3.55-4.72-19.73-14.6s-.08-.06-.12-.09l-.1-.08c-.06-.04-.18-.13-.34-.25l-3.63-2.69c-.78-.57-1.21-1.02-1.18-1.19,0-.01,0-.02.01-.03Z"/>
              <path class="cls-13" d="M41.21,84.6l-.64.85,10.54,7.8,3.52-4.69s-.09.03-.17.02l-1.7-.14h0s-.03,0-.03,0h-.05s-4.57-.4-4.57-.4h-.01s-.02-.01-.02-.01l-1.69-.15c-.47-.04-1.53-.58-2.38-1.21l-2.79-2.07Z"/>
            </g>
            <polygon class="cls-25" points="47.2 89.09 47.25 89.24 53.84 89.62 53.94 89.48 47.2 89.09"/>
            <polygon class="cls-25" points="50.29 90.48 50.34 90.62 52.97 90.78 53.07 90.64 50.29 90.48"/>
            <polygon class="cls-25" points="43.77 91.24 43.82 91.38 46.22 91.52 52.15 91.86 52.25 91.73 48.21 91.49 46.09 91.37 43.77 91.24"/>
            <polygon class="cls-25" points="19.51 70.09 19.44 70.18 43.3 87.83 43.37 87.74 19.51 70.09"/>
            <polygon class="cls-25" points="19.59 71.68 19.52 71.77 43.37 89.43 43.44 89.33 19.59 71.68"/>
            <path class="cls-25" d="M14.11,68.38l-.09.11s.01.03.02.04c.13.23.4.52.58.66l2.03,1.5c.3.22.63.47.99.73,2.1,1.56,5.21,3.85,9.04,6.69.88.65,1.79,1.32,2.74,2.03,1.43,1.06,2.95,2.18,4.53,3.35.89.66,1.81,1.34,2.74,2.03l1.79,1.32.07-.09-1.63-1.2c-.91-.68-1.82-1.35-2.73-2.02-1.52-1.12-3.03-2.24-4.55-3.37-.91-.67-1.82-1.35-2.73-2.02-3.01-2.23-6.02-4.46-9.03-6.69l-.99-.73c-.73-.54-1.46-1.08-2.19-1.62-.1-.08-.26-.21-.4-.4-.1-.12-.16-.23-.21-.32Z"/>
            <path class="cls-25" d="M15.37,66.7l-.09.11s.01.03.02.04c.13.23.4.52.58.66.06.04.22.16.46.35.02-.04.04-.08.07-.11l-.44-.33c-.1-.08-.26-.21-.4-.4-.1-.12-.16-.23-.21-.32Z"/>
          </g>
          <g class="cls-26">
            <g>
              <g>
                <path d="M16.14,73.38c.16.13.32.25.5.38.03.02.05.04.08.06.03.02.06.05.1.07l20.29,15.01s.06.04.09.06c.03.02.06.05.1.07.06.04.12.09.18.13,2.54,1.82,5.57,3.35,7.05,3.57h.02s.09.01.13.02l4.4.38s.07,0,.1,0c.01,0,.02,0,.03,0,1.23.03.37-1.32-1.99-3.13-.06-.04-.11-.08-.17-.13-.06-.04-.12-.09-.18-.13l-20.29-15.01c-.06-.05-.12-.09-.18-.13-.18-.13-.36-.26-.55-.39-2.49-1.72-5.34-3.14-6.73-3.32h0s-.06,0-.09,0l-4.42-.38s-.06,0-.09,0c-.02,0-.04,0-.06,0-1.13,0-.4,1.21,1.69,2.88Z"/>
                <path d="M36.85,85.53c-1.52-.13-4.99-1.9-7.76-3.95-2.77-2.05-3.78-3.6-2.26-3.47,1.52.13,4.99,1.9,7.76,3.95,2.77,2.05,3.78,3.6,2.26,3.47Z"/>
                <path d="M34.12,83.51c-.69-.06-2.27-.86-3.53-1.8-1.26-.93-1.72-1.64-1.03-1.58.69.06,2.27.86,3.53,1.8,1.26.93,1.72,1.64,1.03,1.58Z"/>
                <path d="M19.11,70.9h0s.99.73.99.73c.55.4,1.13.79,1.71,1.14,1.61.98,3.22,1.71,4.05,1.78,0,0,.01,0,.01,0l.53.05h0s-3.16-2.34-3.16-2.34c-.7-.52-1.55-.98-2.09-1.15-.11-.04-.21-.06-.29-.06l-1.73-.15h0Z"/>
                <path d="M12.56,70.43c-.04.16.3.53.91.99l3.17,2.34h0s.52.04.52.04c0,0,.01,0,.01,0,1.11.09.36-1.06-1.68-2.57l-.99-.73h-.06s-1.68-.15-1.68-.15c-.08,0-.13,0-.17.02-.02.01-.04.03-.04.06Z"/>
                <path d="M37.29,89.05h0s3.16,2.34,3.16,2.34c.85.63,1.92,1.17,2.38,1.21l1.69.15h.02s.02,0,.02,0l-.98-.72c-2.05-1.51-4.61-2.81-5.75-2.93,0,0-.01,0-.02,0l-.52-.05Z"/>
                <path d="M48.19,92.42l.98.73h.03s1.7.15,1.7.15c.46.04.15-.44-.7-1.07l-3.16-2.34h0s0,0,0,0l-.52-.05s-.01,0-.02,0c-1.1-.08-.35,1.06,1.69,2.58Z"/>
                <polygon points="43.56 92.02 44.55 92.75 49.2 93.16 48.22 92.43 48.19 92.42 43.58 92.02 43.56 92.02"/>
                <polygon points="15.43 71.23 14.45 70.5 19.11 70.9 20.09 71.63 15.43 71.23"/>
                <polygon points="25.33 74.18 25.87 74.22 47.21 90.02 46.67 89.97 25.33 74.18"/>
                <polygon points="16.11 73.38 16.66 73.43 38 89.22 37.46 89.17 16.11 73.38"/>
              </g>
              <g>
                <path d="M19.7,68.66c.16.13.32.25.5.38l.52.04s.01,0,.01,0l-.52-.38-.51-.04Z"/>
                <g>
                  <g>
                    <g>
                      <path d="M17.48,66.2l19.05,14.1-.41.54,4.53,3.35s.06.04.09.06c.03.02.06.05.1.07.06.04.12.09.18.13.06.05.13.09.19.14,2.5,1.76,5.42,3.22,6.86,3.43h.02s.09.01.13.02l4.4.38s.07,0,.1,0c.01,0,.02,0,.03,0,1.23.03.37-1.32-1.99-3.13-.06-.04-.11-.08-.17-.13-.03-.02-.06-.04-.09-.07-.03-.02-.06-.05-.09-.07l-20.29-15.01c-.06-.05-.12-.09-.18-.13-.18-.13-.36-.26-.55-.39-2.49-1.72-5.34-3.14-6.73-3.32h0s-.06,0-.09,0l-4.42-.38s-.06,0-.09,0c-.02,0-.04,0-.06,0-.4,0-.57.15-.53.41Z"/>
                      <path d="M40.4,80.81c-1.52-.13-4.99-1.9-7.76-3.95-2.77-2.05-3.78-3.6-2.26-3.47,1.52.13,4.99,1.9,7.76,3.95s3.78,3.6,2.26,3.47Z"/>
                      <path d="M37.67,78.79c-.69-.06-2.27-.86-3.53-1.8-1.26-.93-1.72-1.64-1.03-1.58s2.27.86,3.53,1.8,1.72,1.64,1.03,1.58Z"/>
                      <path d="M22.66,66.18h0s.99.73.99.73c.55.4,1.13.79,1.71,1.14,1.61.98,3.22,1.71,4.05,1.78,0,0,.01,0,.01,0l.53.05h0s-3.16-2.34-3.16-2.34c-.7-.52-1.55-.98-2.09-1.15-.11-.04-.21-.06-.29-.06l-1.73-.15h0Z"/>
                      <path d="M20.19,69.04c-.17-.13-.34-.26-.5-.38h-.03s.52.38.52.38h0Z"/>
                      <path d="M16.77,65.67l4.44,3.29c.21-.34-.6-1.28-2.16-2.44l-.99-.73h-.06s-1.23-.11-1.23-.11Z"/>
                      <path d="M40.84,84.33h0s3.16,2.34,3.16,2.34c.85.63,1.92,1.17,2.38,1.21l1.69.15h.02s.02,0,.02,0l-.98-.72c-2.05-1.51-4.61-2.81-5.75-2.93,0,0,0,0-.01,0,0,0,0,0-.01,0l-.52-.05Z"/>
                      <path d="M51.74,87.7l.98.73h.03s1.7.15,1.7.15c.08,0,.13,0,.17-.02.02-.01.04-.03.04-.06.03-.15-.25-.48-.77-.88-.04-.03-.09-.07-.14-.1l-3.16-2.34h0s0,0,0,0l-.52-.05s-.01,0-.02,0c-1.1-.08-.35,1.06,1.69,2.58Z"/>
                      <polygon points="47.11 87.3 48.1 88.03 52.76 88.44 51.77 87.71 51.74 87.7 47.13 87.3 47.11 87.3"/>
                      <polygon points="18.99 66.51 18 65.78 22.66 66.18 23.65 66.91 18.99 66.51"/>
                      <polygon points="28.88 69.46 29.42 69.5 50.77 85.3 50.23 85.25 28.88 69.46"/>
                      <polygon points="36.3 80.61 36.13 80.84 41.01 84.45 41.01 84.45 41.02 84.45 41.55 84.5 36.3 80.61"/>
                      <path d="M19.67,68.66l.7.52s-.07-.05-.1-.07c-.03-.02-.05-.04-.08-.06-.17-.13-.34-.26-.5-.38h-.03Z"/>
                    </g>
                    <path d="M16.13,65.68c-.1.13.23.53.89,1.02l2.65,1.96h.03c-1.36-1.08-2.14-1.97-2.22-2.46l-.71-.53-.44-.04c-.1,0-.17,0-.2.05Z"/>
                    <path d="M20.19,69.04s.05.04.08.06c.03.02.06.05.1.07l15.76,11.66.17-.23-15.57-11.52s-.01,0-.01,0l-.52-.04Z"/>
                  </g>
                  <path d="M20.73,69.09l15.57,11.52.24-.31-15.32-11.34c-.06.11-.22.15-.48.13Z"/>
                  <path d="M17.48,66.2c.08.49.86,1.38,2.22,2.46l.51.04.52.38c.26.02.42-.03.48-.13l-3.73-2.76Z"/>
                </g>
              </g>
              <path d="M16.13,65.68l-3.57,4.75c-.02.17.41.62,1.18,1.18l23.92,17.7,3.55-4.72-19.73-14.6s-.08-.06-.12-.09l-.1-.08c-.06-.04-.18-.13-.34-.25l-3.63-2.69c-.78-.57-1.21-1.02-1.18-1.19,0-.01,0-.02.01-.03Z"/>
              <path d="M41.21,84.6l-.64.85,10.54,7.8,3.52-4.69s-.09.03-.17.02l-1.7-.14h0s-.03,0-.03,0h-.05s-4.57-.4-4.57-.4h-.01s-.02-.01-.02-.01l-1.69-.15c-.47-.04-1.53-.58-2.38-1.21l-2.79-2.07Z"/>
            </g>
            <polygon points="47.2 89.09 47.25 89.23 53.83 89.61 53.93 89.48 47.2 89.09"/>
            <polygon points="50.28 90.48 50.34 90.62 52.96 90.77 53.06 90.64 50.28 90.48"/>
            <polygon points="43.76 91.23 43.81 91.37 46.22 91.51 52.15 91.86 52.25 91.72 48.21 91.49 46.09 91.37 43.76 91.23"/>
            <polygon points="19.51 70.08 19.44 70.18 43.29 87.83 43.36 87.73 19.51 70.08"/>
            <polygon points="19.59 71.68 19.52 71.77 43.37 89.42 43.44 89.33 19.59 71.68"/>
            <path d="M14.11,68.37l-.09.11s.01.03.02.04c.13.23.4.52.58.66l2.03,1.5c.3.22.63.47.99.73,2.1,1.56,5.21,3.85,9.04,6.69.88.65,1.79,1.32,2.74,2.03,1.43,1.06,2.95,2.18,4.53,3.35.89.66,1.81,1.34,2.74,2.03l1.79,1.32.07-.09-1.63-1.2c-.91-.68-1.82-1.35-2.73-2.02-1.52-1.12-3.03-2.24-4.55-3.37-.91-.67-1.82-1.35-2.73-2.02-3.01-2.23-6.02-4.46-9.03-6.69l-.99-.73c-.73-.54-1.46-1.08-2.19-1.62-.1-.08-.26-.21-.4-.4-.1-.12-.16-.23-.21-.32Z"/>
            <path d="M15.36,66.7l-.09.11s.01.03.02.04c.13.23.4.52.58.66.06.04.22.16.46.35.02-.04.04-.08.07-.11l-.44-.33c-.1-.08-.26-.21-.4-.4-.1-.12-.16-.23-.21-.32Z"/>
          </g>
        </g>
      </g>
    </g>
  </g>
</svg>