<?xml version="1.0" encoding="UTF-8"?>
<svg id="_Слой_2" data-name="Слой 2" xmlns="http://www.w3.org/2000/svg" viewBox="0 0 216.01 59.17">
  <defs>
    <style>
      .cls-1 {
        fill: #fff;
      }

      .cls-2 {
        fill: #4c9350;
      }

      .cls-3 {
        fill: #42c352;
      }

      .cls-4 {
        fill: #181c1e;
      }
    </style>
  </defs>
  <g id="_Слой_1-2" data-name="Слой 1">
    <g>
      <rect class="cls-4" x="0" y="0" width="216.01" height="59.17" rx="29.59" ry="29.59"/>
      <g>
        <rect class="cls-3" x="22.98" y="33.72" width="34.77" height="17.99" rx="5.65" ry="5.65"/>
        <ellipse class="cls-2" cx="40.36" cy="42.72" rx="5.8" ry="5.06"/>
        <ellipse class="cls-1" cx="40.37" cy="42.72" rx="2.64" ry="2.31"/>
        <path class="cls-2" d="M55.97,33.72h-3.66v.97c0,2.09,1.94,3.78,4.33,3.78h1.11v-3.2c0-.86-.8-1.56-1.78-1.56Z"/>
        <path class="cls-2" d="M57.75,50.16v-3.2h-1.11c-2.39,0-4.33,1.69-4.33,3.78v.97h3.66c.98,0,1.78-.7,1.78-1.56Z"/>
        <path class="cls-2" d="M24.77,51.71h3.65v-.96c0-2.09-1.94-3.78-4.33-3.78h-1.1v3.19c0,.86.8,1.56,1.78,1.56Z"/>
        <path class="cls-2" d="M22.98,35.27v3.2h1.11c2.39,0,4.33-1.69,4.33-3.78v-.97h-3.66c-.98,0-1.78.7-1.78,1.56Z"/>
        <rect class="cls-2" x="22.97" y="38.42" width="1.14" height="8.59"/>
        <rect class="cls-2" x="56.61" y="38.48" width="1.14" height="8.59"/>
        <rect class="cls-2" x="40.07" y="21.88" width="1" height="24.69" transform="translate(6.35 74.78) rotate(-90)"/>
        <rect class="cls-2" x="40.07" y="38.87" width="1" height="24.69" transform="translate(-10.65 91.78) rotate(-90)"/>
      </g>
    </g>
  </g>
</svg>