<?xml version="1.0" encoding="UTF-8"?>
<svg id="_Слой_2" data-name="Слой 2" xmlns="http://www.w3.org/2000/svg" xmlns:xlink="http://www.w3.org/1999/xlink" viewBox="0 0 288.77 424.72">
  <defs>
    <style>
      .cls-1 {
        fill: #996430;
      }

      .cls-2 {
        fill: #7f0d1b;
      }

      .cls-3 {
        fill: #e8b680;
      }

      .cls-4 {
        fill: #a1da44;
      }

      .cls-5 {
        fill: #f9b067;
      }

      .cls-6 {
        fill: #a5623d;
      }

      .cls-7 {
        opacity: .12;
      }

      .cls-8 {
        fill: #eabd8a;
      }

      .cls-9 {
        fill: #a41644;
      }

      .cls-10 {
        fill: #fff;
      }

      .cls-11 {
        fill: url(#_Безымянный_градиент_382);
      }

      .cls-12 {
        fill: #ebc08c;
      }

      .cls-13 {
        fill: url(#_Безымянный_градиент_59);
      }

      .cls-14 {
        opacity: .23;
      }

      .cls-15 {
        fill: #ecedf4;
      }

      .cls-16 {
        fill: url(#_Безымянный_градиент_382-2);
      }

      .cls-17 {
        fill: #db572e;
      }

      .cls-18 {
        fill: #932731;
      }

      .cls-19 {
        fill: #bc083c;
      }

      .cls-20 {
        fill: #c17e3d;
      }

      .cls-21 {
        fill: #901038;
      }

      .cls-22 {
        fill: #0a0c07;
      }

      .cls-23 {
        fill: #e68f5b;
      }

      .cls-24 {
        fill: #feffdd;
      }

      .cls-25 {
        fill: #7f2931;
      }

      .cls-26 {
        fill: #822a32;
      }

      .cls-27 {
        fill: url(#_Безымянный_градиент_974-4);
      }

      .cls-28 {
        fill: #e06f3c;
      }

      .cls-29 {
        fill: #f4a96c;
      }

      .cls-30 {
        fill: #a87033;
      }

      .cls-31 {
        fill: url(#_Безымянный_градиент_974);
      }

      .cls-32 {
        fill: #bc355b;
      }

      .cls-33 {
        fill: #140d36;
      }

      .cls-34 {
        fill: #72262f;
      }

      .cls-35 {
        fill: #fdfdf9;
      }

      .cls-36 {
        fill: #942f35;
      }

      .cls-37 {
        fill: #931824;
      }

      .cls-38 {
        fill: #769931;
      }

      .cls-39 {
        fill: url(#_Безымянный_градиент_279);
      }

      .cls-40 {
        fill: #ffc897;
      }

      .cls-41 {
        fill: url(#_Безымянный_градиент_382-4);
      }

      .cls-42 {
        fill: #eabd8c;
      }

      .cls-43 {
        fill: url(#_Безымянный_градиент_974-2);
      }

      .cls-44 {
        fill: #f7b477;
      }

      .cls-45 {
        fill: #320934;
      }

      .cls-46 {
        fill: url(#_Безымянный_градиент_279-2);
      }

      .cls-47 {
        fill: #ebc28d;
      }

      .cls-48 {
        fill: #1f000d;
      }

      .cls-49 {
        fill: #ffddb8;
      }

      .cls-50 {
        fill: #c4767d;
      }

      .cls-51 {
        fill: url(#_Безымянный_градиент_974-3);
      }

      .cls-52 {
        fill: url(#_Безымянный_градиент_382-3);
      }

      .cls-53 {
        fill: #bd2046;
      }
    </style>
    <linearGradient id="_Безымянный_градиент_59" data-name="Безымянный градиент 59" x1="144.37" y1="14.28" x2="144.37" y2="424.72" gradientUnits="userSpaceOnUse">
      <stop offset="0" stop-color="#a1c68f"/>
      <stop offset=".49" stop-color="#649760"/>
      <stop offset="1" stop-color="#286932"/>
    </linearGradient>
    <linearGradient id="_Безымянный_градиент_974" data-name="Безымянный градиент 974" x1="81.19" y1="181.43" x2="85.41" y2="181.04" gradientUnits="userSpaceOnUse">
      <stop offset="0" stop-color="#ebb637"/>
      <stop offset=".42" stop-color="#de9128"/>
      <stop offset=".78" stop-color="#d6791f"/>
      <stop offset="1" stop-color="#d3711c"/>
    </linearGradient>
    <linearGradient id="_Безымянный_градиент_974-2" data-name="Безымянный градиент 974" x1="79.77" y1="187.78" x2="88.47" y2="186.98" xlink:href="#_Безымянный_градиент_974"/>
    <linearGradient id="_Безымянный_градиент_974-3" data-name="Безымянный градиент 974" x1="210.86" y1="181.59" x2="215.07" y2="181.21" xlink:href="#_Безымянный_градиент_974"/>
    <linearGradient id="_Безымянный_градиент_974-4" data-name="Безымянный градиент 974" x1="209.44" y1="187.94" x2="218.14" y2="187.14" xlink:href="#_Безымянный_градиент_974"/>
    <linearGradient id="_Безымянный_градиент_279" data-name="Безымянный градиент 279" x1="148.15" y1="70.42" x2="145.92" y2="194.83" gradientUnits="userSpaceOnUse">
      <stop offset="0" stop-color="#f3d99f"/>
      <stop offset=".39" stop-color="#eecb94"/>
      <stop offset="1" stop-color="#e9bb88"/>
    </linearGradient>
    <linearGradient id="_Безымянный_градиент_382" data-name="Безымянный градиент 382" x1="118.04" y1="148.09" x2="104.24" y2="127.03" gradientUnits="userSpaceOnUse">
      <stop offset="0" stop-color="#262e57"/>
      <stop offset=".63" stop-color="#232531"/>
      <stop offset="1" stop-color="#222221"/>
    </linearGradient>
    <linearGradient id="_Безымянный_градиент_382-2" data-name="Безымянный градиент 382" x1="175.33" y1="150.62" x2="190.48" y2="130.42" xlink:href="#_Безымянный_градиент_382"/>
    <linearGradient id="_Безымянный_градиент_279-2" data-name="Безымянный градиент 279" x1="146.9" y1="70.83" x2="144.67" y2="195.24" xlink:href="#_Безымянный_градиент_279"/>
    <linearGradient id="_Безымянный_градиент_382-3" data-name="Безымянный градиент 382" x1="116.79" y1="148.5" x2="102.99" y2="127.44" xlink:href="#_Безымянный_градиент_382"/>
    <linearGradient id="_Безымянный_градиент_382-4" data-name="Безымянный градиент 382" x1="174.08" y1="151.03" x2="189.23" y2="130.83" xlink:href="#_Безымянный_градиент_382"/>
  </defs>
  <g id="_Слой_1-2" data-name="Слой 1">
    <g>
      <g>
        <path class="cls-13" d="M288.75,41.51v355.99c0,1.34-.1,2.65-.29,3.93-.08.49-.15.96-.25,1.44-.29,1.42-.68,2.81-1.19,4.14-.66,1.77-1.52,3.47-2.53,5.05-2.64,4.15-6.4,7.56-10.83,9.78-3.17,1.6-6.7,2.6-10.43,2.84-.19.02-.36.03-.55.03-.14,0-.29,0-.43.01-.25.01-.51.01-.77.01H27.28c-.38,0-.75-.01-1.13-.02-2.58-.11-5.08-.57-7.43-1.36-.02-.01-.04-.02-.07-.02-.87-.29-1.72-.63-2.56-1.01t-.02-.01c-.32-.14-.63-.31-.94-.46-.22-.12-.44-.24-.66-.36-.07-.02-.12-.06-.18-.1-.89-.49-1.78-1.01-2.61-1.59-.13-.09-.26-.18-.4-.28-4.46-3.24-7.92-7.8-9.78-13.09-.98-2.79-1.51-5.8-1.51-8.92V41.51c0-6.58,2.37-12.64,6.31-17.36,2.28-2.73,5.06-5.01,8.22-6.68,3.81-2.03,8.15-3.18,12.75-3.18h234.21c3.2,0,6.29.56,9.16,1.59.88.32,1.75.67,2.58,1.08,8.02,3.84,13.9,11.5,15.23,20.58.2,1.29.3,2.63.3,3.98Z"/>
        <g class="cls-14">
          <path class="cls-10" d="M288.75,319.77v77.73c0,1.34-.1,2.65-.29,3.93-.08.49-.15.96-.25,1.44-.29,1.42-.7,2.81-1.19,4.14-.68,1.77-1.54,3.47-2.55,5.05-2.64,4.13-6.38,7.52-10.8,9.74-3.2,1.62-6.77,2.63-10.55,2.87-.14.01-.29.02-.43.03-.14,0-.29,0-.43.01-.25.01-.51.01-.77.01H27.28c-.38,0-.75-.01-1.13-.02-2.58-.11-5.08-.57-7.43-1.36-.02-.01-.04-.02-.07-.02-.87-.29-1.72-.63-2.56-1.01t-.02-.01c-.32-.14-.63-.31-.94-.46-.22-.12-.44-.24-.66-.36-.07-.02-.12-.06-.18-.1-.89-.49-1.78-1.01-2.61-1.59-.13-.09-.26-.18-.4-.28-4.46-3.24-7.92-7.8-9.78-13.09-.98-2.79-1.51-5.8-1.51-8.92v-66.5c2.28-2.63,4.73-5.24,7.33-7.79,5.11-5.01,10.84-9.85,17.05-14.45.24-.18.48-.35.72-.53,3.94-2.88,8.09-5.68,12.42-8.36h.01c1.36-.85,2.72-1.68,4.11-2.5.89-.53,1.79-1.05,2.7-1.56.74-.43,1.49-.85,2.24-1.27.03-.02.06-.03.09-.04.83-.46,1.67-.93,2.51-1.38,6.1-3.28,12.47-6.35,19.05-9.17.24-.1.48-.21.72-.31h.01c1.23-.52,2.46-1.04,3.7-1.54,1.58-.64,3.17-1.27,4.77-1.88,1.92-.74,3.86-1.45,5.81-2.14.32-.12.64-.23.96-.34.54-.19,1.09-.38,1.63-.56.62-.21,1.25-.42,1.87-.63,1.5-.5,3.02-.98,4.54-1.45,1.69-.54,3.39-1.05,5.1-1.55.06-.01.11-.03.17-.04l.83-.23c1.26-.35,2.5-.71,3.76-1.05h.02c1.73-.46,3.48-.91,5.22-1.33,2.54-.63,5.1-1.21,7.68-1.76,5.04-1.08,10.13-1.99,15.24-2.74,5.17-.75,10.36-1.34,15.57-1.73.21-.01.43-.03.64-.04,2.92-.21,5.81-.38,8.74-.47,4.2-.14,8.44-.17,12.69-.06.31,0,.54,0,.56.01,3.67.08,7.31.4,10.9.91,1.45.21,2.88.44,4.31.71,2.75.51,5.46,1.12,8.11,1.81,1.29.33,2.57.68,3.83,1.05,1.02.31,2.03.62,3.03.94,6.12,1.96,11.81,4.24,16.81,6.52.28.12.54.24.81.38,2.6,1.19,4.99,2.38,7.17,3.51,8.18,4.24,13.2,7.68,13.2,7.68.54.36,1.06.73,1.57,1.08.89.64,1.73,1.25,2.54,1.86,1.49,1.1,2.85,2.15,4.11,3.18.64.51,1.26,1.02,1.86,1.52,3.32,2.75,6.09,5.25,9.12,7.69,2.28,1.81,4.69,3.59,7.64,5.41,1.41.88,2.95,1.77,4.64,2.68,1.27.68,2.64,1.38,4.11,2.1,6.77,3.29,12.63,5.37,16.52,6.63Z"/>
          <polygon class="cls-10" points="288.75 319.76 288.75 368.21 236.01 368.92 230.88 368.98 194.63 369.47 180.89 369.66 166.77 369.84 154.66 370 130.13 370.33 87.29 370.9 81.22 370.98 81.13 364.7 80.78 338.1 80.57 322.53 107.2 322.18 114.33 322.08 155.67 321.53 165.09 321.41 205.47 320.87 208.12 320.83 272.23 319.98 288.75 319.76"/>
          <path class="cls-10" d="M273.22,16.95l-46.01,206.36-21.75,97.56-.94,4.23-4.03,18.05-5.87,26.32-4.84,21.72-.75,3.35-1.84,8.27-4.88,21.92h-49.64l1.47-6.61,2.92-13.04,1.8-8.11,1.76-7.84,4.23-18.99,1.82-8.17,4.65-20.88,4.35-19.55,3.83-17.17,20.4-91.53L224.18,14.28h37.3c3.2,0,6.29.56,9.16,1.59.88.32,1.75.67,2.58,1.08Z"/>
          <path class="cls-10" d="M198.94,424.72h-50.98l-7.69-23.46-1.41-4.3-2.63-8.03-6.1-18.6-10.01-30.57-2.23-6.8-3.57-10.87-30.12-91.95L14.53,17.46c3.81-2.03,8.15-3.18,12.75-3.18h37.19l65.8,200.86,29.24,89.23,5.59,17.04,6.73,20.53,5.17,15.8,3.9,11.92,7.04,21.45,1.12,3.42,4.96,15.12.72,2.19,4.22,12.88Z"/>
          <polygon class="cls-10" points="208.96 424.72 140.69 424.72 134.14 418.11 129.77 413.71 103.82 387.56 87.29 370.9 81.13 364.7 53.61 336.95 7.34 290.32 0 282.94 0 214.15 41.65 256.13 107.2 322.18 117.9 332.95 124.84 339.96 146.67 361.96 154.66 370 161.13 376.53 175.06 390.57 187.2 402.8 194 409.65 195.39 411.06 208.96 424.72"/>
          <polygon class="cls-10" points="79.82 424.66 148.08 424.66 154.63 418.05 159 413.65 184.95 387.5 201.49 370.84 207.64 364.63 235.17 336.89 281.44 290.26 288.77 282.87 288.77 214.09 247.13 256.07 181.57 322.12 170.88 332.89 163.93 339.9 142.1 361.9 134.12 369.94 127.64 376.47 113.72 390.5 101.58 402.74 94.77 409.59 93.38 410.99 79.82 424.66"/>
        </g>
        <g>
          <path class="cls-10" d="M55.47,123.33l10.43,2.59c1.08.27,1.11,1.79.04,2.09l-10.32,2.99c-4,1.16-7.08,4.35-8.08,8.39l-2.59,10.41c-.27,1.08-1.79,1.1-2.1.04l-3-10.31c-1.16-4-4.37-7.08-8.41-8.08l-10.43-2.59c-1.08-.27-1.11-1.79-.04-2.09l10.32-2.99c4-1.16,7.08-4.35,8.08-8.39l2.59-10.41c.27-1.08,1.79-1.1,2.1-.04l3,10.31c1.16,4,4.37,7.08,8.41,8.08Z"/>
          <path class="cls-10" d="M272.13,58.08l10.32,3.01c1.07.31,1.03,1.83-.04,2.09l-10.43,2.57c-4.04,1-7.25,4.07-8.42,8.06l-3.01,10.3c-.31,1.06-1.83,1.03-2.1-.05l-2.58-10.42c-1-4.04-4.08-7.25-8.08-8.41l-10.32-3.01c-1.07-.31-1.03-1.83.04-2.09l10.43-2.57c4.04-1,7.25-4.07,8.42-8.06l3.01-10.3c.31-1.06,1.83-1.03,2.1.05l2.58,10.42c1,4.04,4.08,7.25,8.08,8.41Z"/>
          <path class="cls-10" d="M264.45,300.85l14.99,4.38c1.55.45,1.5,2.66-.06,3.04l-15.16,3.73c-5.88,1.45-10.54,5.91-12.23,11.71l-4.37,14.97c-.45,1.55-2.66,1.5-3.05-.07l-3.75-15.15c-1.45-5.87-5.93-10.53-11.74-12.23l-14.99-4.38c-1.55-.45-1.5-2.66.06-3.04l15.16-3.73c5.88-1.45,10.54-5.91,12.23-11.71l4.37-14.97c.45-1.55,2.66-1.5,3.05.07l3.75,15.15c1.45,5.87,5.93,10.53,11.74,12.23Z"/>
          <path class="cls-10" d="M67.54,227.97l15.17,3.74c1.57.39,1.62,2.59.07,3.04l-14.99,4.37c-5.81,1.7-10.28,6.35-11.72,12.22l-3.73,15.14c-.39,1.56-2.59,1.61-3.05.06l-4.39-14.97c-1.7-5.81-6.37-10.27-12.25-11.72l-15.17-3.74c-1.57-.39-1.62-2.59-.07-3.04l14.99-4.37c5.81-1.7,10.28-6.35,11.72-12.22l3.73-15.14c.39-1.56,2.59-1.61,3.05-.06l4.39,14.97c1.7,5.81,6.37,10.27,12.25,11.72Z"/>
          <path class="cls-10" d="M48.76,58.63l8.72,2.55c.9.26.87,1.55-.04,1.77l-8.82,2.17c-3.42.84-6.13,3.44-7.11,6.81l-2.54,8.71c-.26.9-1.55.87-1.77-.04l-2.18-8.81c-.85-3.42-3.45-6.13-6.83-7.11l-8.72-2.55c-.9-.26-.87-1.55.04-1.77l8.82-2.17c3.42-.84,6.13-3.44,7.11-6.81l2.54-8.71c.26-.9,1.55-.87,1.77.04l2.18,8.81c.85,3.42,3.45,6.13,6.83,7.11Z"/>
          <path class="cls-10" d="M64.11,331.36l15.15,3.79c1.57.39,1.61,2.6.06,3.04l-15,4.32c-5.82,1.67-10.3,6.32-11.77,12.18l-3.78,15.13c-.39,1.56-2.6,1.6-3.05.05l-4.34-14.99c-1.68-5.81-6.33-10.29-12.21-11.76l-15.15-3.79c-1.57-.39-1.61-2.6-.06-3.04l15-4.32c5.82-1.67,10.3-6.32,11.77-12.18l3.78-15.13c.39-1.56,2.6-1.6,3.05-.05l4.34,14.99c1.68,5.81,6.33,10.29,12.21,11.76Z"/>
          <path class="cls-10" d="M100.79,204.35l10.18,2.68c1.05.28,1.06,1.76.01,2.05l-10.14,2.79c-3.93,1.08-6.99,4.17-8.03,8.11l-2.67,10.16c-.28,1.05-1.77,1.06-2.05.01l-2.8-10.13c-1.09-3.93-4.18-6.99-8.13-8.03l-10.18-2.68c-1.05-.28-1.06-1.76-.01-2.05l10.14-2.79c3.93-1.08,6.99-4.17,8.03-8.11l2.67-10.16c.28-1.05,1.77-1.06,2.05-.01l2.8,10.13c1.09,3.93,4.18,6.99,8.13,8.03Z"/>
          <path class="cls-10" d="M247.44,181.92l9.11,2.66c.94.27.91,1.62-.04,1.85l-9.21,2.27c-3.57.88-6.4,3.59-7.43,7.12l-2.65,9.09c-.27.94-1.62.91-1.85-.04l-2.28-9.2c-.88-3.57-3.6-6.4-7.13-7.43l-9.11-2.66c-.94-.27-.91-1.62.04-1.85l9.21-2.27c3.57-.88,6.4-3.59,7.43-7.12l2.65-9.09c.27-.94,1.62-.91,1.85.04l2.28,9.2c.88,3.57,3.6,6.4,7.13,7.43Z"/>
          <path class="cls-10" d="M202.26,33.58l9.11,2.66c.94.27.91,1.62-.04,1.85l-9.21,2.27c-3.57.88-6.4,3.59-7.43,7.12l-2.65,9.09c-.27.94-1.62.91-1.85-.04l-2.28-9.2c-.88-3.57-3.6-6.4-7.13-7.43l-9.11-2.66c-.94-.27-.91-1.62.04-1.85l9.21-2.27c3.57-.88,6.4-3.59,7.43-7.12l2.65-9.09c.27-.94,1.62-.91,1.85.04l2.28,9.2c.88,3.57,3.6,6.4,7.13,7.43Z"/>
          <path class="cls-10" d="M151.48,114.26l6.03,1.76c.62.18.6,1.07-.03,1.22l-6.09,1.5c-2.36.58-4.23,2.37-4.92,4.71l-1.76,6.02c-.18.62-1.07.6-1.22-.03l-1.51-6.09c-.58-2.36-2.38-4.23-4.72-4.91l-6.03-1.76c-.62-.18-.6-1.07.03-1.22l6.09-1.5c2.36-.58,4.23-2.37,4.92-4.71l1.76-6.02c.18-.62,1.07-.6,1.22.03l1.51,6.09c.58,2.36,2.38,4.23,4.72,4.91Z"/>
          <path class="cls-10" d="M100.34,45.95l8.69,2.54c.9.26.87,1.54-.04,1.77l-8.79,2.16c-3.41.84-6.11,3.43-7.09,6.79l-2.53,8.68c-.26.9-1.54.87-1.77-.04l-2.17-8.78c-.84-3.41-3.44-6.11-6.81-7.09l-8.69-2.54c-.9-.26-.87-1.54.04-1.77l8.79-2.16c3.41-.84,6.11-3.43,7.09-6.79l2.53-8.68c.26-.9,1.54-.87,1.77.04l2.17,8.78c.84,3.41,3.44,6.11,6.81,7.09Z"/>
        </g>
      </g>
      <g>
        <path class="cls-23" d="M189.54,157.78c19.13.06,38.26.13,57.39.19-.35,1.78-3.06,14.67-15.03,20.53-6.3,3.09-12.78,3.06-15.13,2.96-1.7-.07-6.39-.41-11-2.42-12.37-5.4-15.77-19.23-16.23-21.27Z"/>
        <path class="cls-10" d="M197.81,163.06c.7,1.21,1.94,3,4.03,4.59,2.78,2.12,5.54,2.73,8.48,3.36,1.73.37,6.87,1.32,13.56.3,3.56-.54,6.82-1.04,10.26-3.31,2.61-1.71,4.24-3.73,5.18-5.13-13.84.07-27.69.13-41.53.2Z"/>
        <g>
          <path class="cls-45" d="M74.59,275.24c-.73-2.7-1.75-10.88-2.23-15.53-.81-7.74-1.56-15.34-.84-25.01.71-9.52,1.95-8.88,1.68-14.48-.11-2.26-.56-7.46-6.98-22.11-4.55-10.37-8.17-16.55-9.22-18.69-11.09-22.72,22.99-61.96,27.93-67.65,15.32-17.64,50.2-57.81,85.47-49.75,20.68,4.73,35.31,24.63,42.17,33.95,5.45,7.42,9.22,15.39,16.76,31.32,8.21,17.36,12.32,26.21,12.57,34.74.31,10.57-3.27,24.15-9.78,35.27-1.6,2.74-6.04,9.86-8.71,19.28-.86,3.03-2.02,7.99-.51,13.62.6,2.23,1.44,3.82,1.99,4.9,2.6,5.14,6.13,8.29,13.09,19.84,5.77,9.57,7.71,14.63,7.54,20.53,0,0-.12,4.07-1.4,7.63-7.68,21.42-161.23,22.66-169.53-7.9Z"/>
          <g>
            <g>
              <g>
                <path class="cls-8" d="M101.3,179.43c-4.95,2.49-11.31,1.81-15.88.89-.09-1.27-.35-2.19-.65-2.25-.29-.05-.45.7-.9,1.92-.88-.2-1.65-.4-2.29-.56-.03,0-.07-.02-.09-.03,0-.04,0-.08,0-.12-.29-.05-.57-.12-.84-.18,0,.03-.02.04-.03.07-1.23-.32-2.78-.77-4.51-1.45-.22-.08-.43-.17-.65-.26-.46-.19-.93-.39-1.41-.61-.76-.35-1.55-.75-2.34-1.19-2.31-1.28-4.7-2.98-6.94-5.27-6.16-6.27-7.53-13.25-8.57-18.46-.6-3.04-1.37-6.9-.98-11.38,1.88.08,4.14-.18,6.65-.69.02-.06.04-.12.07-.19.02-.06.04-.12.06-.16t0-.02c.02-.05.05-.12.08-.2.1-.27.28-.7.55-1.23,0-.02,0-.04.03-.06h0c.08-.17.19-.36.3-.55.07-.11.13-.22.2-.33.13-.22.28-.45.45-.69.17-.23.35-.47.54-.7s.4-.47.62-.71c.11-.12.24-.23.35-.35.12-.11.24-.22.37-.33.1-.1.22-.19.33-.28.15-.12.32-.24.48-.36.11-.08.24-.16.36-.23.06-.04.11-.08.18-.12s.12-.07.19-.11c.12-.07.25-.14.38-.21.2-.1.41-.19.61-.28.16-.07.32-.13.49-.2.05-.02.1-.04.15-.05.15-.04.3-.09.45-.13,1.91-.54,3.7-.36,5.18.02.21.05.4.11.58.17.12.04.25.07.36.11.19.06.37.12.54.19.11.04.22.09.32.12.1.04.2.08.3.12h0c.2.09.38.16.54.23.15.06.29.13.44.2.14.07.28.14.42.21h0c.14.08.28.15.42.23.14.09.29.18.44.27,6.89-2.99,13.75-6.67,19.02-10.23,1.69,1.09,3.24,2.29,4.63,3.59,15.9,14.86,12.39,45.07-1.03,51.82Z"/>
                <path class="cls-30" d="M61.98,139.5c.01.11.02.22.02.33.08,1.14.16,2.29.24,3.43,3.91.25,9.64,2.79,13.69,6.04,5.9,4.72,9.78,12.16,10.44,17.12,3.96.54,7.73.04,9.13-2.04.75-1.11.78-2.6-4.93-13.26-6.09-11.34-9.04-15.06-11.9-16.87-.58-.36-1.15-.65-1.74-.9-.67-.28-1.57-.66-2.64-.93-1.48-.38-3.27-.55-5.19-.02-4.91,1.37-6.83,6.33-7.11,7.11Z"/>
                <path class="cls-1" d="M62.24,143.27c.22,2.98.41,5.96.62,8.95,2.53-.59,5.76-.95,7.39.68.09.08.17.18.23.26.82,1.02.6,2.23,1.09,3.84,1.21,4.09,5.59,6.28,7.54,7.24,2.11,1.06,4.73,1.84,7.27,2.18-.66-4.96-4.53-12.4-10.44-17.12-4.05-3.25-9.78-5.79-13.69-6.04Z"/>
                <path class="cls-20" d="M70.48,153.16c-.06-.08-.14-.18-.23-.26-1.64-1.63-4.87-1.27-7.39-.68-.66-1.22-1.6-3.34-1.81-6.13-.21-2.69.34-4.86.81-6.22.04-.13.09-.26.13-.37.28-.78,2.2-5.74,7.11-7.11,1.92-.54,3.71-.36,5.19.02.32.95.52,2.1.6,3.4.36,5.56-1.39,13.5-4.41,17.35Z"/>
              </g>
              <path class="cls-40" d="M97.7,124.03c-5.27,3.56-12.13,7.24-19.03,10.23-.58-.36-1.15-.65-1.74-.9-.67-.28-1.57-.66-2.64-.93-1.48-.38-3.27-.55-5.19-.02-4.91,1.37-6.82,6.33-7.11,7.11-.04.11-.09.24-.13.37-2.52.52-4.78.78-6.66.69.19-2.22.66-4.59,1.57-7.08.91-2.49,3.26-8.91,8.99-12.58,8.68-5.56,22.35-3.08,31.94,3.12Z"/>
            </g>
            <path class="cls-8" d="M85.42,180.32c-.55-.11-1.07-.22-1.56-.33-.41-.57-.36-1.29.08-1.73.33-.33.9-.52,1.28-.35.54.25.78,1.27.2,2.4Z"/>
            <path class="cls-8" d="M81.48,179.41c-.27-.06-.57-.14-.88-.22-.09-.05-.15-.1-.14-.13.01-.03.09-.03.12-.02.14,0,.34,0,.57.04.18.04.33.09.44.14.1.05.18.1.17.14-.01.04-.12.07-.28.05Z"/>
            <rect class="cls-31" x="80.98" y="176.34" width="3.1" height="9.94" rx="1.37" ry="1.37"/>
            <rect class="cls-43" x="78.69" y="183.91" width="7.68" height="7.24" rx="3.2" ry="3.2"/>
          </g>
          <g>
            <g>
              <g>
                <path class="cls-8" d="M192,179.43c4.95,2.49,11.31,1.81,15.88.89.09-1.27.35-2.19.65-2.25.29-.05.45.7.9,1.92.88-.2,1.65-.4,2.29-.56.03,0,.07-.02.09-.03,0-.04,0-.08,0-.12.29-.05.57-.12.84-.18,0,.03.02.04.03.07,1.23-.32,2.78-.77,4.51-1.45.22-.08.43-.17.65-.26.46-.19.93-.39,1.41-.61.76-.35,1.55-.75,2.34-1.19,2.31-1.28,4.7-2.98,6.94-5.27,6.16-6.27,7.53-13.25,8.57-18.46.6-3.04,1.37-6.9.98-11.38-1.88.08-4.14-.18-6.65-.69-.02-.06-.04-.12-.07-.19-.02-.06-.04-.12-.06-.16t0-.02c-.02-.05-.05-.12-.08-.2-.1-.27-.28-.7-.55-1.23,0-.02,0-.04-.03-.06h0c-.08-.17-.19-.36-.3-.55-.07-.11-.13-.22-.2-.33-.13-.22-.28-.45-.45-.69-.17-.23-.35-.47-.54-.7s-.4-.47-.62-.71c-.11-.12-.24-.23-.35-.35-.12-.11-.24-.22-.37-.33-.1-.1-.22-.19-.33-.28-.15-.12-.32-.24-.48-.36-.11-.08-.24-.16-.36-.23-.06-.04-.11-.08-.18-.12s-.12-.07-.19-.11c-.12-.07-.25-.14-.38-.21-.2-.1-.41-.19-.61-.28-.16-.07-.32-.13-.49-.2-.05-.02-.1-.04-.15-.05-.15-.04-.3-.09-.45-.13-1.91-.54-3.7-.36-5.18.02-.21.05-.4.11-.58.17-.12.04-.25.07-.36.11-.19.06-.37.12-.54.19-.11.04-.22.09-.32.12-.1.04-.2.08-.3.12h0c-.2.09-.38.16-.54.23-.15.06-.29.13-.44.2-.14.07-.28.14-.42.21h0c-.14.08-.28.15-.42.23-.14.09-.29.18-.44.27-6.89-2.99-13.75-6.67-19.02-10.23-1.69,1.09-3.24,2.29-4.63,3.59-15.9,14.86-12.39,45.07,1.03,51.82Z"/>
                <path class="cls-30" d="M231.32,139.5c-.01.11-.02.22-.02.33-.08,1.14-.16,2.29-.24,3.43-3.91.25-9.64,2.79-13.69,6.04-5.9,4.72-9.78,12.16-10.44,17.12-3.96.54-7.73.04-9.13-2.04-.75-1.11-.78-2.6,4.93-13.26,6.09-11.34,9.04-15.06,11.9-16.87.58-.36,1.15-.65,1.74-.9.67-.28,1.57-.66,2.64-.93,1.48-.38,3.27-.55,5.19-.02,4.91,1.37,6.83,6.33,7.11,7.11Z"/>
                <path class="cls-1" d="M231.06,143.27c-.22,2.98-.41,5.96-.62,8.95-2.53-.59-5.76-.95-7.39.68-.09.08-.17.18-.23.26-.82,1.02-.6,2.23-1.09,3.84-1.21,4.09-5.59,6.28-7.54,7.24-2.11,1.06-4.73,1.84-7.27,2.18.66-4.96,4.53-12.4,10.44-17.12,4.05-3.25,9.78-5.79,13.69-6.04Z"/>
                <path class="cls-20" d="M222.82,153.16c.06-.08.14-.18.23-.26,1.64-1.63,4.87-1.27,7.39-.68.66-1.22,1.6-3.34,1.81-6.13.21-2.69-.34-4.86-.81-6.22-.04-.13-.09-.26-.13-.37-.28-.78-2.2-5.74-7.11-7.11-1.92-.54-3.71-.36-5.19.02-.32.95-.52,2.1-.6,3.4-.36,5.56,1.39,13.5,4.41,17.35Z"/>
              </g>
              <path class="cls-40" d="M195.6,124.03c5.27,3.56,12.13,7.24,19.03,10.23.58-.36,1.15-.65,1.74-.9.67-.28,1.57-.66,2.64-.93,1.48-.38,3.27-.55,5.19-.02,4.91,1.37,6.82,6.33,7.11,7.11.04.11.09.24.13.37,2.52.52,4.78.78,6.66.69-.19-2.22-.66-4.59-1.57-7.08-.91-2.49-3.26-8.91-8.99-12.58-8.68-5.56-22.35-3.08-31.94,3.12Z"/>
            </g>
            <path class="cls-8" d="M207.88,180.32c.55-.11,1.07-.22,1.56-.33.41-.57.36-1.29-.08-1.73-.33-.33-.9-.52-1.28-.35-.54.25-.78,1.27-.2,2.4Z"/>
            <path class="cls-8" d="M211.82,179.41c.27-.06.57-.14.88-.22.09-.05.15-.1.14-.13-.01-.03-.09-.03-.12-.02-.14,0-.34,0-.57.04-.18.04-.33.09-.44.14-.1.05-.18.1-.17.14.01.04.12.07.28.05Z"/>
            <rect class="cls-51" x="210.65" y="176.5" width="3.1" height="9.94" rx="1.37" ry="1.37"/>
            <rect class="cls-27" x="208.36" y="184.07" width="7.68" height="7.24" rx="3.2" ry="3.2"/>
          </g>
          <path class="cls-39" d="M212.29,139.95c-.81,5.94-2.23,12.15-3.92,19.48-3.94,17.15-5.91,25.72-11.74,34.48,0,0-11.99,18.04-39.1,29.22-3.01,1.24-6.75,2.52-11.45,2.37-6.19-.2-10.72-2.79-15.91-6.06-15.56-9.78-23.34-14.67-27.93-21.05-1.89-2.62-3.74-5.77-8.66-21.32-5.63-17.8-8.45-26.7-9.77-35.53-.6-3.97-1.22-8.04-1.68-12.13-.48-4.27-.79-8.57-.76-12.84.02-1.53.08-3.06.19-4.57.39-5.35,1.45-10.59,3.57-15.58,1.05-2.49,2.37-4.92,3.99-7.27,7.81-11.3,22.39-15.53,47.89-19.56,7.82-1.24,16.67-2.46,26.69-3.86,2.38-.33,6.55-.78,11.49.41,3.85.92,6.59,2.48,8.9,3.81,1.85,1.06,6.4,3.72,10.44,8.39,3.58,4.14,5.29,8.16,6.42,11.18h0c.16.43.31.83.45,1.22,8.91,24.31,9.51,21.37,10.61,27.64.41,2.35.7,4.59.86,6.79.38,5.07.12,9.84-.57,14.8Z"/>
          <path class="cls-44" d="M214.52,144.12c-.84,5.94-2.31,12.15-4.05,19.48-4.07,17.14-6.12,25.72-12.14,34.48,0,0-12.4,18.04-40.44,29.22-3.1,1.24-6.98,2.52-11.84,2.37-6.4-.2-11.09-2.79-16.46-6.06-16.09-9.78-24.13-14.67-28.88-21.05-1.95-2.62-3.87-5.77-8.96-21.32-5.82-17.8-8.73-26.7-10.11-35.53-1.5-9.62-3.08-19.76-2.33-29.54.52-6.86,2.18-13.55,5.82-19.76-2.12,4.99-3.19,10.23-3.57,15.58-.73,9.78.8,19.92,2.25,29.54,1.33,8.83,4.15,17.73,9.77,35.53,4.92,15.55,6.78,18.7,8.66,21.32,4.59,6.39,12.37,11.27,27.93,21.05,5.19,3.27,9.72,5.85,15.91,6.06,4.7.15,8.45-1.13,11.45-2.37,27.11-11.18,39.1-29.22,39.1-29.22,5.83-8.76,7.8-17.33,11.74-34.48,1.69-7.33,3.11-13.54,3.92-19.48.98-7.1,1.08-13.81-.29-21.59-1.1-6.26-1.71-3.32-10.61-27.64-.14-.38-.29-.79-.45-1.21,1.06,2.04,1.74,3.89,2.31,5.38,9.21,24.31,9.83,21.37,10.97,27.64,1.42,7.77,1.32,14.49.3,21.59Z"/>
          <path class="cls-5" d="M212.86,125.15c-3.98-4.28-9-13.55-11.82-20.82-2.39-6.17-3.79-12.44-9.35-20.53-1.51-2.19-3.87-5.34-7.96-8.03-2.27-1.49-8.47-5.59-13.55-3.55-1.56.63-2.63,1.87-4.75,4.34-3.18,3.71-4.03,5.94-5.72,8.42-2.1,3.06-5.13,5.2-11.17,9.48-2.75,1.95-7.07,4.97-13.13,7.9-5.5,2.65-6.24,2.23-15.92,5.78-10.8,3.97-16.2,5.95-21.23,9.48-2.57,1.81-4.02,3.17-10.75,8.03-2.36,1.7-4.09,2.91-5.38,3.76-.48-4.27-.79-8.57-.76-12.84,1.08-2.46,2.33-4.95,3.63-7.24,11.06-19.45,31.24-32.86,52-39.74,7.82-1.24,16.67-2.46,26.69-3.86,2.38-.33,6.55-.78,11.49.41,3.85.92,6.59,2.48,8.9,3.81,1.85,1.06,6.4,3.72,10.44,8.39,3.58,4.14,5.29,8.16,6.42,11.18h0c.16.43.31.83.45,1.22,8.91,24.31,9.51,21.37,10.61,27.64.41,2.35.7,4.59.86,6.79Z"/>
          <g>
            <path class="cls-33" d="M139.9,122.79c-1.47-2.16-4.21-4.43-14.99-6.49-11.74-2.23-20.46-1.57-37.4-.13-6.79.57-10.67,1.1-12.64,3.92-.95,1.36-1.18,2.82.22,12.06,1.3,8.61,1.98,12.97,3.56,15.69,2.98,5.17,7.21,8.06,9.09,9.21,4.19,2.55,7.85,3.21,13.4,4.14,8.36,1.4,15.21,2.55,22.71-.5,1.9-.78,6.53-2.72,10.07-7.14,1.5-1.87,2.94-5.58,5.84-12.99,1.9-4.9,2.14-5.91,2.27-7.06.13-1.18.63-6.65-2.12-10.71ZM136.69,134.32c-.11.96-.31,1.82-1.92,5.95-2.43,6.25-3.65,9.37-4.91,10.94-2.99,3.73-6.89,5.37-8.49,6.02-6.33,2.57-12.09,1.6-19.14.41-4.67-.78-7.76-1.33-11.3-3.49-1.57-.96-5.14-3.4-7.66-7.75-1.33-2.3-1.9-5.97-3-13.24-1.18-7.78-.99-9.02-.19-10.16,1.67-2.38,4.95-2.82,10.66-3.3,14.28-1.2,21.62-1.77,31.52.12,9.09,1.73,11.4,3.65,12.63,5.47,2.32,3.42,1.9,8.02,1.79,9.03Z"/>
            <rect class="cls-33" x="140.83" y="124.46" width="7.74" height="8.17"/>
            <path class="cls-33" d="M155.12,133.5c.13,1.15.37,2.16,2.27,7.06,2.89,7.41,4.33,11.12,5.84,12.99,3.54,4.42,8.17,6.36,10.07,7.14,7.5,3.05,14.35,1.9,22.71.5,5.55-.93,9.21-1.59,13.4-4.14,1.88-1.15,6.1-4.04,9.09-9.21,1.57-2.73,2.26-7.08,3.56-15.69,1.4-9.24,1.18-10.7.22-12.06-1.97-2.82-5.86-3.35-12.64-3.92-16.94-1.44-25.66-2.1-37.4.13-10.78,2.06-13.52,4.33-14.99,6.49-2.75,4.07-2.25,9.53-2.12,10.71ZM162.23,125.29c1.24-1.82,3.55-3.74,12.63-5.47,9.9-1.89,17.24-1.32,31.52-.12,5.71.48,9,.92,10.66,3.3.8,1.15.98,2.38-.19,10.16-1.09,7.26-1.67,10.93-3,13.24-2.51,4.35-6.08,6.79-7.66,7.75-3.54,2.16-6.62,2.71-11.3,3.49-7.05,1.18-12.82,2.16-19.14-.41-1.6-.65-5.51-2.29-8.49-6.02-1.26-1.57-2.47-4.69-4.91-10.94-1.62-4.13-1.81-4.99-1.92-5.95-.11-1-.53-5.61,1.79-9.03Z"/>
            <rect class="cls-33" x="148.57" y="124.46" width="7.74" height="8.17" transform="translate(304.87 257.1) rotate(-180)"/>
          </g>
          <path class="cls-25" d="M95.46,113.04c.38.56,2.88-1.21,7.49-2.27,12.58-2.9,26.33,2.85,28.07,4,.09.06.53.36,1.15.44,1.21.17,2.65-.51,3.09-1.33,1.02-1.9-2.8-5.33-3.25-5.72-3.98-3.57-8.89-4.33-11.36-4.69-8.28-1.19-14.62,1.56-15.87,2.12-5.47,2.47-9.84,6.67-9.32,7.45Z"/>
          <path class="cls-36" d="M269.08,227.53c.06.22-.03.47-.24.74-.63.84-2.34,1.8-3.53,2.33-5.39,2.37-11.24.68-13.83-.1-5.47-1.66-8.34-4.17-8.9-3.55-.45.48,1.11,2.35,3.1,4.7.38.45.78.92,1.19,1.41,3.53,4.23,8.54,10.22,11.1,15.4,3.38,6.84,3.02,13.33,2.83,16.19-.08,1.02-1.39,17.71-10.16,20.14-3.08.85-7.28,0-8.06-1.87-.57-1.35.86-2.7,1.67-4.34,2.28-4.59-.79-10.22-3.87-15.5-7.32-12.55-9.74-14.76-13.51-21.52-5.11-9.14-8.26-14.78-7.75-21.92.37-5.33,2.5-7.33,6.3-12.76,1.58-2.28,3.47-5.16,5.64-9.15,4.99-9.16,10.21-18.75,9.95-30.8-.08-3.44-.57-11.07-4.61-19.35-1.16-2.37-2.32-4.2-12.31-16.64-11.4-14.19-11.23-13.47-12.81-16.1-3.01-4.99-7.06-16.58-9.6-22.4-2.03-4.66-4.04-9.27-8.5-14.1,0,0-4.11-4.44-13.53-10.15-1.08-.66-2.02-1.06-2.8-1.34-.71-.26-1.5-.48-2.38-.62,0,0-1.55-.26-3.2-.16-1.23.07-3.34.43-5.76,1.49-1.69.73-3.53,1.82-5.34,3.39-6.56,5.71-4.81,11-13.22,17.76-.44.36-.74.6-1.38,1.05-3.09,2.24-8.95,5.65-26.24,12.84-17.08,7.1-14.9,5.23-19.68,7.76-10.2,5.41-16.92,12.62-26.69,25.12-2.44,3.12-5.06,6.56-7.98,10.38-3.07,4.02-5.37,7.28-6.88,12.07-.52,1.64-2.83,9.43.31,21.32,1.43,5.42,3.1,8.3,4.88,10.83.57.8,1.14,1.57,1.73,2.37,1.67,2.32,3.41,4.92,5.13,9.51.35.93.69,1.95,1.04,3.06,3.47,11.17,2.88,19.68,2.41,23.59-.4,3.19-.59,2.31-1.06,5.83-1.46,11.16.7,18.54,1.37,28.13.07,1.01.25,3.97.74,8.19.03.29.03.28.03.31.07.88-.26,1.9-.93,2.98-2.5,4.1-9.65,9.02-17.02,10.19-2.86.46-5.74.36-8.4-.58-4.24-1.49-6.66-4.65-9.05-8.44-.42-.68-.85-1.38-1.28-2.09-5.69-9.35-5.5-18.56-5.31-21.59.34-5.49,2.47-10.58,6.7-20.53,5.83-13.72,9.55-18.66,8.38-19.48-.34-.23-1.06-.12-2,.31-2.89,1.3-7.83,5.46-9.94,11.08-.9,2.39-1.19,4.81-1.36,6.75-.22,2.37-.25,4.05-1.02,4.17-.22.04-.45-.07-.68-.27-.73-.6-1.43-2.09-1.76-2.75-.59-1.24-1.68-3.91-1.59-8.3h0c0-.71.06-1.45.13-2.24.67-6.74,3.75-14.37,6.28-16.32.17-.12.69-.5.63-.92-.13-.94-3.03-.9-5.1-1.64-5.57-2.01-7.59-10.52-6.84-10.93.25-.13.71.67,2.52,2.04.29.21,2.86,2.13,5.17,2.89,4.59,1.5,9.42-1.17,10.61-1.84,1.03-.57,4.46-2.48,6.13-5.65.35-.65.62-1.36.78-2.11.58-2.69-.59-4.37-2.58-7.87-.39-.68-.8-1.42-1.23-2.26-.12-.22-.24-.46-.37-.7-7.33-14.32-7.73-28.45-7.64-29.8,0-.1.03-.46-.06-.94-.03-.17-.08-.33-.12-.49h0c-.15-.46-.38-.85-.61-1.18-.49-.68-1.05-1.1-1.15-1.19-6.13-5.08,2.29-30.55,2.29-30.55,8.26-24.99,4.45-19.85,9.63-32.5,7.54-18.42,14.05-34.28,29.88-49.22,0,0,23.58-22.23,57.78-27.41,10.64-1.61,18.69-1,26.11,1.55,1.93.67,4.49,1.55,7.13,2.83h0c4.12,2,8.45,5,10.95,9.74.23.43.43.85.61,1.29,2.43,5.54,2.22,11.7,3.79,11.74.75.02.99-1.45,2.16-2.67.86-.89,2-1.44,3.28-1.74,4.02-.97,9.31.41,10.9.82,15.57,4.03,29.39,30.34,29.39,30.34,8.71,24.95,15.69,46.06,20.95,62.32,3.34,10.35,5.28,16.54,5.9,25.53.9,12.97,2.34,33.85-10.79,47.38-4.02,4.15-9.72,7.92-11.34,12.62-.38,1.09-.53,2.25-.39,3.46.03.25.07.49.12.73.59,2.87,2.6,5.39,3.22,6.18,1.03,1.28,2.42,2.67,9.85,7.11,4.7,2.81,7.06,4.22,8.27,4.64,5.87,2.03,10.91,1.12,12.72,1.51.39.07.63.21.7.46Z"/>
          <path class="cls-18" d="M76.54,116.73c1.07-4.78,4.24-8.72,13.62-15.6,9.47-6.95,12.44-7.47,21.58-14.21,4.04-2.98,2.23-1.97,11.1-9.08,18.44-14.78,18.05-18.07,24.72-20.93,12.37-5.3,27.05-2.29,27.37,0,.22,1.53-5.99,2.49-13.96,5.92-21.59,9.29-18.51,22.77-41.68,34.15-13.94,6.85-19.49,7.51-28.14,15.2-6.25,5.57-11.47,12.45-13.91,11.28-1.95-.93-.77-6.34-.68-6.74Z"/>
          <path class="cls-37" d="M74.66,270.77c.03.29.03.28.03.31.07.88-.26,1.9-.93,2.98-2.5,4.1-9.65,9.02-17.02,10.19-2.86.46-5.74.36-8.4-.58-4.24-1.49-6.66-4.65-9.05-8.44-.42-.68-.85-1.38-1.28-2.09-5.69-9.35-5.5-18.56-5.31-21.59.34-5.49,2.47-10.58,6.7-20.53,5.83-13.72,9.55-18.66,8.38-19.48-.34-.23-1.06-.12-2,.31-2.89,1.3-7.83,5.46-9.94,11.08-.9,2.39-1.19,4.81-1.36,6.75-.22,2.37-.25,4.05-1.02,4.17-.22.04-.45-.07-.68-.27-.73-.6-1.43-2.09-1.76-2.75-.59-1.24-1.68-3.91-1.59-8.3h0c0-.71.06-1.45.13-2.24.67-6.74,3.75-14.37,6.28-16.32.17-.12.69-.5.63-.92-.13-.94-3.03-.9-5.1-1.64-5.57-2.01-7.59-10.52-6.84-10.93.25-.13.71.67,2.52,2.04.29.21,2.86,2.13,5.17,2.89,4.59,1.5,9.42-1.17,10.61-1.84,1.03-.57,4.46-2.48,6.13-5.65,1.45,1.57,4.4,4.33,9.07,6.13,3.77,1.45,7.13,1.69,9.21,1.69,1.99,3.73,3.22,6.97,3.98,9.28,0,0,3.91,11.53,2.41,23.59-.4,3.19-.59,2.31-1.06,5.83-1.46,11.16.7,18.54,1.37,28.13.07,1.01.25,3.97.74,8.19Z"/>
          <path class="cls-37" d="M268.85,228.27c-.63.84-2.34,1.8-3.53,2.33-5.39,2.37-11.24.68-13.83-.1-5.47-1.66-8.34-4.17-8.9-3.55-.45.48,1.11,2.35,3.1,4.7.38.45.78.92,1.19,1.41,3.53,4.23,8.54,10.22,11.1,15.4,3.38,6.84,3.02,13.33,2.83,16.19-.08,1.02-1.39,17.71-10.16,20.14-3.08.85-7.28,0-8.06-1.87-.57-1.35.86-2.7,1.67-4.34,2.28-4.59-.79-10.22-3.87-15.5-7.32-12.55-9.74-14.76-13.51-21.52-5.11-9.14-8.26-14.78-7.75-21.92.37-5.33,2.5-7.33,6.3-12.76,3.12-1.55,6.15-2.75,9.17-3.44-.38,1.09-.53,2.25-.39,3.46.03.25.07.49.12.73.59,2.87,2.6,5.39,3.22,6.18,1.03,1.28,2.42,2.67,9.85,7.11,4.7,2.81,7.06,4.22,8.27,4.64,5.87,2.03,10.91,1.12,12.72,1.51.16.4.31.79.46,1.2Z"/>
          <path class="cls-25" d="M203.07,113.04c-.38.56-2.88-1.21-7.49-2.27-12.58-2.9-26.33,2.85-28.07,4-.09.06-.53.36-1.15.44-1.21.17-2.65-.51-3.09-1.33-1.02-1.9,2.8-5.33,3.25-5.72,3.98-3.57,8.89-4.33,11.36-4.69,8.28-1.19,14.62,1.56,15.87,2.12,5.47,2.47,9.84,6.67,9.32,7.45Z"/>
          <path class="cls-50" d="M98.12,30.59c.24.61,2.14.52,12.56-.79,10.38-1.31,13.29-1.82,13.4-1.45.28.92-17.34,3.18-33.1,13.29-13.14,8.44-19.8,19.03-28.21,32.38-6.96,11.06-14.35,22.8-18.71,39.88-3.02,11.81-3.68,22.63-6.97,28.68-.49-.68-1.05-1.1-1.15-1.19-6.13-5.08,2.29-30.55,2.29-30.55,8.26-24.99,4.45-19.85,9.63-32.5,7.54-18.42,14.05-34.28,29.88-49.22,0,0,23.58-22.23,57.78-27.41,10.64-1.61,18.69-1,26.11,1.55,1.93.67,4.49,1.55,7.13,2.83-8.88.99-27.18,3.67-44.13,10.16-5.73,2.19-9.44,4.11-15.5,7.24-5.81,2.99-11.47,5.95-11.03,7.11Z"/>
          <path class="cls-34" d="M215.84,42.95c-.07.3-3.64-.8-9.21-.52-2.62.13-8.33.43-13.83,3.42-8.66,4.73-12.75,14.01-13.13,14.87-1.02,2.41-1.47,4.37-2.66,5.95-.05.06-.09.12-.15.19-.71-.26-1.5-.48-2.38-.62,0,0-1.55-.26-3.2-.16-1.23.07-3.34.43-5.76,1.49-1.68-2.87-.76-7.66,1.73-9.74,2.07-1.73,4.56-1.02,5.45-2.77.68-1.33-.21-2.89-1.68-5.53-5.27-9.43-4.74-8.79-5.17-9.35-.75-.95-8.19-10.17-20.67-11.97-6.69-.96-12.07.61-12.15.13-.08-.44,4.39-1.98,9.36-2.24,9.12-.47,16.12,3.54,17.46,4.34,10.88,6.48,13.49,17.48,15.22,16.84,1.32-.48-.03-7.03-1.54-11.45-1.11-3.23-3.01-8.79-7.97-13.55-6.98-6.71-15.62-7.6-15.36-8.43.21-.68,6.16-.43,11.87,2.11,1.61.72,8.38,3.92,12.42,11.19,3.19,5.71,2.96,10.82,3.63,10.79,1.23-.06-.72-16.74,2.22-20.86,2.43,5.54,2.22,11.7,3.79,11.74.75.02.99-1.45,2.16-2.67.86-.89,2-1.44,3.28-1.74.63,1.61,1.06,3.35,1.12,5.09.03.84.23,8.08-4.61,11.98-1.57,1.26-3.6,2.11-4.75,4.6-.73,1.58-1.07,3.78-.27,4.21,1.05.58,3.2-2.37,7.26-5.13,1.21-.82,5.83-3.9,11.73-4.87,8.47-1.38,15.88,2.19,15.78,2.63Z"/>
          <path class="cls-10" d="M54.3,106.58c-.94,1.52-12.49,20.23-9.78,22.11.3.2.79.23,1.61-.09-.2.41-.31.69-.49,1.18-2.35,6.34-3.04,12.99-1.39,28.43.78,7.36,1.73,13.22,2.52,17.6.13.76.25,1.47.38,2.13-.39-.68-.8-1.42-1.23-2.26-.12-.22-.24-.46-.37-.7-7.33-14.32-7.73-28.45-7.64-29.8,0-.1.03-.46-.06-.94-.03-.17-.08-.33-.12-.49h0c.22-1.55.49-3.04.8-4.49,0,0,0-.02,0-.03,0,0,0-.03,0-.04.46-2.19,1.02-4.29,1.63-6.26t0-.02c2.39-7.72,5.6-13.69,7.42-17.09,4.35-8.08,9.61-14.92,11.5-16.51-1.56,2.24-3.19,4.66-4.8,7.26Z"/>
          <path class="cls-10" d="M88.1,47.53c.31,2.47,4.52,2.72,9.5,7.63.39.39,1.28,1.29,2.65,2.37,2.26,1.78,4.24,2.78,4.47,2.9,5.96,2.93,24.42-10.49,23.18-12.5-.41-.67-2.52.69-6.7,0-3.52-.58-5.99-2.19-6.84-2.76-5.11-3.41-4.86-7.18-8.38-8.03-1.67-.4-3.23.25-6.28,1.58-3.69,1.6-12.05,5.23-11.59,8.82Z"/>
          <path class="cls-26" d="M174.47,66.23c-2.59-.32-5.28-.25-7.5.68-.58.24-1.08.53-1.41.73-.24.15-.38.25-.38.25-3.01,2.1-3.7,5.44-4.08,6.12-3.35,6.16-7.74,9.63-14.14,14.7-2.82,2.24-7.4,5.49-27.62,13.88-17.08,7.1-14.9,5.23-19.68,7.76-10.2,5.41-16.92,12.62-26.69,25.12.39-2.07,1.13-5.12,2.61-8.6,5.42-12.74,16-19.92,23.55-24.91,9.19-6.07,10.24-5.32,25.54-14.14,3.4-1.96,7.22-4.43,11.75-7.84,5.74-4.32,10.95-8.72,19.27-15.93,5.91-5.12,9.24-8.14,12.11-7.16,1.78.61,2.71,2.52,3.21,4.08,1.15,1.75,2.31,3.49,3.46,5.24Z"/>
          <path class="cls-10" d="M111.56,63.16c3.39,4.08,6.8,6.12,9.36,7.24,3.16,1.38,4.47,1.1,7.4,2.9,4.35,2.66,4.58,5.18,6.98,5.26,2.05.07,2.49-1.74,7.4-5.53,4.18-3.23,5.93-3.52,5.87-4.74-.08-1.59-3.07-1.82-11.45-5.92-4.35-2.13-6.09-3.31-7.68-4.87-1.81-1.78-1.92-2.55-2.93-3.03-2-.94-6.02,0-14.94,8.69Z"/>
          <path class="cls-10" d="M191.09,64.08c6.58-5.17,10.19-6.61,12.29-6.91.57-.08,2.07-.22,3.56-1.18,1.85-1.19,1.83-2.43,2.93-3.03,2.95-1.59,10.73,3.1,10.19,6.32-.27,1.59-2.46,2.17-6.98,4.01-3.56,1.45-8.66,3.71-14.73,7.11-2.42-2.11-4.84-4.21-7.26-6.32Z"/>
          <path class="cls-2" d="M73.75,274.05c-2.5,4.1-9.65,9.02-17.02,10.19.27-3.64.82-8.92.96-16.54.27-14.41-1.15-21.55.52-21.91,1.43-.3,2.88,4.84,9.75,17.67,2.87,5.37,4.73,8.41,5.8,10.59Z"/>
          <path class="cls-37" d="M32.78,233.58c.5-1.31,1.07-2.6,1.7-3.9-.22,2.37-.25,4.05-1.02,4.17-.22.04-.45-.07-.68-.27Z"/>
          <path class="cls-50" d="M65.03,192.47c-2.63,5.37-7.93,15.15-13.8,28.84-6.27,14.62-9.67,22.71-11.21,34.35-1.23,9.3-.66,16.19-.74,19.56-.42-.68-.85-1.38-1.28-2.09-5.69-9.35-5.5-18.56-5.31-21.59.34-5.49,2.47-10.58,6.7-20.53,5.83-13.72,9.55-18.66,8.38-19.48-.34-.23-1.06-.12-2,.31,2.72-3.63,5.7-7.45,8.91-11.56,1.14-1.45,5.46-6.93,8.62-10.2.57.8,1.14,1.57,1.73,2.37Z"/>
          <path class="cls-50" d="M57.62,193.48c-.07,2.78-3.81,4.64-6.17,6.02-9.53,5.56-17.55,15.5-22.02,23.02,0-.7.06-1.44.13-2.23.67-6.74,3.75-14.37,6.28-16.32.17-.12.69-.5.63-.92-.13-.94-3.03-.9-5.1-1.64-5.57-2.01-7.59-10.52-6.84-10.93.25-.13.71.67,2.52,2.04.29.21,2.86,2.13,5.17,2.89,4.59,1.5,9.42-1.17,10.61-1.84,1.23-.68,5.97-3.31,6.91-7.76.58-2.69-.59-4.37-2.58-7.87-.39-.68-.8-1.42-1.23-2.26.3,0,.59.05.86.12.33.09.63.21.9.39.59.39.61.72,1.68,2.87,1.6,3.24,3.93,7.3,6.07,10.46,1.71,2.52,2.22,2.9,2.2,3.95Z"/>
          <path class="cls-10" d="M50.67,119.38c-3.19,6.62-4.08,8.27-4.53,9.22-.82.32-1.31.29-1.61.09-2.71-1.88,8.83-20.59,9.78-22.11,1.61-2.59,3.23-5.02,4.8-7.26,0,0,0,0,.02,0,.31-.27.53-.38.63-.33.61.32-2.62,7.01-9.08,20.4Z"/>
          <path class="cls-50" d="M93.27,71.58c-10.25,11.53-23.88,28.21-38.26,50.4-4.66,4.18-7.33,6.01-8.87,6.62.45-.95,1.35-2.6,4.53-9.22,6.46-13.39,9.69-20.08,9.08-20.4-.1-.05-.32.06-.63.33,6.16-8.77,11.72-14.76,14.04-17.21,16.02-16.88,34.8-30.19,36.04-28.95.8.8-6.17,7.45-15.92,18.42Z"/>
          <path class="cls-2" d="M265.31,230.6c-5.39,2.37-11.24.68-13.83-.1-5.47-1.66-8.34-4.17-8.9-3.55-.45.48,1.11,2.35,3.1,4.7-.98-.43-1.81-.92-2.61-1.56-5.83-4.73-8.17-14.63-11.75-14.74-.32,0-1.35.04-1.68-.5-.36-.6.39-1.61.74-2.07,1.58-2.09,2.87-3.78,3.95-5.14.59,2.87,2.6,5.39,3.22,6.18,1.03,1.28,2.42,2.67,9.85,7.11,4.7,2.81,7.06,4.22,8.27,4.64,7.14,2.47,13.03.59,13.41,1.97.25.92-2.21,2.37-3.77,3.06Z"/>
          <path class="cls-34" d="M209.35,97.07c-.59.67,7.02,5.09,11.94,15.4,1.8,3.78,1.46,4.62,3.56,8.09,2.84,4.7,4.86,5.47,8.59,11.05,2.86,4.28,3.93,7.21,4.19,7.11.41-.16-2.3-7.18-5.87-16.39-2.56-6.6-3.85-9.92-4.4-10.86-6.08-10.27-17.33-15.18-18.01-14.41Z"/>
          <g>
            <path class="cls-35" d="M131.64,145.88c-1.55,4.25-7.38,5.71-11.9,6.84-3.87.96-9.65,2.4-15.95,0-5.41-2.06-11.69-7.12-12.49-12.87-.12-.8-.12-1.62,0-2.45.69-4.65,5.06-7.56,7.26-9.02,1.31-.88,6.4-4.16,13.35-3.56,9.11.79,14.12,7.62,15.96,10.12.63.85,1.3,1.78,1.94,2.77,1.6,2.51,2.84,5.38,1.83,8.17Z"/>
            <path class="cls-22" d="M129.81,137.72c-.64-.99-1.31-1.92-1.94-2.77-1.84-2.5-6.85-9.33-15.96-10.12-6.94-.6-12.03,2.69-13.35,3.56-2.19,1.46-6.57,4.37-7.26,9.02-.12.82-.12,1.64,0,2.45-2.92-1.71-5.11-3.55-6.64-5,3.65-5.99,8.14-9.31,10.74-10.95,3.01-1.88,12.9-8.07,22.31-4.4,4.55,1.77,7.07,5.11,8.05,6.46.49.67,4.81,6.71,4.04,11.76Z"/>
            <path class="cls-11" d="M105.4,124.18c-5.68,2.69-6.49,9-6.82,11.55-.13,1.03-.58,5.25,1.74,9.91,1.08,2.18,2.73,5.48,6.6,7.25,4.08,1.86,9.35,1.44,12.98-1.09,6.36-4.43,4.81-13.32,4.35-15.93-.47-2.69-1.2-6.87-5.08-9.84-3.44-2.64-9.05-4.09-13.78-1.85Z"/>
            <ellipse class="cls-10" cx="106.63" cy="132.58" rx="1.81" ry="2.46"/>
          </g>
          <g>
            <path class="cls-35" d="M164.52,145.88c1.55,4.25,7.38,5.71,11.9,6.84,3.87.96,9.65,2.4,15.95,0,5.41-2.06,11.69-7.12,12.49-12.87.12-.8.12-1.62,0-2.45-.69-4.65-5.06-7.56-7.26-9.02-1.31-.88-6.4-4.16-13.35-3.56-9.11.79-14.12,7.62-15.96,10.12-.63.85-1.3,1.78-1.94,2.77-1.6,2.51-2.84,5.38-1.83,8.17Z"/>
            <path class="cls-22" d="M166.35,137.72c.64-.99,1.31-1.92,1.94-2.77,1.84-2.5,6.85-9.33,15.96-10.12,6.94-.6,12.03,2.69,13.35,3.56,2.19,1.46,6.57,4.37,7.26,9.02.12.82.12,1.64,0,2.45,2.92-1.71,5.11-3.55,6.64-5-3.65-5.99-8.14-9.31-10.74-10.95-3.01-1.88-12.9-8.07-22.31-4.4-4.55,1.77-7.07,5.11-8.05,6.46-.49.67-4.81,6.71-4.04,11.76Z"/>
            <path class="cls-16" d="M190.76,124.18c5.68,2.69,6.49,9,6.82,11.55.13,1.03.58,5.25-1.74,9.91-1.08,2.18-2.73,5.48-6.6,7.25-4.08,1.86-9.35,1.44-12.98-1.09-6.36-4.43-4.81-13.32-4.35-15.93.47-2.69,1.2-6.87,5.08-9.84,3.44-2.64,9.05-4.09,13.78-1.85Z"/>
            <ellipse class="cls-10" cx="189.52" cy="132.58" rx="1.81" ry="2.46"/>
          </g>
          <g>
            <path class="cls-47" d="M148.33,133.76v11.97c-1.89-.13-3.88-.81-5.38-1.96.51-3.42.76-7.22,1.78-8.67.53-.76,1.26-1.09,1.26-1.09.24-.09.56-.19.93-.25.58-.09,1.07-.04,1.4,0Z"/>
            <path class="cls-42" d="M148.39,155.97h-.07c-3.24-.09-6.54-1.08-8.52-3.04.02-.04.05-.08.07-.12.95-1.84,2-3.83,2.61-6.47.19-.8.34-1.67.47-2.58,1.5,1.15,3.49,1.83,5.37,1.96h0v6.7s0,.09,0,.25c0,.6.05,2.18.07,3.3Z"/>
            <g>
              <path class="cls-3" d="M148.33,157.21v21.55h0c-2.2-.24-4.96-.89-7.73-2.47-1.99-1.13-4.42-2.52-5.34-5.13-.33-.93-.25-2.25-.06-4.84.25-3.5.38-5.24.94-6.96.89-2.67,1.73-2.77,3.66-6.44.6.6,1.04,2.78,1.84,3.2,1.56-1.25,4.26,1.04,6.68,1.08h0Z"/>
              <path class="cls-3" d="M161.4,171.17c-.91,2.6-3.35,4-5.34,5.13-2.77,1.58-5.53,2.23-7.73,2.47h0v-21.55h0v.05c.21-.05,2.96-.87,3.04-.87,2.69.58,2.15-.91,2.97-1.35.8-.42,1.9-1.52,2.51-2.11,1.92,3.67,2.77,3.77,3.66,6.44.57,1.71.69,3.46.94,6.96.19,2.59.27,3.91-.06,4.84Z"/>
              <path class="cls-3" d="M148.32,155.97v1.24c-2.42-.04-5.13-2.34-6.68-1.08-.8-.42-1.23-2.6-1.84-3.2,1.98,1.95,5.28,2.95,8.52,3.04Z"/>
              <path class="cls-3" d="M156.85,152.93c-.6.6-1.71,1.7-2.51,2.11-.82.44-.28,1.93-2.97,1.35-.09,0-2.84.82-3.04.87v-.05h.07s0-.53,0-1.24c3.22-.11,6.49-1.09,8.47-3.04Z"/>
              <path class="cls-3" d="M148.4,157.21h-.07v-1.24h.06c.02.71.03,1.24,0,1.24Z"/>
            </g>
            <path class="cls-42" d="M156.85,152.93c-1.97,1.95-5.24,2.93-8.47,3.04h-.07v-10.24h0c1.89-.13,3.87-.81,5.37-1.96.13.91.28,1.78.47,2.58.61,2.64,1.66,4.63,2.61,6.47.02.04.05.09.07.12Z"/>
            <path class="cls-6" d="M159.27,170.27c-.1-.64-1.7-.89-2.51-.92-2.47-.09-4.98,1.72-4.8,2.96,0,.07.05.32.26.53,1.33,1.29,7.26-1.28,7.05-2.57Z"/>
            <path class="cls-6" d="M137.38,170.27c.1-.64,1.7-.89,2.51-.92,2.47-.09,4.98,1.72,4.8,2.96,0,.07-.05.32-.26.53-1.33,1.29-7.26-1.28-7.05-2.57Z"/>
            <path class="cls-47" d="M148.32,133.76v11.97c1.89-.13,3.88-.81,5.38-1.96-.51-3.42-.76-7.22-1.78-8.67-.53-.76-1.26-1.09-1.26-1.09-.24-.09-.56-.19-.93-.25-.58-.09-1.07-.04-1.4,0Z"/>
            <path class="cls-49" d="M155.44,162.76c-1.55,1.86-4.24,3.08-7.3,3.08-3.27,0-6.13-1.4-7.61-3.48,1.14-1.32,3.99-2.25,7.31-2.25,3.65,0,6.72,1.13,7.6,2.65Z"/>
          </g>
          <g>
            <g>
              <path class="cls-53" d="M148.29,209.31c-1.26.05-3.04.07-5.15-.09-2.59-.2-4.58-.34-6.7-1.15-2.18-.84-3.43-1.89-5.27-3.47-2.04-1.74-1.66-2.01-3.25-3.47-.3-.27-1-.89-1.11-1.77-.01-.11-.02-.21-.01-.3,0-.08,0-.15.01-.2,1.33-1.41,5.06-5.23,9.76-7.83.38-.21.76-.42,1.16-.61,3.4-1.67,5.26-1.64,6.16-1.51,1.49.22,3.03.74,3.03.74.59.21,1.06.42,1.38.58v.72c0,2.95,0,5.9,0,8.86,0,3.16,0,6.32,0,9.49Z"/>
              <path class="cls-48" d="M148.28,201.49v-1.67c-1.25-.04-2.6-.04-4.04-.04-5.66,0-6.77.93-11.3.54-.42-.04-.82-.08-1.2-.13.25-.19,1.27-.31,2.67-.91,1.68-.72,1.51-1.11,3.12-1.87.13-.06.32-.15.56-.25.19.26.55.52.96.62.05.01.52.02,1.46.02.35,0,.57,0,.75-.1.27-.15.29-.41.35-.4.03,0,.05.09,0,.51.25.12.5.24.76.36,1.78,0,3.56.02,5.34.02.15-.07.31-.14.46-.2,0-.53-.02-1.05-.03-1.57.05,0,.11,0,.16,0,0,1.69,0,3.38,0,5.06h0Z"/>
              <path class="cls-15" d="M148.34,197.99c-.16.07-.31.13-.47.2-1.81,0-3.62-.02-5.43-.02-.26-.12-.51-.24-.77-.36.05-.42.03-.5,0-.51-.05,0-.07.26-.35.4-.19.1-.41.11-.77.1-.96,0-1.44-.01-1.49-.02-.42-.11-.78-.37-.98-.62.79-.33,2.12-.79,3.81-.94.65-.06,1.67-.02,3.71.07,1.11.05,2.04.09,2.71.13.01.52.02,1.05.03,1.57Z"/>
              <path class="cls-48" d="M148.28,199.82v1.67c.01.85.03,1.69.04,2.54-1.47-.21-2.73-.38-3.73-.51-2.76-.36-4.13-.54-4.66-.57-1.18-.07-1.94-.04-3.17-.33-.7-.16-1.17-.33-1.96-.63-.89-.33-3.24-1.19-3.13-1.7.01-.05.04-.08.06-.1.38.05.78.09,1.2.13,4.54.39,5.64-.54,11.3-.54,1.44,0,2.79,0,4.04.04Z"/>
              <path class="cls-19" d="M148.29,209.31c-1.26.05-3.04.07-5.15-.09-2.59-.2-4.58-.34-6.7-1.15-2.18-.84-3.43-1.89-5.27-3.47-2.04-1.74-1.66-2.01-3.25-3.47-.3-.27-1-.89-1.11-1.77-.01-.11-.02-.21-.01-.3,1.1.33,2.61.84,4.96,1.14-.03.02-.06.06-.06.1-.01.28,1.18.61,4.37,1.1,2.76.43,4.87.64,5.92.75,1.52.16,3.71.4,6.4.75-.04.82-.06,1.65-.08,2.5-.03,1.34-.02,2.64,0,3.91Z"/>
              <path class="cls-32" d="M148.28,190.25v.72c-.74-.16-1.64-.36-2.73-.61-.95-.22-1.86-.44-3.09-.36-1.06.06-1.82.32-2.1.4-1.05.33-2.46.53-3.81.63.38-.21.76-.42,1.16-.61,3.4-1.67,5.26-1.64,6.16-1.51,1.49.22,3.03.74,3.03.74.59.21,1.06.42,1.38.58Z"/>
            </g>
            <g>
              <path class="cls-53" d="M148.2,209.31c1.26.05,3.04.07,5.15-.09,2.59-.2,4.58-.34,6.7-1.15,2.18-.84,3.43-1.89,5.27-3.47,2.04-1.74,1.66-2.01,3.25-3.47.3-.27,1-.89,1.11-1.77.01-.11.02-.21.01-.3,0-.08,0-.15-.01-.2-1.33-1.41-5.06-5.23-9.76-7.83-.38-.21-.76-.42-1.16-.61-3.4-1.67-5.26-1.64-6.16-1.51-1.49.22-3.03.74-3.03.74-.59.21-1.06.42-1.38.58v.72c0,2.95,0,5.9,0,8.86,0,3.16,0,6.32,0,9.49Z"/>
              <path class="cls-48" d="M148.2,201.49v-1.67c1.25-.04,2.6-.04,4.04-.04,5.66,0,6.77.93,11.3.54.42-.04.82-.08,1.2-.13-.25-.19-1.27-.31-2.67-.91-1.68-.72-1.51-1.11-3.12-1.87-.13-.06-.32-.15-.56-.25-.19.26-.55.52-.96.62-.05.01-.52.02-1.46.02-.35,0-.57,0-.75-.1-.27-.15-.29-.41-.35-.4-.03,0-.05.09,0,.51-.25.12-.5.24-.76.36-1.78,0-3.56.02-5.34.02-.15-.07-.31-.14-.46-.2,0-.53.02-1.05.03-1.57-.05,0-.11,0-.16,0,0,1.69,0,3.38,0,5.06h0Z"/>
              <path class="cls-15" d="M148.14,197.99c.16.07.31.13.47.2,1.81,0,3.62-.02,5.43-.02.26-.12.51-.24.77-.36-.05-.42-.03-.5,0-.51.05,0,.07.26.35.4.19.1.41.11.77.1.96,0,1.44-.01,1.49-.02.42-.11.78-.37.98-.62-.79-.33-2.12-.79-3.81-.94-.65-.06-1.67-.02-3.71.07-1.11.05-2.04.09-2.71.13-.01.52-.02,1.05-.03,1.57Z"/>
              <path class="cls-48" d="M148.2,199.82v1.67c-.01.85-.03,1.69-.04,2.54,1.47-.21,2.73-.38,3.73-.51,2.76-.36,4.13-.54,4.66-.57,1.18-.07,1.94-.04,3.17-.33.7-.16,1.17-.33,1.96-.63.89-.33,3.24-1.19,3.13-1.7-.01-.05-.04-.08-.06-.1-.38.05-.78.09-1.2.13-4.54.39-5.64-.54-11.3-.54-1.44,0-2.79,0-4.04.04Z"/>
              <path class="cls-19" d="M148.2,209.31c1.26.05,3.04.07,5.15-.09,2.59-.2,4.58-.34,6.7-1.15,2.18-.84,3.43-1.89,5.27-3.47,2.04-1.74,1.66-2.01,3.25-3.47.3-.27,1-.89,1.11-1.77.01-.11.02-.21.01-.3-1.1.33-2.61.84-4.96,1.14.03.02.06.06.06.1.01.28-1.18.61-4.37,1.1-2.76.43-4.87.64-5.92.75-1.52.16-3.71.4-6.4.75.04.82.06,1.65.08,2.5.03,1.34.02,2.64,0,3.91Z"/>
              <path class="cls-32" d="M148.2,190.25v.72c.74-.16,1.64-.36,2.73-.61.95-.22,1.86-.44,3.09-.36,1.06.06,1.82.32,2.1.4,1.05.33,2.46.53,3.81.63-.38-.21-.76-.42-1.16-.61-3.4-1.67-5.26-1.64-6.16-1.51-1.49.22-3.03.74-3.03.74-.59.21-1.06.42-1.38.58Z"/>
            </g>
          </g>
        </g>
        <path class="cls-28" d="M92.27,273.21h0c0,.63-.01,1.26-.02,1.9-.06,2.65-.22,5.55-.48,8.6h0c-.08,1.03-.17,2.07-.28,3.14l-.2,1.79c-.08.75-.17,1.5-.25,2.26h0c-.01.18-.03.34-.06.51-.48,4.02-1.08,8.24-1.81,12.6h0c-.62,3.76-1.34,7.59-2.12,11.48h0c-.46,2.31-.96,4.65-1.47,6.98-.04.24-.1.48-.15.72h0c-1.19,5.31-2.52,10.66-3.93,15.89-.01.02-.01.06-.02.08-.21.77-.43,1.55-.65,2.32-.54,1.95-1.09,3.89-1.67,5.8-.8,2.63-1.61,5.18-2.43,7.7h0c-.44,1.33-.88,2.63-1.35,3.91h0c-.17.49-.33.95-.51,1.41h0c-1.26,3.52-2.56,6.87-3.9,10.02-1.34,3.15-2.71,6.08-4.1,8.74-.01,0-.01.01-.01.01-.14.3-.3.6-.45.87-1.37,2.55-2.76,4.84-4.18,6.83-1.15,1.62-2.31,3.04-3.47,4.21-.49.48-1.31,1.28-2.44,2.4h0c-.12.13-.25.27-.39.41-.14.13-.29.28-.42.42-4.24,4.3-11.55,12.17-18.82,23.1-3.29,4.94-3.5,5.9-4.84,7.42h-4.57c-.38,0-.75-.01-1.13-.02-2.58-.11-5.08-.57-7.43-1.36-.02-.01-.04-.02-.07-.02-.87-.29-1.72-.63-2.56-1.01t-.02-.01c-.32-.14-.63-.31-.94-.46-.22-.12-.44-.24-.66-.36-.07-.02-.12-.06-.18-.1-.89-.49-1.78-1.01-2.61-1.59-.13-.09-.26-.18-.4-.28-4.46-3.24-7.92-7.8-9.78-13.09-.98-2.79-1.51-5.8-1.51-8.92v-16.39c1.28-2.02,2.54-4,3.74-5.94.74-1.18,1.47-2.35,2.19-3.5,2.21-3.57,4.32-7,6.32-10.29,4.32-7.09,8.2-13.61,11.43-19.61,1.82-3.38,3.44-6.59,4.82-9.65,2.55-5.66,4.3-10.77,5-15.41.04-.3.09-.59.12-.87.36-2.93,1.1-5.82,1.92-8.7.17-.62.35-1.25.52-1.87.1-.33.2-.66.29-.98.12-.44.25-.88.36-1.31.04-.14.09-.28.12-.42.1-.38.21-.75.3-1.13.09-.32.18-.65.25-.98.04-.19.09-.38.14-.56.03-.12.07-.25.09-.38.1-.42.19-.83.28-1.25.12-.59.24-1.17.34-1.76.06-.3.1-.6.14-.88.12-.87.22-1.76.29-2.63.01-.3.03-.6.04-.88.03-.98.01-1.98-.08-2.97-.01-.02-.01-.06,0-.09-.01-.1-.02-.24-.02-.41-.01-.28-.01-.64.04-1.03.01-.09.02-.18.04-.27.1-.51.29-1.05.63-1.55.09-.12.18-.24.29-.35h.01c.22-.24.47-.43.71-.56.5-.31.94-.44,1.1-.49.07-.01.14-.04.22-.07.14-.04.32-.11.5-.17.45-.18.98-.39,1.6-.65.22-.09.44-.19.68-.3.45-.2.95-.42,1.48-.66l.07-.03s.1-.04.14-.06h0c.19-.09.38-.18.57-.28.38-.18.77-.36,1.17-.55.1-.06.19-.1.3-.14.17-.08.33-.15.51-.24.15-.08.31-.15.48-.23.06-.03.1-.06.15-.09.06-.02.11-.04.17-.07.09-.04.18-.08.25-.12.35-.18.72-.35,1.08-.54.34-.15.68-.32,1.03-.5.93-.45,1.88-.94,2.84-1.41.72-.36,1.45-.73,2.18-1.1.08-.03.15-.08.23-.12.07-.02.12-.06.19-.09h.01c.1-.06.19-.11.29-.15.21-.11.42-.22.62-.33.21-.11.41-.21.62-.31.6-.31,1.19-.62,1.78-.93.64-.34,1.28-.67,1.91-1.01,1.99-1.06,3.88-2.05,5.5-2.95l.54-.29c.15-.09.3-.17.44-.24.13-.08.28-.15.41-.23.14-.09.28-.15.41-.23.22-.13.44-.24.65-.36.29-.15.55-.31.8-.45.03-.02.07-.03.1-.06.19-.11.36-.21.53-.3.13-.08.27-.17.41-.24.36-.21.73-.43,1.08-.65.03-.02.06-.03.09-.06.03-.02.06-.03.09-.04.13-.09.29-.18.42-.27.11-.07.23-.14.34-.22h.01s.01-.01.02-.02c.18-.11.35-.22.52-.34.44-.28.85-.55,1.25-.82,1.36-.94,2.52-1.82,3.52-2.66.17-.14.33-.28.49-.41.59-.5,1.1-.96,1.58-1.41.29-.27.55-.51.79-.76.36-.35.71-.68,1.01-1.01.01-.01.02-.03.03-.04,1.46-1.5,2.31-2.51,3.2-2.84.01,0,.01-.01.01-.01h.01c.36-.14.75-.15,1.18-.03.8.21,1.47.8,2.03,1.7.13.2.25.42.36.65,1.34,2.68,1.93,7.42,1.92,13.59Z"/>
        <path class="cls-28" d="M273.66,421.8v.03c-3.17,1.6-6.7,2.6-10.43,2.84-.19.02-.36.03-.55.03-.14,0-.29,0-.43.01-.25.01-.51.01-.77.01h-37.56c-2.29-9.33-3.94-13.33-5.13-13.21-1.15.1-1.94,4.12-2.29,13.21h-20.02c-1.28-.96-2.49-2.1-3.61-3.41-.73-.85-1.42-1.77-2.1-2.76-1.51-2.24-2.86-4.83-4.07-7.7-.29-.7-.57-1.4-.84-2.13-.91-2.43-1.72-5.05-2.43-7.8h0s-.01-.02-.01-.03v-.1c-.2-.76-.39-1.54-.56-2.33-.55-2.36-1.04-4.84-1.46-7.39-1.1-6.66-1.78-13.87-2.07-21.38-.08-1.7-.12-3.42-.14-5.16-.08-5.06,0-10.22.23-15.4.11-2.71.28-5.42.48-8.13.47-6.55,1.18-13.04,2.1-19.32.02-.17.04-.33.07-.5,1.1-7.57,2.5-14.81,4.14-21.44v-.03c.12-.49.24-.96.36-1.45.14-.57.3-1.15.45-1.71.46-1.76.95-3.47,1.46-5.14.83-2.73,1.7-5.3,2.62-7.69h0c1.73-4.58,3.63-8.51,5.63-11.58h0c.63-.96,1.26-1.83,1.9-2.62,2.32-2.85,4.76-4.56,7.3-4.9.23-.02,2.09.68,5.62,2.12h.01c1.51.62,3.32,1.36,5.45,2.24,2.28.94,4.92,2.03,7.91,3.28,0,0,1.41.59,4.2,1.93,2.96,1.44,7.48,3.73,13.47,7.09.02.02.06.03.08.04.21.12.41.23.62.35.06.03.12.07.18.1.23.13.45.27.7.4.08.04.14.09.22.13.4.22.8.45,1.22.68h.01c1.02.59,2.08,1.2,3.17,1.86.11.07.22.13.34.2.5.29.99.59,1.5.89.12.07.27.14.41.24.35.21.75.49,1.18.82.03.03.08.06.11.09.63.5,1.31,1.15,1.93,2.01,1.22,1.69,1.66,3.46,1.76,6.12.06,1.42,0,3.13-.08,5.2-.04.94-.08,1.77-.11,2.51-.23,4.73-.42,5.8-.45,8.28-.02,1.88.06,3.5.22,5.07.02.27.06.54.08.81.13,1.02.28,2.02.45,3.09.19,1.2.41,2.49.65,3.92,1.24,7.4-.12.67,3.07,22.37,1.56,10.53,2.44,16.6,3.38,22.07.18.99.35,1.97.53,2.94,1.46,8.03,2.5,12.38,3.91,18.95,1.61,7.56,3.74,18.13,5.99,31.35Z"/>
        <path class="cls-9" d="M229.82,424.72h-31.82c.08-1.95.2-4.01.36-6.17.17-2.43.39-4.99.65-7.69.02-.19.04-.37.06-.56v-.02s0-.03,0-.04c.16-1.69.35-3.43.55-5.22h0c.62-5.58,1.39-11.65,2.28-18.25.33-2.5.69-5.05,1.06-7.7.91-6.59,1.93-13.65,3.03-21.2.13-.92.27-1.88.43-2.88.39-2.52.86-5.21,1.47-7.7,1.26-5.12,3.13-9.44,6.2-9.96,1.61-.27,3.49.54,5.23,1.99,1.7,1.41,3.29,3.43,4.41,5.65.53,1.02.95,2.09,1.24,3.15,1.56,5.62-.67,10.61-1.4,12.37-3.79,9.27-1.78,21.36,2.23,45.54,1.23,7.42,2.65,13.56,4.01,18.69Z"/>
        <path class="cls-12" d="M198.07,255.29c-.31,4.3-2.6,30.25-25.59,46.58-13.53,9.61-27.77,11.29-32.64,11.68-6.47.52-20.17,1.61-32.97-6.25-7.6-4.67-11.87-10.65-13.61-13.14-2.96-4.23-6.7-9.45-7.45-17.13-.82-8.34,2.31-14.91,4.1-18.04,4.08-1.67,9.69-4.4,15.52-8.85.06-.05.22-.18.45-.35,2.92-2.15,5.89-2.58,6.44-2.7,3.72-.78,8.76-10.45,11.16-21.31,1.18-5.35,2.37-13.97.75-24.71,7.54-.1,15.08-.21,22.63-.31,7.54-.1,15.09-.21,22.63-.31-1.42,19.03,1.32,33.73,5.49,39.19,1.86,2.44,4.03,4.41,4.03,4.41,3.39,2.22,7,4.46,10.85,6.69,2.79,1.62,5.53,3.12,8.21,4.53Z"/>
        <path class="cls-38" d="M199.62,405.01h0c0,1.76-.17,3.49-.55,5.23,0,0,0,.03,0,.04v.02c-.04.19-.08.37-.13.56-.04.19-.09.38-.14.57-.67,2.46-1.89,4.84-3.58,7.12-.7.94-1.47,1.87-2.33,2.77-1.09,1.16-2.32,2.3-3.65,3.4h-115.38c-.18-1.63-.3-3.65-.38-6.17-.07-2.16-.09-4.7-.08-7.69.02-5.98.19-13.79.51-24.08.08-2.43.17-4.99.26-7.7.18-5.02.39-10.54.62-16.61.03-.73.06-1.44.08-2.14h0c.08-1.84.14-3.62.22-5.33.11-2.73.22-5.3.32-7.7.19-4.67.37-8.69.51-11.92.34.36.72.71,1.1,1.04,1.36,1.16,2.82,1.99,4.25,2.59h0c.08.03.14.06.22.09,1.61.66,3.17,1.03,4.46,1.27.7.12,1.4.26,2.09.37,25.25,4.42,46.72,4.21,46.72,4.21,23.54-.23,35.75-.87,45.15-3.94,2.34-.76,4.51-1.67,6.62-2.76,1.04-.53,2.06-1.1,3.09-1.72.86-.52,1.56-.97,2.02-1.28,1.7.35,3.08,1.03,4.16,2.18.17.18.33.36.48.57,1.92,2.54,1.4,5.27.17,9.3-.65,2.14-1.5,4.65-2.27,7.7-.35,1.33-.68,2.76-.97,4.32-1.34,7.06-.57,13.59.82,19.77.59,2.63,1.3,5.19,2.02,7.7,1.79,6.33,3.6,12.34,3.57,18.24Z"/>
        <path class="cls-4" d="M195.65,337.61c-1.57,1.74-3.94,4.13-7.08,6.46-7.47,5.53-15.13,7.59-26.59,8.62-10.14.92-12.15.03-46.9-2.62,0,0-6.03-.46-17.89-3.25-3.22-.76-7.06-1.76-11.5-4.55-2.52-1.58-4.46-3.26-5.77-4.5-11.45-15.24-3.16-56.57,11.99-64.38,4.78-2.47,9.22-1.34,9.22-1.34,6.87,1.08,8.83,6.54,15.48,10.12,4.18,2.25,8.78,2.39,17.81,2.57,20.96.42,31.43.63,41.27-4.34,7.65-3.86,14.66-10.25,22.64-7.9.27.08,1.32.29,2.23.89,10.56,6.96,11.09,44.94-4.91,64.22Z"/>
        <path class="cls-24" d="M97.11,255.02c2.32-.41,3.78,4.38,8.66,8.82,5.42,4.94,11.53,6.23,20.11,8.03,7.03,1.48,18.9,3.97,33.93.66,16.31-3.59,26.97-11.96,31.7-16.19.79,3.12,1.97,9.86-1.66,16.05-3.91,6.68-11.22,8.99-20.69,11.98-4.44,1.41-13.2,3.76-25.14,3.95-7.85.12-19.47.19-32.09-5.45-6.22-2.78-15.76-7.04-17.9-15.47-1.39-5.46.52-11.92,3.07-12.37Z"/>
        <path class="cls-24" d="M83.63,261.82c.03,1.13-.09,2.22-.33,3.19-.85,3.53-3.4,6.32-6.52,8.56h-.01s-.01.01-.01.01c-.46.34-.94.66-1.42.97-.27.17-.53.33-.8.49-.95.59-1.91,1.12-2.87,1.59-.15.09-.32.17-.48.24,0,0-.01.01-.02.01-1.38.68-2.73,1.28-3.97,1.81h-.01c-.19.09-.36.17-.56.24,0,0-.01.01-.02.01-.39.15-.75.32-1.12.46-.17.08-.34.14-.53.21-1.08.46-2.36.95-3.73,1.48,0,0,0,.01-.01.01-1.02.4-2.1.81-3.18,1.25-.4.15-.79.32-1.19.49-.01-.01-.02,0-.02,0-1.15.46-2.29.94-3.38,1.42-.17.08-.32.14-.49.22-3.8,1.73-6.96,3.6-7.57,5.39-.09.25-.17.53-.23.77-.13.45-.22.81-.22.81-.44,1.81-.57,3.37-.6,4.35-.01.49,0,.82,0,.98.06,3.95-3.05,9.99-4.4,15.98-.81,3.57-.93,6.88-.8,9.6.02.45.06.88.09,1.3.19,2.19.51,3.89.71,4.89,1.83,9.25,6.29,13.46,3.99,16.58-1.81,2.44-6.26,2.19-7.12,2.18-5.68-.06-16.31,9.63-36.81,42.5v-8.74c1.28-2.02,2.54-4,3.74-5.94.74-1.18,1.47-2.35,2.19-3.5,2.21-3.57,4.32-7,6.32-10.29,4.32-7.09,8.2-13.61,11.43-19.61,1.82-3.38,3.44-6.59,4.82-9.65,2.55-5.66,4.3-10.77,5-15.41.04-.3.09-.59.12-.87.36-2.93,1.1-5.82,1.92-8.7.17-.62.35-1.25.52-1.87.1-.33.2-.66.29-.98.12-.44.25-.88.36-1.31.04-.14.09-.28.12-.42.1-.38.21-.75.3-1.13.09-.32.18-.65.25-.98.06-.18.1-.36.13-.55h.01c.03-.13.07-.27.09-.39.1-.42.19-.83.28-1.25.13-.59.24-1.17.34-1.76.06-.3.1-.6.14-.88.13-.87.23-1.76.29-2.63.02-.3.04-.59.04-.88.03-.98.02-1.98-.07-2.97,0-.02-.01-.06-.01-.09-.01-.1-.02-.24-.02-.41-.01-.28-.01-.64.04-1.03.01-.09.02-.18.04-.27.1-.51.29-1.05.63-1.55.09-.12.19-.24.3-.35.22-.24.47-.43.71-.56.5-.31.94-.44,1.1-.49.07-.01.14-.04.22-.07.14-.04.32-.11.5-.17.45-.18.98-.39,1.6-.65.22-.09.44-.19.68-.3.45-.2.95-.42,1.48-.66.02,0,.04-.01.07-.02.04-.02.1-.04.14-.07h0c.19-.09.38-.18.57-.28.38-.18.77-.36,1.17-.55.1-.06.19-.1.3-.14.17-.08.33-.15.51-.24.15-.08.31-.15.48-.23.06-.02.11-.04.17-.08.04-.03.1-.04.15-.08.09-.04.18-.08.25-.12.35-.17.72-.34,1.08-.53.34-.17.68-.33,1.03-.51.93-.45,1.88-.94,2.84-1.41.72-.36,1.45-.73,2.18-1.1.08-.03.15-.08.23-.12.07-.03.12-.07.19-.1h.01c.1-.06.19-.11.29-.15.21-.11.41-.22.62-.32.21-.11.41-.21.62-.31.6-.31,1.19-.62,1.78-.93.64-.34,1.28-.67,1.91-1.01,1.99-1.06,3.88-2.05,5.5-2.95l.54-.3c.15-.08.3-.15.44-.23.13-.08.28-.15.41-.23.14-.09.28-.15.41-.23.23-.12.44-.24.65-.36.29-.15.55-.31.8-.45.03-.02.07-.03.1-.06.19-.11.36-.21.53-.3.13-.08.27-.17.41-.24.36-.21.73-.43,1.08-.65.03-.02.06-.03.09-.06.03-.02.06-.03.09-.04.13-.09.29-.18.42-.27.11-.07.23-.14.34-.22h.01s.02-.01.02-.01h0c.18-.12.35-.23.52-.35.44-.28.85-.55,1.25-.82,1.36-.94,2.52-1.82,3.52-2.66.17-.14.33-.28.49-.41.59-.5,1.1-.96,1.58-1.41.29-.27.55-.51.79-.76.36-.35.71-.68,1.01-1.01.08.55.12,1.09.12,1.62Z"/>
        <path class="cls-7" d="M77.34,287.75c-4.72,4.64-10.51,5.84-12.74,6.3-2.63.55-12.36,2.56-19.56-3.47-.76-.63-3.28-2.76-4.71-5.71.5-.31.95-.44,1.11-.49.06-.02.14-.04.22-.07.15-.04.32-.1.49-.16.46-.17.99-.38,1.61-.65.22-.09.44-.19.69-.3.47-.21.99-.44,1.54-.69.23-.1.47-.22.72-.34.37-.17.77-.36,1.17-.55.1-.05.19-.1.3-.14.16-.09.34-.16.51-.25.2-.1.42-.2.63-.31.15-.06.28-.12.42-.19.35-.18.72-.36,1.09-.54.34-.16.68-.32,1.02-.5,1.85-.91,3.8-1.9,5.73-2.88.42-.23.82-.44,1.23-.64,3.34-1.74,6.58-3.46,9.2-4.88l.54-.29c.3-.17.58-.32.85-.48.15-.08.28-.15.41-.23.23-.13.44-.24.65-.36.53-.3,1.01-.57,1.42-.81.13-.08.27-.16.41-.24.4-.23.8-.47,1.17-.71.03-.02.06-.03.09-.04.14-.09.29-.17.42-.26.31-.19.61-.39.9-.58.43-.28.84-.56,1.24-.83,2.42-1.67,4.21-3.18,5.59-4.48.29-.26.55-.51.79-.76.36-.36.71-.69,1.01-1.01,0,0,.03-.03.03-.03,3,7.41,1.24,20.27-6.2,27.59Z"/>
        <path class="cls-21" d="M66.41,379.95c-1.37,2.55-2.76,4.84-4.18,6.83-1.15,1.62-2.31,3.04-3.47,4.21-.49.48-1.31,1.28-2.44,2.4h0c-.12.13-.25.27-.39.41-.14.13-.29.28-.42.42-4.24,4.3-11.55,12.17-18.82,23.1-3.29,4.94-3.5,5.9-4.84,7.42h-4.57c-.38,0-.75-.01-1.13-.02-2.58-.11-5.08-.57-7.43-1.36-.02-.01-.04-.02-.07-.02-.87-.29-1.72-.63-2.56-1.01t-.02-.01c-.32-.14-.63-.31-.94-.46-.22-.12-.44-.24-.66-.36-.07-.02-.12-.06-.18-.1-.89-.49-1.78-1.01-2.61-1.59.1-.24.23-.42.4-.53,1.57-1.05,6.45,3.99,7.74,2.96,2.09-1.65-8.6-16.08-7.32-16.98,1.13-.8,10.42,9.95,11.73,9.08,1.57-1.05-9.96-17.93-7.96-19.34,1.84-1.3,11.84,12.9,19.05,10.86,3.21-.91,4.31-4.56,7.54-17.77,1.67-6.76,2.99-12.37,4.07-17.08,3.79-16.73,4.21-22.07,4.32-27.34.07-3.44,0-6.29-.13-9.2-.09-1.61-.19-3.25-.29-5.01-.5-8.3-1.37-15.44-2.19-21.08h0c-1.2-8.23-2.32-13.22-2.07-13.81.01-.03.03-.06.06-.06.01,0,.02,0,.03.01.66.17,3.68,8.77,7.51,23.67.82,3.13,1.59,6.12,2.33,8.99.59,2.29,1.14,4.47,1.69,6.62h0v.03h0c.91,3.59,1.75,6.99,2.52,10.21.01.04.02.09.03.13.25,1.06.5,2.1.74,3.13.63,2.7,1.19,5.25,1.7,7.7,1.99,9.42,3.12,17.18,3.2,24.08h0c.01.3.01.6.01.88Z"/>
        <path class="cls-21" d="M244.24,350.23c.62.85-5.7,4.13-10.05,10.53-2.83,4.15-4.1,8.57-4.75,22.9-.6,13.39-.91,20.09,0,30.27.39,4.29.86,7.84,1.23,10.79h-16.67c.73-7.44,2.28-18.28,4.28-34.22,1.07-8.51,2.22-18.2,3.35-27.64,1.02-8.47,1.67-14.09,2.11-17.9.91-7.88.9-8.01,1.24-9.48.9-3.91,5.33-22.31,19.55-41.32,2.26-3.02,4.58-5.81,6.51-7.97.35.21.75.48,1.18.82-3.09,4.34-7.72,11.18-11.88,19.78-4.75,9.83-6.71,17.46-10.06,30.53-3.31,12.9-5.34,24.77-3.63,25.26,1.06.31,2.36-4.04,7.81-8.16,4.23-3.19,9.25-4.94,9.78-4.21Z"/>
        <path class="cls-17" d="M222.88,312.58c-.03,4.13-.29,7.74-.58,10.62-.14,1.52-.3,2.83-.43,3.92-.04.33-.08.6-.11.84,0,.13-.04.26-.06.38-.06.32-.12.67-.22,1.13-.02.08-.04.16-.06.25-.04.18-.08.37-.12.59-.18.77-.42,1.83-.75,3.38-.06.22-.1.46-.16.72h0c-.06.27-.12.53-.18.82-.12.56-.25,1.17-.41,1.85-.06.28-.12.58-.19.88-.09.43-.19.88-.29,1.36-.11.53-.24,1.1-.37,1.71-.03.13-.06.26-.08.39-.18.84-.38,1.76-.58,2.74-.06.24-.11.49-.16.75-.05.22-.1.45-.15.69-.11.54-.24,1.11-.36,1.7-.47,2.27-1.01,4.81-1.61,7.7-.33,1.6-.68,3.3-1.06,5.1-1.74,8.4-2.85,13.83-3.76,18.98-.45,2.47-.86,4.87-1.26,7.5,0,.07-.02.14-.03.2-1.53,9.73-2.3,14.63-2.77,20.73-.08,1.12-.2,2.24-.34,3.36-.28,2.57-.65,5.13-.95,7.69-.24,2.05-.43,4.11-.49,6.17h-20.81c-.38-1.87-.64-3.93-.83-6.17-.2-2.35-.31-4.92-.35-7.69-.02-1.44-.03-2.94,0-4.49,0-.59,0-1.18.02-1.79.02-1.19.04-2.43.08-3.69v-.1c.03-.99.06-2.01.08-3.04.04-1.14.08-2.28.12-3.46.09-2.42.19-4.92.3-7.52.05-1.06.09-2.13.14-3.22.06-1.24.13-2.7.22-4.48.22-4.07.54-9.83,1.04-18.69.11-2.05.22-3.83.31-5.39.2-3.4.34-5.78.45-7.7.03-.56.06-1.08.08-1.58h0c.02-.29.04-.57.05-.84.02-.28.03-.56.05-.84.02-.44.04-.88.06-1.32.02-.21.03-.43.04-.65.03-.66.06-1.33.08-2.07.02-.59.05-1.16.07-1.74.02-.61.04-1.21.06-1.8.03-.76.05-1.52.07-2.26,0-.37.02-.74.03-1.1.02-1,.04-1.95.06-2.9,0-.37,0-.75.02-1.12.03-2.08.05-4.03.05-5.86,0-2.89-.02-5.45-.05-7.7,0-.59,0-1.15-.02-1.71,0-.67-.02-1.35-.04-2.06-.02-.7-.04-1.43-.06-2.19-.03-.9-.07-1.82-.1-2.81-.03-.66-.06-1.33-.09-2.03,0-.27-.02-.53-.04-.82,0-.27-.02-.53-.04-.8-.02-.55-.05-1.13-.09-1.72-.02-.51-.05-1.03-.08-1.57v-.06c-.06-.99-.1-2.03-.16-3.13-.02-.32-.04-.64-.06-.97-.03-.44-.06-.89-.08-1.35-.02-.28-.03-.55-.05-.84,0-.22-.02-.44-.04-.67-.03-.44-.05-.9-.08-1.36-.05-.78-.09-1.59-.14-2.43-.09-1.65-.2-3.41-.3-5.27-.1-1.79-.22-3.67-.33-5.66,0-.12,0-.24-.02-.36-.06-.9-.1-1.74-.16-2.53h0s0,0,0,0c-.03-.44-.06-.89-.08-1.31-.02-.21-.03-.42-.05-.62-.03-.49-.07-.95-.11-1.4,0-.19-.03-.36-.05-.54-.07-.76-.15-1.48-.25-2.19-.06-.44-.12-.88-.2-1.31-.04-.24-.08-.47-.12-.71-.18-.99-.4-1.97-.69-2.97-.05-.17-.09-.35-.15-.52-.07-.24-.14-.48-.22-.72-.09-.28-.19-.57-.28-.85-.28-.84-.57-1.63-.87-2.41-1.5-3.98-3.35-7.69-3.35-7.69-1.23-2.51-3.27-7.79-6.82-19.77-.1-.42-.2-.83-.3-1.25,16.38,8.9,27.03,17.81,29.84,21.03,1.15,1.32,5,6.31,5.97,7.69.44.63.88,1.28,1.3,1.94.17.26.33.51.5.76.11.17.23.35.33.52.11.17.22.35.33.52.36.57.71,1.14,1.05,1.72.33.54.64,1.1.96,1.65.95,1.69,1.87,3.43,2.72,5.22.27.58.55,1.15.81,1.74.33.72.65,1.46.95,2.19.07.14.12.28.18.43.31.75.6,1.49.9,2.26.23.6.45,1.22.67,1.83l.51,1.49c1.2,3.62,2.1,7.2,2.78,10.65.04.18.07.36.1.53h0c1.36,7.16,1.74,13.81,1.69,19.49Z"/>
        <path class="cls-17" d="M114.91,251.94c-.2.52-1.62,4.19-3.02,7.69-.52,1.3-1.07,2.68-1.68,4.18-.3.75-.6,1.52-.93,2.33-.04.09-.08.19-.11.28-.91,2.26-1.93,4.74-3.06,7.52-.16.39-.32.79-.49,1.2-.49,1.22-1.01,2.48-1.56,3.8-.24.58-.47,1.15-.72,1.75-.38.91-.57,1.43-.99,3.03-.32,1.22-.76,3.05-1.52,6.15-.11.48-.25,1-.38,1.55-.1.44-.22.9-.34,1.39-.2.79-.41,1.64-.63,2.56-.18.74-.37,1.52-.57,2.35-.16.62-.32,1.27-.48,1.95-.06.22-.1.44-.17.68-.33,1.37-.7,2.84-1.09,4.44-.97,3.93-1.86,7.49-2.67,10.72-.71,2.81-1.35,5.37-1.94,7.7-.25.99-.49,1.95-.73,2.87-.15.61-.31,1.21-.45,1.79-.58,2.27-1.09,4.29-1.57,6.09-.06.21-.1.42-.16.62-.21.81-.41,1.57-.59,2.29-.09.36-.19.71-.27,1.06-.26,1.02-.51,1.95-.74,2.82-.24.92-.47,1.77-.68,2.53-.42,1.62-.76,2.91-1.06,4.02-.77,2.97-1.16,4.63-1.75,7.7-.06.3-.11.61-.18.95-1.67,8.85-2.73,16.53-3.38,23.13-.26,2.75-.47,5.32-.6,7.7-.77,13.11.26,20.62.91,23.39.06.23.1.46.15.69.57,2.54.95,5.13,1.42,7.69.38,2.08.81,4.15,1.43,6.17h-28.17c0-.54.02-1.1.03-1.66.03-1.5.06-3.01.07-4.51.03-2.57.04-5.13.04-7.69,0-5.83-.04-11.65.04-17.46h0c.03-2.21.07-4.42.13-6.62v-.04c.1-3.47.05-5.77-.08-7.67-.26-3.95-.84-6.24-.9-14.05-.02-2.94.04-6.29.25-10.03.13-2.41.33-4.97.6-7.7.1-1.04.22-2.1.35-3.18.05-.4.09-.81.15-1.23.04-.36.08-.73.14-1.1.04-.32.09-.65.13-.98.18-1.3.37-2.62.59-3.97.07-.41.13-.83.2-1.24.1-.59.2-1.17.31-1.76h0c.06-.36.12-.7.19-1.06.07-.36.13-.71.2-1.07.1-.58.22-1.16.34-1.75.31-1.57.66-3.17,1.03-4.81.15-.65.29-1.3.43-1.95.56-2.53,1.09-5.09,1.67-7.7,1.6-7.34,3.47-15.13,6.8-24.08.37-.99.75-1.98,1.15-2.99.8-2.01,1.6-3.93,2.4-5.75.57-1.29,1.13-2.52,1.7-3.71.2-.43.4-.84.6-1.26.36-.75.71-1.47,1.07-2.17.33-.67.67-1.31.99-1.95.97-1.87,1.91-3.58,2.81-5.14.23-.4.45-.78.67-1.15.08-.12.15-.25.22-.36.23-.38.44-.76.67-1.11.25-.43.51-.84.75-1.23.12-.2.25-.4.37-.59.48-.78.95-1.5,1.39-2.17.13-.2.26-.41.4-.6.13-.2.25-.38.38-.57.05-.07.09-.14.14-.2.1-.14.2-.28.29-.43.09-.13.18-.27.27-.4.59-.86,1.1-1.57,1.51-2.13,0,0,.05-.06.14-.2.46-.61,2.05-2.65,4.58-5.37,8.43-9.04,22.23-16.91,22.23-16.91.99-.67,2.16-1.37,3.5-2.03,1.84-.91,3.56-1.51,5.03-1.93-.53,1.63-4.51,13.9-7.19,20.88Z"/>
        <g>
          <path class="cls-17" d="M111.89,259.63c-2.06,5.19-4.76,11.83-8.55,21.06-.38.92-.57,1.43-.99,3.03h-25.08c-1.73,0-3.39-.37-4.86-1.05,4.92-11.16,9.82-18.88,12.71-23.04h26.78Z"/>
          <path class="cls-17" d="M217.8,280.41c-2.06,2.03-4.96,3.3-8.15,3.3h-24.32c-.1-1.79-.22-3.67-.33-5.66-.43-7.44-.68-11.09-2.38-16.03-.28-.83-.58-1.63-.87-2.41h25.35c4.17,6.01,7.93,12.93,10.7,20.79Z"/>
          <path class="cls-17" d="M68.85,291.41h31.61c-.78,3.18-1.83,7.47-3.29,13.36-.97,3.93-1.86,7.49-2.67,10.72h-32.45c1.6-7.34,3.47-15.13,6.8-24.08Z"/>
          <path class="cls-17" d="M222.89,312.58c-2.03,1.8-4.76,2.91-7.76,2.91h-28.36c0-.59,0-1.15-.02-1.71-.07-5.32-.38-11.82-.97-22.38h29.35c2.23,0,4.32.61,6.07,1.68h0c1.36,7.16,1.74,13.81,1.69,19.49Z"/>
          <path class="cls-17" d="M92.56,323.2c-3.58,14.18-5.23,20.24-6.24,24.08h-29.99c.65-6.55,1.77-13.96,3.63-22.14.15-.65.29-1.3.43-1.95h32.17Z"/>
          <path class="cls-17" d="M222.3,323.2c-.14,1.52-.3,2.83-.43,3.92-.32,2.61-.28,1.39-4.24,20.17h-31.51c.16-2.84.25-4.67.36-7.3.25-6.47.33-12.05.34-16.78h35.49Z"/>
          <path class="cls-17" d="M55.72,354.98h28.84c-.06.3-.11.61-.18.95-1.67,8.85-2.73,16.53-3.38,23.13h-24.63c-.26-3.95-.84-6.24-.9-14.05-.02-2.94.04-6.29.24-10.03Z"/>
          <path class="cls-17" d="M216.01,354.98c-.33,1.6-.68,3.3-1.06,5.1-1.74,8.4-2.85,13.83-3.76,18.98h-26.88c.22-4.07.54-9.83,1.04-18.69.11-2.05.22-3.83.31-5.39h30.35Z"/>
          <path class="cls-17" d="M81.46,410.85h-25.18c0-8.03-.07-16.06.17-24.08h23.94c-.77,13.11.26,20.62.91,23.39.06.23.1.46.15.69Z"/>
          <path class="cls-17" d="M209.91,386.77c-1.53,9.73-2.3,14.63-2.77,20.73-.09,1.12-.2,2.24-.34,3.36h-23.43c-.1-6.82.21-14.89.59-24.08h25.95Z"/>
          <path class="cls-17" d="M84.32,424.72h-28.17c0-.54.02-1.1.03-1.66.03-1.5.06-3.01.07-4.51h26.64c.38,2.08.81,4.15,1.43,6.17Z"/>
          <path class="cls-17" d="M205.84,418.55c-.24,2.05-.43,4.11-.49,6.17h-20.81c-.38-1.87-.64-3.93-.83-6.17h22.13Z"/>
        </g>
        <g>
          <path class="cls-46" d="M211.04,140.36c-.81,5.94-2.23,12.15-3.92,19.48-3.94,17.15-5.91,25.72-11.74,34.48,0,0-11.99,18.04-39.1,29.22-3.01,1.24-6.75,2.52-11.45,2.37-6.19-.2-10.72-2.79-15.91-6.06-15.56-9.78-23.34-14.67-27.93-21.05-1.89-2.62-3.74-5.77-8.66-21.32-5.63-17.8-8.45-26.7-9.77-35.53-.6-3.97-1.22-8.04-1.68-12.13-.48-4.27-.79-8.57-.76-12.84.02-1.53.08-3.06.19-4.57.39-5.35,1.45-10.59,3.57-15.58,1.05-2.49,2.37-4.92,3.99-7.27,7.81-11.3,22.39-15.53,47.89-19.56,7.82-1.24,16.67-2.46,26.69-3.86,2.38-.33,6.55-.78,11.49.41,3.85.92,6.59,2.48,8.9,3.81,1.85,1.06,6.4,3.72,10.44,8.39,3.58,4.14,5.29,8.16,6.42,11.18h0c.16.43.31.83.45,1.22,8.91,24.31,9.51,21.37,10.61,27.64.41,2.35.7,4.59.86,6.79.38,5.07.12,9.84-.57,14.8Z"/>
          <path class="cls-29" d="M213.27,144.53c-.84,5.94-2.31,12.15-4.05,19.48-4.07,17.14-6.12,25.72-12.14,34.48,0,0-12.4,18.04-40.44,29.22-3.1,1.24-6.98,2.52-11.84,2.37-6.4-.2-11.09-2.79-16.46-6.06-16.09-9.78-24.13-14.67-28.88-21.05-1.95-2.62-3.87-5.77-8.96-21.32-5.82-17.8-8.73-26.7-10.11-35.53-1.5-9.62-3.08-19.76-2.33-29.54.52-6.86,2.18-13.55,5.82-19.76-2.12,4.99-3.19,10.23-3.57,15.58-.73,9.78.8,19.92,2.25,29.54,1.33,8.83,4.15,17.73,9.77,35.53,4.92,15.55,6.78,18.7,8.66,21.32,4.59,6.39,12.37,11.27,27.93,21.05,5.19,3.27,9.72,5.85,15.91,6.06,4.7.15,8.45-1.13,11.45-2.37,27.11-11.18,39.1-29.22,39.1-29.22,5.83-8.76,7.8-17.33,11.74-34.48,1.69-7.33,3.11-13.54,3.92-19.48.98-7.1,1.08-13.81-.29-21.59-1.1-6.26-1.71-3.32-10.61-27.64-.14-.38-.29-.79-.45-1.21,1.06,2.04,1.74,3.89,2.31,5.38,9.21,24.31,9.83,21.37,10.97,27.64,1.42,7.77,1.32,14.49.3,21.59Z"/>
          <path class="cls-5" d="M211.61,125.56c-3.98-4.28-9-13.55-11.82-20.82-2.39-6.17-3.79-12.44-9.35-20.53-1.51-2.19-3.87-5.34-7.96-8.03-2.27-1.49-8.47-5.59-13.55-3.55-1.56.63-2.63,1.87-4.75,4.34-3.18,3.71-4.03,5.94-5.72,8.42-2.1,3.06-5.13,5.2-11.17,9.48-2.75,1.95-7.07,4.97-13.13,7.9-5.5,2.65-6.24,2.23-15.92,5.78-10.8,3.97-16.2,5.95-21.23,9.48-2.57,1.81-4.02,3.17-10.75,8.03-2.36,1.7-4.09,2.91-5.38,3.76-.48-4.27-.79-8.57-.76-12.84,1.08-2.46,2.33-4.95,3.63-7.24,11.06-19.45,31.24-32.86,52-39.74,7.82-1.24,16.67-2.46,26.69-3.86,2.38-.33,6.55-.78,11.49.41,3.85.92,6.59,2.48,8.9,3.81,1.85,1.06,6.4,3.72,10.44,8.39,3.58,4.14,5.29,8.16,6.42,11.18h0c.16.43.31.83.45,1.22,8.91,24.31,9.51,21.37,10.61,27.64.41,2.35.7,4.59.86,6.79Z"/>
          <g>
            <path class="cls-33" d="M138.65,123.19c-1.47-2.16-4.21-4.43-14.99-6.49-11.74-2.23-20.46-1.57-37.4-.13-6.79.57-10.67,1.1-12.64,3.92-.95,1.36-1.18,2.82.22,12.06,1.3,8.61,1.98,12.97,3.56,15.69,2.98,5.17,7.21,8.06,9.09,9.21,4.19,2.55,7.85,3.21,13.4,4.14,8.36,1.4,15.21,2.55,22.71-.5,1.9-.78,6.53-2.72,10.07-7.14,1.5-1.87,2.94-5.58,5.84-12.99,1.9-4.9,2.14-5.91,2.27-7.06.13-1.18.63-6.65-2.12-10.71ZM135.44,134.73c-.11.96-.31,1.82-1.92,5.95-2.43,6.25-3.65,9.37-4.91,10.94-2.99,3.73-6.89,5.37-8.49,6.02-6.33,2.57-12.09,1.6-19.14.41-4.67-.78-7.76-1.33-11.3-3.49-1.57-.96-5.14-3.4-7.66-7.75-1.33-2.3-1.9-5.97-3-13.24-1.18-7.78-.99-9.02-.19-10.16,1.67-2.38,4.95-2.82,10.66-3.3,14.28-1.2,21.62-1.77,31.52.12,9.09,1.73,11.4,3.65,12.63,5.47,2.32,3.42,1.9,8.02,1.79,9.03Z"/>
            <rect class="cls-33" x="139.58" y="124.87" width="7.74" height="8.17"/>
            <path class="cls-33" d="M153.87,133.91c.13,1.15.37,2.16,2.27,7.06,2.89,7.41,4.33,11.12,5.84,12.99,3.54,4.42,8.17,6.36,10.07,7.14,7.5,3.05,14.35,1.9,22.71.5,5.55-.93,9.21-1.59,13.4-4.14,1.88-1.15,6.1-4.04,9.09-9.21,1.57-2.73,2.26-7.08,3.56-15.69,1.4-9.24,1.18-10.7.22-12.06-1.97-2.82-5.86-3.35-12.64-3.92-16.94-1.44-25.66-2.1-37.4.13-10.78,2.06-13.52,4.33-14.99,6.49-2.75,4.07-2.25,9.53-2.12,10.71ZM160.98,125.7c1.24-1.82,3.55-3.74,12.63-5.47,9.9-1.89,17.24-1.32,31.52-.12,5.71.48,9,.92,10.66,3.3.8,1.15.98,2.38-.19,10.16-1.09,7.26-1.67,10.93-3,13.24-2.51,4.35-6.08,6.79-7.66,7.75-3.54,2.16-6.62,2.71-11.3,3.49-7.05,1.18-12.82,2.16-19.14-.41-1.6-.65-5.51-2.29-8.49-6.02-1.26-1.57-2.47-4.69-4.91-10.94-1.62-4.13-1.81-4.99-1.92-5.95-.11-1-.53-5.61,1.79-9.03Z"/>
            <rect class="cls-33" x="147.32" y="124.87" width="7.74" height="8.17" transform="translate(302.37 257.92) rotate(-180)"/>
          </g>
          <path class="cls-25" d="M201.82,113.45c-.38.56-2.88-1.21-7.49-2.27-12.58-2.9-26.33,2.85-28.07,4-.09.06-.53.36-1.15.44-1.21.17-2.65-.51-3.09-1.33-1.02-1.9,2.8-5.33,3.25-5.72,3.98-3.57,8.89-4.33,11.36-4.69,8.28-1.19,14.62,1.56,15.87,2.12,5.47,2.47,9.84,6.67,9.32,7.45Z"/>
          <g>
            <path class="cls-35" d="M130.39,146.29c-1.55,4.25-7.38,5.71-11.9,6.84-3.87.96-9.65,2.4-15.95,0-5.41-2.06-11.69-7.12-12.49-12.87-.12-.8-.12-1.62,0-2.45.69-4.65,5.06-7.56,7.26-9.02,1.31-.88,6.4-4.16,13.35-3.56,9.11.79,14.12,7.62,15.96,10.12.63.85,1.3,1.78,1.94,2.77,1.6,2.51,2.84,5.38,1.83,8.17Z"/>
            <path class="cls-22" d="M128.56,138.12c-.64-.99-1.31-1.92-1.94-2.77-1.84-2.5-6.85-9.33-15.96-10.12-6.94-.6-12.03,2.69-13.35,3.56-2.19,1.46-6.57,4.37-7.26,9.02-.12.82-.12,1.64,0,2.45-2.92-1.71-5.11-3.55-6.64-5,3.65-5.99,8.14-9.31,10.74-10.95,3.01-1.88,12.9-8.07,22.31-4.4,4.55,1.77,7.07,5.11,8.05,6.46.49.67,4.81,6.71,4.04,11.76Z"/>
            <path class="cls-52" d="M104.15,124.58c-5.68,2.69-6.49,9-6.82,11.55-.13,1.03-.58,5.25,1.74,9.91,1.08,2.18,2.73,5.48,6.6,7.25,4.08,1.86,9.35,1.44,12.98-1.09,6.36-4.43,4.81-13.32,4.35-15.93-.47-2.69-1.2-6.87-5.08-9.84-3.44-2.64-9.05-4.09-13.78-1.85Z"/>
            <ellipse class="cls-10" cx="105.38" cy="132.99" rx="1.81" ry="2.46"/>
          </g>
          <g>
            <path class="cls-35" d="M163.27,146.29c1.55,4.25,7.38,5.71,11.9,6.84,3.87.96,9.65,2.4,15.95,0,5.41-2.06,11.69-7.12,12.49-12.87.12-.8.12-1.62,0-2.45-.69-4.65-5.06-7.56-7.26-9.02-1.31-.88-6.4-4.16-13.35-3.56-9.11.79-14.12,7.62-15.96,10.12-.63.85-1.3,1.78-1.94,2.77-1.6,2.51-2.84,5.38-1.83,8.17Z"/>
            <path class="cls-22" d="M165.1,138.12c.64-.99,1.31-1.92,1.94-2.77,1.84-2.5,6.85-9.33,15.96-10.12,6.94-.6,12.03,2.69,13.35,3.56,2.19,1.46,6.57,4.37,7.26,9.02.12.82.12,1.64,0,2.45,2.92-1.71,5.11-3.55,6.64-5-3.65-5.99-8.14-9.31-10.74-10.95-3.01-1.88-12.9-8.07-22.31-4.4-4.55,1.77-7.07,5.11-8.05,6.46-.49.67-4.81,6.71-4.04,11.76Z"/>
            <path class="cls-41" d="M189.51,124.58c5.68,2.69,6.49,9,6.82,11.55.13,1.03.58,5.25-1.74,9.91-1.08,2.18-2.73,5.48-6.6,7.25-4.08,1.86-9.35,1.44-12.98-1.09-6.36-4.43-4.81-13.32-4.35-15.93.47-2.69,1.2-6.87,5.08-9.84,3.44-2.64,9.05-4.09,13.78-1.85Z"/>
            <ellipse class="cls-10" cx="188.27" cy="132.99" rx="1.81" ry="2.46"/>
          </g>
          <g>
            <path class="cls-47" d="M147.08,134.17v11.97c-1.89-.13-3.88-.81-5.38-1.96.51-3.42.76-7.22,1.78-8.67.53-.76,1.26-1.09,1.26-1.09.24-.09.56-.19.93-.25.58-.09,1.07-.04,1.4,0Z"/>
            <path class="cls-42" d="M147.14,156.38h-.07c-3.24-.09-6.54-1.08-8.52-3.04.02-.04.05-.08.07-.12.95-1.84,2-3.83,2.61-6.47.19-.8.34-1.67.47-2.58,1.5,1.15,3.49,1.83,5.37,1.96h0v6.7s0,.09,0,.25c0,.6.05,2.18.07,3.3Z"/>
            <g>
              <path class="cls-3" d="M147.08,157.62v21.55h0c-2.2-.24-4.96-.89-7.73-2.47-1.99-1.13-4.42-2.52-5.34-5.13-.33-.93-.25-2.25-.06-4.84.25-3.5.38-5.24.94-6.96.89-2.67,1.73-2.77,3.66-6.44.6.6,1.04,2.78,1.84,3.2,1.56-1.25,4.26,1.04,6.68,1.08h0Z"/>
              <path class="cls-3" d="M160.15,171.58c-.91,2.6-3.35,4-5.34,5.13-2.77,1.58-5.53,2.23-7.73,2.47h0v-21.55h0v.05c.21-.05,2.96-.87,3.04-.87,2.69.58,2.15-.91,2.97-1.35.8-.42,1.9-1.52,2.51-2.11,1.92,3.67,2.77,3.77,3.66,6.44.57,1.71.69,3.46.94,6.96.19,2.59.27,3.91-.06,4.84Z"/>
              <path class="cls-3" d="M147.07,156.38v1.24c-2.42-.04-5.13-2.34-6.68-1.08-.8-.42-1.23-2.6-1.84-3.2,1.98,1.95,5.28,2.95,8.52,3.04Z"/>
              <path class="cls-3" d="M155.6,153.34c-.6.6-1.71,1.7-2.51,2.11-.82.44-.28,1.93-2.97,1.35-.09,0-2.84.82-3.04.87v-.05h.07s0-.53,0-1.24c3.22-.11,6.49-1.09,8.47-3.04Z"/>
              <path class="cls-3" d="M147.15,157.62h-.07v-1.24h.06c.02.71.03,1.24,0,1.24Z"/>
            </g>
            <path class="cls-42" d="M155.6,153.34c-1.97,1.95-5.24,2.93-8.47,3.04h-.07v-10.24h0c1.89-.13,3.87-.81,5.37-1.96.13.91.28,1.78.47,2.58.61,2.64,1.66,4.63,2.61,6.47.02.04.05.09.07.12Z"/>
            <path class="cls-6" d="M158.02,170.68c-.1-.64-1.7-.89-2.51-.92-2.47-.09-4.98,1.72-4.8,2.96,0,.07.05.32.26.53,1.33,1.29,7.26-1.28,7.05-2.57Z"/>
            <path class="cls-6" d="M136.13,170.68c.1-.64,1.7-.89,2.51-.92,2.47-.09,4.98,1.72,4.8,2.96,0,.07-.05.32-.26.53-1.33,1.29-7.26-1.28-7.05-2.57Z"/>
            <path class="cls-47" d="M147.07,134.17v11.97c1.89-.13,3.88-.81,5.38-1.96-.51-3.42-.76-7.22-1.78-8.67-.53-.76-1.26-1.09-1.26-1.09-.24-.09-.56-.19-.93-.25-.58-.09-1.07-.04-1.4,0Z"/>
            <path class="cls-49" d="M154.19,163.17c-1.55,1.86-4.24,3.08-7.3,3.08-3.27,0-6.13-1.4-7.61-3.48,1.14-1.32,3.99-2.25,7.31-2.25,3.65,0,6.72,1.13,7.6,2.65Z"/>
          </g>
          <g>
            <g>
              <path class="cls-53" d="M147.04,209.72c-1.26.05-3.04.07-5.15-.09-2.59-.2-4.58-.34-6.7-1.15-2.18-.84-3.43-1.89-5.27-3.47-2.04-1.74-1.66-2.01-3.25-3.47-.3-.27-1-.89-1.11-1.77-.01-.11-.02-.21-.01-.3,0-.08,0-.15.01-.2,1.33-1.41,5.06-5.23,9.76-7.83.38-.21.76-.42,1.16-.61,3.4-1.67,5.26-1.64,6.16-1.51,1.49.22,3.03.74,3.03.74.59.21,1.06.42,1.38.58v.72c0,2.95,0,5.9,0,8.86,0,3.16,0,6.32,0,9.49Z"/>
              <path class="cls-48" d="M147.03,201.9v-1.67c-1.25-.04-2.6-.04-4.04-.04-5.66,0-6.77.93-11.3.54-.42-.04-.82-.08-1.2-.13.25-.19,1.27-.31,2.67-.91,1.68-.72,1.51-1.11,3.12-1.87.13-.06.32-.15.56-.25.19.26.55.52.96.62.05.01.52.02,1.46.02.35,0,.57,0,.75-.1.27-.15.29-.41.35-.4.03,0,.05.09,0,.51.25.12.5.24.76.36,1.78,0,3.56.02,5.34.02.15-.07.31-.14.46-.2,0-.53-.02-1.05-.03-1.57.05,0,.11,0,.16,0,0,1.69,0,3.38,0,5.06h0Z"/>
              <path class="cls-15" d="M147.09,198.4c-.16.07-.31.13-.47.2-1.81,0-3.62-.02-5.43-.02-.26-.12-.51-.24-.77-.36.05-.42.03-.5,0-.51-.05,0-.07.26-.35.4-.19.1-.41.11-.77.1-.96,0-1.44-.01-1.49-.02-.42-.11-.78-.37-.98-.62.79-.33,2.12-.79,3.81-.94.65-.06,1.67-.02,3.71.07,1.11.05,2.04.09,2.71.13.01.52.02,1.05.03,1.57Z"/>
              <path class="cls-48" d="M147.03,200.23v1.67c.01.85.03,1.69.04,2.54-1.47-.21-2.73-.38-3.73-.51-2.76-.36-4.13-.54-4.66-.57-1.18-.07-1.94-.04-3.17-.33-.7-.16-1.17-.33-1.96-.63-.89-.33-3.24-1.19-3.13-1.7.01-.05.04-.08.06-.1.38.05.78.09,1.2.13,4.54.39,5.64-.54,11.3-.54,1.44,0,2.79,0,4.04.04Z"/>
              <path class="cls-19" d="M147.04,209.72c-1.26.05-3.04.07-5.15-.09-2.59-.2-4.58-.34-6.7-1.15-2.18-.84-3.43-1.89-5.27-3.47-2.04-1.74-1.66-2.01-3.25-3.47-.3-.27-1-.89-1.11-1.77-.01-.11-.02-.21-.01-.3,1.1.33,2.61.84,4.96,1.14-.03.02-.06.06-.06.1-.01.28,1.18.61,4.37,1.1,2.76.43,4.87.64,5.92.75,1.52.16,3.71.4,6.4.75-.04.82-.06,1.65-.08,2.5-.03,1.34-.02,2.64,0,3.91Z"/>
              <path class="cls-32" d="M147.03,190.66v.72c-.74-.16-1.64-.36-2.73-.61-.95-.22-1.86-.44-3.09-.36-1.06.06-1.82.32-2.1.4-1.05.33-2.46.53-3.81.63.38-.21.76-.42,1.16-.61,3.4-1.67,5.26-1.64,6.16-1.51,1.49.22,3.03.74,3.03.74.59.21,1.06.42,1.38.58Z"/>
            </g>
            <g>
              <path class="cls-53" d="M146.95,209.72c1.26.05,3.04.07,5.15-.09,2.59-.2,4.58-.34,6.7-1.15,2.18-.84,3.43-1.89,5.27-3.47,2.04-1.74,1.66-2.01,3.25-3.47.3-.27,1-.89,1.11-1.77.01-.11.02-.21.01-.3,0-.08,0-.15-.01-.2-1.33-1.41-5.06-5.23-9.76-7.83-.38-.21-.76-.42-1.16-.61-3.4-1.67-5.26-1.64-6.16-1.51-1.49.22-3.03.74-3.03.74-.59.21-1.06.42-1.38.58v.72c0,2.95,0,5.9,0,8.86,0,3.16,0,6.32,0,9.49Z"/>
              <path class="cls-48" d="M146.95,201.9v-1.67c1.25-.04,2.6-.04,4.04-.04,5.66,0,6.77.93,11.3.54.42-.04.82-.08,1.2-.13-.25-.19-1.27-.31-2.67-.91-1.68-.72-1.51-1.11-3.12-1.87-.13-.06-.32-.15-.56-.25-.19.26-.55.52-.96.62-.05.01-.52.02-1.46.02-.35,0-.57,0-.75-.1-.27-.15-.29-.41-.35-.4-.03,0-.05.09,0,.51-.25.12-.5.24-.76.36-1.78,0-3.56.02-5.34.02-.15-.07-.31-.14-.46-.2,0-.53.02-1.05.03-1.57-.05,0-.11,0-.16,0,0,1.69,0,3.38,0,5.06h0Z"/>
              <path class="cls-15" d="M146.89,198.4c.16.07.31.13.47.2,1.81,0,3.62-.02,5.43-.02.26-.12.51-.24.77-.36-.05-.42-.03-.5,0-.51.05,0,.07.26.35.4.19.1.41.11.77.1.96,0,1.44-.01,1.49-.02.42-.11.78-.37.98-.62-.79-.33-2.12-.79-3.81-.94-.65-.06-1.67-.02-3.71.07-1.11.05-2.04.09-2.71.13-.01.52-.02,1.05-.03,1.57Z"/>
              <path class="cls-48" d="M146.95,200.23v1.67c-.01.85-.03,1.69-.04,2.54,1.47-.21,2.73-.38,3.73-.51,2.76-.36,4.13-.54,4.66-.57,1.18-.07,1.94-.04,3.17-.33.7-.16,1.17-.33,1.96-.63.89-.33,3.24-1.19,3.13-1.7-.01-.05-.04-.08-.06-.1-.38.05-.78.09-1.2.13-4.54.39-5.64-.54-11.3-.54-1.44,0-2.79,0-4.04.04Z"/>
              <path class="cls-19" d="M146.95,209.72c1.26.05,3.04.07,5.15-.09,2.59-.2,4.58-.34,6.7-1.15,2.18-.84,3.43-1.89,5.27-3.47,2.04-1.74,1.66-2.01,3.25-3.47.3-.27,1-.89,1.11-1.77.01-.11.02-.21.01-.3-1.1.33-2.61.84-4.96,1.14.03.02.06.06.06.1.01.28-1.18.61-4.37,1.1-2.76.43-4.87.64-5.92.75-1.52.16-3.71.4-6.4.75.04.82.06,1.65.08,2.5.03,1.34.02,2.64,0,3.91Z"/>
              <path class="cls-32" d="M146.95,190.66v.72c.74-.16,1.64-.36,2.73-.61.95-.22,1.86-.44,3.09-.36,1.06.06,1.82.32,2.1.4,1.05.33,2.46.53,3.81.63-.38-.21-.76-.42-1.16-.61-3.4-1.67-5.26-1.64-6.16-1.51-1.49.22-3.03.74-3.03.74-.59.21-1.06.42-1.38.58Z"/>
            </g>
          </g>
        </g>
        <g>
          <path class="cls-25" d="M95.46,112.81c.38.56,2.88-1.21,7.49-2.27,12.58-2.9,26.33,2.85,28.07,4,.09.06.53.36,1.15.44,1.21.17,2.65-.51,3.09-1.33,1.02-1.9-2.8-5.33-3.25-5.72-3.98-3.57-8.89-4.33-11.36-4.69-8.28-1.19-14.62,1.56-15.87,2.12-5.47,2.47-9.84,6.67-9.32,7.45Z"/>
          <path class="cls-36" d="M269.08,227.3c.06.22-.03.47-.24.74-.63.84-2.34,1.8-3.53,2.33-5.39,2.37-11.24.68-13.83-.1-5.47-1.66-8.34-4.17-8.9-3.55-.45.48,1.11,2.35,3.1,4.7.38.45.78.92,1.19,1.41,3.53,4.23,8.54,10.22,11.1,15.4,3.38,6.84,3.02,13.33,2.83,16.19-.08,1.02-1.39,17.71-10.16,20.14-3.08.85-7.28,0-8.06-1.87-.57-1.35.86-2.7,1.67-4.34,2.28-4.59-.79-10.22-3.87-15.5-7.32-12.55-9.74-14.76-13.51-21.52-5.11-9.14-8.26-14.78-7.75-21.92.37-5.33,2.5-7.33,6.3-12.76,1.58-2.28,3.47-5.16,5.64-9.15,4.99-9.16,10.21-18.75,9.95-30.8-.08-3.44-.57-11.07-4.61-19.35-1.16-2.37-2.32-4.2-12.31-16.64-11.4-14.19-11.23-13.47-12.81-16.1-3.01-4.99-7.06-16.58-9.6-22.4-2.03-4.66-4.04-9.27-8.5-14.1,0,0-4.11-4.44-13.53-10.15-1.08-.66-2.02-1.06-2.8-1.34-.71-.26-1.5-.48-2.38-.62,0,0-1.55-.26-3.2-.16-1.23.07-3.34.43-5.76,1.49-1.69.73-3.53,1.82-5.34,3.39-6.56,5.71-4.81,11-13.22,17.76-.44.36-.74.6-1.38,1.05-3.09,2.24-8.95,5.65-26.24,12.84-17.08,7.1-14.9,5.23-19.68,7.76-10.2,5.41-16.92,12.62-26.69,25.12-2.44,3.12-5.06,6.56-7.98,10.38-3.07,4.02-5.37,7.28-6.88,12.07-.52,1.64-2.83,9.43.31,21.32,1.43,5.42,3.1,8.3,4.88,10.83.57.8,1.14,1.57,1.73,2.37,1.67,2.32,3.41,4.92,5.13,9.51.35.93.69,1.95,1.04,3.06,3.47,11.17,2.88,19.68,2.41,23.59-.4,3.19-.59,2.31-1.06,5.83-1.46,11.16.7,18.54,1.37,28.13.07,1.01.25,3.97.74,8.19.03.29.03.28.03.31.07.88-.26,1.9-.93,2.98-2.5,4.1-9.65,9.02-17.02,10.19-2.86.46-5.74.36-8.4-.58-4.24-1.49-6.66-4.65-9.05-8.44-.42-.68-.85-1.38-1.28-2.09-5.69-9.35-5.5-18.56-5.31-21.59.34-5.49,2.47-10.58,6.7-20.53,5.83-13.72,9.55-18.66,8.38-19.48-.34-.23-1.06-.12-2,.31-2.89,1.3-7.83,5.46-9.94,11.08-.9,2.39-1.19,4.81-1.36,6.75-.22,2.37-.25,4.05-1.02,4.17-.22.04-.45-.07-.68-.27-.73-.6-1.43-2.09-1.76-2.75-.59-1.24-1.68-3.91-1.59-8.3h0c0-.71.06-1.45.13-2.24.67-6.74,3.75-14.37,6.28-16.32.17-.12.69-.5.63-.92-.13-.94-3.03-.9-5.1-1.64-5.57-2.01-7.59-10.52-6.84-10.93.25-.13.71.67,2.52,2.04.29.21,2.86,2.13,5.17,2.89,4.59,1.5,9.42-1.17,10.61-1.84,1.03-.57,4.46-2.48,6.13-5.65.35-.65.62-1.36.78-2.11.58-2.69-.59-4.37-2.58-7.87-.39-.68-.8-1.42-1.23-2.26-.12-.22-.24-.46-.37-.7-7.33-14.32-7.73-28.45-7.64-29.8,0-.1.03-.46-.06-.94-.03-.17-.08-.33-.12-.49h0c-.15-.46-.38-.85-.61-1.18-.49-.68-1.05-1.1-1.15-1.19-6.13-5.08,2.29-30.55,2.29-30.55,8.26-24.99,4.45-19.85,9.63-32.5,7.54-18.42,14.05-34.28,29.88-49.22,0,0,23.58-22.23,57.78-27.41,10.64-1.61,18.69-1,26.11,1.55,1.93.67,4.49,1.55,7.13,2.83h0c4.12,2,8.45,5,10.95,9.74.23.43.43.85.61,1.29,2.43,5.54,2.22,11.7,3.79,11.74.75.02.99-1.45,2.16-2.67.86-.89,2-1.44,3.28-1.74,4.02-.97,9.31.41,10.9.82,15.57,4.03,29.39,30.34,29.39,30.34,8.71,24.95,15.69,46.06,20.95,62.32,3.34,10.35,5.28,16.54,5.9,25.53.9,12.97,2.34,33.85-10.79,47.38-4.02,4.15-9.72,7.92-11.34,12.62-.38,1.09-.53,2.25-.39,3.46.03.25.07.49.12.73.59,2.87,2.6,5.39,3.22,6.18,1.03,1.28,2.42,2.67,9.85,7.11,4.7,2.81,7.06,4.22,8.27,4.64,5.87,2.03,10.91,1.12,12.72,1.51.39.07.63.21.7.46Z"/>
          <path class="cls-18" d="M76.54,116.5c1.07-4.78,4.24-8.72,13.62-15.6,9.47-6.95,12.44-7.47,21.58-14.21,4.04-2.98,2.23-1.97,11.1-9.08,18.44-14.78,18.05-18.07,24.72-20.93,12.37-5.3,27.05-2.29,27.37,0,.22,1.53-5.99,2.49-13.96,5.92-21.59,9.29-18.51,22.77-41.68,34.15-13.94,6.85-19.49,7.51-28.14,15.2-6.25,5.57-11.47,12.45-13.91,11.28-1.95-.93-.77-6.34-.68-6.74Z"/>
          <path class="cls-37" d="M74.66,270.53c.03.29.03.28.03.31.07.88-.26,1.9-.93,2.98-2.5,4.1-9.65,9.02-17.02,10.19-2.86.46-5.74.36-8.4-.58-4.24-1.49-6.66-4.65-9.05-8.44-.42-.68-.85-1.38-1.28-2.09-5.69-9.35-5.5-18.56-5.31-21.59.34-5.49,2.47-10.58,6.7-20.53,5.83-13.72,9.55-18.66,8.38-19.48-.34-.23-1.06-.12-2,.31-2.89,1.3-7.83,5.46-9.94,11.08-.9,2.39-1.19,4.81-1.36,6.75-.22,2.37-.25,4.05-1.02,4.17-.22.04-.45-.07-.68-.27-.73-.6-1.43-2.09-1.76-2.75-.59-1.24-1.68-3.91-1.59-8.3h0c0-.71.06-1.45.13-2.24.67-6.74,3.75-14.37,6.28-16.32.17-.12.69-.5.63-.92-.13-.94-3.03-.9-5.1-1.64-5.57-2.01-7.59-10.52-6.84-10.93.25-.13.71.67,2.52,2.04.29.21,2.86,2.13,5.17,2.89,4.59,1.5,9.42-1.17,10.61-1.84,1.03-.57,4.46-2.48,6.13-5.65,1.45,1.57,4.4,4.33,9.07,6.13,3.77,1.45,7.13,1.69,9.21,1.69,1.99,3.73,3.22,6.97,3.98,9.28,0,0,3.91,11.53,2.41,23.59-.4,3.19-.59,2.31-1.06,5.83-1.46,11.16.7,18.54,1.37,28.13.07,1.01.25,3.97.74,8.19Z"/>
          <path class="cls-37" d="M268.85,228.04c-.63.84-2.34,1.8-3.53,2.33-5.39,2.37-11.24.68-13.83-.1-5.47-1.66-8.34-4.17-8.9-3.55-.45.48,1.11,2.35,3.1,4.7.38.45.78.92,1.19,1.41,3.53,4.23,8.54,10.22,11.1,15.4,3.38,6.84,3.02,13.33,2.83,16.19-.08,1.02-1.39,17.71-10.16,20.14-3.08.85-7.28,0-8.06-1.87-.57-1.35.86-2.7,1.67-4.34,2.28-4.59-.79-10.22-3.87-15.5-7.32-12.55-9.74-14.76-13.51-21.52-5.11-9.14-8.26-14.78-7.75-21.92.37-5.33,2.5-7.33,6.3-12.76,3.12-1.55,6.15-2.75,9.17-3.44-.38,1.09-.53,2.25-.39,3.46.03.25.07.49.12.73.59,2.87,2.6,5.39,3.22,6.18,1.03,1.28,2.42,2.67,9.85,7.11,4.7,2.81,7.06,4.22,8.27,4.64,5.87,2.03,10.91,1.12,12.72,1.51.16.4.31.79.46,1.2Z"/>
          <path class="cls-10" d="M37.11,142.34c-.71-.94-1.84-1.5-2.35-2.59-1.63-3.19-1.34-6.96-1.12-10.42.82-9.38,3.76-18.35,6.49-27.3,2.21-6.7,2.96-13.75,5.22-20.42,2.49-6.61,5.16-13.06,8.02-19.52,5.71-12.91,13.58-25.11,24.14-34.68C95.42,12.17,117.99,1.98,141.53.13c9.42-.69,18.9,1.33,27.25,5.71-4.26-1.84-8.74-3.32-13.31-4.11-13.8-2.05-27.87,1.48-40.75,6.29-12.88,5.06-25.05,12.23-35.52,21.27-13.84,12.51-22.27,29.5-29.18,46.6-1.79,4.34-3.68,8.51-4.6,13.01-.99,4.58-2.3,9.13-3.72,13.58-2.9,8.88-6.14,17.62-7.37,26.9-.37,3.4-.79,7.05.61,10.26.45,1.1,1.54,1.72,2.18,2.68h0Z"/>
          <path class="cls-50" d="M98.12,30.35c.24.61,2.14.52,12.56-.79,10.38-1.31,13.29-1.82,13.4-1.45.28.92-17.34,3.18-33.1,13.29-13.14,8.44-19.8,19.03-28.21,32.38-6.96,11.06-14.35,22.8-18.71,39.88-3.02,11.81-3.68,22.63-6.97,28.68-.49-.68-1.05-1.1-1.15-1.19-6.13-5.08,2.29-30.55,2.29-30.55,8.26-24.99,4.45-19.85,9.63-32.5,7.54-18.42,14.05-34.28,29.88-49.22,0,0,23.58-22.23,57.78-27.41,10.64-1.61,18.69-1,26.11,1.55,1.93.67,4.49,1.55,7.13,2.83-8.88.99-27.18,3.67-44.13,10.16-5.73,2.19-9.44,4.11-15.5,7.24-5.81,2.99-11.47,5.95-11.03,7.11Z"/>
          <path class="cls-34" d="M215.84,42.72c-.07.3-3.64-.8-9.21-.52-2.62.13-8.33.43-13.83,3.42-8.66,4.73-12.75,14.01-13.13,14.87-1.02,2.41-1.47,4.37-2.66,5.95-.05.06-.09.12-.15.19-.71-.26-1.5-.48-2.38-.62,0,0-1.55-.26-3.2-.16-1.23.07-3.34.43-5.76,1.49-1.68-2.87-.76-7.66,1.73-9.74,2.07-1.73,4.56-1.02,5.45-2.77.68-1.33-.21-2.89-1.68-5.53-5.27-9.43-4.74-8.79-5.17-9.35-.75-.95-8.19-10.17-20.67-11.97-6.69-.96-12.07.61-12.15.13-.08-.44,4.39-1.98,9.36-2.24,9.12-.47,16.12,3.54,17.46,4.34,10.88,6.48,13.49,17.48,15.22,16.84,1.32-.48-.03-7.03-1.54-11.45-1.11-3.23-3.01-8.79-7.97-13.55-6.98-6.71-15.62-7.6-15.36-8.43.21-.68,6.16-.43,11.87,2.11,1.61.72,8.38,3.92,12.42,11.19,3.19,5.71,2.96,10.82,3.63,10.79,1.23-.06-.72-16.74,2.22-20.86,2.43,5.54,2.22,11.7,3.79,11.74.75.02.99-1.45,2.16-2.67.86-.89,2-1.44,3.28-1.74.63,1.61,1.06,3.35,1.12,5.09.03.84.23,8.08-4.61,11.98-1.57,1.26-3.6,2.11-4.75,4.6-.73,1.58-1.07,3.78-.27,4.21,1.05.58,3.2-2.37,7.26-5.13,1.21-.82,5.83-3.9,11.73-4.87,8.47-1.38,15.88,2.19,15.78,2.63Z"/>
          <path class="cls-10" d="M54.3,106.35c-.94,1.52-12.49,20.23-9.78,22.11.3.2.79.23,1.61-.09-.2.41-.31.69-.49,1.18-2.35,6.34-3.04,12.99-1.39,28.43.78,7.36,1.73,13.22,2.52,17.6.13.76.25,1.47.38,2.13-.39-.68-.8-1.42-1.23-2.26-.12-.22-.24-.46-.37-.7-7.33-14.32-7.73-28.45-7.64-29.8,0-.1.03-.46-.06-.94-.03-.17-.08-.33-.12-.49h0c.22-1.55.49-3.04.8-4.49,0,0,0-.02,0-.03,0,0,0-.03,0-.04.46-2.19,1.02-4.29,1.63-6.26t0-.02c2.39-7.72,5.6-13.69,7.42-17.09,4.35-8.08,9.61-14.92,11.5-16.51-1.56,2.24-3.19,4.66-4.8,7.26Z"/>
          <path class="cls-26" d="M174.47,66c-2.59-.32-5.28-.25-7.5.68-.58.24-1.08.53-1.41.73-.24.15-.38.25-.38.25-3.01,2.1-3.7,5.44-4.08,6.12-3.35,6.16-7.74,9.63-14.14,14.7-2.82,2.24-7.4,5.49-27.62,13.88-17.08,7.1-14.9,5.23-19.68,7.76-10.2,5.41-16.92,12.62-26.69,25.12.39-2.07,1.13-5.12,2.61-8.6,5.42-12.74,16-19.92,23.55-24.91,9.19-6.07,10.24-5.32,25.54-14.14,3.4-1.96,7.22-4.43,11.75-7.84,5.74-4.32,10.95-8.72,19.27-15.93,5.91-5.12,9.24-8.14,12.11-7.16,1.78.61,2.71,2.52,3.21,4.08,1.15,1.75,2.31,3.49,3.46,5.24Z"/>
          <path class="cls-10" d="M111.56,62.92c3.39,4.08,6.8,6.12,9.36,7.24,3.16,1.38,4.47,1.1,7.4,2.9,4.35,2.66,4.58,5.18,6.98,5.26,2.05.07,2.49-1.74,7.4-5.53,4.18-3.23,5.93-3.52,5.87-4.74-.08-1.59-3.07-1.82-11.45-5.92-4.35-2.13-6.09-3.31-7.68-4.87-1.81-1.78-1.92-2.55-2.93-3.03-2-.94-6.02,0-14.94,8.69Z"/>
          <path class="cls-10" d="M191.09,63.85c6.58-5.17,10.19-6.61,12.29-6.91.57-.08,2.07-.22,3.56-1.18,1.85-1.19,1.83-2.43,2.93-3.03,2.95-1.59,10.73,3.1,10.19,6.32-.27,1.59-2.46,2.17-6.98,4.01-3.56,1.45-8.66,3.71-14.73,7.11-2.42-2.11-4.84-4.21-7.26-6.32Z"/>
          <path class="cls-2" d="M73.75,273.82c-2.5,4.1-9.65,9.02-17.02,10.19.27-3.64.82-8.92.96-16.54.27-14.41-1.15-21.55.52-21.91,1.43-.3,2.88,4.84,9.75,17.67,2.87,5.37,4.73,8.41,5.8,10.59Z"/>
          <path class="cls-37" d="M32.78,233.35c.5-1.31,1.07-2.6,1.7-3.9-.22,2.37-.25,4.05-1.02,4.17-.22.04-.45-.07-.68-.27Z"/>
          <path class="cls-50" d="M65.03,192.24c-2.63,5.37-7.93,15.15-13.8,28.84-6.27,14.62-9.67,22.71-11.21,34.35-1.23,9.3-.66,16.19-.74,19.56-.42-.68-.85-1.38-1.28-2.09-5.69-9.35-5.5-18.56-5.31-21.59.34-5.49,2.47-10.58,6.7-20.53,5.83-13.72,9.55-18.66,8.38-19.48-.34-.23-1.06-.12-2,.31,2.72-3.63,5.7-7.45,8.91-11.56,1.14-1.45,5.46-6.93,8.62-10.2.57.8,1.14,1.57,1.73,2.37Z"/>
          <path class="cls-50" d="M57.62,193.25c-.07,2.78-3.81,4.64-6.17,6.02-9.53,5.56-17.55,15.5-22.02,23.02,0-.7.06-1.44.13-2.23.67-6.74,3.75-14.37,6.28-16.32.17-.12.69-.5.63-.92-.13-.94-3.03-.9-5.1-1.64-5.57-2.01-7.59-10.52-6.84-10.93.25-.13.71.67,2.52,2.04.29.21,2.86,2.13,5.17,2.89,4.59,1.5,9.42-1.17,10.61-1.84,1.23-.68,5.97-3.31,6.91-7.76.58-2.69-.59-4.37-2.58-7.87-.39-.68-.8-1.42-1.23-2.26.3,0,.59.05.86.12.33.09.63.21.9.39.59.39.61.72,1.68,2.87,1.6,3.24,3.93,7.3,6.07,10.46,1.71,2.52,2.22,2.9,2.2,3.95Z"/>
          <path class="cls-10" d="M50.67,119.15c-3.19,6.62-4.08,8.27-4.53,9.22-.82.32-1.31.29-1.61.09-2.71-1.88,8.83-20.59,9.78-22.11,1.61-2.59,3.23-5.02,4.8-7.26,0,0,0,0,.02,0,.31-.27.53-.38.63-.33.61.32-2.62,7.01-9.08,20.4Z"/>
          <path class="cls-50" d="M93.27,71.35c-10.25,11.53-23.88,28.21-38.26,50.4-4.66,4.18-7.33,6.01-8.87,6.62.45-.95,1.35-2.6,4.53-9.22,6.46-13.39,9.69-20.08,9.08-20.4-.1-.05-.32.06-.63.33,6.16-8.77,11.72-14.76,14.04-17.21,16.02-16.88,34.8-30.19,36.04-28.95.8.8-6.17,7.45-15.92,18.42Z"/>
          <path class="cls-2" d="M265.31,230.36c-5.39,2.37-11.24.68-13.83-.1-5.47-1.66-8.34-4.17-8.9-3.55-.45.48,1.11,2.35,3.1,4.7-.98-.43-1.81-.92-2.61-1.56-5.83-4.73-8.17-14.63-11.75-14.74-.32,0-1.35.04-1.68-.5-.36-.6.39-1.61.74-2.07,1.58-2.09,2.87-3.78,3.95-5.14.59,2.87,2.6,5.39,3.22,6.18,1.03,1.28,2.42,2.67,9.85,7.11,4.7,2.81,7.06,4.22,8.27,4.64,7.14,2.47,13.03.59,13.41,1.97.25.92-2.21,2.37-3.77,3.06Z"/>
          <path class="cls-34" d="M209.35,96.84c-.59.67,7.02,5.09,11.94,15.4,1.8,3.78,1.46,4.62,3.56,8.09,2.84,4.7,4.86,5.47,8.59,11.05,2.86,4.28,3.93,7.21,4.19,7.11.41-.16-2.3-7.18-5.87-16.39-2.56-6.6-3.85-9.92-4.4-10.86-6.08-10.27-17.33-15.18-18.01-14.41Z"/>
          <path class="cls-10" d="M88.1,47.3c.31,2.47,4.52,2.72,9.5,7.63.39.39,1.28,1.29,2.65,2.37,2.26,1.78,4.24,2.78,4.47,2.9,5.96,2.93,24.42-10.49,23.18-12.5-.41-.67-2.52.69-6.7,0-3.52-.58-5.99-2.19-6.84-2.76-5.11-3.41-4.86-7.18-8.38-8.03-1.67-.4-3.23.25-6.28,1.58-3.69,1.6-12.05,5.23-11.59,8.82Z"/>
        </g>
      </g>
    </g>
  </g>
</svg>