<?xml version="1.0" encoding="UTF-8"?>
<svg id="_Слой_2" data-name="Слой 2" xmlns="http://www.w3.org/2000/svg" xmlns:xlink="http://www.w3.org/1999/xlink" viewBox="0 0 261.43 394.54">
  <defs>
    <style>
      .cls-1 {
        fill: #996430;
      }

      .cls-2 {
        fill: #f9b067;
      }

      .cls-3 {
        fill: #fafbf0;
      }

      .cls-4 {
        fill: #edb477;
      }

      .cls-5 {
        fill: #d8934e;
      }

      .cls-6 {
        fill: #bf302c;
      }

      .cls-7 {
        fill: #a5623d;
      }

      .cls-8 {
        fill: #eabd8a;
      }

      .cls-9 {
        fill: #1a1526;
      }

      .cls-10 {
        fill: #211a35;
      }

      .cls-11 {
        fill: #eebb7d;
      }

      .cls-12 {
        fill: url(#_Безымянный_градиент_390);
      }

      .cls-13 {
        fill: #e8c89a;
      }

      .cls-14 {
        fill: #fff;
      }

      .cls-15 {
        fill: url(#_Безымянный_градиент_255-2);
      }

      .cls-16 {
        fill: url(#_Безымянный_градиент_382);
      }

      .cls-17 {
        fill: #292338;
      }

      .cls-18 {
        fill: #ebbd86;
      }

      .cls-19 {
        fill: none;
        stroke: #000;
        stroke-miterlimit: 10;
        stroke-width: .77px;
      }

      .cls-20 {
        opacity: .23;
      }

      .cls-21 {
        fill: url(#_Безымянный_градиент_382-2);
      }

      .cls-22 {
        fill: #efc18f;
      }

      .cls-23 {
        fill: #cca62b;
      }

      .cls-24 {
        fill: #c17e3d;
      }

      .cls-25 {
        fill: #0a0c07;
      }

      .cls-26 {
        fill: #a37800;
      }

      .cls-27 {
        fill: #a87033;
      }

      .cls-28 {
        fill: url(#_Безымянный_градиент_974);
      }

      .cls-29 {
        fill: #31294c;
      }

      .cls-30 {
        fill: #151226;
      }

      .cls-31 {
        fill: #19152a;
      }

      .cls-32 {
        fill: #fdfdf9;
      }

      .cls-33 {
        fill: url(#_Безымянный_градиент_255);
      }

      .cls-34 {
        fill: url(#_Безымянный_градиент_279);
      }

      .cls-35 {
        fill: #ffc897;
      }

      .cls-36 {
        fill: #4a4066;
      }

      .cls-37 {
        fill: #eaa75e;
      }

      .cls-38 {
        fill: url(#_Безымянный_градиент_974-2);
      }

      .cls-39 {
        fill: #eac08c;
      }

      .cls-40 {
        fill: #edc730;
      }

      .cls-41 {
        fill: #7f5b00;
      }

      .cls-42 {
        fill: #ffddb8;
      }

      .cls-43 {
        fill: #161120;
      }
    </style>
    <linearGradient id="_Безымянный_градиент_390" data-name="Безымянный градиент 390" x1="130.7" y1="22.96" x2="130.7" y2="394.54" gradientUnits="userSpaceOnUse">
      <stop offset="0" stop-color="#d67c81"/>
      <stop offset=".4" stop-color="#ab5264"/>
      <stop offset="1" stop-color="#6f193d"/>
    </linearGradient>
    <linearGradient id="_Безымянный_градиент_974" data-name="Безымянный градиент 974" x1="70.52" y1="170.4" x2="78.4" y2="169.68" gradientUnits="userSpaceOnUse">
      <stop offset="0" stop-color="#ebb637"/>
      <stop offset=".42" stop-color="#de9128"/>
      <stop offset=".78" stop-color="#d6791f"/>
      <stop offset="1" stop-color="#d3711c"/>
    </linearGradient>
    <linearGradient id="_Безымянный_градиент_974-2" data-name="Безымянный градиент 974" x1="-805.24" y1="172" x2="-797.37" y2="171.27" gradientTransform="translate(-604.7) rotate(-180) scale(1 -1)" xlink:href="#_Безымянный_градиент_974"/>
    <linearGradient id="_Безымянный_градиент_279" data-name="Безымянный градиент 279" x1="125.47" y1="107.95" x2="181.21" y2="216.68" gradientUnits="userSpaceOnUse">
      <stop offset="0" stop-color="#f3d99f"/>
      <stop offset=".39" stop-color="#eecb94"/>
      <stop offset="1" stop-color="#e9bb88"/>
    </linearGradient>
    <linearGradient id="_Безымянный_градиент_382" data-name="Безымянный градиент 382" x1="108.97" y1="145.63" x2="97.16" y2="127.6" gradientUnits="userSpaceOnUse">
      <stop offset="0" stop-color="#262e57"/>
      <stop offset=".63" stop-color="#232531"/>
      <stop offset="1" stop-color="#222221"/>
    </linearGradient>
    <linearGradient id="_Безымянный_градиент_382-2" data-name="Безымянный градиент 382" x1="160.36" y1="147.77" x2="173.29" y2="130.52" xlink:href="#_Безымянный_градиент_382"/>
    <linearGradient id="_Безымянный_градиент_255" data-name="Безымянный градиент 255" x1="125.76" y1="199.45" x2="125.76" y2="185.88" gradientUnits="userSpaceOnUse">
      <stop offset="0" stop-color="#c42427"/>
      <stop offset="1" stop-color="#cc5335"/>
    </linearGradient>
    <linearGradient id="_Безымянный_градиент_255-2" data-name="Безымянный градиент 255" x1="146.8" x2="146.8" xlink:href="#_Безымянный_градиент_255"/>
  </defs>
  <g id="_Слой_1-2" data-name="Слой 1">
    <g>
      <g>
        <path class="cls-12" d="M261.41,47.61v322.28c0,1.21-.09,2.4-.26,3.56-.51,3.5-1.77,6.75-3.6,9.62-4.11,6.46-11.16,10.9-19.24,11.42-.17.02-.33.03-.5.03-.13,0-.26,0-.39.01-.23.01-.46.01-.7.01H24.7c-.34,0-.68-.01-1.02-.02-2.34-.1-4.6-.52-6.73-1.23-.02-.01-.04-.02-.06-.02-.79-.26-1.56-.57-2.32-.91t-.02-.01c-.29-.13-.57-.28-.85-.42-.2-.11-.4-.22-.6-.33-.06-.02-.11-.05-.16-.09-.94-.51-1.86-1.06-2.72-1.69-4.04-2.93-7.17-7.06-8.85-11.85-.89-2.53-1.37-5.25-1.37-8.08V47.61c0-5.96,2.15-11.44,5.71-15.72,2.06-2.47,4.58-4.54,7.44-6.05,3.45-1.84,7.38-2.88,11.54-2.88h212.03c2.9,0,5.69.51,8.29,1.44.8.29,1.58.61,2.34.98,7.26,3.48,12.58,10.41,13.79,18.63.18,1.17.27,2.38.27,3.6Z"/>
        <g class="cls-20">
          <path class="cls-14" d="M261.41,299.52v70.37c0,1.21-.09,2.4-.26,3.56-.52,3.5-1.78,6.75-3.62,9.62-4.13,6.46-11.21,10.9-19.33,11.42-.13.01-.26.02-.39.03-.13,0-.26,0-.39.01-.23.01-.46.01-.7.01H24.7c-.34,0-.68-.01-1.02-.02-2.34-.1-4.6-.52-6.73-1.23-.02-.01-.04-.02-.06-.02-.79-.26-1.56-.57-2.32-.91t-.02-.01c-.29-.13-.57-.28-.85-.42-.2-.11-.4-.22-.6-.33-.06-.02-.11-.05-.16-.09-.94-.51-1.86-1.06-2.72-1.69-4.04-2.93-7.17-7.06-8.85-11.85-.89-2.53-1.37-5.25-1.37-8.08v-60.2c2.06-2.38,4.28-4.74,6.64-7.05,4.63-4.54,9.81-8.92,15.44-13.08.22-.16.43-.32.65-.48,4.69-3.43,9.69-6.71,14.97-9.83,7.53-4.45,15.6-8.53,24.07-12.15.22-.09.44-.19.66-.28,4.49-1.91,9.09-3.69,13.8-5.34,3.95-1.38,7.97-2.66,12.05-3.83l.75-.21c9.42-2.68,19.1-4.79,28.9-6.22,4.68-.68,9.38-1.21,14.1-1.57.19-.01.39-.03.58-.04,2.64-.19,5.26-.34,7.91-.43,3.8-.13,7.64-.15,11.49-.05.28,0,.49,0,.51.01,31.67.67,61.71,21.28,61.71,21.28,14.22,9.76,16.36,15.41,32.22,23.11,6.12,2.97,11.42,4.86,14.96,5.99Z"/>
          <polygon class="cls-14" points="261.41 299.52 261.41 343.38 213.66 344.02 209.02 344.08 176.2 344.52 163.76 344.69 150.98 344.86 140.01 345 117.81 345.3 79.02 345.82 73.53 345.89 73.45 340.2 73.13 316.12 72.94 302.03 97.05 301.71 103.5 301.62 140.93 301.12 149.46 301.01 186.01 300.52 188.41 300.49 246.45 299.72 261.41 299.52"/>
          <path class="cls-14" d="M247.35,25.38l-41.65,186.82-19.69,88.32-.85,3.83-3.65,16.34-5.31,23.83-4.38,19.66-.68,3.03-1.67,7.49-4.42,19.84h-44.94l1.33-5.98,2.64-11.81,1.63-7.34,1.59-7.1,3.83-17.19,1.65-7.4,4.21-18.9,3.94-17.7,3.47-15.54,18.47-82.86L202.95,22.96h33.77c2.9,0,5.69.51,8.29,1.44.8.29,1.58.61,2.34.98Z"/>
          <path class="cls-14" d="M180.1,394.54h-46.15l-6.96-21.24-1.28-3.89-2.38-7.27-5.52-16.84-9.06-27.68-2.02-6.16-3.23-9.84-27.27-83.24L13.15,25.84c3.45-1.84,7.38-2.88,11.54-2.88h33.67l59.57,181.84,26.47,80.78,5.06,15.43,6.09,18.59,4.68,14.3,3.53,10.79,6.37,19.42,1.01,3.1,4.49,13.69.65,1.98,3.82,11.66Z"/>
          <polygon class="cls-14" points="189.17 394.54 127.37 394.54 121.44 388.56 117.48 384.57 93.99 360.9 79.02 345.82 73.45 340.2 48.53 315.08 6.64 272.87 0 266.18 0 203.91 37.7 241.91 97.05 301.71 106.73 311.46 113.02 317.81 132.78 337.72 140.01 345 145.87 350.91 158.48 363.62 169.47 374.7 175.63 380.9 176.89 382.17 189.17 394.54"/>
          <polygon class="cls-14" points="72.26 394.49 134.06 394.49 139.99 388.51 143.95 384.52 167.44 360.85 182.41 345.77 187.98 340.15 212.9 315.03 254.79 272.82 261.43 266.13 261.43 203.86 223.73 241.86 164.38 301.66 154.7 311.41 148.41 317.76 128.65 337.67 121.42 344.95 115.56 350.86 102.95 363.57 91.96 374.65 85.8 380.85 84.54 382.12 72.26 394.49"/>
        </g>
        <g>
          <path class="cls-14" d="M50.22,121.69l9.44,2.35c.98.24,1,1.62.04,1.9l-9.34,2.7c-3.62,1.05-6.41,3.94-7.32,7.6l-2.34,9.43c-.24.97-1.62,1-1.9.04l-2.71-9.33c-1.05-3.62-3.95-6.41-7.61-7.32l-9.44-2.35c-.98-.24-1-1.62-.04-1.9l9.34-2.7c3.62-1.05,6.41-3.94,7.32-7.6l2.34-9.43c.24-.97,1.62-1,1.9-.04l2.71,9.33c1.05,3.62,3.95,6.41,7.61,7.32Z"/>
          <path class="cls-14" d="M246.36,62.62l9.34,2.73c.96.28.94,1.66-.04,1.9l-9.44,2.32c-3.66.9-6.56,3.68-7.62,7.3l-2.72,9.33c-.28.96-1.66.93-1.9-.04l-2.34-9.43c-.91-3.66-3.69-6.56-7.31-7.62l-9.34-2.73c-.96-.28-.94-1.66.04-1.9l9.44-2.32c3.66-.9,6.56-3.68,7.62-7.3l2.72-9.33c.28-.96,1.66-.93,1.9.04l2.34,9.43c.91,3.66,3.69,6.56,7.31,7.62Z"/>
          <path class="cls-14" d="M239.41,282.4l13.57,3.96c1.4.41,1.36,2.41-.06,2.76l-13.73,3.38c-5.32,1.31-9.54,5.35-11.07,10.6l-3.96,13.55c-.41,1.4-2.41,1.36-2.76-.06l-3.39-13.71c-1.32-5.32-5.37-9.53-10.63-11.07l-13.57-3.96c-1.4-.41-1.36-2.41.06-2.76l13.73-3.38c5.32-1.31,9.54-5.35,11.07-10.6l3.96-13.55c.41-1.4,2.41-1.36,2.76.06l3.39,13.71c1.32,5.32,5.37,9.53,10.63,11.07Z"/>
          <path class="cls-14" d="M61.14,216.42l13.73,3.38c1.42.35,1.46,2.35.06,2.76l-13.57,3.96c-5.26,1.53-9.3,5.75-10.61,11.07l-3.38,13.71c-.35,1.42-2.35,1.46-2.76.06l-3.98-13.56c-1.54-5.26-5.77-9.3-11.09-10.61l-13.73-3.38c-1.42-.35-1.46-2.35-.06-2.76l13.57-3.96c5.26-1.53,9.3-5.75,10.61-11.07l3.38-13.71c.35-1.42,2.35-1.46,2.76-.06l3.98,13.56c1.54,5.26,5.77,9.3,11.09,10.61Z"/>
          <path class="cls-14" d="M44.14,63.12l7.89,2.31c.82.24.79,1.4-.03,1.6l-7.98,1.96c-3.1.76-5.55,3.11-6.44,6.17l-2.3,7.88c-.24.81-1.4.79-1.6-.03l-1.97-7.98c-.77-3.09-3.12-5.55-6.18-6.44l-7.89-2.31c-.82-.24-.79-1.4.03-1.6l7.98-1.96c3.1-.76,5.55-3.11,6.44-6.17l2.3-7.88c.24-.81,1.4-.79,1.6.03l1.97,7.98c.77,3.09,3.12,5.55,6.18,6.44Z"/>
          <path class="cls-14" d="M58.04,310.02l13.72,3.43c1.42.35,1.45,2.35.05,2.76l-13.58,3.91c-5.27,1.52-9.32,5.72-10.65,11.03l-3.42,13.7c-.35,1.41-2.35,1.45-2.76.05l-3.93-13.57c-1.52-5.26-5.73-9.32-11.05-10.65l-13.72-3.43c-1.42-.35-1.45-2.35-.05-2.76l13.58-3.91c5.27-1.52,9.32-5.72,10.65-11.03l3.42-13.7c.35-1.41,2.35-1.45,2.76-.05l3.93,13.57c1.52,5.26,5.73,9.32,11.05,10.65Z"/>
          <path class="cls-14" d="M91.25,195.04l9.21,2.43c.95.25.96,1.6.01,1.86l-9.18,2.52c-3.56.98-6.33,3.78-7.27,7.34l-2.42,9.2c-.25.95-1.6.96-1.86,0l-2.53-9.18c-.98-3.56-3.79-6.33-7.36-7.27l-9.21-2.43c-.95-.25-.96-1.6-.01-1.86l9.18-2.52c3.56-.98,6.33-3.78,7.27-7.34l2.42-9.2c.25-.95,1.6-.96,1.86,0l2.53,9.18c.98,3.56,3.79,6.33,7.36,7.27Z"/>
          <path class="cls-14" d="M224.01,174.73l8.25,2.41c.85.25.83,1.46-.03,1.67l-8.34,2.05c-3.23.8-5.8,3.25-6.73,6.44l-2.4,8.23c-.25.85-1.46.82-1.68-.04l-2.06-8.33c-.8-3.23-3.26-5.79-6.46-6.73l-8.25-2.41c-.85-.25-.83-1.46.03-1.67l8.34-2.05c3.23-.8,5.8-3.25,6.73-6.44l2.4-8.23c.25-.85,1.46-.82,1.68.04l2.06,8.33c.8,3.23,3.26,5.79,6.46,6.73Z"/>
          <path class="cls-14" d="M183.11,40.44l8.25,2.41c.85.25.83,1.46-.03,1.67l-8.34,2.05c-3.23.8-5.8,3.25-6.73,6.44l-2.4,8.23c-.25.85-1.46.82-1.68-.04l-2.06-8.33c-.8-3.23-3.26-5.79-6.46-6.73l-8.25-2.41c-.85-.25-.83-1.46.03-1.67l8.34-2.05c3.23-.8,5.8-3.25,6.73-6.44l2.4-8.23c.25-.85,1.46-.82,1.68.04l2.06,8.33c.8,3.23,3.26,5.79,6.46,6.73Z"/>
          <path class="cls-14" d="M137.14,113.47l5.45,1.59c.56.16.55.97-.02,1.11l-5.52,1.36c-2.14.53-3.83,2.15-4.45,4.26l-1.59,5.45c-.16.56-.97.55-1.11-.02l-1.36-5.51c-.53-2.14-2.16-3.83-4.27-4.45l-5.45-1.59c-.56-.16-.55-.97.02-1.11l5.52-1.36c2.14-.53,3.83-2.15,4.45-4.26l1.59-5.45c.16-.56.97-.55,1.11.02l1.36,5.51c.53,2.14,2.16,3.83,4.27,4.45Z"/>
          <path class="cls-14" d="M90.84,51.63l7.87,2.3c.81.24.79,1.4-.03,1.6l-7.96,1.96c-3.09.76-5.53,3.1-6.42,6.15l-2.29,7.86c-.24.81-1.4.79-1.6-.03l-1.97-7.95c-.76-3.08-3.11-5.53-6.16-6.42l-7.87-2.3c-.81-.24-.79-1.4.03-1.6l7.96-1.96c3.09-.76,5.53-3.1,6.42-6.15l2.29-7.86c.24-.81,1.4-.79,1.6.03l1.97,7.95c.76,3.08,3.11,5.53,6.16,6.42Z"/>
        </g>
      </g>
      <g>
        <g>
          <path class="cls-43" d="M184.74,33.25c4.35-.35,8.09,4.55,9.54,7.31,3.82,7.25.95,16.94-5.71,21.75-4.27,3.09-11.82,5.42-15.24,2.23-6.37-5.93,2.09-30.53,11.41-31.29Z"/>
          <path class="cls-17" d="M254.26,176.25c-1.04-4.69-2.81-9.54-7.67-18.07-7.43-13.02-9.15-11.94-13.85-20.92-1.91-3.65-3.36-7.17-4.5-10.45-1.48-4.26-2.42-8.14-3.13-11.45-.25-1.16-.46-2.23-.66-3.23-1.99-10.05-.63-10.58-2.14-22.38-.43-3.41-.89-6.88-1.49-10.37-.57-.02-1.2-.05-1.89-.06-8.8-.1-12.24,2.27-16.26,2.62-.91.07-1.84.05-2.87-.13-3.6-.63-8.61-3.15-13.73-12.37-.02-.03-.04-.07-.06-.11,10.16-2.04,20.32-4.08,30.48-6.13-1.72-4.32-4-8.55-7.09-12.56-4.94-6.42-12.83-13.43-16.82-11.53-2.9,1.38-1.44,6.38-5.88,13.13-3.37,5.12-8.18,8.27-9.3,8.02-1.71,1.71-3.51,2.78-4.23,2.34-.78-.47.02-2.52,1.08-8.2.96-5.23,1.48-8.18,1.19-11.41-.32-3.44-1.44-5.83-2.98-9.03-2.58-5.39-5.5-11.46-11.53-14.98-4.65-2.71-9.02-2.67-15.45-2.62-12.45.11-21.78,4.15-22.1,3.21-.17-.47,2.21-1.72,3.45-2.37,3-1.57,8.06-4.17,15.45-4.99,5.38-.6,15.55-1.73,24.85,4.64,7.16,4.89,9.99,11.63,11.65,15.57,1.07,2.54,5.3,12.6,2.73,21.1,2.67-3.98,5.79-9.61,6.92-16.67.47-2.9,1.53-10.11-1.9-17.95-4.36-9.97-13.09-14.35-15.86-15.69-9.13-4.41-17.43-3.45-28.47-2.02-5.26.68-20.84,3.11-38.42,12.75-9.15,5.02-18.37,10.07-26.74,19.97-2.67,3.15-5.72,7.35-11.67,12.3-5.25,4.36-11.41,9.34-18.1,8.02-.93-.18-4.88-.96-7.04-4.46-1.95-3.15-1.23-6.54-1.07-7.22.69-2.92,2.58-4.65,3.92-5.88,2.55-2.34,4.99-3.07,4.99-3.12-.04-.09-9.77,1.49-14.18,8.56-3.43,5.52-2.19,12.09-1.52,15.69.21,1.12.68,3.6,1.85,6.33,4.01-.55,9.6,3.27,23.27,5.62,7.91,1.36,14.64,1.56,19.37,1.48-3.8,5.22-9.58,12.15-17.82,18.97-6.69,5.54-11.83,9.78-16.15,11.34-.51,3.14-1.17,7.28-2.13,12.97-.07.44-.23,1.3-.89,2.05-2.51,2.85-9.68,1.13-14.27-1.79-1.97-1.25-6.51-4.13-6.77-8.91-.17-2.98,1.4-5.3,1.69-5.7,1.6-2.28,3.79-3.16,4.81-3.56,2.69-1.05,4.8-.71,4.81-.99.02-.34-3.23-1.44-6.51-.89-4.93.83-9.07,5.23-10.7,9.81-1.5,4.2-.78,8.24.45,11.48,3.23,3.36,8.75,8.02,16.58,9.91,13.47,3.25,26-3.56,33.76-7.78,13.8-7.5,17.48-14.68,20.68-13.01,4.92,2.57,4.23,24.26-7.49,32.98-10.9,8.11-24.35-.24-32.62,9.09-1.81,2.03-2.01,3.37-4.81,16.22-2.37,10.82-3.92,17.6-4.93,22.02.04,1.49.17,3.37.65,5.46.85,3.71,2.59,6.7,6.07,12.68,1.16,2,2.18,3.63,2.91,4.76.64,8.09,2.8,14.24,4.52,18.15,1.85,4.22,8.06,18.37,21.63,23.72,5.89,2.33,11.99,2.53,12.24,1.72.2-.66-3.65-1.55-8.08-5.47-4.68-4.12-6.34-8.38-6.9-10.04-.71-2.1-1.54-4.61-.83-5.05,1.6-1.02,8.54,9.82,20.92,20.68,5.35,4.69,10.19,8.06,13.55,10.22,12.34-9.14,22.69-11.31,29.89-11.6,24.85-.98,41.46,19.41,63.83,12.66,4.39-1.32,9.88-3.96,9.75-4.34-.13-.38-5.44,2-12.54,1.31-3.36-.32-5.9-1.21-7.84-2.2-2.05-1.03-5.5-2.84-6.6-6.42-.14-.47-.79-2.58,0-3.15,1.2-.87,4.16,2.92,8.26,5.05,8.57,4.45,19.11.05,22.64-1.42,7.23-3.02,11.11-7.45,11.95-8.44,3.6-4.25,5.46-9.05,4.81-9.51-.8-.57-4.08,6.31-10.82,7.66-5.42,1.09-10.2-1.96-11.41-2.74,0,0-3.98-2.54-6.42-7.73-1.08-2.27-.6-3.22-.42-3.51.18-.29.42-.47.59-.59,15.28-7.07,24.97-15.97,30.34-21.75,6.03-6.48,11.05-11.88,12.78-19.97,2.34-10.93,1.36-19.08,1.36-19.08-.18-1.56-.48-3.33-.11-3.44.78-.24,4.69,7.11,6.06,15.28.51,3.06,1.75,11.06-1.85,20.03-3.35,8.38-9.24,13.46-11.76,15.57-3.1,2.6-5.74,4.06-5.59,4.33.25.43,7.37-2.08,13.74-7.19,2.9-2.33,11.68-9.39,13.49-21.1.81-5.26-.1-9.39-1.07-13.73Z"/>
          <path class="cls-30" d="M161.63,256.43c5.62-5.1,3.87-6.42,14.26-18.9,9.71-11.66,12.33-11.81,24.61-24.96,11.49-12.31,18.19-19.61,23.36-31.38,3.12-7.11,6.36-14.49,5.88-24.07-.57-11.38-5.78-13.63-16.94-34.95-10.8-20.63-10.4-27.08-19.79-34.23-1.53-1.16-7.74-5.72-19.08-8.02-46.3-9.42-119.99,30.48-127.13,60.26-1.92,8.01-2.32,16.94-2.32,16.94-.3,6.84-.7,15.63,2.32,24.61,1.04,3.09,3.4,8.94,18.72,24.96,13.93,14.56,15.15,13.04,21.57,20.68,16,19.02,9.47,29.68,21.04,37.62,14.48,9.93,39.95,3.72,53.49-8.56Z"/>
          <path class="cls-19" d="M36.05,139.26c.39.05,1.32.15,1.7.8.95,1.64-2.59,4.91-5.18,8.38-2.41,3.25-3.6,6.59-5.97,13.28-4.41,12.44-3.8,20.14-5.98,20.33-1.68.14-3.3-4.35-3.92-6.07-2.63-7.29-.66-13.85-.18-15.33.88-2.7,3.38-5.87,8.38-12.21,5.79-7.35,8.52-9.48,11.14-9.19Z"/>
          <path class="cls-30" d="M145.25,62.45c-4.76-9.22,3.83-19.17,6.06-21.75,2.19-2.54,6.99-8.09,12.6-7.13,5.55.95,8.26,7.66,9.15,9.87,2.55,6.32,4.72,20.06-4.64,25.56-7.62,4.48-19.14,1.29-23.18-6.54Z"/>
          <path class="cls-4" d="M177.8,260.75c-.25,3.74-2.13,26.3-20.97,40.5-11.09,8.36-22.75,9.82-26.74,10.16-5.3.45-16.53,1.4-27.01-5.43-6.23-4.06-9.72-9.26-11.15-11.43-2.42-3.68-5.49-8.22-6.11-14.89-.67-7.25,1.89-12.97,3.36-15.68,3.34-1.45,7.94-3.83,12.71-7.7,1.13-.92,6.41-5.23,9.99-10.58,8.28-12.37,6.29-27.18,5.42-32.08,12.36-.18,24.72-.36,37.08-.54-1.16,16.54,1.08,29.33,4.5,34.08,1.52,2.12,3.3,3.84,3.3,3.84,2.77,1.93,5.74,3.88,8.89,5.82,2.29,1.41,4.53,2.72,6.72,3.94Z"/>
          <g>
            <g>
              <g>
                <path class="cls-8" d="M92.27,170.62c-4.05,2.16-9.27,1.58-13.01.77-.08-1.1-.29-1.9-.53-1.95-.24-.05-.37.61-.74,1.67-.72-.18-1.35-.35-1.88-.49-.02,0-.05-.02-.08-.02,0-.03,0-.07,0-.1-.24-.05-.47-.1-.69-.15,0,.02-.02.04-.02.06-1.01-.28-2.28-.67-3.69-1.26-.18-.07-.36-.15-.53-.22-.38-.16-.76-.34-1.16-.53-.63-.3-1.27-.65-1.92-1.04-1.89-1.11-3.85-2.59-5.68-4.58-5.04-5.45-6.17-11.52-7.02-16.05-.49-2.64-1.12-6-.8-9.89,1.54.07,3.39-.15,5.45-.6.02-.05.03-.11.05-.16.02-.05.03-.1.05-.14t0-.02s.04-.1.06-.17c.09-.23.23-.61.45-1.07,0-.02,0-.03.02-.05h0c.07-.15.15-.31.25-.48.05-.09.11-.19.16-.29.11-.19.23-.39.37-.6.14-.2.29-.41.44-.61s.32-.41.51-.62c.09-.1.19-.2.29-.3.1-.09.2-.19.3-.29.09-.08.18-.16.27-.24.12-.11.26-.21.39-.32.09-.07.19-.14.29-.2.05-.04.09-.07.15-.1s.1-.06.15-.09c.1-.06.21-.12.31-.19.16-.08.33-.16.5-.24.13-.06.26-.12.4-.17.04-.02.08-.03.12-.05.12-.04.25-.08.37-.12,1.57-.47,3.04-.32,4.25.02.17.05.32.09.48.15.1.03.2.06.29.09.15.05.3.11.44.16.09.04.18.08.26.11.09.04.16.07.25.1h0c.16.08.31.14.44.2.12.05.24.12.36.17.12.06.23.12.35.19h0c.12.07.23.13.35.2.12.08.24.15.36.23,5.65-2.6,11.27-5.8,15.59-8.9,1.38.95,2.66,1.99,3.79,3.12,13.03,12.92,10.15,39.19-.84,45.05Z"/>
                <path class="cls-27" d="M60.05,135.9c0,.1.02.19.02.29.06.99.13,1.99.19,2.98,3.2.22,7.89,2.42,11.22,5.25,4.84,4.1,8.02,10.57,8.55,14.88,3.24.47,6.33.03,7.48-1.77.62-.96.64-2.26-4.04-11.53-4.99-9.86-7.41-13.09-9.75-14.67-.47-.31-.94-.56-1.43-.79-.55-.24-1.28-.57-2.17-.81-1.21-.33-2.68-.48-4.25-.02-4.02,1.19-5.59,5.5-5.83,6.18Z"/>
                <path class="cls-1" d="M60.26,139.18c.18,2.59.34,5.18.51,7.78,2.07-.51,4.72-.83,6.06.59.07.07.14.15.18.22.67.89.49,1.94.89,3.34.99,3.55,4.58,5.46,6.18,6.3,1.73.92,3.87,1.6,5.95,1.89-.54-4.31-3.72-10.78-8.55-14.88-3.32-2.82-8.02-5.03-11.22-5.25Z"/>
                <path class="cls-24" d="M67.01,147.78c-.05-.07-.11-.15-.18-.22-1.34-1.42-3.99-1.11-6.06-.59-.54-1.06-1.31-2.9-1.48-5.33-.17-2.33.28-4.23.67-5.41.03-.11.07-.22.1-.32.23-.67,1.81-4.99,5.82-6.18,1.57-.47,3.04-.31,4.25.02.26.83.43,1.83.49,2.95.3,4.83-1.14,11.74-3.61,15.08Z"/>
              </g>
              <path class="cls-35" d="M89.32,122.45c-4.32,3.1-9.94,6.29-15.59,8.89-.47-.31-.94-.56-1.43-.79-.55-.24-1.28-.57-2.17-.81-1.21-.33-2.68-.48-4.25-.02-4.02,1.19-5.59,5.5-5.82,6.18-.03.1-.07.21-.1.32-2.06.45-3.92.67-5.46.6.15-1.93.54-3.99,1.28-6.15.75-2.17,2.67-7.74,7.37-10.94,7.11-4.84,18.31-2.68,26.17,2.71Z"/>
            </g>
            <path class="cls-8" d="M79.25,171.39c-.45-.09-.87-.19-1.27-.29-.34-.49-.3-1.12.06-1.5.27-.29.74-.45,1.05-.3.44.22.64,1.1.16,2.09Z"/>
            <path class="cls-8" d="M76.03,170.6c-.22-.05-.46-.12-.72-.19-.08-.04-.13-.09-.12-.11,0-.02.07-.02.1-.02.12,0,.28,0,.46.04.15.03.27.08.36.13.09.04.15.09.14.12,0,.04-.1.06-.23.04Z"/>
            <path class="cls-28" d="M76.12,172.46c-.38,1.12-.67,1.55-.86,1.8-.34.44-.61.62-.72.69-.4.24-.79.3-1.07.34-.49.07-1.94.29-3-1.27-.92-1.36-.9-3.15-.9-3.57.02-.79.16-1.48.36-2.05,0-.02.02-.05.02-.07.35-1.03.87-1.7,1.08-1.96,1.14-1.34,2.94-1.91,3.99-.81.42.43.76,1.18.63,1.51-.16.45-1-.25-2.19.19-.27.1-.99.42-1.55,1.35-.09.15-.19.32-.29.54,0,0,0,0,0,.02-.15.32-.26.71-.29,1.2-.05,1.1.43,1.88.53,2.05.15.23.53.87,1.1.92.86.09,1.53-1.18,1.85-1.78.22-.43.39-.83.49-1.15.12.03.25.07.37.1.31.08.61.17.92.24-.15.7-.33,1.27-.47,1.7Z"/>
          </g>
          <g>
            <g>
              <path class="cls-8" d="M178.8,172.11c5.4,2.88,12.85.88,16.17,0,2.8-.75,8.79-2.43,13.78-7.85,5.04-5.45,6.17-11.52,7.02-16.05.49-2.64,1.12-6,.8-9.89-1.54.07-3.39-.15-5.46-.6-.03-.11-.07-.22-.1-.32-.23-.67-1.81-4.99-5.82-6.18-1.57-.47-3.04-.31-4.25.02-.88.24-1.62.57-2.17.81-.49.22-.95.47-1.43.79-5.65-2.6-11.27-5.79-15.59-8.89-1.38.95-2.66,1.99-3.79,3.11-13.03,12.93-10.15,39.19.83,45.05Z"/>
              <path class="cls-27" d="M211.01,137.39c0,.1-.02.19-.02.29-.06.99-.13,1.99-.19,2.98-3.2.22-7.89,2.42-11.22,5.25-4.84,4.1-8.02,10.57-8.55,14.88-3.24.47-6.33.03-7.48-1.77-.62-.96-.64-2.26,4.04-11.53,4.99-9.86,7.41-13.09,9.75-14.67.47-.31.94-.56,1.43-.79.55-.24,1.28-.57,2.17-.81,1.21-.33,2.68-.48,4.25-.02,4.02,1.19,5.59,5.5,5.83,6.18Z"/>
              <path class="cls-1" d="M210.8,140.67c-.18,2.59-.34,5.18-.51,7.78-2.07-.51-4.72-.83-6.06.59-.07.07-.14.15-.18.22-.67.89-.49,1.94-.89,3.34-.99,3.55-4.58,5.46-6.18,6.3-1.73.92-3.87,1.6-5.95,1.89.54-4.31,3.72-10.78,8.55-14.88,3.32-2.82,8.02-5.03,11.22-5.25Z"/>
              <path class="cls-24" d="M204.05,149.27c.05-.07.11-.15.18-.22,1.34-1.42,3.99-1.11,6.06-.59.54-1.06,1.31-2.9,1.48-5.33.17-2.33-.28-4.23-.67-5.41-.03-.11-.07-.22-.1-.32-.23-.67-1.81-4.99-5.82-6.18-1.57-.47-3.04-.31-4.25.02-.26.83-.43,1.83-.49,2.95-.3,4.83,1.14,11.74,3.61,15.08Z"/>
            </g>
            <path class="cls-35" d="M181.75,123.94c4.32,3.1,9.94,6.29,15.59,8.89.47-.31.94-.56,1.43-.79.55-.24,1.28-.57,2.17-.81,1.21-.33,2.68-.48,4.25-.02,4.02,1.19,5.59,5.5,5.82,6.18.03.1.07.21.1.32,2.06.45,3.92.67,5.46.6-.15-1.93-.54-3.99-1.28-6.15-.75-2.17-2.67-7.74-7.37-10.94-7.11-4.84-18.31-2.68-26.17,2.71Z"/>
          </g>
          <g>
            <g>
              <g>
                <path class="cls-8" d="M178.8,172.21c4.05,2.16,9.27,1.58,13.01.77.08-1.1.29-1.9.53-1.95.24-.05.37.61.74,1.67.72-.18,1.35-.35,1.88-.49.02,0,.05-.02.08-.02,0-.03,0-.07,0-.1.24-.05.47-.1.69-.15,0,.02.02.04.02.06,1.01-.28,2.28-.67,3.69-1.26.18-.07.36-.15.53-.22.38-.16.76-.34,1.16-.53.63-.3,1.27-.65,1.92-1.04,1.89-1.11,3.85-2.59,5.68-4.58,5.04-5.45,6.17-11.52,7.02-16.05.49-2.64,1.12-6,.8-9.89-1.54.07-3.39-.15-5.45-.6-.02-.05-.03-.11-.05-.16-.02-.05-.03-.1-.05-.14t0-.02s-.04-.1-.06-.17c-.09-.23-.23-.61-.45-1.07,0-.02,0-.03-.02-.05h0c-.07-.15-.15-.31-.25-.48-.05-.09-.11-.19-.16-.29-.11-.19-.23-.39-.37-.6-.14-.2-.29-.41-.44-.61s-.32-.41-.51-.62c-.09-.1-.19-.2-.29-.3-.1-.09-.2-.19-.3-.29-.09-.08-.18-.16-.27-.24-.12-.11-.26-.21-.39-.32-.09-.07-.19-.14-.29-.2-.05-.04-.09-.07-.15-.1s-.1-.06-.15-.09c-.1-.06-.21-.12-.31-.19-.16-.08-.33-.16-.5-.24-.13-.06-.26-.12-.4-.17-.04-.02-.08-.03-.12-.05-.12-.04-.25-.08-.37-.12-1.57-.47-3.04-.32-4.25.02-.17.05-.32.09-.48.15-.1.03-.2.06-.29.09-.15.05-.3.11-.44.16-.09.04-.18.08-.26.11-.09.04-.16.07-.25.1h0c-.16.08-.31.14-.44.2-.12.05-.24.12-.36.17-.12.06-.23.12-.35.19h0c-.12.07-.23.13-.35.2-.12.08-.24.15-.36.23-5.65-2.6-11.27-5.8-15.59-8.9-1.38.95-2.66,1.99-3.79,3.12-13.03,12.92-10.15,39.19.84,45.05Z"/>
                <path class="cls-27" d="M211.01,137.5c0,.1-.02.19-.02.29-.06.99-.13,1.99-.19,2.98-3.2.22-7.89,2.42-11.22,5.25-4.84,4.1-8.02,10.57-8.55,14.88-3.24.47-6.33.03-7.48-1.77-.62-.96-.64-2.26,4.04-11.53,4.99-9.86,7.41-13.09,9.75-14.67.47-.31.94-.56,1.43-.79.55-.24,1.28-.57,2.17-.81,1.21-.33,2.68-.48,4.25-.02,4.02,1.19,5.59,5.5,5.83,6.18Z"/>
                <path class="cls-1" d="M210.81,140.77c-.18,2.59-.34,5.18-.51,7.78-2.07-.51-4.72-.83-6.06.59-.07.07-.14.15-.18.22-.67.89-.49,1.94-.89,3.34-.99,3.55-4.58,5.46-6.18,6.3-1.73.92-3.87,1.6-5.95,1.89.54-4.31,3.72-10.78,8.55-14.88,3.32-2.82,8.02-5.03,11.22-5.25Z"/>
                <path class="cls-24" d="M204.06,149.37c.05-.07.11-.15.18-.22,1.34-1.42,3.99-1.11,6.06-.59.54-1.06,1.31-2.9,1.48-5.33.17-2.33-.28-4.23-.67-5.41-.03-.11-.07-.22-.1-.32-.23-.67-1.81-4.99-5.82-6.18-1.57-.47-3.04-.31-4.25.02-.26.83-.43,1.83-.49,2.95-.3,4.83,1.14,11.74,3.61,15.08Z"/>
              </g>
              <path class="cls-35" d="M181.75,124.04c4.32,3.1,9.94,6.29,15.59,8.89.47-.31.94-.56,1.43-.79.55-.24,1.28-.57,2.17-.81,1.21-.33,2.68-.48,4.25-.02,4.02,1.19,5.59,5.5,5.82,6.18.03.1.07.21.1.32,2.06.45,3.92.67,5.46.6-.15-1.93-.54-3.99-1.28-6.15-.75-2.17-2.67-7.74-7.37-10.94-7.11-4.84-18.31-2.68-26.17,2.71Z"/>
            </g>
            <path class="cls-8" d="M191.82,172.98c.45-.09.87-.19,1.27-.29.34-.49.3-1.12-.06-1.5-.27-.29-.74-.45-1.05-.3-.44.22-.64,1.1-.16,2.09Z"/>
            <path class="cls-8" d="M195.04,172.19c.22-.05.46-.12.72-.19.08-.04.13-.09.12-.11,0-.02-.07-.02-.1-.02-.12,0-.28,0-.46.04-.15.03-.27.08-.36.13-.09.04-.15.09-.14.12,0,.04.1.06.23.04Z"/>
            <path class="cls-38" d="M194.95,174.05c.38,1.12.67,1.55.86,1.8.34.44.61.62.72.69.4.24.79.3,1.07.34.49.07,1.94.29,3-1.27.92-1.36.9-3.15.9-3.57-.02-.79-.16-1.48-.36-2.05,0-.02-.02-.05-.02-.07-.35-1.03-.87-1.7-1.08-1.96-1.14-1.34-2.94-1.91-3.99-.81-.42.43-.76,1.18-.63,1.51.16.45,1-.25,2.19.19.27.1.99.42,1.55,1.35.09.15.19.32.29.54,0,0,0,0,0,.02.15.32.26.71.29,1.2.05,1.1-.43,1.88-.53,2.05-.15.23-.53.87-1.1.92-.86.09-1.53-1.18-1.85-1.78-.22-.43-.39-.83-.49-1.15-.12.03-.25.07-.37.1-.31.08-.61.17-.92.24.15.7.33,1.27.47,1.7Z"/>
          </g>
          <path class="cls-31" d="M84.37,105.12c1.84-5.3,3.19-7.76,2.2-8.62-3.93-3.43-28.9,31.74-55.15,28.41-8.12-1.03-14.26-5.48-18.07-8.9.9,2.38,2.07,4.33,2.85,5.63,1.28,2.13,4.77,7.93,11.23,9.98,3.97,1.27,6.84.42,7.13,1.43.51,1.79-8.7,3.67-16.14,11.59-5.66,6.03-7.34,12.42-7.66,13.73-.39,1.56-2.09,8.99.95,17.11,1.67,4.46,4.87,9.38,6.8,9.89.22.06,1.52.34,1.76,1.16.1.34-.02.64-.04.71-.33.98-.09,7.09,1.65,13.06,1.05,3.62,4,13.7,13.01,20.32,3.08,2.26,6.6,3.91,7.08,3.3.74-.91-6.4-5.32-9.45-14.27-1.08-3.19-1.24-6.29-1.56-12.48-.16-3.17-.17-6.87,1.11-11.14.14-.48,1.29-4.31,2.05-4.19.45.06.32,1.43.38,3.59.33-1.56.83-3.81,1.48-6.51.63-2.61,1.83-7.41,4.43-16,3.98-13.11,5.23-15.28,7.61-16.28,1.51-.63,3.01-.61,4.99-2.14,2.03-1.57,2.83-3.45,3.74-5.35,3.15-6.54,4.72-9.81,6.83-10.94,4.59-2.44,9.86,2.46,12.48-.12,1.86-1.84.72-5.82.83-5.82.21-.02,1.15,13.79,1.89,13.79.51,0-2.63-7.38,5.56-30.95ZM32.57,148.44c-2.41,3.25-3.6,6.59-5.97,13.28-4.41,12.44-3.8,20.14-5.98,20.33-1.68.14-3.3-4.35-3.92-6.07-2.63-7.29-.66-13.85-.18-15.33.88-2.7,3.38-5.87,8.38-12.21,5.79-7.35,8.52-9.48,11.14-9.19.39.05,1.32.15,1.7.8.95,1.64-2.59,4.91-5.18,8.38Z"/>
          <path class="cls-4" d="M154.38,222.29v11.56c-4.54,4.65-11.16,7.57-18.53,7.57s-14.01-2.93-18.55-7.58v-10.97c12.36-.19,24.72-.39,37.08-.58Z"/>
          <path class="cls-11" d="M154.38,213.07v10.76c-4.54,4.32-11.16,7.04-18.53,7.04s-14.01-2.73-18.55-7.05v-10.21c12.36-.18,24.72-.36,37.08-.54Z"/>
          <path class="cls-5" d="M185.44,181.16s-8.47,18.23-24.72,33.52c-3.83,3.59-7.73,6.69-13.32,8.55-9.18,3.07-17.38.93-21.63-.23-11.91-3.27-19.23-10.58-23.3-14.74-4.41-4.52-9.15-10.72-13.31-19.97-4.93-10.96-14.91-33.14-14.38-57.92.62,23,9.74,43.26,14.38,53.57,4.16,9.25,8.9,15.45,13.31,19.97,4.07,4.16,11.39,11.47,23.3,14.74,4.25,1.16,12.45,3.29,21.63.23,5.59-1.86,9.49-4.96,13.31-8.55,16.26-15.29,24.73-33.52,24.73-33.52,3.69-7.95,11.02-24.2,11.47-46.04.51,24.03-7.54,41.92-11.47,50.39Z"/>
          <path class="cls-34" d="M196.92,130.73v.05c-.45,21.84-7.78,38.09-11.47,46.04,0,0-8.47,18.23-24.73,33.52-3.82,3.59-7.72,6.69-13.31,8.55-9.18,3.06-17.38.93-21.63-.23-11.91-3.27-19.23-10.58-23.3-14.74-4.41-4.53-9.15-10.72-13.31-19.97-4.64-10.31-13.76-30.57-14.38-53.57-.1-4.04.05-8.17.53-12.34.75-6.45,2.29-13.01,4.9-19.54.99-2.51,2.15-5.01,3.47-7.51,3.55-6.67,17.76-33.36,46.6-37.56,11.12-1.62,20.97.62,28.64,3.74,9.45,3.84,15.6,9.03,16.76,10.05,17.23,15,19.51,35.89,20.76,51.4.06.63.1,1.25.15,1.86.28,3.54.37,6.96.3,10.25Z"/>
          <path class="cls-2" d="M196.46,118.61c-5.34-17.29-9.28-29.88-10.29-33.36-.2-.7-.57-2-1.72-2.85-1.63-1.2-2.87-.05-5.47-1.13-1.23-.51-2.74-1.99-3.81-3.39-.26-.34-.49-.68-.98-1.01-.8-.53-1.49-.49-3.12-.77-.63-.11-1.27-.21-1.89-.4-1.48-.46-2.72-1.28-6.13-2.98-.96-.48-4.74-2.31-9.09-2.32-.6,0-8.07,0-12.84,5.17-1.54,1.67-1.12,2.05-4.46,7.07-1.74,2.61-3.15,4.45-4.47,6.18-4.36,5.68-9.37,12.21-13.48,16.05-11.03,10.33-19.77,5.29-32.33,15.1-5.94,4.63-9.47,10.03-11.45,13.67-.49-6.73-.32-15.51,2.14-25.33.9-3.6,1.99-6.87,3.15-9.8l48.14-39.35c10.87-1.99,21.21-2.6,30.58-1.98,9.45,3.84,15.6,9.03,16.76,10.05,17.23,15,19.51,35.89,20.76,51.4Z"/>
          <path class="cls-10" d="M151.06,106.83c1.65-3.81,6.51-5.13,9.81-5.97,3.04-.78,9.84-2.52,17.56.45,5.65,2.17,10.14,6.24,9.72,7.04-.28.53-2.58-.67-7.31-1.52-2.89-.52-7.39-1.32-12.39-.45-3.33.58-3.32,1.29-11.05,3.3-3.43.89-5.67,1.34-6.51.27-.75-.97,0-2.71.18-3.12Z"/>
          <path class="cls-10" d="M120.02,106.83c-1.65-3.81-6.51-5.13-9.81-5.97-3.04-.78-9.84-2.52-17.56.45-5.65,2.17-10.14,6.24-9.72,7.04.28.53,2.58-.67,7.31-1.52,2.89-.52,7.39-1.32,12.39-.45,3.33.58,3.32,1.29,11.05,3.3,3.43.89,5.67,1.34,6.51.27.75-.97,0-2.71-.18-3.12Z"/>
          <path class="cls-17" d="M78.08,102.17c3.88-3.55,7.61-6.53,11.06-9.01l-11.06,9.01Z"/>
          <path class="cls-17" d="M143.97,51.87c-1.07,2.01-1.89,3.84-2.62,5.6.3.27.63.53,1,.79-3.11,2.91-3.37,4.2-3.06,4.85.09.18.22.33.43.46-7.85,12.16-22.03,12.2-42.11,24.08-2.54,1.49-5.38,3.31-8.46,5.52l55.18-44.92c-.06,1.12-.16,2.34-.35,3.63Z"/>
          <path class="cls-9" d="M228.24,126.81c-3.1-.83-7.68-3.75-10.38-7.79-1.54-2.3-1.7-3.83-2.74-7.01-2.62-8.06-6.5-13.58-9.75-18.19-5.7-8.1-8.56-12.16-13.43-13.66-5.02-1.56-8.05.42-11.88-2.38-1.47-1.07-2.69-2.57-3.5-4.08-1.12-2.05-1.48-4.14-.67-5.19,1.32-1.7,5.77-.79,10.17.94.68,1.24,1.36,2.34,2.05,3.35,4.39,6.51,8.56,8.49,11.68,9.03,1.04.18,1.97.2,2.87.13,2.19,2.86,4.17,6.03,6.39,9.5,7.08,11.06,12.39,18.67,16.06,23.92.71,3.31,1.65,7.19,3.13,11.45Z"/>
          <path class="cls-17" d="M172.77,42.89s-.02-.04-.03-.06c-.14-.58-.35-.97-.69-1.36-.93-1.05-2.76-2-4.24-1.29-1.08.51-1.75,1.81-1.79,3.31-.73.07-1.51.06-2.33-.34-3.23-1.53-1.93-6.47-4.28-7.36-3.88-1.45-11.87,10.21-12.36,10.94-.42.63-.81,1.24-1.18,1.84-.35.18-.67.37-1,.57-1.24.77-5.32,3.3-4.99,5.95.1.83.63,1.64,1.46,2.4-.91,2.19-1.68,4.24-2.62,6.36-5.31,11.94-13.26,19.34-18.54,24.25-9.61,8.95-18.86,13.4-28.05,17.84-9.19,4.42-13.92,6.71-20.44,7.84-5.65.99-19.82,2.37-38.04-8.08,1.58-.71,3.81-1.74,6.42-3.09,5.65-2.93,19.53-10.66,33.28-24.96,14.72-15.31,9.82-18.4,26.39-36.14,14.46-15.48,23.1-19.43,25.67-20.44,5.74-2.26,18.94-7.46,31.38-.95,9.86,5.16,13.64,14.72,14.51,17.12.67,1.89,1.16,3.79,1.47,5.67Z"/>
          <path class="cls-17" d="M143.97,51.87c.08.73.12,1.8-.16,3.06-.34,1.54-1,2.67-1.46,3.33-.16,0-.37-.02-.59-.09-.63-.2-.99-.67-1.11-.86.54-.85,1.08-1.72,1.62-2.6.58-.95,1.15-1.9,1.7-2.83Z"/>
          <path class="cls-17" d="M142.36,58.26c-.59,1.58-1.34,3.19-2.31,4.77-.11.18-.22.35-.33.53-.51.09-.77-.02-.9-.15-.66-.61-.01-2.84,1.38-4.09.78-.69,1.64-.96,2.16-1.07Z"/>
          <path class="cls-30" d="M172.82,66.84c-.37.74-1.14,1.17-1.4,1.39-1.07.9-2.77,2.31-4.37,2.11-1.49-.19-1.67-1.63-3.5-3.1-1.77-1.42-3.63-1.7-5.88-2.05-1.47-.23-5.04-.6-10.52,1.07-6.64,2.02-11.59,5.67-14.76,8.55,2.35-5.48,4.42-9.26,5.93-11.76.53-.87,1.54-2.6,2.85-5.05,1.36-2.53,2.25-4.69,2.79-6.12.56-1.05,1.2-2.15,1.91-3.31,7.14-3.87,18.2-4.19,24.23,1.4.55.5,1.06,1.06,1.52,1.67.55.72,1.02,1.51,1.41,2.33,1.6,3.32,1.52,9.4-.22,12.89Z"/>
          <path class="cls-43" d="M76.81,71.23c-3.8,5.22-9.58,12.15-17.82,18.97-6.69,5.54-11.83,9.78-16.15,11.34,1.02-6.45,1.32-8.64,1.97-11.18,1.92-7.56,5.36-12.59,3.3-14.44-.47-.43-.87-.35-2.14-.71-3.4-.97-5.64-2.96-7.12-4.28-2.22-1.97-3.7-4.46-4.67-6.78,4.01-.55,9.6,3.27,23.27,5.62,7.91,1.36,14.64,1.56,19.37,1.48Z"/>
          <path class="cls-17" d="M172.74,42.83c-.42-.62-.78-.95-1.05-.89-.51.13-.3,1.65-.06,4.13-1.37-3.06-3.11-5.29-4.28-5.02-.55.13-1.02.83-1.33,2.43.04-1.49.71-2.79,1.79-3.31,1.48-.71,3.31.24,4.24,1.29.34.39.55.79.69,1.36Z"/>
          <path class="cls-17" d="M173.26,51.01c-.38-1.71-.96-3.43-1.63-4.93-.07-.12-1.39-2.4-.58-3.59.07-.1.27-.39.64-.54.73-.29,1.48.22,1.58.29.29,1.25.56,2.91.5,4.87-.04,1.53-.26,2.85-.51,3.91Z"/>
          <path class="cls-17" d="M171.63,46.07c.67,1.51,1.25,3.23,1.63,4.93-.02.51-.05,1-.08,1.49-.06.75-.12,1.31-.13,1.45-.28,2.62-.61,10.33-3.07,12.85-.17.18-.73.74-.93.62-.21-.13.05-.9.19-1.31,3.41-7.96,2.84-15.56,2.39-20.04Z"/>
          <path class="cls-17" d="M189.45,68.63c-1.16.26-2.3.53-3.39.81.68,1.24,1.36,2.34,2.05,3.35-3.92,1.59-7.98,1.56-11.55.91-4.27-.79-7.81-2.48-9.51-3.36.76-.72,7.97-7.77,6.48-17.87-.07-.48-.16-.97-.27-1.46.11-2.59,0-5.34-.49-8.12,1.39,2.12,3.24,7.28,3.49,10.46.24,3,.19,3.53.19,3.53.02,2.68-.3,3.43.47,4.84,3.02,5.55,13.75,4.32,16,6.22-1.12.21-2.28.44-3.47.7Z"/>
          <path class="cls-36" d="M96.19,25.77c-6.1,6.02-12.2,12.05-18.31,18.07h0s.32,1.3.36,1.43c.38,1.42,3.99,4.39,7.85,3.8,2.19-.33,3.64-1.68,4.4-2.38,10.28-9.44,14.77-9.98,14.5-13.43-.28-3.7-5.69-6.29-8.8-7.49Z"/>
          <path class="cls-36" d="M108.32,37.9c2.67,4.16,5.56,6.3,7.73,7.49,4.54,2.49,7.78,1.83,13.79,5.23,3.14,1.78,4.72,2.67,5.35,4.52,1.77,5.22-5.54,13.88-11.65,13.55-2.4-.13-3.97-1.61-5.47-2.85-11.95-9.93-22.84-8.02-24.01-13.08-.47-2.06.38-6.49,14.26-14.86Z"/>
          <path class="cls-17" d="M193.32,68.61c.16,1.04-1.32,2.15-2.68,2.94-1.42-.75-3-1.49-4.58-2.11-.02-.03-.04-.07-.06-.11,2.31-.47,4.61-.92,6.92-1.4.22.19.36.41.4.67Z"/>
          <path class="cls-17" d="M190.64,71.56c-.95.56-1.85.95-2.07,1.05-.15.06-.3.14-.47.18-.68-1-1.36-2.11-2.05-3.35,1.58.62,3.16,1.36,4.58,2.11Z"/>
          <path class="cls-9" d="M202.66,81.95c-.91.07-1.84.05-2.87-.13-3.12-.54-7.29-2.51-11.68-9.03.16-.05.31-.12.47-.18.22-.1,1.12-.49,2.07-1.05.32.17.64.34.95.51,4.78,2.71,8.11,6.01,11.07,9.88Z"/>
          <path class="cls-36" d="M220.82,79.38c-.57-.02-1.2-.05-1.89-.06-8.8-.1-12.24,2.27-16.26,2.62-2.96-3.87-6.29-7.16-11.07-9.88-.3-.18-.63-.34-.95-.51.08-.94.32-2.26,1.08-3.59,2.55-4.45,8.73-5.13,12.9-5.59,2.67-.29,6.83-.42,11.86.83,2.12,5.3,3.41,10.76,4.34,16.18Z"/>
          <g>
            <path class="cls-32" d="M119.89,143.84c-1.27,3.7-6.05,4.97-9.75,5.95-3.17.83-7.9,2.09-13.07,0-4.43-1.79-9.58-6.19-10.23-11.19-.1-.7-.1-1.41,0-2.13.56-4.04,4.15-6.57,5.95-7.84,1.08-.76,5.25-3.62,10.94-3.1,7.46.69,11.57,6.63,13.08,8.8.51.74,1.07,1.55,1.59,2.41,1.31,2.18,2.33,4.68,1.5,7.1Z"/>
            <path class="cls-25" d="M118.39,136.74c-.52-.86-1.08-1.67-1.59-2.41-1.51-2.17-5.62-8.11-13.08-8.8-5.69-.52-9.86,2.33-10.94,3.1-1.8,1.27-5.38,3.8-5.95,7.84-.1.71-.1,1.43,0,2.13-2.39-1.48-4.19-3.09-5.44-4.35,2.99-5.21,6.67-8.1,8.8-9.52,2.46-1.64,10.57-7.02,18.28-3.83,3.73,1.54,5.79,4.45,6.6,5.62.4.59,3.94,5.83,3.31,10.22Z"/>
            <path class="cls-16" d="M98.39,124.97c-4.65,2.34-5.32,7.83-5.59,10.04-.11.89-.47,4.56,1.43,8.62.89,1.89,2.23,4.76,5.41,6.3,3.35,1.62,7.66,1.25,10.64-.95,5.21-3.86,3.94-11.58,3.57-13.85-.39-2.34-.99-5.97-4.16-8.56-2.82-2.29-7.42-3.55-11.29-1.6Z"/>
            <ellipse class="cls-14" cx="99.4" cy="132.28" rx="1.49" ry="2.14"/>
          </g>
          <g>
            <path class="cls-32" d="M151.8,143.84c1.27,3.7,6.05,4.97,9.75,5.95,3.17.83,7.9,2.09,13.07,0,4.43-1.79,9.58-6.19,10.23-11.19.1-.7.1-1.41,0-2.13-.56-4.04-4.15-6.57-5.95-7.84-1.08-.76-5.25-3.62-10.94-3.1-7.46.69-11.57,6.63-13.08,8.8-.51.74-1.07,1.55-1.59,2.41-1.31,2.18-2.33,4.68-1.5,7.1Z"/>
            <path class="cls-25" d="M153.3,136.74c.52-.86,1.08-1.67,1.59-2.41,1.51-2.17,5.62-8.11,13.08-8.8,5.69-.52,9.86,2.33,10.94,3.1,1.8,1.27,5.38,3.8,5.95,7.84.1.71.1,1.43,0,2.13,2.39-1.48,4.19-3.09,5.44-4.35-2.99-5.21-6.67-8.1-8.8-9.52-2.46-1.64-10.57-7.02-18.28-3.83-3.73,1.54-5.79,4.45-6.6,5.62-.4.59-3.94,5.83-3.31,10.22Z"/>
            <path class="cls-21" d="M173.3,124.97c4.65,2.34,5.32,7.83,5.59,10.04.11.89.47,4.56-1.43,8.62-.89,1.89-2.23,4.76-5.41,6.3-3.35,1.62-7.66,1.25-10.64-.95-5.21-3.86-3.94-11.58-3.57-13.85.39-2.34.99-5.97,4.16-8.56,2.82-2.29,7.42-3.55,11.29-1.6Z"/>
            <ellipse class="cls-14" cx="172.29" cy="132.28" rx="1.49" ry="2.14"/>
          </g>
          <path class="cls-43" d="M178.75,32.43c-1.66-3.93-4.49-10.67-11.65-15.57-9.3-6.37-19.47-5.24-24.85-4.64-7.38.82-12.44,3.42-15.45,4.99-1.24.65-3.62,1.9-3.45,2.37.33.94,9.65-3.1,22.1-3.21,6.43-.06,10.81-.1,15.45,2.62,6.03,3.52,8.95,9.59,11.53,14.98,1.54,3.2,2.66,5.59,2.98,9.03.3,3.23-.22,6.18-1.19,11.41-1.05,5.68-1.85,7.73-1.08,8.2.72.44,2.52-.63,4.23-2.34-.06,0-.11-.03-.15-.06-.55-.48,1.64-2.78,4.24-6.68,2.58-8.5-1.66-18.57-2.73-21.1Z"/>
          <g>
            <path class="cls-13" d="M136.56,136.51v10.4c-1.54-.12-3.18-.7-4.41-1.71.42-2.97.63-6.28,1.46-7.54.43-.66,1.04-.95,1.04-.95.2-.08.46-.16.76-.22.47-.08.87-.04,1.15,0Z"/>
            <path class="cls-13" d="M136.61,155.82h-.05c-2.66-.08-5.36-.94-6.98-2.64.02-.03.04-.07.05-.11.78-1.6,1.64-3.33,2.14-5.62.15-.7.28-1.45.39-2.24,1.23,1,2.86,1.59,4.4,1.71h0v5.82s0,.08,0,.22c0,.53.04,1.89.05,2.87Z"/>
            <g>
              <path class="cls-39" d="M136.56,156.9v18.74h0c-1.8-.21-4.06-.77-6.33-2.15-1.63-.98-3.62-2.19-4.37-4.46-.27-.81-.2-1.95-.05-4.21.21-3.04.31-4.56.77-6.05.73-2.32,1.42-2.41,3-5.6.49.52.85,2.42,1.51,2.78,1.27-1.09,3.49.9,5.48.94h0Z"/>
              <path class="cls-39" d="M147.27,169.04c-.75,2.26-2.74,3.48-4.37,4.46-2.27,1.37-4.53,1.94-6.33,2.15h0v-18.74h0v.05c.17-.05,2.42-.76,2.49-.76,2.2.5,1.76-.79,2.43-1.17.66-.36,1.56-1.32,2.05-1.84,1.58,3.19,2.27,3.27,3,5.6.46,1.49.56,3,.77,6.05.15,2.26.22,3.4-.05,4.21Z"/>
              <path class="cls-39" d="M136.56,155.82v1.08c-1.98-.04-4.2-2.03-5.48-.94-.66-.36-1.01-2.26-1.51-2.78,1.62,1.7,4.33,2.56,6.98,2.64Z"/>
              <path class="cls-39" d="M143.55,153.18c-.49.52-1.4,1.48-2.05,1.84-.67.39-.23,1.68-2.43,1.17-.07,0-2.32.71-2.49.76v-.05h.05s0-.46,0-1.08c2.64-.09,5.32-.95,6.94-2.64Z"/>
              <path class="cls-39" d="M136.62,156.9h-.05v-1.08h.05c.02.62.02,1.08,0,1.08Z"/>
            </g>
            <path class="cls-13" d="M143.55,153.18c-1.61,1.69-4.29,2.55-6.94,2.64h-.05v-8.91h0c1.54-.12,3.17-.7,4.4-1.71.11.79.23,1.54.39,2.24.5,2.29,1.36,4.02,2.14,5.62.02.04.04.08.05.11Z"/>
            <path class="cls-7" d="M145.52,168.25c-.09-.55-1.4-.78-2.06-.8-2.03-.07-4.08,1.49-3.93,2.57,0,.06.04.28.21.46,1.09,1.12,5.95-1.11,5.78-2.23Z"/>
            <path class="cls-7" d="M127.59,168.25c.09-.55,1.4-.78,2.06-.8,2.03-.07,4.08,1.49,3.93,2.57,0,.06-.04.28-.21.46-1.09,1.12-5.95-1.11-5.78-2.23Z"/>
            <path class="cls-13" d="M136.55,136.51v10.4c1.54-.12,3.18-.7,4.41-1.71-.42-2.97-.63-6.28-1.46-7.54-.43-.66-1.04-.95-1.04-.95-.2-.08-.46-.16-.76-.22-.47-.08-.87-.04-1.15,0Z"/>
            <path class="cls-42" d="M142.39,161.73c-1.27,1.61-3.48,2.68-5.98,2.68-2.68,0-5.02-1.22-6.23-3.03.93-1.14,3.27-1.95,5.99-1.95,2.99,0,5.51.98,6.23,2.3Z"/>
          </g>
          <g>
            <path class="cls-29" d="M100.25,108.21c-16.36,0-29.61,13.76-29.61,30.74s13.25,30.75,29.61,30.75,29.61-13.77,29.61-30.75-13.26-30.74-29.61-30.74ZM99.53,164.49c-14.1,0-25.54-11.44-25.54-25.55s11.43-25.54,25.54-25.54,25.55,11.43,25.55,25.54-11.43,25.55-25.55,25.55Z"/>
            <path class="cls-29" d="M172.55,108.21c-16.36,0-29.62,13.76-29.62,30.74s13.26,30.75,29.62,30.75,29.61-13.77,29.61-30.75-13.26-30.74-29.61-30.74ZM171.83,164.49c-14.11,0-25.54-11.44-25.54-25.55s11.43-25.54,25.54-25.54,25.54,11.43,25.54,25.54-11.43,25.55-25.54,25.55Z"/>
            <path class="cls-29" d="M127.78,134c1.49-3.16,6.6-3.11,8.62-3.09,1.59.02,7.45.08,8.97,3.57,1,2.27-.05,5.52-1.37,5.82-.72.17-1.08-.67-2.56-1.55-2.21-1.31-5-1.58-7.07-1.07-3.01.74-3.6,2.91-4.99,2.5-1.6-.47-2.69-3.89-1.6-6.18Z"/>
          </g>
          <path class="cls-17" d="M167.05,70.34c.6-.98,1.41-2.42,2.19-4.22-.09.69-.13,1.04-.08,1.05.11.02.33-.26.61-.79.96-1.81,2.63-6.51,3.27-12.42.1-.95.18-1.93.22-2.94.04.2.17.75.27,1.46.18,1.17,1.4,10.26-4.45,16.17-.37.37-1.05,1.02-2.03,1.7Z"/>
          <g>
            <path class="cls-33" d="M136.37,187.45c-.3-.17-.8-.24-1.1-.42-.63-.37-1.23-.74-1.81-1.11-.83-.04-2.07-.07-3.58,0-2.13.1-3.87.36-8.84,1.33-1.6.31-3.6.71-5.9,1.19.2.27.51.68.93,1.16,0,0,1.38,1.6,3.4,3.16,5.39,4.15,10.52,5.64,10.52,5.64,1.34.38,3.67.86,6.37,1.05v-12Z"/>
            <path class="cls-15" d="M136.19,187.45c.3-.17.8-.24,1.1-.42.63-.37,1.23-.74,1.81-1.11.83-.04,2.07-.07,3.58,0,2.13.1,3.87.36,8.84,1.33,1.6.31,3.6.71,5.9,1.19-.2.27-.51.68-.93,1.16,0,0-1.38,1.6-3.4,3.16-5.39,4.15-10.52,5.64-10.52,5.64-1.34.38-3.67.86-6.37,1.05v-12Z"/>
            <path class="cls-6" d="M116.25,188.68c.09-.15,1.49.29,4.13.83,2.22.45,15.1,2.94,29.3.48,3.3-.57,6.95-1.45,7.06-1.21.03.07-.2.27-3.3,1.34-6.63,2.29-9.94,3.43-14.22,3.72-2.74.19-4.81-.02-6.6-.21-9.36-.98-16.58-4.6-16.37-4.97Z"/>
          </g>
        </g>
        <path class="cls-26" d="M72.39,322.43c-.56.62-2.33.26-4.68-.83.29-1.16.59-2.32.87-3.47-2.12-3.2-5.16-7.9-9.52-13.17-.45,1.84-.91,4.36-1.41,7.81-.56-.63-1.08-1.24-1.54-1.8-2.78-3.37-4.05-5.74-6.6-10.49-.73-1.36-1.85-3.58-1.83-6.51,0-.22,0-.42.02-.6.87.6,2.1,1.73,3.75,3.33.08.08.16.15.23.22,1.67,1.62,4.47,4.42,7.49,7.58,3.51,3.68,7.33,7.88,9.99,11.31,2.5,3.23,3.97,5.78,3.22,6.62Z"/>
        <path class="cls-40" d="M217.57,298.98s-.14-.09-3.85,2.2c-1.96,1.22-4.7,3.04-7.77,5.5-3.33,2.67-8.8,7.13-13.81,14.43-2.2,3.2-5.06,8.03-7.3,14.5-.14-3.98-.29-7.37.05-11.31.18-2.12-.11-3.84.8-5.82.94-2.07,2.52-3.53,2.22-3.87-.33-.37-2.47,1.24-2.85.8-.32-.36.87-1.85.7-1.98-.11-.08-.63.41-1,.83-.62.69-1.61,2.02-1.3,2.39.19.22.63-.15.89,0,1.51.82-5.42,16.21-7.11,20.66-.08.22-.39,1.08-.9,2.2-.38.82-.81,1.73-1.36,2.71-.83,1.49-1.94,3.14-3.54,4.8-.89.93-4.85,4.87-13.9,7.37-4.22,1.17-7.93,1.58-17.12,1.67-8.46.08-13.29.14-22.1-.48-14.99-1.04-22.49-1.57-28.53-3.44-.49-.15-.98-.32-1.44-.47-.57-.19-1.11-.39-1.65-.6-.35-.13-.69-.25-1.03-.4-1.69-.68-3.24-1.41-4.67-2.17-.43-.23-.85-.46-1.25-.69-.23-.13-.46-.26-.69-.4-.18-.1-.36-.21-.52-.31-.52-.32-1.03-.64-1.51-.96-.22-.15-.44-.3-.66-.44-.27-.19-.53-.37-.79-.55-.42-.3-.83-.6-1.22-.89-2.15-1.62-3.88-3.16-5.35-4.43-.18-.15-.36-.31-.52-.46-.52-.44-1-.84-1.45-1.19-.15-.12-.3-.23-.44-.32-.29-.21-.57-.39-.84-.55-.12-.08-.25-.14-.36-.2-.02-.02-.05-.02-.07-.03-.12-.05-.23-.1-.33-.15,0,0-.02,0-.02,0-.13-.05-.25-.08-.37-.12.25-1.18,1.09-5,2.29-10.93.35-1.71.62-3.11.8-4.05.02-.08.04-.17.06-.25.29-1.15.59-2.32.87-3.48-2.12-3.2-5.15-7.9-9.52-13.16-1.86-2.26-3.96-4.62-6.33-7.01-.23-.23-.47-.47-.71-.71-.1-.1-.22-.21-.32-.32-.08-.08-.15-.15-.23-.22-1.65-1.6-2.87-2.73-3.75-3.34.03-.42.07-.76.12-1.04,5.77-4.16,11.67-8.33,17.72-12.51,6.74-4.65,13.41-9.15,20-13.49,1.21-.8,2.42-1.58,3.63-2.37h0c.15,2.55.81,7.33,3.88,12.2,3.06,4.85,6.94,7.28,9.87,9.1,6.8,4.22,13.24,5.07,17.42,5.58,1.2.15,5.95.68,12.19,0,10.11-1.1,17.49-4.63,20.42-6.18,8.24-4.33,5.51-5.58,15.01-10.98,2.94-1.68,6.74-3.57,8.67-7.81.9-1.98,1.11-3.84,1.15-5.11,1.2,1.07,2.38,2.12,3.52,3.13,30.44,27.09,36.86,34.23,36.25,35.11Z"/>
        <path class="cls-41" d="M217.74,299.11c-1.22,2.91-2.45,5.81-3.67,8.72l-8.41,16.36c-11.64,17.8-19.59,29.09-24.91,35.86-5.96,7.56-8.63,9.46-9.52,8.46-1.77-1.99,2.13-17.29,9.23-33.14,8.1-18.13,20.37-36.96,33.09-37.47.7-.03,1.4.02,1.4.02.25-.04.91-.12,1.65.22.64.3,1,.76,1.15.97Z"/>
        <path class="cls-23" d="M81,283.62c-.45-.12-1.13,1.5-4.99,10.1-4.41,9.83-5.04,11.11-5.71,13.91-1.2,5.08-1.78,12.12-.48,12.48,1.75.48,6.86-11.04,9.51-21.99,1.59-6.59,2.61-14.25,1.66-14.5Z"/>
        <path class="cls-3" d="M181.32,263.87c-.73.8-1.5,1.63-2.31,2.47-10.18,10.57-19.01,19.73-33.7,24.97-5.64,2-16.39,5.68-29.25,2.66-8.58-2-14.27-6.09-15.78-7.21-1.34-1-7.76-5.93-12.39-14.98-.97-1.9-1.74-3.74-2.35-5.45,1.21-.8,2.42-1.58,3.63-2.37h0c.12.39.25.76.38,1.14,1.05,2.98,4.04,11.13,12.01,17.12,5.28,3.96,10.48,5.28,14.03,6.18,2.17.55,9.25,2.19,18.42.95,7.81-1.04,13.4-3.67,15.33-4.63,4.07-2.02,7.39-4.84,14.03-10.46,2.36-1.99,8.19-7.01,14.43-13.51,1.2,1.07,2.38,2.12,3.52,3.13Z"/>
        <path class="cls-18" d="M68.58,318.13c-.29,1.16-.59,2.32-.87,3.47-.38-.17-.77-.36-1.17-.58-3.8-2.92-6.71-5.82-8.88-8.26.51-3.44.96-5.97,1.41-7.81,4.36,5.26,7.4,9.97,9.52,13.17Z"/>
        <path class="cls-18" d="M82.23,387.65c-.25,2.51-.55,4.82-.85,6.89h-31.4c.9-16.27,2.53-39.15,5.75-66.75.04-.3.08-.59.11-.9.7-5.89,1.28-10.52,1.82-14.13,2.17,2.44,5.08,5.34,8.88,8.26.4.22.8.41,1.17.58-.02.08-.04.17-.06.25-.19.93-.46,2.33-.8,4.04-1.2,5.93-2.04,9.75-2.29,10.93,0,.08-.02.14-.03.19-.06.32-.12.63-.16.96,0,.05-.02.1-.02.15,0,.05-.02.11-.02.16-.02.15-.04.31-.05.47,0,.05-.02.1-.02.15-.02.26-.05.53-.05.8-.02.31-.02.63-.02.94,0,.78.05,1.58.13,2.41.05.55.13,1.11.22,1.69.51,3.19,1.58,6.81,3.11,11.14,5.68,15.96,8.84,24.82,14.58,31.77Z"/>
        <path class="cls-18" d="M216.82,393.9c-.15.22-.32.43-.49.64h-31.11c-.52-.54-.96-1.12-1.32-1.74-1.98-3.38.49-4.49-.36-17.29-.52-8-1.82-12.73-2.79-15.46-.07-.19-.13-.36-.19-.53.73-.91,1.41-1.88,1.89-3.18h0c.12-.39.24-.79.35-1.18.76-2.65,1.25-5.19,1.54-7.6.15-1.22.22-2.19.27-3.04.12-1.95.21-3.64.26-4.94.02-.45.05-.84.06-1.19,0-.12,0-.22.02-.33.02-.5.03-.87.04-1.07,0,0,0,0,0-.03,0-.04.02-.11.04-.22.02-.11.04-.25.07-.41.02-.1.04-.21.06-.32,0-.04,0-.08.02-.12.02-.12.04-.25.06-.39.1-.54.22-1.2.35-1.92.19-1.03.39-2.19.6-3.32.06-.33.12-.66.18-.98.13-.7.25-1.37.36-1.97.03-.17.06-.34.09-.49.13-.7.24-1.26.31-1.58.05-.23.11-.46.17-.69.08-.3.17-.59.26-.89.08-.25.19-.51.29-.76.07-.19.15-.38.24-.56.05-.12.1-.23.15-.34.08-.19.19-.39.29-.58.12-.25.25-.49.39-.73t0-.02c.14-.23.28-.46.42-.7.25-.4.53-.79.81-1.17.73-.98,1.54-1.92,2.43-2.81.2-.21.42-.42.63-.62.22-.21.43-.41.66-.61.22-.2.45-.4.67-.59.22-.2.46-.39.69-.59s.47-.38.71-.57c.48-.38.96-.75,1.45-1.1.12-.09.25-.19.38-.28.06-.04.12-.09.18-.12.17-.12.33-.24.5-.36.33-.24.67-.46,1.01-.7.35-.23.69-.46,1.03-.67,2.03-1.31,4.09-2.5,6.06-3.59,0,0,0,0,.02,0,.36-.2.73-.4,1.08-.59.66-.36,1.3-.7,1.92-1.03.66-.36,1.31-.7,1.92-1.04.36-.19.73-.39,1.07-.59.42-.23.83-.46,1.2-.68.11,1.88.21,3.75.3,5.58.13,2.59.26,5.12.4,7.61.87,16.68,1.66,31.19,2.35,42.99.71,12.13,1.33,21.41,1.85,27.25.1,1.1.46,4.99-1.85,8.23Z"/>
        <path class="cls-37" d="M214.47,315.44c-4.65,5.26-11.41,6.88-18.79,12.12-5.18,3.68-11.51,9.76-16.83,20.36-.03-.67-.13-4.57,1.6-12.55,8.1-18.13,20.37-36.96,33.09-37.47.18,3.39.35,6.7.52,9.93.14,2.58.26,5.12.4,7.61Z"/>
        <path class="cls-23" d="M213.77,302.26c-7.77,4.51-24.17,11.57-26.63,23-.39,1.82-2.16,11.74-2.16,11.74,0,.39-.05,1.29-.11,2.59-.06,1.3-.15,2.99-.26,4.93-.05.85-.13,1.83-.27,3.05-.29,2.41-.77,4.95-1.53,7.6-.11.39-.23.79-.35,1.17h0c-.48,1.31-1.16,2.28-1.89,3.19-.07-.21-.15-.41-.22-.59-.64-1.67-1.3-3.05-1.94-4.25h0c.13-.37.25-.76.35-1.18.54-2.21.26-3.85.12-5.47,0,0,0-.04,0-.11-.03-.67-.13-4.57,1.6-12.55,8.1-18.13,20.37-36.96,33.09-37.47.08,1.47.15,2.92.22,4.36Z"/>
        <path class="cls-23" d="M217.73,299.1c-.37.89-1.85,1.92-3.97,3.15-.02-.36-.03-.7-.05-1.06-.05-1.09-.11-2.19-.17-3.3-10.63.42-20.95,13.66-28.78,28.58-1.54,2.93-2.98,5.92-4.31,8.89-1.73,7.99-1.64,11.88-1.61,12.55,0,.07,0,.12,0,.12.14,1.61.42,3.25-.12,5.47-.11.42-.22.81-.36,1.17h0c.64,1.21,1.3,2.59,1.95,4.26.07.19.15.39.22.59-.71.88-1.49,1.7-2.22,2.67-.64.86-1.08,1.61-1.42,2.45-1.08,2.66-1.19,6.2-3.66,16.81-1.06,4.56-1.58,6.84-1.96,7.85-.66,1.83-2.05,3.6-4.03,5.24h-77.67c-2.27-1.65-4.37-3.5-6.26-5.59-.39-.42-.76-.85-1.11-1.3-5.75-6.95-8.9-15.81-14.58-31.77-2.23-6.29-3.47-11.08-3.47-15.24,0-.32,0-.63.02-.94,0-.27.03-.53.05-.8,0-.05,0-.11.02-.15.02-.22.04-.42.07-.63,0-.05.02-.1.02-.15,0-.06.02-.13.03-.19.03-.25.08-.51.13-.76,0-.05.02-.11.03-.19.12.04.24.08.37.12,0,0,.02,0,.02,0,.11.04.22.08.33.15.02,0,.05.02.07.03.12.05.24.12.36.2.27.15.55.33.84.54.15.11.29.21.44.33.46.35.94.75,1.45,1.19.18.15.36.3.53.46,1.47,1.27,3.2,2.81,5.34,4.43.39.3.8.59,1.22.9.26.18.52.36.79.54.22.15.44.3.66.45.49.32.99.64,1.51.95.16.12.34.21.52.32.22.13.46.27.7.4.4.23.82.46,1.25.69,1.43.76,2.97,1.48,4.67,2.16.34.15.69.28,1.03.4.54.21,1.08.41,1.65.6.46.16.96.32,1.44.48,6.04,1.88,13.54,2.39,28.53,3.44,8.81.62,13.64.56,22.1.49,9.19-.1,12.91-.51,17.12-1.67,9.05-2.5,13.01-6.45,13.9-7.37,1.61-1.67,2.72-3.31,3.55-4.8.54-.98.97-1.9,1.35-2.72,0,0,.05-.11.13-.29.04-.09.08-.17.11-.25.03-.08.06-.16.11-.25.09-.22.18-.42.25-.6.1-.26.21-.53.32-.81,1.1-2.94,1.98-14.64,2.82-18.97,1.93-9.91,11.88-15.93,13.91-17.12,10.2-5.99,23.07-5.37,23.83-2.8h0c.06.22.04.44-.07.67Z"/>
        <path class="cls-37" d="M68.58,318.13c-.29,1.16-.59,2.32-.87,3.47-.02.08-.04.17-.06.25-.18.93-.46,2.33-.8,4.04-1.2,5.93-2.04,9.75-2.29,10.93,0,.07-.02.14-.03.18-.06.31-.12.63-.16.95-3.45-2.48-6.47-6.19-8.63-10.17.03-.3.07-.59.1-.9.7-5.9,1.28-10.52,1.82-14.13.51-3.44.96-5.97,1.41-7.81,4.36,5.26,7.4,9.97,9.52,13.17Z"/>
        <path class="cls-22" d="M216.82,393.9c-.15.22-.32.43-.49.64h-13.5c4.01-5.88,8.72-13.9,11.75-24.91,1.14-4.14,1.82-7.89,2.24-11.21.71,12.13,1.33,21.41,1.85,27.25.1,1.1.46,4.99-1.85,8.23Z"/>
      </g>
    </g>
  </g>
</svg>