<?xml version="1.0" encoding="UTF-8"?>
<svg id="_Слой_2" data-name="Слой 2" xmlns="http://www.w3.org/2000/svg" xmlns:xlink="http://www.w3.org/1999/xlink" viewBox="0 0 261.43 390.38">
  <defs>
    <style>
      .cls-1 {
        fill: #996430;
      }

      .cls-2 {
        fill: #f9b067;
      }

      .cls-3 {
        fill: #28437b;
      }

      .cls-4 {
        fill: url(#_Безымянный_градиент_12);
      }

      .cls-5 {
        fill: #edb477;
      }

      .cls-6 {
        fill: #d8a173;
      }

      .cls-7 {
        fill: #d8934e;
      }

      .cls-8 {
        fill: #a5623d;
      }

      .cls-9 {
        fill: #71c7d3;
      }

      .cls-10 {
        fill: #211728;
      }

      .cls-11 {
        fill: #eebb7d;
      }

      .cls-12 {
        fill: #eee;
        opacity: .75;
      }

      .cls-13 {
        fill: #fff;
      }

      .cls-14 {
        fill: url(#_Безымянный_градиент_7);
      }

      .cls-15 {
        fill: #bb121a;
      }

      .cls-16 {
        fill: #82dffb;
      }

      .cls-17 {
        fill: url(#_Безымянный_градиент_738-2);
      }

      .cls-18 {
        fill: #e59a72;
      }

      .cls-19 {
        fill: #c17e3d;
      }

      .cls-20 {
        fill: #0a0c07;
      }

      .cls-21 {
        fill: #fefefc;
      }

      .cls-22 {
        fill: #7a1e0f;
      }

      .cls-23 {
        fill: #843e1a;
      }

      .cls-24 {
        fill: #eaa15e;
      }

      .cls-25 {
        fill: #2a2234;
      }

      .cls-26 {
        fill: #3f6daf;
      }

      .cls-27 {
        fill: #a87033;
      }

      .cls-28 {
        fill: #b95e24;
      }

      .cls-29 {
        fill: #fcfeff;
      }

      .cls-30 {
        fill: #7fdef2;
      }

      .cls-31 {
        fill: url(#_Безымянный_градиент_738);
      }

      .cls-32 {
        fill: #c46f3f;
      }

      .cls-33 {
        fill: #fdfdf9;
      }

      .cls-34 {
        fill: #426fba;
      }

      .cls-35 {
        opacity: .58;
      }

      .cls-36 {
        fill: #edbd88;
      }

      .cls-37 {
        fill: #93471d;
      }

      .cls-38 {
        fill: #72c4d6;
      }
    </style>
    <linearGradient id="_Безымянный_градиент_12" data-name="Безымянный градиент 12" x1="130.71" y1="390.38" x2="130.71" y2="18.8" gradientUnits="userSpaceOnUse">
      <stop offset="0" stop-color="#b95114"/>
      <stop offset=".16" stop-color="#c76e1b"/>
      <stop offset=".51" stop-color="#e6ab2b"/>
      <stop offset=".75" stop-color="#eabe33"/>
      <stop offset="1" stop-color="#efcf3b"/>
    </linearGradient>
    <linearGradient id="_Безымянный_градиент_7" data-name="Безымянный градиент 7" x1="94.93" y1="80.7" x2="146.38" y2="178" gradientUnits="userSpaceOnUse">
      <stop offset="0" stop-color="#f3d99f"/>
      <stop offset="1" stop-color="#eebb7d"/>
    </linearGradient>
    <linearGradient id="_Безымянный_градиент_738" data-name="Безымянный градиент 738" x1="101.15" y1="154.81" x2="92.23" y2="137.33" gradientUnits="userSpaceOnUse">
      <stop offset="0" stop-color="#233423"/>
      <stop offset=".03" stop-color="#223222"/>
      <stop offset=".49" stop-color="#222221"/>
    </linearGradient>
    <linearGradient id="_Безымянный_градиент_738-2" data-name="Безымянный градиент 738" x1="150.82" y1="157.26" x2="160.73" y2="135.27" xlink:href="#_Безымянный_градиент_738"/>
  </defs>
  <g id="_Слой_1-2" data-name="Слой 1">
    <g>
      <g>
        <path class="cls-4" d="M261.41,43.45v322.28c0,1.21-.09,2.4-.26,3.56-.07.44-.14.87-.23,1.3-.26,1.29-.62,2.54-1.08,3.75-.6,1.6-1.38,3.14-2.29,4.57-4.1,6.44-11.12,10.87-19.17,11.41-.02.01-.05.01-.07.01-.17.02-.33.03-.5.03-.13,0-.26,0-.39.01-.23.01-.46.01-.7.01H24.7c-.34,0-.68-.01-1.02-.02-2.34-.1-4.6-.52-6.73-1.23-.02-.01-.04-.02-.06-.02-.79-.26-1.56-.57-2.32-.91t-.02,0c-.29-.13-.57-.28-.85-.42l-.6-.33c-.06-.02-.11-.05-.16-.09-.94-.51-1.86-1.06-2.72-1.69-4.04-2.93-7.17-7.06-8.85-11.85-.89-2.53-1.37-5.25-1.37-8.08V43.45c0-5.96,2.15-11.44,5.71-15.72,2.06-2.47,4.58-4.54,7.44-6.05,3.45-1.84,7.38-2.88,11.54-2.88h212.03c2.9,0,5.69.51,8.29,1.44.8.29,1.58.61,2.34.98,7.26,3.48,12.58,10.41,13.79,18.63.18,1.17.27,2.38.27,3.6Z"/>
        <g class="cls-35">
          <path class="cls-13" d="M261.41,295.36v70.37c0,1.21-.09,2.4-.26,3.56-.07.44-.14.87-.23,1.3-.26,1.29-.63,2.54-1.08,3.75-.62,1.6-1.39,3.14-2.31,4.57-4.1,6.41-11.11,10.83-19.15,11.41-.06,0-.12.01-.18.01l-.39.03c-.13,0-.26,0-.39.01-.23.01-.46.01-.7.01H24.7c-.34,0-.68-.01-1.02-.02-2.34-.1-4.6-.52-6.73-1.23-.02-.01-.04-.02-.06-.02-.79-.26-1.56-.57-2.32-.91t-.02,0c-.29-.13-.57-.28-.85-.42l-.6-.33c-.06-.02-.11-.05-.16-.09-.94-.51-1.86-1.06-2.72-1.69-4.04-2.93-7.17-7.06-8.85-11.85-.89-2.53-1.37-5.25-1.37-8.08v-60.2c2.06-2.38,4.28-4.74,6.64-7.05,4.63-4.54,9.81-8.92,15.44-13.08.22-.16.43-.32.65-.48,4.69-3.43,9.69-6.71,14.97-9.83,7.21-4.26,14.91-8.18,22.99-11.68.36-.16.72-.32,1.08-.47.22-.09.43-.19.65-.28h.01c.86-.36,1.72-.72,2.58-1.07,2.72-1.13,5.48-2.2,8.29-3.22.97-.36,1.95-.71,2.93-1.05,3.95-1.38,7.97-2.66,12.05-3.83l.75-.21c7.84-2.23,15.86-4.07,23.98-5.44,1.26-.22,2.53-.42,3.8-.61.37-.06.75-.12,1.12-.17,1.98-.29,3.97-.55,5.95-.77,2.71-.33,5.43-.59,8.15-.8.19-.01.39-.03.58-.04,1.48-.11,2.95-.2,4.43-.27,1.16-.07,2.32-.12,3.48-.16,1.57-.05,3.15-.09,4.74-.09.41,0,.81-.02,1.22,0,1.84-.02,3.68,0,5.53.05.28.01.49.01.51.01,8.8.19,17.47,1.91,25.4,4.31,3.71,1.12,7.25,2.38,10.57,3.69,2.31.92,4.5,1.86,6.57,2.8,2.19,1,4.24,2,6.12,2.95.38.2.75.39,1.11.57,3.13,1.63,5.74,3.12,7.72,4.31,2.71,1.61,4.22,2.65,4.22,2.65,1.34.92,2.57,1.8,3.72,2.65,8.65,6.42,12.42,11.06,20.58,16.13,1.28.8,2.66,1.6,4.19,2.43,1.16.62,2.39,1.25,3.73,1.9,6.13,2.97,11.42,4.86,14.96,5.99Z"/>
          <polygon class="cls-13" points="261.41 295.36 261.41 339.22 213.66 339.86 209.02 339.92 176.2 340.36 163.76 340.53 150.98 340.7 140.01 340.84 117.81 341.14 79.02 341.66 73.53 341.73 73.45 336.04 73.13 311.96 72.94 297.87 97.05 297.55 103.5 297.46 140.93 296.96 149.46 296.85 186.01 296.36 188.41 296.33 246.45 295.56 261.41 295.36"/>
          <path class="cls-13" d="M247.35,21.22l-41.65,186.82-19.69,88.32-.85,3.83-3.65,16.34-5.31,23.83-4.38,19.66-.68,3.03-1.67,7.49-4.42,19.84h-44.94l1.33-5.98,2.64-11.81,1.63-7.34,1.59-7.1,3.83-17.19,1.65-7.4,4.21-18.9,3.94-17.7,3.47-15.54,18.47-82.86L202.95,18.8h33.77c2.9,0,5.69.51,8.29,1.44.8.29,1.58.61,2.34.98Z"/>
          <path class="cls-13" d="M180.1,390.38h-46.15l-6.96-21.24-1.28-3.89-2.38-7.27-5.52-16.84-9.06-27.68-2.02-6.16-3.23-9.84-27.27-83.24L13.15,21.68c3.45-1.84,7.38-2.88,11.54-2.88h33.67l59.57,181.84,26.47,80.78,5.06,15.43,6.09,18.59,4.68,14.3,3.53,10.79,6.37,19.42,1.01,3.1,4.49,13.69.65,1.98,3.82,11.66Z"/>
          <polygon class="cls-13" points="189.17 390.38 127.37 390.38 121.44 384.4 117.48 380.41 93.99 356.74 79.02 341.66 73.45 336.04 48.53 310.92 6.64 268.71 0 262.02 0 199.75 37.7 237.75 97.05 297.55 106.73 307.3 113.02 313.65 132.78 333.56 140.01 340.84 145.87 346.75 158.48 359.46 169.47 370.54 175.63 376.74 176.89 378.01 189.17 390.38"/>
          <polygon class="cls-13" points="72.26 390.33 134.06 390.33 139.99 384.35 143.95 380.36 167.44 356.69 182.41 341.61 187.98 335.99 212.9 310.87 254.79 268.66 261.43 261.97 261.43 199.7 223.73 237.7 164.38 297.5 154.7 307.25 148.41 313.6 128.65 333.51 121.42 340.79 115.56 346.7 102.95 359.41 91.96 370.49 85.8 376.69 84.54 377.96 72.26 390.33"/>
        </g>
        <g>
          <path class="cls-13" d="M50.22,117.53l9.44,2.35c.98.24,1,1.62.04,1.9l-9.34,2.7c-3.62,1.05-6.41,3.94-7.32,7.6l-2.34,9.43c-.24.97-1.62,1-1.9.04l-2.71-9.33c-1.05-3.62-3.95-6.41-7.61-7.32l-9.44-2.35c-.98-.24-1-1.62-.04-1.9l9.34-2.7c3.62-1.05,6.41-3.94,7.32-7.6l2.34-9.43c.24-.97,1.62-1,1.9-.04l2.71,9.33c1.05,3.62,3.95,6.41,7.61,7.32Z"/>
          <path class="cls-13" d="M246.37,58.46l9.34,2.73c.96.28.94,1.66-.04,1.9l-9.44,2.32c-3.66.9-6.56,3.68-7.62,7.3l-2.72,9.33c-.28.96-1.66.93-1.9-.04l-2.34-9.43c-.91-3.66-3.69-6.56-7.31-7.62l-9.34-2.73c-.96-.28-.94-1.66.04-1.9l9.44-2.32c3.66-.9,6.56-3.68,7.62-7.3l2.72-9.33c.28-.96,1.66-.93,1.9.04l2.34,9.43c.91,3.66,3.69,6.56,7.31,7.62Z"/>
          <path class="cls-13" d="M239.41,278.24l13.57,3.96c1.4.41,1.36,2.41-.06,2.76l-13.73,3.38c-5.32,1.31-9.54,5.35-11.07,10.6l-3.96,13.55c-.41,1.4-2.41,1.36-2.76-.06l-3.39-13.71c-1.32-5.32-5.37-9.53-10.63-11.07l-13.57-3.96c-1.4-.41-1.36-2.41.06-2.76l13.73-3.38c5.32-1.31,9.54-5.35,11.07-10.6l3.96-13.55c.41-1.4,2.41-1.36,2.76.06l3.39,13.71c1.32,5.32,5.37,9.53,10.63,11.07Z"/>
          <path class="cls-13" d="M58.24,306.48l13.57,3.96c1.4.41,1.36,2.41-.06,2.76l-13.73,3.38c-5.32,1.31-9.54,5.35-11.07,10.6l-3.96,13.55c-.41,1.4-2.41,1.36-2.76-.06l-3.39-13.71c-1.32-5.32-5.37-9.53-10.63-11.07l-13.57-3.96c-1.4-.41-1.36-2.41.06-2.76l13.73-3.38c5.32-1.31,9.54-5.35,11.07-10.6l3.96-13.55c.41-1.4,2.41-1.36,2.76.06l3.39,13.71c1.32,5.32,5.37,9.53,10.63,11.07Z"/>
          <path class="cls-13" d="M91.25,190.88l9.21,2.43c.95.25.96,1.6.01,1.86l-9.18,2.52c-3.56.98-6.33,3.78-7.27,7.34l-2.42,9.2c-.25.95-1.6.96-1.86,0l-2.53-9.18c-.98-3.56-3.79-6.33-7.36-7.27l-9.21-2.43c-.95-.25-.96-1.6-.01-1.86l9.18-2.52c3.56-.98,6.33-3.78,7.27-7.34l2.42-9.2c.25-.95,1.6-.96,1.86,0l2.53,9.18c.98,3.56,3.79,6.33,7.36,7.27Z"/>
          <path class="cls-13" d="M224.01,170.57l8.25,2.41c.85.25.83,1.46-.03,1.67l-8.34,2.05c-3.23.8-5.8,3.25-6.73,6.44l-2.4,8.23c-.25.85-1.46.82-1.68-.04l-2.06-8.33c-.8-3.23-3.26-5.79-6.46-6.73l-8.25-2.41c-.85-.25-.83-1.46.03-1.67l8.34-2.05c3.23-.8,5.8-3.25,6.73-6.44l2.4-8.23c.25-.85,1.46-.82,1.68.04l2.06,8.33c.8,3.23,3.26,5.79,6.46,6.73Z"/>
          <path class="cls-13" d="M183.11,36.28l8.25,2.41c.85.25.83,1.46-.03,1.67l-8.34,2.05c-3.23.8-5.8,3.25-6.73,6.44l-2.4,8.23c-.25.85-1.46.82-1.68-.04l-2.06-8.33c-.8-3.23-3.26-5.79-6.46-6.73l-8.25-2.41c-.85-.25-.83-1.46.03-1.67l8.34-2.05c3.23-.8,5.8-3.25,6.73-6.44l2.4-8.23c.25-.85,1.46-.82,1.68.04l2.06,8.33c.8,3.23,3.26,5.79,6.46,6.73Z"/>
          <path class="cls-13" d="M137.14,109.32l5.45,1.59c.56.16.55.97-.02,1.11l-5.52,1.36c-2.14.53-3.83,2.15-4.45,4.26l-1.59,5.45c-.16.56-.97.55-1.11-.02l-1.36-5.51c-.53-2.14-2.16-3.83-4.27-4.45l-5.45-1.59c-.56-.16-.55-.97.02-1.11l5.52-1.36c2.14-.53,3.83-2.15,4.45-4.26l1.59-5.45c.16-.56.97-.55,1.11.02l1.36,5.51c.53,2.14,2.16,3.83,4.27,4.45Z"/>
          <path class="cls-13" d="M90.84,47.47l7.87,2.3c.81.24.79,1.4-.03,1.6l-7.96,1.96c-3.09.76-5.53,3.1-6.42,6.15l-2.29,7.86c-.24.81-1.4.79-1.6-.03l-1.97-7.95c-.76-3.08-3.11-5.53-6.16-6.42l-7.87-2.3c-.81-.24-.79-1.4.03-1.6l7.96-1.96c3.09-.76,5.53-3.1,6.42-6.15l2.29-7.86c.24-.81,1.4-.79,1.6.03l1.97,7.95c.76,3.08,3.11,5.53,6.16,6.42Z"/>
        </g>
      </g>
      <g>
        <path class="cls-26" d="M63,388.91c-.07.58-.14,1.06-.2,1.48h-4.05c-.04-11.64-.99-21.32-2-28.71-1.31-9.45-2.08-10.27-6.72-34-2.66-13.63-3.9-20.96-4.69-24.93.29-.19.58-.37.86-.56.61,3.87,3.53,8.54,8.46,21.26,2.47,6.39,3.71,9.58,4.87,13.97.09.33.17.66.25.99.03.1.05.18.07.28.08.32.15.64.23.96,0,.04.01.07.02.11.09.4.17.8.25,1.22.03.14.05.28.08.42.05.28.1.56.15.83.13.73.25,1.5.36,2.29.04.22.07.44.09.66s.06.45.09.69c.05.39.1.8.15,1.21.03.25.06.5.09.77.03.23.05.47.08.72.05.49.1.99.15,1.51.18,1.8.35,3.77.53,5.97.05.57.1,1.15.15,1.75.04.44.07.89.11,1.35.09.99.17,2.02.26,3.11.03.32.05.64.07.96.07.94.14,1.83.2,2.7.02.28.04.56.06.84.14,1.97.25,3.76.33,5.4.02.37.04.74.05,1.1,0,.18.01.35.02.53.02.35.03.69.04,1.02s.02.66.04.98c.01.39.02.77.03,1.15.01.5.02.98.03,1.44,0,.18,0,.37,0,.55.04,4.78-.21,7.59-.51,9.98Z"/>
        <path class="cls-30" d="M213.4,268.42c-1.54.59-3.32,1.37-5.33,2.23-28.41,12.19-23.24,7.22-37.09,14.46-25.42,13.29-38.14,19.94-38.29,20.03-1.82,1.1-6.19,3.8-9.42,2.27-1.14-.54-2.45-1.77-5.12-2.52-1.01-.29-1.94-.43-2.76-.51-8.98-5.53-22.33-13.86-38.49-24.36-9.65-6.27-15.54-10.22-19.18-12.11.93-1.62,2.43-3.73,4.62-6.83.26-.37.52-.72.77-1.07,1.32-1.86,2.37-3.34,3.19-5.7.36-1.03.53-1.83.69-2.73.1-.6.2-1.24.34-2.03.5-2.97.98-8.01,2.59-10.55,2.39-3.76,5.69-5.31,12.29-8.39,7.34-3.44,13.59-4.83,17.27-5.47,4.27-.74,7.56-.9,9.2-.97,18.91-.84,28.37-1.26,36.88-.72,22.32,1.43,38.9,2.51,46.47,12.72,1.37,1.84,4.55,6.83,6.04,9.19.4.64.68,1.08.77,1.23,3.95,6.27,5.04,8.46,6.15,10.3.59.99,1.19,1.89,2.24,3.27,2.85,3.75,4.61,5.29,6.16,8.27Z"/>
        <path class="cls-26" d="M221.68,304.37c-2.46,2.29-5.03,5.52-8.16,9.46-4.14,5.2-10.76,15.09-16.03,40.06-1.97,9.35-3.93,21.71-4.56,36.5h-4.15c.01-.42.01-.84,0-1.28,0-.19,0-.38-.01-.57-.01-.53-.04-1.07-.08-1.63-.01-.28-.04-.56-.06-.85-.02-.42-.06-.84-.09-1.29-.01-.17-.03-.34-.04-.53,0-.06,0-.11-.01-.17-.02-.23-.04-.48-.06-.72-.04-.53-.08-1.07-.12-1.63-.02-.22-.04-.45-.05-.67-.01-.26-.04-.54-.05-.82-.02-.37-.04-.75-.07-1.15,0-.19-.02-.38-.03-.57-.02-.45-.04-.91-.07-1.38,0-.33-.02-.66-.03-1.01-.04-1.27-.05-2.64-.04-4.09,0-.31,0-.61.01-.93,0-.68.03-1.39.06-2.11.01-.36.03-.72.04-1.09.05-1.13.12-2.3.22-3.54.02-.34.05-.69.08-1.04.06-.7.12-1.43.2-2.16.04-.37.07-.75.12-1.12.04-.38.08-.76.12-1.15.09-.74.18-1.48.28-2.25.06-.44.12-.89.18-1.34.09-.63.18-1.24.26-1.85.08-.61.17-1.21.26-1.81.18-1.2.38-2.38.61-3.6.31-1.67.69-3.4,1.18-5.31.08-.31.16-.63.25-.95,0,0,4.63-17.13,17.13-32.97.69-.87,1.61-2.03,3.08-3.33,2.81-2.47,4.38-2.56,5.28-3.74.18-.23.31-.5.43-.79.53.57,1.56,1.62,3.02,2.75.35.27.63.48.86.64Z"/>
        <path class="cls-3" d="M180.68,244.04c-.99,4.9-5.29,7.67-8.55,10.07-3.24,2.4-.73.94-5.73,5.83-.55-.56-1.18-1.15-1.88-1.77-8.81-7.72-19.12-9.03-25.34-9.83-11.55-1.47-20.58.64-23.57,1.41-9.81,2.54-17.04,7.02-21.53,10.41-5.23-7.14-8.84-12.03-10.41-14.06-.88-1.15-3.54-4.51-2.49-7.37.43-1.15,1.33-1.86,1.95-2.27,12.43-8.22,24.91-8.55,24.91-8.55,28.32-.75,68.19-1.8,72.21,10.18,1.02,3.05.43,5.95.43,5.95Z"/>
        <path class="cls-10" d="M166.4,259.94c-1.82,1.78-4.64,4.39-9.11,8.35-14.88,13.2-17.45,14.14-23.17,20.78-4.46,5.19-7.48,9.95-9.31,13.1-12.69-17.35-23.33-31.93-30.73-42.02,4.49-3.38,11.72-7.86,21.53-10.41,2.99-.77,12.02-2.88,23.57-1.41,6.22.8,16.52,2.1,25.34,9.83.7.61,1.33,1.21,1.88,1.77Z"/>
        <path class="cls-5" d="M152.64,262.77c-4.25,5.2-9.37,7.61-11.42,8.45-7.56,3.07-14.09,2.27-15.59,2.05-2.18-.31-6.25-.93-10.5-3.73-1.87-1.23-5.6-3.76-7.31-8.44-.64-1.73-1.48-4.06-.43-6.5,1.4-3.24,5.07-4.15,5.63-4.28,0-1.65,0-3.61,0-5.74.01-7.7.03-17.7.04-24.09v-1.03c1.97.01,3.91.04,5.82.07-.01.01-.04.04-.05.05-2.96,2.93-4.81,7.09-4.81,11.69,0,8.88,6.86,16.08,15.33,16.08s15.33-7.2,15.33-16.08c0-4.46-1.72-8.48-4.52-11.4,1.59.02,3.19.04,4.83.06.52,0,1.05,0,1.58.01-.04.22-.1.64-.17,1.24-.45,4.04-1.25,15.9-.09,22.82.41,2.49,1.07,4.35,2.1,4.96,2.44,1.46,4.73,2.41,4.73,2.41,2.48,1.03,3.05.93,3.52,1.57,1.83,2.57-3.61,9.33-4.02,9.82Z"/>
        <path class="cls-38" d="M58.76,390.38h-24.39v-2.11c.31-13.13.5-22.95.6-28.31.31-17.34.42-28.13,3.24-36.82.29-.87,1.72-5.17,3.9-11.9,1.13-3.5,2.04-6.34,2.59-8.07l.64-.42c.8,3.97,2.03,11.3,4.69,24.93,4.64,23.73,5.41,24.55,6.72,34,1.02,7.38,1.96,17.06,2,28.71Z"/>
        <path class="cls-38" d="M238.38,390.32s-.05.01-.07.01c-.17.02-.33.03-.5.03-.13,0-.26,0-.39.01-.23.01-.46.01-.7.01h-43.78c.63-14.79,2.6-27.15,4.56-36.5,1.11-5.25,2.27-9.84,3.47-13.85,4.47-15.07,9.29-22.1,12.56-26.21,2.37-2.98,4.41-5.56,6.34-7.62.61-.66,1.21-1.28,1.81-1.83.54.38.84.53,1.17.84,1.86,1.72,1.71,4.91,1.55,6.48v.03c-.02.27-.05.49-.07.64-1.07,9.18,2.24,18.22,4.62,27.3.56,2.16,1.07,4.32,1.45,6.48,1.41,8.03,2.14,12.12,2.95,16.24,1.19,5.96,1.83,8.65,2.8,13.96,1.1,5.97,1.81,10.85,2.23,13.98Z"/>
        <path class="cls-16" d="M217.8,300.98c-.12.29-.26.56-.43.79-.9,1.18-2.47,1.27-5.28,3.74-1.48,1.29-2.4,2.46-3.08,3.33-12.5,15.84-17.13,32.97-17.13,32.97-.09.32-.17.64-.25.95-.49,1.91-.88,3.63-1.18,5.31-.23,1.21-.43,2.4-.61,3.6-.09.6-.18,1.2-.26,1.81-.09.61-.18,1.22-.26,1.85-.07.45-.12.91-.18,1.34-.1.77-.19,1.52-.28,2.25-.04.39-.09.77-.12,1.15-.04.37-.08.75-.12,1.12-.07.73-.14,1.45-.2,2.16-.03.35-.06.69-.08,1.04-.09,1.24-.17,2.41-.22,3.54-.01.37-.03.73-.04,1.09-.03.72-.05,1.43-.06,2.11,0,.31-.01.62-.01.93-.01,1.45,0,2.82.04,4.09,0,.34.02.68.03,1.01.02.48.04.94.07,1.38,0,.19.02.38.03.57-31.75-5.78-68.53-8.17-108.79-2.71-5.4.74-10.67,1.59-15.84,2.55,0-.18,0-.37,0-.55,0-.46-.01-.94-.03-1.44,0-.37-.01-.75-.03-1.15-.01-.32-.02-.64-.04-.98s-.03-.67-.04-1.02c0-.18-.01-.35-.02-.53-.01-.36-.03-.72-.05-1.1-.08-1.64-.19-3.43-.33-5.4-.02-.28-.04-.56-.06-.84-.07-.86-.13-1.76-.2-2.7-.02-.31-.04-.64-.07-.96-.09-1.08-.18-2.11-.26-3.11-.04-.46-.07-.91-.11-1.35-.05-.6-.09-1.18-.15-1.75-.18-2.2-.36-4.17-.53-5.97-.05-.52-.1-1.02-.15-1.51-.03-.24-.05-.48-.08-.72-.03-.26-.06-.52-.09-.77-.04-.42-.09-.82-.15-1.21-.03-.23-.06-.46-.09-.69s-.06-.45-.09-.66c-.11-.8-.23-1.56-.36-2.29-.05-.28-.09-.56-.15-.83-.03-.15-.05-.29-.08-.42-.08-.42-.16-.82-.25-1.22,0-.04-.01-.07-.02-.11-.07-.32-.15-.64-.23-.96-.01-.1-.04-.18-.07-.28-.08-.34-.16-.66-.25-.99-1.16-4.38-2.4-7.58-4.87-13.97-4.93-12.72-7.85-17.39-8.46-21.26,4.68-3,8.31-5.12,11.39-6.72,0,0,3.19-1.66,5.85-5.02,1.55,1.55,3.58,3.52,6.96,5.61,4.13,2.57,4.9,2,15.16,6.28,9.76,4.07,8.36,4.29,14.29,6.5,10.6,3.95,19.13,4.76,22.3,4.98,1.83.12,5.8.34,10.82,0,9.58-.66,16.98-2.96,21.01-4.33,26.51-9.07,46.42-26.22,57.01-22.27-.97.11-3.13.49-4.79,2.25-.5.53-.75.8-.8,1.09-.34,2.19,6.07,3.64,12.07,10.07.15.15.26.29.33.36Z"/>
        <path class="cls-29" d="M190.44,348.06c-.47,2.43-.79,4.74-1.14,7.25-.46,3.31-.77,6.31-.98,9.05-1.13-.2-2.51-.45-4.11-.72,0,0-8.36-1.43-16.03-2.49-39.08-5.41-96.36.98-96.36.98-3.79.42-6.98.82-9.13,1.09-.02-.31-.04-.64-.07-.96-.49-6.02-.85-10.61-1.28-14.4,6.07-1.05,12.31-1.96,18.71-2.73,41.03-4.95,78.4-2.53,110.38,2.92Z"/>
        <path class="cls-21" d="M188.79,389.1c.01.44.01.86,0,1.28H62.81c.06-.42.12-.9.2-1.48.3-2.39.56-5.2.51-9.98,5.17-.96,10.44-1.81,15.84-2.55,40.26-5.46,77.05-3.07,108.79,2.71.02.39.04.77.07,1.15.01.28.03.55.05.82.01.23.03.45.05.67.04.56.08,1.1.12,1.63.02.24.04.48.06.72,0,.06,0,.11.01.17,0,.18.02.36.04.53.04.45.07.87.09,1.29.02.29.04.58.06.85.04.56.07,1.1.08,1.63,0,.19.01.38.01.57Z"/>
        <path class="cls-34" d="M215.64,278.26c-.09.75-.47,3.43-2.34,6.21-.61.9-1.42,1.89-2.31,2.74-10.59-3.95-30.5,13.21-57.01,22.27-4.03,1.37-11.43,3.67-21.01,4.33-5.02.34-8.99.12-10.82,0-3.18-.23-11.71-1.04-22.3-4.98-5.93-2.21-4.53-2.43-14.29-6.5-10.25-4.28-11.03-3.71-15.16-6.28-3.38-2.09-5.41-4.06-6.96-5.61.23-.28.46-.59.68-.91.34-.48.99-1.5.65-2-.38-.56-1.62.07-2.76-.22-1.52-.37-2.46-2.19-3.46-5.57-1.72-5.75-2.57-8.62-1.89-11.42.17-.7.51-1.48,1.06-2.43,3.63,1.89,9.52,5.84,19.18,12.11,16.17,10.49,29.51,18.83,38.49,24.36.82.08,1.75.23,2.76.51,2.67.75,3.98,1.98,5.12,2.52,3.23,1.53,7.6-1.18,9.42-2.27.15-.09,12.87-6.74,38.29-20.03,13.85-7.23,8.68-2.27,37.09-14.46,2.02-.86,3.79-1.64,5.33-2.23.27.52.53,1.09.8,1.72,1.71,4.11,1.6,6.8,1.45,8.12Z"/>
        <path class="cls-25" d="M109.62,362.46h-5.52c-1.43,0-2.6-1.17-2.6-2.6v-66.37c.54-.57,1.58-1.47,3.09-1.73,2.52-.44,5.3,1.12,6.88,3.95.25,21.38.5,42.77.76,64.15,0,1.43-1.17,2.6-2.6,2.6Z"/>
        <path class="cls-25" d="M138.98,362.46h5.52c1.43,0,2.6-1.17,2.6-2.6v-66.37c-.54-.57-1.58-1.47-3.09-1.73-2.52-.44-5.3,1.12-6.88,3.95-.25,21.38-.5,42.77-.76,64.15,0,1.43,1.17,2.6,2.6,2.6Z"/>
        <path class="cls-9" d="M204.99,256.88c-25.72,12.43-36.28,18.28-40.84,21.26-4.17,2.72-8.92,4.52-12.86,7.56-.42.33-5.07,3.91-6.09,3-.16-.14-.57-.69-.51-1.36.03-.3.14-.53.23-.68,9.16-7.28,16.69-13.08,21.98-17.11,6.42-4.89,11.23-8.46,19.13-14.63,5.06-3.96,9.21-7.28,12.04-9.57.4.64.68,1.08.77,1.23,3.95,6.27,5.04,8.46,6.15,10.3Z"/>
        <path class="cls-9" d="M100.03,286.21c-.26.29-1.93-.74-11.2-7.15-7.61-5.26-11.42-7.89-13.48-9.42-3.52-2.6-7.66-5.8-12.24-9.62,1.32-1.86,2.37-3.34,3.19-5.7.36-1.03.53-1.83.69-2.73.69.75,1.42,1.55,2.19,2.39,1.79,1.94,5.16,5.55,9.82,10.23,5.28,5.31,5.39,5.14,9.99,9.74,5,5.01,11.6,11.62,11.04,12.26Z"/>
        <path class="cls-5" d="M146.31,244c-4.06,3.9-10.15,6.37-16.95,6.37s-12.29-2.24-16.33-5.8c.01-7.7.03-17.7.04-24.09.37-.34.77-.66,1.17-.96,1.54.01,3.08.03,4.6.05,8.78.1,17.27.24,26.13.33,0,0,.02.01.03.02.5.4.96.82,1.41,1.25-.45,4.04-1.25,15.9-.09,22.82Z"/>
        <path class="cls-11" d="M144.68,231.27c0,8.88-6.86,16.08-15.33,16.08s-15.33-7.2-15.33-16.08c0-4.63,1.87-8.81,4.86-11.74,7.23.1,14.08.25,21.28.34,2.79,2.92,4.52,6.94,4.52,11.4Z"/>
        <g>
          <g>
            <g>
              <path class="cls-11" d="M174.21,179.29c4.92,2.62,11.71.8,14.73,0,2.55-.68,8-2.21,12.56-7.15,4.59-4.96,5.62-10.49,6.39-14.62.45-2.4,1.02-5.47.73-9.01-1.4.07-3.09-.14-4.97-.55-.03-.1-.07-.2-.1-.29-.21-.61-1.64-4.55-5.31-5.63-1.43-.42-2.77-.29-3.87.01-.8.22-1.48.52-1.97.74-.45.2-.87.43-1.3.72-5.14-2.37-10.27-5.28-14.2-8.1-1.26.86-2.42,1.81-3.45,2.84-11.87,11.77-9.24,35.7.76,41.03Z"/>
              <path class="cls-27" d="M203.55,147.67c0,.09-.01.18-.01.26-.06.91-.12,1.81-.18,2.72-2.92.2-7.19,2.21-10.22,4.78-4.41,3.73-7.3,9.63-7.79,13.56-2.95.42-5.77.03-6.81-1.62-.56-.88-.58-2.06,3.68-10.5,4.55-8.98,6.75-11.93,8.88-13.36.43-.29.85-.51,1.3-.72.5-.22,1.17-.52,1.97-.74,1.1-.3,2.44-.44,3.87-.01,3.66,1.08,5.09,5.01,5.31,5.63Z"/>
              <path class="cls-1" d="M203.36,150.65c-.16,2.36-.31,4.72-.46,7.09-1.89-.47-4.3-.75-5.52.54-.07.07-.12.14-.17.2-.61.81-.45,1.77-.81,3.04-.91,3.24-4.17,4.97-5.63,5.74-1.58.84-3.53,1.45-5.42,1.72.49-3.92,3.38-9.82,7.79-13.56,3.03-2.57,7.3-4.58,10.22-4.78Z"/>
              <path class="cls-19" d="M197.21,158.49c.04-.07.1-.14.17-.2,1.22-1.29,3.63-1.01,5.52-.54.49-.96,1.19-2.65,1.35-4.85.15-2.13-.26-3.85-.61-4.93-.03-.1-.07-.2-.1-.29-.21-.61-1.64-4.55-5.31-5.63-1.43-.42-2.77-.29-3.87.01-.24.75-.39,1.67-.45,2.69-.27,4.4,1.04,10.69,3.29,13.74Z"/>
            </g>
            <path class="cls-36" d="M176.9,135.42c3.93,2.82,9.05,5.73,14.2,8.1.43-.29.86-.51,1.3-.72.5-.22,1.17-.52,1.97-.74,1.1-.3,2.44-.44,3.87-.01,3.66,1.08,5.09,5.01,5.31,5.63.03.09.07.19.1.29,1.88.41,3.57.61,4.97.55-.14-1.76-.49-3.63-1.17-5.61-.68-1.97-2.43-7.05-6.71-9.96-6.47-4.41-16.68-2.44-23.84,2.47Z"/>
          </g>
          <g>
            <g>
              <path class="cls-11" d="M84.45,179.17c-4.92,2.62-11.71.8-14.73,0-2.55-.68-8-2.21-12.56-7.15-4.59-4.96-5.62-10.49-6.39-14.62-.45-2.4-1.02-5.47-.73-9.01,1.4.07,3.09-.14,4.97-.55.03-.1.07-.2.1-.29.21-.61,1.64-4.55,5.31-5.63,1.43-.42,2.77-.29,3.87.01.8.22,1.48.52,1.97.74.45.2.87.43,1.3.72,5.14-2.37,10.27-5.28,14.2-8.1,1.26.86,2.42,1.81,3.45,2.84,11.87,11.77,9.24,35.7-.76,41.03Z"/>
              <path class="cls-27" d="M55.11,147.55c0,.09.01.18.01.26.06.91.12,1.81.18,2.72,2.92.2,7.19,2.21,10.22,4.78,4.41,3.73,7.3,9.63,7.79,13.56,2.95.42,5.77.03,6.81-1.62.56-.88.58-2.06-3.68-10.5-4.55-8.98-6.75-11.93-8.88-13.36-.43-.29-.85-.51-1.3-.72-.5-.22-1.17-.52-1.97-.74-1.1-.3-2.44-.44-3.87-.01-3.66,1.08-5.09,5.01-5.31,5.63Z"/>
              <path class="cls-1" d="M55.3,150.54c.16,2.36.31,4.72.46,7.09,1.89-.47,4.3-.75,5.52.54.07.07.12.14.17.2.61.81.45,1.77.81,3.04.91,3.24,4.17,4.97,5.63,5.74,1.58.84,3.53,1.45,5.42,1.72-.49-3.92-3.38-9.82-7.79-13.56-3.03-2.57-7.3-4.58-10.22-4.78Z"/>
              <path class="cls-19" d="M61.45,158.37c-.04-.07-.1-.14-.17-.2-1.22-1.29-3.63-1.01-5.52-.54-.49-.96-1.19-2.65-1.35-4.85-.15-2.13.26-3.85.61-4.93.03-.1.07-.2.1-.29.21-.61,1.64-4.55,5.31-5.63,1.43-.42,2.77-.29,3.87.01.24.75.39,1.67.45,2.69.27,4.4-1.04,10.69-3.29,13.74Z"/>
            </g>
            <path class="cls-36" d="M81.76,135.3c-3.93,2.82-9.05,5.73-14.2,8.1-.43-.29-.86-.51-1.3-.72-.5-.22-1.17-.52-1.97-.74-1.1-.3-2.44-.44-3.87-.01-3.66,1.08-5.09,5.01-5.31,5.63-.03.09-.07.19-.1.29-1.88.41-3.57.61-4.97.55.14-1.76.49-3.63,1.17-5.61.68-1.97,2.43-7.05,6.71-9.96,6.47-4.41,16.68-2.44,23.84,2.47Z"/>
          </g>
          <path class="cls-14" d="M182.45,153.8v.07c0,12.87-.76,17.69-1.31,20.56-.69,3.59-2.18,10.15-5.52,17.87-2.87,6.62-7.04,16.25-16.57,25.01-4.37,4.02-12.05,11.07-24.04,12.99-7.44,1.18-13.4-.1-15.59-.65-2.7-.68-7.89-2.3-16.57-8.77-6.74-5.03-14.66-10.94-20.46-20.46-4.57-7.51-5.75-17.46-8.12-37.35-.87-7.3-1.37-13.48-1.64-18.77h0c-.08-1.61-.14-3.13-.18-4.58-.17-6.02-.02-10.75.2-14.65.28-4.82.69-8.64,1.15-11.66,1.08-7.13,2.45-9.9,3.08-11.08,1.14-2.17,6.04-10.85,22.74-18.83,8.11-3.88,18.53-7.36,29.12-9.11,4.44-.75,8.91-1.17,13.25-1.18.34-.01.69,0,1.03,0,10.68.09,20.51,2.7,27.08,9.32,5.6,5.64,8.45,13.32,8.45,13.32,2.01,5.42,2.05,9.51,1.99,15.56-.02,1.32-.04,2.72-.04,4.25,0,1.02,0,1.98.01,2.88,0,1.02.03,1.97.05,2.86.34,11.49,1.79,12.47,1.89,30.96,0,.49,0,.97,0,1.45Z"/>
          <path class="cls-2" d="M180.54,111.4c-.02,1.32-.04,2.72-.04,4.25,0,1.02,0,1.98.01,2.88-8.6-.01-17.44-2.5-33.96-4.43-34.06-3.98-58.92-.74-72.74-.69,1.08-7.13,2.45-9.9,3.08-11.08,1.14-2.17,6.04-10.85,22.74-18.83,8.11-3.88,18.53-7.36,29.12-9.11,4.44-.75,8.91-1.17,13.25-1.18.34-.01.69,0,1.03,0,10.68.09,20.51,2.7,27.08,9.32,5.6,5.64,8.45,13.32,8.45,13.32,2.01,5.42,2.05,9.51,1.99,15.56Z"/>
          <path class="cls-7" d="M74.28,163.08c2.37,19.89,3.55,29.85,8.12,37.35,5.8,9.52,13.72,15.43,20.46,20.46,8.67,6.47,13.86,8.09,16.57,8.77,2.18.55,8.15,1.83,15.59.65,11.99-1.92,19.67-8.97,24.04-12.99,9.53-8.76,13.7-18.39,16.57-25.01,3.34-7.72,4.83-14.28,5.52-17.87.55-2.87,1.32-7.7,1.31-20.56.03,1.38.05,2.88.06,4.52.07,14.02-.73,19.1-1.3,22.09-.69,3.59-2.18,10.15-5.52,17.87-2.87,6.62-7.04,16.25-16.57,25.01-4.37,4.02-12.05,11.07-24.04,12.99-7.44,1.18-13.4-.1-15.59-.65-2.7-.68-7.89-2.3-16.57-8.77-6.74-5.03-14.66-10.94-20.46-20.46-4.57-7.51-5.75-17.46-8.12-37.35l-.07-6.04Z"/>
          <path class="cls-23" d="M77.32,123.99c.84-.98,2.07-2.3,3.68-3.68,1.67-1.43,4.51-3.83,8.66-5.41,5.2-1.99,9.63-1.62,13.42-1.3,4.43.37,6.68.56,8.66,2.38,2.9,2.67,3.97,7.72,2.17,9.53-1.73,1.73-5.74.16-8.23-.65-5.97-1.94-15.03-3.37-28.37-.87Z"/>
          <path class="cls-23" d="M140.11,124.64c-.49-.67-.32-1.68,0-3.68,0,0,.34-2.08,1.08-3.68,1.86-4,16.23-8.74,27.07-2.38,4.85,2.84,9.13,7.99,8.23,9.53-.35.61-1.5.63-2.6.65-2.45.05-4.06-.9-5.63-1.52-2.03-.8-3.74-.89-7.15-1.08-2.93-.16-5.89.4-11.69,1.52-5.86,1.13-8.41,1.89-9.31.65Z"/>
          <path class="cls-28" d="M176.93,16.79c-.09.07-.18.14-.26.22v-.34c.08.04.17.08.26.12Z"/>
          <g>
            <path class="cls-33" d="M111.75,152.36c-1.15,3.37-5.51,4.52-8.88,5.42-2.89.76-7.2,1.9-11.9,0-4.03-1.63-8.73-5.63-9.32-10.19-.09-.64-.09-1.29,0-1.94.51-3.68,3.78-5.99,5.42-7.14.98-.69,4.78-3.3,9.96-2.82,6.8.63,10.54,6.04,11.91,8.02.47.67.97,1.41,1.45,2.19,1.19,1.99,2.12,4.26,1.37,6.47Z"/>
            <path class="cls-20" d="M110.38,145.89c-.47-.78-.98-1.52-1.45-2.19-1.37-1.98-5.12-7.39-11.91-8.02-5.18-.47-8.98,2.13-9.96,2.82-1.64,1.15-4.9,3.46-5.42,7.14-.09.65-.09,1.3,0,1.94-2.18-1.35-3.81-2.81-4.95-3.96,2.73-4.74,6.07-7.37,8.02-8.67,2.24-1.49,9.62-6.39,16.65-3.49,3.4,1.4,5.28,4.05,6.01,5.12.37.53,3.59,5.31,3.02,9.31Z"/>
            <path class="cls-31" d="M92.16,135.17c-4.24,2.13-4.84,7.13-5.09,9.15-.1.81-.43,4.16,1.3,7.85.81,1.72,2.03,4.34,4.93,5.74,3.05,1.48,6.98,1.14,9.69-.87,4.75-3.51,3.59-10.55,3.25-12.61-.35-2.13-.9-5.44-3.79-7.8-2.57-2.09-6.76-3.24-10.29-1.46Z"/>
            <ellipse class="cls-13" cx="93.08" cy="141.83" rx="1.35" ry="1.95"/>
          </g>
          <g>
            <path class="cls-33" d="M140.81,152.36c1.15,3.37,5.51,4.52,8.88,5.42,2.89.76,7.2,1.9,11.9,0,4.03-1.63,8.73-5.63,9.32-10.19.09-.64.09-1.29,0-1.94-.51-3.68-3.78-5.99-5.42-7.14-.98-.69-4.78-3.3-9.96-2.82-6.8.63-10.54,6.04-11.91,8.02-.47.67-.97,1.41-1.45,2.19-1.19,1.99-2.12,4.26-1.37,6.47Z"/>
            <path class="cls-20" d="M142.18,145.89c.47-.78.98-1.52,1.45-2.19,1.37-1.98,5.12-7.39,11.91-8.02,5.18-.47,8.98,2.13,9.96,2.82,1.64,1.15,4.9,3.46,5.42,7.14.09.65.09,1.3,0,1.94,2.18-1.35,3.81-2.81,4.95-3.96-2.73-4.74-6.07-7.37-8.02-8.67-2.24-1.49-9.62-6.39-16.65-3.49-3.4,1.4-5.28,4.05-6.01,5.12-.37.53-3.59,5.31-3.02,9.31Z"/>
            <path class="cls-17" d="M160.4,135.17c4.24,2.13,4.84,7.13,5.09,9.15.1.81.43,4.16-1.3,7.85-.81,1.72-2.03,4.34-4.93,5.74-3.05,1.48-6.98,1.14-9.69-.87-4.75-3.51-3.59-10.55-3.25-12.61.35-2.13.9-5.44,3.79-7.8,2.57-2.09,6.76-3.24,10.29-1.46Z"/>
            <ellipse class="cls-13" cx="159.48" cy="141.83" rx="1.35" ry="1.95"/>
          </g>
          <g>
            <path class="cls-22" d="M89.2,46.8c-3.36,3.11-16.45-2.35-23.84-12.23.81.52,1.67,1.12,2.59,1.81.79.59,2.13,1.64,2.84,1.21.31-.19.45-.63.46-1.24,9.83,8.59,15.81,12.07,17.95,10.45Z"/>
            <path class="cls-22" d="M89.98,45.49c-.01.05-.03.1-.04.14,0,0,0,.01,0,.02t0,.01c-.1.3-.24.57-.42.8-6.28-3.73-13.07-8.21-18.69-12.99h0c-.6-2.4-1.68-5.35-2.43-7.58-2.03-6.01-4.33-14.62-5.44-25.9.75.37,1.62.8,2.6,1.29h0c.96,2.16,2.25,5.46,4.4,9.68,5.69,11.19,12.58,19.42,18.19,25.12,1.43,3.52,2.51,7.19,1.86,9.4Z"/>
            <path class="cls-37" d="M150.39,79.88c-1.21,1.36-2.65,2.89-4.24,4.48-4.38,4.36-8.34,7.48-11.13,9.84-1.29.42-2.78.96-4.25,1.48-6.84,2.41-14.56,5.12-21.76,6.18-3.31.48-14.42,2.1-24.04.75-1.29-.18-4.84-.73-7.47,1.3-1.94,1.5-2.55,3.75-2.82,4.87-1.97,8.11-2.24,17.39-2.09,23.96l-10.19-14.91-9.54-13.95c-1.2-4.17-2.13-7.75-2.84-10.57-.96-.86-2.3-2.15-3.73-3.84-3.97-4.69-5.77-9.15-7.72-14.05-1.27-3.21-2.77-7.54-3.98-12.83,2.02,1.32,4.38,2.68,7.06,3.98,3.11,1.5,6.03,2.59,8.61,3.41-1.83-2.74-3.62-5.77-5.28-9.1-6.76-13.64-8.53-27-8.59-37.37,2.57,6.71,6.93,14.26,11.47,22.12,4.74,8.21,9.28,15.91,18.4,22.74.55.41,1.09.8,1.64,1.18.2.15.4.29.61.42.34.23.69.45,1.02.67.27.18.55.36.81.52.27.18.54.34.8.49,3.52,2.12,6.86,3.65,9.64,4.71,3.46,1.34,6.03,1.98,6.91,2.19,5.52,1.3,6.62.61,17.49,2.46,3.33.57,5.23.97,6.79,1.06.12,0,.23.01.34.01.9.03,1.72-.06,2.67-.28,1.02-.24,2.35-.69,3.38-.73.47-.02.86.04,1.14.23.07.05.14.11.19.18.39.5.14,1.31.07,1.52-.43,1.36-1.75,2.11-8.84,4.81-2.67,1.02-3.46,1.36-4.79,2.07-1.81.97-2.19,1.51-5.28,2.43-1.18.35-2.76.75-4.28,1.71,0,0-.01,0-.01,0-.69.43-1.37.98-1.98,1.7-.04.04-.07.07-.09.1-.16.18-.34.39-.5.61-.06.08-.11.15-.15.23-.04.04-.06.09-.08.13-.03.04-.05.09-.07.14-.04.06-.06.12-.09.17-.01.04-.03.08-.04.12-.12.31-.12.53-.09.68,0,.04,0,.07.02.1,0,.02,0,.04.01.05.19.56,1.15,1.69,8.18,1.19,8.54-.6,15.18-2.84,18.62-4.06,9.23-3.27,13.85-4.9,18.73-7.91,3.52-2.16,6.47-4.47,8.82-6.51,4.1-3.57,6.36-6.34,6.55-6.15.17.16-1.37,2.31-3.99,5.26Z"/>
            <path class="cls-37" d="M174.51,83.49c-2.2,4.55-3.95,8.05-5.26,10.71.07-.96-.09-1.29-.3-1.41-.83-.5-2.96,1.64-4.06,2.68-2.16,2.02-5.06,3.7-10.88,7.06-9,5.2-17.59,6.09-19.4,6.26-3.93.35-7.21.11-9.42-.16,1.23-1.41,3.16-3.55,5.61-6.09.47-.49.92-.95,1.35-1.39.79.49,1.8.83,2.58,1.1,2,.69,3.75.58,5.12.41,6.12-.75,11.13-3.33,11.13-3.33,6.12-3.16,10.06-6.74,14.54-10.79,4.24-3.85,7.03-6.39,10.14-10.56,1.15-1.53,2.35-3.3,2.6-3.16.29.16-.87,2.76-3.73,8.69Z"/>
            <path class="cls-37" d="M203.34,93.63c-.18,2.13-.75,5.24-1.68,9.19l-18.16,26.29-1.91,2.76c-.66-10.3-1.33-9.66-1.93-23.25-.16-3.83-.41-10.84-1.21-10.88-.35-.02-.6,1.27-.89,2.11-.93,2.65-4,5.74-13.24,7.79.2-1.61.56-2.82.82-3.57.37-1.07.8-1.97,1.25-2.8,0,.03,0,.05,0,.08,0,.03,0,.06,0,.09,0,.07.02.13.04.18.04.12.1.23.2.3.05.04.12.05.19.07.8.14,2.59-1.23,3.77-2.56,1.18-1.33,1.15-1.91,2.21-2.56.36-.22.91-.5,1.52-1.12.46-.47.72-.91.81-1.07.2-.34,1.14-1.53,3.01-3.9,1.15-1.46,2.18-2.76,3.07-3.79.22-.26.43-.5.64-.72,1.11-1.21,1.99-1.89,2.63-1.82h0s.04,0,.07.01c.04,0,.08.01.12.03.42.16.58.65.77,1.45.01.03.02.06.02.09.01.07.03.13.04.2,0,.06.02.12.04.19.21,1.03.45,2.91-.75,8.04-.34,1.45-.71,2.8-.81,4.77,0,.16-.01.32-.02.47-.01.47,0,.87,0,1.22.04,2.29.06,3.43.5,4.02.28.37.72.58,1.24.69,1.22.27,2.82-.06,3.54-.23.14-.04.25-.07.31-.08s.12-.04.19-.05c1.96-.56,4.24-1.84,10.55-8.4,1.32-1.37,2.38-2.51,3.03-3.24Z"/>
            <path class="cls-28" d="M203.42,91.5c-.57.94-1.44,2.29-2.62,3.84-2.97,3.87-7.55,8.39-11.53,10.06h-.01s-.01,0-.02,0h0s-.01,0-.02,0c-1.44.59-2.79.81-3.96.48-.43-.12-1.52-.25-1.94-1.56-.2-.66-.17-1.64-.1-1.83.17-.48.45-1.49.78-2.8h0c1.27-5.08,3.24-14.62,1.9-15.33-.07-.04-.15-.07-.23-.08-.04-.01-.08-.02-.12-.02-.04,0-.09,0-.13,0-.24,0-.52.07-.82.2-.91.38-2.06,1.3-3.34,2.52,0,0,0,0,0,0-4.92,4.7-11.62,13.86-13.21,14.27-.05.02-.09.03-.14.03-.01,0-.04,0-.05,0-.01,0-.03-.01-.04-.02-1.59-1.07,13.9-26.27,11.77-27.77-2.16-1.51-17.09,24.85-42.25,27.66-1.87.21-3.44.25-4.55.25,9.22-10.39,15.28-17.46,19.15-22.17,5.09-6.21,6.37-8.36,6.03-8.68-.61-.58-5.82,5.12-14.79,11.33-1.84,1.27-3.84,2.57-6,3.84-20,11.8-40.65,13.83-41.25,12.02-.68-2.06,24.35-10.14,27.7-15.77.31-.53.44-1.02.34-1.5-.51-2.42-6.39-1.72-14.89-1.86h0c-.31,0-.61,0-.93-.01h-.12c-.52-.01-1.04-.03-1.57-.05-.53-.01-1.07-.04-1.63-.07-.53-.03-1.08-.06-1.64-.1-.34-.02-.69-.04-1.04-.08-1.04-.08-2.12-.19-3.22-.33-.04,0-.09,0-.13-.01-.69-.09-1.37-.18-2.08-.29-.37-.05-.75-.12-1.12-.18-.37-.07-.75-.13-1.13-.2-.08-.01-.16-.03-.24-.04-.53-.1-1.06-.21-1.59-.33-.53-.12-1.07-.24-1.62-.37-.39-.09-.77-.2-1.16-.3-.3-.08-.6-.16-.9-.25-1.27-.35-2.56-.76-3.84-1.23-.34-.12-.67-.24-1-.37-.15-.06-.29-.11-.44-.17-.72-.28-1.43-.58-2.14-.89-.39-.17-.79-.35-1.18-.53-.04-.02-.09-.04-.13-.06-.36-.17-.71-.34-1.07-.52-.4-.2-.8-.4-1.21-.62-.39-.2-.79-.42-1.18-.64-13.72-7.7-21.46-19.89-27.93-30.09-6.64-10.47-11.11-17.51-12.16-23.31,2.62,2.17,4.85,3.83,6.39,4.95,1.34.97,4.99,3.48,9.95,6.16,2.97,1.59,6.8,3.47,11.49,5.28,2.07.8,4.31,1.6,6.71,2.35.03.02.05.05.08.07,9.83,8.59,15.81,12.07,17.95,10.45.12-.09.23-.2.31-.32.18-.22.31-.49.4-.82t0-.01s0-.01,0-.02c.01-.04.03-.09.04-.14.41-1.75-.2-4.89-1.86-9.4-5.61-5.69-12.5-13.93-18.19-25.12-2.15-4.22-3.43-7.52-4.4-9.68,1.81.89,4,1.94,6.48,3.1,3.39,1.58,13.36,6.15,35.3,14.46,4.79,1.81,11.2,4.19,18.83,6.93,9.35,2.39,18.45,6.26,23.77,8.45,4.69,1.94,9.54,4.21,9.75,3.81.17-.33-3.19-2.26-8.13-5.6-5.4-3.66-8.4-5.69-11.28-8.29-3.29-2.95-3.82-4.29-14.38-18.27-.98-1.3-1.79-2.37-2.46-3.24,1.19.76,2.42,1.54,3.3,2.1,16.45,10.47,16.75,10.6,20.57,13.1,9.55,6.26,14.43,9.47,19.57,13.9.55.47,1.07.94,1.59,1.4.97.86,1.89,1.71,2.74,2.52.62,5.56,2.7,10.9,5.88,14.22,1.4,1.47,1.8,1.27,4.38,3.73,6.9,6.58,8.25,11.96,11.04,15.43.69.85,1.49,1.63,2.4,2.35.43.7,1.02,1.63,1.78,2.81,1.02,1.59,1.88,2.92,2.58,4.03,1.39,2.19,2.2,3.52,2.58,4.33,0,0,1.52,3.24,1.58,8.95Z"/>
            <path class="cls-22" d="M159.66,38.03c-.2.39-5.06-1.88-9.75-3.81-5.31-2.19-14.41-6.06-23.77-8.45-1.29-4.57-2.51-9.44-3.6-14.59-.75-3.55-1.4-7-1.95-10.33.75.47,1.78,1.13,2.81,1.79.67.88,1.48,1.94,2.46,3.25,10.55,13.98,11.09,15.32,14.37,18.27,2.89,2.59,5.88,4.63,11.28,8.29,4.94,3.34,8.29,5.27,8.13,5.6Z"/>
            <path class="cls-32" d="M100.38,39.81c4.96-6.93,18.85-4.92,24.28-4.14,6.39.92,18.68,3.8,32.07,14.78.52.95.94,2.13.49,3.09-.89,1.89-4.7,1.86-9.74,1.54-11.61-.73-15.91-1.71-15.91-1.71-27.69-6.26-32.05-7.83-32.32-10.64-.11-1.18.55-2.1,1.14-2.92Z"/>
            <path class="cls-28" d="M194.9,71.38c-.91-.72-1.72-1.5-2.4-2.35-2.79-3.46-4.14-8.85-11.04-15.43-2.59-2.46-2.98-2.27-4.38-3.73-3.18-3.33-5.26-8.66-5.88-14.22,2.26,2.16,4.1,4.09,5.49,5.6,0,0,0,0,0,0,.4.71.88,1.53,1.44,2.51,6.2,10.7,11.89,19.6,16.06,25.88-.11.22.15.77.72,1.73Z"/>
            <path class="cls-23" d="M74.53,165.17c-1,.23-3.07-7.38-10.24-27.46-4.47-12.55-5.42-14.48-8.01-22.52-1.32-4.11-2.46-7.9-3.43-11.31l9.54,13.95,10.19,14.91c0,.17,0,.34,0,.5.12,4.86.47,8.13.47,8.13,1.63,15.72,2.45,23.58,1.48,23.79Z"/>
            <path class="cls-23" d="M182.27,163.59c.16-10.25-.06-19.09-.38-26.16-.04-.9-.08-1.74-.12-2.52,0,.01,0,.02,0,.04.05-.06.48-.56.33-1.22-.09-.39-.34-.64-.44-.73-.02-.39-.04-.75-.07-1.11h0s1.91-2.77,1.91-2.77l18.16-26.29c-2.98,12.76-9.7,34.38-19.4,60.77Z"/>
            <path class="cls-23" d="M139.01,87.28c-4.88,3-9.5,4.63-18.73,7.91-3.44,1.22-10.09,3.46-18.62,4.06-7.02.5-7.99-.63-8.18-1.19,0-.01-.01-.03-.01-.05-.01-.04-.02-.07-.02-.1-.02-.15-.02-.37.09-.68.01-.04.03-.07.04-.12.03-.05.05-.11.09-.17.02-.05.04-.1.07-.14.02-.04.04-.09.08-.13.04-.07.09-.15.15-.23.12-.18.29-.39.5-.61.02-.03.05-.07.09-.1.53-.57,1.21-1.13,1.98-1.7,0,0,0,0,.01,0,7.1-5.12,22.8-9.57,22.69-11.13-.04-.58-2.78-.62-6.95-.8-.11,0-.22,0-.34-.01-1.9-.08-4.09-.19-6.42-.39-1.58-.14-9.93-.91-17.85-3.12-1.57-.44-3.98-1.13-6.86-2.24-2.86-1.09-6.21-2.59-9.69-4.67-.26-.16-.53-.33-.8-.49-.27-.17-.54-.34-.81-.52-.34-.22-.68-.44-1.02-.67-.2-.13-.41-.27-.61-.42-.55-.37-1.09-.77-1.64-1.18-9.12-6.83-13.67-14.52-18.4-22.74-4.54-7.86-8.9-15.41-11.47-22.12-.01-2.16.04-4.19.15-6.07.04.03.07.06.1.09,1.05,5.8,5.52,12.83,12.16,23.31,6.48,10.21,14.21,22.4,27.93,30.09.39.22.79.44,1.18.64.41.22.81.42,1.21.62.36.18.71.35,1.07.52.04.02.09.04.13.06.39.18.79.37,1.18.53.72.31,1.42.61,2.14.89.15.06.29.11.44.17.34.12.67.25,1,.37,1.29.47,2.57.88,3.84,1.23.3.1.6.18.9.25.39.11.77.21,1.16.3.54.13,1.07.26,1.62.37.53.12,1.07.23,1.59.33.08.01.16.03.24.04.38.07.75.15,1.13.2.37.07.75.13,1.12.18.7.11,1.39.2,2.08.29.04,0,.09.01.13.01,1.1.14,2.17.25,3.22.33.35.04.69.06,1.04.08.56.04,1.1.07,1.64.1.56.03,1.1.06,1.63.07.53.02,1.05.04,1.57.05h.12c.31,0,.62.01.93.01h0c3.09,1.02,6.21,1.84,9.31,2.47.47-.02.86.04,1.14.23,1.37.26,2.75.49,4.11.67-3.35,5.63-28.38,13.71-27.7,15.77.59,1.81,21.24-.22,41.25-12.02,2.16-1.27,4.16-2.57,6-3.84,1.64-.29,3.22-.66,4.69-1.11-2.35,2.05-5.31,4.36-8.82,6.51Z"/>
            <path class="cls-23" d="M203.42,91.5c0,.29,0,.6,0,.91,0,.36-.03.77-.07,1.21-1.15,1.57-2.86,3.76-5.16,6.2-2.38,2.54-3.61,3.82-5.56,4.87-.18.1-1.42.75-2.96,1.29-2.02.69-4.57,1.18-5.97-.07-1.53-1.36-.96-4.7.24-11.31.86-4.76,1.68-7.31,1.59-8.39,0-.07-.01-.14-.04-.2,0-.04,0-.07-.02-.1-.04-.12-.12-.21-.22-.27-.94-.54-3.62,2.38-7.07,6.11-2.46,2.66-2.66,3.22-4.85,5.39-1.16,1.15-5.17,5.12-6.5,4.83-.07,0-.13-.03-.18-.07-.1-.07-.16-.18-.2-.3-.02-.06-.03-.12-.04-.18,0-.03,0-.06,0-.09,0-.03,0-.05,0-.08,1.18-2.17,2.43-3.81,2.81-6.61.02-.17.04-.31.05-.45,0,0,0,0,0,0,1.31-2.66,3.06-6.15,5.26-10.71,2.86-5.93,4.02-8.53,3.73-8.69-.25-.14-1.45,1.64-2.6,3.16-3.11,4.17-5.9,6.71-10.14,10.56-4.47,4.06-8.41,7.64-14.54,10.79,0,0-5.01,2.59-11.13,3.33-1.37.17-3.11.28-5.12-.41-.78-.27-1.79-.61-2.58-1.1,4.61-4.68,7.06-6.67,6.63-7.4-.29-.5-1.8-.17-3.76.46,2.79-2.37,6.75-5.48,11.13-9.84,1.59-1.59,3.03-3.12,4.24-4.48.52-.2,1.02-.42,1.51-.65-3.87,4.71-9.93,11.78-19.15,22.17,1.1,0,2.67-.04,4.55-.25,25.16-2.81,40.1-29.17,42.25-27.66,2.13,1.5-13.36,26.7-11.77,27.77.01,0,.03.02.04.02.01,0,.04,0,.05,0,1.32,0,8.86-10.53,13.99-15.03.99-.87,1.89-1.51,2.63-1.82h0c.38-.15.72-.22,1.02-.18.04,0,.08,0,.12.02.09.01.16.04.23.08,3.14,1.64-4.64,18.8-.64,21.07.15.08.31.15.48.19.09.02.18.04.26.04,1.02.11,2.38-.4,3.89-1.29,3.57-2.08,7.95-6.25,10.46-9.05,1.37-1.53,2.4-2.89,3.08-3.83Z"/>
            <path class="cls-32" d="M161.47,75.51c-2.34,2-2.89,2.84-4.38,3.45-1.81.74-3.67.61-5.19.26,5.09-6.21,6.37-8.36,6.03-8.68-.61-.58-5.82,5.12-14.79,11.33-5.78,1.02-12.52,1.06-19.54.1.31-.53.44-1.02.34-1.5-.51-2.42-6.39-1.72-14.89-1.86h0c-11.02-3.62-21.65-9.69-29.44-18.28-7.48-8.27-12.92-19.53-15.13-26.4,2.07.8,4.31,1.6,6.71,2.35.03.02.05.05.08.07,9.83,8.59,15.81,12.07,17.95,10.45.11-.1.21-.21.29-.34,0,0,.01,0,.02.01,4.06,2.58,10.24,6.2,18.18,9.62,28.85,12.45,58.29,12.54,58.16,15.92-.02.57-.86.47-4.38,3.49Z"/>
            <path class="cls-37" d="M195.62,70.22c-.72-.5-1.23-.8-1.41-.62-.01.01-.03.03-.03.05-4.17-6.28-9.86-15.19-16.06-25.88-.56-.97-1.04-1.8-1.44-2.51.01.01.03.04.04.05,0-1.29,0-2.59,0-3.88,4,5.85,9.52,16.71,18.9,32.79Z"/>
            <path class="cls-37" d="M213.57,73.29c-6.61,1.9-10.88,1-13.64-.32-1.72-.83-3.26-2.01-4.32-2.75-9.38-16.08-14.89-26.94-18.9-32.79-.01-6.8-.02-13.61-.04-20.42,0-.11,0-.23,0-.34.09.04.17.08.26.12.61.33,1.45.86,2.27,1.67,1.13,1.11,1.7,2.24,1.99,2.8,3.93,7.88,5.9,11.82,7.04,16.24.77,3.03,1.63,6.37,1.7,10.93.07,3.94-.49,6.89.04,7.02.82.2,1.78-6.84,7.18-12.06,2.24-2.16,4.62-3.41,6.37-4.14.24,1.36.46,3.24.37,5.48-.08,1.95-.26,6.13-2.51,10.03-2.96,5.09-7.94,7.03-7.31,8.37.15.33.56.42,1.48.59,3.76.7,5.57.74,6.86.98,2.42.44,3.97,1.73,6.9,4.18,1.94,1.62,3.34,3.23,4.26,4.42Z"/>
          </g>
          <rect class="cls-18" x="127.41" y="168" width="0" height="1.02"/>
          <rect class="cls-6" x="127.41" y="169.03" width="0" height=".04"/>
          <g>
            <path class="cls-11" d="M127.42,149.73v9.84c-1.46-.11-3.01-.67-4.17-1.62.39-2.81.59-5.94,1.38-7.13.41-.63.98-.9.98-.9.19-.07.43-.15.72-.2.45-.07.83-.04,1.09,0Z"/>
            <path class="cls-5" d="M127.46,168h-.05c-2.51-.07-5.07-.89-6.61-2.5.01-.03.04-.07.05-.1.74-1.51,1.55-3.15,2.02-5.32.15-.66.26-1.37.37-2.12,1.16.95,2.7,1.51,4.17,1.62h0v5.51s0,.07,0,.2c0,.5.04,1.79.05,2.71Z"/>
            <g>
              <path class="cls-24" d="M127.42,169.03v17.73h0c-1.7-.2-3.84-.73-5.99-2.03-1.54-.93-3.43-2.08-4.14-4.22-.26-.77-.19-1.85-.04-3.98.2-2.88.29-4.31.73-5.72.69-2.2,1.34-2.28,2.84-5.3.47.49.8,2.29,1.43,2.63,1.21-1.03,3.3.85,5.18.89h0Z"/>
              <path class="cls-24" d="M137.55,180.51c-.71,2.14-2.59,3.29-4.14,4.22-2.15,1.3-4.29,1.83-5.99,2.03h0v-17.73h0v.04c.16-.04,2.29-.72,2.36-.72,2.08.47,1.67-.75,2.3-1.11.62-.34,1.48-1.25,1.94-1.74,1.49,3.02,2.15,3.1,2.84,5.3.44,1.41.53,2.84.73,5.72.15,2.13.21,3.22-.04,3.98Z"/>
              <path class="cls-24" d="M127.41,168v1.02c-1.88-.04-3.98-1.92-5.18-.89-.62-.34-.96-2.14-1.43-2.63,1.53,1.61,4.09,2.43,6.61,2.5Z"/>
              <path class="cls-24" d="M134.03,165.5c-.47.49-1.32,1.4-1.94,1.74-.64.37-.22,1.59-2.3,1.11-.07,0-2.2.67-2.36.72v-.04h.05s0-.44,0-1.02c2.5-.09,5.04-.9,6.56-2.5Z"/>
              <path class="cls-24" d="M127.47,169.03h-.05v-1.02h.04c.01.58.02,1.02,0,1.02Z"/>
            </g>
            <path class="cls-5" d="M134.03,165.5c-1.53,1.6-4.06,2.41-6.56,2.5h-.05v-8.43h0c1.46-.11,3-.67,4.17-1.62.1.75.22,1.46.37,2.12.47,2.17,1.29,3.81,2.02,5.32.01.04.04.07.05.1Z"/>
            <path class="cls-8" d="M135.9,179.77c-.08-.52-1.32-.74-1.95-.76-1.92-.07-3.86,1.41-3.72,2.44,0,.06.04.26.2.43,1.03,1.06,5.63-1.05,5.47-2.11Z"/>
            <path class="cls-8" d="M118.93,179.77c.08-.52,1.32-.74,1.95-.76,1.92-.07,3.86,1.41,3.72,2.44,0,.06-.04.26-.2.43-1.03,1.06-5.63-1.05-5.47-2.11Z"/>
            <path class="cls-11" d="M127.41,149.73v9.84c1.46-.11,3.01-.67,4.17-1.62-.39-2.81-.59-5.94-1.38-7.13-.41-.63-.98-.9-.98-.9-.19-.07-.43-.15-.72-.2-.45-.07-.83-.04-1.09,0Z"/>
            <path class="cls-12" d="M132.93,173.59c-1.2,1.53-3.29,2.54-5.66,2.54-2.54,0-4.75-1.15-5.9-2.86.88-1.08,3.09-1.85,5.66-1.85,2.83,0,5.21.93,5.89,2.18Z"/>
          </g>
          <path class="cls-15" d="M104.21,193.16c-1.12.07-2.26,1.24-2.35,2.46-.04.45.03,1.38,1.54,2.78,1.45,1.35,3.92,2.82,11.92,3.69,2.85.31,4.82.38,4.82.38,5.05.18,17.03.6,25.55-3.41,3.13-1.47,4.69-2.21,5.9-3.19,1.44-1.17,2.28-2.3,4.07-2.67.53-.11,1.11-.14,1.37-.58.56-.93-.88-2.65-.97-2.76-.32-.38-1.45-1.69-2.65-1.52-1.26.18-1.94,1.9-2.24,2.52-1.49,3.11-5.69,4.2-11.87,5.82-3.61.95-11.17,2.52-20.35,1.47-6.65-.76-10.16-1.15-12.16-3.45-.3-.34-1.32-1.62-2.57-1.54Z"/>
          <path class="cls-23" d="M181.77,134.94s0-.02,0-.04c-.04-.68-.07-1.32-.1-1.91.1.09.35.34.44.73.15.66-.28,1.16-.33,1.22Z"/>
          <path class="cls-23" d="M123.59,81.97c-1.36-.18-2.73-.4-4.11-.67-.28-.19-.67-.25-1.14-.23-3.1-.63-6.22-1.45-9.31-2.47,8.51.14,14.38-.56,14.89,1.86.1.47-.02.97-.34,1.5Z"/>
          <path class="cls-23" d="M151.9,79.23c-.49.23-.99.45-1.51.65,2.62-2.95,4.16-5.1,3.99-5.26-.19-.19-2.45,2.59-6.55,6.15-1.48.45-3.05.82-4.69,1.11,8.97-6.22,14.18-11.92,14.79-11.33.34.32-.94,2.47-6.03,8.68Z"/>
          <path class="cls-37" d="M150.39,79.88c-.82.33-1.67.63-2.56.89,4.1-3.57,6.36-6.34,6.55-6.15.17.16-1.37,2.31-3.99,5.26Z"/>
          <path class="cls-22" d="M89.5,46.46c-.08.12-.18.23-.29.34-2.14,1.62-8.12-1.86-17.95-10.45.01-.74-.17-1.75-.45-2.87,5.62,4.77,12.42,9.26,18.69,12.99Z"/>
        </g>
      </g>
    </g>
  </g>
</svg>