<svg xmlns="http://www.w3.org/2000/svg" viewBox="0 0 402.63 178.95"><defs><style>.cls-1{fill:#d5860b;}.cls-2{fill:#f4a508;}.cls-3{fill:#00a6c2;}.cls-4{fill:#00ccef;}.cls-5{fill:#2ce4ff;}.cls-6{fill:#e2eaff;}.cls-7{opacity:0.1;}</style></defs><title>button_3x</title><g id="Слой_2" data-name="Слой 2"><g id="Слой_1-2" data-name="Слой 1"><rect class="cls-1" y="12.45" width="402.63" height="166.5" rx="28.82"/><rect class="cls-2" width="402.63" height="163.87" rx="28.59"/><polygon class="cls-3" points="92.91 44.81 124.91 44.81 117.8 77.04 92.91 44.81"/><polygon class="cls-4" points="124.91 44.81 153.95 77.04 117.8 77.04 124.91 44.81"/><polygon class="cls-3" points="117.8 77.04 153.95 77.04 92.91 134.15 117.8 77.04"/><polygon class="cls-3" points="92.91 44.8 60.91 44.8 68.02 77.03 92.91 44.8"/><polygon class="cls-4" points="60.91 44.8 31.87 77.03 68.02 77.03 60.91 44.8"/><polygon class="cls-3" points="68.02 77.03 31.87 77.03 92.91 134.14 68.02 77.03"/><polygon class="cls-4" points="92.91 134.14 117.8 77.03 68.02 77.03 92.91 134.14"/><polygon class="cls-5" points="92.91 44.8 68.02 77.03 117.8 77.03 92.91 44.8"/><path class="cls-6" d="M69.52,81.74,83,64.26a2.48,2.48,0,0,0-.39-3.41L80,58.74a2.34,2.34,0,0,0-3.33.4L63.18,76.61A2.48,2.48,0,0,0,63.57,80l2.62,2.12A2.35,2.35,0,0,0,69.52,81.74Z"/><g class="cls-7"><polygon points="92.91 44.81 124.91 44.81 117.8 77.04 92.91 44.81"/><polygon points="124.91 44.81 153.95 77.04 117.8 77.04 124.91 44.81"/><polygon points="117.8 77.04 153.95 77.04 92.91 134.15 117.8 77.04"/><polygon points="92.91 44.8 60.91 44.8 68.02 77.03 92.91 44.8"/><polygon points="60.91 44.8 31.87 77.03 68.02 77.03 60.91 44.8"/><polygon points="68.02 77.03 31.87 77.03 92.91 134.14 68.02 77.03"/><polygon points="92.91 134.14 117.8 77.03 68.02 77.03 92.91 134.14"/><polygon points="92.91 44.8 68.02 77.03 117.8 77.03 92.91 44.8"/><path d="M69.52,81.74,83,64.26a2.48,2.48,0,0,0-.39-3.41L80,58.74a2.34,2.34,0,0,0-3.33.4L63.18,76.61A2.48,2.48,0,0,0,63.57,80l2.62,2.12A2.35,2.35,0,0,0,69.52,81.74Z"/></g></g></g></svg>