<?xml version="1.0" encoding="UTF-8"?>
<svg id="_Слой_2" data-name="Слой 2" xmlns="http://www.w3.org/2000/svg" viewBox="0 0 1125 2436">
  <defs>
    <style>
      .cls-1 {
        fill: #004059;
      }

      .cls-2 {
        opacity: .05;
      }

      .cls-2, .cls-3, .cls-4, .cls-5, .cls-6, .cls-7 {
        fill: #fff;
      }

      .cls-4, .cls-8 {
        opacity: 0;
      }

      .cls-9 {
        opacity: .2;
      }

      .cls-9, .cls-10, .cls-8 {
        fill: #006177;
      }

      .cls-5 {
        opacity: .17;
      }

      .cls-11 {
        fill: #0088ae;
      }

      .cls-10 {
        opacity: .06;
      }

      .cls-6 {
        opacity: .13;
      }

      .cls-7 {
        opacity: .09;
      }
    </style>
  </defs>
  <g id="_Слой_1-2" data-name="Слой 1">
    <g>
      <g>
        <rect class="cls-11" x="0" width="1125" height="2436"/>
        <polygon class="cls-9" points="1125 0 1125 984.01 0 203.99 0 0 1125 0"/>
        <polygon class="cls-10" points="1125 976.68 1125 1721.64 0 947.6 0 202.64 1125 976.68"/>
        <polygon class="cls-9" points="1125 1725.26 1125 2436 857.03 2436 0 1849.32 0 955.15 1125 1725.26"/>
        <polygon class="cls-8" points="857.03 2436 0 2436 0 1846.33 857.03 2436"/>
      </g>
      <g>
        <path class="cls-1" d="M1039.94,63.12v108.6c0,1.99-.26,3.92-.76,5.76-.5,1.88-1.24,3.66-2.21,5.3-3.81,6.61-10.95,11.06-19.14,11.06H0V41.01h1017.83c8.16,0,15.29,4.42,19.11,11,.97,1.64,1.72,3.42,2.23,5.3.5,1.85.77,3.8.77,5.81Z"/>
        <polygon class="cls-2" points="706.93 41.01 841.31 193.84 631.5 193.84 497.12 41.01 706.93 41.01"/>
        <polygon class="cls-7" points="497.05 41.01 631.43 193.84 421.62 193.84 287.24 41.01 497.05 41.01"/>
        <polygon class="cls-6" points="287.21 41.01 421.59 193.84 211.78 193.84 77.4 41.01 287.21 41.01"/>
        <path class="cls-4" d="M1039.94,63.12v108.6c0,1.99-.26,3.92-.76,5.76-.5,1.88-1.24,3.66-2.21,5.3-3.81,6.61-10.95,11.06-19.14,11.06h-172.99l-134.38-152.83h307.37c8.16,0,15.29,4.42,19.11,11,.97,1.64,1.72,3.42,2.23,5.3.5,1.85.77,3.8.77,5.81Z"/>
        <polygon class="cls-5" points="211.66 193.84 1.85 193.84 0 193.84 0 41.01 77.28 41.01 211.66 193.84"/>
        <path class="cls-3" d="M1039.17,57.31H0v-5.3h1036.94c.97,1.64,1.72,3.42,2.23,5.3Z"/>
        <path class="cls-3" d="M1039.18,177.48c-.5,1.88-1.24,3.66-2.21,5.3H0v-5.3h1039.18Z"/>
      </g>
    </g>
  </g>
</svg>