<?xml version="1.0" encoding="UTF-8"?>
<svg id="_Слой_2" data-name="Слой 2" xmlns="http://www.w3.org/2000/svg" xmlns:xlink="http://www.w3.org/1999/xlink" viewBox="0 0 848.36 679">
  <defs>
    <style>
      .cls-1, .cls-2 {
        fill: #fff;
      }

      .cls-3 {
        opacity: .17;
      }

      .cls-4 {
        opacity: .25;
      }

      .cls-5, .cls-2 {
        stroke: #000;
        stroke-miterlimit: 10;
        stroke-width: 1.27px;
      }

      .cls-6 {
        fill: url(#_Безымянный_градиент_40);
      }

      .cls-7 {
        fill: #4c9350;
      }

      .cls-8 {
        fill: #42c352;
      }
    </style>
    <linearGradient id="_Безымянный_градиент_40" data-name="Безымянный градиент 40" x1="171.22" y1="261.83" x2="73.9" y2="93.27" gradientUnits="userSpaceOnUse">
      <stop offset="0" stop-color="#00373d"/>
      <stop offset="1" stop-color="#006177"/>
    </linearGradient>
  </defs>
  <g id="_Слой_1-2" data-name="Слой 1">
    <g>
      <rect class="cls-1" y="0" width="848.36" height="679" rx="42.22" ry="42.22"/>
      <g>
        <path class="cls-6" d="M219.85,177.55c0,1.49-.03,2.97-.1,4.44-.04.88-.09,1.76-.15,2.63,0,.08,0,.16-.02.24-.03.37-.05.73-.1,1.1,0,.05,0,.1-.01.15,0,.11,0,.22-.03.33,0,.11-.01.21-.02.32-.06.6-.12,1.19-.19,1.79-.01.12-.02.25-.04.37-.3,2.6-.7,5.16-1.21,7.69-.07.38-.15.76-.24,1.14-.1.5-.21,1-.32,1.49-.1.44-.2.88-.31,1.32-.02.08-.04.15-.06.23,0,.04-.01.08-.02.12-.02.09-.05.18-.07.27-.1.4-.2.8-.31,1.2-.03.14-.07.27-.11.4-.08.34-.18.68-.27,1.02-.04.13-.07.26-.11.39-.3,1.05-.61,2.09-.95,3.12-.14.45-.29.89-.44,1.34-.14.4-.27.8-.41,1.2-.01.01-.02.03-.02.04-.32.94-.67,1.87-1.03,2.8-.08.21-.16.41-.24.62-.11.28-.22.55-.34.83-.17.43-.35.87-.54,1.3-.02.04-.03.08-.05.12-.04.11-.09.21-.14.32-.06.15-.13.31-.2.46-.02.04-.03.07-.05.11,0,.02-.01.05-.03.07-.11.29-.24.57-.38.86-.05.13-.11.26-.17.4-.24.52-.48,1.05-.73,1.57-.01.02-.02.03-.02.05-.39.81-.79,1.62-1.19,2.42-16.12,31.48-48.88,53.03-86.68,53.03-53.73,0-97.29-43.56-97.29-97.3s43.56-97.3,97.29-97.3c43.03,0,79.54,27.93,92.38,66.66.03.1.06.19.09.29.37,1.13.73,2.27,1.05,3.42.02.08.04.15.06.23.18.6.35,1.21.51,1.82.02.07.04.15.06.22.15.55.28,1.1.41,1.66.01.06.03.11.04.17.2.8.38,1.62.55,2.43.03.15.06.3.09.45.43,2.03.79,4.08,1.08,6.16.16,1.06.29,2.12.41,3.19.03.27.06.54.08.81.01.07.01.13.02.2.01.11.02.23.03.34.1,1.03.18,2.07.24,3.11.14,2.03.2,4.08.2,6.14Z"/>
        <g>
          <g>
            <g>
              <path class="cls-7" d="M148.88,180.68v10.68c0,2.98-2.41,5.38-5.37,5.38h-9.25v-3.46h-1.82c.05-7.15,5.85-12.94,13-13v.39h3.44Z"/>
              <path class="cls-7" d="M148.88,180.29v.39h-3.44v-.39h3.44Z"/>
              <path class="cls-7" d="M148.88,150.98v29.31h-3.44v-29.31h3.44Z"/>
              <path class="cls-7" d="M148.88,139.91v11.07h-3.44c-7.15-.05-12.96-5.85-13-13.02h1.82v-3.44h9.24c2.98,0,5.38,2.41,5.38,5.38Z"/>
              <path class="cls-8" d="M145.43,150.98v29.31c-7.15.05-12.94,5.85-13,13H60.23c-.07-7.13-5.87-12.93-13.02-12.96v-29.38c7.17-.04,12.96-5.81,13.02-12.98h72.21c.04,7.17,5.85,12.96,13,13.02ZM113.86,165.63c0-9.66-7.84-17.51-17.53-17.51s-17.51,7.84-17.51,17.51,7.83,17.53,17.51,17.53,17.53-7.84,17.53-17.53Z"/>
              <path class="cls-7" d="M134.26,193.29v3.46h-1.82v-3.46h1.82Z"/>
              <path class="cls-7" d="M134.26,134.52v3.44h-1.82v-3.44h1.82Z"/>
              <path class="cls-7" d="M132.44,193.29v3.46H60.23v-3.46h72.21Z"/>
              <path class="cls-7" d="M132.44,137.89v.07H60.23v-3.44h72.21v3.37Z"/>
              <path class="cls-7" d="M96.33,148.13c9.68,0,17.53,7.84,17.53,17.51s-7.84,17.53-17.53,17.53-17.51-7.84-17.51-17.53,7.83-17.51,17.51-17.51ZM104.32,165.63c0-4.4-3.57-7.97-7.97-7.97s-7.99,3.57-7.99,7.97,3.58,7.97,7.99,7.97,7.97-3.57,7.97-7.97Z"/>
              <path class="cls-1" d="M96.35,157.67c4.4,0,7.97,3.57,7.97,7.97s-3.57,7.97-7.97,7.97-7.99-3.57-7.99-7.97,3.58-7.97,7.99-7.97Z"/>
              <path class="cls-7" d="M60.23,193.41v3.33h-.59v-3.46h.59v.12Z"/>
              <path class="cls-7" d="M60.23,134.52v3.44h-.59v-3.44h.59Z"/>
              <path class="cls-7" d="M60.23,134.51v.02h-.59v3.44h.59c-.05,7.17-5.85,12.94-13.02,12.98v-.18h-3.42v-10.88c0-2.98,2.41-5.38,5.38-5.38h11.05Z"/>
              <path class="cls-7" d="M60.23,193.29h-.59v3.46h-10.45c-2.98,0-5.38-2.41-5.38-5.38v-10.89h3.41v-.14c7.15.04,12.94,5.83,13.02,12.96Z"/>
              <path class="cls-7" d="M47.21,180.33v.14h-3.41v-.14h3.41Z"/>
              <path class="cls-7" d="M47.21,150.94v29.38h-3.41v.14h-.04v-29.7h.02v.18h3.42Z"/>
              <path class="cls-7" d="M47.21,150.77v.18h-3.42v-.18h3.42Z"/>
            </g>
            <rect class="cls-4" x="43.79" y="134.52" width="105.1" height="62.23" rx="5.45" ry="5.45"/>
            <g>
              <rect class="cls-8" x="54.69" y="142.5" width="105.1" height="62.23" rx="5.69" ry="5.69"/>
              <circle class="cls-7" cx="107.24" cy="173.62" r="17.52"/>
              <circle class="cls-1" cx="107.25" cy="173.61" r="7.97"/>
              <path class="cls-7" d="M154.41,142.51h-11.07v3.36c0,7.23,5.86,13.09,13.09,13.09h3.36v-11.07c0-2.97-2.41-5.38-5.38-5.38Z"/>
              <path class="cls-7" d="M159.79,199.34v-11.07h-3.36c-7.23,0-13.09,5.86-13.09,13.09v3.36h11.07c2.97,0,5.38-2.41,5.38-5.38Z"/>
              <path class="cls-7" d="M60.1,204.72h11.03v-3.33c0-7.23-5.86-13.09-13.09-13.09h-3.33v11.03c0,2.97,2.41,5.38,5.38,5.38Z"/>
              <path class="cls-7" d="M54.69,147.86v11.07h3.36c7.23,0,13.09-5.86,13.09-13.09v-3.36h-11.07c-2.97,0-5.38,2.41-5.38,5.38Z"/>
              <rect class="cls-7" x="54.67" y="158.74" width="3.46" height="29.72"/>
              <rect class="cls-7" x="156.34" y="158.95" width="3.46" height="29.72"/>
              <rect class="cls-7" x="106.12" y="106.91" width="3.46" height="74.62" transform="translate(-36.38 252.07) rotate(-90)"/>
              <rect class="cls-7" x="106.12" y="165.69" width="3.46" height="74.62" transform="translate(-95.15 310.84) rotate(-90)"/>
            </g>
            <rect class="cls-3" x="54.69" y="142.48" width="105.1" height="62.23" rx="5.43" ry="5.43"/>
            <g>
              <rect class="cls-8" x="65.6" y="150.48" width="105.1" height="62.23" rx="6.28" ry="6.28"/>
              <circle class="cls-7" cx="118.15" cy="181.6" r="17.52"/>
              <circle class="cls-1" cx="118.16" cy="181.59" r="7.97"/>
              <path class="cls-7" d="M165.31,150.49h-11.07v3.36c0,7.23,5.86,13.09,13.09,13.09h3.36v-11.07c0-2.97-2.41-5.38-5.38-5.38Z"/>
              <path class="cls-7" d="M170.7,207.32v-11.07h-3.36c-7.23,0-13.09,5.86-13.09,13.09v3.36h11.07c2.97,0,5.38-2.41,5.38-5.38Z"/>
              <path class="cls-7" d="M71.01,212.7h11.03v-3.33c0-7.23-5.86-13.09-13.09-13.09h-3.33v11.03c0,2.97,2.41,5.38,5.38,5.38Z"/>
              <path class="cls-7" d="M65.6,155.84v11.07h3.36c7.23,0,13.09-5.86,13.09-13.09v-3.36h-11.07c-2.97,0-5.38,2.41-5.38,5.38Z"/>
              <rect class="cls-7" x="65.58" y="166.72" width="3.46" height="29.72"/>
              <rect class="cls-7" x="167.24" y="166.93" width="3.46" height="29.72"/>
              <rect class="cls-7" x="117.03" y="114.89" width="3.46" height="74.62" transform="translate(-33.45 270.96) rotate(-90)"/>
              <rect class="cls-7" x="117.03" y="173.67" width="3.46" height="74.62" transform="translate(-92.22 329.73) rotate(-90)"/>
            </g>
          </g>
          <g>
            <path d="M140.82,210.76c-.13.16-.33.42-.57.73-1.33,1.75-2,2.64-2.27,3.72-.43,1.7.21,3.57.58,3.57.3,0,.69-1.23,1.12-6.23"/>
            <path d="M185.16,200.45c-.08-.06.64-.64.66-1.53.02-.85-.6-1.43-.55-1.47.07-.05,1.09.69,1,1.66-.09.87-1.03,1.41-1.11,1.34Z"/>
            <path d="M138.79,186.71c-.19-.07.08-1.72,1.01-3.14.3-.46.88-1.22,1.03-1.13.21.12-.59,1.97-1.41,3.38-.35.61-.54.93-.63.89Z"/>
            <path d="M165.24,219.86c.06.21,1.44.1,2.62-.32,1.08-.39,1.83-.98,2.27-1.38-1.18-.85-1.86-.85-2.26-.69-.65.26-.69.97-1.85,1.82-.49.36-.81.47-.78.57Z"/>
            <path d="M178.93,220.26c.42.7,2.42.19,2.66.13,1.48-.38,2.41-1.28,3.12-1.98.7-.7,2.16-2.14,1.8-2.77-.39-.7-2.92-.31-4.78.84-1.73,1.07-3.25,3.03-2.8,3.78Z"/>
            <path d="M201.69,219.47c.12.8,3.23,1.51,5.41.26.74-.42,1.74-1.28,1.56-1.82-.24-.7-2.39-.66-3.96-.24-1.19.32-3.1,1.15-3,1.81Z"/>
            <path d="M168.86,217.74c-.24,1.02-.86,2.12-3.54,2.28-4.24.31-8.88.31-10.14.31-2.52-.08-5.66,0-8.18,0-1.96-.08-4.4-.16-5.03-.16-1.96-.08-4.01-.71-4.01-3.07,0-1.57.86-2.83,1.57-4.01.94-1.73,3.93-3.77,8.02-7.31,3.62-3.22,8.65-7.55,9.67-11.4,1.42-4.95-2.59-8.8-6.92-7.94-2.83.63-3.3,1.81-4.56,3.22-1.42,1.49-3.93,1.65-5.19.86-1.89-1.26-2.52-3.69-1.26-5.58,1.57-2.52,3.54-5.03,10.06-5.9,8.8-1.02,16.04,3.22,16.82,11.32.55,5.9-1.97,10.38-7.47,14.93-2.44,1.96-7.39,5.9-7.78,6.6-.55.94,0,1.65.63,1.65,2.2,0,12.5-.16,15.09.16,1.49.24,2.2,1.57,2.28,2.28.08.55.08,1.18-.08,1.73Z"/>
            <path d="M205.02,220.33c-2.67.31-4.01-.31-5.5-2.36-.79-1.1-3.93-6.21-7.07-10.85-.63-.94-1.1-.94-1.73.08-2.2,4.01-3.93,7.39-6.52,10.61-1.81,2.2-3.38,3.38-5.74,2.52-2.2-.79-2.75-2.67-2.04-4.87.94-2.91,3.22-7.39,7.31-12.66.47-.71,1.18-1.73,1.81-2.59.55-.86.47-1.57,0-2.28-.94-1.57-3.3-4.64-5.27-7.47-1.41-1.97-1.73-2.36-2.91-4.56-1.02-1.96-.55-4.87,1.73-5.58,2.12-.63,3.93.31,5.42,2.36,1.49,2.04,4.25,7,5.74,9.12.55.71.94.71,1.65-.39.63-1.02,1.49-2.75,2.28-4.01.55-1.02,2.67-4.4,3.69-5.5,1.1-1.26,3.14-1.97,4.79-1.26,1.81.86,2.52,3.22,1.49,5.34-.79,1.73-2.75,4.72-4.72,7.47-1.1,1.57-1.97,2.91-2.67,4.01-.47.86-.63,1.57,0,2.52.63.86,1.34,1.97,1.73,2.44,1.34,1.73,2.2,2.75,4.09,5.66,1.89,2.83,2.99,4.79,4.17,6.92,1.1,1.97.08,5.03-1.73,5.35Z"/>
            <path class="cls-2" d="M170.19,216.59c-.24,1.03-.87,2.13-3.55,2.29-4.26.32-8.92.32-10.18.32-2.53-.08-5.68,0-8.21,0-1.97-.08-4.42-.16-5.05-.16-1.97-.08-4.02-.71-4.02-3.08,0-1.58.87-2.84,1.58-4.03.95-1.74,3.95-3.79,8.05-7.34,3.63-3.24,8.68-7.58,9.71-11.44,1.42-4.97-2.6-8.84-6.95-7.97-2.84.63-3.32,1.82-4.58,3.24-1.42,1.5-3.95,1.66-5.21.87-1.89-1.26-2.53-3.71-1.26-5.6,1.58-2.53,3.55-5.05,10.1-5.92,8.84-1.03,16.1,3.24,16.89,11.37.55,5.92-1.97,10.42-7.5,15-2.45,1.97-7.42,5.92-7.81,6.63-.55.95,0,1.66.63,1.66,2.21,0,12.55-.16,15.15.16,1.5.24,2.21,1.58,2.29,2.29.08.55.08,1.18-.08,1.74Z"/>
            <path class="cls-1" d="M170.19,216.59c-.24,1.03-.87,2.13-3.55,2.29-4.26.32-8.92.32-10.18.32-2.53-.08-5.68,0-8.21,0-1.97-.08-4.42-.16-5.05-.16-1.97-.08-4.02-.71-4.02-3.08,0-1.58.87-2.84,1.58-4.03.95-1.74,3.95-3.79,8.05-7.34,3.63-3.24,8.68-7.58,9.71-11.44,1.42-4.97-2.6-8.84-6.95-7.97-2.84.63-3.32,1.82-4.58,3.24-1.42,1.5-3.95,1.66-5.21.87-1.89-1.26-2.53-3.71-1.26-5.6,1.58-2.53,3.55-5.05,10.1-5.92,8.84-1.03,16.1,3.24,16.89,11.37.55,5.92-1.97,10.42-7.5,15-2.45,1.97-7.42,5.92-7.81,6.63-.55.95,0,1.66.63,1.66,2.21,0,12.55-.16,15.15.16,1.5.24,2.21,1.58,2.29,2.29.08.55.08,1.18-.08,1.74Z"/>
            <path class="cls-5" d="M206.5,219.2c-2.68.32-4.02-.32-5.52-2.37-.79-1.1-3.95-6.24-7.1-10.89-.63-.95-1.1-.95-1.74.08-2.21,4.02-3.95,7.42-6.55,10.65-1.82,2.21-3.39,3.39-5.76,2.53-2.21-.79-2.76-2.68-2.05-4.89.95-2.92,3.24-7.42,7.34-12.71.47-.71,1.18-1.74,1.82-2.6.55-.87.47-1.58,0-2.29-.95-1.58-3.32-4.66-5.29-7.5-1.42-1.97-1.74-2.37-2.92-4.58-1.03-1.97-.55-4.89,1.74-5.6,2.13-.63,3.95.32,5.45,2.37,1.5,2.05,4.26,7.02,5.76,9.16.55.71.95.71,1.66-.39.63-1.03,1.5-2.76,2.29-4.03.55-1.03,2.68-4.42,3.71-5.52,1.11-1.26,3.16-1.97,4.81-1.26,1.82.87,2.53,3.24,1.5,5.37-.79,1.74-2.76,4.74-4.74,7.5-1.11,1.58-1.97,2.92-2.68,4.03-.47.87-.63,1.58,0,2.53.63.87,1.34,1.97,1.74,2.45,1.34,1.74,2.21,2.76,4.1,5.68,1.89,2.84,3,4.81,4.18,6.95,1.1,1.97.08,5.05-1.74,5.37ZM206.5,219.2c-2.68.32-4.02-.32-5.52-2.37-.79-1.1-3.95-6.24-7.1-10.89-.63-.95-1.1-.95-1.74.08-2.21,4.02-3.95,7.42-6.55,10.65-1.82,2.21-3.39,3.39-5.76,2.53-2.21-.79-2.76-2.68-2.05-4.89.95-2.92,3.24-7.42,7.34-12.71.47-.71,1.18-1.74,1.82-2.6.55-.87.47-1.58,0-2.29-.95-1.58-3.32-4.66-5.29-7.5-1.42-1.97-1.74-2.37-2.92-4.58-1.03-1.97-.55-4.89,1.74-5.6,2.13-.63,3.95.32,5.45,2.37,1.5,2.05,4.26,7.02,5.76,9.16.55.71.95.71,1.66-.39.63-1.03,1.5-2.76,2.29-4.03.55-1.03,2.68-4.42,3.71-5.52,1.11-1.26,3.16-1.97,4.81-1.26,1.82.87,2.53,3.24,1.5,5.37-.79,1.74-2.76,4.74-4.74,7.5-1.11,1.58-1.97,2.92-2.68,4.03-.47.87-.63,1.58,0,2.53.63.87,1.34,1.97,1.74,2.45,1.34,1.74,2.21,2.76,4.1,5.68,1.89,2.84,3,4.81,4.18,6.95,1.1,1.97.08,5.05-1.74,5.37Z"/>
            <path d="M177.01,182.7c-.03-.29.17-.71.55-1.54.26-.55.39-.85.67-1.21.3-.39.88-1.15,1.3-1.07.95.18,1.63,4.82.27,5.52-.87.45-2.69-.66-2.79-1.7Z"/>
            <path class="cls-1" d="M206.5,219.2c-2.68.32-4.02-.32-5.52-2.37-.79-1.1-3.95-6.24-7.1-10.89-.63-.95-1.1-.95-1.74.08-2.21,4.02-3.95,7.42-6.55,10.65-1.82,2.21-3.39,3.39-5.76,2.53-2.21-.79-2.76-2.68-2.05-4.89.95-2.92,3.24-7.42,7.34-12.71.47-.71,1.18-1.74,1.82-2.6.55-.87.47-1.58,0-2.29-.95-1.58-3.32-4.66-5.29-7.5-1.42-1.97-1.74-2.37-2.92-4.58-1.03-1.97-.55-4.89,1.74-5.6,2.13-.63,3.95.32,5.45,2.37,1.5,2.05,4.26,7.02,5.76,9.16.55.71.95.71,1.66-.39.63-1.03,1.5-2.76,2.29-4.03.55-1.03,2.68-4.42,3.71-5.52,1.11-1.26,3.16-1.97,4.81-1.26,1.82.87,2.53,3.24,1.5,5.37-.79,1.74-2.76,4.74-4.74,7.5-1.11,1.58-1.97,2.92-2.68,4.03-.47.87-.63,1.58,0,2.53.63.87,1.34,1.97,1.74,2.45,1.34,1.74,2.21,2.76,4.1,5.68,1.89,2.84,3,4.81,4.18,6.95,1.1,1.97.08,5.05-1.74,5.37ZM206.5,219.2c-2.68.32-4.02-.32-5.52-2.37-.79-1.1-3.95-6.24-7.1-10.89-.63-.95-1.1-.95-1.74.08-2.21,4.02-3.95,7.42-6.55,10.65-1.82,2.21-3.39,3.39-5.76,2.53-2.21-.79-2.76-2.68-2.05-4.89.95-2.92,3.24-7.42,7.34-12.71.47-.71,1.18-1.74,1.82-2.6.55-.87.47-1.58,0-2.29-.95-1.58-3.32-4.66-5.29-7.5-1.42-1.97-1.74-2.37-2.92-4.58-1.03-1.97-.55-4.89,1.74-5.6,2.13-.63,3.95.32,5.45,2.37,1.5,2.05,4.26,7.02,5.76,9.16.55.71.95.71,1.66-.39.63-1.03,1.5-2.76,2.29-4.03.55-1.03,2.68-4.42,3.71-5.52,1.11-1.26,3.16-1.97,4.81-1.26,1.82.87,2.53,3.24,1.5,5.37-.79,1.74-2.76,4.74-4.74,7.5-1.11,1.58-1.97,2.92-2.68,4.03-.47.87-.63,1.58,0,2.53.63.87,1.34,1.97,1.74,2.45,1.34,1.74,2.21,2.76,4.1,5.68,1.89,2.84,3,4.81,4.18,6.95,1.1,1.97.08,5.05-1.74,5.37Z"/>
          </g>
        </g>
      </g>
    </g>
  </g>
</svg>