<?xml version="1.0" encoding="UTF-8"?>
<svg id="_Слой_2" data-name="Слой 2" xmlns="http://www.w3.org/2000/svg" viewBox="0 0 136.7 146.41">
  <defs>
    <style>
      .cls-1 {
        fill: #364044;
      }

      .cls-2 {
        stroke-width: 1px;
      }

      .cls-2, .cls-3 {
        fill: none;
      }

      .cls-2, .cls-3, .cls-4 {
        stroke: #35a2ff;
        stroke-miterlimit: 10;
      }

      .cls-5 {
        fill: #fff;
      }

      .cls-3 {
        stroke-width: 1.2px;
      }

      .cls-4 {
        fill: #35a2ff;
      }
    </style>
  </defs>
  <g id="_Слой_1-2" data-name="Слой 1">
    <g>
      <g>
        <rect class="cls-1" width="136.7" height="146.41" rx="12.65" ry="12.65"/>
        <rect class="cls-5" width="136.7" height="137.61" rx="12.27" ry="12.27"/>
      </g>
      <g>
        <g>
          <rect class="cls-3" x="11.41" y="28.57" width="113.88" height="61.17"/>
          <rect class="cls-2" x="53.58" y="89.74" width="29.53" height="5.57"/>
          <rect class="cls-2" x="42.63" y="95.31" width="51.44" height="6.19"/>
        </g>
        <g>
          <path class="cls-4" d="M52.53,74.49c-.64,0-.97-.34-.97-1.02v-30.1h-11.64c-.68,0-1.01-.31-1.01-.93,0-.59.34-.88,1.01-.88h25.21c.67,0,1.01.29,1.01.88,0,.62-.34.93-1.01.93h-11.64v30.1c0,.68-.32,1.02-.97,1.02Z"/>
          <path class="cls-4" d="M81.83,74.49c-.64,0-1.1-.35-1.38-1.07l-13.2-30.93c-.15-.4-.13-.7.07-.9.2-.2.45-.3.76-.3.46,0,.81.26,1.06.79l12.7,29.77,12.7-29.77c.25-.52.61-.79,1.1-.79.34,0,.58.12.74.35.15.23.15.52,0,.86l-13.2,30.93c-.28.71-.72,1.07-1.33,1.07Z"/>
        </g>
      </g>
    </g>
  </g>
</svg>