<?xml version="1.0" encoding="UTF-8"?>
<svg id="_Слой_2" data-name="Слой 2" xmlns="http://www.w3.org/2000/svg" viewBox="0 0 876.46 298.49">
  <defs>
    <style>
      .cls-1 {
        fill: #fff;
      }

      .cls-2 {
        fill: #c8c8c8;
      }

      .cls-3 {
        fill: #4c9350;
      }

      .cls-4 {
        fill: #42c352;
      }

      .cls-5 {
        fill: #181c1e;
      }
    </style>
  </defs>
  <g id="_Слой_1-2" data-name="Слой 1">
    <g>
      <g>
        <rect class="cls-2" width="876.46" height="298.49" rx="42.46" ry="42.46"/>
        <rect class="cls-1" width="876.46" height="285.88" rx="41.55" ry="41.55"/>
      </g>
      <rect class="cls-5" x="42.82" y="234.45" width="171.17" height="32.92" rx="15.73" ry="15.73"/>
    </g>
    <g>
      <rect class="cls-4" x="253.28" y="219.62" width="50.15" height="29.69" rx="2.79" ry="2.79"/>
      <circle class="cls-3" cx="278.36" cy="234.47" r="8.36"/>
      <circle class="cls-1" cx="278.36" cy="234.46" r="3.8"/>
      <path class="cls-3" d="M301.07,219.62h-4.62s-35.32,0-35.32,0h0s-5.49,0-5.49,0c-1.3,0-2.36,1.06-2.36,2.36v5.4h0v14.18h.02v5.4c0,1.3,1.06,2.36,2.36,2.36h5.19s34.74,0,34.74,0h5.49c1.3,0,2.36-1.06,2.36-2.36v-19.48h0v-5.49c0-1.3-1.06-2.36-2.36-2.36ZM301.78,227.47v13.99c-3.41.02-6.17,2.79-6.2,6.2h-34.46c-.03-3.41-2.79-6.16-6.2-6.18v-14.02c3.42-.02,6.18-2.78,6.21-6.19h34.46c.02,3.42,2.79,6.18,6.2,6.2h0Z"/>
    </g>
  </g>
</svg>