<?xml version="1.0" encoding="UTF-8"?>
<svg id="_Слой_2" data-name="Слой 2" xmlns="http://www.w3.org/2000/svg" viewBox="0 0 440.12 51.31">
  <defs>
    <style>
      .cls-1 {
        fill: #fff;
      }

      .cls-2 {
        fill: #f7ac3b;
      }

      .cls-3 {
        fill: #ca8434;
      }

      .cls-4 {
        fill: #4c9350;
      }

      .cls-5 {
        fill: #42c352;
      }

      .cls-6 {
        fill: #181c1e;
      }
    </style>
  </defs>
  <g id="_Слой_1-2" data-name="Слой 1">
    <rect class="cls-6" x="0" y="0" width="440.12" height="51.31" rx="25.66" ry="25.66"/>
    <g>
      <rect class="cls-5" x="14.58" y="9.56" width="56.33" height="32.2" rx="2.83" ry="2.83"/>
      <ellipse class="cls-4" cx="42.74" cy="25.67" rx="9.39" ry="9.07"/>
      <ellipse class="cls-1" cx="42.75" cy="25.66" rx="4.27" ry="4.13"/>
      <path class="cls-4" d="M68.25,9.56h-5.19s-39.67,0-39.67,0h0s-6.16,0-6.16,0c-1.46,0-2.65,1.15-2.65,2.56v5.85h-.01v15.38h.02v5.86c0,1.41,1.19,2.56,2.65,2.56h5.83s39.02,0,39.02,0h6.16c1.46,0,2.65-1.15,2.65-2.56v-21.13h0v-5.95c0-1.41-1.19-2.56-2.65-2.56ZM69.05,18.07v15.18c-3.83.03-6.93,3.02-6.96,6.72H23.39c-.04-3.7-3.14-6.68-6.97-6.7v-15.21c3.84-.02,6.94-3.01,6.97-6.72h38.7c.02,3.71,3.13,6.7,6.97,6.73h0Z"/>
    </g>
    <g>
      <polygon class="cls-3" points="320.85 9.8 335.51 9.8 325.9 21.95 334.34 21.95 312.66 42.89 318.87 28.52 312.94 28.52 320.85 9.8"/>
      <polygon class="cls-2" points="319.14 9.8 333.69 9.8 324.08 22.59 332.52 22.59 312.66 42.89 317.05 29.15 311.12 29.15 319.14 9.8"/>
    </g>
  </g>
</svg>