<svg xmlns="http://www.w3.org/2000/svg" viewBox="0 0 55.65 55.65"><defs><style>.cls-1{fill:none;stroke:#00768b;stroke-miterlimit:10;stroke-width:2px;}.cls-2{fill:#00768b;}</style></defs><title>Selected</title><g id="Слой_2" data-name="Слой 2"><g id="Слой_1-2" data-name="Слой 1"><circle class="cls-1" cx="27.82" cy="27.82" r="26.82"/><path class="cls-2" d="M39.83,13.36c-2,3.16-10.38,16.42-13.16,20.8a1.06,1.06,0,0,1-1.79,0l-8.8-13.82A1.94,1.94,0,0,0,14,19.51l-.91.24a1.23,1.23,0,0,0-.75,1.84L25.38,42.9a.53.53,0,0,0,1,0L43.22,15.39a1.94,1.94,0,0,0-2.11-2.91h-.06A2,2,0,0,0,39.83,13.36Z"/></g></g></svg>