<svg xmlns="http://www.w3.org/2000/svg" viewBox="0 0 143.92 63.87"><defs><style>.cls-1{fill:#d5860b;}.cls-2{fill:#f4a508;}.cls-3{fill:#98570d;}.cls-4{fill:#fff;}</style></defs><title>button_ads</title><g id="Слой_2" data-name="Слой 2"><g id="Слой_1-2" data-name="Слой 1"><rect class="cls-1" y="4.44" width="143.92" height="59.42" rx="21.34"/><rect class="cls-2" width="143.92" height="58.49" rx="21.17"/><rect class="cls-3" x="39.92" y="7.49" width="54.57" height="40.89" rx="2.59"/><ellipse class="cls-2" cx="67.2" cy="27.93" rx="13.69" ry="13.1"/><path class="cls-4" d="M76,27.47l-13.4-7.41a.54.54,0,0,0-.79.47V35.34a.54.54,0,0,0,.79.47L76,28.4A.53.53,0,0,0,76,27.47Z"/><path class="cls-3" d="M108,11.82V27.93H90.46V18.18l15.82-7.39A1.2,1.2,0,0,1,108,11.82Z"/><path class="cls-3" d="M108,44.05V27.93H90.46v9.75l15.82,7.4A1.2,1.2,0,0,0,108,44.05Z"/></g></g></svg>