<svg xmlns="http://www.w3.org/2000/svg" viewBox="0 0 261.41 371.58"><defs><style>.cls-1{fill:#006177;}.cls-2{opacity:0.1;}.cls-3{opacity:0.13;}.cls-4{fill:#00a6c2;}.cls-5{fill:#00ccef;}.cls-6{fill:#2ce4ff;}.cls-7{fill:#e2eaff;}.cls-8{opacity:0.26;}.cls-9{fill:#b60f34;}.cls-10{fill:#e50e2a;}.cls-11{fill:#a60025;}.cls-12{fill:#fac71f;}.cls-13{fill:#fff;}</style></defs><title>diam_4</title><g id="Слой_2" data-name="Слой 2"><g id="Слой_1-2" data-name="Слой 1"><path class="cls-1" d="M261.41,24.65V346.93a24.74,24.74,0,0,1-24.69,24.65h-212a24.51,24.51,0,0,1-10.12-2.18h0c-.29-.13-.57-.28-.85-.42l-.6-.33a.51.51,0,0,1-.16-.09,23.74,23.74,0,0,1-2.72-1.69A24.62,24.62,0,0,1,0,346.93V24.65A24.74,24.74,0,0,1,24.69,0h212A24.74,24.74,0,0,1,261.41,24.65Z"/><path class="cls-2" d="M199.83,0,0,199.52V24.65A24.74,24.74,0,0,1,24.69,0Z"/><path class="cls-3" d="M261.41,107.46V345.39c0,14.41-11.41,26.19-25.36,26.19H24.69a24.51,24.51,0,0,1-10.12-2.18h0c-.29-.13-.57-.28-.85-.42l-.6-.33a.51.51,0,0,1-.16-.09,23.74,23.74,0,0,1-2.72-1.69l0-.06h0Z"/><polygon class="cls-4" points="200.83 144.19 212.14 147.05 206.8 157.53 200.83 144.19"/><polygon class="cls-5" points="212.14 147.05 219.58 160.77 206.8 157.53 212.14 147.05"/><polygon class="cls-4" points="206.8 157.53 219.58 160.77 193 175.01 206.8 157.53"/><polygon class="cls-4" points="200.83 144.18 189.52 141.32 189.21 153.07 200.83 144.18"/><polygon class="cls-5" points="189.52 141.32 176.43 149.84 189.21 153.07 189.52 141.32"/><polygon class="cls-4" points="189.21 153.07 176.43 149.84 193 175.01 189.21 153.07"/><polygon class="cls-5" points="193 175.01 206.8 157.53 189.21 153.07 193 175.01"/><polygon class="cls-6" points="200.83 144.18 189.21 153.07 206.8 157.53 200.83 144.18"/><path class="cls-7" d="M189.81,154.46l5.33-4.08a1.47,1.47,0,0,0,.28-2.06h0a1.49,1.49,0,0,0-2.07-.28L188,152.13a1.47,1.47,0,0,0-.28,2.06h0A1.49,1.49,0,0,0,189.81,154.46Z"/><g class="cls-8"><polygon points="200.92 144.23 212.23 147.09 206.89 157.58 200.92 144.23"/><polygon points="212.23 147.09 219.67 160.81 206.89 157.58 212.23 147.09"/><polygon points="206.89 157.58 219.67 160.81 193.09 175.05 206.89 157.58"/><polygon points="200.92 144.23 189.61 141.36 189.3 153.12 200.92 144.23"/><polygon points="189.61 141.36 176.51 149.88 189.3 153.12 189.61 141.36"/><polygon points="189.3 153.12 176.51 149.88 193.09 175.05 189.3 153.12"/><polygon points="193.09 175.05 206.89 157.57 189.3 153.12 193.09 175.05"/><polygon points="200.92 144.23 189.3 153.12 206.89 157.57 200.92 144.23"/><path d="M189.89,154.51l5.34-4.09a1.47,1.47,0,0,0,.27-2.06h0a1.48,1.48,0,0,0-2.06-.27l-5.34,4.08a1.48,1.48,0,0,0-.27,2.06h0A1.47,1.47,0,0,0,189.89,154.51Z"/></g><path class="cls-9" d="M169.09,155.3a90.32,90.32,0,0,0,5.45-31.52c0-34.62-18-62.69-40.26-62.69S94,89.16,94,123.78a90.38,90.38,0,0,0,5.46,31.53C91,144,85.78,128.62,85.78,111.64,85.78,77,107.49,49,134.28,49S182.79,77,182.79,111.64C182.79,128.62,177.57,144,169.09,155.3Z"/><polygon class="cls-10" points="213.34 242.75 49.56 242.75 55.2 208.4 71.84 106.84 190.89 106.84 207.83 209.39 213.34 242.75"/><path class="cls-11" d="M213.34,242.75H49.57L55.2,208.4c20,6.69,45.93,14.69,76.27,14.87s56.19-7.32,76.36-13.88Z"/><path class="cls-9" d="M57.14,105.22v20.87A14.79,14.79,0,0,0,64.65,139l54.29,30.8a22.14,22.14,0,0,0,21.69.08L198,138.9a14.78,14.78,0,0,0,7.79-13V105.22Z"/><rect class="cls-12" x="81.4" y="99.41" width="21.65" height="10.38"/><rect class="cls-12" x="164.84" y="99.48" width="21.65" height="10.38"/><ellipse class="cls-12" cx="130.21" cy="162.88" rx="6.35" ry="6.34"/><polygon class="cls-4" points="70.47 201.09 99.39 201.09 92.97 229.52 70.47 201.09"/><polygon class="cls-5" points="99.39 201.09 125.64 229.52 92.97 229.52 99.39 201.09"/><polygon class="cls-4" points="92.97 229.52 125.64 229.52 70.47 279.89 92.97 229.52"/><polygon class="cls-4" points="70.47 201.08 41.56 201.08 47.98 229.51 70.47 201.08"/><polygon class="cls-5" points="41.56 201.08 15.31 229.51 47.98 229.51 41.56 201.08"/><polygon class="cls-4" points="47.98 229.51 15.31 229.51 70.47 279.88 47.98 229.51"/><polygon class="cls-5" points="70.47 279.88 92.97 229.51 47.98 229.51 70.47 279.88"/><polygon class="cls-6" points="70.47 201.08 47.98 229.51 92.97 229.51 70.47 201.08"/><path class="cls-7" d="M50.27,232.48l10.32-13a3.64,3.64,0,0,0-.6-5.12h0a3.66,3.66,0,0,0-5.12.6L44.54,228a3.65,3.65,0,0,0,.61,5.12h0A3.66,3.66,0,0,0,50.27,232.48Z"/><polygon class="cls-4" points="216.92 221.56 231.78 229.31 220.83 242.2 216.92 221.56"/><polygon class="cls-5" points="231.78 229.31 237.62 250.97 220.83 242.2 231.78 229.31"/><polygon class="cls-4" points="220.83 242.2 237.62 250.97 195.72 262.05 220.83 242.2"/><polygon class="cls-4" points="216.92 221.56 202.06 213.8 197.71 230.13 216.92 221.56"/><polygon class="cls-5" points="202.06 213.8 180.92 221.37 197.71 230.13 202.06 213.8"/><polygon class="cls-4" points="197.71 230.13 180.92 221.37 195.72 262.05 197.71 230.13"/><polygon class="cls-5" points="195.72 262.05 220.83 242.2 197.71 230.13 195.72 262.05"/><polygon class="cls-6" points="216.92 221.56 197.71 230.13 220.83 242.2 216.92 221.56"/><path class="cls-7" d="M198.09,232.27l8.82-3.94a2.12,2.12,0,0,0,1.07-2.79h0a2.14,2.14,0,0,0-2.8-1.07l-8.82,3.94a2.13,2.13,0,0,0-1.07,2.79h0A2.13,2.13,0,0,0,198.09,232.27Z"/><polygon class="cls-4" points="149.13 236.76 165.78 234.85 163.97 251.65 149.13 236.76"/><polygon class="cls-5" points="165.78 234.85 182.79 249.49 163.97 251.65 165.78 234.85"/><polygon class="cls-4" points="163.97 251.65 182.79 249.49 154.35 282.15 163.97 251.65"/><polygon class="cls-4" points="149.13 236.76 132.47 238.67 138.05 254.62 149.13 236.76"/><polygon class="cls-5" points="132.47 238.67 119.23 256.78 138.05 254.62 132.47 238.67"/><polygon class="cls-4" points="138.05 254.62 119.23 256.78 154.35 282.15 138.05 254.62"/><polygon class="cls-5" points="154.35 282.15 163.97 251.65 138.05 254.62 154.35 282.15"/><polygon class="cls-6" points="149.13 236.76 138.05 254.62 163.97 251.65 149.13 236.76"/><path class="cls-7" d="M139.57,256.18l5.08-8.2a2.12,2.12,0,0,0-.69-2.91h0a2.12,2.12,0,0,0-2.91.68L136,254a2.12,2.12,0,0,0,.68,2.91h0A2.13,2.13,0,0,0,139.57,256.18Z"/><polygon class="cls-4" points="239.26 169.12 251.22 175.36 242.41 185.72 239.26 169.12"/><polygon class="cls-5" points="251.22 175.36 255.91 192.77 242.41 185.72 251.22 175.36"/><polygon class="cls-4" points="242.41 185.72 255.91 192.77 222.21 201.69 242.41 185.72"/><polygon class="cls-4" points="239.26 169.12 227.31 162.88 223.81 176.01 239.26 169.12"/><polygon class="cls-5" points="227.31 162.88 210.31 168.96 223.81 176.01 227.31 162.88"/><polygon class="cls-4" points="223.81 176.01 210.31 168.96 222.21 201.69 223.81 176.01"/><polygon class="cls-5" points="222.21 201.69 242.41 185.72 223.81 176.01 222.21 201.69"/><polygon class="cls-6" points="239.26 169.12 223.81 176.01 242.41 185.72 239.26 169.12"/><path class="cls-7" d="M224.11,177.73l7.1-3.16a1.72,1.72,0,0,0,.86-2.25h0a1.72,1.72,0,0,0-2.25-.86l-7.09,3.17a1.7,1.7,0,0,0-.86,2.25h0A1.69,1.69,0,0,0,224.11,177.73Z"/><polygon class="cls-4" points="239.65 114.41 248.37 118.96 241.94 126.52 239.65 114.41"/><polygon class="cls-5" points="248.37 118.96 251.8 131.66 241.94 126.52 248.37 118.96"/><polygon class="cls-4" points="241.94 126.52 251.8 131.66 227.21 138.17 241.94 126.52"/><polygon class="cls-4" points="239.65 114.41 230.93 109.85 228.38 119.44 239.65 114.41"/><polygon class="cls-5" points="230.93 109.85 218.53 114.3 228.38 119.44 230.93 109.85"/><polygon class="cls-4" points="228.38 119.44 218.53 114.3 227.21 138.17 228.38 119.44"/><polygon class="cls-5" points="227.21 138.17 241.94 126.52 228.38 119.44 227.21 138.17"/><polygon class="cls-6" points="239.65 114.41 228.38 119.44 241.94 126.52 239.65 114.41"/><path class="cls-7" d="M228.6,120.69l5.17-2.31a1.24,1.24,0,0,0,.63-1.64h0a1.25,1.25,0,0,0-1.64-.62l-5.17,2.31a1.24,1.24,0,0,0-.63,1.64h0A1.25,1.25,0,0,0,228.6,120.69Z"/><polygon class="cls-4" points="131.54 74.21 142.23 73.19 140.86 83.94 131.54 74.21"/><polygon class="cls-5" points="142.23 73.19 152.94 82.78 140.86 83.94 142.23 73.19"/><polygon class="cls-4" points="140.86 83.94 152.94 82.78 134.32 103.36 140.86 83.94"/><polygon class="cls-4" points="131.54 74.21 120.84 75.23 124.22 85.52 131.54 74.21"/><polygon class="cls-5" points="120.84 75.23 112.14 86.67 124.22 85.52 120.84 75.23"/><polygon class="cls-4" points="124.22 85.52 112.14 86.67 134.32 103.36 124.22 85.52"/><polygon class="cls-5" points="134.32 103.36 140.86 83.93 124.22 85.52 134.32 103.36"/><polygon class="cls-6" points="131.54 74.21 124.22 85.52 140.86 83.93 131.54 74.21"/><path class="cls-7" d="M125.17,86.54l3.36-5.2a1.37,1.37,0,0,0-.4-1.87h0a1.38,1.38,0,0,0-1.88.4l-3.36,5.2a1.36,1.36,0,0,0,.41,1.87h0A1.36,1.36,0,0,0,125.17,86.54Z"/><polygon class="cls-4" points="46.86 144.63 63.56 143.5 60.97 160.17 46.86 144.63"/><polygon class="cls-5" points="63.56 143.5 79.84 158.88 60.97 160.17 63.56 143.5"/><polygon class="cls-4" points="60.97 160.17 79.84 158.88 49.98 190.14 60.97 160.17"/><polygon class="cls-4" points="46.86 144.63 30.16 145.77 35 161.94 46.86 144.63"/><polygon class="cls-5" points="30.16 145.77 16.13 163.22 35 161.94 30.16 145.77"/><polygon class="cls-4" points="35 161.94 16.13 163.22 49.98 190.14 35 161.94"/><polygon class="cls-5" points="49.98 190.14 60.97 160.16 35 161.94 49.98 190.14"/><polygon class="cls-6" points="46.86 144.63 35 161.94 60.97 160.16 46.86 144.63"/><path class="cls-7" d="M36.43,163.56l5.45-7.94a2.12,2.12,0,0,0-.55-2.94h0a2.14,2.14,0,0,0-2.94.55l-5.44,8a2.11,2.11,0,0,0,.55,2.93h0A2.11,2.11,0,0,0,36.43,163.56Z"/><polygon class="cls-4" points="40.13 76.83 59.73 74.03 58.14 93.92 40.13 76.83"/><polygon class="cls-5" points="59.73 74.03 80.29 90.76 58.14 93.92 59.73 74.03"/><polygon class="cls-4" points="58.14 93.92 80.29 90.76 47.78 130.24 58.14 93.92"/><polygon class="cls-4" points="40.13 76.83 20.53 79.62 27.65 98.27 40.13 76.83"/><polygon class="cls-5" points="20.53 79.62 5.5 101.43 27.65 98.27 20.53 79.62"/><polygon class="cls-4" points="27.65 98.27 5.5 101.43 47.78 130.24 27.65 98.27"/><polygon class="cls-5" points="47.78 130.24 58.14 93.92 27.65 98.27 47.78 130.24"/><polygon class="cls-6" points="40.13 76.83 27.65 98.27 58.14 93.92 40.13 76.83"/><path class="cls-7" d="M29.29,100.4l6.12-10.52A2.11,2.11,0,0,0,34.64,87L34,86.61a2.12,2.12,0,0,0-2.89.76L25,97.89a2.11,2.11,0,0,0,.76,2.88l.67.39A2.13,2.13,0,0,0,29.29,100.4Z"/><polygon class="cls-4" points="209.77 73.77 219.23 78.85 212.11 87.02 209.77 73.77"/><polygon class="cls-5" points="219.23 78.85 222.8 92.77 212.11 87.02 219.23 78.85"/><polygon class="cls-4" points="212.11 87.02 222.8 92.77 195.87 99.55 212.11 87.02"/><polygon class="cls-4" points="209.77 73.77 200.31 68.68 197.4 79.11 209.77 73.77"/><polygon class="cls-5" points="200.31 68.68 186.71 73.37 197.4 79.11 200.31 68.68"/><polygon class="cls-4" points="197.4 79.11 186.71 73.37 195.87 99.54 197.4 79.11"/><polygon class="cls-5" points="195.87 99.54 212.11 87.02 197.4 79.11 195.87 99.54"/><polygon class="cls-6" points="209.77 73.77 197.4 79.11 212.11 87.02 209.77 73.77"/><path class="cls-7" d="M197.62,80.48,203.3,78a1.36,1.36,0,0,0,.71-1.78h0a1.38,1.38,0,0,0-1.79-.71L196.54,78a1.36,1.36,0,0,0-.7,1.78h0A1.35,1.35,0,0,0,197.62,80.48Z"/><path class="cls-13" d="M18,76.34l-.41-5.56a.56.56,0,0,1,1-.36L21.74,75a6.08,6.08,0,0,0,5.46,2.62l5.57-.42a.57.57,0,0,1,.36,1L28.52,81.4a6.08,6.08,0,0,0-2.62,5.46l.41,5.55a.57.57,0,0,1-1,.37l-3.15-4.61a6.1,6.1,0,0,0-5.47-2.62L11.1,86a.56.56,0,0,1-.36-1l4.6-3.15A6.06,6.06,0,0,0,18,76.34Z"/><path class="cls-13" d="M34.8,193.5l-.26-9.1a.92.92,0,0,1,1.7-.51l4.8,7.73a9.93,9.93,0,0,0,8.72,4.69l9.11-.27a.92.92,0,0,1,.51,1.71l-7.75,4.79a9.91,9.91,0,0,0-4.69,8.7l.26,9.09a.92.92,0,0,1-1.7.51l-4.8-7.73A9.92,9.92,0,0,0,32,208.43l-9.11.26a.92.92,0,0,1-.51-1.7l7.74-4.8A9.87,9.87,0,0,0,34.8,193.5Z"/><path class="cls-13" d="M222,162.5,218.3,159a.51.51,0,0,1,.48-.87l5,1.23a5.58,5.58,0,0,0,5.33-1.53l3.56-3.67a.51.51,0,0,1,.87.48l-1.23,5a5.54,5.54,0,0,0,1.53,5.32l3.67,3.55a.52.52,0,0,1-.48.87l-5-1.23a5.58,5.58,0,0,0-5.33,1.53l-3.56,3.66a.51.51,0,0,1-.87-.48l1.23-5A5.53,5.53,0,0,0,222,162.5Z"/><path class="cls-13" d="M195,213.33l-5.2-3.51a.64.64,0,0,1,.4-1.16l6.27.43a6.79,6.79,0,0,0,6.12-3l3.52-5.19a.64.64,0,0,1,1.16.4l-.43,6.25a6.82,6.82,0,0,0,3,6.12l5.2,3.52a.63.63,0,0,1-.4,1.15l-6.26-.43a6.84,6.84,0,0,0-6.13,3l-3.52,5.19a.64.64,0,0,1-1.16-.4l.44-6.25A6.8,6.8,0,0,0,195,213.33Z"/><polygon class="cls-4" points="86.63 7.68 97.75 7.68 95.28 18.89 86.63 7.68"/><polygon class="cls-5" points="97.75 7.68 107.86 18.89 95.28 18.89 97.75 7.68"/><polygon class="cls-4" points="95.28 18.89 107.86 18.89 86.63 38.75 95.28 18.89"/><polygon class="cls-4" points="86.63 7.68 75.5 7.68 77.97 18.89 86.63 7.68"/><polygon class="cls-5" points="75.5 7.68 65.4 18.89 77.97 18.89 75.5 7.68"/><polygon class="cls-4" points="77.97 18.89 65.4 18.89 86.63 38.75 77.97 18.89"/><polygon class="cls-5" points="86.63 38.75 95.28 18.89 77.97 18.89 86.63 38.75"/><polygon class="cls-6" points="86.63 7.68 77.97 18.89 95.28 18.89 86.63 7.68"/><path class="cls-7" d="M78.49,20.52l4.69-6.07a.86.86,0,0,0-.13-1.19l-.91-.74a.83.83,0,0,0-1.16.14l-4.69,6.08a.87.87,0,0,0,.13,1.19l.91.73A.81.81,0,0,0,78.49,20.52Z"/><path class="cls-13" d="M121.31,35.78V33l9.9-8.75a19.31,19.31,0,0,0,1.86-1.76A10.19,10.19,0,0,0,134.22,21a4.68,4.68,0,0,0,.58-1.39,6.34,6.34,0,0,0,.16-1.48,5,5,0,0,0-1.24-3.52,4.3,4.3,0,0,0-3.39-1.37,5.26,5.26,0,0,0-4,1.42,5.53,5.53,0,0,0-1.38,4h-3.33a9.25,9.25,0,0,1,.62-3.4,7.47,7.47,0,0,1,1.77-2.68,8.35,8.35,0,0,1,2.74-1.75,9.53,9.53,0,0,1,3.54-.63,8.9,8.9,0,0,1,3.36.6,7.08,7.08,0,0,1,2.51,1.65A7.29,7.29,0,0,1,137.76,15a9.15,9.15,0,0,1,.53,3.16,7.31,7.31,0,0,1-.39,2.42,9,9,0,0,1-1.08,2.12,12.89,12.89,0,0,1-1.66,2c-.65.64-1.36,1.29-2.14,2l-7.4,6.23h13v3Z"/><path class="cls-13" d="M162.55,35.78V29.7H150V27.11L162.2,10.58h3.68V26.75h3.18V29.7h-3.18v6.08Zm-9.05-9h9.05V14.54Z"/><path class="cls-13" d="M181.79,36.14a9.46,9.46,0,0,1-3.41-.61,6.66,6.66,0,0,1-2.81-2.1,11,11,0,0,1-1.91-4,23,23,0,0,1-.71-6.25v-.72a20.18,20.18,0,0,1,.71-5.83,10.29,10.29,0,0,1,1.91-3.76,6.74,6.74,0,0,1,2.81-2,9.69,9.69,0,0,1,6.82,0,6.77,6.77,0,0,1,2.82,2,10.61,10.61,0,0,1,1.91,3.76,20.57,20.57,0,0,1,.7,5.83v.72a23.47,23.47,0,0,1-.7,6.25,11.38,11.38,0,0,1-1.91,4,6.69,6.69,0,0,1-2.82,2.1A9.46,9.46,0,0,1,181.79,36.14Zm0-3a5.52,5.52,0,0,0,2.12-.41,4.07,4.07,0,0,0,1.75-1.51,9,9,0,0,0,1.21-3.06,23.91,23.91,0,0,0,.44-5v-.72a20,20,0,0,0-.44-4.6A8.23,8.23,0,0,0,185.66,15a4.09,4.09,0,0,0-1.75-1.44,5.9,5.9,0,0,0-4.22,0A4.14,4.14,0,0,0,177.92,15a8,8,0,0,0-1.2,2.85,19.43,19.43,0,0,0-.45,4.6v.72a23.18,23.18,0,0,0,.45,5,8.79,8.79,0,0,0,1.2,3.06,4.12,4.12,0,0,0,1.77,1.51A5.57,5.57,0,0,0,181.79,33.19Z"/><path class="cls-13" d="M203.72,36.14a9.46,9.46,0,0,1-3.41-.61,6.66,6.66,0,0,1-2.81-2.1,11,11,0,0,1-1.91-4,23,23,0,0,1-.71-6.25v-.72a20.18,20.18,0,0,1,.71-5.83,10.29,10.29,0,0,1,1.91-3.76,6.74,6.74,0,0,1,2.81-2,9.69,9.69,0,0,1,6.82,0,6.77,6.77,0,0,1,2.82,2,10.61,10.61,0,0,1,1.91,3.76,20.57,20.57,0,0,1,.7,5.83v.72a23.47,23.47,0,0,1-.7,6.25,11.38,11.38,0,0,1-1.91,4,6.69,6.69,0,0,1-2.82,2.1A9.46,9.46,0,0,1,203.72,36.14Zm0-3a5.52,5.52,0,0,0,2.12-.41,4.07,4.07,0,0,0,1.75-1.51,9,9,0,0,0,1.21-3.06,23.91,23.91,0,0,0,.44-5v-.72a20,20,0,0,0-.44-4.6A8.23,8.23,0,0,0,207.59,15a4.09,4.09,0,0,0-1.75-1.44,5.9,5.9,0,0,0-4.22,0A4.08,4.08,0,0,0,199.85,15a8,8,0,0,0-1.2,2.85,19.43,19.43,0,0,0-.45,4.6v.72a23.18,23.18,0,0,0,.45,5,8.79,8.79,0,0,0,1.2,3.06,4.06,4.06,0,0,0,1.77,1.51A5.57,5.57,0,0,0,203.72,33.19Z"/></g></g></svg>