<svg xmlns="http://www.w3.org/2000/svg" viewBox="0 0 261.41 371.58"><defs><style>.cls-1{fill:#006177;}.cls-2,.cls-8{opacity:0.1;}.cls-3{opacity:0.13;}.cls-4{fill:#00a6c2;}.cls-5{fill:#00ccef;}.cls-6{fill:#2ce4ff;}.cls-7{opacity:0.28;}.cls-9{fill:#e2eaff;}.cls-10{opacity:0.15;}.cls-11{fill:#fff;}</style></defs><title>diam_3</title><g id="Слой_2" data-name="Слой 2"><g id="Слой_1-2" data-name="Слой 1"><path class="cls-1" d="M261.41,24.65V346.93a24.74,24.74,0,0,1-24.69,24.65h-212a24.51,24.51,0,0,1-10.12-2.18h0c-.29-.13-.57-.28-.85-.42l-.6-.33a.51.51,0,0,1-.16-.09,23.74,23.74,0,0,1-2.72-1.69A24.62,24.62,0,0,1,0,346.93V24.65A24.74,24.74,0,0,1,24.69,0h212A24.74,24.74,0,0,1,261.41,24.65Z"/><path class="cls-2" d="M199.83,0,0,199.52V24.65A24.74,24.74,0,0,1,24.69,0Z"/><path class="cls-3" d="M261.41,107.46V345.39c0,14.41-11.41,26.19-25.36,26.19H24.69a24.51,24.51,0,0,1-10.12-2.18h0c-.29-.13-.57-.28-.85-.42l-.6-.33a.51.51,0,0,1-.16-.09,23.74,23.74,0,0,1-2.72-1.69l0-.06h0Z"/><polygon class="cls-4" points="130.25 105.2 171.86 106.54 161.29 147.15 130.25 105.2"/><polygon class="cls-5" points="171.86 106.54 208.31 148.67 161.29 147.15 171.86 106.54"/><polygon class="cls-4" points="161.29 147.15 208.31 148.67 126.58 218.59 161.29 147.15"/><polygon class="cls-4" points="130.25 105.19 88.64 103.85 96.56 145.06 130.25 105.19"/><polygon class="cls-5" points="88.64 103.85 49.54 143.54 96.56 145.06 88.64 103.85"/><polygon class="cls-4" points="96.56 145.06 49.54 143.54 126.58 218.58 96.56 145.06"/><polygon class="cls-5" points="126.58 218.58 161.29 147.14 96.56 145.06 126.58 218.58"/><polygon class="cls-6" points="130.25 105.19 96.56 145.06 161.29 147.14 130.25 105.19"/><g class="cls-7"><polygon points="130.25 105.2 171.87 106.54 161.29 147.15 130.25 105.2"/><polygon points="171.87 106.54 208.31 148.66 161.29 147.15 171.87 106.54"/><polygon points="161.29 147.15 208.31 148.66 126.59 218.59 161.29 147.15"/><polygon points="130.25 105.19 88.64 103.85 96.57 145.05 130.25 105.19"/><polygon points="88.64 103.85 49.55 143.54 96.57 145.05 88.64 103.85"/><polygon points="96.57 145.05 49.55 143.54 126.59 218.58 96.57 145.05"/><polygon points="126.59 218.58 161.29 147.14 96.57 145.05 126.59 218.58"/><polygon points="130.25 105.19 96.57 145.05 161.29 147.14 130.25 105.19"/><path d="M99.39,149.82l16.12-19.08a4.75,4.75,0,0,0-.56-6.68l-.79-.66a4.76,4.76,0,0,0-6.68.57L91.36,143.05a4.75,4.75,0,0,0,.57,6.68l.78.66A4.76,4.76,0,0,0,99.39,149.82Z"/></g><g class="cls-8"><polygon points="130.27 105.2 171.88 106.54 161.31 147.15 130.27 105.2"/><polygon points="171.88 106.54 208.33 148.66 161.31 147.15 171.88 106.54"/><polygon points="161.31 147.15 208.33 148.66 126.61 218.59 161.31 147.15"/><polygon points="130.27 105.19 88.66 103.85 96.59 145.05 130.27 105.19"/><polygon points="88.66 103.85 49.57 143.54 96.59 145.05 88.66 103.85"/><polygon points="96.59 145.05 49.57 143.54 126.61 218.58 96.59 145.05"/><polygon points="126.61 218.58 161.31 147.14 96.59 145.05 126.61 218.58"/><polygon points="130.27 105.19 96.59 145.05 161.31 147.14 130.27 105.19"/><g class="cls-7"><polygon points="130.28 105.19 171.89 106.53 161.32 147.14 130.28 105.19"/><polygon points="171.89 106.53 208.34 148.66 161.32 147.14 171.89 106.53"/><polygon points="161.32 147.14 208.34 148.66 126.61 218.58 161.32 147.14"/><polygon points="130.28 105.19 88.67 103.84 96.59 145.05 130.28 105.19"/><polygon points="88.67 103.84 49.57 143.53 96.59 145.05 88.67 103.84"/><polygon points="96.59 145.05 49.57 143.53 126.61 218.57 96.59 145.05"/><polygon points="126.61 218.57 161.32 147.14 96.59 145.05 126.61 218.57"/><polygon points="130.28 105.19 96.59 145.05 161.32 147.14 130.28 105.19"/><path d="M99.41,149.82l16.13-19.09a4.75,4.75,0,0,0-.57-6.67l-.78-.66a4.76,4.76,0,0,0-6.68.57L91.38,143.05a4.74,4.74,0,0,0,.57,6.67l.78.66A4.76,4.76,0,0,0,99.41,149.82Z"/></g></g><polygon class="cls-4" points="192.8 162 226.28 162 218.83 194.91 192.8 162"/><polygon class="cls-5" points="226.28 162 256.67 194.91 218.83 194.91 226.28 162"/><polygon class="cls-4" points="218.83 194.91 256.67 194.91 192.8 253.23 218.83 194.91"/><polygon class="cls-4" points="192.8 161.99 159.32 161.99 166.76 194.91 192.8 161.99"/><polygon class="cls-5" points="159.32 161.99 128.93 194.91 166.76 194.91 159.32 161.99"/><polygon class="cls-4" points="166.76 194.91 128.93 194.91 192.8 253.22 166.76 194.91"/><polygon class="cls-5" points="192.8 253.22 218.83 194.91 166.76 194.91 192.8 253.22"/><polygon class="cls-6" points="192.8 161.99 166.76 194.91 218.83 194.91 192.8 161.99"/><path class="cls-9" d="M169.15,198.67l12.46-15.76a3.81,3.81,0,0,0-.63-5.35l-.64-.51a3.83,3.83,0,0,0-5.36.63l-12.46,15.75a3.81,3.81,0,0,0,.63,5.35l.64.51A3.83,3.83,0,0,0,169.15,198.67Z"/><g class="cls-8"><polygon points="192.79 161.99 226.27 161.99 218.83 194.91 192.79 161.99"/><polygon points="226.27 161.99 256.66 194.91 218.83 194.91 226.27 161.99"/><polygon points="218.83 194.91 256.66 194.91 192.79 253.22 218.83 194.91"/><polygon points="192.79 161.99 159.31 161.99 166.75 194.9 192.79 161.99"/><polygon points="159.31 161.99 128.92 194.9 166.75 194.9 159.31 161.99"/><polygon points="166.75 194.9 128.92 194.9 192.79 253.22 166.75 194.9"/><polygon points="192.79 253.22 218.83 194.9 166.75 194.9 192.79 253.22"/><polygon points="192.79 161.99 166.75 194.9 218.83 194.9 192.79 161.99"/><path d="M169.14,198.66l12.47-15.75a3.83,3.83,0,0,0-.63-5.36l-.65-.51a3.83,3.83,0,0,0-5.35.63l-12.47,15.76a3.82,3.82,0,0,0,.63,5.35l.65.51A3.82,3.82,0,0,0,169.14,198.66Z"/></g><polygon class="cls-4" points="206.19 67.82 226.2 69.1 220.49 88.48 206.19 67.82"/><polygon class="cls-5" points="226.2 69.1 243.09 89.93 220.49 88.48 226.2 69.1"/><polygon class="cls-4" points="220.49 88.48 243.09 89.93 202.69 122.33 220.49 88.48"/><polygon class="cls-4" points="206.19 67.81 186.18 66.53 189.37 86.48 206.19 67.81"/><polygon class="cls-5" points="186.18 66.53 166.76 85.04 189.37 86.48 186.18 66.53"/><polygon class="cls-4" points="189.37 86.48 166.76 85.04 202.69 122.33 189.37 86.48"/><polygon class="cls-5" points="202.69 122.33 220.49 88.48 189.37 86.48 202.69 122.33"/><polygon class="cls-6" points="206.19 67.81 189.37 86.48 220.49 88.48 206.19 67.81"/><path class="cls-9" d="M190.65,88.82l8-8.94a2.28,2.28,0,0,0-.17-3.22l-.36-.33a2.31,2.31,0,0,0-3.23.17l-8.05,8.94a2.29,2.29,0,0,0,.17,3.22l.37.33A2.29,2.29,0,0,0,190.65,88.82Z"/><polygon class="cls-4" points="50.63 145.07 81.44 131.99 87.49 165.19 50.63 145.07"/><polygon class="cls-5" points="81.44 131.99 122.3 150.41 87.49 165.19 81.44 131.99"/><polygon class="cls-4" points="87.49 165.19 122.3 150.41 86.38 229.03 87.49 165.19"/><polygon class="cls-4" points="50.63 145.06 19.82 158.14 39.56 185.52 50.63 145.06"/><polygon class="cls-5" points="19.82 158.14 4.74 200.3 39.56 185.52 19.82 158.14"/><polygon class="cls-4" points="39.56 185.52 4.74 200.3 86.37 229.02 39.56 185.52"/><polygon class="cls-5" points="86.37 229.02 87.48 165.18 39.56 185.52 86.37 229.02"/><polygon class="cls-6" points="50.63 145.06 39.56 185.52 87.48 165.18 50.63 145.06"/><rect class="cls-9" x="27.96" y="173.03" width="27.7" height="8.45" rx="3.81" transform="translate(-140.2 170.82) rotate(-74.7)"/><g class="cls-10"><polygon points="50.67 145.02 81.48 131.94 87.53 165.14 50.67 145.02"/><polygon points="81.48 131.94 122.34 150.36 87.53 165.14 81.48 131.94"/><polygon points="87.53 165.14 122.34 150.36 86.42 228.98 87.53 165.14"/><polygon points="50.67 145.01 19.86 158.09 39.6 185.47 50.67 145.01"/><polygon points="19.86 158.09 4.78 200.25 39.6 185.47 19.86 158.09"/><polygon points="39.6 185.47 4.78 200.25 86.41 228.97 39.6 185.47"/><polygon points="86.41 228.97 87.53 165.13 39.6 185.47 86.41 228.97"/><polygon points="50.67 145.01 39.6 185.47 87.53 165.13 50.67 145.01"/><rect x="28" y="172.98" width="27.7" height="8.45" rx="3.81" transform="translate(-140.12 170.82) rotate(-74.7)"/></g><polygon class="cls-4" points="57.2 67.33 71.26 59.37 75.98 74.96 57.2 67.33"/><polygon class="cls-5" points="71.26 59.37 91.87 65.96 75.98 74.96 71.26 59.37"/><polygon class="cls-4" points="75.98 74.96 91.87 65.96 78.96 105.64 75.98 74.96"/><polygon class="cls-4" points="57.2 67.33 43.14 75.29 54.12 87.34 57.2 67.33"/><polygon class="cls-5" points="43.14 75.29 38.23 96.33 54.12 87.34 43.14 75.29"/><polygon class="cls-4" points="54.12 87.34 38.23 96.33 78.96 105.64 54.12 87.34"/><polygon class="cls-5" points="78.96 105.64 75.98 74.96 54.12 87.34 78.96 105.64"/><polygon class="cls-6" points="57.2 67.33 54.12 87.34 75.98 74.96 57.2 67.33"/><rect class="cls-9" x="48.05" y="81.21" width="13.37" height="4.08" rx="1.03" transform="translate(-35.88 124.67) rotate(-81.24)"/><polygon class="cls-4" points="118.11 69.81 127.77 69.5 125.92 79.06 118.11 69.81"/><polygon class="cls-5" points="127.77 69.5 136.83 78.72 125.92 79.06 127.77 69.5"/><polygon class="cls-4" points="125.92 79.06 136.83 78.72 118.95 96.12 125.92 79.06"/><polygon class="cls-4" points="118.11 69.81 108.46 70.11 110.9 79.53 118.11 69.81"/><polygon class="cls-5" points="108.46 70.11 99.99 79.88 110.9 79.53 108.46 70.11"/><polygon class="cls-4" points="110.9 79.53 99.99 79.88 118.95 96.11 110.9 79.53"/><polygon class="cls-5" points="118.95 96.11 125.92 79.06 110.9 79.53 118.95 96.11"/><polygon class="cls-6" points="118.11 69.81 110.9 79.53 125.92 79.06 118.11 69.81"/><path class="cls-9" d="M111.43,80.86l3.85-5.19a.77.77,0,0,0-.16-1.07l-.73-.54a.77.77,0,0,0-1.07.16l-3.85,5.19a.78.78,0,0,0,.16,1.08l.73.53A.77.77,0,0,0,111.43,80.86Z"/><polygon class="cls-4" points="156.23 43.27 168.75 45.07 164.2 56.98 156.23 43.27"/><polygon class="cls-5" points="168.75 45.07 178.35 59 164.2 56.98 168.75 45.07"/><polygon class="cls-4" points="164.2 56.98 178.35 59 151.34 77.39 164.2 56.98"/><polygon class="cls-4" points="156.23 43.27 143.71 41.48 144.73 54.19 156.23 43.27"/><polygon class="cls-5" points="143.71 41.48 130.58 52.16 144.73 54.19 143.71 41.48"/><polygon class="cls-4" points="144.73 54.19 130.58 52.16 151.34 77.39 144.73 54.19"/><polygon class="cls-5" points="151.34 77.39 164.2 56.97 144.73 54.19 151.34 77.39"/><polygon class="cls-6" points="156.23 43.27 144.73 54.19 164.2 56.97 156.23 43.27"/><path class="cls-9" d="M144.93,56.18,151.42,50a.77.77,0,0,0,0-1.08l-1.14-1.2a.76.76,0,0,0-1.08,0l-6.49,6.15a.78.78,0,0,0,0,1.09l1.14,1.2A.77.77,0,0,0,144.93,56.18Z"/><polygon class="cls-4" points="112.69 206.17 136.4 204.06 133.21 227.84 112.69 206.17"/><polygon class="cls-5" points="136.4 204.06 160.01 225.45 133.21 227.84 136.4 204.06"/><polygon class="cls-4" points="133.21 227.84 160.01 225.45 118.46 270.79 133.21 227.84"/><polygon class="cls-4" points="112.69 206.16 88.97 208.28 96.33 231.12 112.69 206.16"/><polygon class="cls-5" points="88.97 208.28 69.53 233.51 96.33 231.12 88.97 208.28"/><polygon class="cls-4" points="96.33 231.12 69.53 233.51 118.46 270.78 96.33 231.12"/><polygon class="cls-5" points="118.46 270.78 133.21 227.83 96.33 231.12 118.46 270.78"/><polygon class="cls-6" points="112.69 206.16 96.33 231.12 133.21 227.83 112.69 206.16"/><path class="cls-9" d="M98.42,233.39l7.51-11.46a3,3,0,0,0-.87-4.15h0a3,3,0,0,0-4.16.86L93.39,230.1a3,3,0,0,0,.87,4.16h0A3,3,0,0,0,98.42,233.39Z"/><polygon class="cls-4" points="29.94 112.34 37.64 105.96 42.22 114.94 29.94 112.34"/><polygon class="cls-5" points="37.64 105.96 50.91 107.73 42.22 114.94 37.64 105.96"/><polygon class="cls-4" points="42.22 114.94 50.91 107.73 47.38 133.31 42.22 114.94"/><polygon class="cls-4" points="29.94 112.34 22.25 118.72 30.25 124.86 29.94 112.34"/><polygon class="cls-5" points="22.25 118.72 21.55 132.08 30.25 124.86 22.25 118.72"/><polygon class="cls-4" points="30.25 124.86 21.55 132.08 47.38 133.31 30.25 124.86"/><polygon class="cls-5" points="47.38 133.31 42.22 114.94 30.25 124.86 47.38 133.31"/><polygon class="cls-6" points="29.94 112.34 30.25 124.86 42.22 114.94 29.94 112.34"/><rect class="cls-9" x="26.04" y="121.04" width="8.27" height="2.53" rx="1.03" transform="translate(-91.34 155.49) rotate(-91.41)"/><path class="cls-11" d="M80.26,203.43l-1.63-7.58a.79.79,0,0,1,1.35-.69l5.22,5.74a8.44,8.44,0,0,0,8,2.58l7.59-1.63a.78.78,0,0,1,.69,1.35l-5.74,5.21a8.43,8.43,0,0,0-2.59,8L94.8,224a.79.79,0,0,1-1.35.69L88.23,219a8.45,8.45,0,0,0-8-2.58L72.62,218a.79.79,0,0,1-.69-1.35l5.75-5.21A8.42,8.42,0,0,0,80.26,203.43Z"/><path class="cls-11" d="M161.29,150.42l6-8.7a1.07,1.07,0,0,1,1.94.69L168.43,153a11.5,11.5,0,0,0,4.93,10.38l8.72,6a1.07,1.07,0,0,1-.7,1.94l-10.56-.83a11.51,11.51,0,0,0-10.39,4.92l-6,8.71a1.07,1.07,0,0,1-2-.7l.84-10.55a11.5,11.5,0,0,0-4.94-10.37l-8.71-6a1.07,1.07,0,0,1,.69-2l10.56.84A11.54,11.54,0,0,0,161.29,150.42Z"/><path class="cls-11" d="M37.66,73.16,35.1,69.31a.47.47,0,0,1,.6-.68l4.15,2.05a5.06,5.06,0,0,0,5-.32l3.86-2.56a.46.46,0,0,1,.67.59l-2,4.15a5,5,0,0,0,.32,5l2.57,3.85a.47.47,0,0,1-.6.68l-4.15-2a5.06,5.06,0,0,0-5,.32l-3.86,2.56a.47.47,0,0,1-.68-.6l2-4.14A5,5,0,0,0,37.66,73.16Z"/><polygon class="cls-4" points="86.63 7.67 97.75 7.67 95.28 18.88 86.63 7.67"/><polygon class="cls-5" points="97.75 7.67 107.86 18.88 95.28 18.88 97.75 7.67"/><polygon class="cls-4" points="95.28 18.88 107.86 18.88 86.63 38.74 95.28 18.88"/><polygon class="cls-4" points="86.63 7.67 75.5 7.67 77.97 18.87 86.63 7.67"/><polygon class="cls-5" points="75.5 7.67 65.4 18.87 77.97 18.87 75.5 7.67"/><polygon class="cls-4" points="77.97 18.87 65.4 18.87 86.63 38.74 77.97 18.87"/><polygon class="cls-5" points="86.63 38.74 95.28 18.87 77.97 18.87 86.63 38.74"/><polygon class="cls-6" points="86.63 7.67 77.97 18.87 95.28 18.87 86.63 7.67"/><path class="cls-9" d="M78.49,20.51l4.69-6.08a.85.85,0,0,0-.13-1.18l-.91-.74a.82.82,0,0,0-1.16.14l-4.69,6.08a.86.86,0,0,0,.13,1.18l.91.74A.82.82,0,0,0,78.49,20.51Z"/><path class="cls-11" d="M121.8,35.77v-3h5.91V14.28l-5.91,4.28V14.89l6-4.32h3.32V32.82H136v3Z"/><path class="cls-11" d="M147.27,35.77V33l9.9-8.75A20.63,20.63,0,0,0,159,22.49a9.72,9.72,0,0,0,1.15-1.5,4.63,4.63,0,0,0,.58-1.38,6.34,6.34,0,0,0,.16-1.48,5.05,5.05,0,0,0-1.24-3.53,4.33,4.33,0,0,0-3.39-1.36,5.26,5.26,0,0,0-4,1.42,5.52,5.52,0,0,0-1.38,4h-3.33a9.22,9.22,0,0,1,.62-3.4A7.47,7.47,0,0,1,150,12.59a8.19,8.19,0,0,1,2.74-1.75,9.53,9.53,0,0,1,3.54-.63,8.9,8.9,0,0,1,3.36.6,7,7,0,0,1,2.51,1.65,7.24,7.24,0,0,1,1.56,2.5,9.21,9.21,0,0,1,.53,3.17,7.21,7.21,0,0,1-.39,2.41,8.9,8.9,0,0,1-1.08,2.13,14,14,0,0,1-1.66,2c-.65.64-1.37,1.29-2.14,2l-7.4,6.23h13v3Z"/><path class="cls-11" d="M177.33,36.13a9.46,9.46,0,0,1-3.41-.61,6.61,6.61,0,0,1-2.81-2.11,11.07,11.07,0,0,1-1.91-4,23.43,23.43,0,0,1-.71-6.25v-.72a20.48,20.48,0,0,1,.71-5.83,10.45,10.45,0,0,1,1.91-3.76,6.86,6.86,0,0,1,2.81-2,9.86,9.86,0,0,1,6.83,0,6.86,6.86,0,0,1,2.81,2,10.45,10.45,0,0,1,1.91,3.76,20.48,20.48,0,0,1,.71,5.83v.72a23.43,23.43,0,0,1-.71,6.25,11.07,11.07,0,0,1-1.91,4,6.61,6.61,0,0,1-2.81,2.11A9.51,9.51,0,0,1,177.33,36.13Zm0-3a5.52,5.52,0,0,0,2.12-.41,4.11,4.11,0,0,0,1.76-1.52,9,9,0,0,0,1.2-3.06,23.74,23.74,0,0,0,.44-5v-.72a20.14,20.14,0,0,0-.44-4.61,8.36,8.36,0,0,0-1.2-2.84,4,4,0,0,0-1.76-1.44,5.77,5.77,0,0,0-4.22,0A4,4,0,0,0,173.46,15a8,8,0,0,0-1.2,2.84,19.59,19.59,0,0,0-.44,4.61v.72a23.1,23.1,0,0,0,.44,5,8.63,8.63,0,0,0,1.2,3.06,4.08,4.08,0,0,0,1.77,1.52A5.57,5.57,0,0,0,177.33,33.18Z"/><path class="cls-11" d="M199.26,36.13a9.46,9.46,0,0,1-3.41-.61A6.61,6.61,0,0,1,193,33.41a10.91,10.91,0,0,1-1.91-4,23,23,0,0,1-.71-6.25v-.72a20.13,20.13,0,0,1,.71-5.83A10.29,10.29,0,0,1,193,12.86a6.86,6.86,0,0,1,2.81-2,9.86,9.86,0,0,1,6.83,0,6.86,6.86,0,0,1,2.81,2,10.45,10.45,0,0,1,1.91,3.76,20.52,20.52,0,0,1,.7,5.83v.72a23.47,23.47,0,0,1-.7,6.25,11.07,11.07,0,0,1-1.91,4,6.61,6.61,0,0,1-2.81,2.11A9.55,9.55,0,0,1,199.26,36.13Zm0-3a5.52,5.52,0,0,0,2.12-.41,4.11,4.11,0,0,0,1.76-1.52,9,9,0,0,0,1.2-3.06,23.74,23.74,0,0,0,.44-5v-.72a20.14,20.14,0,0,0-.44-4.61,8.36,8.36,0,0,0-1.2-2.84,4,4,0,0,0-1.76-1.44,5.77,5.77,0,0,0-4.22,0A4,4,0,0,0,195.39,15a8,8,0,0,0-1.2,2.84,19.52,19.52,0,0,0-.45,4.61v.72a23,23,0,0,0,.45,5,8.63,8.63,0,0,0,1.2,3.06,4.08,4.08,0,0,0,1.77,1.52A5.57,5.57,0,0,0,199.26,33.18Z"/></g></g></svg>