<svg xmlns="http://www.w3.org/2000/svg" viewBox="0 0 261.41 371.58"><defs><style>.cls-1{fill:#006177;}.cls-18,.cls-2{opacity:0.1;}.cls-3{opacity:0.18;}.cls-4{fill:#85461e;}.cls-5{fill:#c5773f;}.cls-6{fill:#bc8919;}.cls-7{fill:#b2801a;}.cls-8{fill:#00a6c2;}.cls-9{fill:#00ccef;}.cls-10{fill:#2ce4ff;}.cls-11{opacity:0.4;}.cls-12{opacity:0.89;}.cls-13{opacity:0.3;}.cls-14{fill:#e2eaff;}.cls-15{opacity:0.25;}.cls-16{opacity:0.23;}.cls-17{opacity:0.2;}.cls-19{opacity:0.15;}.cls-20{fill:#ce961c;}.cls-21{fill:#d3a54c;}.cls-22{fill:#d8a31a;}.cls-23{fill:#d5ab50;}.cls-24{fill:#c3861e;}.cls-25{fill:#ce921e;}.cls-26{fill:#fff;}</style></defs><title>diam_6</title><g id="Слой_2" data-name="Слой 2"><g id="Слой_1-2" data-name="Слой 1"><path class="cls-1" d="M261.41,24.65V346.93a24.74,24.74,0,0,1-24.69,24.65h-212a24.51,24.51,0,0,1-10.12-2.18h0c-.29-.13-.57-.28-.85-.42l-.6-.33a.51.51,0,0,1-.16-.09,23.74,23.74,0,0,1-2.72-1.69A24.62,24.62,0,0,1,0,346.93V24.65A24.74,24.74,0,0,1,24.69,0h212A24.74,24.74,0,0,1,261.41,24.65Z"/><path class="cls-2" d="M199.83,0,0,199.52V24.65A24.74,24.74,0,0,1,24.69,0Z"/><path class="cls-3" d="M261.41,107.46V345.39c0,14.41-11.41,26.19-25.36,26.19H24.69a24.51,24.51,0,0,1-10.12-2.18h0c-.29-.13-.57-.28-.85-.42l-.6-.33a.51.51,0,0,1-.16-.09,23.74,23.74,0,0,1-2.72-1.69l0-.06h0Z"/><polygon class="cls-4" points="52.2 222.78 141.09 175.26 141.09 76.13 52.2 123.64 52.2 222.78"/><polygon class="cls-5" points="60.56 128.41 52.2 136.1 52.2 123.95 60.56 128.41"/><polygon class="cls-6" points="141.09 175.26 229.98 222.78 229.98 123.64 141.09 76.13 141.09 175.26"/><polygon class="cls-7" points="52.2 123.94 141.3 76.38 103.06 59.25 21.23 98.92 52.2 123.94"/><polygon class="cls-6" points="141.3 76.38 229.98 123.94 257.88 94.16 176.18 54.61 141.3 76.38"/><polygon class="cls-8" points="143.53 74.84 158.16 76.38 153.49 91.44 143.53 74.84"/><polygon class="cls-9" points="158.16 76.38 170.03 93.17 153.49 91.44 158.16 76.38"/><polygon class="cls-8" points="153.49 91.44 170.03 93.17 139.61 117.53 153.49 91.44"/><polygon class="cls-8" points="143.53 74.84 128.89 73.31 130.73 89.05 143.53 74.84"/><polygon class="cls-9" points="128.89 73.31 114.2 87.31 130.73 89.05 128.89 73.31"/><polygon class="cls-8" points="130.73 89.05 114.2 87.31 139.61 117.52 130.73 89.05"/><polygon class="cls-9" points="139.61 117.52 153.49 91.43 130.73 89.05 139.61 117.52"/><polygon class="cls-10" points="143.53 74.84 130.73 89.05 153.49 91.43 143.53 74.84"/><g class="cls-11"><polygon points="143.53 74.84 158.16 76.38 153.49 91.44 143.53 74.84"/><polygon points="158.16 76.38 170.03 93.17 153.49 91.44 158.16 76.38"/><polygon points="153.49 91.44 170.03 93.17 139.61 117.53 153.49 91.44"/><polygon points="143.53 74.84 128.89 73.31 130.73 89.05 143.53 74.84"/><polygon points="128.89 73.31 114.2 87.31 130.73 89.05 128.89 73.31"/><polygon points="130.73 89.05 114.2 87.31 139.61 117.52 130.73 89.05"/><polygon points="139.61 117.52 153.49 91.43 130.73 89.05 139.61 117.52"/><polygon points="143.53 74.84 130.73 89.05 153.49 91.43 143.53 74.84"/><path d="M131.43,91.12l6.49-7.21a1.58,1.58,0,0,0,0-2.13l-.64-.66a1.34,1.34,0,0,0-2,0l-6.49,7.2a1.59,1.59,0,0,0,0,2.14l.64.66A1.36,1.36,0,0,0,131.43,91.12Z"/></g><g class="cls-12"><polygon class="cls-8" points="180.71 93.67 193.83 99.01 186 111.63 180.71 93.67"/><polygon class="cls-9" points="193.83 99.01 200.83 117.66 186 111.63 193.83 99.01"/><polygon class="cls-8" points="186 111.63 200.83 117.66 167.08 131.94 186 111.63"/><polygon class="cls-8" points="180.71 93.67 167.59 88.33 165.59 103.33 180.71 93.67"/><polygon class="cls-9" points="167.59 88.33 150.77 97.3 165.59 103.33 167.59 88.33"/><polygon class="cls-8" points="165.59 103.33 150.77 97.3 167.09 131.94 165.59 103.33"/><polygon class="cls-9" points="167.09 131.94 186 111.63 165.59 103.33 167.09 131.94"/><polygon class="cls-10" points="180.71 93.67 165.59 103.33 186 111.63 180.71 93.67"/></g><g class="cls-13"><polygon points="180.71 93.67 193.83 99.01 186 111.63 180.71 93.67"/><polygon points="193.83 99.01 200.83 117.66 186 111.63 193.83 99.01"/><polygon points="186 111.63 200.83 117.66 167.08 131.94 186 111.63"/><polygon points="180.71 93.67 167.59 88.33 165.59 103.33 180.71 93.67"/><polygon points="167.59 88.33 150.77 97.3 165.59 103.33 167.59 88.33"/><polygon points="165.59 103.33 150.77 97.3 167.09 131.94 165.59 103.33"/><polygon points="167.09 131.94 186 111.63 165.59 103.33 167.09 131.94"/><polygon points="180.71 93.67 165.59 103.33 186 111.63 180.71 93.67"/><path d="M165.81,105.39l7.56-4.83a1.58,1.58,0,0,0,.48-2.07l-.36-.66a1.37,1.37,0,0,0-1.94-.52L164,102.14a1.57,1.57,0,0,0-.49,2.07l.37.66A1.38,1.38,0,0,0,165.81,105.39Z"/></g><g class="cls-12"><polygon class="cls-8" points="214.1 111.35 224.49 119.81 214.39 128.87 214.1 111.35"/><polygon class="cls-9" points="224.49 119.81 226.13 138.43 214.39 128.87 224.49 119.81"/><polygon class="cls-8" points="214.39 128.87 226.13 138.43 192.49 141.67 214.39 128.87"/><polygon class="cls-8" points="214.1 111.35 203.71 102.89 198.22 115.71 214.1 111.35"/><polygon class="cls-9" points="203.71 102.89 186.48 106.14 198.22 115.71 203.71 102.89"/><polygon class="cls-8" points="198.22 115.71 186.48 106.14 192.49 141.66 198.22 115.71"/><polygon class="cls-9" points="192.49 141.66 214.39 128.87 198.22 115.71 192.49 141.66"/><polygon class="cls-10" points="214.1 111.35 198.22 115.71 214.39 128.87 214.1 111.35"/></g><g class="cls-13"><polygon points="214.1 111.35 224.49 119.81 214.39 128.87 214.1 111.35"/><polygon points="224.49 119.81 226.13 138.43 214.39 128.87 224.49 119.81"/><polygon points="214.39 128.87 226.13 138.43 192.49 141.67 214.39 128.87"/><polygon points="214.1 111.35 203.71 102.89 198.22 115.71 214.1 111.35"/><polygon points="203.71 102.89 186.48 106.14 198.22 115.71 203.71 102.89"/><polygon points="198.22 115.71 186.48 106.14 192.49 141.66 198.22 115.71"/><polygon points="192.49 141.66 214.39 128.87 198.22 115.71 192.49 141.66"/><polygon points="214.1 111.35 198.22 115.71 214.39 128.87 214.1 111.35"/><path d="M197.91,117.6l7.93-2.17a1.42,1.42,0,0,0,.95-1.71l-.17-.7a1.32,1.32,0,0,0-1.6-1l-7.93,2.18a1.41,1.41,0,0,0-1,1.71l.16.69A1.31,1.31,0,0,0,197.91,117.6Z"/></g><g class="cls-12"><polygon class="cls-8" points="100.66 91.53 116.79 88.98 115.56 106.51 100.66 91.53"/><polygon class="cls-9" points="116.79 88.98 133.78 103.63 115.56 106.51 116.79 88.98"/><polygon class="cls-8" points="115.56 106.51 133.78 103.63 107.19 138.56 115.56 106.51"/><polygon class="cls-8" points="100.66 91.53 84.54 94.08 90.48 110.48 100.66 91.53"/><polygon class="cls-9" points="84.54 94.08 72.26 113.37 90.48 110.48 84.54 94.08"/><polygon class="cls-8" points="90.48 110.48 72.26 113.37 107.19 138.56 90.48 110.48"/><polygon class="cls-9" points="107.19 138.56 115.56 106.51 90.48 110.48 107.19 138.56"/><polygon class="cls-10" points="100.66 91.53 90.48 110.48 115.56 106.51 100.66 91.53"/></g><g class="cls-13"><polygon points="100.66 91.53 116.79 88.98 115.56 106.51 100.66 91.53"/><polygon points="116.79 88.98 133.78 103.63 115.56 106.51 116.79 88.98"/><polygon points="115.56 106.51 133.78 103.63 107.19 138.56 115.56 106.51"/><polygon points="100.66 91.53 84.54 94.08 90.48 110.48 100.66 91.53"/><polygon points="84.54 94.08 72.26 113.37 90.48 110.48 84.54 94.08"/><polygon points="90.48 110.48 72.26 113.37 107.19 138.56 90.48 110.48"/><polygon points="107.19 138.56 115.56 106.51 90.48 110.48 107.19 138.56"/><polygon points="100.66 91.53 90.48 110.48 115.56 106.51 100.66 91.53"/><path d="M91.79,112.44,96.88,103a1.82,1.82,0,0,0-.6-2.39l-.73-.44a1.59,1.59,0,0,0-2.24.64l-5.09,9.48a1.82,1.82,0,0,0,.61,2.39l.72.45A1.59,1.59,0,0,0,91.79,112.44Z"/></g><polygon class="cls-8" points="83.3 108.9 99.6 108.9 95.97 126.06 83.3 108.9"/><polygon class="cls-9" points="99.6 108.9 114.39 126.06 95.97 126.06 99.6 108.9"/><polygon class="cls-8" points="95.97 126.06 114.39 126.06 83.3 156.45 95.97 126.06"/><polygon class="cls-8" points="83.3 108.9 67 108.9 70.62 126.05 83.3 108.9"/><polygon class="cls-9" points="67 108.9 52.2 126.05 70.62 126.05 67 108.9"/><polygon class="cls-8" points="70.62 126.05 52.2 126.05 83.3 156.45 70.62 126.05"/><polygon class="cls-9" points="83.3 156.45 95.97 126.05 70.62 126.05 83.3 156.45"/><polygon class="cls-10" points="83.3 108.9 70.62 126.05 95.97 126.05 83.3 108.9"/><path class="cls-14" d="M71.65,128.19,78,119.62a1.83,1.83,0,0,0-.27-2.46l-.65-.56a1.58,1.58,0,0,0-2.3.29l-6.34,8.58a1.84,1.84,0,0,0,.27,2.46l.65.55A1.58,1.58,0,0,0,71.65,128.19Z"/><g class="cls-12"><polygon class="cls-8" points="180.73 109.09 193.56 111.76 188.25 124.66 180.73 109.09"/><polygon class="cls-9" points="193.56 111.76 202.74 127.67 188.25 124.66 193.56 111.76"/><polygon class="cls-8" points="188.25 124.66 202.74 127.67 173.92 146.49 188.25 124.66"/><polygon class="cls-8" points="180.73 109.08 167.91 106.42 168.3 120.5 180.73 109.08"/><polygon class="cls-9" points="167.91 106.42 153.81 117.49 168.3 120.5 167.91 106.42"/><polygon class="cls-8" points="168.3 120.5 153.81 117.49 173.92 146.49 168.3 120.5"/><polygon class="cls-9" points="173.92 146.49 188.25 124.66 168.3 120.5 173.92 146.49"/><polygon class="cls-10" points="180.73 109.08 168.3 120.5 188.25 124.66 180.73 109.08"/></g><g class="cls-15"><polygon points="180.73 109.09 193.56 111.76 188.25 124.66 180.73 109.09"/><polygon points="193.56 111.76 202.74 127.67 188.25 124.66 193.56 111.76"/><polygon points="188.25 124.66 202.74 127.67 173.92 146.49 188.25 124.66"/><polygon points="180.73 109.08 167.91 106.42 168.3 120.5 180.73 109.08"/><polygon points="167.91 106.42 153.81 117.49 168.3 120.5 167.91 106.42"/><polygon points="168.3 120.5 153.81 117.49 173.92 146.49 168.3 120.5"/><polygon points="173.92 146.49 188.25 124.66 168.3 120.5 173.92 146.49"/><polygon points="180.73 109.08 168.3 120.5 188.25 124.66 180.73 109.08"/><path d="M168.8,122.36l6.22-5.71a1.48,1.48,0,0,0,.14-2l-.44-.55a1.26,1.26,0,0,0-1.85-.15l-6.22,5.71a1.49,1.49,0,0,0-.14,2l.44.55A1.26,1.26,0,0,0,168.8,122.36Z"/></g><polygon class="cls-8" points="137.25 104.02 150.12 101.6 149.49 115.67 137.25 104.02"/><polygon class="cls-9" points="150.12 101.6 164.03 112.94 149.49 115.67 150.12 101.6"/><polygon class="cls-8" points="149.49 115.67 164.03 112.94 143.43 141.55 149.49 115.67"/><polygon class="cls-8" points="137.25 104.01 124.38 106.43 129.47 119.44 137.25 104.01"/><polygon class="cls-9" points="124.38 106.43 114.93 122.17 129.47 119.44 124.38 106.43"/><polygon class="cls-8" points="129.47 119.44 114.93 122.17 143.43 141.54 129.47 119.44"/><polygon class="cls-9" points="143.43 141.54 149.49 115.67 129.47 119.44 143.43 141.54"/><polygon class="cls-10" points="137.25 104.01 129.47 119.44 149.49 115.67 137.25 104.01"/><g class="cls-16"><polygon points="137.22 104.03 150.09 101.61 149.46 115.69 137.22 104.03"/><polygon points="150.09 101.61 164 112.96 149.46 115.69 150.09 101.61"/><polygon points="149.46 115.69 164 112.96 143.4 141.56 149.46 115.69"/><polygon points="137.22 104.03 124.36 106.45 129.44 119.45 137.22 104.03"/><polygon points="124.36 106.45 114.9 122.19 129.44 119.45 124.36 106.45"/><polygon points="129.44 119.45 114.9 122.19 143.4 141.56 129.44 119.45"/><polygon points="143.4 141.56 149.46 115.69 129.44 119.45 143.4 141.56"/><polygon points="137.22 104.03 129.44 119.45 149.46 115.69 137.22 104.03"/><path d="M130.54,121l3.88-7.71a1.44,1.44,0,0,0-.53-1.9l-.59-.34a1.27,1.27,0,0,0-1.78.57l-3.89,7.71a1.46,1.46,0,0,0,.54,1.9l.58.34A1.28,1.28,0,0,0,130.54,121Z"/></g><polygon class="cls-8" points="117.94 117.22 126.38 115.63 125.97 124.87 117.94 117.22"/><polygon class="cls-9" points="126.38 115.63 135.51 123.08 125.97 124.87 126.38 115.63"/><polygon class="cls-8" points="125.97 124.87 135.51 123.08 121.99 141.85 125.97 124.87"/><polygon class="cls-8" points="117.94 117.22 109.49 118.81 112.83 127.34 117.94 117.22"/><polygon class="cls-9" points="109.49 118.81 103.29 129.13 112.83 127.34 109.49 118.81"/><polygon class="cls-8" points="112.83 127.34 103.29 129.13 121.99 141.85 112.83 127.34"/><polygon class="cls-9" points="121.99 141.85 125.97 124.87 112.83 127.34 121.99 141.85"/><polygon class="cls-10" points="117.94 117.22 112.83 127.34 125.97 124.87 117.94 117.22"/><g class="cls-17"><polygon points="117.92 117.23 126.36 115.64 125.95 124.88 117.92 117.23"/><polygon points="126.36 115.64 135.49 123.09 125.95 124.88 126.36 115.64"/><polygon points="125.95 124.88 135.49 123.09 121.97 141.86 125.95 124.88"/><polygon points="117.92 117.23 109.48 118.82 112.81 127.35 117.92 117.23"/><polygon points="109.48 118.82 103.27 129.14 112.81 127.35 109.48 118.82"/><polygon points="112.81 127.35 103.27 129.14 121.97 141.86 112.81 127.35"/><polygon points="121.97 141.86 125.95 124.88 112.81 127.35 121.97 141.86"/><polygon points="117.92 117.23 112.81 127.35 125.95 124.88 117.92 117.23"/><path d="M113.53,128.36l2.55-5.06a1,1,0,0,0-.35-1.25l-.38-.22a.83.83,0,0,0-1.17.37l-2.55,5.06a1,1,0,0,0,.35,1.25l.38.22A.84.84,0,0,0,113.53,128.36Z"/></g><g class="cls-12"><polygon class="cls-8" points="157.47 119.04 167.27 120.13 164.08 130.21 157.47 119.04"/><polygon class="cls-9" points="167.27 120.13 175.16 131.44 164.08 130.21 167.27 120.13"/><polygon class="cls-8" points="164.08 130.21 175.16 131.44 154.67 147.63 164.08 130.21"/><polygon class="cls-8" points="157.47 119.03 147.66 117.94 148.83 128.5 157.47 119.03"/><polygon class="cls-9" points="147.66 117.94 137.76 127.26 148.83 128.5 147.66 117.94"/><polygon class="cls-8" points="148.83 128.5 137.76 127.26 154.67 147.63 148.83 128.5"/><polygon class="cls-9" points="154.67 147.63 164.08 130.2 148.83 128.5 154.67 147.63"/><polygon class="cls-10" points="157.47 119.03 148.83 128.5 164.08 130.2 157.47 119.03"/></g><g class="cls-18"><polygon points="157.47 119.04 167.27 120.13 164.08 130.21 157.47 119.04"/><polygon points="167.27 120.13 175.16 131.44 164.08 130.21 167.27 120.13"/><polygon points="164.08 130.21 175.16 131.44 154.67 147.63 164.08 130.21"/><polygon points="157.47 119.03 147.66 117.94 148.83 128.5 157.47 119.03"/><polygon points="147.66 117.94 137.76 127.26 148.83 128.5 147.66 117.94"/><polygon points="148.83 128.5 137.76 127.26 154.67 147.63 148.83 128.5"/><polygon points="154.67 147.63 164.08 130.2 148.83 128.5 154.67 147.63"/><polygon points="157.47 119.03 148.83 128.5 164.08 130.2 157.47 119.03"/><path d="M149.33,129.85l4.31-4.73a1.12,1.12,0,0,0,0-1.5l-.37-.37a.94.94,0,0,0-1.4,0L147.55,128a1.11,1.11,0,0,0,0,1.5l.36.37A1,1,0,0,0,149.33,129.85Z"/></g><g class="cls-12"><polygon class="cls-8" points="179.28 128.24 192.1 130.91 186.8 143.81 179.28 128.24"/><polygon class="cls-9" points="192.1 130.91 201.29 146.83 186.8 143.81 192.1 130.91"/><polygon class="cls-8" points="186.8 143.81 201.29 146.83 172.47 165.65 186.8 143.81"/><polygon class="cls-8" points="179.28 128.24 166.46 125.57 166.85 139.66 179.28 128.24"/><polygon class="cls-9" points="166.46 125.57 152.36 136.64 166.85 139.66 166.46 125.57"/><polygon class="cls-8" points="166.85 139.66 152.36 136.64 172.47 165.65 166.85 139.66"/><polygon class="cls-9" points="172.47 165.65 186.8 143.81 166.85 139.66 172.47 165.65"/><polygon class="cls-10" points="179.28 128.24 166.85 139.66 186.8 143.81 179.28 128.24"/></g><g class="cls-15"><polygon points="179.28 128.24 192.1 130.91 186.79 143.81 179.28 128.24"/><polygon points="192.1 130.91 201.29 146.83 186.79 143.81 192.1 130.91"/><polygon points="186.79 143.81 201.29 146.83 172.47 165.65 186.79 143.81"/><polygon points="179.28 128.24 166.46 125.57 166.85 139.66 179.28 128.24"/><polygon points="166.46 125.57 152.36 136.64 166.85 139.66 166.46 125.57"/><polygon points="166.85 139.66 152.36 136.64 172.47 165.65 166.85 139.66"/><polygon points="172.47 165.65 186.8 143.81 166.85 139.66 172.47 165.65"/><polygon points="179.28 128.24 166.85 139.66 186.8 143.81 179.28 128.24"/><path d="M167.35,141.51l6.22-5.71a1.49,1.49,0,0,0,.14-2l-.44-.54a1.26,1.26,0,0,0-1.85-.15l-6.22,5.71a1.47,1.47,0,0,0-.14,2l.44.54A1.25,1.25,0,0,0,167.35,141.51Z"/></g><g class="cls-12"><polygon class="cls-8" points="158.55 137.55 168.66 139.65 164.48 149.82 158.55 137.55"/><polygon class="cls-9" points="168.66 139.65 175.9 152.2 164.48 149.82 168.66 139.65"/><polygon class="cls-8" points="164.48 149.82 175.9 152.2 153.18 167.04 164.48 149.82"/><polygon class="cls-8" points="158.55 137.55 148.44 135.44 148.75 146.55 158.55 137.55"/><polygon class="cls-9" points="148.44 135.44 137.33 144.17 148.75 146.55 148.44 135.44"/><polygon class="cls-8" points="148.75 146.55 137.33 144.17 153.18 167.04 148.75 146.55"/><polygon class="cls-9" points="153.18 167.04 164.48 149.82 148.75 146.55 153.18 167.04"/><polygon class="cls-10" points="158.55 137.55 148.75 146.55 164.48 149.82 158.55 137.55"/></g><g class="cls-19"><polygon points="158.55 137.55 168.66 139.65 164.48 149.82 158.55 137.55"/><polygon points="168.66 139.65 175.9 152.2 164.48 149.82 168.66 139.65"/><polygon points="164.48 149.82 175.9 152.2 153.18 167.04 164.48 149.82"/><polygon points="158.55 137.55 148.44 135.44 148.75 146.55 158.55 137.55"/><polygon points="148.44 135.44 137.33 144.17 148.75 146.55 148.44 135.44"/><polygon points="148.75 146.55 137.33 144.17 153.18 167.04 148.75 146.55"/><polygon points="153.18 167.04 164.48 149.82 148.75 146.55 153.18 167.04"/><polygon points="158.55 137.55 148.75 146.55 164.48 149.82 158.55 137.55"/><path d="M149.15,148l4.9-4.5a1.17,1.17,0,0,0,.11-1.56l-.35-.43a1,1,0,0,0-1.46-.12l-4.9,4.5a1.17,1.17,0,0,0-.11,1.56l.35.43A1,1,0,0,0,149.15,148Z"/></g><g class="cls-19"><polygon points="224.57 145.71 234.37 146.81 231.18 156.88 224.57 145.71"/><polygon points="234.37 146.81 242.26 158.12 231.18 156.88 234.37 146.81"/><polygon points="231.18 156.88 242.26 158.12 221.77 174.31 231.18 156.88"/><polygon points="224.57 145.71 214.76 144.61 215.93 155.17 224.57 145.71"/><polygon points="214.76 144.61 204.86 153.93 215.93 155.17 214.76 144.61"/><polygon points="215.93 155.17 204.86 153.93 221.77 174.31 215.93 155.17"/><polygon points="221.77 174.31 231.18 156.88 215.93 155.17 221.77 174.31"/><polygon points="224.57 145.71 215.93 155.17 231.18 156.88 224.57 145.71"/></g><polygon class="cls-8" points="115.62 127.63 131.75 125.1 130.49 142.63 115.62 127.63"/><polygon class="cls-9" points="131.75 125.1 148.71 139.78 130.49 142.63 131.75 125.1"/><polygon class="cls-8" points="130.49 142.63 148.71 139.78 122.07 174.67 130.49 142.63"/><polygon class="cls-8" points="115.62 127.63 99.49 130.15 105.4 146.56 115.62 127.63"/><polygon class="cls-9" points="99.49 130.15 87.17 149.42 105.4 146.56 99.49 130.15"/><polygon class="cls-8" points="105.4 146.56 87.17 149.42 122.07 174.67 105.4 146.56"/><polygon class="cls-9" points="122.07 174.67 130.49 142.63 105.4 146.56 122.07 174.67"/><polygon class="cls-10" points="115.62 127.63 105.4 146.56 130.49 142.63 115.62 127.63"/><path class="cls-14" d="M106.71,148.52l5.11-9.47a1.82,1.82,0,0,0-.61-2.39l-.72-.45a1.59,1.59,0,0,0-2.24.65l-5.1,9.46a1.82,1.82,0,0,0,.6,2.4l.72.44A1.58,1.58,0,0,0,106.71,148.52Z"/><polygon class="cls-8" points="144.7 150.16 157.97 151.77 153.53 165.37 144.7 150.16"/><polygon class="cls-9" points="157.97 151.77 168.53 167.19 153.53 165.37 157.97 151.77"/><polygon class="cls-8" points="153.53 165.37 168.53 167.19 140.58 188.85 153.53 165.37"/><polygon class="cls-8" points="144.7 150.15 131.43 148.54 132.9 162.86 144.7 150.15"/><polygon class="cls-9" points="131.43 148.54 117.9 161.04 132.9 162.86 131.43 148.54"/><polygon class="cls-8" points="132.9 162.86 117.9 161.04 140.59 188.85 132.9 162.86"/><polygon class="cls-9" points="140.59 188.85 153.53 165.37 132.9 162.86 140.59 188.85"/><polygon class="cls-10" points="144.7 150.15 132.9 162.86 153.53 165.37 144.7 150.15"/><path class="cls-14" d="M133.55,164.7l5.9-6.35a1.51,1.51,0,0,0,0-2l-.48-.51a1.28,1.28,0,0,0-1.9,0l-5.9,6.36a1.52,1.52,0,0,0,0,2l.49.51A1.28,1.28,0,0,0,133.55,164.7Z"/><polygon class="cls-20" points="229.99 123.95 229.99 209.08 141.09 256.6 141.09 171.45 229.99 123.95"/><polygon class="cls-21" points="149.69 252.06 179.37 236.2 231.29 152.38 231.29 139.07 216.39 144.39 149.69 252.06"/><polygon class="cls-6" points="229.98 207.81 229.98 221.81 141.08 269.33 141.08 255.32 229.98 207.81"/><polygon class="cls-6" points="141.09 255.32 141.09 270.6 52.21 223.09 52.21 138.56 52.91 138.82 52.91 208.18 141.09 255.32"/><polygon class="cls-22" points="52.91 152.12 104.83 235.94 52.91 208.18 52.91 152.12"/><polygon class="cls-22" points="141.08 171.47 141.08 255.32 134.5 251.8 67.8 144.13 134.87 168.1 141.06 171.45 141.08 171.47"/><polygon class="cls-23" points="134.5 251.8 104.83 235.94 52.91 152.12 52.91 138.81 67.8 144.13 134.5 251.8"/><polygon class="cls-24" points="172.51 200.69 252.83 153.86 229.99 123.67 140.78 171.27 172.51 200.69"/><polygon class="cls-25" points="17.49 148.08 101.81 198.64 140.78 171.27 51.85 123.67 17.49 148.08"/><polygon class="cls-8" points="13.36 123.93 19.15 121 20.56 127.74 13.36 123.93"/><polygon class="cls-9" points="19.15 121 27.1 124.44 20.56 127.74 19.15 121"/><polygon class="cls-8" points="20.56 127.74 27.1 124.44 20.83 140.81 20.56 127.74"/><polygon class="cls-8" points="13.36 123.93 7.57 126.85 11.55 132.29 13.36 123.93"/><polygon class="cls-9" points="7.57 126.85 5.01 135.6 11.55 132.29 7.57 126.85"/><polygon class="cls-8" points="11.55 132.29 5.01 135.6 20.83 140.81 11.55 132.29"/><polygon class="cls-9" points="20.83 140.81 20.56 127.74 11.55 132.29 20.83 140.81"/><polygon class="cls-10" points="13.36 123.93 11.55 132.29 20.56 127.74 13.36 123.93"/><path class="cls-14" d="M12.25,132.87l.91-4.18a.7.7,0,0,0-.49-.83l-.31-.08a.66.66,0,0,0-.78.52l-.9,4.18a.7.7,0,0,0,.48.83l.32.08A.64.64,0,0,0,12.25,132.87Z"/><polygon class="cls-8" points="219.81 217.66 236.81 227.61 223.87 243.29 219.81 217.66"/><polygon class="cls-9" points="236.81 227.61 243.08 254.53 223.87 243.29 236.81 227.61"/><polygon class="cls-8" points="223.87 243.29 243.08 254.53 194.42 267.26 223.87 243.29"/><polygon class="cls-8" points="219.81 217.66 202.81 207.72 197.43 227.82 219.81 217.66"/><polygon class="cls-9" points="202.81 207.72 178.21 216.58 197.43 227.82 202.81 207.72"/><polygon class="cls-8" points="197.43 227.82 178.21 216.58 194.42 267.25 197.43 227.82"/><polygon class="cls-9" points="194.42 267.25 223.87 243.29 197.43 227.82 194.42 267.25"/><polygon class="cls-10" points="219.81 217.66 197.43 227.82 223.87 243.29 219.81 217.66"/><path class="cls-14" d="M197.36,230.68l11.19-5.08a2.15,2.15,0,0,0,1-2.73l-.39-1a1.91,1.91,0,0,0-2.56-1.1l-11.19,5.08a2.15,2.15,0,0,0-1,2.73l.39,1A1.91,1.91,0,0,0,197.36,230.68Z"/><polygon class="cls-8" points="162.45 252.71 166.15 246.72 170.84 251.95 162.45 252.71"/><polygon class="cls-9" points="166.15 246.72 175.03 245.19 170.84 251.95 166.15 246.72"/><polygon class="cls-8" points="170.84 251.95 175.03 245.19 177.74 263.51 170.84 251.95"/><polygon class="cls-8" points="162.45 252.71 158.75 258.69 165.08 261.26 162.45 252.71"/><polygon class="cls-9" points="158.75 258.69 160.9 268.03 165.08 261.26 158.75 258.69"/><polygon class="cls-8" points="165.08 261.26 160.9 268.03 177.73 263.51 165.08 261.26"/><polygon class="cls-9" points="177.73 263.51 170.84 251.95 165.08 261.26 177.73 263.51"/><polygon class="cls-10" points="162.45 252.71 165.08 261.26 170.84 251.95 162.45 252.71"/><path class="cls-14" d="M166,261.37l-1.32-4.27a.66.66,0,0,0-.85-.46l-.33.11a.73.73,0,0,0-.43.91l1.32,4.28a.67.67,0,0,0,.85.46l.32-.12A.74.74,0,0,0,166,261.37Z"/><polygon class="cls-8" points="57.21 218.92 63.58 216.65 64.26 223.86 57.21 218.92"/><polygon class="cls-9" points="63.58 216.65 71.45 221.28 64.26 223.86 63.58 216.65"/><polygon class="cls-8" points="64.26 223.86 71.45 221.28 63.02 237.5 64.26 223.86"/><polygon class="cls-8" points="57.21 218.92 50.84 221.2 54.35 227.39 57.21 218.92"/><polygon class="cls-9" points="50.84 221.2 47.16 229.97 54.35 227.39 50.84 221.2"/><polygon class="cls-8" points="54.35 227.39 47.16 229.97 63.02 237.5 54.35 227.39"/><polygon class="cls-9" points="63.02 237.5 64.25 223.85 54.35 227.39 63.02 237.5"/><polygon class="cls-10" points="57.21 218.92 54.35 227.39 64.25 223.85 57.21 218.92"/><path class="cls-14" d="M55,228.09l1.43-4.24a.73.73,0,0,0-.4-.92l-.33-.13a.66.66,0,0,0-.86.44l-1.43,4.23a.74.74,0,0,0,.41.93l.32.12A.66.66,0,0,0,55,228.09Z"/><polygon class="cls-8" points="41.55 124.73 50.04 121.7 50.95 131.31 41.55 124.73"/><polygon class="cls-9" points="50.04 121.7 60.54 127.88 50.95 131.31 50.04 121.7"/><polygon class="cls-8" points="50.95 131.31 60.54 127.88 49.3 149.49 50.95 131.31"/><polygon class="cls-8" points="41.55 124.73 33.06 127.76 37.74 136.02 41.55 124.73"/><polygon class="cls-9" points="33.06 127.76 28.15 139.45 37.74 136.02 33.06 127.76"/><polygon class="cls-8" points="37.74 136.02 28.15 139.45 49.3 149.49 37.74 136.02"/><polygon class="cls-9" points="49.3 149.49 50.95 131.3 37.74 136.02 49.3 149.49"/><polygon class="cls-10" points="41.55 124.73 37.74 136.02 50.95 131.3 41.55 124.73"/><path class="cls-14" d="M38.63,136.94l1.9-5.64a1,1,0,0,0-.54-1.23l-.43-.17a.88.88,0,0,0-1.15.58l-1.91,5.65a1,1,0,0,0,.55,1.23l.43.16A.89.89,0,0,0,38.63,136.94Z"/><polygon class="cls-8" points="21.58 158.34 26.13 152.11 30.85 158.29 21.58 158.34"/><polygon class="cls-9" points="26.13 152.11 36 151.25 30.85 158.29 26.13 152.11"/><polygon class="cls-8" points="30.85 158.29 36 151.25 37.48 171.62 30.85 158.29"/><polygon class="cls-8" points="21.58 158.34 17.02 164.57 23.77 167.97 21.58 158.34"/><polygon class="cls-9" points="17.02 164.57 18.63 175.01 23.77 167.97 17.02 164.57"/><polygon class="cls-8" points="23.77 167.97 18.63 175.01 37.48 171.62 23.77 167.97"/><polygon class="cls-9" points="37.48 171.62 30.85 158.29 23.77 167.97 37.48 171.62"/><polygon class="cls-10" points="21.58 158.34 23.77 167.97 30.85 158.29 21.58 158.34"/><path class="cls-14" d="M24.78,168.18l-1.1-4.82a.74.74,0,0,0-.9-.58l-.37.09a.8.8,0,0,0-.54,1L23,168.65a.74.74,0,0,0,.9.58l.37-.09A.81.81,0,0,0,24.78,168.18Z"/><polygon class="cls-8" points="10.63 195.59 13.98 188.87 19.43 193.88 10.63 195.59"/><polygon class="cls-9" points="13.98 188.87 23.21 186.29 19.43 193.88 13.98 188.87"/><polygon class="cls-8" points="19.43 193.88 23.21 186.29 27.79 205.35 19.43 193.88"/><polygon class="cls-8" points="10.63 195.59 7.28 202.31 14.22 204.34 10.63 195.59"/><polygon class="cls-9" points="7.28 202.31 10.43 211.94 14.22 204.34 7.28 202.31"/><polygon class="cls-8" points="14.22 204.34 10.43 211.94 27.79 205.35 14.22 204.34"/><polygon class="cls-9" points="27.79 205.35 19.43 193.88 14.22 204.34 27.79 205.35"/><polygon class="cls-10" points="10.63 195.59 14.22 204.34 19.43 193.88 10.63 195.59"/><path class="cls-14" d="M15.2,204.35,13.41,200a.7.7,0,0,0-.95-.39l-.33.15a.79.79,0,0,0-.37,1l1.79,4.38a.71.71,0,0,0,.95.39l.33-.16A.79.79,0,0,0,15.2,204.35Z"/><polygon class="cls-8" points="132.81 253.07 141.04 258.48 134.22 265.94 132.81 253.07"/><polygon class="cls-9" points="141.04 258.48 143.53 272.06 134.22 265.94 141.04 258.48"/><polygon class="cls-8" points="134.22 265.94 143.53 272.06 118.99 277.08 134.22 265.94"/><polygon class="cls-8" points="132.81 253.07 124.58 247.66 121.42 257.52 132.81 253.07"/><polygon class="cls-9" points="124.58 247.66 112.12 251.41 121.42 257.52 124.58 247.66"/><polygon class="cls-8" points="121.42 257.52 112.12 251.41 118.99 277.08 121.42 257.52"/><polygon class="cls-9" points="118.99 277.08 134.23 265.94 121.42 257.52 118.99 277.08"/><polygon class="cls-10" points="132.81 253.07 121.42 257.52 134.23 265.94 132.81 253.07"/><path class="cls-14" d="M121.32,259l5.69-2.23a1.07,1.07,0,0,0,.58-1.33l-.17-.5a1,1,0,0,0-1.25-.62l-5.69,2.23a1.06,1.06,0,0,0-.58,1.33l.17.5A1,1,0,0,0,121.32,259Z"/><polygon class="cls-8" points="36.09 234.34 45.47 232.79 44.81 243.01 36.09 234.34"/><polygon class="cls-9" points="45.47 232.79 55.41 241.26 44.81 243.01 45.47 232.79"/><polygon class="cls-8" points="44.81 243.01 55.41 241.26 40.04 261.7 44.81 243.01"/><polygon class="cls-8" points="36.09 234.34 26.71 235.88 30.22 245.41 36.09 234.34"/><polygon class="cls-9" points="26.71 235.88 19.62 247.16 30.22 245.41 26.71 235.88"/><polygon class="cls-8" points="30.22 245.41 19.62 247.16 40.04 261.7 30.22 245.41"/><polygon class="cls-9" points="40.04 261.7 44.81 243 30.22 245.41 40.04 261.7"/><polygon class="cls-10" points="36.09 234.34 30.22 245.41 44.81 243 36.09 234.34"/><path class="cls-14" d="M31,246.55,33.93,241a1.07,1.07,0,0,0-.36-1.39l-.43-.26a.93.93,0,0,0-1.3.39l-2.93,5.53a1.05,1.05,0,0,0,.36,1.39l.42.26A.93.93,0,0,0,31,246.55Z"/><polygon class="cls-8" points="50.03 94.92 58.94 93.96 57.84 103.54 50.03 94.92"/><polygon class="cls-9" points="58.94 93.96 67.91 102.46 57.84 103.54 58.94 93.96"/><polygon class="cls-8" points="57.84 103.54 67.91 102.46 52.48 120.89 57.84 103.54"/><polygon class="cls-8" points="50.03 94.92 41.13 95.88 43.99 105.03 50.03 94.92"/><polygon class="cls-9" points="41.13 95.88 33.93 106.12 43.99 105.03 41.13 95.88"/><polygon class="cls-8" points="43.99 105.03 33.93 106.12 52.48 120.89 43.99 105.03"/><polygon class="cls-9" points="52.48 120.89 57.84 103.54 43.99 105.03 52.48 120.89"/><polygon class="cls-10" points="50.03 94.92 43.99 105.03 57.84 103.54 50.03 94.92"/><path class="cls-14" d="M44.66,106.14l3-5.06a1,1,0,0,0-.27-1.33L47,99.49a.87.87,0,0,0-1.24.3l-3,5a1,1,0,0,0,.27,1.33l.39.27A.87.87,0,0,0,44.66,106.14Z"/><polygon class="cls-8" points="74.25 134.86 80.21 136.76 77.14 142.62 74.25 134.86"/><polygon class="cls-9" points="80.21 136.76 83.88 144.76 77.14 142.62 80.21 136.76"/><polygon class="cls-8" points="77.14 142.62 83.88 144.76 69.4 152.26 77.14 142.62"/><polygon class="cls-8" points="74.25 134.86 68.29 132.96 67.86 139.66 74.25 134.86"/><polygon class="cls-9" points="68.29 132.96 61.12 137.52 67.86 139.66 68.29 132.96"/><polygon class="cls-8" points="67.86 139.66 61.12 137.52 69.4 152.26 67.86 139.66"/><polygon class="cls-9" points="69.4 152.26 77.14 142.62 67.86 139.66 69.4 152.26"/><polygon class="cls-10" points="74.25 134.86 67.86 139.66 77.14 142.62 74.25 134.86"/><path class="cls-14" d="M68,140.57l3.19-2.4a.71.71,0,0,0,.16-.94l-.19-.27a.6.6,0,0,0-.87-.17l-3.19,2.4a.7.7,0,0,0-.15.93l.18.28A.6.6,0,0,0,68,140.57Z"/><polygon class="cls-8" points="139.97 171.31 147.96 172.28 145.29 180.47 139.97 171.31"/><polygon class="cls-9" points="147.96 172.28 154.31 181.57 145.29 180.47 147.96 172.28"/><polygon class="cls-8" points="145.29 180.47 154.31 181.57 137.49 194.61 145.29 180.47"/><polygon class="cls-8" points="139.97 171.31 131.99 170.34 132.87 178.96 139.97 171.31"/><polygon class="cls-9" points="131.99 170.34 123.84 177.87 132.87 178.96 131.99 170.34"/><polygon class="cls-8" points="132.87 178.96 123.84 177.87 137.49 194.6 132.87 178.96"/><polygon class="cls-9" points="137.49 194.6 145.29 180.47 132.87 178.96 137.49 194.6"/><polygon class="cls-10" points="139.97 171.31 132.87 178.96 145.29 180.47 139.97 171.31"/><path class="cls-14" d="M133.26,180.07l3.55-3.82a.92.92,0,0,0,0-1.22l-.29-.31a.78.78,0,0,0-1.15,0l-3.55,3.82a.93.93,0,0,0,0,1.23l.3.31A.77.77,0,0,0,133.26,180.07Z"/><polygon class="cls-8" points="117.23 203.26 122.87 200 124.62 206.65 117.23 203.26"/><polygon class="cls-9" points="122.87 200 130.99 202.96 124.62 206.65 122.87 200"/><polygon class="cls-8" points="124.62 206.65 130.99 202.96 125.57 219.69 124.62 206.65"/><polygon class="cls-8" points="117.23 203.26 111.6 206.52 115.86 211.73 117.23 203.26"/><polygon class="cls-9" points="111.6 206.52 109.49 215.42 115.86 211.73 111.6 206.52"/><polygon class="cls-8" points="115.86 211.73 109.49 215.42 125.57 219.69 115.86 211.73"/><polygon class="cls-9" points="125.57 219.69 124.62 206.65 115.86 211.73 125.57 219.69"/><polygon class="cls-10" points="117.23 203.26 115.86 211.73 124.62 206.65 117.23 203.26"/><path class="cls-14" d="M116.59,212.26l.69-4.23a.69.69,0,0,0-.53-.8l-.32-.06a.66.66,0,0,0-.75.56L115,212a.68.68,0,0,0,.53.79l.32.06A.65.65,0,0,0,116.59,212.26Z"/><polygon class="cls-8" points="152.44 220.57 156.8 222.95 153.64 227.01 152.44 220.57"/><polygon class="cls-9" points="156.8 222.95 158.56 229.7 153.64 227.01 156.8 222.95"/><polygon class="cls-8" points="153.64 227.01 158.56 229.7 146.35 233.29 153.64 227.01"/><polygon class="cls-8" points="152.44 220.56 148.08 218.18 146.85 223.3 152.44 220.56"/><polygon class="cls-9" points="148.08 218.18 141.93 220.61 146.85 223.3 148.08 218.18"/><polygon class="cls-8" points="146.85 223.3 141.93 220.61 146.35 233.29 146.85 223.3"/><polygon class="cls-9" points="146.35 233.29 153.64 227.01 146.85 223.3 146.35 233.29"/><polygon class="cls-10" points="152.44 220.56 146.85 223.3 153.64 227.01 152.44 220.56"/><path class="cls-14" d="M146.85,224l2.8-1.36a.56.56,0,0,0,.24-.7l-.1-.25a.48.48,0,0,0-.66-.25l-2.79,1.36a.54.54,0,0,0-.24.7l.1.24A.47.47,0,0,0,146.85,224Z"/><path class="cls-26" d="M85,91.88l1.31-5.22a.5.5,0,0,1,1,0l1.32,5.22A5.69,5.69,0,0,0,92.5,96l4.88,1.4a.56.56,0,0,1,0,1.06L92.5,99.89A5.71,5.71,0,0,0,88.62,104l-1.31,5.22a.5.5,0,0,1-1,0L85,104.05a5.68,5.68,0,0,0-3.89-4.15l-4.88-1.4a.56.56,0,0,1,0-1.06L81.11,96A5.72,5.72,0,0,0,85,91.88Z"/><path class="cls-26" d="M169.25,102.53l2.42-4.75a.51.51,0,0,1,1,.25l.14,5.4a5.94,5.94,0,0,0,2.87,5l4.44,2.58a.56.56,0,0,1-.23,1l-5.06.15a5.46,5.46,0,0,0-4.68,3.07L167.69,120a.51.51,0,0,1-1-.24l-.14-5.41a5.91,5.91,0,0,0-2.87-5l-4.44-2.58a.56.56,0,0,1,.23-1l5.06-.15A5.48,5.48,0,0,0,169.25,102.53Z"/><path class="cls-26" d="M170.05,135.38l3.47-3.93a.51.51,0,0,1,.87.5l-1.15,5.26a6.13,6.13,0,0,0,1.58,5.62l3.68,3.71a.54.54,0,0,1-.47.93l-4.92-1.23a5.26,5.26,0,0,0-5.26,1.69l-3.47,3.93a.51.51,0,0,1-.87-.5l1.15-5.26a6.12,6.12,0,0,0-1.58-5.62l-3.68-3.72a.54.54,0,0,1,.47-.92l4.92,1.23A5.28,5.28,0,0,0,170.05,135.38Z"/><polygon class="cls-8" points="66.88 173.83 74.6 172.99 73.67 181.31 66.88 173.83"/><polygon class="cls-9" points="74.6 172.99 82.4 180.35 73.67 181.31 74.6 172.99"/><polygon class="cls-8" points="73.67 181.31 82.4 180.35 69.04 196.37 73.67 181.31"/><polygon class="cls-8" points="66.88 173.83 59.15 174.68 61.65 182.62 66.88 173.83"/><polygon class="cls-9" points="59.15 174.68 52.91 183.58 61.65 182.62 59.15 174.68"/><polygon class="cls-8" points="61.65 182.62 52.91 183.58 69.04 196.37 61.65 182.62"/><polygon class="cls-9" points="69.04 196.37 73.67 181.3 61.65 182.62 69.04 196.37"/><polygon class="cls-10" points="66.88 173.83 61.65 182.62 73.67 181.3 66.88 173.83"/><path class="cls-14" d="M62.23,183.58l2.62-4.39A.86.86,0,0,0,64.6,178l-.33-.23a.76.76,0,0,0-1.08.25l-2.61,4.4a.86.86,0,0,0,.24,1.15l.33.23A.75.75,0,0,0,62.23,183.58Z"/><polygon class="cls-8" points="90.62 207.06 95.12 207.47 93.75 212.11 90.62 207.06"/><polygon class="cls-9" points="95.12 207.47 98.83 212.56 93.75 212.11 95.12 207.47"/><polygon class="cls-8" points="93.75 212.11 98.83 212.56 89.59 220.17 93.75 212.11"/><polygon class="cls-8" points="90.62 207.06 86.13 206.66 86.76 211.48 90.62 207.06"/><polygon class="cls-9" points="86.13 206.66 81.68 211.02 86.76 211.48 86.13 206.66"/><polygon class="cls-8" points="86.76 211.48 81.68 211.02 89.59 220.17 86.76 211.48"/><polygon class="cls-9" points="89.59 220.17 93.75 212.1 86.76 211.48 89.59 220.17"/><polygon class="cls-10" points="90.62 207.06 86.76 211.48 93.75 212.1 90.62 207.06"/><path class="cls-14" d="M87,212.09l1.94-2.2a.52.52,0,0,0,0-.69l-.17-.17a.44.44,0,0,0-.64,0l-1.94,2.21a.52.52,0,0,0,0,.69l.17.17A.43.43,0,0,0,87,212.09Z"/><polygon class="cls-8" points="99.97 163.73 108.88 162.87 107.7 172.44 99.97 163.73"/><polygon class="cls-9" points="108.88 162.87 117.77 171.47 107.7 172.44 108.88 162.87"/><polygon class="cls-8" points="107.7 172.44 117.77 171.47 102.17 189.73 107.7 172.44"/><polygon class="cls-8" points="99.97 163.73 91.06 164.59 93.83 173.78 99.97 163.73"/><polygon class="cls-9" points="91.06 164.59 83.76 174.75 93.83 173.78 91.06 164.59"/><polygon class="cls-8" points="93.83 173.78 83.76 174.75 102.17 189.72 93.83 173.78"/><polygon class="cls-9" points="102.17 189.72 107.7 172.44 93.83 173.78 102.17 189.72"/><polygon class="cls-10" points="99.97 163.73 93.83 173.78 107.7 172.44 99.97 163.73"/><path class="cls-14" d="M94.5,174.89l3.06-5a1,1,0,0,0-.26-1.33l-.38-.27a.87.87,0,0,0-1.25.28l-3.07,5a1,1,0,0,0,.27,1.34l.38.26A.87.87,0,0,0,94.5,174.89Z"/><polygon class="cls-8" points="74.15 244.9 80.01 243.95 79.58 250.32 74.15 244.9"/><polygon class="cls-9" points="80.01 243.95 86.2 249.25 79.58 250.32 80.01 243.95"/><polygon class="cls-8" points="79.58 250.32 86.2 249.25 76.57 261.99 79.58 250.32"/><polygon class="cls-8" points="74.15 244.9 68.29 245.84 70.47 251.8 74.15 244.9"/><polygon class="cls-9" points="68.29 245.84 63.85 252.87 70.47 251.8 68.29 245.84"/><polygon class="cls-8" points="70.47 251.8 63.85 252.87 76.57 261.99 70.47 251.8"/><polygon class="cls-9" points="76.57 261.99 79.58 250.32 70.47 251.8 76.57 261.99"/><polygon class="cls-10" points="74.15 244.9 70.47 251.8 79.58 250.32 74.15 244.9"/><path class="cls-14" d="M71,252.51l1.84-3.45a.66.66,0,0,0-.23-.87L72.3,248a.57.57,0,0,0-.81.24l-1.84,3.45a.65.65,0,0,0,.22.87l.26.16A.59.59,0,0,0,71,252.51Z"/><polygon class="cls-8" points="104.89 239.99 108.74 241.06 106.89 244.88 104.89 239.99"/><polygon class="cls-9" points="108.74 241.06 111.24 246.09 106.89 244.88 108.74 241.06"/><polygon class="cls-8" points="106.89 244.88 111.24 246.09 102.14 251.22 106.89 244.88"/><polygon class="cls-8" points="104.89 239.98 101.04 238.91 100.9 243.2 104.89 239.98"/><polygon class="cls-9" points="101.04 238.91 96.55 241.98 100.9 243.2 101.04 238.91"/><polygon class="cls-8" points="100.9 243.2 96.55 241.98 102.14 251.22 100.9 243.2"/><polygon class="cls-9" points="102.14 251.22 106.89 244.88 100.9 243.2 102.14 251.22"/><polygon class="cls-10" points="104.89 239.98 100.9 243.2 106.89 244.88 104.89 239.98"/><path class="cls-14" d="M101,243.77l2-1.6a.44.44,0,0,0,.08-.6l-.12-.18a.38.38,0,0,0-.56-.08l-2,1.61a.44.44,0,0,0-.08.6l.12.17A.38.38,0,0,0,101,243.77Z"/><path class="cls-26" d="M203.34,202.34l4.24-4.8a.63.63,0,0,1,1.06.61l-1.41,6.42a7.51,7.51,0,0,0,1.93,6.87l4.49,4.53a.66.66,0,0,1-.57,1.13l-6-1.51a6.44,6.44,0,0,0-6.42,2.07l-4.24,4.8a.63.63,0,0,1-1.06-.61l1.41-6.43a7.49,7.49,0,0,0-1.93-6.86L190.34,204a.67.67,0,0,1,.57-1.14l6,1.51A6.43,6.43,0,0,0,203.34,202.34Z"/><path class="cls-26" d="M24.46,234.38l-.56-2.73a.27.27,0,0,1,.46-.25l1.76,2.06a2.75,2.75,0,0,0,2.71.92l2.56-.6a.28.28,0,0,1,.23.48l-1.93,1.89a3.2,3.2,0,0,0-.86,2.9l.56,2.73a.26.26,0,0,1-.45.25L27.17,240a2.72,2.72,0,0,0-2.7-.92l-2.56.59a.28.28,0,0,1-.23-.48l1.92-1.89A3.15,3.15,0,0,0,24.46,234.38Z"/><path class="cls-26" d="M5.29,124.46l-.75-2.11a.22.22,0,0,1,.34-.26l1.63,1.43a2.2,2.2,0,0,0,2.27.39l2-.79a.22.22,0,0,1,.24.36l-1.33,1.74a2.58,2.58,0,0,0-.37,2.42l.74,2.12a.21.21,0,0,1-.33.25l-1.64-1.42a2.16,2.16,0,0,0-2.26-.4l-2,.8a.23.23,0,0,1-.24-.36l1.34-1.75A2.58,2.58,0,0,0,5.29,124.46Z"/><path class="cls-26" d="M32,124.63l-.13-3.18a.3.3,0,0,1,.55-.19l1.6,2.68a3.2,3.2,0,0,0,2.87,1.59l3-.14A.32.32,0,0,1,40,126l-2.5,1.72a3.53,3.53,0,0,0-1.49,3.06l.13,3.17a.3.3,0,0,1-.55.19L34,131.44a3.2,3.2,0,0,0-2.86-1.59l-3,.14a.32.32,0,0,1-.18-.59l2.51-1.71A3.54,3.54,0,0,0,32,124.63Z"/><path class="cls-26" d="M109.91,206.12l-.92-1.68a.19.19,0,0,1,.25-.27l1.59,1a1.88,1.88,0,0,0,2,0l1.58-1a.19.19,0,0,1,.25.27l-.9,1.7a2.24,2.24,0,0,0,0,2.12l.92,1.68c.09.18-.09.37-.25.27l-1.59-1a1.88,1.88,0,0,0-2,0l-1.57,1a.19.19,0,0,1-.26-.27l.9-1.7A2.24,2.24,0,0,0,109.91,206.12Z"/><path class="cls-26" d="M90.56,161.36l.26-2.83a.26.26,0,0,1,.51-.09l1.1,2.59a2.93,2.93,0,0,0,2.35,1.8l2.65.28a.29.29,0,0,1,.08.55l-2.42,1.17a3.13,3.13,0,0,0-1.69,2.51l-.26,2.83a.26.26,0,0,1-.51.09l-1.1-2.59a2.93,2.93,0,0,0-2.35-1.8l-2.65-.28a.29.29,0,0,1-.08-.55l2.42-1.17A3.11,3.11,0,0,0,90.56,161.36Z"/><path class="cls-26" d="M86.23,205.58l.36-1.19a.12.12,0,0,1,.23,0l.25,1.23a1.32,1.32,0,0,0,.84,1L89,207a.13.13,0,0,1,0,.24l-1.14.26a1.3,1.3,0,0,0-1,.91l-.36,1.19a.12.12,0,0,1-.23,0l-.24-1.22a1.35,1.35,0,0,0-.85-1L84.13,207a.13.13,0,0,1,0-.24l1.14-.26A1.3,1.3,0,0,0,86.23,205.58Z"/><path class="cls-26" d="M125.62,245.45l1.79-1.81a.25.25,0,0,1,.41.26l-.7,2.54a3,3,0,0,0,.63,2.78l1.7,1.91a.26.26,0,0,1-.25.44l-2.37-.74a2.53,2.53,0,0,0-2.6.67l-1.79,1.81a.25.25,0,0,1-.41-.26l.69-2.53a3,3,0,0,0-.63-2.79l-1.7-1.91a.27.27,0,0,1,.26-.44l2.36.74A2.56,2.56,0,0,0,125.62,245.45Z"/><path class="cls-26" d="M67.56,244.7l-.06-1.4a.14.14,0,0,1,.25-.08l.7,1.18a1.41,1.41,0,0,0,1.25.7L71,245a.14.14,0,0,1,.07.26l-1.1.75a1.56,1.56,0,0,0-.65,1.34l.06,1.39a.14.14,0,0,1-.25.08l-.7-1.17a1.39,1.39,0,0,0-1.25-.7l-1.31.06a.14.14,0,0,1-.07-.26l1.1-.75A1.56,1.56,0,0,0,67.56,244.7Z"/><polygon class="cls-8" points="86.63 7.68 97.75 7.68 95.28 18.89 86.63 7.68"/><polygon class="cls-9" points="97.75 7.68 107.86 18.89 95.28 18.89 97.75 7.68"/><polygon class="cls-8" points="95.28 18.89 107.86 18.89 86.63 38.75 95.28 18.89"/><polygon class="cls-8" points="86.63 7.68 75.5 7.68 77.97 18.89 86.63 7.68"/><polygon class="cls-9" points="75.5 7.68 65.4 18.89 77.97 18.89 75.5 7.68"/><polygon class="cls-8" points="77.97 18.89 65.4 18.89 86.63 38.75 77.97 18.89"/><polygon class="cls-9" points="86.63 38.75 95.28 18.89 77.97 18.89 86.63 38.75"/><polygon class="cls-10" points="86.63 7.68 77.97 18.89 95.28 18.89 86.63 7.68"/><path class="cls-14" d="M78.49,20.52l4.69-6.07a.86.86,0,0,0-.13-1.19l-.91-.74a.83.83,0,0,0-1.16.14l-4.69,6.08a.87.87,0,0,0,.13,1.19l.91.73A.81.81,0,0,0,78.49,20.52Z"/><path class="cls-26" d="M121.63,35.78v-3h5.91V14.29l-5.91,4.29V14.9l6-4.32h3.33V32.83h4.84v3Z"/><path class="cls-26" d="M138.26,35.78V33l9.9-8.75A20.57,20.57,0,0,0,150,22.5,10.94,10.94,0,0,0,151.17,21a5,5,0,0,0,.58-1.39,6.34,6.34,0,0,0,.16-1.48,5,5,0,0,0-1.24-3.52,4.32,4.32,0,0,0-3.39-1.37,5.27,5.27,0,0,0-4,1.42,5.57,5.57,0,0,0-1.37,4h-3.33a9.25,9.25,0,0,1,.62-3.4A7.47,7.47,0,0,1,141,12.6a8.25,8.25,0,0,1,2.74-1.75,9.53,9.53,0,0,1,3.54-.63,8.9,8.9,0,0,1,3.36.6A6.88,6.88,0,0,1,154.7,15a8.92,8.92,0,0,1,.53,3.16,7.58,7.58,0,0,1-.38,2.42,9,9,0,0,1-1.08,2.12,13,13,0,0,1-1.67,2c-.64.64-1.36,1.29-2.13,2l-7.4,6.23h13v3Z"/><path class="cls-26" d="M179.5,35.78V29.7H166.91V27.11l12.23-16.53h3.68V26.75H186V29.7h-3.19v6.08Zm-9.06-9h9.06V14.54Z"/><path class="cls-26" d="M198.74,36.14a9.46,9.46,0,0,1-3.41-.61,6.69,6.69,0,0,1-2.82-2.1,11.38,11.38,0,0,1-1.91-4,23.47,23.47,0,0,1-.7-6.25v-.72a20.57,20.57,0,0,1,.7-5.83,10.61,10.61,0,0,1,1.91-3.76,6.77,6.77,0,0,1,2.82-2,9.69,9.69,0,0,1,6.82,0,6.74,6.74,0,0,1,2.81,2,10.29,10.29,0,0,1,1.91,3.76,20.18,20.18,0,0,1,.71,5.83v.72a23,23,0,0,1-.71,6.25,11,11,0,0,1-1.91,4,6.66,6.66,0,0,1-2.81,2.1A9.46,9.46,0,0,1,198.74,36.14Zm0-3a5.56,5.56,0,0,0,2.12-.41,4.13,4.13,0,0,0,1.75-1.51,8.79,8.79,0,0,0,1.2-3.06,23.18,23.18,0,0,0,.45-5v-.72a19.43,19.43,0,0,0-.45-4.6,8,8,0,0,0-1.2-2.85,4.15,4.15,0,0,0-1.75-1.44,5.9,5.9,0,0,0-4.22,0A4,4,0,0,0,194.87,15a8.23,8.23,0,0,0-1.21,2.85,20,20,0,0,0-.44,4.6v.72a23.91,23.91,0,0,0,.44,5,9,9,0,0,0,1.21,3.06,4,4,0,0,0,1.77,1.51A5.57,5.57,0,0,0,198.74,33.19Z"/><path class="cls-26" d="M220.67,36.14a9.46,9.46,0,0,1-3.41-.61,6.69,6.69,0,0,1-2.82-2.1,11.38,11.38,0,0,1-1.91-4,23.47,23.47,0,0,1-.7-6.25v-.72a20.57,20.57,0,0,1,.7-5.83,10.61,10.61,0,0,1,1.91-3.76,6.77,6.77,0,0,1,2.82-2,9.69,9.69,0,0,1,6.82,0,6.74,6.74,0,0,1,2.81,2,10.29,10.29,0,0,1,1.91,3.76,20.18,20.18,0,0,1,.71,5.83v.72a23,23,0,0,1-.71,6.25,11,11,0,0,1-1.91,4,6.66,6.66,0,0,1-2.81,2.1A9.46,9.46,0,0,1,220.67,36.14Zm0-3a5.56,5.56,0,0,0,2.12-.41,4.13,4.13,0,0,0,1.75-1.51,8.79,8.79,0,0,0,1.2-3.06,23.18,23.18,0,0,0,.45-5v-.72a19.43,19.43,0,0,0-.45-4.6,8,8,0,0,0-1.2-2.85,4.15,4.15,0,0,0-1.75-1.44,5.74,5.74,0,0,0-2.12-.39,5.85,5.85,0,0,0-2.11.39A4.06,4.06,0,0,0,216.8,15a8.23,8.23,0,0,0-1.21,2.85,20,20,0,0,0-.44,4.6v.72a23.91,23.91,0,0,0,.44,5,9,9,0,0,0,1.21,3.06,4,4,0,0,0,1.76,1.51A5.66,5.66,0,0,0,220.67,33.19Z"/></g></g></svg>