<svg xmlns="http://www.w3.org/2000/svg" viewBox="0 0 261.41 371.58"><defs><style>.cls-1{fill:#006177;}.cls-2{opacity:0.1;}.cls-3{opacity:0.13;}.cls-4{fill:#00a6c2;}.cls-5{fill:#00ccef;}.cls-6{fill:#2ce4ff;}.cls-7{opacity:0.25;}.cls-8{fill:#e2eaff;}.cls-9{opacity:0.12;}.cls-10{fill:#fff;}</style></defs><title>diam_2</title><g id="Слой_2" data-name="Слой 2"><g id="Слой_1-2" data-name="Слой 1"><path class="cls-1" d="M261.41,24.65V346.93a24.74,24.74,0,0,1-24.69,24.65h-212a24.51,24.51,0,0,1-10.12-2.18h0c-.29-.13-.57-.28-.85-.42l-.6-.33a.51.51,0,0,1-.16-.09,23.74,23.74,0,0,1-2.72-1.69A24.62,24.62,0,0,1,0,346.93V24.65A24.74,24.74,0,0,1,24.69,0h212A24.74,24.74,0,0,1,261.41,24.65Z"/><path class="cls-2" d="M199.83,0,0,199.52V24.65A24.74,24.74,0,0,1,24.69,0Z"/><path class="cls-3" d="M261.41,107.46V345.39c0,14.41-11.41,26.19-25.36,26.19H24.69a24.51,24.51,0,0,1-10.12-2.18h0c-.29-.13-.57-.28-.85-.42l-.6-.33a.51.51,0,0,1-.16-.09,23.74,23.74,0,0,1-2.72-1.69l0-.06h0Z"/><polygon class="cls-4" points="83.08 75.42 124.47 70.05 120.56 111.93 83.08 75.42"/><polygon class="cls-5" points="124.47 70.05 167.32 105.87 120.56 111.93 124.47 70.05"/><polygon class="cls-4" points="120.56 111.93 167.32 105.87 97.74 188.19 120.56 111.93"/><polygon class="cls-4" points="83.08 75.41 41.69 80.77 56.18 120.27 83.08 75.41"/><polygon class="cls-5" points="41.69 80.77 9.41 126.33 56.18 120.27 41.69 80.77"/><polygon class="cls-4" points="56.18 120.27 9.41 126.33 97.74 188.19 56.18 120.27"/><polygon class="cls-5" points="97.74 188.19 120.56 111.92 56.18 120.27 97.74 188.19"/><polygon class="cls-6" points="83.08 75.41 56.18 120.27 120.56 111.92 83.08 75.41"/><g class="cls-7"><polygon points="83.08 75.42 124.47 70.05 120.56 111.93 83.08 75.42"/><polygon points="124.47 70.05 167.32 105.87 120.56 111.93 124.47 70.05"/><polygon points="120.56 111.93 167.32 105.87 97.74 188.19 120.56 111.93"/><polygon points="83.08 75.41 41.69 80.77 56.18 120.27 83.08 75.41"/><polygon points="41.69 80.77 9.41 126.33 56.18 120.27 41.69 80.77"/><polygon points="56.18 120.27 9.41 126.33 97.74 188.19 56.18 120.27"/><polygon points="97.74 188.19 120.55 111.92 56.18 120.27 97.74 188.19"/><polygon points="83.08 75.41 56.18 120.27 120.55 111.92 83.08 75.41"/><path d="M59.17,125.48l14-23.37a3.65,3.65,0,0,0-1.25-5l-2.78-1.66a3.68,3.68,0,0,0-5,1.25l-14,23.37a3.66,3.66,0,0,0,1.26,5l2.78,1.66A3.65,3.65,0,0,0,59.17,125.48Z"/></g><polygon class="cls-4" points="66.27 195.9 89.53 177.77 102.24 204.67 66.27 195.9"/><polygon class="cls-5" points="89.53 177.77 128.53 184.18 102.24 204.67 89.53 177.77"/><polygon class="cls-4" points="102.24 204.67 128.53 184.18 115.83 259.3 102.24 204.67"/><polygon class="cls-4" points="66.26 195.9 43 214.03 66.05 232.87 66.26 195.9"/><polygon class="cls-5" points="43 214.03 39.76 253.36 66.05 232.87 43 214.03"/><polygon class="cls-4" points="66.05 232.87 39.76 253.36 115.82 259.29 66.05 232.87"/><polygon class="cls-5" points="115.82 259.29 102.24 204.67 66.05 232.87 115.82 259.29"/><polygon class="cls-6" points="66.26 195.9 66.05 232.87 102.24 204.67 66.26 195.9"/><rect class="cls-8" x="53.87" y="221.59" width="24.41" height="7.45" rx="3.65" transform="translate(-159.61 290.1) rotate(-89.67)"/><polygon class="cls-4" points="204.96 91.06 177.36 85.38 177.9 113.77 204.96 91.06"/><polygon class="cls-5" points="177.36 85.38 146.72 107.35 177.9 113.77 177.36 85.38"/><polygon class="cls-4" points="177.9 113.77 146.72 107.35 189.43 166.25 177.9 113.77"/><polygon class="cls-4" points="204.96 91.05 232.55 96.73 220.82 122.6 204.96 91.05"/><polygon class="cls-5" points="232.55 96.73 252 129.01 220.82 122.6 232.55 96.73"/><polygon class="cls-4" points="220.82 122.6 252 129.01 189.44 166.25 220.82 122.6"/><polygon class="cls-5" points="189.44 166.25 177.9 113.76 220.82 122.6 189.44 166.25"/><polygon class="cls-6" points="204.96 91.05 220.82 122.6 177.9 113.76 204.96 91.05"/><path class="cls-8" d="M218.05,125l-7.28-14.48a3.56,3.56,0,0,1,1.59-4.77h0a3.58,3.58,0,0,1,4.77,1.58l7.28,14.48a3.57,3.57,0,0,1-1.58,4.77h0A3.56,3.56,0,0,1,218.05,125Z"/><g class="cls-9"><polygon points="204.94 91.07 177.34 85.39 177.87 113.78 204.94 91.07"/><polygon points="177.34 85.39 146.69 107.36 177.87 113.78 177.34 85.39"/><polygon points="177.87 113.78 146.69 107.36 189.41 166.26 177.87 113.78"/><polygon points="204.94 91.07 232.53 96.75 220.79 122.61 204.94 91.07"/><polygon points="232.53 96.75 251.98 129.03 220.79 122.61 232.53 96.75"/><polygon points="220.79 122.61 251.98 129.03 189.41 166.26 220.79 122.61"/><polygon points="189.41 166.26 177.88 113.78 220.79 122.61 189.41 166.26"/><polygon points="204.94 91.07 220.79 122.61 177.88 113.78 204.94 91.07"/><path d="M218,125l-7.28-14.48a3.56,3.56,0,0,1,1.58-4.77h0a3.57,3.57,0,0,1,4.77,1.58l7.28,14.49a3.55,3.55,0,0,1-1.58,4.76h0A3.56,3.56,0,0,1,218,125Z"/></g><polygon class="cls-4" points="212 174.59 179.1 148.95 161.13 186.99 212 174.59"/><polygon class="cls-5" points="179.1 148.95 123.95 158.02 161.13 186.99 179.1 148.95"/><polygon class="cls-4" points="161.13 186.99 123.95 158.02 141.91 264.24 161.13 186.99"/><polygon class="cls-4" points="212 174.58 244.9 200.22 212.3 226.87 212 174.58"/><polygon class="cls-5" points="244.9 200.22 249.48 255.84 212.3 226.87 244.9 200.22"/><polygon class="cls-4" points="212.3 226.87 249.48 255.84 141.92 264.23 212.3 226.87"/><polygon class="cls-5" points="141.92 264.23 161.13 186.99 212.3 226.87 141.92 264.23"/><polygon class="cls-6" points="212 174.58 212.3 226.87 161.13 186.99 212 174.58"/><rect class="cls-8" x="195" y="210.92" width="34.52" height="10.53" rx="3.65" transform="translate(-2.7 429.69) rotate(-90.33)"/><path class="cls-10" d="M178.92,135.09l7.57-10.93a1.34,1.34,0,0,1,2.44.87l-1.05,13.25a14.45,14.45,0,0,0,6.2,13L205,158.86a1.35,1.35,0,0,1-.87,2.45l-13.26-1.05a14.48,14.48,0,0,0-13,6.18l-7.58,10.93a1.34,1.34,0,0,1-2.44-.87l1.05-13.24a14.42,14.42,0,0,0-6.2-13l-10.94-7.56a1.35,1.35,0,0,1,.87-2.45l13.27,1.05A14.5,14.5,0,0,0,178.92,135.09Z"/><path class="cls-10" d="M34.63,213.41l-5.71-6.31a.86.86,0,0,1,.9-1.4l8.12,2.6a9.32,9.32,0,0,0,9.05-2l6.32-5.71a.86.86,0,0,1,1.4.9l-2.6,8.11a9.26,9.26,0,0,0,2,9L59.78,225a.86.86,0,0,1-.9,1.4l-8.12-2.6a9.29,9.29,0,0,0-9,1.95l-6.33,5.71a.86.86,0,0,1-1.4-.9l2.6-8.11A9.25,9.25,0,0,0,34.63,213.41Z"/><polygon class="cls-4" points="86.63 7.68 97.75 7.68 95.28 18.89 86.63 7.68"/><polygon class="cls-5" points="97.75 7.68 107.86 18.89 95.28 18.89 97.75 7.68"/><polygon class="cls-4" points="95.28 18.89 107.86 18.89 86.63 38.75 95.28 18.89"/><polygon class="cls-4" points="86.63 7.68 75.5 7.68 77.97 18.89 86.63 7.68"/><polygon class="cls-5" points="75.5 7.68 65.4 18.89 77.97 18.89 75.5 7.68"/><polygon class="cls-4" points="77.97 18.89 65.4 18.89 86.63 38.75 77.97 18.89"/><polygon class="cls-5" points="86.63 38.75 95.28 18.89 77.97 18.89 86.63 38.75"/><polygon class="cls-6" points="86.63 7.68 77.97 18.89 95.28 18.89 86.63 7.68"/><path class="cls-8" d="M78.49,20.52l4.69-6.07a.86.86,0,0,0-.13-1.19l-.91-.74a.83.83,0,0,0-1.16.14l-4.69,6.08a.87.87,0,0,0,.13,1.19l.91.73A.81.81,0,0,0,78.49,20.52Z"/><path class="cls-10" d="M129.25,36.14a10,10,0,0,1-3.5-.55,7.78,7.78,0,0,1-2.5-1.48A6.33,6.33,0,0,1,121.72,32a6.49,6.49,0,0,1-.61-2.38h3.33a3.73,3.73,0,0,0,1.43,2.42,5.17,5.17,0,0,0,3.38,1,4.82,4.82,0,0,0,3.8-1.53,6.19,6.19,0,0,0,1.36-4.27,7.13,7.13,0,0,0-.44-2.68,4.85,4.85,0,0,0-1.17-1.78,4.59,4.59,0,0,0-1.64-1,5.84,5.84,0,0,0-1.91-.32,5.35,5.35,0,0,0-3,.72,5.25,5.25,0,0,0-1.64,1.65h-3V10.58h14.67v3H125v7A5.78,5.78,0,0,1,127.09,19a6.83,6.83,0,0,1,2.69-.51,9.08,9.08,0,0,1,3.31.58,6.92,6.92,0,0,1,2.51,1.69,7.56,7.56,0,0,1,1.59,2.76,11.78,11.78,0,0,1,.55,3.79,10.33,10.33,0,0,1-.62,3.66,8.08,8.08,0,0,1-1.73,2.79,7.49,7.49,0,0,1-2.69,1.76A9.41,9.41,0,0,1,129.25,36.14Z"/><path class="cls-10" d="M150.47,36.14a9.46,9.46,0,0,1-3.41-.61,6.66,6.66,0,0,1-2.81-2.1,11,11,0,0,1-1.91-4,23,23,0,0,1-.71-6.25v-.72a20.18,20.18,0,0,1,.71-5.83,10.29,10.29,0,0,1,1.91-3.76,6.74,6.74,0,0,1,2.81-2,9.69,9.69,0,0,1,6.82,0,6.77,6.77,0,0,1,2.82,2,10.61,10.61,0,0,1,1.91,3.76,20.57,20.57,0,0,1,.7,5.83v.72a23.47,23.47,0,0,1-.7,6.25,11.38,11.38,0,0,1-1.91,4,6.69,6.69,0,0,1-2.82,2.1A9.46,9.46,0,0,1,150.47,36.14Zm0-3a5.52,5.52,0,0,0,2.12-.41,4.07,4.07,0,0,0,1.75-1.51,9,9,0,0,0,1.21-3.06,23.91,23.91,0,0,0,.44-5v-.72a20,20,0,0,0-.44-4.6A8.23,8.23,0,0,0,154.34,15a4.09,4.09,0,0,0-1.75-1.44,5.9,5.9,0,0,0-4.22,0A4.14,4.14,0,0,0,146.6,15a8,8,0,0,0-1.2,2.85,19.43,19.43,0,0,0-.45,4.6v.72a23.18,23.18,0,0,0,.45,5,8.79,8.79,0,0,0,1.2,3.06,4.12,4.12,0,0,0,1.77,1.51A5.57,5.57,0,0,0,150.47,33.19Z"/><path class="cls-10" d="M172.4,36.14a9.46,9.46,0,0,1-3.41-.61,6.6,6.6,0,0,1-2.81-2.1,11,11,0,0,1-1.91-4,23,23,0,0,1-.71-6.25v-.72a20.18,20.18,0,0,1,.71-5.83,10.29,10.29,0,0,1,1.91-3.76,6.68,6.68,0,0,1,2.81-2,9.69,9.69,0,0,1,6.82,0,6.77,6.77,0,0,1,2.82,2,10.61,10.61,0,0,1,1.91,3.76,20.57,20.57,0,0,1,.7,5.83v.72a23.47,23.47,0,0,1-.7,6.25,11.38,11.38,0,0,1-1.91,4,6.69,6.69,0,0,1-2.82,2.1A9.46,9.46,0,0,1,172.4,36.14Zm0-3a5.52,5.52,0,0,0,2.12-.41,4.07,4.07,0,0,0,1.75-1.51,9,9,0,0,0,1.21-3.06,23.91,23.91,0,0,0,.44-5v-.72a20,20,0,0,0-.44-4.6A8.23,8.23,0,0,0,176.27,15a4.09,4.09,0,0,0-1.75-1.44,5.9,5.9,0,0,0-4.22,0A4,4,0,0,0,168.53,15a8,8,0,0,0-1.2,2.85,19.43,19.43,0,0,0-.45,4.6v.72a23.18,23.18,0,0,0,.45,5,8.79,8.79,0,0,0,1.2,3.06,4,4,0,0,0,1.77,1.51A5.57,5.57,0,0,0,172.4,33.19Z"/></g></g></svg>