<svg xmlns="http://www.w3.org/2000/svg" viewBox="0 0 421.31 82.81"><defs><style>.cls-1{fill:#1a1a1a;opacity:0.76;}.cls-2{fill:#00a6c2;}.cls-3{fill:#00ccef;}.cls-4{fill:#2ce4ff;}.cls-5{fill:#e2eaff;}</style></defs><title>info_diam_bar</title><g id="Слой_2" data-name="Слой 2"><g id="Слой_1-2" data-name="Слой 1"><path class="cls-1" d="M36.57,0H421.31a0,0,0,0,1,0,0V82.81a0,0,0,0,1,0,0H36.57A36.57,36.57,0,0,1,0,46.24V36.57A36.57,36.57,0,0,1,36.57,0Z"/><polygon class="cls-2" points="47.92 15.18 67.14 15.18 62.87 34.1 47.92 15.18"/><polygon class="cls-3" points="67.14 15.18 84.58 34.1 62.87 34.1 67.14 15.18"/><polygon class="cls-2" points="62.87 34.1 84.58 34.1 47.92 67.63 62.87 34.1"/><polygon class="cls-2" points="47.92 15.18 28.71 15.18 32.98 34.1 47.92 15.18"/><polygon class="cls-3" points="28.71 15.18 11.26 34.1 32.98 34.1 28.71 15.18"/><polygon class="cls-2" points="32.98 34.1 11.26 34.1 47.92 67.62 32.98 34.1"/><polygon class="cls-3" points="47.92 67.62 62.87 34.1 32.98 34.1 47.92 67.62"/><polygon class="cls-4" points="47.92 15.18 32.98 34.1 62.87 34.1 47.92 15.18"/><rect class="cls-5" x="28.06" y="27.8" width="15.92" height="4.85" rx="2.43" transform="translate(-10.03 39.76) rotate(-51.7)"/></g></g></svg>