<svg xmlns="http://www.w3.org/2000/svg" viewBox="0 0 51.07 30.24"><defs><style>.cls-1{fill:#42c352;}.cls-2{fill:#4c9350;}.cls-3{fill:#fff;}</style></defs><title>Banknote</title><g id="Слой_2" data-name="Слой 2"><g id="Слой_1-2" data-name="Слой 1"><rect class="cls-1" x="0.01" y="0.01" width="51.06" height="30.23" rx="3.05"/><circle class="cls-2" cx="25.54" cy="15.13" r="8.51"/><circle class="cls-3" cx="25.54" cy="15.12" r="3.87"/><path class="cls-2" d="M48.45,0H43.08V1.64A6.35,6.35,0,0,0,49.44,8h1.63V2.63A2.62,2.62,0,0,0,48.45,0Z"/><path class="cls-2" d="M51.07,27.62V22.25H49.44a6.35,6.35,0,0,0-6.36,6.36v1.63h5.37A2.62,2.62,0,0,0,51.07,27.62Z"/><path class="cls-2" d="M2.64,30.24H8V28.62a6.36,6.36,0,0,0-6.36-6.36H0v5.36A2.62,2.62,0,0,0,2.64,30.24Z"/><path class="cls-2" d="M0,2.61V8H1.64A6.36,6.36,0,0,0,8,1.63V0H2.62A2.61,2.61,0,0,0,0,2.61Z"/><rect class="cls-2" y="7.9" width="1.68" height="14.44"/><rect class="cls-2" x="49.39" y="8" width="1.68" height="14.44"/><rect class="cls-2" x="24.99" y="-17.28" width="1.68" height="36.25" transform="translate(24.99 26.68) rotate(-90)"/><rect class="cls-2" x="24.99" y="11.27" width="1.68" height="36.25" transform="translate(-3.57 55.23) rotate(-90)"/></g></g></svg>