<svg xmlns="http://www.w3.org/2000/svg" viewBox="0 0 674.41 946.67"><defs><style>.cls-1{fill:#c8c8c8;}.cls-2{fill:#fff;}.cls-3{fill:#35a2ff;}.cls-4,.cls-5{fill:none;stroke:#fff;stroke-miterlimit:10;}.cls-4{stroke-width:2px;}.cls-5{stroke-width:1.03px;}</style></defs><title>Task_mainback</title><g id="Слой_2" data-name="Слой 2"><g id="Слой_1-2" data-name="Слой 1"><path class="cls-1" d="M674.41,64.23V913.54c0,18.22-16.49,33.13-36.63,33.13H36.63C16.48,946.67,0,931.76,0,913.54V64.23C0,46,16.48,31.11,36.63,31.11H637.78C657.92,31.11,674.41,46,674.41,64.23Z"/><path class="cls-2" d="M674.41,41.47V890.78c0,18.22-16.49,33.12-36.63,33.12H36.63C16.48,923.9,0,909,0,890.78V41.47C0,23.25,16.48,8.34,36.63,8.34H637.78C657.92,8.34,674.41,23.25,674.41,41.47Z"/><path class="cls-3" d="M674.41,36.64V137.11H0V36.64A36.74,36.74,0,0,1,36.63,0H637.78A36.75,36.75,0,0,1,674.41,36.64Z"/><rect class="cls-3" y="638.29" width="674.41" height="5.08"/><rect class="cls-3" y="385.08" width="674.41" height="5.08"/><rect class="cls-2" x="42.71" y="108.26" width="76.08" height="1.88" transform="translate(161.49 218.4) rotate(180)"/><rect class="cls-2" x="42.71" y="96.08" width="76.08" height="1.88" transform="translate(161.49 194.04) rotate(180)"/><rect class="cls-2" x="42.71" y="83.91" width="76.08" height="1.88" transform="translate(161.49 169.69) rotate(180)"/><rect class="cls-2" x="42.71" y="71.73" width="76.08" height="1.88" transform="translate(161.49 145.34) rotate(180)"/><rect class="cls-2" x="42.71" y="59.55" width="76.08" height="1.88" transform="translate(161.49 120.98) rotate(180)"/><rect class="cls-2" x="74.75" y="47.38" width="44.03" height="1.88" transform="translate(193.54 96.63) rotate(180)"/><rect class="cls-2" x="74.75" y="35.2" width="44.03" height="1.88" transform="translate(193.54 72.28) rotate(180)"/><rect class="cls-2" x="74.75" y="23.03" width="44.03" height="1.88" transform="translate(193.54 47.93) rotate(180)"/><rect class="cls-4" x="42.71" y="23.03" width="24.35" height="24.35"/><rect class="cls-5" x="35.12" y="17.03" width="88.24" height="103.06" rx="2.76"/></g></g></svg>