<?xml version="1.0" encoding="UTF-8"?>
<svg id="_Слой_2" data-name="Слой 2" xmlns="http://www.w3.org/2000/svg" viewBox="0 0 241.73 135.74">
  <defs>
    <style>
      .cls-1 {
        fill: #e2eaff;
      }

      .cls-2 {
        fill: #00a6c2;
      }

      .cls-3 {
        fill: #00ccef;
      }

      .cls-4 {
        fill: #fff;
      }

      .cls-5 {
        fill: #2ce4ff;
      }

      .cls-6 {
        opacity: .1;
      }

      .cls-7 {
        opacity: .28;
      }
    </style>
  </defs>
  <g id="_Слой_1-2" data-name="Слой 1">
    <g>
      <path class="cls-4" d="M0,0h213.93c15.34,0,27.8,12.45,27.8,27.8v80.15c0,15.34-12.45,27.8-27.8,27.8H0V0h0Z"/>
      <g>
        <g>
          <polygon class="cls-2" points="119.51 35.33 145.97 36.18 139.25 62.04 119.51 35.33"/>
          <polygon class="cls-3" points="145.97 36.18 169.15 63.01 139.25 62.04 145.97 36.18"/>
          <polygon class="cls-2" points="139.25 62.04 169.15 63.01 117.18 107.54 139.25 62.04"/>
          <polygon class="cls-2" points="119.51 35.32 93.05 34.47 98.09 60.71 119.51 35.32"/>
          <polygon class="cls-3" points="93.05 34.47 68.19 59.74 98.09 60.71 93.05 34.47"/>
          <polygon class="cls-2" points="98.09 60.71 68.19 59.74 117.18 107.53 98.09 60.71"/>
          <polygon class="cls-3" points="117.18 107.53 139.25 62.04 98.09 60.71 117.18 107.53"/>
          <polygon class="cls-5" points="119.51 35.32 98.09 60.71 139.25 62.04 119.51 35.32"/>
          <g class="cls-7">
            <polygon points="119.52 35.32 145.98 36.18 139.25 62.04 119.52 35.32"/>
            <polygon points="145.98 36.18 169.15 63.01 139.25 62.04 145.98 36.18"/>
            <polygon points="139.25 62.04 169.15 63.01 117.18 107.54 139.25 62.04"/>
            <polygon points="119.52 35.32 93.06 34.46 98.1 60.71 119.52 35.32"/>
            <polygon points="93.06 34.46 68.2 59.74 98.1 60.71 93.06 34.46"/>
            <polygon points="98.1 60.71 68.2 59.74 117.18 107.53 98.1 60.71"/>
            <polygon points="117.18 107.53 139.25 62.04 98.1 60.71 117.18 107.53"/>
            <polygon points="119.52 35.32 98.1 60.71 139.25 62.04 119.52 35.32"/>
            <rect x="91.5" y="52.17" width="21.93" height="6.68" rx="3.02" ry="3.02" transform="translate(-6.04 98.03) rotate(-49.85)"/>
          </g>
        </g>
        <g>
          <polygon class="cls-2" points="159.29 71.5 180.58 71.5 175.84 92.46 159.29 71.5"/>
          <polygon class="cls-3" points="180.58 71.5 199.9 92.46 175.84 92.46 180.58 71.5"/>
          <polygon class="cls-2" points="175.84 92.46 199.9 92.46 159.29 129.6 175.84 92.46"/>
          <polygon class="cls-2" points="159.29 71.5 138 71.5 142.73 92.46 159.29 71.5"/>
          <polygon class="cls-3" points="138 71.5 118.67 92.46 142.73 92.46 138 71.5"/>
          <polygon class="cls-2" points="142.73 92.46 118.67 92.46 159.29 129.6 142.73 92.46"/>
          <polygon class="cls-3" points="159.29 129.6 175.84 92.46 142.73 92.46 159.29 129.6"/>
          <polygon class="cls-5" points="159.29 71.5 142.73 92.46 175.84 92.46 159.29 71.5"/>
          <rect class="cls-1" x="137.29" y="85.48" width="17.64" height="5.37" rx="2.43" ry="2.43" transform="translate(-13.64 148.17) rotate(-51.7)"/>
        </g>
        <g class="cls-6">
          <polygon points="159.28 71.5 180.57 71.5 175.84 92.46 159.28 71.5"/>
          <polygon points="180.57 71.5 199.9 92.46 175.84 92.46 180.57 71.5"/>
          <polygon points="175.84 92.46 199.9 92.46 159.28 129.6 175.84 92.46"/>
          <polygon points="159.28 71.49 137.99 71.49 142.73 92.45 159.28 71.49"/>
          <polygon points="137.99 71.49 118.67 92.45 142.73 92.45 137.99 71.49"/>
          <polygon points="142.73 92.45 118.67 92.45 159.28 129.59 142.73 92.45"/>
          <polygon points="159.28 129.59 175.84 92.45 142.73 92.45 159.28 129.59"/>
          <polygon points="159.28 71.49 142.73 92.45 175.84 92.45 159.28 71.49"/>
          <rect x="137.28" y="85.48" width="17.64" height="5.37" rx="2.43" ry="2.43" transform="translate(-13.64 148.17) rotate(-51.7)"/>
        </g>
        <g>
          <polygon class="cls-2" points="167.8 11.52 180.53 12.33 176.89 24.68 167.8 11.52"/>
          <polygon class="cls-3" points="180.53 12.33 191.27 25.6 176.89 24.68 180.53 12.33"/>
          <polygon class="cls-2" points="176.89 24.68 191.27 25.6 165.58 46.24 176.89 24.68"/>
          <polygon class="cls-2" points="167.8 11.52 155.08 10.7 157.11 23.41 167.8 11.52"/>
          <polygon class="cls-3" points="155.08 10.7 142.73 22.48 157.11 23.41 155.08 10.7"/>
          <polygon class="cls-2" points="157.11 23.41 142.73 22.48 165.58 46.24 157.11 23.41"/>
          <polygon class="cls-3" points="165.58 46.24 176.89 24.68 157.11 23.41 165.58 46.24"/>
          <polygon class="cls-5" points="167.8 11.52 157.11 23.41 176.89 24.68 167.8 11.52"/>
          <rect class="cls-1" x="154.01" y="19.36" width="10.56" height="3.22" rx="1.45" ry="1.45" transform="translate(37.16 125.37) rotate(-48.02)"/>
        </g>
        <g>
          <polygon class="cls-2" points="68.88 60.72 88.48 52.39 92.32 73.53 68.88 60.72"/>
          <polygon class="cls-3" points="88.48 52.39 114.46 64.12 92.32 73.53 88.48 52.39"/>
          <polygon class="cls-2" points="92.32 73.53 114.46 64.12 91.61 114.19 92.32 73.53"/>
          <polygon class="cls-2" points="68.88 60.71 49.29 69.04 61.85 86.48 68.88 60.71"/>
          <polygon class="cls-3" points="49.29 69.04 39.71 95.89 61.85 86.48 49.29 69.04"/>
          <polygon class="cls-2" points="61.85 86.48 39.71 95.89 91.61 114.18 61.85 86.48"/>
          <polygon class="cls-3" points="91.61 114.18 92.32 73.53 61.85 86.48 91.61 114.18"/>
          <polygon class="cls-5" points="68.88 60.71 61.85 86.48 92.32 73.53 68.88 60.71"/>
          <rect class="cls-1" x="54.45" y="78.53" width="17.64" height="5.37" rx="2.43" ry="2.43" transform="translate(-31.74 120.86) rotate(-74.73)"/>
        </g>
        <g>
          <polygon class="cls-2" points="73.06 11.21 82 6.14 85.01 16.07 73.06 11.21"/>
          <polygon class="cls-3" points="82 6.14 95.11 10.34 85.01 16.07 82 6.14"/>
          <polygon class="cls-2" points="85.01 16.07 95.11 10.34 86.9 35.61 85.01 16.07"/>
          <polygon class="cls-2" points="73.06 11.21 64.12 16.28 71.1 23.95 73.06 11.21"/>
          <polygon class="cls-3" points="64.12 16.28 61 29.68 71.1 23.95 64.12 16.28"/>
          <polygon class="cls-2" points="71.1 23.95 61 29.68 86.9 35.6 71.1 23.95"/>
          <polygon class="cls-3" points="86.9 35.6 85.01 16.06 71.1 23.95 86.9 35.6"/>
          <polygon class="cls-5" points="73.06 11.21 71.1 23.95 85.01 16.06 73.06 11.21"/>
          <rect class="cls-1" x="67.24" y="20.05" width="8.51" height="2.59" rx=".66" ry=".66" transform="translate(39.53 88.77) rotate(-81.25)"/>
        </g>
        <g>
          <polygon class="cls-2" points="111.8 12.79 117.94 12.59 116.76 18.68 111.8 12.79"/>
          <polygon class="cls-3" points="117.94 12.59 123.7 18.46 116.76 18.68 117.94 12.59"/>
          <polygon class="cls-2" points="116.76 18.68 123.7 18.46 112.33 29.54 116.76 18.68"/>
          <polygon class="cls-2" points="111.8 12.78 105.66 12.98 107.21 18.98 111.8 12.78"/>
          <polygon class="cls-3" points="105.66 12.98 100.27 19.2 107.21 18.98 105.66 12.98"/>
          <polygon class="cls-2" points="107.21 18.98 100.27 19.2 112.33 29.54 107.21 18.98"/>
          <polygon class="cls-3" points="112.33 29.54 116.76 18.68 107.21 18.98 112.33 29.54"/>
          <polygon class="cls-5" points="111.8 12.78 107.21 18.98 116.76 18.68 111.8 12.78"/>
          <rect class="cls-1" x="105.6" y="16.94" width="5.09" height="1.55" rx=".49" ry=".49" transform="translate(29.59 94.12) rotate(-53.51)"/>
        </g>
      </g>
    </g>
  </g>
</svg>