<?xml version="1.0" encoding="UTF-8"?>
<svg id="_Слой_2" data-name="Слой 2" xmlns="http://www.w3.org/2000/svg" viewBox="0 0 241.73 135.74">
  <defs>
    <style>
      .cls-1 {
        opacity: .12;
      }

      .cls-1, .cls-2, .cls-3 {
        fill: #fff;
      }

      .cls-4 {
        fill: #ce972c;
      }

      .cls-5 {
        fill: #ffc533;
      }

      .cls-6 {
        fill: #d2a12b;
      }

      .cls-7, .cls-3 {
        opacity: .3;
      }

      .cls-7, .cls-8 {
        fill: #f1ba31;
      }

      .cls-9 {
        fill: #ffd373;
      }

      .cls-10 {
        fill: #4c9350;
      }

      .cls-11 {
        fill: #e2a92e;
      }

      .cls-12 {
        fill: #42c352;
      }

      .cls-13 {
        fill: #be882b;
      }
    </style>
  </defs>
  <g id="_Слой_1-2" data-name="Слой 1">
    <g>
      <path class="cls-2" d="M0,0h213.93c15.34,0,27.8,12.45,27.8,27.8v80.15c0,15.34-12.45,27.8-27.8,27.8H0V0h0Z"/>
      <g>
        <rect class="cls-12" x="47.26" y="19.47" width="137.73" height="81.54" rx="8.23" ry="8.23"/>
        <circle class="cls-10" cx="116.12" cy="60.25" r="22.95"/>
        <circle class="cls-2" cx="116.14" cy="60.24" r="10.45"/>
        <path class="cls-10" d="M177.93,19.48h-14.5v4.4c0,9.47,7.68,17.15,17.15,17.15h4.4v-14.5c0-3.9-3.16-7.05-7.05-7.05Z"/>
        <path class="cls-10" d="M184.98,93.96v-14.5h-4.4c-9.47,0-17.15,7.68-17.15,17.15v4.4h14.5c3.9,0,7.05-3.16,7.05-7.05Z"/>
        <path class="cls-10" d="M54.35,101.01h14.46v-4.36c0-9.47-7.68-17.15-17.15-17.15h-4.36v14.46c0,3.9,3.16,7.05,7.05,7.05Z"/>
        <path class="cls-10" d="M47.26,26.5v14.5h4.4c9.47,0,17.15-7.68,17.15-17.15v-4.4h-14.5c-3.9,0-7.05,3.16-7.05,7.05Z"/>
        <rect class="cls-10" x="47.23" y="40.75" width="4.53" height="38.94"/>
        <rect class="cls-10" x="180.46" y="41.03" width="4.53" height="38.94"/>
        <rect class="cls-10" x="114.65" y="-27.16" width="4.53" height="97.78" transform="translate(95.19 138.65) rotate(-90)"/>
        <rect class="cls-10" x="114.65" y="49.86" width="4.53" height="97.78" transform="translate(18.17 215.66) rotate(-90)"/>
      </g>
      <g>
        <g>
          <path class="cls-13" d="M116.57,111.62c.07,1.07-.16,2.14-.68,3.17-2.73,5.5-13.29,10.22-28.39,11.92-.3.04-.59.07-.88.1-2.38.25-4.77.41-7.14.49-.1,0-.19,0-.29.01-2.36.07-4.71.06-7.03-.03h-.03c-2.24-.08-4.44-.23-6.59-.45h-.03c-.84-.08-1.69-.17-2.51-.28-2.23-.28-4.39-.65-6.45-1.08h-.02c-9-1.88-16.11-5.04-19.24-9.06-.58-.74-.99-1.48-1.26-2.22-.21-.58-.34-1.16-.37-1.74-.1-1.51.41-3,1.45-4.42.58-.8,1.33-1.58,2.23-2.31.56-.46,1.17-.91,1.84-1.34,2.25-1.47,5.14-2.79,8.58-3.92h.01c.81-.27,1.67-.53,2.55-.77h.01c3.66-1.03,7.83-1.81,12.41-2.33.34-.04.69-.07,1.03-.1,1.13-.13,2.26-.23,3.4-.29,1.12-.08,2.25-.14,3.37-.18,1.84-.06,3.68-.09,5.5-.06h.01c1.08.02,2.15.05,3.21.11h.02c1.22.05,2.43.13,3.62.23.91.08,1.81.15,2.7.27,2.08.21,4.1.51,6.04.86.12.03.26.04.38.07,1.68.32,3.3.66,4.85,1.07.26.07.52.13.76.2,1.66.45,3.23.94,4.7,1.47,2.15.79,4.08,1.66,5.73,2.63,1.23.71,2.31,1.47,3.21,2.27.48.42.92.86,1.3,1.31.14.14.26.3.38.45,1.02,1.31,1.55,2.65,1.63,3.95Z"/>
          <g>
            <path class="cls-5" d="M116.01,102.72v.08c.1,1.51-.4,3.01-1.45,4.43-.33.45-.71.88-1.13,1.31-4.21,4.24-13.27,7.71-25.4,9.22-.36.04-.72.09-1.09.13-.3.04-.59.07-.88.1h-.08c-2.34.25-4.68.41-7.01.48h-.06c-2.36.07-4.72.08-7.04,0h-.12s-.01,0-.01,0h-.18c-3.13-.12-6.2-.37-9.14-.75-.04,0-.08,0-.12-.02-9.61-1.24-17.86-3.86-22.7-7.4-.99-.73-1.83-1.48-2.52-2.28-.13-.15-.25-.31-.37-.46-1.02-1.31-1.55-2.63-1.63-3.95,0-.09-.01-.18,0-.27-.12-6.66,11.34-12.84,29.08-14.82,6.8-.77,13.7-.83,20.15-.29,3.18.26,6.24.66,9.12,1.2,1.95.37,3.83.79,5.61,1.26,1.66.45,3.23.95,4.7,1.49,4.86,1.76,8.59,4.03,10.63,6.66,1,1.29,1.52,2.59,1.62,3.87Z"/>
            <g>
              <path class="cls-6" d="M67.24,94.35l2.65-.3c.56-.06.89-.29.72-.5l-.78-1c-.16-.21-.76-.33-1.32-.27l-2.65.3c-.56.06-.89.29-.72.5l.78,1c.16.21.76.33,1.32.27Z"/>
              <path class="cls-6" d="M78.52,93.84l2.72.17c.58.04,1.13-.11,1.22-.33l.45-1.03c.1-.22-.3-.43-.88-.46l-2.72-.17c-.58-.04-1.13.11-1.22.33l-.45,1.03c-.1.22.3.43.88.46Z"/>
              <path class="cls-6" d="M89.25,95.23l2.26.6c.48.13,1.15.08,1.48-.1l1.59-.86c.34-.18.22-.43-.26-.56l-2.26-.6c-.48-.13-1.15-.08-1.48.1l-1.59.86c-.34.18-.22.43.26.56Z"/>
              <path class="cls-6" d="M97.3,98.25l1.35.91c.29.19.94.26,1.45.15l2.41-.51c.51-.11.7-.36.41-.55l-1.35-.91c-.29-.19-.94-.26-1.45-.15l-2.41.51c-.51.11-.7.36-.41.55Z"/>
              <path class="cls-6" d="M101.08,102.3l.17,1.04c.04.22.54.39,1.13.38l2.75-.07c.58-.01,1.03-.21,1-.43l-.17-1.04c-.04-.22-.54-.39-1.13-.38l-2.75.07c-.58.01-1.03.21-1,.43Z"/>
              <path class="cls-6" d="M99.83,106.57l-1.04.97c-.22.21.04.44.58.52l2.55.39c.54.08,1.17-.02,1.39-.22l1.04-.97c.22-.21-.04-.44-.58-.52l-2.55-.39c-.54-.08-1.17.02-1.39.22Z"/>
              <path class="cls-6" d="M93.82,110.23l-2.05.7c-.43.15-.47.4-.08.57l1.85.77c.39.16,1.07.18,1.5.03l2.05-.7c.43-.15.47-.4.08-.57l-1.85-.77c-.39-.16-1.07-.18-1.5-.03Z"/>
              <path class="cls-6" d="M84.22,112.54l-2.65.3c-.56.06-.89.29-.72.5l.78,1c.16.21.76.33,1.32.27l2.65-.3c.56-.06.89-.29.72-.5l-.78-1c-.16-.21-.76-.33-1.32-.27Z"/>
              <path class="cls-6" d="M72.94,113.04l-2.72-.17c-.58-.04-1.13.11-1.22.33l-.45,1.03c-.1.22.3.43.88.46l2.72.17c.58.04,1.13-.11,1.22-.33l.45-1.03c.1-.22-.3-.43-.88-.46Z"/>
              <path class="cls-6" d="M62.21,111.65l-2.26-.6c-.48-.13-1.15-.08-1.48.1l-1.59.86c-.34.18-.22.43.26.56l2.26.6c.48.13,1.15.08,1.48-.1l1.59-.86c.34-.18.22-.43-.26-.56Z"/>
              <path class="cls-6" d="M54.16,108.63l-1.35-.91c-.29-.19-.94-.26-1.45-.15l-2.41.51c-.51.11-.7.36-.41.55l1.35.91c.29.19.94.26,1.45.15l2.41-.51c.51-.11.7-.36.41-.55Z"/>
              <path class="cls-6" d="M50.38,104.59l-.17-1.04c-.04-.22-.54-.39-1.13-.38l-2.75.07c-.58.01-1.03.21-1,.43l.17,1.04c.04.22.54.39,1.13.38l2.75-.07c.58-.01,1.03-.21,1-.43Z"/>
              <path class="cls-6" d="M51.62,100.31l1.04-.97c.22-.21-.04-.44-.58-.52l-2.55-.39c-.54-.08-1.17.02-1.39.22l-1.04.97c-.22.21.04.44.58.52l2.55.39c.54.08,1.17-.02,1.39-.22Z"/>
              <path class="cls-6" d="M57.64,96.66l2.05-.7c.43-.15.47-.4.08-.57l-1.85-.77c-.39-.16-1.07-.18-1.5-.03l-2.05.7c-.43.15-.47.4-.08.57l1.85.77c.39.16,1.07.18,1.5.03Z"/>
              <path class="cls-6" d="M67.24,94.35l2.65-.3c.56-.06.89-.29.72-.5l-.78-1c-.16-.21-.76-.33-1.32-.27l-2.65.3c-.56.06-.89.29-.72.5l.78,1c.16.21.76.33,1.32.27Z"/>
            </g>
            <g>
              <path class="cls-6" d="M85.82,102.89c-1.16-.38-2.64-.63-4.41-.77-1.42-.11-3.06-.18-4.93-.24-.47-.01-.95-.02-1.45-.03-.79-.03-1.5-.05-2.15-.08-.36-.02-.7-.04-1.02-.05-.87-.05-1.57-.14-2.09-.28-.51-.14-.9-.36-1.13-.66-.27-.35-.28-.64,0-.88.27-.24.69-.44,1.29-.6.28-.07.58-.14.89-.19l-1.96-2.52c-1.63.25-3,.59-4.11,1.01-1.42.54-2.37,1.18-2.83,1.91-.46.73-.36,1.53.31,2.4.56.72,1.37,1.27,2.45,1.65,1.07.38,2.42.64,4.03.8,1.62.15,3.58.27,5.89.33.18,0,.37,0,.55,0,1.15.03,2.14.05,2.98.07.21,0,.42.01.61.03.7.04,1.28.11,1.76.2.6.13,1.03.35,1.29.69.35.46.2.85-.46,1.17-.21.11-.47.2-.76.29l2.05,2.65c2.34-.4,4.07-.97,5.22-1.72,1.47-.96,1.7-2.09.69-3.39-.62-.8-1.51-1.38-2.68-1.76ZM67.16,106.76l-.92,2.5c2.1.55,4.4.89,6.88,1.02,2.11.1,4.2.07,6.26-.11l-1.97-2.54c-1.31.1-2.74.1-4.27,0-1.84-.12-3.83-.41-5.98-.87ZM76.34,96.2c-1.42-.07-2.83-.05-4.25.04l2,2.58c.67,0,1.35,0,2.05.06,1.48.1,3.12.34,4.94.73l1.25-2.51c-1.98-.5-3.97-.79-5.99-.89Z"/>
              <path class="cls-6" d="M72.09,96.23l2,2.58c-.74,0-1.46.05-2.15.13-.4.04-.78.1-1.13.17l-1.96-2.52c.46-.07.95-.14,1.46-.19.6-.07,1.19-.12,1.78-.16Z"/>
              <path class="cls-6" d="M71.46,95.42l.63.82c-.6.03-1.19.09-1.78.16-.51.06-1,.12-1.46.19l-.62-.8,3.23-.36Z"/>
              <path class="cls-6" d="M80.54,107.12l2.05,2.65c-.66.11-1.37.21-2.13.3-.36.04-.71.08-1.07.11l-1.97-2.54c.27-.02.54-.04.8-.07.94-.11,1.71-.25,2.32-.43Z"/>
              <path class="cls-6" d="M82.59,109.77l.64.83-3.23.36-.61-.79c.36-.03.71-.07,1.07-.11.76-.09,1.47-.19,2.13-.3Z"/>
            </g>
            <path class="cls-3" d="M93.44,89.44l-1.64,2.21-1.86,2.5-.78,1.05-5.35,7.2-2.25,3.05-1.3,1.74-1.55,2.09-.73.97-4.44,5.99-1.65,2.21h-.12s-.01,0-.01,0h-.18c-3.13-.12-6.2-.37-9.14-.75l1.62-2.17,4.32-5.82,1.79-2.42,2.02-2.73,1.14-1.53.92-1.23,2.18-2.93,1.87-2.54,1.8-2.42,1.33-1.8,1.28-1.73,1.61-2.17c3.18.26,6.24.66,9.12,1.2Z"/>
            <path class="cls-3" d="M103.76,92.19l-1.77,2.58-1.64,2.39-1.45,2.11-3.82,5.56-7.26,10.57-.59.86-1.11,1.61-.07.11h-.08c-2.34.25-4.68.41-7.01.48h-.06s1.71-2.34,1.71-2.34l1.19-1.66,1.32-1.81,2.65-3.67,2.93-4.03,8.64-11.92,1.7-2.35c1.66.45,3.23.95,4.7,1.49Z"/>
          </g>
          <path class="cls-13" d="M37.09,108.03c-1.04,1.42-1.54,2.9-1.45,4.42l-.55-8.82c.08,1.31.61,2.64,1.63,3.95.12.15.24.31.37.46Z"/>
          <path class="cls-11" d="M116.01,102.79l.55,8.82c-.08-1.3-.61-2.64-1.63-3.95-.12-.15-.24-.31-.38-.45,1.05-1.42,1.55-2.92,1.46-4.43Z"/>
          <path class="cls-1" d="M71.88,118.47l-6.35,8.36h-.03c-.84-.08-1.69-.17-2.51-.28-2.23-.28-4.39-.65-6.45-1.08l5.9-7.75s-.04,0,0,0c2.94.38,6.01.63,9.14.74h.31Z"/>
          <path class="cls-1" d="M86.06,117.98l-6.87,9.32c-2.36.07-4.71.06-7.03-.03l6.76-8.81c2.33-.08,4.8-.25,7.14-.49Z"/>
        </g>
        <g>
          <path class="cls-4" d="M122.46,103.87c.02.26.02.52-.02.77,0,.08,0,.18-.02.28-.06.5-.18.99-.36,1.49-.08.22-.18.42-.28.63-.71,1.45-1.98,2.84-3.73,4.13-.48.36-.97.69-1.51,1.01-4.14,2.6-10.27,4.72-17.87,6.01-1.71.3-3.47.56-5.3.75-.3.04-.6.08-.87.1-2.4.26-4.78.42-7.14.5-.1.02-.2,0-.3.02h-.18c-.67.02-1.35.02-2.02.02-1.61.04-3.21,0-4.78-.06h-.08c-2.24-.08-4.44-.22-6.58-.46l-.04.02c-.85-.1-1.69-.18-2.52-.3-2.22-.28-4.36-.65-6.43-1.07h-.04c-6.7-1.41-12.38-3.51-16.1-6.17-1.29-.91-2.34-1.86-3.13-2.9-.2-.26-.4-.54-.54-.79-.32-.48-.56-.95-.73-1.43-.08-.2-.14-.4-.18-.61-.1-.38-.18-.75-.2-1.13,0-.18-.02-.36,0-.54.06-1.31.56-2.62,1.45-3.87.6-.79,1.33-1.59,2.24-2.32.56-.46,1.17-.91,1.82-1.35.08-.06.16-.1.24-.14,0,0,.02-.02.04-.02,1.01-.65,2.14-1.27,3.39-1.84,1.37-.63,2.86-1.21,4.46-1.74.16-.06.3-.1.46-.16h.02c.81-.28,1.67-.54,2.54-.77h.02c3.65-1.03,7.81-1.8,12.41-2.34.3-.04.6-.06.89-.06.02,0,.04-.02.06-.02h.08c1.13-.14,2.26-.24,3.39-.3,1.11-.08,2.24-.14,3.37-.18h.02c.38-.02.77-.02,1.15-.04,1.41-.04,2.82-.06,4.2-.02h.32c.99.02,2,.04,2.97.1h.08c1.21.06,2.42.14,3.61.24.87.08,1.73.16,2.58.26.04,0,.08.02.12.02.06,0,.14.02.2.02.48.04.93.1,1.39.16,1.53.18,3.01.42,4.46.67.1.02.22.04.32.04.02.02.04.02.06.02.3.06.58.12.87.18,1.37.26,2.7.56,3.99.89.18.06.36.1.54.14.08.02.16.04.22.06,1.53.42,2.97.87,4.32,1.37h.02c.12.04.24.08.36.12,1.86.67,3.57,1.43,5.08,2.26.22.12.44.24.65.36.95.56,1.8,1.11,2.56,1.74.24.16.46.34.65.54.48.42.91.85,1.31,1.31.14.14.26.3.38.46,1.01,1.31,1.55,2.64,1.63,3.95Z"/>
          <g>
            <path class="cls-8" d="M121.9,94.96v.08c.1,1.51-.4,3.01-1.45,4.43-.33.45-.71.88-1.13,1.31-4.21,4.24-13.27,7.71-25.4,9.22-.36.04-.72.09-1.09.13-.3.04-.59.07-.88.1h-.08c-2.34.25-4.68.41-7.01.48h-.06c-2.36.07-4.72.08-7.04,0h-.12s-.01,0-.01,0h-.18c-3.13-.12-6.2-.37-9.14-.75-.04,0-.08,0-.12-.02-9.61-1.24-17.86-3.86-22.7-7.4-.99-.73-1.83-1.48-2.52-2.28-.13-.15-.25-.31-.37-.46-1.02-1.31-1.55-2.63-1.63-3.95,0-.09-.01-.18,0-.27-.12-6.66,11.34-12.84,29.08-14.82,6.8-.77,13.7-.83,20.15-.29,3.18.26,6.24.66,9.12,1.2,1.95.37,3.83.79,5.61,1.26,1.66.45,3.23.95,4.7,1.49,4.86,1.76,8.59,4.03,10.63,6.66,1,1.29,1.52,2.59,1.62,3.87Z"/>
            <g>
              <path class="cls-8" d="M73.13,86.59l2.65-.3c.56-.06.89-.29.72-.5l-.78-1c-.16-.21-.76-.33-1.32-.27l-2.65.3c-.56.06-.89.29-.72.5l.78,1c.16.21.76.33,1.32.27Z"/>
              <path class="cls-8" d="M84.41,86.08l2.72.17c.58.04,1.13-.11,1.22-.33l.45-1.03c.1-.22-.3-.43-.88-.46l-2.72-.17c-.58-.04-1.13.11-1.22.33l-.45,1.03c-.1.22.3.43.88.46Z"/>
              <path class="cls-8" d="M95.14,87.47l2.26.6c.48.13,1.15.08,1.48-.1l1.59-.86c.34-.18.22-.43-.26-.56l-2.26-.6c-.48-.13-1.15-.08-1.48.1l-1.59.86c-.34.18-.22.43.26.56Z"/>
              <path class="cls-8" d="M103.19,90.49l1.35.91c.29.19.94.26,1.45.15l2.41-.51c.51-.11.7-.36.41-.55l-1.35-.91c-.29-.19-.94-.26-1.45-.15l-2.41.51c-.51.11-.7.36-.41.55Z"/>
              <path class="cls-8" d="M106.97,94.54l.17,1.04c.04.22.54.39,1.13.38l2.75-.07c.58-.01,1.03-.21,1-.43l-.17-1.04c-.04-.22-.54-.39-1.13-.38l-2.75.07c-.58.01-1.03.21-1,.43Z"/>
              <path class="cls-8" d="M105.73,98.81l-1.04.97c-.22.21.04.44.58.52l2.55.39c.54.08,1.17-.02,1.39-.22l1.04-.97c.22-.21-.04-.44-.58-.52l-2.55-.39c-.54-.08-1.17.02-1.39.22Z"/>
              <path class="cls-8" d="M99.71,102.47l-2.05.7c-.43.15-.47.4-.08.57l1.85.77c.39.16,1.07.18,1.5.03l2.05-.7c.43-.15.47-.4.08-.57l-1.85-.77c-.39-.16-1.07-.18-1.5-.03Z"/>
              <path class="cls-8" d="M90.11,104.78l-2.65.3c-.56.06-.89.29-.72.5l.78,1c.16.21.76.33,1.32.27l2.65-.3c.56-.06.89-.29.72-.5l-.78-1c-.16-.21-.76-.33-1.32-.27Z"/>
              <path class="cls-8" d="M78.83,105.29l-2.72-.17c-.58-.04-1.13.11-1.22.33l-.45,1.03c-.1.22.3.43.88.46l2.72.17c.58.04,1.13-.11,1.22-.33l.45-1.03c.1-.22-.3-.43-.88-.46Z"/>
              <path class="cls-8" d="M68.1,103.89l-2.26-.6c-.48-.13-1.15-.08-1.48.1l-1.59.86c-.34.18-.22.43.26.56l2.26.6c.48.13,1.15.08,1.48-.1l1.59-.86c.34-.18.22-.43-.26-.56Z"/>
              <path class="cls-8" d="M60.05,100.87l-1.35-.91c-.29-.19-.94-.26-1.45-.15l-2.41.51c-.51.11-.7.36-.41.55l1.35.91c.29.19.94.26,1.45.15l2.41-.51c.51-.11.7-.36.41-.55Z"/>
              <path class="cls-8" d="M56.27,96.83l-.17-1.04c-.04-.22-.54-.39-1.13-.38l-2.75.07c-.58.01-1.03.21-1,.43l.17,1.04c.04.22.54.39,1.13.38l2.75-.07c.58-.01,1.03-.21,1-.43Z"/>
              <path class="cls-8" d="M57.51,92.55l1.04-.97c.22-.21-.04-.44-.58-.52l-2.55-.39c-.54-.08-1.17.02-1.39.22l-1.04.97c-.22.21.04.44.58.52l2.55.39c.54.08,1.17-.02,1.39-.22Z"/>
              <path class="cls-8" d="M63.53,88.9l2.05-.7c.43-.15.47-.4.08-.57l-1.85-.77c-.39-.16-1.07-.18-1.5-.03l-2.05.7c-.43.15-.47.4-.08.57l1.85.77c.39.16,1.07.18,1.5.03Z"/>
              <path class="cls-8" d="M73.13,86.59l2.65-.3c.56-.06.89-.29.72-.5l-.78-1c-.16-.21-.76-.33-1.32-.27l-2.65.3c-.56.06-.89.29-.72.5l.78,1c.16.21.76.33,1.32.27Z"/>
            </g>
            <g>
              <path class="cls-8" d="M91.71,95.13c-1.16-.38-2.64-.63-4.41-.77-1.42-.11-3.06-.18-4.93-.24-.47-.01-.95-.02-1.45-.03-.79-.03-1.5-.05-2.15-.08-.36-.02-.7-.04-1.02-.05-.87-.05-1.57-.14-2.09-.28-.51-.14-.9-.36-1.13-.66-.27-.35-.28-.64,0-.88.27-.24.69-.44,1.29-.6.28-.07.58-.14.89-.19l-1.96-2.52c-1.63.25-3,.59-4.11,1.01-1.42.54-2.37,1.18-2.83,1.91-.46.73-.36,1.53.31,2.4.56.72,1.37,1.27,2.45,1.65,1.07.38,2.42.64,4.03.8,1.62.15,3.58.27,5.89.33.18,0,.37,0,.55,0,1.15.03,2.14.05,2.98.07.21,0,.42.01.61.03.7.04,1.28.11,1.76.2.6.13,1.03.35,1.29.69.35.46.2.85-.46,1.17-.21.11-.47.2-.76.29l2.05,2.65c2.34-.4,4.07-.97,5.22-1.72,1.47-.96,1.7-2.09.69-3.39-.62-.8-1.51-1.38-2.68-1.76ZM73.05,99l-.92,2.5c2.1.55,4.4.89,6.88,1.02,2.11.1,4.2.07,6.26-.11l-1.97-2.54c-1.31.1-2.74.1-4.27,0-1.84-.12-3.83-.41-5.98-.87ZM82.23,88.44c-1.42-.07-2.83-.05-4.25.04l2,2.58c.67,0,1.35,0,2.05.06,1.48.1,3.12.34,4.94.73l1.25-2.51c-1.98-.5-3.97-.79-5.99-.89Z"/>
              <path class="cls-8" d="M77.99,88.48l2,2.58c-.74,0-1.46.05-2.15.13-.4.04-.78.1-1.13.17l-1.96-2.52c.46-.07.95-.14,1.46-.19.6-.07,1.19-.12,1.78-.16Z"/>
              <path class="cls-8" d="M77.35,87.66l.63.82c-.6.03-1.19.09-1.78.16-.51.06-1,.12-1.46.19l-.62-.8,3.23-.36Z"/>
              <path class="cls-8" d="M86.43,99.36l2.05,2.65c-.66.11-1.37.21-2.13.3-.36.04-.71.08-1.07.11l-1.97-2.54c.27-.02.54-.04.8-.07.94-.11,1.71-.25,2.32-.43Z"/>
              <path class="cls-8" d="M88.48,102.01l.64.83-3.23.36-.61-.79c.36-.03.71-.07,1.07-.11.76-.09,1.47-.19,2.13-.3Z"/>
            </g>
            <path class="cls-7" d="M99.33,81.68l-1.64,2.21-1.86,2.5-.78,1.05-5.35,7.2-2.25,3.05-1.3,1.74-1.55,2.09-.73.97-4.44,5.99-1.65,2.21h-.12s-.01,0-.01,0h-.18c-3.13-.12-6.2-.37-9.14-.75l1.62-2.17,4.32-5.82,1.79-2.42,2.02-2.73,1.14-1.53.92-1.23,2.18-2.93,1.87-2.54,1.8-2.42,1.33-1.8,1.28-1.73,1.61-2.17c3.18.26,6.24.66,9.12,1.2Z"/>
            <path class="cls-7" d="M109.65,84.43l-1.77,2.58-1.64,2.39-1.45,2.11-3.82,5.56-7.26,10.57-.59.86-1.11,1.61-.07.11h-.08c-2.34.25-4.68.41-7.01.48h-.06s1.71-2.34,1.71-2.34l1.19-1.66,1.32-1.81,2.65-3.67,2.93-4.03,8.64-11.92,1.7-2.35c1.66.45,3.23.95,4.7,1.49Z"/>
          </g>
          <path class="cls-4" d="M42.98,100.27c-1.04,1.42-1.54,2.9-1.45,4.42l-.55-8.82c.08,1.31.61,2.64,1.63,3.95.12.15.24.31.37.46Z"/>
          <path class="cls-11" d="M121.9,95.03l.55,8.82c-.08-1.3-.61-2.64-1.63-3.95-.12-.15-.24-.31-.38-.45,1.05-1.42,1.55-2.92,1.46-4.43Z"/>
          <path class="cls-1" d="M77.77,110.71l-6.35,8.36h-.03c-.84-.08-1.69-.17-2.51-.28-2.23-.28-4.39-.65-6.45-1.08l5.9-7.75s-.04,0,0,0c2.94.38,6.01.63,9.14.74h.31Z"/>
          <path class="cls-1" d="M91.95,110.22l-6.87,9.32c-2.36.07-4.71.06-7.03-.03l6.76-8.81c2.33-.08,4.8-.25,7.14-.49Z"/>
        </g>
        <g>
          <path class="cls-11" d="M128.25,96.37c.06,1.07-.18,2.14-.69,3.17-.89,1.8-2.64,3.53-5.12,5.1-.16.08-.32.18-.48.28-.85.52-1.8,1.01-2.82,1.49-.87.42-1.82.81-2.84,1.19-.38.14-.75.28-1.13.4-.59.24-1.23.44-1.86.61-4.05,1.27-8.83,2.26-14.16,2.86-.3.04-.59.08-.87.1-.48.04-.95.1-1.43.12-.73.08-1.47.14-2.2.18-.61.04-1.25.08-1.86.1-.56.04-1.09.06-1.65.08-.1.02-.18.02-.28.02h-.28c-.16,0-.3.02-.46,0-2.12.06-4.22.06-6.31-.02h-.02c-.08,0-.14,0-.22-.02-2.16-.08-4.3-.22-6.39-.44h-.08s-.08-.02-.12-.02c-.79-.08-1.59-.16-2.34-.26-2.22-.3-4.4-.65-6.47-1.09h-.02s-.02,0-.04-.02c-.04,0-.06,0-.1-.02-1.13-.22-2.22-.48-3.27-.75-.04-.02-.08-.02-.12-.02-.65-.18-1.29-.36-1.9-.56-2.82-.81-5.33-1.8-7.52-2.94-.63-.3-1.23-.63-1.8-.99-1.9-1.13-3.41-2.4-4.48-3.77-.08-.12-.18-.22-.24-.34-.16-.2-.28-.38-.4-.58-.24-.4-.44-.79-.58-1.19-.02-.04-.02-.06-.04-.1-.22-.6-.34-1.17-.38-1.75,0-.12-.02-.24-.02-.38,0-.12,0-.26.02-.38.08-1.27.58-2.5,1.45-3.67.34-.48.73-.93,1.21-1.41.3-.3.65-.61,1.01-.91.56-.46,1.17-.89,1.84-1.33,2.24-1.47,5.14-2.8,8.59-3.93.81-.26,1.67-.54,2.56-.77,3.67-1.01,7.83-1.8,12.41-2.32.3-.04.61-.08.91-.08.04,0,.08-.02.12-.02,1.13-.14,2.26-.24,3.39-.3,1.13-.08,2.26-.14,3.37-.18h.02c1.76-.06,3.53-.08,5.28-.06h.22c1.09.02,2.14.04,3.21.12.02-.02.04,0,.04,0,1.23.04,2.42.12,3.59.22.83.08,1.69.14,2.5.26.06,0,.14,0,.2.02h.02c1.73.16,3.41.42,5.04.69.34.04.65.1.99.16.14.04.26.04.38.08,1.69.32,3.31.65,4.86,1.07.26.06.52.12.77.2,1.65.44,3.21.93,4.7,1.47,2.14.79,4.07,1.67,5.73,2.64,0,0,.02,0,.02.02.6.34,1.17.69,1.69,1.07.54.38,1.05.77,1.51,1.17.48.42.91.87,1.29,1.31.14.14.26.3.38.46,1.03,1.31,1.55,2.64,1.65,3.95Z"/>
          <g>
            <path class="cls-5" d="M127.68,87.47v.08c.1,1.51-.4,3.01-1.45,4.43-.33.45-.71.88-1.13,1.31-4.21,4.24-13.27,7.71-25.4,9.22-.36.04-.72.09-1.09.13-.3.04-.59.07-.88.1h-.08c-2.34.25-4.68.41-7.01.48h-.06c-2.36.07-4.72.08-7.04,0h-.12s-.01,0-.01,0h-.18c-3.13-.12-6.2-.37-9.14-.75-.04,0-.08,0-.12-.02-9.61-1.24-17.86-3.86-22.7-7.4-.99-.73-1.83-1.48-2.52-2.28-.13-.15-.25-.31-.37-.46-1.02-1.31-1.55-2.63-1.63-3.95,0-.09-.01-.18,0-.27-.12-6.66,11.34-12.84,29.08-14.82,6.8-.77,13.7-.83,20.15-.29,3.18.26,6.24.66,9.12,1.2,1.95.37,3.83.79,5.61,1.26,1.66.45,3.23.95,4.7,1.49,4.86,1.76,8.59,4.03,10.63,6.66,1,1.29,1.52,2.59,1.62,3.87Z"/>
            <path class="cls-9" d="M54.09,91.68c5.36,6.92,24.54,10.86,42.84,8.8,18.3-2.06,28.78-9.33,23.42-16.25-5.36-6.92-24.54-10.86-42.84-8.8-18.3,2.06-28.78,9.33-23.42,16.25Z"/>
            <g>
              <path class="cls-6" d="M78.91,79.1l2.65-.3c.56-.06.89-.29.72-.5l-.78-1c-.16-.21-.76-.33-1.32-.27l-2.65.3c-.56.06-.89.29-.72.5l.78,1c.16.21.76.33,1.32.27Z"/>
              <path class="cls-6" d="M90.19,78.59l2.72.17c.58.04,1.13-.11,1.22-.33l.45-1.03c.1-.22-.3-.43-.88-.46l-2.72-.17c-.58-.04-1.13.11-1.22.33l-.45,1.03c-.1.22.3.43.88.46Z"/>
              <path class="cls-6" d="M100.92,79.98l2.26.6c.48.13,1.15.08,1.48-.1l1.59-.86c.34-.18.22-.43-.26-.56l-2.26-.6c-.48-.13-1.15-.08-1.48.1l-1.59.86c-.34.18-.22.43.26.56Z"/>
              <path class="cls-6" d="M108.97,83l1.35.91c.29.19.94.26,1.45.15l2.41-.51c.51-.11.7-.36.41-.55l-1.35-.91c-.29-.19-.94-.26-1.45-.15l-2.41.51c-.51.11-.7.36-.41.55Z"/>
              <path class="cls-6" d="M112.75,87.05l.17,1.04c.04.22.54.39,1.13.38l2.75-.07c.58-.01,1.03-.21,1-.43l-.17-1.04c-.04-.22-.54-.39-1.13-.38l-2.75.07c-.58.01-1.03.21-1,.43Z"/>
              <path class="cls-6" d="M111.51,91.32l-1.04.97c-.22.21.04.44.58.52l2.55.39c.54.08,1.17-.02,1.39-.22l1.04-.97c.22-.21-.04-.44-.58-.52l-2.55-.39c-.54-.08-1.17.02-1.39.22Z"/>
              <path class="cls-6" d="M105.49,94.98l-2.05.7c-.43.15-.47.4-.08.57l1.85.77c.39.16,1.07.18,1.5.03l2.05-.7c.43-.15.47-.4.08-.57l-1.85-.77c-.39-.16-1.07-.18-1.5-.03Z"/>
              <path class="cls-6" d="M95.89,97.29l-2.65.3c-.56.06-.89.29-.72.5l.78,1c.16.21.76.33,1.32.27l2.65-.3c.56-.06.89-.29.72-.5l-.78-1c-.16-.21-.76-.33-1.32-.27Z"/>
              <path class="cls-6" d="M84.61,97.8l-2.72-.17c-.58-.04-1.13.11-1.22.33l-.45,1.03c-.1.22.3.43.88.46l2.72.17c.58.04,1.13-.11,1.22-.33l.45-1.03c.1-.22-.3-.43-.88-.46Z"/>
              <path class="cls-6" d="M73.88,96.4l-2.26-.6c-.48-.13-1.15-.08-1.48.1l-1.59.86c-.34.18-.22.43.26.56l2.26.6c.48.13,1.15.08,1.48-.1l1.59-.86c.34-.18.22-.43-.26-.56Z"/>
              <path class="cls-6" d="M65.83,93.38l-1.35-.91c-.29-.19-.94-.26-1.45-.15l-2.41.51c-.51.11-.7.36-.41.55l1.35.91c.29.19.94.26,1.45.15l2.41-.51c.51-.11.7-.36.41-.55Z"/>
              <path class="cls-6" d="M62.05,89.34l-.17-1.04c-.04-.22-.54-.39-1.13-.38l-2.75.07c-.58.01-1.03.21-1,.43l.17,1.04c.04.22.54.39,1.13.38l2.75-.07c.58-.01,1.03-.21,1-.43Z"/>
              <path class="cls-6" d="M63.29,85.06l1.04-.97c.22-.21-.04-.44-.58-.52l-2.55-.39c-.54-.08-1.17.02-1.39.22l-1.04.97c-.22.21.04.44.58.52l2.55.39c.54.08,1.17-.02,1.39-.22Z"/>
              <path class="cls-6" d="M69.31,81.41l2.05-.7c.43-.15.47-.4.08-.57l-1.85-.77c-.39-.16-1.07-.18-1.5-.03l-2.05.7c-.43.15-.47.4-.08.57l1.85.77c.39.16,1.07.18,1.5.03Z"/>
              <path class="cls-6" d="M78.91,79.1l2.65-.3c.56-.06.89-.29.72-.5l-.78-1c-.16-.21-.76-.33-1.32-.27l-2.65.3c-.56.06-.89.29-.72.5l.78,1c.16.21.76.33,1.32.27Z"/>
            </g>
            <g>
              <path class="cls-6" d="M97.49,87.64c-1.16-.38-2.64-.63-4.41-.77-1.42-.11-3.06-.18-4.93-.24-.47-.01-.95-.02-1.45-.03-.79-.03-1.5-.05-2.15-.08-.36-.02-.7-.04-1.02-.05-.87-.05-1.57-.14-2.09-.28-.51-.14-.9-.36-1.13-.66-.27-.35-.28-.64,0-.88.27-.24.69-.44,1.29-.6.28-.07.58-.14.89-.19l-1.96-2.52c-1.63.25-3,.59-4.11,1.01-1.42.54-2.37,1.18-2.83,1.91-.46.73-.36,1.53.31,2.4.56.72,1.37,1.27,2.45,1.65,1.07.38,2.42.64,4.03.8,1.62.15,3.58.27,5.89.33.18,0,.37,0,.55,0,1.15.03,2.14.05,2.98.07.21,0,.42.01.61.03.7.04,1.28.11,1.76.2.6.13,1.03.35,1.29.69.35.46.2.85-.46,1.17-.21.11-.47.2-.76.29l2.05,2.65c2.34-.4,4.07-.97,5.22-1.72,1.47-.96,1.7-2.09.69-3.39-.62-.8-1.51-1.38-2.68-1.76ZM78.83,91.51l-.92,2.5c2.1.55,4.4.89,6.88,1.02,2.11.1,4.2.07,6.26-.11l-1.97-2.54c-1.31.1-2.74.1-4.27,0-1.84-.12-3.83-.41-5.98-.87ZM88.01,80.95c-1.42-.07-2.83-.05-4.25.04l2,2.58c.67,0,1.35,0,2.05.06,1.48.1,3.12.34,4.94.73l1.25-2.51c-1.98-.5-3.97-.79-5.99-.89Z"/>
              <path class="cls-6" d="M83.77,80.99l2,2.58c-.74,0-1.46.05-2.15.13-.4.04-.78.1-1.13.17l-1.96-2.52c.46-.07.95-.14,1.46-.19.6-.07,1.19-.12,1.78-.16Z"/>
              <path class="cls-6" d="M83.13,80.17l.63.82c-.6.03-1.19.09-1.78.16-.51.06-1,.12-1.46.19l-.62-.8,3.23-.36Z"/>
              <path class="cls-6" d="M92.21,91.87l2.05,2.65c-.66.11-1.37.21-2.13.3-.36.04-.71.08-1.07.11l-1.97-2.54c.27-.02.54-.04.8-.07.94-.11,1.71-.25,2.32-.43Z"/>
              <path class="cls-6" d="M94.26,94.52l.64.83-3.23.36-.61-.79c.36-.03.71-.07,1.07-.11.76-.09,1.47-.19,2.13-.3Z"/>
            </g>
            <path class="cls-3" d="M105.12,74.19l-1.64,2.21-1.86,2.5-.78,1.05-5.35,7.2-2.25,3.05-1.3,1.74-1.55,2.09-.73.97-4.44,5.99-1.65,2.21h-.12s-.01,0-.01,0h-.18c-3.13-.12-6.2-.37-9.14-.75l1.62-2.17,4.32-5.82,1.79-2.42,2.02-2.73,1.14-1.53.92-1.23,2.18-2.93,1.87-2.54,1.8-2.42,1.33-1.8,1.28-1.73,1.61-2.17c3.18.26,6.24.66,9.12,1.2Z"/>
            <path class="cls-3" d="M115.43,76.94l-1.77,2.58-1.64,2.39-1.45,2.11-3.82,5.56-7.26,10.57-.59.86-1.11,1.61-.07.11h-.08c-2.34.25-4.68.41-7.01.48h-.06s1.71-2.34,1.71-2.34l1.19-1.66,1.32-1.81,2.65-3.67,2.93-4.03,8.64-11.92,1.7-2.35c1.66.45,3.23.95,4.7,1.49Z"/>
          </g>
          <path class="cls-11" d="M48.76,92.78c-1.04,1.42-1.54,2.9-1.45,4.42l-.55-8.82c.08,1.31.61,2.64,1.63,3.95.12.15.24.31.37.46Z"/>
          <path class="cls-11" d="M128.25,96.37c-.1-1.31-.61-2.64-1.65-3.95-.12-.16-.24-.32-.38-.46.73-.97,1.19-2,1.37-3.03.1-.46.12-.93.1-1.39l.08,1.37.48,7.46Z"/>
          <path class="cls-1" d="M83.55,103.22l-6.35,8.36h-.03c-.84-.08-1.69-.17-2.51-.28-2.23-.28-4.39-.65-6.45-1.08l5.9-7.75s-.04,0,0,0c2.94.38,6.01.63,9.14.74h.31Z"/>
          <path class="cls-1" d="M97.73,102.73l-6.87,9.32c-2.36.07-4.71.06-7.03-.03l6.76-8.81c2.33-.08,4.8-.25,7.14-.49Z"/>
        </g>
      </g>
      <g>
        <path class="cls-11" d="M120.08,73.78c-.75.77-1.28,1.73-1.56,2.86-1.54,5.96,3.38,16.48,13.75,27.68.2.22.4.44.6.65,1.65,1.75,3.35,3.44,5.1,5.06.07.07.14.13.21.2,1.75,1.6,3.54,3.14,5.35,4.59l.02.02c1.75,1.41,3.52,2.74,5.3,3.98l.02.02c.7.49,1.4.97,2.1,1.43,1.88,1.25,3.76,2.39,5.61,3.42l.02.02c8.07,4.48,15.55,6.74,20.56,5.74.92-.18,1.72-.47,2.41-.86.54-.3,1.02-.66,1.43-1.08,1.06-1.09,1.66-2.55,1.8-4.3.08-.98.03-2.07-.18-3.22-.12-.72-.29-1.46-.51-2.23-.75-2.59-2.07-5.49-3.95-8.6h0c-.44-.75-.92-1.51-1.43-2.26h0c-2.11-3.19-4.76-6.52-7.9-9.92-.23-.25-.48-.51-.72-.75-.77-.84-1.57-1.65-2.39-2.45-.8-.8-1.62-1.58-2.44-2.35-1.36-1.26-2.74-2.48-4.13-3.65h0c-.84-.7-1.66-1.38-2.51-2.03l-.02-.02c-.96-.76-1.93-1.49-2.9-2.2-.74-.54-1.48-1.07-2.23-1.57-1.72-1.21-3.45-2.3-5.15-3.31-.11-.06-.22-.14-.33-.2-1.48-.86-2.94-1.66-4.39-2.37-.24-.12-.48-.24-.71-.35-1.56-.75-3.07-1.41-4.54-1.96-2.15-.81-4.19-1.41-6.08-1.76-1.4-.27-2.72-.4-3.93-.39-.64,0-1.26.05-1.85.14-.2.01-.39.05-.58.09-1.63.32-2.91,1-3.83,1.93Z"/>
        <g>
          <path class="cls-5" d="M126.34,67.39l-.05.05c-1.06,1.09-1.67,2.55-1.8,4.32-.04.55-.04,1.13,0,1.74.41,5.98,5.02,14.56,13.24,23.67.25.27.49.54.74.81.2.22.4.44.6.65l.05.06c1.62,1.72,3.29,3.38,5.01,4.96l.04.04c1.75,1.6,3.54,3.16,5.34,4.62l.09.08h0s.14.12.14.12c2.45,1.97,4.94,3.79,7.43,5.43.04.02.06.05.1.07,8.12,5.36,16.1,8.79,22.1,9.28,1.23.09,2.36.07,3.41-.08.2-.03.39-.07.59-.11,1.63-.32,2.9-.99,3.83-1.93.06-.06.12-.13.18-.2,4.46-4.98-.19-17.19-12.36-30.34-4.66-5.04-9.86-9.62-15.12-13.44-2.58-1.89-5.17-3.59-7.71-5.08-1.72-.99-3.42-1.91-5.09-2.73-1.56-.75-3.08-1.4-4.55-1.96-4.85-1.85-9.17-2.58-12.44-1.91-1.6.32-2.85.97-3.77,1.87Z"/>
          <path class="cls-9" d="M179.46,118.87c-8.61,1.73-25.76-7.86-38.31-21.42-12.55-13.57-15.74-25.97-7.13-27.7,8.61-1.73,25.76,7.86,38.31,21.42,12.55,13.57,15.74,25.97,7.13,27.7Z"/>
          <g>
            <path class="cls-6" d="M168.87,93.03l-1.82-1.96c-.38-.42-.48-.8-.22-.85l1.25-.25c.26-.05.8.24,1.18.66l1.82,1.96c.38.42.48.8.22.85l-1.25.25c-.26.05-.8-.24-1.18-.66Z"/>
            <path class="cls-6" d="M160.64,85.24l-2.18-1.66c-.46-.35-.78-.83-.71-1.06l.33-1.08c.07-.23.51-.13.97.22l2.18,1.66c.46.35.78.83.71,1.06l-.33,1.08c-.07.23-.51.13-.97-.22Z"/>
            <path class="cls-6" d="M151.58,79.26l-2.11-1.03c-.45-.22-.92-.69-1.06-1.05l-.64-1.69c-.14-.36.12-.47.56-.26l2.11,1.03c.45.22.92.69,1.06,1.05l.64,1.69c.14.36-.12.47-.56.26Z"/>
            <path class="cls-6" d="M143.48,76.27l-1.62-.19c-.34-.04-.88-.42-1.2-.83l-1.49-1.97c-.32-.42-.29-.73.05-.69l1.62.19c.34.04.88.42,1.2.83l1.49,1.97c.32.42.29.73-.05.69Z"/>
            <path class="cls-6" d="M137.96,76.87l-.81.68c-.17.14-.67-.06-1.1-.45l-2.05-1.86c-.43-.39-.65-.83-.48-.98l.81-.68c.17-.14.67.06,1.1.45l2.05,1.86c.43.39.65.83.48.98Z"/>
            <path class="cls-6" d="M136.1,80.93l.16,1.42c.03.3-.32.31-.79.02l-2.2-1.38c-.47-.29-.87-.78-.91-1.08l-.16-1.42c-.03-.3.32-.31.79-.02l2.2,1.38c.47.29.87.78.91,1.08Z"/>
            <path class="cls-6" d="M138.27,87.65l1.1,1.88c.23.4.09.62-.31.48l-1.91-.63c-.41-.13-.93-.57-1.16-.97l-1.1-1.88c-.23-.4-.09-.62.31-.48l1.91.63c.41.13.93.57,1.16.97Z"/>
            <path class="cls-6" d="M144.04,95.7l1.82,1.96c.38.42.48.8.22.85l-1.25.25c-.26.05-.8-.24-1.18-.66l-1.82-1.96c-.38-.42-.48-.8-.22-.85l1.25-.25c.26-.05.8.24,1.18.66Z"/>
            <path class="cls-6" d="M152.28,103.49l2.18,1.66c.46.35.78.83.71,1.06l-.33,1.08c-.07.23-.51.13-.97-.22l-2.18-1.66c-.46-.35-.78-.83-.71-1.06l.33-1.08c.07-.23.51-.13.97.22Z"/>
            <path class="cls-6" d="M161.34,109.47l2.11,1.03c.45.22.92.69,1.06,1.05l.64,1.69c.14.36-.12.47-.56.26l-2.11-1.03c-.45-.22-.92-.69-1.06-1.05l-.64-1.69c-.14-.36.12-.47.56-.26Z"/>
            <path class="cls-6" d="M169.43,112.46l1.62.19c.34.04.88.42,1.2.83l1.49,1.97c.32.42.29.73-.05.69l-1.62-.19c-.34-.04-.88-.42-1.2-.83l-1.49-1.97c-.32-.42-.29-.73.05-.69Z"/>
            <path class="cls-6" d="M174.96,111.87l.81-.68c.17-.14.67.06,1.1.45l2.05,1.86c.43.39.65.83.48.98l-.81.68c-.17.14-.67-.06-1.1-.45l-2.05-1.86c-.43-.39-.65-.83-.48-.98Z"/>
            <path class="cls-6" d="M176.82,107.81l-.16-1.42c-.03-.3.32-.31.79-.02l2.2,1.38c.47.29.87.78.91,1.08l.16,1.42c.03.3-.32.31-.79.02l-2.2-1.38c-.47-.29-.87-.78-.91-1.08Z"/>
            <path class="cls-6" d="M174.65,101.08l-1.1-1.88c-.23-.4-.09-.62.31-.48l1.91.63c.41.13.93.57,1.16.97l1.1,1.88c.23.4.09.62-.31.48l-1.91-.63c-.41-.13-.93-.57-1.16-.97Z"/>
            <path class="cls-6" d="M168.87,93.03l-1.82-1.96c-.38-.42-.48-.8-.22-.85l1.25-.25c.26-.05.8.24,1.18.66l1.82,1.96c.38.42.48.8.22.85l-1.25.25c-.26.05-.8-.24-1.18-.66Z"/>
          </g>
          <g>
            <path class="cls-6" d="M145.97,86.91c-1.62.33-2.19,1.34-1.7,3.03.37,1.32,1.32,2.89,2.83,4.73l3.29-.66c-.17-.26-.3-.5-.39-.72-.29-.68-.15-1.08.41-1.19.42-.08.89.02,1.43.32.42.24.91.57,1.47,1,.15.12.32.24.48.38.65.53,1.42,1.17,2.31,1.9.14.12.28.24.42.36,1.79,1.46,3.36,2.66,4.69,3.61,1.32.94,2.52,1.62,3.58,2.04,1.06.42,2.05.53,2.94.35,1.08-.22,1.68-.76,1.81-1.62.13-.86-.17-1.96-.89-3.31-.57-1.05-1.39-2.21-2.46-3.46l-3.14.63c.2.25.38.49.55.73.35.51.54.94.59,1.3.05.35-.15.58-.58.66-.37.07-.81,0-1.29-.24-.49-.23-1.08-.62-1.77-1.16-.25-.19-.53-.41-.81-.63-.51-.4-1.06-.85-1.68-1.35-.39-.32-.76-.63-1.13-.93-1.46-1.18-2.76-2.2-3.9-3.05-1.44-1.06-2.73-1.84-3.86-2.31-1.13-.48-2.19-.62-3.19-.42ZM155.67,99.25c-1.23-.93-2.32-1.87-3.25-2.81l-3.17.64c1.45,1.49,3.01,2.88,4.68,4.19,1.97,1.54,3.94,2.79,5.9,3.74l.95-2.5c-1.93-1.06-3.63-2.15-5.12-3.26ZM155.61,85.2l-.7,2.73c1.63.9,3.04,1.79,4.23,2.69.57.43,1.09.86,1.6,1.3l3.21-.65c-1.01-1-2.07-1.94-3.2-2.82-1.59-1.25-3.3-2.34-5.13-3.26Z"/>
            <path class="cls-6" d="M163.95,91.28l-3.21.65c.56.49,1.08.99,1.55,1.51.27.3.53.59.75.87l3.14-.63c-.3-.36-.63-.73-.98-1.1-.41-.44-.82-.87-1.25-1.29Z"/>
            <path class="cls-6" d="M164.96,91.07l-1.02.21c.43.42.84.85,1.25,1.29.35.38.68.75.98,1.1l1-.2-2.22-2.4Z"/>
            <path class="cls-6" d="M150.39,94.01l-3.29.66c.43.52.9,1.06,1.42,1.62.25.27.49.52.74.78l3.17-.64c-.19-.19-.38-.39-.56-.58-.64-.7-1.14-1.31-1.48-1.85Z"/>
            <path class="cls-6" d="M147.1,94.67l-1.03.21,2.22,2.4.98-.2c-.25-.26-.49-.52-.74-.78-.52-.57-1-1.11-1.42-1.62Z"/>
          </g>
          <path class="cls-3" d="M152.19,72.11l-.21,2.76-.22,3.12-.1,1.31-.66,8.97-.29,3.79-.15,2.18-.2,2.6-.08,1.22-.56,7.46-.2,2.76.09.08h0s.14.12.14.12c2.45,1.97,4.94,3.79,7.43,5.43l.2-2.71.54-7.25.22-3.01.26-3.39.13-1.91.11-1.54.27-3.66.24-3.16.22-3.02.16-2.24.16-2.15.2-2.71c-2.58-1.89-5.17-3.59-7.71-5.08Z"/>
          <path class="cls-3" d="M142.56,67.43l-.35,3.12-.32,2.89-.28,2.55-.75,6.73-1.43,12.79-.12,1.04-.21,1.96-.02.13.05.06c1.62,1.72,3.29,3.38,5.01,4.96l.04.04.24-2.9.18-2.04.18-2.24.39-4.52.42-4.98,1.26-14.72.25-2.89c-1.56-.75-3.08-1.4-4.55-1.96Z"/>
        </g>
        <path class="cls-11" d="M182.79,123.2c-.14,1.76-.73,3.22-1.8,4.3l6.21-6.34c-.92.94-2.19,1.6-3.83,1.93-.19.04-.39.08-.59.11Z"/>
        <path class="cls-11" d="M126.29,67.44l-6.21,6.34c.91-.93,2.19-1.6,3.83-1.93.19-.04.39-.08.58-.09.13-1.76.74-3.23,1.8-4.32Z"/>
        <path class="cls-1" d="M149.52,108.3l-.66,10.51.02.02c.7.49,1.4.97,2.1,1.43,1.88,1.25,3.76,2.39,5.61,3.42l.6-9.75s.04.02,0,0c-2.48-1.64-4.97-3.46-7.43-5.43l-.24-.19Z"/>
        <path class="cls-1" d="M139.07,98.63l-.9,11.59c1.75,1.6,3.54,3.14,5.35,4.59l.65-11.12c-1.72-1.59-3.49-3.34-5.1-5.06Z"/>
      </g>
    </g>
  </g>
</svg>