<?xml version="1.0" encoding="UTF-8"?>
<svg id="_Слой_2" data-name="Слой 2" xmlns="http://www.w3.org/2000/svg" viewBox="0 0 241.73 135.74">
  <defs>
    <style>
      .cls-1, .cls-2 {
        fill: #fff;
      }

      .cls-3 {
        opacity: .17;
      }

      .cls-4 {
        opacity: .25;
      }

      .cls-5, .cls-2 {
        stroke: #000;
        stroke-miterlimit: 10;
        stroke-width: 1.55px;
      }

      .cls-6 {
        fill: #4c9350;
      }

      .cls-7 {
        fill: #42c352;
      }
    </style>
  </defs>
  <g id="_Слой_1-2" data-name="Слой 1">
    <g>
      <path class="cls-1" d="M0,0h213.93c15.34,0,27.8,12.45,27.8,27.8v80.15c0,15.34-12.45,27.8-27.8,27.8H0V0h0Z"/>
      <g>
        <g>
          <g>
            <path class="cls-6" d="M150.08,71.27v12.97c0,3.62-2.93,6.55-6.55,6.55h-11.25v-4.19h-2.19c.07-8.72,7.07-15.74,15.79-15.81v.48h4.21Z"/>
            <path class="cls-6" d="M150.08,70.79v.48h-4.21v-.48h4.21Z"/>
            <path class="cls-6" d="M150.08,35.12v35.67h-4.21v-35.67h4.21Z"/>
            <path class="cls-6" d="M150.08,21.68v13.44h-4.21c-8.72-.07-15.72-7.09-15.79-15.81h2.19v-4.19h11.25c3.62,0,6.55,2.93,6.55,6.55Z"/>
            <path class="cls-7" d="M145.87,35.12v35.67c-8.72.07-15.72,7.09-15.79,15.81H42.26c-.09-8.7-7.13-15.7-15.83-15.76v-35.74c8.7-.04,15.76-7.09,15.83-15.79h87.82c.07,8.72,7.07,15.74,15.79,15.81ZM107.47,52.97c0-11.77-9.54-21.32-21.29-21.32s-21.32,9.54-21.32,21.32,9.54,21.29,21.32,21.29,21.29-9.54,21.29-21.29Z"/>
            <path class="cls-6" d="M132.28,86.6v4.19h-2.19v-4.19h2.19Z"/>
            <path class="cls-6" d="M132.28,15.13v4.19h-2.19v-4.19h2.19Z"/>
            <path class="cls-6" d="M132.28,15.11v.02h-2.19v4.19H42.26v-4.21h90.01Z"/>
            <path class="cls-6" d="M130.09,86.6v4.19H42.26v-4.19h87.82Z"/>
            <path class="cls-6" d="M86.18,31.65c11.75,0,21.29,9.54,21.29,21.32s-9.54,21.29-21.29,21.29-21.32-9.54-21.32-21.29,9.54-21.32,21.32-21.32ZM95.89,52.95c0-5.36-4.36-9.69-9.71-9.69s-9.69,4.34-9.69,9.69,4.34,9.69,9.69,9.69,9.71-4.34,9.71-9.69Z"/>
            <path class="cls-1" d="M86.18,43.25c5.36,0,9.71,4.34,9.71,9.69s-4.36,9.69-9.71,9.69-9.69-4.34-9.69-9.69,4.34-9.69,9.69-9.69Z"/>
            <path class="cls-6" d="M42.26,86.75v4.03h-.74v-4.19h.74v.15Z"/>
            <path class="cls-6" d="M42.26,15.11v4.21h-.74v-4.21h.74Z"/>
            <path class="cls-6" d="M42.26,15.09v.02h-.74v4.21h.74c-.07,8.7-7.13,15.74-15.83,15.79v-.24h-4.16v-13.23c0-3.6,2.93-6.55,6.53-6.55h13.47Z"/>
            <path class="cls-6" d="M42.26,86.6h-.74v4.19h-12.69c-3.62,0-6.55-2.93-6.55-6.55v-13.23h4.14v-.17c8.7.07,15.74,7.07,15.83,15.76Z"/>
            <path class="cls-6" d="M26.43,70.84v.17h-4.14v-.17h4.14Z"/>
            <path class="cls-6" d="M26.43,35.1v35.74h-4.14v.17h-.07v-36.15h.04v.24h4.16Z"/>
            <path class="cls-6" d="M26.43,34.86v.24h-4.16v-.24h4.16Z"/>
          </g>
          <rect class="cls-4" x="22.26" y="15.11" width="127.83" height="75.68" rx="6.62" ry="6.62"/>
          <g>
            <rect class="cls-7" x="35.53" y="24.82" width="127.83" height="75.68" rx="6.92" ry="6.92"/>
            <circle class="cls-6" cx="99.44" cy="62.67" r="21.3"/>
            <circle class="cls-1" cx="99.45" cy="62.66" r="9.7"/>
            <path class="cls-6" d="M156.8,24.83h-13.46v4.09c0,8.79,7.13,15.92,15.92,15.92h4.09v-13.46c0-3.62-2.93-6.55-6.55-6.55Z"/>
            <path class="cls-6" d="M163.35,93.95v-13.46h-4.09c-8.79,0-15.92,7.13-15.92,15.92v4.09h13.46c3.62,0,6.55-2.93,6.55-6.55Z"/>
            <path class="cls-6" d="M42.1,100.5h13.42v-4.04c0-8.79-7.13-15.92-15.92-15.92h-4.04v13.42c0,3.62,2.93,6.55,6.55,6.55Z"/>
            <path class="cls-6" d="M35.53,31.35v13.46h4.09c8.79,0,15.92-7.13,15.92-15.92v-4.09h-13.46c-3.62,0-6.55,2.93-6.55,6.55Z"/>
            <rect class="cls-6" x="35.5" y="44.57" width="4.2" height="36.14"/>
            <rect class="cls-6" x="159.15" y="44.83" width="4.2" height="36.14"/>
            <rect class="cls-6" x="98.08" y="-18.46" width="4.2" height="90.75" transform="translate(73.26 127.09) rotate(-90)"/>
            <rect class="cls-6" x="98.08" y="53.02" width="4.2" height="90.75" transform="translate(1.78 198.57) rotate(-90)"/>
          </g>
          <rect class="cls-3" x="35.53" y="24.8" width="127.83" height="75.68" rx="6.6" ry="6.6"/>
          <g>
            <rect class="cls-7" x="48.79" y="34.52" width="127.83" height="75.68" rx="7.64" ry="7.64"/>
            <circle class="cls-6" cx="112.7" cy="72.37" r="21.3"/>
            <circle class="cls-1" cx="112.72" cy="72.36" r="9.7"/>
            <path class="cls-6" d="M170.07,34.53h-13.46v4.09c0,8.79,7.13,15.92,15.92,15.92h4.09v-13.46c0-3.62-2.93-6.55-6.55-6.55Z"/>
            <path class="cls-6" d="M176.62,103.66v-13.46h-4.09c-8.79,0-15.92,7.13-15.92,15.92v4.09h13.46c3.62,0,6.55-2.93,6.55-6.55Z"/>
            <path class="cls-6" d="M55.37,110.2h13.42v-4.04c0-8.79-7.13-15.92-15.92-15.92h-4.04v13.42c0,3.62,2.93,6.55,6.55,6.55Z"/>
            <path class="cls-6" d="M48.79,41.05v13.46h4.09c8.79,0,15.92-7.13,15.92-15.92v-4.09h-13.46c-3.62,0-6.55,2.93-6.55,6.55Z"/>
            <rect class="cls-6" x="48.77" y="54.27" width="4.2" height="36.14"/>
            <rect class="cls-6" x="172.41" y="54.53" width="4.2" height="36.14"/>
            <rect class="cls-6" x="111.34" y="-8.75" width="4.2" height="90.75" transform="translate(76.82 150.06) rotate(-90)"/>
            <rect class="cls-6" x="111.34" y="62.73" width="4.2" height="90.75" transform="translate(5.34 221.54) rotate(-90)"/>
          </g>
        </g>
        <g>
          <path d="M140.28,107.84c-.16.2-.41.51-.7.89-1.61,2.13-2.43,3.21-2.76,4.52-.52,2.07.25,4.34.71,4.34.37,0,.84-1.5,1.37-7.58"/>
          <path d="M194.2,95.3c-.09-.08.78-.77.8-1.87.02-1.04-.73-1.73-.66-1.78.08-.06,1.33.84,1.21,2.02-.1,1.06-1.25,1.71-1.35,1.63Z"/>
          <path d="M137.81,78.6c-.23-.08.1-2.1,1.23-3.82.36-.55,1.08-1.48,1.25-1.38.26.15-.71,2.4-1.72,4.11-.43.74-.66,1.13-.77,1.09Z"/>
          <path d="M169.97,118.91c.07.26,1.75.13,3.18-.39,1.31-.47,2.23-1.19,2.76-1.68-1.44-1.04-2.27-1.03-2.75-.83-.79.32-.84,1.18-2.25,2.21-.6.44-.98.57-.94.69Z"/>
          <path d="M186.63,119.39c.51.85,2.95.23,3.24.15,1.8-.46,2.93-1.55,3.79-2.4.86-.85,2.63-2.6,2.19-3.38-.48-.85-3.56-.37-5.82,1.03-2.11,1.31-3.95,3.68-3.4,4.6Z"/>
          <path d="M214.31,118.44c.15.97,3.93,1.83,6.58.31.9-.52,2.12-1.56,1.89-2.22-.29-.85-2.91-.81-4.82-.29-1.45.39-3.77,1.4-3.65,2.2Z"/>
          <path d="M174.38,116.33c-.29,1.24-1.05,2.58-4.3,2.77-5.16.38-10.8.38-12.33.38-3.06-.1-6.88,0-9.94,0-2.39-.1-5.35-.19-6.12-.19-2.39-.1-4.88-.86-4.88-3.73,0-1.91,1.05-3.44,1.91-4.88,1.15-2.1,4.78-4.59,9.75-8.89,4.4-3.92,10.52-9.18,11.76-13.86,1.72-6.02-3.15-10.71-8.41-9.66-3.44.77-4.02,2.2-5.54,3.92-1.72,1.82-4.78,2.01-6.31,1.05-2.29-1.53-3.06-4.49-1.53-6.79,1.91-3.06,4.3-6.12,12.24-7.17,10.71-1.24,19.5,3.92,20.46,13.77.67,7.17-2.39,12.62-9.08,18.16-2.96,2.39-8.99,7.17-9.46,8.03-.67,1.15,0,2.01.76,2.01,2.68,0,15.2-.19,18.36.19,1.82.29,2.68,1.91,2.77,2.77.09.67.09,1.43-.1,2.1Z"/>
          <path d="M218.36,119.48c-3.25.38-4.88-.38-6.69-2.87-.96-1.34-4.78-7.55-8.6-13.19-.76-1.15-1.34-1.15-2.1.1-2.68,4.88-4.78,8.99-7.93,12.91-2.2,2.68-4.11,4.11-6.98,3.06-2.68-.96-3.35-3.25-2.49-5.93,1.15-3.54,3.92-8.99,8.89-15.39.57-.86,1.43-2.1,2.2-3.15.67-1.05.57-1.91,0-2.77-1.15-1.91-4.02-5.64-6.41-9.08-1.72-2.39-2.1-2.87-3.54-5.55-1.24-2.39-.67-5.93,2.1-6.79,2.58-.77,4.78.38,6.6,2.87,1.82,2.49,5.16,8.51,6.98,11.09.67.86,1.15.86,2.01-.48.76-1.24,1.82-3.35,2.77-4.88.67-1.24,3.25-5.35,4.49-6.69,1.34-1.53,3.82-2.39,5.83-1.53,2.2,1.05,3.06,3.92,1.82,6.5-.96,2.1-3.35,5.74-5.74,9.08-1.34,1.91-2.39,3.54-3.25,4.88-.57,1.05-.77,1.91,0,3.06.76,1.05,1.62,2.39,2.1,2.96,1.62,2.1,2.68,3.35,4.97,6.88,2.3,3.44,3.63,5.83,5.07,8.41,1.34,2.39.1,6.12-2.1,6.5Z"/>
          <path class="cls-2" d="M176,114.94c-.29,1.25-1.06,2.59-4.32,2.78-5.18.38-10.85.38-12.38.38-3.07-.1-6.91,0-9.98,0-2.4-.1-5.38-.19-6.14-.19-2.4-.1-4.9-.86-4.9-3.74,0-1.92,1.06-3.46,1.92-4.9,1.15-2.11,4.8-4.61,9.79-8.93,4.42-3.94,10.56-9.22,11.81-13.92,1.73-6.05-3.17-10.75-8.45-9.7-3.46.77-4.03,2.21-5.57,3.94-1.73,1.82-4.8,2.02-6.34,1.06-2.3-1.54-3.07-4.51-1.54-6.82,1.92-3.07,4.32-6.14,12.29-7.2,10.75-1.25,19.58,3.94,20.54,13.82.67,7.2-2.4,12.67-9.12,18.24-2.98,2.4-9.02,7.2-9.5,8.06-.67,1.15,0,2.02.77,2.02,2.69,0,15.26-.19,18.43.19,1.82.29,2.69,1.92,2.78,2.78.1.67.1,1.44-.1,2.11Z"/>
          <path class="cls-1" d="M176,114.94c-.29,1.25-1.06,2.59-4.32,2.78-5.18.38-10.85.38-12.38.38-3.07-.1-6.91,0-9.98,0-2.4-.1-5.38-.19-6.14-.19-2.4-.1-4.9-.86-4.9-3.74,0-1.92,1.06-3.46,1.92-4.9,1.15-2.11,4.8-4.61,9.79-8.93,4.42-3.94,10.56-9.22,11.81-13.92,1.73-6.05-3.17-10.75-8.45-9.7-3.46.77-4.03,2.21-5.57,3.94-1.73,1.82-4.8,2.02-6.34,1.06-2.3-1.54-3.07-4.51-1.54-6.82,1.92-3.07,4.32-6.14,12.29-7.2,10.75-1.25,19.58,3.94,20.54,13.82.67,7.2-2.4,12.67-9.12,18.24-2.98,2.4-9.02,7.2-9.5,8.06-.67,1.15,0,2.02.77,2.02,2.69,0,15.26-.19,18.43.19,1.82.29,2.69,1.92,2.78,2.78.1.67.1,1.44-.1,2.11Z"/>
          <path class="cls-5" d="M220.16,118.11c-3.26.38-4.9-.38-6.72-2.88-.96-1.34-4.8-7.58-8.64-13.25-.77-1.15-1.34-1.15-2.11.1-2.69,4.9-4.8,9.02-7.97,12.96-2.21,2.69-4.13,4.13-7.01,3.07-2.69-.96-3.36-3.26-2.5-5.95,1.15-3.55,3.94-9.02,8.93-15.45.58-.86,1.44-2.11,2.21-3.17.67-1.06.58-1.92,0-2.78-1.15-1.92-4.03-5.66-6.43-9.12-1.73-2.4-2.11-2.88-3.55-5.57-1.25-2.4-.67-5.95,2.11-6.82,2.59-.77,4.8.38,6.62,2.88,1.82,2.5,5.18,8.54,7.01,11.14.67.86,1.15.86,2.02-.48.77-1.25,1.82-3.36,2.78-4.9.67-1.25,3.26-5.38,4.51-6.72,1.34-1.54,3.84-2.4,5.86-1.54,2.21,1.06,3.07,3.94,1.82,6.53-.96,2.11-3.36,5.76-5.76,9.12-1.34,1.92-2.4,3.55-3.26,4.9-.58,1.06-.77,1.92,0,3.07.77,1.06,1.63,2.4,2.11,2.98,1.63,2.11,2.69,3.36,4.99,6.91,2.3,3.46,3.65,5.86,5.09,8.45,1.34,2.4.1,6.14-2.11,6.53ZM220.16,118.11c-3.26.38-4.9-.38-6.72-2.88-.96-1.34-4.8-7.58-8.64-13.25-.77-1.15-1.34-1.15-2.11.1-2.69,4.9-4.8,9.02-7.97,12.96-2.21,2.69-4.13,4.13-7.01,3.07-2.69-.96-3.36-3.26-2.5-5.95,1.15-3.55,3.94-9.02,8.93-15.45.58-.86,1.44-2.11,2.21-3.17.67-1.06.58-1.92,0-2.78-1.15-1.92-4.03-5.66-6.43-9.12-1.73-2.4-2.11-2.88-3.55-5.57-1.25-2.4-.67-5.95,2.11-6.82,2.59-.77,4.8.38,6.62,2.88,1.82,2.5,5.18,8.54,7.01,11.14.67.86,1.15.86,2.02-.48.77-1.25,1.82-3.36,2.78-4.9.67-1.25,3.26-5.38,4.51-6.72,1.34-1.54,3.84-2.4,5.86-1.54,2.21,1.06,3.07,3.94,1.82,6.53-.96,2.11-3.36,5.76-5.76,9.12-1.34,1.92-2.4,3.55-3.26,4.9-.58,1.06-.77,1.92,0,3.07.77,1.06,1.63,2.4,2.11,2.98,1.63,2.11,2.69,3.36,4.99,6.91,2.3,3.46,3.65,5.86,5.09,8.45,1.34,2.4.1,6.14-2.11,6.53Z"/>
          <path d="M184.29,73.71c-.03-.36.2-.86.67-1.87.31-.67.48-1.04.81-1.47.36-.47,1.08-1.4,1.59-1.31,1.16.21,1.99,5.86.32,6.71-1.06.55-3.28-.8-3.39-2.07Z"/>
          <path class="cls-1" d="M220.16,118.11c-3.26.38-4.9-.38-6.72-2.88-.96-1.34-4.8-7.58-8.64-13.25-.77-1.15-1.34-1.15-2.11.1-2.69,4.9-4.8,9.02-7.97,12.96-2.21,2.69-4.13,4.13-7.01,3.07-2.69-.96-3.36-3.26-2.5-5.95,1.15-3.55,3.94-9.02,8.93-15.45.58-.86,1.44-2.11,2.21-3.17.67-1.06.58-1.92,0-2.78-1.15-1.92-4.03-5.66-6.43-9.12-1.73-2.4-2.11-2.88-3.55-5.57-1.25-2.4-.67-5.95,2.11-6.82,2.59-.77,4.8.38,6.62,2.88,1.82,2.5,5.18,8.54,7.01,11.14.67.86,1.15.86,2.02-.48.77-1.25,1.82-3.36,2.78-4.9.67-1.25,3.26-5.38,4.51-6.72,1.34-1.54,3.84-2.4,5.86-1.54,2.21,1.06,3.07,3.94,1.82,6.53-.96,2.11-3.36,5.76-5.76,9.12-1.34,1.92-2.4,3.55-3.26,4.9-.58,1.06-.77,1.92,0,3.07.77,1.06,1.63,2.4,2.11,2.98,1.63,2.11,2.69,3.36,4.99,6.91,2.3,3.46,3.65,5.86,5.09,8.45,1.34,2.4.1,6.14-2.11,6.53ZM220.16,118.11c-3.26.38-4.9-.38-6.72-2.88-.96-1.34-4.8-7.58-8.64-13.25-.77-1.15-1.34-1.15-2.11.1-2.69,4.9-4.8,9.02-7.97,12.96-2.21,2.69-4.13,4.13-7.01,3.07-2.69-.96-3.36-3.26-2.5-5.95,1.15-3.55,3.94-9.02,8.93-15.45.58-.86,1.44-2.11,2.21-3.17.67-1.06.58-1.92,0-2.78-1.15-1.92-4.03-5.66-6.43-9.12-1.73-2.4-2.11-2.88-3.55-5.57-1.25-2.4-.67-5.95,2.11-6.82,2.59-.77,4.8.38,6.62,2.88,1.82,2.5,5.18,8.54,7.01,11.14.67.86,1.15.86,2.02-.48.77-1.25,1.82-3.36,2.78-4.9.67-1.25,3.26-5.38,4.51-6.72,1.34-1.54,3.84-2.4,5.86-1.54,2.21,1.06,3.07,3.94,1.82,6.53-.96,2.11-3.36,5.76-5.76,9.12-1.34,1.92-2.4,3.55-3.26,4.9-.58,1.06-.77,1.92,0,3.07.77,1.06,1.63,2.4,2.11,2.98,1.63,2.11,2.69,3.36,4.99,6.91,2.3,3.46,3.65,5.86,5.09,8.45,1.34,2.4.1,6.14-2.11,6.53Z"/>
        </g>
      </g>
    </g>
  </g>
</svg>