<svg xmlns="http://www.w3.org/2000/svg" viewBox="0 0 479.49 136.65"><defs><style>.cls-1{fill:#05cc5a;}.cls-2{fill:#02e26b;}.cls-3{fill:#fff;}</style></defs><title>Button_watch_ad</title><g id="Слой_2" data-name="Слой 2"><g id="Слой_1-2" data-name="Слой 1"><rect class="cls-1" y="9.51" width="479.49" height="127.14" rx="27.48"/><rect class="cls-2" width="479.49" height="125.14" rx="27.26"/><rect class="cls-3" x="181.3" y="21.38" width="93.67" height="77.09" rx="4.66"/><ellipse class="cls-2" cx="228.14" cy="59.92" rx="23.5" ry="24.69"/><path class="cls-3" d="M243.29,59.1l-23-14a1,1,0,0,0-1.46.82V73.88a1,1,0,0,0,1.46.82l23-14A1,1,0,0,0,243.29,59.1Z"/><path class="cls-3" d="M298.19,29.54V59.92H268.07V41.54l27.15-13.95A2.07,2.07,0,0,1,298.19,29.54Z"/><path class="cls-3" d="M298.19,90.3V59.92H268.07V78.3l27.15,14A2.07,2.07,0,0,0,298.19,90.3Z"/></g></g></svg>