<?xml version="1.0" encoding="UTF-8"?>
<svg id="_Слой_2" data-name="Слой 2" xmlns="http://www.w3.org/2000/svg" viewBox="0 0 194.84 127.02">
  <defs>
    <style>
      .cls-1 {
        fill: none;
        stroke: #35a2ff;
        stroke-miterlimit: 10;
        stroke-width: 3.93px;
      }
    </style>
  </defs>
  <g id="_Слой_1-2" data-name="Слой 1">
    <g>
      <path class="cls-1" d="M183.35,30.72h-13.06c-5.24,0-9.53,4.29-9.53,9.53v38.33H34.08v-38.33c0-5.24-4.29-9.53-9.53-9.53h-13.06c-5.24,0-9.53,4.29-9.53,9.53v61.24c0,5.24,4.29,9.53,9.53,9.53h171.86c5.24,0,9.53-4.29,9.53-9.53v-61.24c0-5.24-4.29-9.53-9.53-9.53Z"/>
      <path class="cls-1" d="M44.08,51.6h106.69c5.52,0,10,4.48,10,10v17H34.08v-17c0-5.52,4.48-10,10-10Z"/>
      <path class="cls-1" d="M18.02,30.72V11.49c0-5.24,4.29-9.53,9.53-9.53h139.74c5.24,0,9.53,4.29,9.53,9.53v19.23"/>
      <rect class="cls-1" x="13.96" y="111.02" width="8.12" height="14.04" rx="1.44" ry="1.44"/>
      <rect class="cls-1" x="172.76" y="111.02" width="8.12" height="14.04" rx="1.44" ry="1.44"/>
    </g>
  </g>
</svg>