<?xml version="1.0" encoding="UTF-8"?>
<svg id="_Слой_2" data-name="Слой 2" xmlns="http://www.w3.org/2000/svg" viewBox="0 0 164 168.69">
  <defs>
    <style>
      .cls-1 {
        fill: #4db3ff;
      }

      .cls-2 {
        fill: none;
        stroke: #fff;
        stroke-miterlimit: 10;
        stroke-width: 2.07px;
      }

      .cls-3 {
        fill: #257bab;
      }
    </style>
  </defs>
  <g id="_Слой_1-2" data-name="Слой 1">
    <g>
      <g>
        <rect class="cls-3" width="164" height="168.69" rx="8.7" ry="8.7"/>
        <rect class="cls-1" width="164" height="158.55" rx="8.43" ry="8.43"/>
      </g>
      <g>
        <path class="cls-2" d="M39.05,10.59h85.9c2.49,0,4.51,2.02,4.51,4.51v111.51H34.54V15.1c0-2.49,2.02-4.51,4.51-4.51Z"/>
        <rect class="cls-2" x="43.6" y="23.44" width="55.21" height="59.64"/>
        <rect class="cls-2" x="43.6" y="91.66" width="55.21" height="17.77"/>
        <rect class="cls-2" x="104.94" y="32.14" width="14.85" height="29.11"/>
        <path class="cls-2" d="M106.04,73.35h12.64c.61,0,1.1.49,1.1,1.1v9.54h-14.85v-9.54c0-.61.49-1.1,1.1-1.1Z"/>
        <rect class="cls-2" x="49.56" y="36.72" width="43.54" height="4.54"/>
        <rect class="cls-2" x="49.56" y="49.59" width="43.54" height="4.54"/>
        <rect class="cls-2" x="49.56" y="62.47" width="43.54" height="4.54"/>
        <rect class="cls-2" x="49.56" y="75.34" width="43.54" height="4.54"/>
        <rect class="cls-2" x="37.38" y="126.61" width="6.84" height="10.2"/>
        <rect class="cls-2" x="119.78" y="126.61" width="6.84" height="10.2"/>
        <g>
          <rect class="cls-2" x="54.48" y="30.84" width="3.27" height="5.88" rx=".47" ry=".47"/>
          <rect class="cls-2" x="55.32" y="29.56" width="1.59" height="1.22" rx=".15" ry=".15"/>
        </g>
        <g>
          <rect class="cls-2" x="64.7" y="30.84" width="3.27" height="5.88" rx=".47" ry=".47"/>
          <rect class="cls-2" x="65.54" y="29.56" width="1.59" height="1.22" rx=".15" ry=".15"/>
        </g>
        <g>
          <rect class="cls-2" x="74.92" y="30.84" width="3.27" height="5.88" rx=".47" ry=".47"/>
          <rect class="cls-2" x="75.76" y="29.56" width="1.59" height="1.22" rx=".15" ry=".15"/>
        </g>
        <g>
          <rect class="cls-2" x="85.14" y="30.84" width="3.27" height="5.88" rx=".47" ry=".47"/>
          <rect class="cls-2" x="85.98" y="29.56" width="1.59" height="1.22" rx=".15" ry=".15"/>
        </g>
        <g>
          <rect class="cls-2" x="54.48" y="43.72" width="3.27" height="5.88" rx=".47" ry=".47"/>
          <rect class="cls-2" x="55.32" y="42.43" width="1.59" height="1.22" rx=".15" ry=".15"/>
        </g>
        <g>
          <rect class="cls-2" x="64.7" y="43.72" width="3.27" height="5.88" rx=".47" ry=".47"/>
          <rect class="cls-2" x="65.54" y="42.43" width="1.59" height="1.22" rx=".15" ry=".15"/>
        </g>
        <g>
          <rect class="cls-2" x="74.92" y="43.72" width="3.27" height="5.88" rx=".47" ry=".47"/>
          <rect class="cls-2" x="75.76" y="42.43" width="1.59" height="1.22" rx=".15" ry=".15"/>
        </g>
        <g>
          <rect class="cls-2" x="85.14" y="43.72" width="3.27" height="5.88" rx=".47" ry=".47"/>
          <rect class="cls-2" x="85.98" y="42.43" width="1.59" height="1.22" rx=".15" ry=".15"/>
        </g>
        <g>
          <rect class="cls-2" x="54.48" y="56.59" width="3.27" height="5.88" rx=".47" ry=".47"/>
          <rect class="cls-2" x="55.32" y="55.3" width="1.59" height="1.22" rx=".15" ry=".15"/>
        </g>
        <g>
          <rect class="cls-2" x="64.7" y="56.59" width="3.27" height="5.88" rx=".47" ry=".47"/>
          <rect class="cls-2" x="65.54" y="55.3" width="1.59" height="1.22" rx=".15" ry=".15"/>
        </g>
        <g>
          <rect class="cls-2" x="74.92" y="56.59" width="3.27" height="5.88" rx=".47" ry=".47"/>
          <rect class="cls-2" x="75.76" y="55.3" width="1.59" height="1.22" rx=".15" ry=".15"/>
        </g>
        <g>
          <rect class="cls-2" x="85.14" y="56.59" width="3.27" height="5.88" rx=".47" ry=".47"/>
          <rect class="cls-2" x="85.98" y="55.3" width="1.59" height="1.22" rx=".15" ry=".15"/>
        </g>
        <g>
          <rect class="cls-2" x="54.48" y="69.46" width="3.27" height="5.88" rx=".47" ry=".47"/>
          <rect class="cls-2" x="55.32" y="68.18" width="1.59" height="1.22" rx=".15" ry=".15"/>
        </g>
        <g>
          <rect class="cls-2" x="64.7" y="69.46" width="3.27" height="5.88" rx=".47" ry=".47"/>
          <rect class="cls-2" x="65.54" y="68.18" width="1.59" height="1.22" rx=".15" ry=".15"/>
        </g>
        <g>
          <rect class="cls-2" x="74.92" y="69.46" width="3.27" height="5.88" rx=".47" ry=".47"/>
          <rect class="cls-2" x="75.76" y="68.18" width="1.59" height="1.22" rx=".15" ry=".15"/>
        </g>
        <g>
          <rect class="cls-2" x="85.14" y="69.46" width="3.27" height="5.88" rx=".47" ry=".47"/>
          <rect class="cls-2" x="85.98" y="68.18" width="1.59" height="1.22" rx=".15" ry=".15"/>
        </g>
        <g>
          <rect class="cls-2" x="61.62" y="100.25" width="6.28" height="12.07" rx=".94" ry=".94" transform="translate(171.05 41.52) rotate(90)"/>
          <rect class="cls-2" x="70.66" y="105.03" width="3.05" height="2.51" rx=".3" ry=".3" transform="translate(178.47 34.1) rotate(90)"/>
        </g>
        <g>
          <rect class="cls-2" x="76.56" y="97.75" width="6.49" height="11.67" rx=".94" ry=".94"/>
          <rect class="cls-2" x="78.22" y="95.2" width="3.16" height="2.42" rx=".3" ry=".3"/>
        </g>
      </g>
    </g>
  </g>
</svg>