<?xml version="1.0" encoding="UTF-8"?>
<svg id="_Слой_2" data-name="Слой 2" xmlns="http://www.w3.org/2000/svg" viewBox="0 0 144.83 198.04">
  <defs>
    <style>
      .cls-1 {
        fill: none;
        stroke: #35a2ff;
        stroke-miterlimit: 10;
        stroke-width: 3.14px;
      }
    </style>
  </defs>
  <g id="_Слой_1-2" data-name="Слой 1">
    <g>
      <path class="cls-1" d="M8.11,1.57h128.62c3.61,0,6.53,2.93,6.53,6.53v172.61H1.57V8.11c0-3.61,2.93-6.53,6.53-6.53Z"/>
      <rect class="cls-1" x="15.09" y="21.41" width="82.42" height="92.09"/>
      <rect class="cls-1" x="15.09" y="126.75" width="82.42" height="27.43"/>
      <rect class="cls-1" x="106.66" y="34.85" width="22.16" height="44.96"/>
      <path class="cls-1" d="M108.25,98.48h18.96c.88,0,1.6.72,1.6,1.6v14.84h-22.16v-14.84c0-.88.72-1.6,1.6-1.6Z"/>
      <rect class="cls-1" x="23.98" y="41.92" width="64.99" height="7.01"/>
      <rect class="cls-1" x="23.98" y="61.8" width="64.99" height="7.01"/>
      <rect class="cls-1" x="23.98" y="81.67" width="64.99" height="7.01"/>
      <rect class="cls-1" x="23.98" y="101.55" width="64.99" height="7.01"/>
      <rect class="cls-1" x="5.8" y="180.72" width="10.21" height="15.75"/>
      <rect class="cls-1" x="128.82" y="180.72" width="10.21" height="15.75"/>
      <g>
        <rect class="cls-1" x="31.34" y="32.84" width="4.88" height="9.08" rx=".69" ry=".69"/>
        <rect class="cls-1" x="32.59" y="30.86" width="2.37" height="1.88" rx=".22" ry=".22"/>
      </g>
      <g>
        <rect class="cls-1" x="46.59" y="32.84" width="4.88" height="9.08" rx=".69" ry=".69"/>
        <rect class="cls-1" x="47.85" y="30.86" width="2.37" height="1.88" rx=".22" ry=".22"/>
      </g>
      <g>
        <rect class="cls-1" x="61.85" y="32.84" width="4.88" height="9.08" rx=".69" ry=".69"/>
        <rect class="cls-1" x="63.1" y="30.86" width="2.37" height="1.88" rx=".22" ry=".22"/>
      </g>
      <g>
        <rect class="cls-1" x="77.11" y="32.84" width="4.88" height="9.08" rx=".69" ry=".69"/>
        <rect class="cls-1" x="78.36" y="30.86" width="2.37" height="1.88" rx=".22" ry=".22"/>
      </g>
      <g>
        <rect class="cls-1" x="31.34" y="52.72" width="4.88" height="9.08" rx=".69" ry=".69"/>
        <rect class="cls-1" x="32.59" y="50.74" width="2.37" height="1.88" rx=".22" ry=".22"/>
      </g>
      <g>
        <rect class="cls-1" x="46.59" y="52.72" width="4.88" height="9.08" rx=".69" ry=".69"/>
        <rect class="cls-1" x="47.85" y="50.74" width="2.37" height="1.88" rx=".22" ry=".22"/>
      </g>
      <g>
        <rect class="cls-1" x="61.85" y="52.72" width="4.88" height="9.08" rx=".69" ry=".69"/>
        <rect class="cls-1" x="63.1" y="50.74" width="2.37" height="1.88" rx=".22" ry=".22"/>
      </g>
      <g>
        <rect class="cls-1" x="77.11" y="52.72" width="4.88" height="9.08" rx=".69" ry=".69"/>
        <rect class="cls-1" x="78.36" y="50.74" width="2.37" height="1.88" rx=".22" ry=".22"/>
      </g>
      <g>
        <rect class="cls-1" x="31.34" y="72.6" width="4.88" height="9.08" rx=".69" ry=".69"/>
        <rect class="cls-1" x="32.59" y="70.61" width="2.37" height="1.88" rx=".22" ry=".22"/>
      </g>
      <g>
        <rect class="cls-1" x="46.59" y="72.6" width="4.88" height="9.08" rx=".69" ry=".69"/>
        <rect class="cls-1" x="47.85" y="70.61" width="2.37" height="1.88" rx=".22" ry=".22"/>
      </g>
      <g>
        <rect class="cls-1" x="61.85" y="72.6" width="4.88" height="9.08" rx=".69" ry=".69"/>
        <rect class="cls-1" x="63.1" y="70.61" width="2.37" height="1.88" rx=".22" ry=".22"/>
      </g>
      <g>
        <rect class="cls-1" x="77.11" y="72.6" width="4.88" height="9.08" rx=".69" ry=".69"/>
        <rect class="cls-1" x="78.36" y="70.61" width="2.37" height="1.88" rx=".22" ry=".22"/>
      </g>
      <g>
        <rect class="cls-1" x="31.34" y="92.48" width="4.88" height="9.08" rx=".69" ry=".69"/>
        <rect class="cls-1" x="32.59" y="90.49" width="2.37" height="1.88" rx=".22" ry=".22"/>
      </g>
      <g>
        <rect class="cls-1" x="46.59" y="92.48" width="4.88" height="9.08" rx=".69" ry=".69"/>
        <rect class="cls-1" x="47.85" y="90.49" width="2.37" height="1.88" rx=".22" ry=".22"/>
      </g>
      <g>
        <rect class="cls-1" x="61.85" y="92.48" width="4.88" height="9.08" rx=".69" ry=".69"/>
        <rect class="cls-1" x="63.1" y="90.49" width="2.37" height="1.88" rx=".22" ry=".22"/>
      </g>
      <g>
        <rect class="cls-1" x="77.11" y="92.48" width="4.88" height="9.08" rx=".69" ry=".69"/>
        <rect class="cls-1" x="78.36" y="90.49" width="2.37" height="1.88" rx=".22" ry=".22"/>
      </g>
      <g>
        <rect class="cls-1" x="41.84" y="140.32" width="9.69" height="18.02" rx="1.37" ry="1.37" transform="translate(196.02 102.65) rotate(90)"/>
        <rect class="cls-1" x="55.41" y="147.46" width="4.71" height="3.74" rx=".43" ry=".43" transform="translate(207.1 91.57) rotate(90)"/>
      </g>
      <g>
        <rect class="cls-1" x="64.29" y="136.16" width="9.69" height="18.02" rx="1.37" ry="1.37"/>
        <rect class="cls-1" x="66.78" y="132.21" width="4.71" height="3.74" rx=".43" ry=".43"/>
      </g>
    </g>
  </g>
</svg>