<?xml version="1.0" encoding="UTF-8"?>
<svg id="_Слой_2" data-name="Слой 2" xmlns="http://www.w3.org/2000/svg" viewBox="0 0 163.73 168.22">
  <defs>
    <style>
      .cls-1 {
        fill: none;
        stroke: #35a2ff;
        stroke-miterlimit: 10;
        stroke-width: 2.06px;
      }

      .cls-2 {
        fill: #364044;
      }

      .cls-3 {
        fill: #fff;
      }
    </style>
  </defs>
  <g id="_Слой_1-2" data-name="Слой 1">
    <g>
      <g>
        <rect class="cls-2" y="0" width="163.73" height="168.22" rx="8.68" ry="8.68"/>
        <rect class="cls-3" width="163.73" height="158.11" rx="8.41" ry="8.41"/>
      </g>
      <g>
        <path class="cls-1" d="M38.98,10.56h85.76c2.48,0,4.5,2.02,4.5,4.5v111.2H34.49V15.06c0-2.48,2.02-4.5,4.5-4.5Z"/>
        <rect class="cls-1" x="43.53" y="23.38" width="55.12" height="59.48"/>
        <rect class="cls-1" x="43.53" y="91.4" width="55.12" height="17.72"/>
        <rect class="cls-1" x="104.76" y="32.05" width="14.82" height="29.03"/>
        <path class="cls-1" d="M105.86,73.15h12.62c.61,0,1.1.49,1.1,1.1v9.51h-14.82v-9.51c0-.61.49-1.1,1.1-1.1Z"/>
        <rect class="cls-1" x="49.47" y="36.62" width="43.47" height="4.53"/>
        <rect class="cls-1" x="49.47" y="49.46" width="43.47" height="4.53"/>
        <rect class="cls-1" x="49.47" y="62.3" width="43.47" height="4.53"/>
        <rect class="cls-1" x="49.47" y="75.13" width="43.47" height="4.53"/>
        <rect class="cls-1" x="37.32" y="126.26" width="6.83" height="10.17"/>
        <rect class="cls-1" x="119.59" y="126.26" width="6.83" height="10.17"/>
        <g>
          <rect class="cls-1" x="54.39" y="30.76" width="3.26" height="5.86" rx=".47" ry=".47"/>
          <rect class="cls-1" x="55.23" y="29.47" width="1.59" height="1.22" rx=".15" ry=".15"/>
        </g>
        <g>
          <rect class="cls-1" x="64.6" y="30.76" width="3.26" height="5.86" rx=".47" ry=".47"/>
          <rect class="cls-1" x="65.43" y="29.47" width="1.59" height="1.22" rx=".15" ry=".15"/>
        </g>
        <g>
          <rect class="cls-1" x="74.8" y="30.76" width="3.26" height="5.86" rx=".47" ry=".47"/>
          <rect class="cls-1" x="75.64" y="29.47" width="1.59" height="1.22" rx=".15" ry=".15"/>
        </g>
        <g>
          <rect class="cls-1" x="85" y="30.76" width="3.26" height="5.86" rx=".47" ry=".47"/>
          <rect class="cls-1" x="85.84" y="29.47" width="1.59" height="1.22" rx=".15" ry=".15"/>
        </g>
        <g>
          <rect class="cls-1" x="54.39" y="43.6" width="3.26" height="5.86" rx=".47" ry=".47"/>
          <rect class="cls-1" x="55.23" y="42.31" width="1.59" height="1.22" rx=".15" ry=".15"/>
        </g>
        <g>
          <rect class="cls-1" x="64.6" y="43.6" width="3.26" height="5.86" rx=".47" ry=".47"/>
          <rect class="cls-1" x="65.43" y="42.31" width="1.59" height="1.22" rx=".15" ry=".15"/>
        </g>
        <g>
          <rect class="cls-1" x="74.8" y="43.6" width="3.26" height="5.86" rx=".47" ry=".47"/>
          <rect class="cls-1" x="75.64" y="42.31" width="1.59" height="1.22" rx=".15" ry=".15"/>
        </g>
        <g>
          <rect class="cls-1" x="85" y="43.6" width="3.26" height="5.86" rx=".47" ry=".47"/>
          <rect class="cls-1" x="85.84" y="42.31" width="1.59" height="1.22" rx=".15" ry=".15"/>
        </g>
        <g>
          <rect class="cls-1" x="54.39" y="56.43" width="3.26" height="5.86" rx=".47" ry=".47"/>
          <rect class="cls-1" x="55.23" y="55.15" width="1.59" height="1.22" rx=".15" ry=".15"/>
        </g>
        <g>
          <rect class="cls-1" x="64.6" y="56.43" width="3.26" height="5.86" rx=".47" ry=".47"/>
          <rect class="cls-1" x="65.43" y="55.15" width="1.59" height="1.22" rx=".15" ry=".15"/>
        </g>
        <g>
          <rect class="cls-1" x="74.8" y="56.43" width="3.26" height="5.86" rx=".47" ry=".47"/>
          <rect class="cls-1" x="75.64" y="55.15" width="1.59" height="1.22" rx=".15" ry=".15"/>
        </g>
        <g>
          <rect class="cls-1" x="85" y="56.43" width="3.26" height="5.86" rx=".47" ry=".47"/>
          <rect class="cls-1" x="85.84" y="55.15" width="1.59" height="1.22" rx=".15" ry=".15"/>
        </g>
        <g>
          <rect class="cls-1" x="54.39" y="69.27" width="3.26" height="5.86" rx=".47" ry=".47"/>
          <rect class="cls-1" x="55.23" y="67.99" width="1.59" height="1.22" rx=".15" ry=".15"/>
        </g>
        <g>
          <rect class="cls-1" x="64.6" y="69.27" width="3.26" height="5.86" rx=".47" ry=".47"/>
          <rect class="cls-1" x="65.43" y="67.99" width="1.59" height="1.22" rx=".15" ry=".15"/>
        </g>
        <g>
          <rect class="cls-1" x="74.8" y="69.27" width="3.26" height="5.86" rx=".47" ry=".47"/>
          <rect class="cls-1" x="75.64" y="67.99" width="1.59" height="1.22" rx=".15" ry=".15"/>
        </g>
        <g>
          <rect class="cls-1" x="85" y="69.27" width="3.26" height="5.86" rx=".47" ry=".47"/>
          <rect class="cls-1" x="85.84" y="67.99" width="1.59" height="1.22" rx=".15" ry=".15"/>
        </g>
        <g>
          <rect class="cls-1" x="61.53" y="99.96" width="6.26" height="12.05" rx=".94" ry=".94" transform="translate(170.65 41.34) rotate(90)"/>
          <rect class="cls-1" x="70.55" y="104.74" width="3.04" height="2.5" rx=".3" ry=".3" transform="translate(178.06 33.92) rotate(90)"/>
        </g>
        <g>
          <rect class="cls-1" x="76.43" y="97.48" width="6.48" height="11.64" rx=".94" ry=".94"/>
          <rect class="cls-1" x="78.1" y="94.94" width="3.15" height="2.42" rx=".3" ry=".3"/>
        </g>
      </g>
    </g>
  </g>
</svg>