<svg xmlns="http://www.w3.org/2000/svg" viewBox="0 0 1021.63 79.84"><defs><style>.cls-1{fill:#fff247;}.cls-2{opacity:0.1;}</style></defs><title>Ресурс 18ldpi</title><g id="Слой_2" data-name="Слой 2"><g id="Слой_1-2" data-name="Слой 1"><path class="cls-1" d="M1021.63,39.65v.54a39.8,39.8,0,0,1-29,38.19A39.31,39.31,0,0,1,982,79.84H38.72a39.22,39.22,0,0,1-17.17-4.39A39.76,39.76,0,0,1,0,40.19v-.54A39.76,39.76,0,0,1,39.65,0H982.73a39.75,39.75,0,0,1,38.9,39.64Z"/><g class="cls-2"><path d="M106.19,0,77.13,79.84H38.72a39.22,39.22,0,0,1-17.17-4.39L49,0Z"/><polygon points="220.56 0 191.5 79.84 134.32 79.84 163.38 0 220.56 0"/><polygon points="334.94 0 305.88 79.84 248.69 79.84 277.75 0 334.94 0"/><polygon points="449.3 0 420.24 79.84 363.06 79.84 392.13 0 449.3 0"/><polygon points="563.67 0 534.62 79.84 477.44 79.84 506.49 0 563.67 0"/><polygon points="678.04 0 648.98 79.84 591.8 79.84 620.87 0 678.04 0"/><polygon points="792.41 0 763.36 79.84 706.17 79.84 735.23 0 792.41 0"/><polygon points="906.78 0 877.73 79.84 820.54 79.84 849.61 0 906.78 0"/><path d="M1014.79,17.46,992.62,78.38A39.31,39.31,0,0,1,982,79.84H934.91L964,0h18.77A39.66,39.66,0,0,1,1014.79,17.46Z"/><path d="M1002.86,39.65v.54a39.76,39.76,0,0,1-39.64,39.65H934.91L964,0A39.76,39.76,0,0,1,1002.86,39.65Z"/></g></g></g></svg>