<svg xmlns="http://www.w3.org/2000/svg" xmlns:xlink="http://www.w3.org/1999/xlink" viewBox="0 0 848.36 679"><defs><style>.cls-1,.cls-15{fill:#fff;}.cls-2{fill:url(#Безымянный_градиент_40);}.cls-3{fill:#3d737b;}.cls-4{fill:#1a5657;}.cls-5{fill:#685c50;}.cls-6{fill:#f9e423;}.cls-7{fill:#c6ae20;}.cls-8{fill:#2d2e2d;}.cls-9{fill:#52a2aa;}.cls-10{fill:#076068;}.cls-11{fill:#e5c925;}.cls-12{fill:gray;}.cls-13{fill:aqua;}.cls-14{fill:#008e45;}.cls-15{opacity:0.88;}</style><linearGradient id="Безымянный_градиент_40" x1="168.61" y1="263.4" x2="71.29" y2="94.85" gradientUnits="userSpaceOnUse"><stop offset="0" stop-color="#00373d"/><stop offset="1" stop-color="#006177"/></linearGradient></defs><title>Back_bus</title><g id="Слой_2" data-name="Слой 2"><g id="Слой_1-2" data-name="Слой 1"><rect class="cls-1" width="848.36" height="679" rx="42.22"/><path class="cls-2" d="M217.24,179.13c0,1.49,0,3-.1,4.44,0,.88-.09,1.76-.15,2.63,0,.08,0,.16,0,.24,0,.37-.05.73-.1,1.1a.76.76,0,0,1,0,.15c0,.11,0,.22,0,.33s0,.21,0,.32c-.06.6-.12,1.19-.19,1.79,0,.12,0,.25,0,.37q-.45,3.9-1.21,7.69-.1.57-.24,1.14c-.1.5-.21,1-.32,1.49s-.2.88-.31,1.32l-.06.23a.5.5,0,0,1,0,.12c0,.09,0,.18-.07.27-.1.4-.2.8-.31,1.2,0,.14-.07.27-.11.4-.08.34-.18.68-.27,1,0,.13-.07.26-.11.39-.3,1-.61,2.09-1,3.12-.14.45-.29.89-.44,1.34l-.41,1.2,0,0c-.32.94-.67,1.87-1,2.8l-.24.62c-.11.28-.22.55-.34.83-.17.43-.35.87-.54,1.3l-.05.12c0,.11-.09.21-.14.32s-.13.31-.2.46l-.05.11a.11.11,0,0,1,0,.07c-.11.29-.24.57-.38.86,0,.13-.11.26-.17.4-.24.52-.48,1-.73,1.57,0,0,0,0,0,0-.39.81-.79,1.62-1.19,2.42a97.3,97.3,0,1,1,5.7-74.91l.09.29c.37,1.13.73,2.27,1.05,3.42l.06.23c.18.6.35,1.21.51,1.82l.06.22c.15.55.28,1.1.41,1.66,0,.06,0,.11,0,.17.2.8.38,1.62.55,2.43l.09.45q.65,3,1.08,6.16c.16,1.06.29,2.12.41,3.19,0,.27.06.54.08.81,0,.07,0,.13,0,.2l0,.34c.1,1,.18,2.07.24,3.11C217.18,175,217.24,177.07,217.24,179.13Z"/><path class="cls-3" d="M94.76,231.75l-7.34-.05a8.53,8.53,0,0,1-3-3.31c-.23-.45-1.31-2.6-.87-4,.86-2.77,7.73-4.17,13.06-3.65-2.86.55-5.5,1.94-6,3.75-.45,1.46.5,3,1.19,4.1A11.42,11.42,0,0,0,94.76,231.75Z"/><path class="cls-4" d="M100.09,230.38A8.22,8.22,0,0,1,98,231.77l-3.22,0a11.42,11.42,0,0,1-3-3.21c-.69-1.11-1.64-2.64-1.19-4.1.55-1.81,3.19-3.2,6-3.75,3,.29,5.47,1.18,6.15,2.76C103.54,225.28,102.11,228.53,100.09,230.38Z"/><polygon class="cls-5" points="133.02 124.02 133.02 126.51 86.47 126.51 133.02 124.02"/><path class="cls-6" d="M133,188.67v36.74H58a5.07,5.07,0,0,1-5.07-5.07V194l3.38,3.22h57Z"/><path class="cls-7" d="M129.87,117.68a265.87,265.87,0,0,1,45.59,14.69q3.54,1.51,7,3.08A13.36,13.36,0,0,1,186,139c.39.6,2.07,3.11,1.68,4-1.94,4.41-65.1-15.13-63.61-22.66C124.35,118.93,126.86,118.14,129.87,117.68Z"/><path class="cls-8" d="M53.89,127.05c0-1.07,2.65-2.27,5.87-3.7a29.75,29.75,0,0,1,7.75-2.26c5.58-.83,28-2.49,58.55-4,.31,0,3.87-.4,5.94,2.28.94,1.22,1.84,3.43,1,4.94-1.07,2-4.52,1.85-5.67,1.83C111.77,125.83,54.12,132,53.89,127.05Z"/><ellipse class="cls-3" cx="160.2" cy="215.22" rx="10.09" ry="16.77"/><ellipse class="cls-3" cx="154.19" cy="215.22" rx="10.09" ry="16.77"/><rect class="cls-3" x="154.19" y="198.45" width="6.01" height="2.42"/><rect class="cls-3" x="154.19" y="230.49" width="6.01" height="1.51"/><ellipse class="cls-9" cx="160.2" cy="215.22" rx="8.3" ry="13.8"/><ellipse class="cls-3" cx="160.2" cy="215.22" rx="6.89" ry="11.46"/><ellipse class="cls-10" cx="160.2" cy="215.22" rx="3.43" ry="5.7"/><path class="cls-11" d="M211.7,216.8l0,.06,0-.07ZM217,173c-.06-1-.14-2.08-.24-3.11l0-.34c0-.07,0-.13,0-.2,0-.27-.05-.54-.08-.81-.12-1.07-.25-2.13-.41-3.19q-.44-3.12-1.08-6.16l-.09-.45c-.17-.81-.35-1.63-.55-2.43,0-.06,0-.11,0-.17-.13-.56-.26-1.11-.41-1.66l-.06-.22c-.16-.61-.33-1.22-.51-1.82l-.06-.23c-.32-1.15-.68-2.29-1.05-3.42l-25.29-7.89h0l-54-16.83-.11,0V225.41l12.64-1.24,5.81-.57.18,0c0-.26,0-.51,0-.76s0-.51,0-.76,0-.51,0-.75c0-.8,0-1.57,0-2.32,0-.31,0-.6,0-.9s0-.42,0-.63,0-.5,0-.74,0-.22,0-.33,0-.26,0-.39l0-.7q0-.63.06-1.23c0-.24,0-.48,0-.71s0-.56.06-.82c.38-5,1-8,1.73-10h0a11.29,11.29,0,0,1,.81-1.7,9.38,9.38,0,0,1,.84-1.25c.21-.26.45-.57.74-.89h0a2.85,2.85,0,0,1,.23-.26h0a7.23,7.23,0,0,1,4.23-2.41,7.61,7.61,0,0,1,5.76,1.8,14.53,14.53,0,0,1,4.08,5.7,36.91,36.91,0,0,1,2.16,9.17,28.92,28.92,0,0,1,.15,3.62c0,.18,0,.36,0,.52v0c0,.2,0,.4,0,.58a30.36,30.36,0,0,1-.36,3.29c0,.28-.09.55-.14.81l33.82-3.33,3.31-.32c.07-.15.14-.31.2-.46s.1-.21.14-.32l.05-.12c.19-.43.37-.87.54-1.3.12-.28.23-.55.34-.83l.24-.62c.36-.93.71-1.86,1-2.8l0,0,.41-1.2c.15-.45.3-.89.44-1.34.34-1,.65-2.07,1-3.12,0-.13.07-.26.11-.39.09-.34.19-.68.27-1,0-.13.08-.26.11-.4.11-.4.21-.8.31-1.2,0-.09.05-.18.07-.27a.5.5,0,0,0,0-.12l.06-.23c.11-.44.21-.88.31-1.32s.22-1,.32-1.49.17-.76.24-1.14q.76-3.8,1.21-7.69c0-.12,0-.25,0-.37.07-.6.13-1.19.19-1.79,0-.11,0-.21,0-.32s0-.22,0-.33a.76.76,0,0,0,0-.15c0-.37.07-.73.1-1.1,0-.08,0-.16,0-.24.06-.87.11-1.75.15-2.63.07-1.47.1-2.95.1-4.44C217.24,177.07,217.18,175,217,173Zm-1.27,25.84c.18-.16.13-.16,0,0Zm0,2.62c0-.08,0,0,0,0Z"/><path class="cls-12" d="M133,124.07v64.6l-19.78,8.51h-57l-3.38-3.33v-65a3,3,0,0,1,2.86-3.06l32.84-1.07Z"/><path class="cls-7" d="M216.77,169.54l-.25,0-10.92-.79h0l-2.08-.14-6.11-.44h-.23l-.51,0h0l-5.59-.4-.7,0h0l-9.11-.65h0l-3.74-.27-6.11-.43-1.65-.12h0l-5.18-.37-9-.63-8.64-.62-5.45-.39L138.9,164l-5.89-.42V150.16l5.89.64,2.58.28,5.45.6,8,.88h0l5,.55h0l7.34.81h0l4.09.45,6.11.67,3.33.37h0l6.51.71,6.58.73h0l3.47.38,6.11.66,4.34.49,3.27.35,4.06.45q.65,3,1.08,6.16c.16,1.06.29,2.12.41,3.19,0,.27.06.54.08.81C216.76,169.41,216.76,169.47,216.77,169.54Z"/><path d="M217,173c-.06-1-.14-2.08-.24-3.11l0-.34c0-.07,0-.13,0-.2,0-.27-.05-.54-.08-.81-.12-1.07-.25-2.13-.41-3.19q-.44-3.12-1.08-6.16l-.09-.45c-.17-.81-.35-1.63-.55-2.43,0-.06,0-.11,0-.17-.13-.56-.26-1.11-.41-1.66l-.06-.22c-.16-.61-.33-1.22-.51-1.82l-32.35-9.19h0l-33.73-9.58h0l-.06,0-8.4-2.38V189l28.84.44h.08l48.8.74c.07-.6.13-1.19.19-1.79,0-.11,0-.21,0-.32s0-.22,0-.33a.76.76,0,0,0,0-.15c0-.37.07-.73.1-1.1,0-.08,0-.16,0-.24.06-.87.11-1.75.15-2.63.07-1.47.1-2.95.1-4.44C217.24,177.07,217.18,175,217,173Z"/><path class="cls-12" d="M217,173c-.06-1-.14-2.08-.24-3.11l0-.34c0-.07,0-.13,0-.2,0-.27-.05-.54-.08-.81-.12-1.07-.25-2.13-.41-3.19q-.44-3.12-1.08-6.16l-.09-.45c-.17-.81-.35-1.63-.55-2.43,0-.06,0-.11,0-.17-.13-.56-.26-1.11-.41-1.66l-72.61-19.11v50.9l67.42,1.58h0l7.9.18c0-.11,0-.22,0-.33a.76.76,0,0,0,0-.15c0-.37.07-.73.1-1.1,0-.08,0-.16,0-.24.06-.87.11-1.75.15-2.63.07-1.47.1-2.95.1-4.44C217.24,177.07,217.18,175,217,173Z"/><polygon class="cls-13" points="171.38 144.99 171.38 185.84 170.51 185.82 146.93 185.34 146.93 139.35 149.64 139.97 150.21 140.1 157.63 141.82 158.35 141.98 171.38 144.99"/><rect class="cls-14" x="191.06" y="159.09" width="6.11" height="9.39"/><polygon class="cls-13" points="197.4 151.25 197.4 186.3 196.23 186.27 192.22 186.19 188.06 186.1 177.5 185.87 177.5 146.41 180.31 147.09 187.74 148.9 187.75 148.9 197.4 151.25"/><path class="cls-13" d="M217.24,179.13c0,1.49,0,3-.1,4.44,0,.88-.09,1.76-.15,2.63l-3.89-.08h0l-9.58-.17V153.41l.61.17,3.75,1,6.67,1.74c.2.8.38,1.62.55,2.43l.09.45q.65,3,1.08,6.16c.16,1.06.29,2.12.41,3.19,0,.27.06.54.08.81,0,.07,0,.13,0,.2l0,.34c.1,1,.18,2.07.24,3.11C217.18,175,217.24,177.07,217.24,179.13Z"/><path class="cls-7" d="M133,213.94v11.47H58a5.07,5.07,0,0,1-5.07-5.07v-6.4Z"/><polygon class="cls-13" points="130.23 128.96 130.23 188.67 121.83 188.77 111.4 188.89 105.77 188.96 92.48 189.12 54.69 189.58 54.69 130.28 60.03 130.19 65.65 130.09 65.66 130.09 76.03 129.91 98.24 129.52 105.31 129.4 130.23 128.96"/><polygon class="cls-15" points="171.38 175.26 171.38 185.84 170.51 185.82 146.93 153.22 146.93 141.46 171.38 175.26"/><polygon class="cls-15" points="171.38 159.39 171.38 168.39 150.21 140.1 157.63 141.82 158.35 141.98 171.38 159.39"/><polygon class="cls-15" points="197.4 176.7 197.4 186.3 196.23 186.27 177.5 162.19 177.5 151.12 197.4 176.7"/><polygon class="cls-15" points="197.4 161.31 197.4 169.05 180.31 147.09 187.74 148.9 187.75 148.9 197.4 161.31"/><polygon class="cls-15" points="192.22 186.19 188.06 186.1 177.5 172.52 177.5 167.26 192.22 186.19"/><path class="cls-15" d="M217.14,183.57c0,.88-.09,1.76-.15,2.63l-3.89-.07h0l-9.58-12.32v-7.75l2.08,2.68h0Z"/><path class="cls-15" d="M216.8,169.88l-.28-.36-8.67-11.14-3.73-4.8,3.75,1,3.25,4.17,5.14,6.61c.16,1.06.29,2.12.41,3.19,0,.27.06.54.08.81,0,.07,0,.13,0,.2Z"/><polygon class="cls-15" points="81.55 225.41 68.14 225.41 52.9 205.82 52.9 193.96 56.28 197.18 52.9 193.85 52.9 188.59 59.59 197.18 81.55 225.41"/><path class="cls-7" d="M151.79,213.35a98.91,98.91,0,0,0-.15,10.23L133,225.41V213.94Z"/><path class="cls-1" d="M210.58,216.92l-1,.1c.19-.43.37-.87.54-1.3A9,9,0,0,0,210.58,216.92Z"/><path class="cls-1" d="M209.57,217.88l-.38,0c.07-.15.14-.31.2-.46Z"/><path class="cls-7" d="M211.73,211.47c-.32.94-.67,1.87-1,2.8l-.24.62c-.11.28-.22.55-.34.83-.17.43-.35.87-.54,1.3l-.05.12c0,.11-.09.21-.14.32s-.13.31-.2.46l-3.31.32-33.82,3.33c.05-.26.09-.53.14-.81a30.36,30.36,0,0,0,.36-3.29c0-.18,0-.38,0-.58v0c0-.16,0-.34,0-.52a28.92,28.92,0,0,0-.15-3.62l32-1,3.86-.13,1.15,0,.9,0Z"/><path class="cls-7" d="M211.77,216.79l0,.07,0-.06Z"/><polygon class="cls-15" points="105.77 188.96 92.48 189.12 54.69 140.55 54.69 130.28 60.03 130.19 105.77 188.96"/><polygon class="cls-15" points="121.83 188.77 111.4 188.89 65.66 130.09 76.03 129.91 121.83 188.77"/><polygon class="cls-15" points="130.23 161.43 130.23 170.64 98.24 129.52 105.31 129.4 130.23 161.43"/></g></g></svg>