<?xml version="1.0" encoding="UTF-8"?>
<svg id="_Слой_2" data-name="Слой 2" xmlns="http://www.w3.org/2000/svg" viewBox="0 0 158.04 168.14">
  <defs>
    <style>
      .cls-1 {
        fill: #4db3ff;
      }

      .cls-2 {
        fill: #257bab;
      }

      .cls-3 {
        fill: none;
        stroke: #fff;
        stroke-miterlimit: 10;
        stroke-width: 1.83px;
      }
    </style>
  </defs>
  <g id="_Слой_1-2" data-name="Слой 1">
    <g>
      <g>
        <rect class="cls-2" y="0" width="158.04" height="168.14" rx="12.61" ry="12.61"/>
        <rect class="cls-1" x="0" width="158.04" height="158.04" rx="12.23" ry="12.23"/>
      </g>
      <g>
        <path class="cls-3" d="M105,69.68v-.32h20.57c5.23,0,9.52,4.29,9.52,9.52,0,8.88-3.64,16.97-9.49,22.82-5.85,5.85-13.94,9.49-22.82,9.49h-47.54c-17.77,0-32.31-14.54-32.31-32.31,0-2.62,1.07-5,2.8-6.72s4.11-2.8,6.72-2.8h21.43v.32"/>
        <polyline class="cls-3" points="64.52 69.68 64.52 69.36 94.38 69.36 94.38 69.68"/>
        <path class="cls-3" d="M64.56,111.19h28.92v26.76c0,3.32-2.69,6.01-6.01,6.01h-16.9c-3.32,0-6.01-2.69-6.01-6.01v-26.76h0Z"/>
        <path class="cls-3" d="M64.52,65.08v4.27h-10.63v-4.27c0-1.46.6-2.79,1.56-3.75.97-.97,2.29-1.56,3.75-1.56,2.92,0,5.32,2.39,5.32,5.32Z"/>
        <path class="cls-3" d="M105,65.08v4.27h-10.63v-4.27c0-1.46.6-2.79,1.56-3.75.96-.97,2.29-1.56,3.75-1.56,2.92,0,5.31,2.39,5.31,5.32Z"/>
        <g>
          <path class="cls-3" d="M48.14,28.37c1.11-8.54,8-15.08,16.14-15.69,8.97-.67,17.39,6,18.8,15.44.03,13.75.06,27.49.09,41.24h-7.44V28.58c-1.17-5.08-5.82-8.54-10.76-8.2-4.46.31-8.31,3.64-9.34,8.2"/>
          <rect class="cls-3" x="45.55" y="28.37" width="12.19" height="5.25" rx=".22" ry=".22"/>
        </g>
      </g>
    </g>
  </g>
</svg>