<?xml version="1.0" encoding="UTF-8"?>
<svg id="_Слой_2" data-name="Слой 2" xmlns="http://www.w3.org/2000/svg" viewBox="0 0 180.56 210.93">
  <defs>
    <style>
      .cls-1 {
        fill: none;
        stroke: #35a2ff;
        stroke-miterlimit: 10;
        stroke-width: 2.9px;
      }
    </style>
  </defs>
  <g id="_Слой_1-2" data-name="Слой 1">
    <g>
      <path class="cls-1" d="M131.44,91.82v-.51h32.59c8.29,0,15.08,6.79,15.08,15.08,0,14.07-5.76,26.88-15.03,36.15-9.27,9.27-22.08,15.03-36.15,15.03H52.63c-28.14,0-51.17-23.03-51.17-51.18,0-4.15,1.7-7.92,4.43-10.65s6.5-4.43,10.65-4.43h33.95v.51"/>
      <polyline class="cls-1" points="67.31 91.82 67.31 91.31 114.6 91.31 114.6 91.82"/>
      <path class="cls-1" d="M67.37,157.57h45.81v45.89c0,3.32-2.69,6.01-6.01,6.01h-33.79c-3.32,0-6.01-2.69-6.01-6.01v-45.89h0Z"/>
      <path class="cls-1" d="M67.31,84.54v6.77h-16.83v-6.77c0-2.31.94-4.42,2.47-5.94,1.53-1.53,3.63-2.48,5.94-2.48,4.63,0,8.42,3.79,8.42,8.42Z"/>
      <path class="cls-1" d="M131.44,84.54v6.77h-16.83v-6.77c0-2.31.94-4.42,2.48-5.94,1.52-1.53,3.63-2.48,5.94-2.48,4.62,0,8.41,3.79,8.41,8.42Z"/>
      <g>
        <path class="cls-1" d="M41.36,26.38c1.76-13.53,12.67-23.89,25.57-24.86,14.21-1.07,27.54,9.51,29.78,24.46.05,21.78.09,43.55.13,65.33h-11.79V26.72c-1.85-8.05-9.22-13.53-17.05-12.99-7.07.48-13.17,5.77-14.79,12.99"/>
        <rect class="cls-1" x="37.26" y="26.38" width="19.32" height="8.31" rx=".22" ry=".22"/>
      </g>
    </g>
  </g>
</svg>