<?xml version="1.0" encoding="UTF-8"?>
<svg id="_Слой_2" data-name="Слой 2" xmlns="http://www.w3.org/2000/svg" viewBox="0 0 158.04 168.14">
  <defs>
    <style>
      .cls-1 {
        fill: #364044;
      }

      .cls-2 {
        fill: #fff;
      }

      .cls-3 {
        stroke-width: 1.83px;
      }

      .cls-3, .cls-4 {
        fill: none;
        stroke: #35a2ff;
        stroke-miterlimit: 10;
      }

      .cls-4 {
        stroke-width: 2px;
      }
    </style>
  </defs>
  <g id="_Слой_1-2" data-name="Слой 1">
    <g>
      <g>
        <rect class="cls-1" x="0" width="158.04" height="168.14" rx="12.61" ry="12.61"/>
        <rect class="cls-2" x="0" width="158.04" height="158.04" rx="12.23" ry="12.23"/>
      </g>
      <g>
        <path class="cls-3" d="M44.73,92.29h68.58c3.12,0,5.66,2.54,5.66,5.66v11.71c0,12-9.74,21.75-21.75,21.75h-36.4c-12,0-21.75-9.74-21.75-21.75v-11.71c0-3.12,2.54-5.66,5.66-5.66Z"/>
        <path class="cls-3" d="M56.19,131.41h45.65c1.46,0,2.65,1.19,2.65,2.65v6.49c0,3.65-2.96,6.61-6.61,6.61h-37.73c-3.65,0-6.61-2.96-6.61-6.61v-6.49c0-1.46,1.19-2.65,2.65-2.65Z" transform="translate(158.04 278.57) rotate(180)"/>
        <path class="cls-3" d="M100.73,79.8h19.35c3.43,0,6.24,2.81,6.24,6.24,0,1.72-.7,3.28-1.84,4.41-1.13,1.13-2.69,1.84-4.41,1.84H37.95c-3.43,0-6.24-2.81-6.24-6.24,0-1.72.7-3.28,1.84-4.41,1.13-1.13,2.69-1.84,4.41-1.84h19.35"/>
        <path class="cls-3" d="M113.36,49.01c0,12.42-4.92,23.5-12.63,30.79h-43.42c-7.71-7.29-12.63-18.37-12.63-30.79,0-21.95,15.38-39.74,34.34-39.74s34.34,17.79,34.34,39.74Z"/>
        <ellipse class="cls-4" cx="79.02" cy="50.75" rx="18.38" ry="26.39"/>
      </g>
    </g>
  </g>
</svg>