<?xml version="1.0" encoding="UTF-8"?>
<svg id="_Слой_2" data-name="Слой 2" xmlns="http://www.w3.org/2000/svg" viewBox="0 0 386.08 51.31">
  <defs>
    <style>
      .cls-1 {
        fill: #fff;
      }

      .cls-2 {
        fill: #4c9350;
      }

      .cls-3 {
        fill: none;
        stroke: #fff;
        stroke-miterlimit: 10;
        stroke-width: 2.09px;
      }

      .cls-4 {
        fill: #42c352;
      }

      .cls-5 {
        fill: #181c1e;
      }
    </style>
  </defs>
  <g id="_Слой_1-2" data-name="Слой 1">
    <g>
      <g>
        <rect class="cls-5" x="0" y="0" width="386.08" height="51.31" rx="25.66" ry="25.66"/>
        <g>
          <rect class="cls-4" x="19.3" y="10.81" width="50.15" height="29.69" rx="2.79" ry="2.79"/>
          <circle class="cls-2" cx="44.38" cy="25.66" r="8.36"/>
          <circle class="cls-1" cx="44.38" cy="25.66" r="3.8"/>
          <path class="cls-2" d="M67.09,10.82h-4.62s-35.32,0-35.32,0h0s-5.49,0-5.49,0c-1.3,0-2.36,1.06-2.36,2.36v5.4h0v14.18h.02v5.4c0,1.3,1.06,2.36,2.36,2.36h5.19s34.74,0,34.74,0h5.49c1.3,0,2.36-1.06,2.36-2.36v-19.48h0v-5.49c0-1.3-1.06-2.36-2.36-2.36ZM67.8,18.67v13.99c-3.41.02-6.17,2.79-6.2,6.2H27.14c-.03-3.41-2.79-6.16-6.2-6.18v-14.02c3.42-.02,6.18-2.78,6.21-6.19h34.46c.02,3.42,2.79,6.18,6.2,6.2h0Z"/>
        </g>
      </g>
      <g>
        <circle class="cls-3" cx="216.38" cy="25.66" r="17.7"/>
        <path class="cls-1" d="M228.07,26.69h-11.27v-15.15c0-.53-.43-.97-.97-.97s-.97.44-.97.97v16.12c0,.54.44.97.97.97h12.24c.54,0,.97-.43.97-.97s-.43-.97-.97-.97Z"/>
      </g>
    </g>
  </g>
</svg>