<?xml version="1.0" encoding="UTF-8"?>
<svg id="_Слой_2" data-name="Слой 2" xmlns="http://www.w3.org/2000/svg" viewBox="0 0 134.17 194.35">
  <defs>
    <style>
      .cls-1 {
        stroke-width: 2.78px;
      }

      .cls-1, .cls-2 {
        fill: none;
        stroke: #35a2ff;
        stroke-miterlimit: 10;
      }

      .cls-2 {
        stroke-width: 2.55px;
      }
    </style>
  </defs>
  <g id="_Слой_1-2" data-name="Слой 1">
    <g>
      <path class="cls-2" d="M17.17,116.76h99.82c3.12,0,5.66,2.54,5.66,5.66v27.01c0,12-9.74,21.75-21.75,21.75H33.26c-12,0-21.75-9.74-21.75-21.75v-27.01c0-3.12,2.54-5.66,5.66-5.66Z"/>
      <path class="cls-2" d="M34.3,171.18h65.57c1.46,0,2.65,1.19,2.65,2.65v12.65c0,3.65-2.96,6.61-6.61,6.61h-57.66c-3.65,0-6.61-2.96-6.61-6.61v-12.65c0-1.46,1.19-2.65,2.65-2.65Z" transform="translate(134.17 364.25) rotate(180)"/>
      <path class="cls-2" d="M97.29,99.39h26.92c4.78,0,8.69,3.91,8.69,8.69,0,2.39-.98,4.56-2.55,6.13-1.57,1.57-3.74,2.55-6.13,2.55H9.96c-4.78,0-8.69-3.91-8.69-8.69,0-2.39.98-4.56,2.55-6.13,1.57-1.57,3.74-2.55,6.13-2.55h26.92"/>
      <path class="cls-2" d="M114.86,56.55c0,17.27-6.85,32.69-17.57,42.83h-60.4c-10.73-10.14-17.57-25.56-17.57-42.83C19.31,26.02,40.7,1.28,67.08,1.28s47.78,24.75,47.78,55.28Z"/>
      <ellipse class="cls-1" cx="67.08" cy="58.97" rx="25.57" ry="36.71"/>
    </g>
  </g>
</svg>