<svg xmlns="http://www.w3.org/2000/svg" xmlns:xlink="http://www.w3.org/1999/xlink" viewBox="0 0 848.36 679"><defs><style>.cls-1{fill:#fff;}.cls-2{fill:url(#Безымянный_градиент_40);}.cls-3{fill:#4c9350;}.cls-4{fill:#42c352;}.cls-5{opacity:0.25;}.cls-6{opacity:0.17;}.cls-7{fill:gray;}</style><linearGradient id="Безымянный_градиент_40" x1="171.22" y1="261.83" x2="73.9" y2="93.27" gradientUnits="userSpaceOnUse"><stop offset="0" stop-color="#00373d"/><stop offset="1" stop-color="#006177"/></linearGradient></defs><title>Back_moneyX</title><g id="Слой_2" data-name="Слой 2"><g id="Слой_1-2" data-name="Слой 1"><rect class="cls-1" width="848.36" height="679" rx="42.22"/><path class="cls-2" d="M219.85,177.55c0,1.49,0,3-.1,4.44,0,.88-.09,1.76-.15,2.63,0,.08,0,.16,0,.24,0,.37-.05.73-.1,1.1a.76.76,0,0,1,0,.15c0,.11,0,.22,0,.33s0,.21,0,.32c-.06.6-.12,1.19-.19,1.79,0,.12,0,.25,0,.37q-.45,3.9-1.21,7.69-.1.57-.24,1.14c-.1.5-.21,1-.32,1.49s-.2.88-.31,1.32l-.06.23a.5.5,0,0,1,0,.12c0,.09-.05.18-.07.27-.1.4-.2.8-.31,1.2,0,.14-.07.27-.11.4-.08.34-.18.68-.27,1,0,.13-.07.26-.11.39-.3,1.05-.61,2.09-.95,3.12-.14.45-.29.89-.44,1.34l-.41,1.2,0,0c-.32.94-.67,1.87-1,2.8l-.24.62c-.11.28-.22.55-.34.83-.17.43-.35.87-.54,1.3l-.05.12c0,.11-.09.21-.14.32s-.13.31-.2.46l-.05.11a.11.11,0,0,1,0,.07c-.11.29-.24.57-.38.86-.05.13-.11.26-.17.4-.24.52-.48,1.05-.73,1.57,0,0,0,0,0,.05-.39.81-.79,1.62-1.19,2.42a97.3,97.3,0,1,1,5.7-74.91l.09.29c.37,1.13.73,2.27,1,3.42l.06.23c.18.6.35,1.21.51,1.82l.06.22c.15.55.28,1.1.41,1.66,0,.06,0,.11,0,.17.2.8.38,1.62.55,2.43l.09.45q.65,3,1.08,6.16c.16,1.06.29,2.12.41,3.19,0,.27.06.54.08.81,0,.07,0,.13,0,.2l0,.34c.1,1,.18,2.07.24,3.11C219.79,173.44,219.85,175.49,219.85,177.55Z"/><path class="cls-3" d="M143.39,178.68v10.67a5.39,5.39,0,0,1-5.39,5.39h-9.27V191.3h-1.8a13.09,13.09,0,0,1,13-13v.4Z"/><path class="cls-3" d="M143.39,178.28v.4h-3.47v-.4h3.47Z"/><path class="cls-3" d="M143.39,148.92v29.36h-3.47V148.92Z"/><path class="cls-3" d="M143.39,137.86v11.06h-3.47a13.07,13.07,0,0,1-13-13h1.8v-3.44H138A5.39,5.39,0,0,1,143.39,137.86Z"/><path class="cls-4" d="M139.92,148.92v29.36a13.09,13.09,0,0,0-13,13H54.62a13.09,13.09,0,0,0-13-13V148.9a13.09,13.09,0,0,0,13-13h72.29A13.07,13.07,0,0,0,139.92,148.92Zm-31.61,14.69a17.54,17.54,0,1,0-17.52,17.53A17.53,17.53,0,0,0,108.31,163.61Z"/><path class="cls-3" d="M128.73,191.3v3.44h-1.8V191.3Z"/><path class="cls-3" d="M128.73,132.47v3.44h-1.8v-3.44Z"/><path class="cls-3" d="M128.73,132.45v0h-1.8v3.44H54.64v-3.46Z"/><path class="cls-3" d="M126.93,191.3v3.44H54.62V191.3Z"/><path class="cls-3" d="M90.79,146.07a17.54,17.54,0,1,1-17.55,17.54A17.53,17.53,0,0,1,90.79,146.07Zm8,17.52a8,8,0,1,0-8,8A8,8,0,0,0,98.76,163.59Z"/><circle class="cls-1" cx="90.79" cy="163.59" r="7.98"/><path class="cls-3" d="M54.64,132.45v3.46H54v-3.46Z"/><path class="cls-3" d="M54.64,132.43v0H54v3.46h.6a13.09,13.09,0,0,1-13,13v-.19H38.17V137.82a5.41,5.41,0,0,1,5.39-5.39Z"/><path class="cls-3" d="M54.62,191.42v3.32H54V191.3h.58Z"/><path class="cls-3" d="M54.62,191.3H54v3.44H43.59a5.39,5.39,0,0,1-5.39-5.39V178.46h3.41v-.14A13.09,13.09,0,0,1,54.62,191.3Z"/><path class="cls-3" d="M41.61,178.32v.14H38.2v-.14h3.41Z"/><path class="cls-3" d="M41.61,148.9v29.42H38.2v.14h-.05V148.71h0v.19h3.44Z"/><path class="cls-3" d="M41.61,148.71v.19H38.17v-.19Z"/><rect class="cls-5" x="38.17" y="132.45" width="105.21" height="62.29" rx="5.45"/><rect class="cls-4" x="49.09" y="140.44" width="105.21" height="62.29" rx="5.7"/><circle class="cls-3" cx="101.7" cy="171.6" r="17.54"/><circle class="cls-1" cx="101.71" cy="171.59" r="7.98"/><path class="cls-3" d="M148.92,140.45H137.84v3.36a13.11,13.11,0,0,0,13.1,13.11h3.37V145.84A5.39,5.39,0,0,0,148.92,140.45Z"/><path class="cls-3" d="M154.31,197.35V186.27h-3.37a13.1,13.1,0,0,0-13.1,13.1v3.36h11.08A5.39,5.39,0,0,0,154.31,197.35Z"/><path class="cls-3" d="M54.51,202.73h11V199.4a13.11,13.11,0,0,0-13.1-13.1H49.12v11A5.39,5.39,0,0,0,54.51,202.73Z"/><path class="cls-3" d="M49.09,145.81v11.08h3.37a13.1,13.1,0,0,0,13.1-13.1v-3.36H54.48A5.39,5.39,0,0,0,49.09,145.81Z"/><rect class="cls-3" x="49.07" y="156.7" width="3.46" height="29.75"/><rect class="cls-3" x="150.85" y="156.91" width="3.46" height="29.75"/><rect class="cls-3" x="100.58" y="104.82" width="3.46" height="74.7" transform="translate(-39.86 244.48) rotate(-90)"/><rect class="cls-3" x="100.58" y="163.66" width="3.46" height="74.7" transform="translate(-98.7 303.31) rotate(-90)"/><rect class="cls-6" x="49.09" y="140.43" width="105.21" height="62.29" rx="5.43"/><rect class="cls-4" x="60.01" y="148.43" width="105.21" height="62.29" rx="6.29"/><circle class="cls-3" cx="112.62" cy="179.59" r="17.54"/><circle class="cls-1" cx="112.63" cy="179.57" r="7.98"/><path class="cls-3" d="M159.84,148.44H148.76v3.36a13.1,13.1,0,0,0,13.1,13.1h3.37V153.83A5.39,5.39,0,0,0,159.84,148.44Z"/><path class="cls-3" d="M165.23,205.33V194.26h-3.37a13.1,13.1,0,0,0-13.1,13.1v3.36h11.08A5.39,5.39,0,0,0,165.23,205.33Z"/><path class="cls-3" d="M65.43,210.72h11v-3.33a13.11,13.11,0,0,0-13.1-13.1H60v11A5.39,5.39,0,0,0,65.43,210.72Z"/><path class="cls-3" d="M60,153.8v11.08h3.37a13.11,13.11,0,0,0,13.1-13.1v-3.37H65.4A5.4,5.4,0,0,0,60,153.8Z"/><rect class="cls-3" x="59.99" y="164.69" width="3.46" height="29.75"/><rect class="cls-3" x="161.77" y="164.9" width="3.46" height="29.75"/><rect class="cls-3" x="111.5" y="112.81" width="3.46" height="74.7" transform="translate(-36.93 263.38) rotate(-90)"/><rect class="cls-3" x="111.5" y="171.64" width="3.46" height="74.7" transform="translate(-95.77 322.22) rotate(-90)"/><path d="M146.17,189.4a9.23,9.23,0,0,1,1.47-4.62,6.47,6.47,0,0,1,3.79-3.13,5.5,5.5,0,0,1,3.94.53,5.81,5.81,0,0,1,2.72,5.33,6.82,6.82,0,0,1-1.71,3.87,92.18,92.18,0,0,1-8.86,9.92c-5.13,4.82-5.41,5-7,6.66-4.09,4.32-5.25,6.41-5.87,7.71a22,22,0,0,0-2,7h29.06l1.92-8.32-16.8-.07c.26-.37.65-.91,1.15-1.54a35.5,35.5,0,0,1,5.46-5.38,78.42,78.42,0,0,0,7.22-7.05c3.17-3.43,4-4.93,4.56-6A15,15,0,0,0,167,188.6a13.78,13.78,0,0,0-.8-6A13.35,13.35,0,0,0,162.1,177a13.92,13.92,0,0,0-8.23-2.73,15.26,15.26,0,0,0-16.93,13.62Z"/><polygon points="171.28 174.18 181.06 174.18 198.9 222.67 189.15 222.67 183.99 209.18 175.36 222.67 163.79 222.67 179.78 198.09 171.28 174.18"/><polygon points="195.09 174.18 206.38 174.18 188.37 202.39 183.3 192.2 195.09 174.18"/><path class="cls-7" d="M146.46,188.09a9.23,9.23,0,0,1,1.47-4.61,6.45,6.45,0,0,1,3.79-3.14,5.5,5.5,0,0,1,3.94.53,5.82,5.82,0,0,1,2.72,5.34,6.79,6.79,0,0,1-1.71,3.86,91.75,91.75,0,0,1-8.86,9.93c-5.06,4.9-5.41,5-7,6.66-4.09,4.32-5.25,6.41-5.87,7.7a21.7,21.7,0,0,0-2,7H162l1.92-8.31-16.8-.08c.26-.36.65-.9,1.15-1.53a34.58,34.58,0,0,1,5.46-5.38A78.42,78.42,0,0,0,161,199c3.17-3.43,4-4.93,4.56-6a14.93,14.93,0,0,0,1.74-5.74,13.86,13.86,0,0,0-.8-6,13.29,13.29,0,0,0-4.08-5.67,13.92,13.92,0,0,0-8.23-2.73,15.26,15.26,0,0,0-16.93,13.62Z"/><polygon class="cls-7" points="171.57 172.88 181.35 172.88 199.19 221.37 189.44 221.37 184.28 207.88 175.65 221.37 164.08 221.37 180.07 196.78 171.57 172.88"/><polygon class="cls-7" points="195.38 172.88 206.68 172.88 188.66 201.08 183.59 190.89 195.38 172.88"/><path class="cls-1" d="M146.75,186.79a9.2,9.2,0,0,1,1.47-4.61A6.45,6.45,0,0,1,152,179a5.5,5.5,0,0,1,3.94.53,5.85,5.85,0,0,1,2.72,5.34,6.79,6.79,0,0,1-1.71,3.86,92.18,92.18,0,0,1-8.86,9.92c-5.13,4.82-5.41,5-7,6.67-4.09,4.32-5.25,6.4-5.87,7.7a21.7,21.7,0,0,0-2,7h29.06l1.92-8.32-16.8-.07c.26-.37.65-.9,1.15-1.53a35.19,35.19,0,0,1,5.46-5.39,78.42,78.42,0,0,0,7.22-7.05c3.17-3.43,4-4.92,4.56-6a14.93,14.93,0,0,0,1.74-5.75,13.78,13.78,0,0,0-.8-6,13.35,13.35,0,0,0-4.08-5.68,13.83,13.83,0,0,0-8.23-2.72,16.09,16.09,0,0,0-10.36,2.55,16.28,16.28,0,0,0-6.57,11.06Z"/><polygon class="cls-1" points="171.86 171.57 181.64 171.57 199.48 220.06 189.72 220.06 184.57 206.58 175.94 220.06 164.37 220.06 180.36 195.48 171.86 171.57"/><polygon class="cls-1" points="195.66 171.57 206.97 171.57 188.95 199.78 183.88 189.59 195.66 171.57"/></g></g></svg>