<svg xmlns="http://www.w3.org/2000/svg" viewBox="0 0 44.5 31.83"><defs><style>.cls-1{fill:#00a6c2;}.cls-2{fill:#00ccef;}.cls-3{fill:#2ce4ff;}.cls-4{fill:#e2eaff;}</style></defs><title>5diamond</title><g id="Слой_2" data-name="Слой 2"><g id="Слой_1-2" data-name="Слой 1"><polygon class="cls-1" points="22.25 0 33.91 0 31.32 11.49 22.25 0"/><polygon class="cls-2" points="33.91 0 44.5 11.49 31.32 11.49 33.91 0"/><polygon class="cls-1" points="31.32 11.49 44.5 11.49 22.25 31.83 31.32 11.49"/><polygon class="cls-1" points="22.25 0 10.59 0 13.18 11.48 22.25 0"/><polygon class="cls-2" points="10.59 0 0 11.48 13.18 11.48 10.59 0"/><polygon class="cls-1" points="13.18 11.48 0 11.48 22.25 31.83 13.18 11.48"/><polygon class="cls-2" points="22.25 31.83 31.32 11.48 13.18 11.48 22.25 31.83"/><polygon class="cls-3" points="22.25 0 13.18 11.48 31.32 11.48 22.25 0"/><rect class="cls-4" x="10.2" y="7.66" width="9.66" height="2.94" rx="1.47" transform="translate(-1.45 15.27) rotate(-51.7)"/></g></g></svg>