<?xml version="1.0" encoding="UTF-8"?>
<svg id="_Слой_2" data-name="Слой 2" xmlns="http://www.w3.org/2000/svg" viewBox="0 0 198.57 75.49">
  <defs>
    <style>
      .cls-1 {
        fill: #f4d69a;
      }

      .cls-2 {
        fill: #f2dcb6;
      }

      .cls-3 {
        fill: #fff;
      }

      .cls-4 {
        fill: #d7f4ff;
        opacity: .33;
      }

      .cls-5 {
        fill: #6c7b7f;
      }

      .cls-6 {
        fill: #252626;
        opacity: .39;
      }

      .cls-7 {
        fill: #f7c85e;
      }

      .cls-8 {
        fill: #90a4ae;
      }
    </style>
  </defs>
  <g id="_Слой_1-2" data-name="Слой 1">
    <g>
      <path class="cls-3" d="M23.93,0h150.71C187.85,0,198.57,10.72,198.57,23.93v51.56H0V23.93C0,10.72,10.72,0,23.93,0Z"/>
      <g>
        <path class="cls-5" d="M133.35,34.08c0,3.77-2.69,6.82-6,6.82-.25,0-.49-.02-.73-.05.15-2.68.22-5.47.22-8.36,0-1.77-.04-3.5-.11-5.19.2-.02.41-.03.62-.03,3.32,0,6,3.05,6,6.82Z"/>
        <path class="cls-8" d="M127.18,27.27v.3l-.13,13.31v.24c-.24,2.99-.59,6.2-1.13,9.58-.47,3-1.03,5.82-1.64,8.44-.06.21-.12.46-.22.72-.1.28-.22.54-.36.75-.02.07-.07.13-.1.19,0,0-.6,1.01-1.65,1.22-2.5.53-4.75-3.92-9.04-8.23-3.42-3.44-6.65-5.31-8.88-6.6-3.07-1.77-8.08-4.09-15.23-5v-19.13c6.56-1,11.48-3,14.62-4.58,2.28-1.14,5.16-2.58,8.4-5.27,5.68-4.72,7.71-9.37,10.12-8.77.97.24,1.57,1.23,1.98,2.23.1.22.19.45.27.66,2.51,6.62,2.99,14.41,2.98,19.93Z"/>
        <path class="cls-7" d="M73.27,42.2c-.38,0-.76-.03-1.12-.1.04-.19.13-.38.25-.57l9.82.56,1.33.08s.02.02.03.03h-10.31Z"/>
        <path class="cls-7" d="M90.59,69.39c-1.4,1.47-3.8,1.95-6.19,1.6-1.93-.27-3.84-1.07-5.21-2.32-3.44-3.12-1.05-6.91-3.22-15.11,2.99,2,6.47,3.85,10.27,5.44,1.19.5,2.41.99,3.65,1.43.71.65,1.47,1.5,1.88,2.79.68,2.19.2,4.71-1.18,6.16Z"/>
        <path class="cls-1" d="M85.84,42.2h-3.52s-.07-.08-.11-.11c-.58-.62-1.04-.94-.96-1.06.13-.21,2.03.1,4.59,1.18Z"/>
        <path class="cls-2" d="M90.59,69.39c-1.4,1.47-3.8,1.95-6.19,1.6,2.08-.86,5.34-1.89,5.93-4.51.25-1.07.16-2.92-.87-4.23-.54-.69-.96-.76-1.74-1.43-.65-.56-1.13-1.19-1.49-1.8,1.19.5,2.41.99,3.65,1.43.71.65,1.47,1.5,1.88,2.79.68,2.19.2,4.71-1.18,6.16Z"/>
        <path class="cls-5" d="M88.81,23.03v19.17h-15.54c-.38,0-.76-.03-1.12-.1-3.06-.53-5.37-3.19-5.37-6.39v-6.18c0-.57.08-1.13.22-1.66.73-2.79,3.26-4.84,6.27-4.84h15.54Z"/>
        <path class="cls-4" d="M67,27.87c.73-2.79,3.26-4.84,6.27-4.84h15.54v.04c6.56-1,11.48-3,14.62-4.58,2.28-1.14,5.16-2.58,8.4-5.27,5.68-4.72,7.71-9.37,10.12-8.77.97.24,1.57,1.23,1.98,2.23-2.46,3.45-6.75,7.51-9.53,9.78-8.36,6.81-17.77,9.27-25.6,10.36-3.09.44-5.92.65-8.36.84l-13.45.21Z"/>
        <path class="cls-3" d="M124.31,62.29c-.68,2.72-10.08,2.52-11.86,2.49-7.67-.16-15.52-1.8-22.57-4.33-.34-.31-.66-.58-.92-.83-5.49-5.01-.81-13.28-5.39-17.41h5.23c7.14.92,12.16,3.24,15.23,5,2.23,1.29,5.46,3.16,8.88,6.6,4.29,4.31,6.54,8.76,9.04,8.23,1.04-.21,1.65-1.22,1.65-1.22.03-.06.08-.12.1-.19.55.65.74,1.16.62,1.67Z"/>
        <path class="cls-3" d="M75.96,53.56c-6.25-4.17-10.36-8.99-10.7-13.52-.09-1.21-.1-4.93,1-5.22.17-.04.34,0,.52.11v.76c0,3.2,2.32,5.87,5.37,6.39-.47,1.75,1.4,4.17,3.07,9.01.3.86.55,1.68.75,2.45Z"/>
        <path class="cls-7" d="M86.23,59.01c-3.8-1.59-7.28-3.44-10.27-5.44-.2-.77-.45-1.59-.75-2.45-1.67-4.85-3.54-7.27-3.07-9.01.36.07.74.1,1.12.1h9.06c.56.59,1.21,1.44,1.66,2.62.37.96.39,1.6.5,3.86.31,6.48.4,7.12.75,8.08.22.64.52,1.43,1,2.24Z"/>
        <path class="cls-2" d="M89.88,60.44c-1.24-.45-2.46-.93-3.65-1.43-.48-.81-.77-1.6-1-2.24-.35-.96-.44-1.6-.75-8.08-.11-2.26-.13-2.9-.5-3.86-.45-1.18-1.1-2.03-1.66-2.62h1.25c4.58,4.13-.1,12.41,5.39,17.41.26.25.58.52.92.83Z"/>
        <path class="cls-6" d="M123.7,60.62c-.02.07-.07.13-.1.19,0,0-.6,1.01-1.65,1.22-2.5.53-4.75-3.92-9.04-8.23-3.42-3.44-6.65-5.31-8.88-6.6-3.07-1.77-8.08-4.09-15.23-5h-15.54c-.38,0-.76-.03-1.12-.1-3.06-.53-5.37-3.19-5.37-6.39v-.76c.67.43,1.5,1.88,3.26,3.08,1.48,1.01,3.03,1.44,5.55,1.78,5.32.72,9.78.32,11.7.25.52-.02,1.02-.02,1.52-.01,8.02.18,14.21,3.75,17.18,5.53,1.2.72,3.29,2.06,5.64,4.02,2.42,2.02,3.29,3.18,6.06,5.81,1.33,1.26,3.36,3.11,6.01,5.22Z"/>
      </g>
    </g>
  </g>
</svg>