<?xml version="1.0" encoding="UTF-8"?>
<svg id="_Слой_2" data-name="Слой 2" xmlns="http://www.w3.org/2000/svg" viewBox="0 0 244.68 92.57">
  <defs>
    <style>
      .cls-1 {
        fill: #fff;
      }

      .cls-2 {
        fill: #af0039;
      }

      .cls-3 {
        fill: #4c9350;
      }

      .cls-4 {
        fill: #42c352;
      }
    </style>
  </defs>
  <g id="_Слой_1-2" data-name="Слой 1">
    <g>
      <rect class="cls-2" x="0" y="0" width="244.68" height="92.57" rx="45.75" ry="45.75"/>
      <g>
        <rect class="cls-4" x="33.91" y="59.32" width="36.69" height="21.73" rx="2.04" ry="2.04"/>
        <circle class="cls-3" cx="52.26" cy="70.18" r="6.12"/>
        <circle class="cls-1" cx="52.26" cy="70.18" r="2.78"/>
        <path class="cls-3" d="M68.87,59.32h-3.38s-25.84,0-25.84,0h0s-4.02,0-4.02,0c-.95,0-1.73.77-1.73,1.73v3.95h0v10.37h.02v3.95c0,.95.77,1.73,1.73,1.73h3.8s25.42,0,25.42,0h4.02c.95,0,1.73-.77,1.73-1.73v-14.25h0v-4.02c0-.95-.77-1.73-1.73-1.73ZM69.4,65.06v10.24c-2.5.02-4.52,2.04-4.53,4.53h-25.21c-.02-2.49-2.04-4.51-4.54-4.52v-10.26c2.5-.01,4.52-2.03,4.54-4.53h25.21c.02,2.5,2.04,4.52,4.54,4.54h0Z"/>
      </g>
    </g>
  </g>
</svg>