<?xml version="1.0" encoding="UTF-8"?>
<svg id="_Слой_2" data-name="Слой 2" xmlns="http://www.w3.org/2000/svg" viewBox="0 0 161.46 200.19">
  <defs>
    <style>
      .cls-1 {
        stroke-width: 1.71px;
      }

      .cls-1, .cls-2 {
        fill: none;
        stroke: #35a2ff;
        stroke-miterlimit: 10;
      }

      .cls-2 {
        stroke-width: 2.38px;
      }

      .cls-3 {
        fill: #35a2ff;
      }
    </style>
  </defs>
  <g id="_Слой_1-2" data-name="Слой 1">
    <g>
      <rect class="cls-2" x="14.77" y="76.6" width="131.92" height="105.82"/>
      <rect class="cls-2" x="1.19" y="60.02" width="159.08" height="16.58" rx="8.29" ry="8.29"/>
      <rect class="cls-2" x="1.19" y="182.42" width="159.08" height="16.58" rx="8.29" ry="8.29"/>
      <g>
        <rect class="cls-2" x="23.38" y="52.47" width="18.17" height="7.55"/>
        <path class="cls-2" d="M15.02,51.99c.15.89,3.97.32,6.83.48,6.86-.01,22.76.03,27.08-.02,1.59,0,.94-1.02.38-2-1.3-2.13-4.46-7.06-6.25-9.88-1.94-3.62-4.18-3.1-7.93-3.12-2.85.02-5.88-.05-8.71.04-3.43-.13-4.47,3.38-6.2,5.77-1.3,2.24-4.77,7.01-5.2,8.69v.04Z"/>
        <path class="cls-2" d="M15.02,36.97c.15.89,3.97.32,6.83.48,6.86-.01,22.76.03,27.08-.02,1.59,0,.94-1.02.38-2-1.3-2.13-4.46-7.06-6.25-9.88-1.94-3.62-4.18-3.1-7.93-3.12-2.85.02-5.88-.05-8.71.04-3.43-.13-4.47,3.38-6.2,5.77-1.3,2.24-4.77,7.01-5.2,8.69v.04Z"/>
        <path class="cls-2" d="M15.02,21.95c.15.89,3.97.32,6.83.48,6.86-.01,22.76.03,27.08-.02,1.59,0,.94-1.02.38-2-1.3-2.13-4.46-7.06-6.25-9.88-1.94-3.62-4.18-3.1-7.93-3.12-2.85.02-5.88-.05-8.71.04-3.43-.13-4.47,3.38-6.2,5.77-1.3,2.24-4.77,7.01-5.2,8.69v.04Z"/>
        <rect class="cls-2" x="30.55" y="1.19" width="3.84" height="6.2"/>
      </g>
      <g>
        <rect class="cls-2" x="71.65" y="52.47" width="18.17" height="7.55"/>
        <path class="cls-2" d="M63.28,51.99c.15.89,3.97.32,6.83.48,6.86-.01,22.76.03,27.08-.02,1.59,0,.94-1.02.38-2-1.3-2.13-4.46-7.06-6.25-9.88-1.94-3.62-4.18-3.1-7.93-3.12-2.85.02-5.88-.05-8.71.04-3.43-.13-4.47,3.38-6.2,5.77-1.3,2.24-4.77,7.01-5.2,8.69v.04Z"/>
        <path class="cls-2" d="M63.28,36.97c.15.89,3.97.32,6.83.48,6.86-.01,22.76.03,27.08-.02,1.59,0,.94-1.02.38-2-1.3-2.13-4.46-7.06-6.25-9.88-1.94-3.62-4.18-3.1-7.93-3.12-2.85.02-5.88-.05-8.71.04-3.43-.13-4.47,3.38-6.2,5.77-1.3,2.24-4.77,7.01-5.2,8.69v.04Z"/>
        <path class="cls-2" d="M63.28,21.95c.15.89,3.97.32,6.83.48,6.86-.01,22.76.03,27.08-.02,1.59,0,.94-1.02.38-2-1.3-2.13-4.46-7.06-6.25-9.88-1.94-3.62-4.18-3.1-7.93-3.12-2.85.02-5.88-.05-8.71.04-3.43-.13-4.47,3.38-6.2,5.77-1.3,2.24-4.77,7.01-5.2,8.69v.04Z"/>
        <rect class="cls-1" x="78.81" y="1.19" width="3.84" height="6.2"/>
      </g>
      <g>
        <rect class="cls-2" x="120.12" y="52.47" width="18.17" height="7.55"/>
        <path class="cls-2" d="M111.76,51.99c.15.89,3.97.32,6.83.48,6.86-.01,22.76.03,27.08-.02,1.59,0,.94-1.02.38-2-1.3-2.13-4.46-7.06-6.25-9.88-1.94-3.62-4.18-3.1-7.93-3.12-2.85.02-5.88-.05-8.71.04-3.43-.13-4.47,3.38-6.2,5.77-1.3,2.24-4.77,7.01-5.2,8.69v.04Z"/>
        <path class="cls-2" d="M111.76,36.97c.15.89,3.97.32,6.83.48,6.86-.01,22.76.03,27.08-.02,1.59,0,.94-1.02.38-2-1.3-2.13-4.46-7.06-6.25-9.88-1.94-3.62-4.18-3.1-7.93-3.12-2.85.02-5.88-.05-8.71.04-3.43-.13-4.47,3.38-6.2,5.77-1.3,2.24-4.77,7.01-5.2,8.69v.04Z"/>
        <path class="cls-2" d="M111.76,21.95c.15.89,3.97.32,6.83.48,6.86-.01,22.76.03,27.08-.02,1.59,0,.94-1.02.38-2-1.3-2.13-4.46-7.06-6.25-9.88-1.94-3.62-4.18-3.1-7.93-3.12-2.85.02-5.88-.05-8.71.04-3.43-.13-4.47,3.38-6.2,5.77-1.3,2.24-4.77,7.01-5.2,8.69v.04Z"/>
        <rect class="cls-1" x="127.29" y="1.19" width="3.84" height="6.2"/>
      </g>
      <polygon class="cls-3" points="77.29 105.76 98.18 105.76 84.38 124.11 96.49 124.11 67.98 153.26 74.28 133.54 65.77 133.54 77.29 105.76"/>
    </g>
  </g>
</svg>