<?xml version="1.0" encoding="UTF-8"?>
<svg id="_Слой_2" data-name="Слой 2" xmlns="http://www.w3.org/2000/svg" viewBox="0 0 163.45 167.96">
  <defs>
    <style>
      .cls-1 {
        fill: #364044;
      }

      .cls-2 {
        fill: #fff;
      }

      .cls-3 {
        stroke-width: 1.18px;
      }

      .cls-3, .cls-4 {
        fill: none;
        stroke: #35a2ff;
        stroke-miterlimit: 10;
      }

      .cls-4 {
        stroke-width: 1.64px;
      }

      .cls-5 {
        fill: #35a2ff;
      }
    </style>
  </defs>
  <g id="_Слой_1-2" data-name="Слой 1">
    <g>
      <g>
        <rect class="cls-1" x="0" width="163.45" height="167.96" rx="14.82" ry="14.82"/>
        <rect class="cls-2" x="0" width="163.45" height="157.87" rx="14.37" ry="14.37"/>
      </g>
      <g>
        <rect class="cls-4" x="35.61" y="59.15" width="92.23" height="71.46"/>
        <rect class="cls-4" x="26.11" y="47.96" width="111.22" height="11.2" rx="4.68" ry="4.68"/>
        <rect class="cls-4" x="26.11" y="130.61" width="111.22" height="11.2" rx="4.68" ry="4.68"/>
        <g>
          <rect class="cls-4" x="41.63" y="42.86" width="12.7" height="5.1"/>
          <path class="cls-4" d="M35.78,42.53c.1.6,2.78.22,4.78.32,4.8,0,15.91.02,18.93-.02,1.11,0,.66-.69.26-1.35-.91-1.44-3.12-4.77-4.37-6.67-1.35-2.44-2.92-2.09-5.54-2.11-1.99.01-4.11-.03-6.09.03-2.4-.09-3.13,2.28-4.33,3.89-.91,1.51-3.34,4.73-3.64,5.87v.03Z"/>
          <path class="cls-4" d="M35.78,32.39c.1.6,2.78.22,4.78.32,4.8,0,15.91.02,18.93-.02,1.11,0,.66-.69.26-1.35-.91-1.44-3.12-4.77-4.37-6.67-1.35-2.44-2.92-2.09-5.54-2.11-1.99.01-4.11-.03-6.09.03-2.4-.09-3.13,2.28-4.33,3.89-.91,1.51-3.34,4.73-3.64,5.87v.03Z"/>
          <path class="cls-4" d="M35.78,22.25c.1.6,2.78.22,4.78.32,4.8,0,15.91.02,18.93-.02,1.11,0,.66-.69.26-1.35-.91-1.44-3.12-4.77-4.37-6.67-1.35-2.44-2.92-2.09-5.54-2.11-1.99.01-4.11-.03-6.09.03-2.4-.09-3.13,2.28-4.33,3.89-.91,1.51-3.34,4.73-3.64,5.87v.03Z"/>
          <rect class="cls-4" x="46.64" y="8.23" width="2.68" height="4.19"/>
        </g>
        <g>
          <rect class="cls-4" x="75.37" y="42.86" width="12.7" height="5.1"/>
          <path class="cls-4" d="M69.52,42.53c.1.6,2.78.22,4.78.32,4.8,0,15.91.02,18.93-.02,1.11,0,.66-.69.26-1.35-.91-1.44-3.12-4.77-4.37-6.67-1.35-2.44-2.92-2.09-5.54-2.11-1.99.01-4.11-.03-6.09.03-2.4-.09-3.13,2.28-4.33,3.89-.91,1.51-3.34,4.73-3.64,5.87v.03Z"/>
          <path class="cls-4" d="M69.52,32.39c.1.6,2.78.22,4.78.32,4.8,0,15.91.02,18.93-.02,1.11,0,.66-.69.26-1.35-.91-1.44-3.12-4.77-4.37-6.67-1.35-2.44-2.92-2.09-5.54-2.11-1.99.01-4.11-.03-6.09.03-2.4-.09-3.13,2.28-4.33,3.89-.91,1.51-3.34,4.73-3.64,5.87v.03Z"/>
          <path class="cls-4" d="M69.52,22.25c.1.6,2.78.22,4.78.32,4.8,0,15.91.02,18.93-.02,1.11,0,.66-.69.26-1.35-.91-1.44-3.12-4.77-4.37-6.67-1.35-2.44-2.92-2.09-5.54-2.11-1.99.01-4.11-.03-6.09.03-2.4-.09-3.13,2.28-4.33,3.89-.91,1.51-3.34,4.73-3.64,5.87v.03Z"/>
          <rect class="cls-3" x="80.38" y="8.23" width="2.68" height="4.19"/>
        </g>
        <g>
          <rect class="cls-4" x="109.26" y="42.86" width="12.7" height="5.1"/>
          <path class="cls-4" d="M103.41,42.53c.1.6,2.78.22,4.78.32,4.8,0,15.91.02,18.93-.02,1.11,0,.66-.69.26-1.35-.91-1.44-3.12-4.77-4.37-6.67-1.35-2.44-2.92-2.09-5.54-2.11-1.99.01-4.11-.03-6.09.03-2.4-.09-3.13,2.28-4.33,3.89-.91,1.51-3.34,4.73-3.64,5.87v.03Z"/>
          <path class="cls-4" d="M103.41,32.39c.1.6,2.78.22,4.78.32,4.8,0,15.91.02,18.93-.02,1.11,0,.66-.69.26-1.35-.91-1.44-3.12-4.77-4.37-6.67-1.35-2.44-2.92-2.09-5.54-2.11-1.99.01-4.11-.03-6.09.03-2.4-.09-3.13,2.28-4.33,3.89-.91,1.51-3.34,4.73-3.64,5.87v.03Z"/>
          <path class="cls-4" d="M103.41,22.25c.1.6,2.78.22,4.78.32,4.8,0,15.91.02,18.93-.02,1.11,0,.66-.69.26-1.35-.91-1.44-3.12-4.77-4.37-6.67-1.35-2.44-2.92-2.09-5.54-2.11-1.99.01-4.11-.03-6.09.03-2.4-.09-3.13,2.28-4.33,3.89-.91,1.51-3.34,4.73-3.64,5.87v.03Z"/>
          <rect class="cls-3" x="114.27" y="8.23" width="2.68" height="4.19"/>
        </g>
        <polygon class="cls-5" points="79.31 78.84 93.93 78.84 84.27 91.24 92.74 91.24 72.81 110.92 77.22 97.61 71.27 97.61 79.31 78.84"/>
      </g>
    </g>
  </g>
</svg>