<?xml version="1.0" encoding="UTF-8"?>
<svg id="_Слой_2" data-name="Слой 2" xmlns="http://www.w3.org/2000/svg" viewBox="0 0 1016.55 337.29">
  <defs>
    <style>
      .cls-1 {
        fill: #2f426d;
      }

      .cls-2 {
        fill: #fff;
      }

      .cls-3 {
        fill: #1f1f47;
      }

      .cls-4 {
        fill: #899ca5;
      }

      .cls-5 {
        fill: #705b55;
      }

      .cls-6 {
        fill: #57575c;
      }

      .cls-7 {
        fill: #455272;
      }

      .cls-8 {
        fill: #a2c4d7;
      }

      .cls-9 {
        fill: #aab4ba;
      }

      .cls-10 {
        fill: #f2c4a2;
      }

      .cls-11 {
        fill: none;
        stroke: gray;
        stroke-miterlimit: 10;
        stroke-width: .43px;
      }

      .cls-12 {
        fill: #c4c4c8;
      }

      .cls-13 {
        fill: #ffcfab;
      }

      .cls-14 {
        fill: #4c9350;
      }

      .cls-15 {
        fill: #495b7f;
      }

      .cls-16 {
        fill: #f2b06d;
      }

      .cls-17 {
        fill: #42c352;
      }

      .cls-18 {
        fill: #53648b;
      }

      .cls-19 {
        fill: #99a3aa;
      }

      .cls-20 {
        fill: #ffd2aa;
      }

      .cls-21 {
        fill: #b2bcc1;
      }
    </style>
  </defs>
  <g id="_Слой_1-2" data-name="Слой 1">
    <g>
      <rect class="cls-2" width="1016.55" height="337.29" rx="31.72" ry="31.72"/>
      <g>
        <rect class="cls-17" x="244.72" y="265.5" width="51.06" height="30.23" rx="3.05" ry="3.05"/>
        <circle class="cls-14" cx="270.25" cy="280.62" r="8.51"/>
        <circle class="cls-2" cx="270.26" cy="280.62" r="3.87"/>
        <path class="cls-14" d="M293.17,265.51h-5.38v1.63c0,3.51,2.85,6.36,6.36,6.36h1.63v-5.38c0-1.44-1.17-2.62-2.62-2.62Z"/>
        <path class="cls-14" d="M295.78,293.12v-5.38h-1.63c-3.51,0-6.36,2.85-6.36,6.36v1.63h5.38c1.44,0,2.61-1.17,2.61-2.61Z"/>
        <path class="cls-14" d="M247.35,295.73h5.36v-1.62c0-3.51-2.85-6.36-6.36-6.36h-1.62v5.36c0,1.44,1.17,2.61,2.61,2.61Z"/>
        <path class="cls-14" d="M244.72,268.11v5.38h1.63c3.51,0,6.36-2.85,6.36-6.36v-1.63h-5.38c-1.44,0-2.61,1.17-2.61,2.61Z"/>
        <rect class="cls-14" x="244.71" y="273.39" width="1.68" height="14.44"/>
        <rect class="cls-14" x="294.1" y="273.5" width="1.68" height="14.44"/>
        <rect class="cls-14" x="269.71" y="248.22" width="1.68" height="36.25" transform="translate(4.2 536.89) rotate(-90)"/>
        <rect class="cls-14" x="269.71" y="276.77" width="1.68" height="36.25" transform="translate(-24.35 565.44) rotate(-90)"/>
      </g>
      <g>
        <g>
          <g>
            <g>
              <g>
                <ellipse class="cls-10" cx="95.06" cy="72.21" rx="5.46" ry="8.47"/>
                <ellipse class="cls-10" cx="147.27" cy="72.21" rx="5.46" ry="8.47"/>
              </g>
              <g>
                <rect class="cls-13" x="111.4" y="96.28" width="19.52" height="32.72"/>
                <path class="cls-20" d="M113.59,42h15.14c10.23,0,18.53,8.3,18.53,18.53v19.28c0,11.65-9.46,21.11-21.11,21.11h-10c-11.65,0-21.11-9.46-21.11-21.11v-19.28c0-10.23,8.3-18.53,18.53-18.53Z"/>
              </g>
            </g>
            <rect class="cls-6" x="104.22" y="67.5" width="7.91" height="7.91"/>
            <rect class="cls-6" x="130.2" y="67.5" width="7.91" height="7.91"/>
          </g>
          <path class="cls-1" d="M178.23,152.37v29.91h-114.13v-29.91c0-15.41,8.31-28.97,20.66-36.42,4.22-2.54,8.89-4.37,13.89-5.32,2.57-.5,5.24-.76,7.95-.76h4.75l9.81,16.99,9.81-16.99h4.75c2.72,0,5.38.26,7.95.76,5,.95,9.67,2.78,13.89,5.32,12.35,7.45,20.66,21.02,20.66,36.42Z"/>
          <rect class="cls-8" x="94.7" y="158.63" width="50.05" height="23.35"/>
          <path class="cls-3" d="M98.64,110.64v35.43h-13.89v-30.12c4.22-2.54,8.89-4.37,13.89-5.32Z"/>
          <path class="cls-3" d="M157.57,115.95v30.12h-13.89v-35.43c5,.95,9.67,2.78,13.89,5.32Z"/>
          <rect class="cls-15" x="84.76" y="146.08" width="13.89" height="36.2"/>
          <rect class="cls-15" x="143.67" y="146.08" width="13.89" height="36.2"/>
          <rect class="cls-15" x="98.65" y="146.08" width="45.02" height="15.79"/>
          <rect class="cls-3" x="98.64" y="161.87" width="45.03" height="20.41"/>
          <path class="cls-5" d="M92.36,54.09c-1.29,3.12-3.47,17.14,3.02,14.34,5.24-3.13,13.1-5.01,18.55-4.03,1.93.28,3.55.74,5.26,1.36,3.37,1.56,8.11.77,11.26-1.28,3.63-2.05,8.09-1.56,11.96-.51,3.36,1,5.64,3.51,8.9,4.4,1.01.27,1.7.18,1.96-.27.46-.75-.16-2.33-.54-4.41-.38-1.96-.37-3.36-.18-5.47,1.52-9.05-8.74-11.18-15.76-10.42-15.6.13-35.63-3.8-41.54,1.15-1.01.88-1.99,2.68-2.78,4.85l-.11.3Z"/>
          <g>
            <path class="cls-7" d="M90.12,55.99h62.09c-.28-3.37-1.36-11.6-6.9-19.02-8.47-11.35-20.62-11.75-23.14-11.84-3.54-.12-16.39.11-25.14,11.84-5.48,7.34-6.61,15.51-6.9,19.02Z"/>
            <rect class="cls-12" x="105.96" y="41.32" width="30.41" height="5.96"/>
            <path class="cls-18" d="M96.6,65.82c1.96.74,4.07-.18,6.23-.3,6.59-.88,15.95-1.34,23.79-1.02,6.81.21,12.33.96,17.6,1.68,1.38.18,2.34-.79,3.03-1.89,1.16-1.78,3.02-4.78,4.05-6.4.21-.33.41-.66.59-.96.62-1.05.3-.91-.48-.93-7.35.03-54.15-.05-61.08.03-.99.16,2.11,4.1,2.75,5.38,1.08,1.61,2.12,3.78,3.45,4.38l.08.04Z"/>
          </g>
        </g>
        <g>
          <g>
            <path class="cls-16" d="M25.44,112.22l.95.95c2.01,2.01,5.6,1.57,7.88-.88l17.19-18.49-6.64-6.64-18.49,17.19c-2.45,2.28-2.89,5.87-.88,7.88Z"/>
            <g>
              <polygon class="cls-4" points="71.6 71.11 71.6 71.11 71.6 71.11 71.6 71.11 77.32 63.89 74.72 61.29 67.51 67.01 69.55 69.06 67.51 67.01 66.32 69.18 69.43 72.3 71.6 71.11 71.6 71.11"/>
              <rect class="cls-4" x="55.81" y="66.65" width="4.4" height="27.91" transform="translate(73.99 -17.41) rotate(45)"/>
            </g>
            <rect class="cls-16" x="42.4" y="90.32" width="10.69" height="1.15" transform="translate(78.26 -7.14) rotate(45)"/>
            <line class="cls-11" x1="43.24" y1="95.4" x2="31.72" y2="106.93"/>
            <line class="cls-11" x1="48.76" y1="93.69" x2="42.59" y2="99.86"/>
          </g>
          <g>
            <path class="cls-9" d="M43.03,61.04c-2.99-2.99-7.31-3.82-11-2.47l4.72,4.72v2.07s-2,2-2,2l37.56,37.56,2-2h2.07s4.72,4.72,4.72,4.72c1.35-3.68.52-8-2.47-11-1.5-1.5-3.43-2.31-3.72-2.41-2.64-1-4.97-.65-5.94-.44l-23.09-23.09c.74-3.35-.22-7.03-2.86-9.66Z"/>
            <path class="cls-19" d="M72.32,104.92l-37.56-37.56-2,2h-2.07s-4.72-4.72-4.72-4.72c-1.35,3.68-.52,8,2.47,11,1.5,1.5,3.43,2.31,3.72,2.41,2.64,1,4.97.65,5.94.44l23.09,23.09c-.74,3.35.22,7.03,2.86,9.66,2.99,2.99,7.31,3.82,11,2.47l-4.72-4.72v-2.07s2-2,2-2Z"/>
            <rect class="cls-21" x="52.05" y="68.55" width="1.91" height="34.1" rx=".95" ry=".95" transform="translate(-45.01 62.56) rotate(-45)"/>
          </g>
        </g>
      </g>
    </g>
  </g>
</svg>