<?xml version="1.0" encoding="UTF-8"?>
<svg id="_Слой_2" data-name="Слой 2" xmlns="http://www.w3.org/2000/svg" viewBox="0 0 1016.55 337.29">
  <defs>
    <style>
      .cls-1 {
        fill: #7f5e40;
      }

      .cls-2 {
        fill: #dd7676;
      }

      .cls-3 {
        fill: #fff;
      }

      .cls-4 {
        fill: #57575c;
      }

      .cls-5 {
        fill: #f2c4a2;
      }

      .cls-6 {
        fill: #c4c4c8;
      }

      .cls-7 {
        fill: #ffcfab;
      }

      .cls-8 {
        fill: #aaa9af;
      }

      .cls-9 {
        fill: #4c9350;
      }

      .cls-10 {
        fill: #9c7b53;
      }

      .cls-11 {
        fill: #42c352;
      }

      .cls-12 {
        fill: #ffd2aa;
      }
    </style>
  </defs>
  <g id="_Слой_1-2" data-name="Слой 1">
    <g>
      <rect class="cls-3" y="0" width="1016.55" height="337.29" rx="31.72" ry="31.72"/>
      <g>
        <path class="cls-2" d="M103.94,119.17h42.33c9.03,0,16.36,7.33,16.36,16.36v35.29h-75.04v-35.29c0-9.03,7.33-16.36,16.36-16.36Z"/>
        <rect class="cls-10" x="39.09" y="159.91" width="173.25" height="15.75"/>
        <rect class="cls-1" x="46.96" y="175.66" width="157.5" height="7.87"/>
        <g>
          <g>
            <g>
              <ellipse class="cls-5" cx="103.7" cy="82.25" rx="4.61" ry="7.14"/>
              <ellipse class="cls-5" cx="147.72" cy="82.25" rx="4.61" ry="7.14"/>
            </g>
            <g>
              <rect class="cls-7" x="115.76" y="102.54" width="19.89" height="16.63"/>
              <path class="cls-12" d="M120.06,56.78h11.31c9.03,0,16.36,7.33,16.36,16.36v14.69c0,10.28-8.35,18.63-18.63,18.63h-6.76c-10.28,0-18.63-8.35-18.63-18.63v-14.69c0-9.03,7.33-16.36,16.36-16.36Z"/>
            </g>
          </g>
          <rect class="cls-4" x="111.42" y="78.28" width="6.67" height="6.67"/>
          <rect class="cls-4" x="133.33" y="78.28" width="6.67" height="6.67"/>
        </g>
        <g>
          <path class="cls-8" d="M94.87,146.94h61.69v9.78c0,1.73-1.41,3.14-3.14,3.14h-55.41c-1.73,0-3.14-1.41-3.14-3.14v-9.78h0Z"/>
          <path class="cls-6" d="M102.15,152.95h47.13c3.12,0,6.32-2.3,7.14-5.25l7.14-25.51c1.33-4.76-1.03-8.92-5.33-8.92h-65.02c-4.3,0-6.66,4.15-5.33,8.92l7.14,25.51c.82,2.95,4.02,5.25,7.14,5.25Z"/>
        </g>
        <path class="cls-4" d="M139.6,69.28c-2.96,1.63-6.66,3.37-11.06,4.81-6.49,2.13-10.1,3.31-14.92,2.88-5.78-.51-7.66-2.84-11.96-1.51-3.46,1.06-4.55,3.26-6.36,2.62-2.3-.81-3.09-5.34-2.49-8.63.7-3.8,3.29-6.11,4.25-6.88.32-.55.84-1.65.66-2.97-.31-2.24-2.43-3.47-3.19-3.92-2.95-1.72-4.95-.53-5.59-1.63-1.04-1.8,2.92-7.27,8.53-9.49,2.3-.91,4.27-1.04,5.6-1.09,9.59-.36,12.36,2.26,19.96,2.59,9.14.39,11.06-3.15,18.41-1.1,4.34,1.21,7.78,3.59,8.28,3.94,2.03,1.43,3.64,2.55,4.99,4.66,2.16,3.38,2.22,7.04,2.28,10.08.06,3.34-.52,3.18-.3,6.06.34,4.44,1.87,6.8.91,7.57-.87.7-2.24-1.1-4.85-1.01-3.28.12-4.36,3.08-6.45,3.08-1.72,0-3.99-2.01-6.7-10.06Z"/>
        <g>
          <path class="cls-8" d="M138.89,129.14c-8-5.26-18.36-5.26-26.37,0-.83-1.27-1.66-2.53-2.5-3.8,9.52-6.25,21.84-6.25,31.36,0-.83,1.27-1.66,2.53-2.5,3.8Z"/>
          <path class="cls-8" d="M133.62,134.34c-4.8-3.16-11.03-3.16-15.83,0-.5-.76-1-1.52-1.5-2.28,5.71-3.75,13.11-3.75,18.83,0-.5.76-1,1.52-1.5,2.28Z"/>
          <path class="cls-8" d="M130.53,138.57c-2.93-1.92-6.72-1.92-9.65,0-.3-.46-.61-.93-.91-1.39,3.48-2.29,7.99-2.29,11.48,0-.3.46-.61.93-.91,1.39Z"/>
          <rect class="cls-8" x="124.06" y="141.04" width="3.29" height="2.95"/>
        </g>
      </g>
      <g>
        <rect class="cls-11" x="244.72" y="265.5" width="51.06" height="30.23" rx="3.05" ry="3.05"/>
        <circle class="cls-9" cx="270.25" cy="280.62" r="8.51"/>
        <circle class="cls-3" cx="270.26" cy="280.62" r="3.87"/>
        <path class="cls-9" d="M293.17,265.51h-5.38v1.63c0,3.51,2.85,6.36,6.36,6.36h1.63v-5.38c0-1.44-1.17-2.62-2.62-2.62Z"/>
        <path class="cls-9" d="M295.78,293.12v-5.38h-1.63c-3.51,0-6.36,2.85-6.36,6.36v1.63h5.38c1.44,0,2.61-1.17,2.61-2.61Z"/>
        <path class="cls-9" d="M247.35,295.73h5.36v-1.62c0-3.51-2.85-6.36-6.36-6.36h-1.62v5.36c0,1.44,1.17,2.61,2.61,2.61Z"/>
        <path class="cls-9" d="M244.72,268.11v5.38h1.63c3.51,0,6.36-2.85,6.36-6.36v-1.63h-5.38c-1.44,0-2.61,1.17-2.61,2.61Z"/>
        <rect class="cls-9" x="244.71" y="273.39" width="1.68" height="14.44"/>
        <rect class="cls-9" x="294.1" y="273.5" width="1.68" height="14.44"/>
        <rect class="cls-9" x="269.71" y="248.22" width="1.68" height="36.25" transform="translate(4.2 536.89) rotate(-90)"/>
        <rect class="cls-9" x="269.71" y="276.77" width="1.68" height="36.25" transform="translate(-24.35 565.44) rotate(-90)"/>
      </g>
    </g>
  </g>
</svg>