<?xml version="1.0" encoding="UTF-8"?>
<svg id="_Слой_2" data-name="Слой 2" xmlns="http://www.w3.org/2000/svg" viewBox="0 0 307.57 104.49">
  <defs>
    <style>
      .cls-1 {
        fill: #fff;
      }

      .cls-2 {
        fill: #4c9350;
      }

      .cls-3 {
        fill: #006177;
      }

      .cls-4 {
        fill: #42c352;
      }

      .cls-5 {
        fill: #00454c;
      }
    </style>
  </defs>
  <g id="_Слой_1-2" data-name="Слой 1">
    <g>
      <g>
        <rect class="cls-5" x="0" y="5.86" width="307.57" height="98.63" rx="21.06" ry="21.06"/>
        <rect class="cls-3" x="0" y="0" width="307.57" height="98.63" rx="21.06" ry="21.06"/>
      </g>
      <g>
        <rect class="cls-4" x="16.73" y="54.16" width="48.05" height="28.45" rx="2.02" ry="2.02"/>
        <circle class="cls-2" cx="40.76" cy="68.39" r="8.01"/>
        <circle class="cls-1" cx="40.76" cy="68.38" r="3.64"/>
        <path class="cls-2" d="M62.32,54.16h-5.06v1.54c0,3.3,2.68,5.98,5.98,5.98h1.54v-5.06c0-1.36-1.1-2.46-2.46-2.46Z"/>
        <path class="cls-2" d="M64.78,80.15v-5.06h-1.54c-3.3,0-5.98,2.68-5.98,5.98v1.54h5.06c1.36,0,2.46-1.1,2.46-2.46Z"/>
        <path class="cls-2" d="M19.2,82.61h5.04v-1.52c0-3.3-2.68-5.98-5.98-5.98h-1.52v5.04c0,1.36,1.1,2.46,2.46,2.46Z"/>
        <path class="cls-2" d="M16.73,56.61v5.06h1.54c3.3,0,5.98-2.68,5.98-5.98v-1.54h-5.06c-1.36,0-2.46,1.1-2.46,2.46Z"/>
        <rect class="cls-2" x="16.72" y="61.59" width="1.58" height="13.59"/>
        <rect class="cls-2" x="63.2" y="61.68" width="1.58" height="13.59"/>
        <rect class="cls-2" x="40.24" y="37.89" width="1.58" height="34.11" transform="translate(-13.92 95.98) rotate(-90)"/>
        <rect class="cls-2" x="40.24" y="64.76" width="1.58" height="34.11" transform="translate(-40.79 122.85) rotate(-90)"/>
      </g>
    </g>
  </g>
</svg>