<?xml version="1.0" encoding="UTF-8"?>
<svg id="_Слой_2" data-name="Слой 2" xmlns="http://www.w3.org/2000/svg" viewBox="0 0 148.3 139.66">
  <defs>
    <style>
      .cls-1 {
        fill: #434d56;
      }

      .cls-2 {
        fill: #e8be56;
      }

      .cls-3 {
        fill: #606060;
      }

      .cls-4 {
        fill: #899ca5;
      }

      .cls-5 {
        fill: #aab4ba;
      }

      .cls-6 {
        fill: #ef5e25;
      }

      .cls-7 {
        fill: none;
        stroke: gray;
        stroke-miterlimit: 10;
        stroke-width: .53px;
      }

      .cls-8 {
        fill: #f2b06d;
      }

      .cls-9 {
        fill: #515c69;
      }

      .cls-10 {
        fill: #99a3aa;
      }

      .cls-11 {
        fill: #007e9b;
      }

      .cls-12 {
        fill: #b2bcc1;
      }
    </style>
  </defs>
  <g id="_Слой_1-2" data-name="Слой 1">
    <g>
      <rect class="cls-11" x="0" width="148.3" height="139.66" rx="27.71" ry="27.71"/>
      <g>
        <g>
          <path class="cls-8" d="M73.32,90.85h1.64c3.48,0,6.2-3.48,6.05-7.57l-1.13-30.82h-11.47s-1.13,30.82-1.13,30.82c-.15,4.09,2.57,7.57,6.05,7.57Z"/>
          <g>
            <polygon class="cls-4" points="77.67 15.48 77.67 15.48 77.67 15.48 77.67 15.48 76.39 4.31 71.89 4.31 70.6 15.48 74.14 15.48 70.6 15.48 71.45 18.38 76.83 18.38 77.67 15.48 77.67 15.48"/>
            <rect class="cls-4" x="71.45" y="18.38" width="5.38" height="34.09"/>
          </g>
          <rect class="cls-8" x="67.63" y="52.47" width="13.06" height="1.41"/>
          <line class="cls-7" x1="74.16" y1="60.96" x2="74.16" y2="80.86"/>
          <line class="cls-7" x1="77.45" y1="54.71" x2="77.45" y2="65.37"/>
        </g>
        <g>
          <path class="cls-5" d="M38.77,19.82c-1.74-4.51-5.87-7.36-10.34-7.65l2.75,7.11-.95,2.16-3,1.16,21.87,56.54,3-1.16,2.16.95,2.75,7.11c3.11-3.22,4.24-8.11,2.5-12.62-.88-2.26-2.52-3.99-2.77-4.23-2.29-2.26-4.89-2.97-6-3.21l-13.45-34.76c2.32-3.16,3.01-7.44,1.48-11.4Z"/>
          <path class="cls-10" d="M49.1,79.13L27.23,22.59l-3.01,1.16-2.16-.95-2.75-7.11c-3.11,3.22-4.24,8.11-2.5,12.62.88,2.26,2.52,3.99,2.77,4.23,2.29,2.26,4.89,2.97,6,3.21l13.45,34.76c-2.32,3.16-3.01,7.44-1.48,11.4,1.74,4.51,5.87,7.36,10.34,7.65l-2.75-7.11.95-2.16,3.01-1.16Z"/>
          <rect class="cls-12" x="36.76" y="30.6" width="2.17" height="38.92" rx="1.09" ry="1.09" transform="translate(-15.51 17.03) rotate(-21.15)"/>
        </g>
        <g>
          <g>
            <path class="cls-5" d="M121.72,26.67c.44-5.02.88-10.04,1.32-15.06-1.14.51-4.39,2.15-6.7,6.03-1.41,2.36-1.9,4.6-2.09,5.91l7.47,3.11Z"/>
            <path class="cls-10" d="M115.73,33.55c-.71,1.71-.09,3.59,1.39,4.2l-2.43,5.86c-.43-.15-1.03-.43-1.64-.95-.63-.53-1.03-1.11-1.27-1.53-1.93,1.55-3.86,3.1-5.79,4.65-1.96-.85-3.93-1.7-5.89-2.55,3.35-2.66,6.71-5.32,10.06-7.98l.12-2.11,3.98-9.59,7.47,3.11-2.03,4.91c-1.47-.61-3.24.27-3.95,1.97Z"/>
            <path class="cls-6" d="M107.2,45.28c-4.29,3.2-7.05,6.43-8.76,8.75-3.56,4.83-5.84,9.58-5.84,9.58-2.36,4.91-2.94,7.94-5.23,8.76-1.19.43-2.61.17-3.51-.69-1.22-1.17-1.13-3.12-1.08-4.15.13-2.71,1.28-4.81,2.36-6.66,3.71-6.37,5.58-9.55,9.25-13.47,1.31-1.4,3.17-3.25,5.6-5.2,2.4,1.02,4.81,2.05,7.21,3.07Z"/>
          </g>
          <g>
            <path class="cls-5" d="M121.66,26.65c3.24-3.85,6.48-7.7,9.72-11.56.44,1.17,1.57,4.63.46,9.01-.68,2.67-1.91,4.59-2.71,5.66-2.49-1.04-4.98-2.08-7.47-3.11Z"/>
            <path class="cls-10" d="M121.01,35.75c-.71,1.71-2.47,2.59-3.95,1.98l-2.43,5.86c.41.2,1.03.43,1.83.5.82.07,1.51-.05,1.98-.18.26,2.46.53,4.93.8,7.39,1.99.8,3.97,1.59,5.96,2.39-.48-4.26-.97-8.52-1.45-12.78l1.41-1.57,3.98-9.59-7.47-3.11-2.03,4.91c1.47.61,2.09,2.5,1.39,4.2Z"/>
            <path class="cls-6" d="M118.73,50.09c.76,5.3.43,9.54-.01,12.4-.91,5.93-2.66,10.91-2.66,10.91-1.81,5.14-3.54,7.69-2.5,9.9.54,1.15,1.73,1.98,2.97,2.01,1.68.04,3-1.4,3.69-2.16,1.83-2,2.49-4.3,3.04-6.37,1.89-7.13,2.81-10.7,3-16.07.07-1.92.06-4.55-.27-7.65-2.42-.99-4.84-1.98-7.26-2.96Z"/>
          </g>
        </g>
        <g>
          <rect class="cls-2" x="20.03" y="73" width="110.18" height="51.58"/>
          <path class="cls-3" d="M26.51,55.23h97.23c3.57,0,6.47,2.9,6.47,6.47v11.3H20.03v-11.3c0-3.57,2.9-6.47,6.47-6.47Z"/>
          <path class="cls-1" d="M91.04,44.8v10.42h-5.1v-9.01c0-1.29-1.04-2.33-2.33-2.33h-18.93c-1.29,0-2.34,1.04-2.34,2.33v9.01h-5.1v-10.42c0-3.21,2.6-5.82,5.81-5.82h22.17c3.21,0,5.82,2.6,5.82,5.82Z"/>
          <rect class="cls-1" x="35.76" y="67.92" width="16.02" height="23.92"/>
          <rect class="cls-9" x="35.76" y="81.13" width="16.02" height="5.17"/>
          <rect class="cls-1" x="98.46" y="67.92" width="16.02" height="23.92"/>
          <rect class="cls-9" x="98.46" y="81.13" width="16.02" height="5.17"/>
        </g>
      </g>
    </g>
  </g>
</svg>