<?xml version="1.0" encoding="UTF-8"?>
<svg id="_Слой_2" data-name="Слой 2" xmlns="http://www.w3.org/2000/svg" viewBox="0 0 198.57 75.49">
  <defs>
    <style>
      .cls-1 {
        fill: #ffc107;
      }

      .cls-2 {
        fill: #fff;
      }

      .cls-3 {
        fill: #f7c85e;
      }

      .cls-4 {
        fill: #006177;
      }

      .cls-5 {
        fill: #8799a0;
      }

      .cls-6 {
        fill: #7c8d93;
      }

      .cls-7 {
        fill: #90a4ae;
      }
    </style>
  </defs>
  <g id="_Слой_1-2" data-name="Слой 1">
    <g>
      <path class="cls-4" d="M23.93,0h150.71C187.85,0,198.57,10.72,198.57,23.93v51.56H0V23.93C0,10.72,10.72,0,23.93,0Z"/>
      <g>
        <path class="cls-7" d="M150.71,16.2l-77.56,34.61.25-23.21,54.51-13.23-.15-.63c.36-.08.71-.16,1.06-.23,1.71-.38,3.35-.73,4.9-1.07l-.56,1.61,1.41-.56,16.15,2.73Z"/>
        <path class="cls-5" d="M151.76,18.88l-3.32,7.53-6.89-3.04-3.28,7.44-6.92-3.05-3.36,7.63-6.44-2.84-3.27,7.41-6.86-3.03-3.27,7.41-6.53-2.88-3.28,7.44-6.67-2.94-3.51,7.96-6.45-2.84-3.23,7.32-5.37-2.37.05-5.24,77.57-34.61c.35.9.69,1.79,1.04,2.69Z"/>
        <path class="cls-2" d="M134.15,12.85l-60.75,14.75.02-2.02s33.84-7.38,55.95-12.2l4.79-.53Z"/>
        <path class="cls-1" d="M55.09,34.55l.4-.09c1.81-.39,3.62.77,4.01,2.58l3.99,18.45,13.6-6.98.96-2.64c-1.55-6.77-3.09-13.53-4.64-20.3-1.19.26-2.38.52-3.57.78-1.45.29-10.52,2.15-17.52,4.03-1.42.38-2.69.89-3.77,2.1-1.8,2.02-1.81,4.77-1.71,6.12,1.61,7.65,3.22,15.29,4.82,22.94l5.32-2.73c-.11-.23-.2-.48-.26-.75l-4.22-19.52c-.39-1.81.77-3.62,2.58-4.01Z"/>
        <path class="cls-3" d="M72.03,62.35c-3.84,1.22-7.67,2.45-11.51,3.67-.41.13-1.01.2-1.81.17-3.21-.1-5.59-2.34-6.86-3.78-.06-.29-.12-.57-.18-.86l5.32-2.73c.66,1.37,2.2,2.17,3.75,1.84l.4-.09c1.81-.39,2.97-2.19,2.58-4.01l-.23-1.08,13.6-6.98-5.06,13.84Z"/>
        <path class="cls-6" d="M150.72,16.2h0s-17.56-2.17-17.56-2.17l-4.34-.53c1.71-.38,3.35-.73,4.9-1.07,8.1-1.76,13.83-3.02,14.33-3.13.89,2.3,1.78,4.6,2.68,6.9Z"/>
      </g>
    </g>
  </g>
</svg>