<?xml version="1.0" encoding="UTF-8"?>
<svg id="_Слой_2" data-name="Слой 2" xmlns="http://www.w3.org/2000/svg" viewBox="0 0 198.57 75.49">
  <defs>
    <style>
      .cls-1 {
        fill: #d32f2f;
      }

      .cls-2, .cls-3 {
        fill: #324577;
      }

      .cls-3 {
        stroke: #27375b;
        stroke-miterlimit: 10;
      }

      .cls-4 {
        fill: #b4724b;
      }

      .cls-5 {
        fill: #28365e;
      }

      .cls-6 {
        fill: #9f6245;
      }

      .cls-7 {
        fill: #f2f2f2;
      }

      .cls-8 {
        fill: #f2c4a2;
      }

      .cls-9 {
        fill: #006177;
      }

      .cls-10 {
        fill: #ffd2aa;
      }

      .cls-11 {
        fill: #c07751;
      }
    </style>
  </defs>
  <g id="_Слой_1-2" data-name="Слой 1">
    <g>
      <path class="cls-9" d="M23.93,0h150.71C187.85,0,198.57,10.72,198.57,23.93v51.56H0V23.93C0,10.72,10.72,0,23.93,0Z"/>
      <g>
        <g>
          <path class="cls-2" d="M131.2,61.69v13.81h-59v-13.81c0-3.99,2.61-7.49,6.42-8.66,3.29-1.02,7.16-1.98,11.54-2.64.39-.06.79-.12,1.19-.17.78-.1,1.57-.2,2.38-.28,0,0,.02,0,.03,0h15.89s.01,0,.02,0c.81.08,1.6.18,2.37.28.4.05.8.11,1.19.17,4.43.66,8.35,1.64,11.66,2.67,3.76,1.17,6.31,4.69,6.31,8.63Z"/>
          <path class="cls-5" d="M112.04,50.21c-.77-.1-1.56-.2-2.37-.28h0s-15.94,0-15.94,0h0c-.81.08-1.6.18-2.38.28-.4.05-.8.11-1.19.17l11.54,19.98,11.53-19.98c-.39-.06-.79-.12-1.19-.17Z"/>
          <path class="cls-8" d="M93.74,52.23v1.33c.49.69,3.6,4.3,7.97,4.54,4.91.26,7.75-3.71,7.97-4.54v-1.33h-15.94ZM93.74,41.6v10.17h15.94v-10.17h-15.94Z"/>
          <path class="cls-8" d="M111.77,35.54h0c-.3,0-.54-.23-.54-.51v-3.3c0-.28.25-.51.54-.51h0c.16,0,.74-.9,1.4-.79.34.06.55.66.63,1.25.08.54-.06,1.09-.36,1.56l-1.13,1.78c0,.28-.25.51-.54.51Z"/>
          <path class="cls-8" d="M91.75,35.54h0c.3,0,.54-.23.54-.51v-3.3c0-.28-.25-.51-.54-.51h0c-.16,0-.74-.9-1.4-.79-.34.06-.55.66-.63,1.25-.08.54.06,1.09.36,1.56l1.13,1.78c0,.28.25.51.54.51Z"/>
          <path class="cls-10" d="M112.52,23.65v14.25c0,2.46-1,4.71-2.64,6.4-.07.07-.14.14-.21.2v.67c-.86.7-1.82,1.28-2.86,1.7-1.36.57-2.84.89-4.4.89h-1.42c-2.74,0-5.28-.97-7.26-2.59v-.77s-.06-.06-.09-.09c-1.38-1.43-2.31-3.25-2.57-5.25-.06-.38-.08-.76-.08-1.15v-14.25c0-3.15,2.74-5.74,6.09-5.74h9.36c3.35,0,6.09,2.58,6.09,5.74Z"/>
          <path class="cls-4" d="M117.24,23.74c.01,1.24-.35,2.58-1.07,5.24-.63,2.31-1.08,3.31-2.18,3.75-.52.21-1.1.24-1.46.24v-.51c-.04-2.63.02-5.27-.02-7.9-.08-.28-.73-2.18-2.79-2.83-.28-.08-1.13-.35-2.08-.14-.91.2-1.31.69-1.97,1.21-1.15.9-2.31,1.27-4.06,1.82-1.08.34-2.55.81-4.47.86-2.4.06-3.39-.57-4.66,0-.14.06-.27.14-.27.14-.19.12-.43.33-.68.86-.27.59-.35,1.15-.38,1.56-.01.82-.02,1.64-.02,2.46-.01.83-.01,1.65-.02,2.47-.23,0-.54-.02-.9-.08,0,0-.54-.09-1.01-.28-.95-.38-1.64-1.38-1.92-6.39-.12-2.13-.2-3.53-.11-4.64.11.02.2.04.29.04.21,0,.72-.01,1.86-.88,1.13-.84,1.47-1.45,2.18-2.18.27-.27,1.78-1.76,3.87-2.32,1.48-.39,1.57.12,3.84-.15,2.15-.26,2.29-.75,4.03-.88,2.01-.16,2.35.43,4.25.46.77.01,1.61-.08,2.37-.25.56.11,1.11.16,1.94.46.41.14,2.84,1.02,4.3,3.01.47.65.74,1.27.9,1.92.21.88.21,1.83.22,2.93Z"/>
          <path class="cls-11" d="M109.87,15.42c-.76.16-1.6.26-2.37.25-1.9-.02-2.24-.62-4.25-.46-1.75.13-1.89.62-4.03.88-2.26.27-2.36-.23-3.84.15-2.09.56-3.6,2.05-3.87,2.32-.72.73-1.06,1.34-2.18,2.18-1.15.87-1.65.88-1.86.88-.09,0-.19-.01-.29-.04.05-.5.12-.95.25-1.38.39-1.38,1-3.5,3.24-5.35,2.1-1.72,4.47-2.28,5.69-2.55,1.45-.33,5.82-1.29,8.78.47,1.21.72,1.34,1.38,3.04,2.13.72.32,1.22.42,1.7.5Z"/>
          <path class="cls-6" d="M117.24,23.74c.01,1.24-.35,2.58-1.07,5.24-.63,2.31-1.08,3.31-2.18,3.75-.52.21-1.1.24-1.46.24v-.51c.71-.65,1.38-1.37,1.68-2.16.45-1.16.86-2.59.86-2.59.14-.47.32-1.09.55-2.09.84-3.47.82-4.56,1.4-4.82.21.88.21,1.83.22,2.93Z"/>
          <path class="cls-10" d="M106.81,46.87c-1.36.57-2.84.89-4.4.89h-1.42c-2.74,0-5.28-.97-7.26-2.59v-.77s-.06-.06-.09-.09c-1.38-1.43-2.31-3.25-2.57-5.25.27.41.61.86,1.03,1.3.2.2,1.1,1.15,2.62,2.02,1.82,1.03,3.47,1.36,4.71,1.61,1.57.29,2.36.45,3.31.41,1.2-.05,2.19-.3,3,.34.29.23.45.49.6.75.26.46.41.94.47,1.4Z"/>
          <path class="cls-7" d="M112.04,50.21l-6.44,11.15-1.29,2.23-2.6,4.5-.02.03h0s-2.54-4.41-2.54-4.41l-1.27-2.19-6.53-11.31c.78-.1,1.57-.2,2.38-.28h0c1.69.63,4.34,1.4,7.67,1.44.12,0,.23,0,.35,0h.01c3.46,0,6.21-.82,7.91-1.45h0c.81.08,1.6.18,2.37.28Z"/>
          <g>
            <polygon class="cls-1" points="98.59 54.73 101.76 51.37 104.92 54.73 101.76 58.1 98.59 54.73"/>
            <polygon class="cls-1" points="105.61 61.36 104.32 63.59 101.72 68.09 101.7 68.11 99.16 63.72 97.89 61.52 100.21 57.24 100.48 56.74 101.79 54.33 103.08 56.7 103.37 57.24 105.61 61.36"/>
          </g>
        </g>
        <line class="cls-3" x1="82.65" y1="60.8" x2="82.65" y2="75.49"/>
        <line class="cls-3" x1="120.76" y1="60.76" x2="120.76" y2="75.46"/>
      </g>
    </g>
  </g>
</svg>