<?xml version="1.0" encoding="UTF-8"?>
<svg id="_Слой_2" data-name="Слой 2" xmlns="http://www.w3.org/2000/svg" viewBox="0 0 1039.94 152.83">
  <defs>
    <style>
      .cls-1 {
        fill: #004059;
      }

      .cls-2 {
        opacity: .05;
      }

      .cls-2, .cls-3, .cls-4, .cls-5, .cls-6, .cls-7 {
        fill: #fff;
      }

      .cls-4 {
        opacity: 0;
      }

      .cls-5 {
        opacity: .17;
      }

      .cls-6 {
        opacity: .13;
      }

      .cls-7 {
        opacity: .09;
      }
    </style>
  </defs>
  <g id="_Слой_1-2" data-name="Слой 1">
    <g>
      <path class="cls-1" d="M1039.94,22.11v108.6c0,1.99-.26,3.92-.76,5.76-.5,1.88-1.24,3.66-2.21,5.3-3.81,6.61-10.95,11.06-19.14,11.06H0V0h1017.83c8.16,0,15.29,4.42,19.11,11,.97,1.64,1.72,3.42,2.23,5.3.5,1.85.77,3.8.77,5.81Z"/>
      <polygon class="cls-2" points="706.93 0 841.31 152.83 631.5 152.83 497.12 0 706.93 0"/>
      <polygon class="cls-7" points="497.05 0 631.43 152.83 421.62 152.83 287.24 0 497.05 0"/>
      <polygon class="cls-6" points="287.21 0 421.59 152.83 211.78 152.83 77.4 0 287.21 0"/>
      <path class="cls-4" d="M1039.94,22.11v108.6c0,1.99-.26,3.92-.76,5.76-.5,1.88-1.24,3.66-2.21,5.3-3.81,6.61-10.95,11.06-19.14,11.06h-172.99L710.46,0h307.37c8.16,0,15.29,4.42,19.11,11,.97,1.64,1.72,3.42,2.23,5.3.5,1.85.77,3.8.77,5.81Z"/>
      <polygon class="cls-5" points="211.66 152.83 1.85 152.83 0 152.83 0 0 77.28 0 211.66 152.83"/>
      <path class="cls-3" d="M1039.17,16.3H0v-5.3h1036.94c.97,1.64,1.72,3.42,2.23,5.3Z"/>
      <path class="cls-3" d="M1039.18,136.47c-.5,1.88-1.24,3.66-2.21,5.3H0v-5.3h1039.18Z"/>
    </g>
  </g>
</svg>