<svg xmlns="http://www.w3.org/2000/svg" xmlns:xlink="http://www.w3.org/1999/xlink" viewBox="0 0 848.36 679"><defs><style>.cls-1{fill:#fff;}.cls-2{fill:url(#Безымянный_градиент_40);}.cls-3{fill:#00a6c2;}.cls-4{fill:#00ccef;}.cls-5{fill:#2ce4ff;}.cls-6{opacity:0.28;}.cls-7{fill:#e2eaff;}.cls-8{opacity:0.1;}</style><linearGradient id="Безымянный_градиент_40" x1="168.61" y1="263.4" x2="71.29" y2="94.85" gradientUnits="userSpaceOnUse"><stop offset="0" stop-color="#00373d"/><stop offset="1" stop-color="#006177"/></linearGradient></defs><title>Back_diam</title><g id="Слой_2" data-name="Слой 2"><g id="Слой_1-2" data-name="Слой 1"><rect class="cls-1" width="848.36" height="679" rx="42.22"/><path class="cls-2" d="M217.24,179.13c0,1.49,0,3-.1,4.44,0,.88-.09,1.76-.15,2.63,0,.08,0,.16,0,.24,0,.37-.05.73-.1,1.1a.76.76,0,0,1,0,.15c0,.11,0,.22,0,.33s0,.21,0,.32c-.06.6-.12,1.19-.19,1.79,0,.12,0,.25,0,.37q-.45,3.9-1.21,7.69-.1.57-.24,1.14c-.1.5-.21,1-.32,1.49s-.2.88-.31,1.32l-.06.23a.5.5,0,0,1,0,.12c0,.09,0,.18-.07.27-.1.4-.2.8-.31,1.2,0,.14-.07.27-.11.4-.08.34-.18.68-.27,1,0,.13-.07.26-.11.39-.3,1-.61,2.09-1,3.12-.14.45-.29.89-.44,1.34l-.41,1.2,0,0c-.32.94-.67,1.87-1,2.8l-.24.62c-.11.28-.22.55-.34.83-.17.43-.35.87-.54,1.3l-.05.12c0,.11-.09.21-.14.32s-.13.31-.2.46l-.05.11a.11.11,0,0,1,0,.07c-.11.29-.24.57-.38.86,0,.13-.11.26-.17.4-.24.52-.48,1-.73,1.57,0,0,0,0,0,0-.39.81-.79,1.62-1.19,2.42a97.3,97.3,0,1,1,5.7-74.91l.09.29c.37,1.13.73,2.27,1.05,3.42l.06.23c.18.6.35,1.21.51,1.82l.06.22c.15.55.28,1.1.41,1.66,0,.06,0,.11,0,.17.2.8.38,1.62.55,2.43l.09.45q.65,3,1.08,6.16c.16,1.06.29,2.12.41,3.19,0,.27.06.54.08.81,0,.07,0,.13,0,.2l0,.34c.1,1,.18,2.07.24,3.11C217.18,175,217.24,177.07,217.24,179.13Z"/><polygon class="cls-3" points="123.05 146.58 149.51 147.44 142.79 173.3 123.05 146.58"/><polygon class="cls-4" points="149.51 147.44 172.69 174.27 142.79 173.3 149.51 147.44"/><polygon class="cls-3" points="142.79 173.3 172.69 174.27 120.72 218.8 142.79 173.3"/><polygon class="cls-3" points="123.05 146.58 96.59 145.72 101.63 171.97 123.05 146.58"/><polygon class="cls-4" points="96.59 145.72 71.73 171 101.63 171.97 96.59 145.72"/><polygon class="cls-3" points="101.63 171.97 71.73 171 120.72 218.79 101.63 171.97"/><polygon class="cls-4" points="120.72 218.79 142.79 173.29 101.63 171.97 120.72 218.79"/><polygon class="cls-5" points="123.05 146.58 101.63 171.97 142.79 173.29 123.05 146.58"/><g class="cls-6"><polygon points="123.06 146.58 149.52 147.44 142.79 173.3 123.06 146.58"/><polygon points="149.52 147.44 172.69 174.26 142.79 173.3 149.52 147.44"/><polygon points="142.79 173.3 172.69 174.26 120.72 218.79 142.79 173.3"/><polygon points="123.06 146.57 96.6 145.72 101.64 171.96 123.06 146.57"/><polygon points="96.6 145.72 71.74 171 101.64 171.96 96.6 145.72"/><polygon points="101.64 171.96 71.74 171 120.72 218.79 101.64 171.96"/><polygon points="120.72 218.79 142.79 173.29 101.64 171.96 120.72 218.79"/><polygon points="123.06 146.57 101.64 171.96 142.79 173.29 123.06 146.57"/><rect x="95.04" y="163.43" width="21.93" height="6.68" rx="3.02" transform="translate(-89.82 140.25) rotate(-49.85)"/></g><polygon class="cls-3" points="162.83 182.76 184.12 182.76 179.38 203.72 162.83 182.76"/><polygon class="cls-4" points="184.12 182.76 203.44 203.72 179.38 203.72 184.12 182.76"/><polygon class="cls-3" points="179.38 203.72 203.44 203.72 162.83 240.86 179.38 203.72"/><polygon class="cls-3" points="162.83 182.75 141.54 182.75 146.27 203.71 162.83 182.75"/><polygon class="cls-4" points="141.54 182.75 122.21 203.71 146.27 203.71 141.54 182.75"/><polygon class="cls-3" points="146.27 203.71 122.21 203.71 162.83 240.85 146.27 203.71"/><polygon class="cls-4" points="162.83 240.85 179.38 203.71 146.27 203.71 162.83 240.85"/><polygon class="cls-5" points="162.83 182.75 146.27 203.71 179.38 203.71 162.83 182.75"/><rect class="cls-7" x="140.83" y="196.74" width="17.64" height="5.37" rx="2.43" transform="translate(-99.61 193.24) rotate(-51.7)"/><g class="cls-8"><polygon points="162.82 182.75 184.11 182.75 179.38 203.72 162.82 182.75"/><polygon points="184.11 182.75 203.44 203.72 179.38 203.72 184.11 182.75"/><polygon points="179.38 203.72 203.44 203.72 162.82 240.85 179.38 203.72"/><polygon points="162.82 182.75 141.53 182.75 146.26 203.71 162.82 182.75"/><polygon points="141.53 182.75 122.21 203.71 146.26 203.71 141.53 182.75"/><polygon points="146.26 203.71 122.21 203.71 162.82 240.85 146.26 203.71"/><polygon points="162.82 240.85 179.38 203.71 146.26 203.71 162.82 240.85"/><polygon points="162.82 182.75 146.26 203.71 179.38 203.71 162.82 182.75"/><rect x="140.82" y="196.73" width="17.64" height="5.37" rx="2.43" transform="translate(-99.6 193.24) rotate(-51.7)"/></g><polygon class="cls-3" points="171.34 122.77 184.06 123.59 180.43 135.94 171.34 122.77"/><polygon class="cls-4" points="184.06 123.59 194.81 136.86 180.43 135.94 184.06 123.59"/><polygon class="cls-3" points="180.43 135.94 194.81 136.86 169.12 157.49 180.43 135.94"/><polygon class="cls-3" points="171.34 122.77 158.62 121.96 160.65 134.66 171.34 122.77"/><polygon class="cls-4" points="158.62 121.96 146.27 133.74 160.65 134.66 158.62 121.96"/><polygon class="cls-3" points="160.65 134.66 146.27 133.74 169.12 157.49 160.65 134.66"/><polygon class="cls-4" points="169.12 157.49 180.43 135.93 160.65 134.66 169.12 157.49"/><polygon class="cls-5" points="171.34 122.77 160.65 134.66 180.43 135.93 171.34 122.77"/><rect class="cls-7" x="157.55" y="130.62" width="10.56" height="3.22" rx="1.45" transform="translate(-44.38 164.84) rotate(-48.02)"/><polygon class="cls-3" points="72.42 171.97 92.02 163.64 95.86 184.79 72.42 171.97"/><polygon class="cls-4" points="92.02 163.64 118 175.38 95.86 184.79 92.02 163.64"/><polygon class="cls-3" points="95.86 184.79 118 175.38 95.15 225.44 95.86 184.79"/><polygon class="cls-3" points="72.42 171.97 52.83 180.3 65.39 197.74 72.42 171.97"/><polygon class="cls-4" points="52.83 180.3 43.24 207.15 65.39 197.74 52.83 180.3"/><polygon class="cls-3" points="65.39 197.74 43.24 207.15 95.15 225.44 65.39 197.74"/><polygon class="cls-4" points="95.15 225.44 95.86 184.78 65.39 197.74 95.15 225.44"/><polygon class="cls-5" points="72.42 171.97 65.39 197.74 95.86 184.78 72.42 171.97"/><rect class="cls-7" x="57.99" y="189.78" width="17.64" height="5.37" rx="2.43" transform="translate(-136.46 206.22) rotate(-74.73)"/><polygon class="cls-3" points="76.6 122.46 85.54 117.39 88.55 127.32 76.6 122.46"/><polygon class="cls-4" points="85.54 117.39 98.65 121.59 88.55 127.32 85.54 117.39"/><polygon class="cls-3" points="88.55 127.32 98.65 121.59 90.44 146.86 88.55 127.32"/><polygon class="cls-3" points="76.6 122.46 67.66 127.53 74.64 135.21 76.6 122.46"/><polygon class="cls-4" points="67.66 127.53 64.54 140.94 74.64 135.21 67.66 127.53"/><polygon class="cls-3" points="74.64 135.21 64.54 140.94 90.44 146.86 74.64 135.21"/><polygon class="cls-4" points="90.44 146.86 88.55 127.32 74.64 135.21 90.44 146.86"/><polygon class="cls-5" points="76.6 122.46 74.64 135.21 88.55 127.32 76.6 122.46"/><rect class="cls-7" x="70.78" y="131.31" width="8.51" height="2.59" rx="0.66" transform="translate(-67.43 186.6) rotate(-81.25)"/><polygon class="cls-3" points="115.33 124.04 121.47 123.85 120.3 129.94 115.33 124.04"/><polygon class="cls-4" points="121.47 123.85 127.24 129.72 120.3 129.94 121.47 123.85"/><polygon class="cls-3" points="120.3 129.94 127.24 129.72 115.86 140.8 120.3 129.94"/><polygon class="cls-3" points="115.33 124.04 109.2 124.23 110.75 130.24 115.33 124.04"/><polygon class="cls-4" points="109.2 124.23 103.81 130.46 110.75 130.24 109.2 124.23"/><polygon class="cls-3" points="110.75 130.24 103.81 130.46 115.86 140.8 110.75 130.24"/><polygon class="cls-4" points="115.86 140.8 120.3 129.94 110.75 130.24 115.86 140.8"/><polygon class="cls-5" points="115.33 124.04 110.75 130.24 120.3 129.94 115.33 124.04"/><rect class="cls-7" x="109.14" y="128.19" width="5.09" height="1.55" rx="0.49" transform="translate(-58.42 142.06) rotate(-53.51)"/></g></g></svg>