# Blender 4.2.1 LTS
# www.blender.org
mtllib 1.mtl
o Cube
v 1.000000 1.000000 -1.000000
v 1.000000 -1.000000 -1.000000
v 0.956694 0.956694 0.956694
v 1.000000 -1.000000 1.000000
v -1.000000 1.000000 -1.000000
v -1.000000 -1.000000 -1.000000
v -1.000000 1.000000 1.000000
v -1.000000 -1.000000 1.000000
v -1.000000 0.000000 1.000000
v 1.000000 0.000000 1.000000
v -1.000000 0.000000 -1.000000
v 1.000000 0.000000 -1.000000
v -1.000000 -1.000000 1.000000
v -1.000000 1.000000 1.000000
v -1.000000 -1.000000 -1.000000
v -1.000000 1.000000 -1.000000
v 1.000000 -1.000000 1.000000
v 1.000000 1.000000 1.000000
v 1.000000 -1.000000 -1.000000
v 1.000000 1.000000 -1.000000
v -1.000000 -1.000000 1.000000
v -1.000000 1.000000 1.000000
v -1.000000 -1.000000 -1.000000
v -1.000000 1.000000 -1.000000
v 1.000000 -1.000000 1.000000
v 1.000000 1.000000 1.000000
v 1.000000 -1.000000 -1.000000
v 1.000000 1.000000 -1.000000
v -0.951240 -0.951240 0.951240
v -0.951240 0.951240 0.951240
v -0.951240 -0.951240 -0.951240
v -0.951240 0.951240 -0.951240
v 0.951240 -0.951240 0.951240
v 0.951240 0.951240 0.951240
v 0.951240 -0.951240 -0.951240
v 0.951240 0.951240 -0.951240
v 0.698111 0.250989 0.947245
v 0.698111 0.903889 0.947245
v 0.698111 0.250989 0.294346
v 0.698111 0.903889 0.294346
v 1.351011 0.250989 0.947245
v 1.351011 0.903889 0.947245
v 1.351011 0.250989 0.294346
v 1.351011 0.903889 0.294346
v 0.698111 0.250989 -0.208352
v 0.698111 0.903889 -0.208352
v 0.698111 0.250989 -0.861251
v 0.698111 0.903889 -0.861251
v 1.351011 0.250989 -0.208352
v 1.351011 0.903889 -0.208352
v 1.351011 0.250989 -0.861251
v 1.351011 0.903889 -0.861251
vn 0.0111 0.9999 0.0111
vn 0.0111 0.0111 0.9999
vn -1.0000 -0.0000 -0.0000
vn -0.0000 -1.0000 -0.0000
vn 0.9999 0.0111 0.0111
vn -0.0000 -0.0000 -1.0000
vn -0.0000 1.0000 -0.0000
vn 1.0000 -0.0000 -0.0000
vn -0.0000 -0.0000 1.0000
vt 0.625000 0.500000
vt 0.875000 0.500000
vt 0.875000 0.750000
vt 0.625000 0.750000
vt 0.375000 0.750000
vt 0.625000 1.000000
vt 0.375000 1.000000
vt 0.375000 0.000000
vt 0.625000 0.000000
vt 0.625000 0.250000
vt 0.375000 0.250000
vt 0.125000 0.500000
vt 0.375000 0.500000
vt 0.125000 0.750000
vt 0.000000 0.000000
vt 1.000000 0.000000
vt 1.000000 1.000000
vt 0.000000 1.000000
s 0
usemtl Material
f 1/1/1 5/2/1 7/3/1 3/4/1
f 4/5/2 3/4/2 7/6/2 8/7/2
f 8/8/3 7/9/3 5/10/3 6/11/3
f 6/12/4 2/13/4 4/5/4 8/14/4
f 2/13/5 1/1/5 3/4/5 4/5/5
f 6/11/6 5/10/6 1/1/6 2/13/6
f 9/15/7 10/16/7 12/17/7 11/18/7
f 13/8/3 14/9/3 16/10/3 15/11/3
f 15/11/6 16/10/6 20/1/6 19/13/6
f 19/13/8 20/1/8 18/4/8 17/5/8
f 17/5/9 18/4/9 14/6/9 13/7/9
f 15/12/4 19/13/4 17/5/4 13/14/4
f 20/1/7 16/2/7 14/3/7 18/4/7
f 21/8/3 22/9/3 24/10/3 23/11/3
f 23/11/6 24/10/6 28/1/6 27/13/6
f 27/13/8 28/1/8 26/4/8 25/5/8
f 25/5/9 26/4/9 22/6/9 21/7/9
f 23/12/4 27/13/4 25/5/4 21/14/4
f 28/1/7 24/2/7 22/3/7 26/4/7
f 29/8/3 30/9/3 32/10/3 31/11/3
f 31/11/6 32/10/6 36/1/6 35/13/6
f 35/13/8 36/1/8 34/4/8 33/5/8
f 33/5/9 34/4/9 30/6/9 29/7/9
f 31/12/4 35/13/4 33/5/4 29/14/4
f 36/1/7 32/2/7 30/3/7 34/4/7
f 37/8/3 38/9/3 40/10/3 39/11/3
f 39/11/6 40/10/6 44/1/6 43/13/6
f 43/13/8 44/1/8 42/4/8 41/5/8
f 41/5/9 42/4/9 38/6/9 37/7/9
f 39/12/4 43/13/4 41/5/4 37/14/4
f 44/1/7 40/2/7 38/3/7 42/4/7
f 45/8/3 46/9/3 48/10/3 47/11/3
f 47/11/6 48/10/6 52/1/6 51/13/6
f 51/13/8 52/1/8 50/4/8 49/5/8
f 49/5/9 50/4/9 46/6/9 45/7/9
f 47/12/4 51/13/4 49/5/4 45/14/4
f 52/1/7 48/2/7 46/3/7 50/4/7
