<?xml version="1.0" encoding="UTF-8"?>
<svg id="_Слой_2" data-name="Слой 2" xmlns="http://www.w3.org/2000/svg" viewBox="0 0 1016.55 1206.4">
  <defs>
    <style>
      .cls-1 {
        fill: #fff;
      }

      .cls-2 {
        fill: #1a1a1a;
        opacity: .76;
      }

      .cls-3 {
        fill: #00373d;
      }
    </style>
  </defs>
  <g id="_Слой_1-2" data-name="Слой 1">
    <g>
      <g>
        <rect class="cls-1" y="0" width="1016.55" height="1206.4" rx="63.03" ry="63.03"/>
        <g>
          <rect class="cls-3" x="23.88" y="133.62" width="33.25" height="3.36"/>
          <rect class="cls-3" x="72.47" y="133.62" width="33.25" height="3.36"/>
          <rect class="cls-3" x="121.06" y="133.62" width="33.25" height="3.36"/>
          <rect class="cls-3" x="169.65" y="133.62" width="33.25" height="3.36"/>
          <rect class="cls-3" x="218.24" y="133.62" width="33.25" height="3.36"/>
          <rect class="cls-3" x="266.82" y="133.62" width="33.25" height="3.36"/>
          <rect class="cls-3" x="315.41" y="133.62" width="33.25" height="3.36"/>
          <rect class="cls-3" x="364" y="133.62" width="33.25" height="3.36"/>
          <rect class="cls-3" x="412.59" y="133.62" width="33.25" height="3.36"/>
          <rect class="cls-3" x="461.18" y="133.62" width="33.25" height="3.36"/>
          <rect class="cls-3" x="509.76" y="133.62" width="33.25" height="3.36"/>
          <rect class="cls-3" x="558.35" y="133.62" width="33.25" height="3.36"/>
          <rect class="cls-3" x="606.94" y="133.62" width="33.25" height="3.36"/>
          <rect class="cls-3" x="655.53" y="133.62" width="33.25" height="3.36"/>
          <rect class="cls-3" x="704.12" y="133.62" width="33.25" height="3.36"/>
          <rect class="cls-3" x="752.71" y="133.62" width="33.25" height="3.36"/>
          <rect class="cls-3" x="801.29" y="133.62" width="33.25" height="3.36"/>
          <rect class="cls-3" x="849.88" y="133.62" width="33.25" height="3.36"/>
          <rect class="cls-3" x="898.47" y="133.62" width="33.25" height="3.36"/>
          <rect class="cls-3" x="947.06" y="133.62" width="33.25" height="3.36"/>
        </g>
        <g>
          <rect class="cls-3" x="23.88" y="415.57" width="33.25" height="3.36"/>
          <rect class="cls-3" x="72.47" y="415.57" width="33.25" height="3.36"/>
          <rect class="cls-3" x="121.06" y="415.57" width="33.25" height="3.36"/>
          <rect class="cls-3" x="169.65" y="415.57" width="33.25" height="3.36"/>
          <rect class="cls-3" x="218.24" y="415.57" width="33.25" height="3.36"/>
          <rect class="cls-3" x="266.82" y="415.57" width="33.25" height="3.36"/>
          <rect class="cls-3" x="315.41" y="415.57" width="33.25" height="3.36"/>
          <rect class="cls-3" x="364" y="415.57" width="33.25" height="3.36"/>
          <rect class="cls-3" x="412.59" y="415.57" width="33.25" height="3.36"/>
          <rect class="cls-3" x="461.18" y="415.57" width="33.25" height="3.36"/>
          <rect class="cls-3" x="509.76" y="415.57" width="33.25" height="3.36"/>
          <rect class="cls-3" x="558.35" y="415.57" width="33.25" height="3.36"/>
          <rect class="cls-3" x="606.94" y="415.57" width="33.25" height="3.36"/>
          <rect class="cls-3" x="655.53" y="415.57" width="33.25" height="3.36"/>
          <rect class="cls-3" x="704.12" y="415.57" width="33.25" height="3.36"/>
          <rect class="cls-3" x="752.71" y="415.57" width="33.25" height="3.36"/>
          <rect class="cls-3" x="801.29" y="415.57" width="33.25" height="3.36"/>
          <rect class="cls-3" x="849.88" y="415.57" width="33.25" height="3.36"/>
          <rect class="cls-3" x="898.47" y="415.57" width="33.25" height="3.36"/>
          <rect class="cls-3" x="947.06" y="415.57" width="33.25" height="3.36"/>
        </g>
        <g>
          <rect class="cls-3" x="23.88" y="564.41" width="33.25" height="3.36"/>
          <rect class="cls-3" x="72.47" y="564.41" width="33.25" height="3.36"/>
          <rect class="cls-3" x="121.06" y="564.41" width="33.25" height="3.36"/>
          <rect class="cls-3" x="169.65" y="564.41" width="33.25" height="3.36"/>
          <rect class="cls-3" x="218.24" y="564.41" width="33.25" height="3.36"/>
          <rect class="cls-3" x="266.82" y="564.41" width="33.25" height="3.36"/>
          <rect class="cls-3" x="315.41" y="564.41" width="33.25" height="3.36"/>
          <rect class="cls-3" x="364" y="564.41" width="33.25" height="3.36"/>
          <rect class="cls-3" x="412.59" y="564.41" width="33.25" height="3.36"/>
          <rect class="cls-3" x="461.18" y="564.41" width="33.25" height="3.36"/>
          <rect class="cls-3" x="509.76" y="564.41" width="33.25" height="3.36"/>
          <rect class="cls-3" x="558.35" y="564.41" width="33.25" height="3.36"/>
          <rect class="cls-3" x="606.94" y="564.41" width="33.25" height="3.36"/>
          <rect class="cls-3" x="655.53" y="564.41" width="33.25" height="3.36"/>
          <rect class="cls-3" x="704.12" y="564.41" width="33.25" height="3.36"/>
          <rect class="cls-3" x="752.71" y="564.41" width="33.25" height="3.36"/>
          <rect class="cls-3" x="801.29" y="564.41" width="33.25" height="3.36"/>
          <rect class="cls-3" x="849.88" y="564.41" width="33.25" height="3.36"/>
          <rect class="cls-3" x="898.47" y="564.41" width="33.25" height="3.36"/>
          <rect class="cls-3" x="947.06" y="564.41" width="33.25" height="3.36"/>
        </g>
        <g>
          <rect class="cls-3" x="23.88" y="845.4" width="33.25" height="3.36"/>
          <rect class="cls-3" x="72.47" y="845.4" width="33.25" height="3.36"/>
          <rect class="cls-3" x="121.06" y="845.4" width="33.25" height="3.36"/>
          <rect class="cls-3" x="169.65" y="845.4" width="33.25" height="3.36"/>
          <rect class="cls-3" x="218.24" y="845.4" width="33.25" height="3.36"/>
          <rect class="cls-3" x="266.82" y="845.4" width="33.25" height="3.36"/>
          <rect class="cls-3" x="315.41" y="845.4" width="33.25" height="3.36"/>
          <rect class="cls-3" x="364" y="845.4" width="33.25" height="3.36"/>
          <rect class="cls-3" x="412.59" y="845.4" width="33.25" height="3.36"/>
          <rect class="cls-3" x="461.18" y="845.4" width="33.25" height="3.36"/>
          <rect class="cls-3" x="509.76" y="845.4" width="33.25" height="3.36"/>
          <rect class="cls-3" x="558.35" y="845.4" width="33.25" height="3.36"/>
          <rect class="cls-3" x="606.94" y="845.4" width="33.25" height="3.36"/>
          <rect class="cls-3" x="655.53" y="845.4" width="33.25" height="3.36"/>
          <rect class="cls-3" x="704.12" y="845.4" width="33.25" height="3.36"/>
          <rect class="cls-3" x="752.71" y="845.4" width="33.25" height="3.36"/>
          <rect class="cls-3" x="801.29" y="845.4" width="33.25" height="3.36"/>
          <rect class="cls-3" x="849.88" y="845.4" width="33.25" height="3.36"/>
          <rect class="cls-3" x="898.47" y="845.4" width="33.25" height="3.36"/>
          <rect class="cls-3" x="947.06" y="845.4" width="33.25" height="3.36"/>
        </g>
        <g>
          <rect class="cls-3" x="23.88" y="1026.06" width="33.25" height="3.36"/>
          <rect class="cls-3" x="72.47" y="1026.06" width="33.25" height="3.36"/>
          <rect class="cls-3" x="121.06" y="1026.06" width="33.25" height="3.36"/>
          <rect class="cls-3" x="169.65" y="1026.06" width="33.25" height="3.36"/>
          <rect class="cls-3" x="218.24" y="1026.06" width="33.25" height="3.36"/>
          <rect class="cls-3" x="266.82" y="1026.06" width="33.25" height="3.36"/>
          <rect class="cls-3" x="315.41" y="1026.06" width="33.25" height="3.36"/>
          <rect class="cls-3" x="364" y="1026.06" width="33.25" height="3.36"/>
          <rect class="cls-3" x="412.59" y="1026.06" width="33.25" height="3.36"/>
          <rect class="cls-3" x="461.18" y="1026.06" width="33.25" height="3.36"/>
          <rect class="cls-3" x="509.76" y="1026.06" width="33.25" height="3.36"/>
          <rect class="cls-3" x="558.35" y="1026.06" width="33.25" height="3.36"/>
          <rect class="cls-3" x="606.94" y="1026.06" width="33.25" height="3.36"/>
          <rect class="cls-3" x="655.53" y="1026.06" width="33.25" height="3.36"/>
          <rect class="cls-3" x="704.12" y="1026.06" width="33.25" height="3.36"/>
          <rect class="cls-3" x="752.71" y="1026.06" width="33.25" height="3.36"/>
          <rect class="cls-3" x="801.29" y="1026.06" width="33.25" height="3.36"/>
          <rect class="cls-3" x="849.88" y="1026.06" width="33.25" height="3.36"/>
          <rect class="cls-3" x="898.47" y="1026.06" width="33.25" height="3.36"/>
          <rect class="cls-3" x="947.06" y="1026.06" width="33.25" height="3.36"/>
        </g>
      </g>
      <rect class="cls-2" x="586.58" y="184.29" width="365.5" height="82.81" rx="32.12" ry="32.12"/>
      <rect class="cls-2" x="586.58" y="285.27" width="365.5" height="82.81" rx="32.12" ry="32.12"/>
      <rect class="cls-2" x="586.58" y="1076.28" width="365.5" height="82.81" rx="32.12" ry="32.12"/>
      <rect class="cls-2" x="586.58" y="896.02" width="365.5" height="82.81" rx="32.12" ry="32.12"/>
      <rect class="cls-2" x="586.58" y="614.42" width="365.5" height="82.81" rx="32.12" ry="32.12"/>
      <rect class="cls-2" x="586.58" y="715.41" width="365.5" height="82.81" rx="32.12" ry="32.12"/>
    </g>
  </g>
</svg>