<?xml version="1.0" encoding="UTF-8"?>
<svg id="_Слой_2" data-name="Слой 2" xmlns="http://www.w3.org/2000/svg" viewBox="0 0 1016.55 337.29">
  <defs>
    <style>
      .cls-1 {
        fill: #725344;
      }

      .cls-2 {
        fill: #fff;
      }

      .cls-3 {
        fill: #af8e77;
      }

      .cls-4 {
        fill: #57575c;
      }

      .cls-5 {
        fill: #a2c4d7;
      }

      .cls-6 {
        fill: #f2c4a2;
      }

      .cls-7 {
        fill: #2e3541;
      }

      .cls-8 {
        fill: #59595b;
      }

      .cls-9 {
        fill: #455060;
      }

      .cls-10 {
        fill: #ffcfab;
      }

      .cls-11 {
        fill: #4c9350;
      }

      .cls-12 {
        fill: #825f4d;
      }

      .cls-13 {
        fill: #42c352;
      }

      .cls-14 {
        fill: #7f6358;
      }

      .cls-15 {
        fill: #ffd2aa;
      }

      .cls-16 {
        fill: #6394ea;
      }

      .cls-17 {
        fill: #b28e72;
      }
    </style>
  </defs>
  <g id="_Слой_1-2" data-name="Слой 1">
    <rect class="cls-2" y="0" width="1016.55" height="337.29" rx="31.72" ry="31.72"/>
    <g>
      <rect class="cls-13" x="244.72" y="265.5" width="51.06" height="30.23" rx="3.05" ry="3.05"/>
      <circle class="cls-11" cx="270.25" cy="280.62" r="8.51"/>
      <circle class="cls-2" cx="270.26" cy="280.62" r="3.87"/>
      <path class="cls-11" d="M293.17,265.51h-5.38v1.63c0,3.51,2.85,6.36,6.36,6.36h1.63v-5.38c0-1.44-1.17-2.62-2.62-2.62Z"/>
      <path class="cls-11" d="M295.78,293.12v-5.38h-1.63c-3.51,0-6.36,2.85-6.36,6.36v1.63h5.38c1.44,0,2.61-1.17,2.61-2.61Z"/>
      <path class="cls-11" d="M247.35,295.73h5.36v-1.62c0-3.51-2.85-6.36-6.36-6.36h-1.62v5.36c0,1.44,1.17,2.61,2.61,2.61Z"/>
      <path class="cls-11" d="M244.72,268.11v5.38h1.63c3.51,0,6.36-2.85,6.36-6.36v-1.63h-5.38c-1.44,0-2.61,1.17-2.61,2.61Z"/>
      <rect class="cls-11" x="244.71" y="273.39" width="1.68" height="14.44"/>
      <rect class="cls-11" x="294.1" y="273.5" width="1.68" height="14.44"/>
      <rect class="cls-11" x="269.71" y="248.22" width="1.68" height="36.25" transform="translate(4.2 536.89) rotate(-90)"/>
      <rect class="cls-11" x="269.71" y="276.77" width="1.68" height="36.25" transform="translate(-24.35 565.44) rotate(-90)"/>
    </g>
    <g>
      <g>
        <rect class="cls-8" x="41.97" y="99.52" width="9.27" height="83.59" rx="4.43" ry="4.43" transform="translate(93.22 282.62) rotate(-180)"/>
        <path class="cls-17" d="M28.86,84.71h35.94c6.28,0,11.39,5.1,11.39,11.39v3.42H17.47v-3.42c0-6.28,5.1-11.39,11.39-11.39Z" transform="translate(93.65 184.23) rotate(-180)"/>
        <path class="cls-3" d="M40.52,99.52h12.62c2.05,0,3.71,1.66,3.71,3.71v4.65h-20.04v-4.65c0-2.05,1.66-3.71,3.71-3.71Z" transform="translate(93.65 207.39) rotate(-180)"/>
        <path class="cls-14" d="M14.65,63.5h64.35c2.24,0,3.48,1.79,2.79,3.92l-5.61,17.29H17.47l-5.61-17.29c-.69-2.13.54-3.92,2.79-3.92Z"/>
        <g>
          <polygon class="cls-1" points="65.3 84.71 70.14 63.5 73.51 63.5 68.67 84.71 65.3 84.71"/>
          <polygon class="cls-1" points="54.41 84.71 56.67 63.5 59.98 63.5 57.72 84.71 54.41 84.71"/>
          <rect class="cls-1" x="45.18" y="63.5" width="3.29" height="21.22" transform="translate(93.65 148.21) rotate(180)"/>
          <polygon class="cls-1" points="20.14 63.5 23.51 63.5 28.35 84.71 24.98 84.71 20.14 63.5"/>
          <polygon class="cls-1" points="33.68 63.5 36.99 63.5 39.24 84.71 35.94 84.71 33.68 63.5"/>
        </g>
      </g>
      <g>
        <g>
          <g>
            <ellipse class="cls-6" cx="96.4" cy="72.87" rx="5.49" ry="8.52"/>
            <ellipse class="cls-6" cx="148.89" cy="72.87" rx="5.49" ry="8.52"/>
          </g>
          <g>
            <rect class="cls-10" x="112.83" y="97.06" width="19.62" height="32.9"/>
            <path class="cls-15" d="M115.03,42.5h15.23c10.28,0,18.63,8.35,18.63,18.63v19.38c0,11.71-9.51,21.22-21.22,21.22h-10.05c-11.71,0-21.22-9.51-21.22-21.22v-19.38c0-10.28,8.35-18.63,18.63-18.63Z"/>
          </g>
        </g>
        <rect class="cls-4" x="105.6" y="68.14" width="7.96" height="7.96"/>
        <rect class="cls-4" x="131.73" y="68.14" width="7.96" height="7.96"/>
      </g>
      <path class="cls-16" d="M180.02,153.47v30.07h-114.75v-30.07c0-15.49,8.35-29.13,20.77-36.62,4.24-2.55,8.94-4.39,13.96-5.35,2.58-.5,5.27-.76,8-.76h4.78l9.87,17.08,9.87-17.08h4.78c2.73,0,5.41.26,8,.76,5.02.96,9.72,2.8,13.96,5.35,12.42,7.49,20.77,21.13,20.77,36.62Z"/>
      <rect class="cls-5" x="96.04" y="159.76" width="50.33" height="23.48"/>
      <path class="cls-7" d="M100,111.5v35.63h-13.96v-30.28c4.24-2.55,8.94-4.39,13.96-5.35Z"/>
      <path class="cls-7" d="M159.24,116.85v30.28h-13.96v-35.63c5.02.96,9.72,2.8,13.96,5.35Z"/>
      <rect class="cls-9" x="86.04" y="147.14" width="13.97" height="36.4"/>
      <rect class="cls-9" x="145.27" y="147.14" width="13.97" height="36.4"/>
      <rect class="cls-9" x="100.01" y="147.14" width="45.27" height="15.87"/>
      <rect class="cls-7" x="100" y="163.01" width="45.27" height="20.53"/>
      <path class="cls-12" d="M113.7,60.87c-1.11.41-1.61.49-2.94.69-2.28.23-4.15,1.73-6.24,1.44-1.72-.35-3.44-.53-4.41,1.27-2.23,4.92-8.55,9.25-13.56,5.12-1.55-1.34-1.5-2.81-1.08-5.13.67-3.75-.05-4.76,1.03-9.16.55-2.23,2.03-6.86,6.53-11.98.65-2.88,1.88-4.5,2.67-5.35,5.95-6.37,19.06-3.3,28.38-1.12,3.67.86,6.55,1.79,8.19,2.35,5.32-2.04,9.19-1.28,10.89-.8,12.16,3.47,14.13,21.38,12.92,26.07-.54,2.09-1.26,3.75-1.99,4.43-.79.79-2-.82-3.45-.52-1,.1-1.93.98-2.95.59-1.34-.64-2.38-2.35-3.67-3.22-1.57-1.25-3.16-1.31-5.09-.99-3.43.39-6.98,1.29-9.96-.55-1.12-.7-2.09-1.77-3.39-2.13-1.61-.5-3.88,1.09-5.77.19-1.92-.9-2.84-2.01-4.7-1.73-.62.09-1.1.34-1.4.53Z"/>
    </g>
  </g>
</svg>