<?xml version="1.0" encoding="UTF-8"?>
<svg id="_Слой_2" data-name="Слой 2" xmlns="http://www.w3.org/2000/svg" xmlns:xlink="http://www.w3.org/1999/xlink" viewBox="0 0 148.3 139.66">
  <defs>
    <style>
      .cls-1 {
        fill: #cc9b4c;
      }

      .cls-2 {
        fill: #ce9c52;
      }

      .cls-3 {
        fill: #fff;
      }

      .cls-4 {
        fill: #9b501e;
      }

      .cls-5 {
        fill: #ff9b57;
      }

      .cls-6 {
        fill: #cb594c;
      }

      .cls-7 {
        filter: url(#drop-shadow-1);
      }

      .cls-8 {
        fill: #3dad48;
      }

      .cls-9 {
        fill: #aab4ba;
      }

      .cls-10 {
        fill: none;
        stroke: #000;
        stroke-miterlimit: 10;
        stroke-width: 1.12px;
      }

      .cls-11 {
        fill: #ccc;
      }

      .cls-12 {
        fill: #42c352;
      }

      .cls-13 {
        fill: #828a8e;
      }

      .cls-14 {
        fill: #db7127;
      }

      .cls-15 {
        fill: #f4f49f;
      }

      .cls-16 {
        fill: #ed6000;
      }

      .cls-17 {
        fill: #007e9b;
      }

      .cls-18 {
        fill: #6394ea;
      }

      .cls-19 {
        fill: #e7b355;
      }
    </style>
    <filter id="drop-shadow-1" x="52.69" y="11.18" width="84" height="142" filterUnits="userSpaceOnUse">
      <feOffset dx="-12" dy="7"/>
      <feGaussianBlur result="blur" stdDeviation="7"/>
      <feFlood flood-color="#000" flood-opacity=".75"/>
      <feComposite in2="blur" operator="in"/>
      <feComposite in="SourceGraphic"/>
    </filter>
  </defs>
  <g id="_Слой_1-2" data-name="Слой 1">
    <g>
      <rect class="cls-17" x="0" y="0" width="148.3" height="139.66" rx="27.71" ry="27.71"/>
      <g>
        <g>
          <path class="cls-9" d="M104.48,105.99h-56.87c-4.92,0-9.07-4.24-9.27-9.53l-3.02-76.79h81.45l-3.02,76.79c-.21,5.28-4.36,9.53-9.27,9.53Z"/>
          <path class="cls-10" d="M109.79,47.11c-18.21,18.58-48.77,17.91-67.26,0-10.59-10.26-14.57-23.61-16.12-30.43,3.87.03,7.74.06,11.61.09h76.28c3.43.09,6.85.18,10.28.26-1.33,6.86-4.84,19.93-14.79,30.07Z"/>
          <rect class="cls-13" x="30.79" y="10.94" width="90.5" height="11.05" rx="5.14" ry="5.14"/>
        </g>
        <g class="cls-7">
          <polygon class="cls-3" points="116.96 66.18 116.96 124.23 86.02 124.23 86.02 60.03 91.53 53.98 92.16 53.29 105.25 53.29 105.88 53.98 116.96 66.18"/>
          <rect class="cls-3" x="92.16" y="45.79" width="13.09" height="7.5"/>
          <rect class="cls-4" x="110.34" y="29.29" width="3.49" height="18.74" transform="translate(5.49 90.58) rotate(-45)"/>
          <path class="cls-5" d="M92.6,45.8c5.01.02,10.04.02,15.05.05h-.01c-6.49-.01-12.97-.02-19.46-.05.27-2.26,1.34-9.01,6.98-14.52,3.16-3.09,6.55-4.6,8.67-5.35h4.42c-2.13.75-5.51,2.26-8.67,5.35-5.64,5.51-6.72,12.26-6.98,14.52Z"/>
          <rect class="cls-11" x="92.16" y="45.79" width="13.09" height="1.09"/>
          <path class="cls-14" d="M127.15,31.69c-.02,1.82-.18,3.48-.4,4.9h-10.65c-2.81,3.09-5.62,6.17-8.44,9.26-5.01-.02-10.04-.02-15.05-.05.27-2.26,1.34-9.01,6.98-14.52,3.16-3.09,6.55-4.6,8.67-5.35h18.49c.24,1.64.42,3.58.4,5.75Z"/>
          <path class="cls-14" d="M127.15,31.69c-.01,1.04-.07,2.03-.17,2.95-.05.6-.11,1.17-.19,1.72-.01.07-.02.16-.04.24h0s-10.65.01-10.65.01c-2.83,3.09-5.62,6.16-8.44,9.25h-.02c-1.2,0-2.38,0-3.58-.01-3.07,0-6.15-.01-9.22-.02-.75,0-1.49-.01-2.23-.01.06-.47.14-1.12.3-1.92.6-3.07,2.2-8.23,6.68-12.59,3.16-3.09,6.55-4.6,8.67-5.35h18.49c.08.6.17,1.24.23,1.92.12,1.17.18,2.45.17,3.82Z"/>
          <path class="cls-16" d="M126.98,34.63c-.05.6-.11,1.17-.19,1.72-.01.07-.02.16-.04.24h-10.65c-2.83,3.1-5.62,6.17-8.44,9.26h-.02c-1.2,0-2.38,0-3.58-.01l1.67-1.92c2.83-3.08,5.63-6.16,8.44-9.25l12.81-.04Z"/>
          <rect class="cls-18" x="86.02" y="66.18" width="30.94" height="45.07"/>
        </g>
        <g>
          <path class="cls-12" d="M26.82,57.84h30.75v60.47c0,3.26-2.65,5.91-5.91,5.91h-18.93c-3.26,0-5.91-2.65-5.91-5.91v-60.47h0Z"/>
          <polygon class="cls-12" points="57.57 57.84 26.82 57.84 31.01 50.03 53.38 50.03 57.57 57.84"/>
          <polygon class="cls-8" points="53.38 50.03 31.01 50.03 34.06 42.21 50.33 42.21 53.38 50.03"/>
          <path class="cls-6" d="M36.88,29.59h10.64c1.56,0,2.83,1.27,2.83,2.83v9.79h-16.31v-9.79c0-1.56,1.27-2.83,2.83-2.83Z"/>
          <rect class="cls-15" x="32.42" y="64.77" width="19.55" height="43.3"/>
        </g>
        <g>
          <g>
            <path class="cls-1" d="M111.51,106.26h-3.1c-1.9-2.68-4.65-4.7-8.18-5.42-3.25-.7-6.68-.24-9.96.43-4.96,1.05-9.95,2.37-15.05,2.27-2.62-.01-5.24-.34-7.82-.84-4.92-.92-9.93-2.59-14.97-2.12-4.31.35-7.63,2.56-9.83,5.68h-3.12v10.7h0c.1,3.57,1.23,7.1,3.51,9.87l.05.06c7.07,8.73,17.75,3.81,27.05,2.44,6.69-1.11,13.37.31,19.87,1.82,6.86,1.6,13.88,1.27,18.27-4.65,2.1-2.69,3.16-6.09,3.26-9.53h.01v-10.7Z"/>
            <path class="cls-19" d="M109.98,113.65c-.33.72-.72,1.41-1.16,2.06-.18.28-.38.55-.59.81-4.38,5.92-11.41,6.26-18.26,4.65-6.5-1.51-13.18-2.93-19.87-1.82-9.3,1.37-19.98,6.29-27.05-2.44l-.05-.06c-3.69-4.48-4.38-10.97-2.53-16.38.24-.72.53-1.41.86-2.08,2.08-4.19,5.86-7.36,11.09-7.78,5.04-.47,10.05,1.2,14.97,2.11,1.43.28,2.88.51,4.34.65,1.16.12,2.33.19,3.49.2.66.01,1.32,0,1.98-.03h0c4.41-.21,8.74-1.32,13.06-2.24,3.29-.66,6.7-1.12,9.96-.43.94.2,1.84.48,2.67.84,1.05.46,2.01,1.05,2.87,1.75,2.29,1.84,3.92,4.4,4.84,7.25.19.59.35,1.18.49,1.78.79,3.72.45,7.73-1.12,11.15Z"/>
          </g>
          <g>
            <ellipse class="cls-2" cx="53.61" cy="97.34" rx="2.89" ry="1.05"/>
            <ellipse class="cls-2" cx="58.84" cy="109.29" rx="2.89" ry="1.05"/>
            <path class="cls-2" d="M43.92,99.44c0,.58-1.3,1.05-2.89,1.05-.19,0-.37,0-.55-.02.24-.72.53-1.41.86-2.08,1.45.06,2.58.5,2.58,1.05Z"/>
            <ellipse class="cls-2" cx="68.23" cy="101.55" rx="2.89" ry="1.05"/>
            <ellipse class="cls-2" cx="92.3" cy="94.17" rx="2.89" ry="1.05"/>
            <ellipse class="cls-2" cx="44.95" cy="108.24" rx="2.89" ry="1.05"/>
            <ellipse class="cls-2" cx="79.33" cy="115.74" rx="2.89" ry="1.05"/>
            <ellipse class="cls-2" cx="55.26" cy="118.59" rx="2.89" ry="1.05"/>
            <path class="cls-2" d="M105.77,93.46c-.52.2-1.26.32-2.07.32-1.59,0-2.89-.47-2.89-1.05,0-.48.89-.89,2.09-1.01,1.05.46,2.01,1.05,2.87,1.75Z"/>
            <path class="cls-2" d="M77.29,93.78c0,.59-1.29,1.05-2.89,1.05s-2.89-.47-2.89-1.05c0-.14.08-.28.22-.41,1.16.12,2.33.19,3.49.2.66.01,1.32,0,1.98-.03h0c.05.08.08.16.08.24Z"/>
            <path class="cls-2" d="M111.1,102.5c-.96-.17-1.61-.53-1.61-.94,0-.34.44-.64,1.13-.84.19.59.35,1.18.49,1.78Z"/>
            <ellipse class="cls-2" cx="74.4" cy="107.18" rx="2.89" ry="1.05"/>
            <ellipse class="cls-2" cx="98.63" cy="99.44" rx="2.89" ry="1.05"/>
            <ellipse class="cls-2" cx="88" cy="103.66" rx="2.89" ry="1.05"/>
            <ellipse class="cls-2" cx="94.17" cy="109.29" rx="2.89" ry="1.05"/>
            <ellipse class="cls-2" cx="98.63" cy="119.15" rx="2.89" ry="1.05"/>
            <ellipse class="cls-2" cx="104.41" cy="104.72" rx="2.89" ry="1.05"/>
            <ellipse class="cls-2" cx="80.19" cy="97.68" rx="2.89" ry="1.05"/>
            <ellipse class="cls-2" cx="62.45" cy="95.23" rx="2.89" ry="1.05"/>
          </g>
        </g>
      </g>
    </g>
  </g>
</svg>