<?xml version="1.0" encoding="UTF-8"?>
<svg id="_Слой_2" data-name="Слой 2" xmlns="http://www.w3.org/2000/svg" viewBox="0 0 1016.55 1395.25">
  <defs>
    <style>
      .cls-1 {
        fill: #fff;
      }

      .cls-2 {
        fill: #00373d;
      }
    </style>
  </defs>
  <g id="_Слой_1-2" data-name="Слой 1">
    <g>
      <g>
        <g>
          <rect class="cls-1" y="0" width="1016.55" height="1395.25" rx="64.52" ry="64.52"/>
          <g>
            <rect class="cls-2" x="30.06" y="158.89" width="33.25" height="3.36"/>
            <rect class="cls-2" x="78.65" y="158.89" width="33.25" height="3.36"/>
            <rect class="cls-2" x="127.24" y="158.89" width="33.25" height="3.36"/>
            <rect class="cls-2" x="175.83" y="158.89" width="33.25" height="3.36"/>
            <rect class="cls-2" x="224.41" y="158.89" width="33.25" height="3.36"/>
            <rect class="cls-2" x="273" y="158.89" width="33.25" height="3.36"/>
            <rect class="cls-2" x="321.59" y="158.89" width="33.25" height="3.36"/>
            <rect class="cls-2" x="370.18" y="158.89" width="33.25" height="3.36"/>
            <rect class="cls-2" x="418.77" y="158.89" width="33.25" height="3.36"/>
            <rect class="cls-2" x="467.35" y="158.89" width="33.25" height="3.36"/>
            <rect class="cls-2" x="515.94" y="158.89" width="33.25" height="3.36"/>
            <rect class="cls-2" x="564.53" y="158.89" width="33.25" height="3.36"/>
            <rect class="cls-2" x="613.12" y="158.89" width="33.25" height="3.36"/>
            <rect class="cls-2" x="661.71" y="158.89" width="33.25" height="3.36"/>
            <rect class="cls-2" x="710.3" y="158.89" width="33.25" height="3.36"/>
            <rect class="cls-2" x="758.88" y="158.89" width="33.25" height="3.36"/>
            <rect class="cls-2" x="807.47" y="158.89" width="33.25" height="3.36"/>
            <rect class="cls-2" x="856.06" y="158.89" width="33.25" height="3.36"/>
            <rect class="cls-2" x="904.65" y="158.89" width="33.25" height="3.36"/>
            <rect class="cls-2" x="953.24" y="158.89" width="33.25" height="3.36"/>
          </g>
        </g>
        <g>
          <rect class="cls-2" x="30.06" y="752.74" width="33.25" height="3.36"/>
          <rect class="cls-2" x="78.65" y="752.74" width="33.25" height="3.36"/>
          <rect class="cls-2" x="127.24" y="752.74" width="33.25" height="3.36"/>
          <rect class="cls-2" x="175.83" y="752.74" width="33.25" height="3.36"/>
          <rect class="cls-2" x="224.41" y="752.74" width="33.25" height="3.36"/>
          <rect class="cls-2" x="273" y="752.74" width="33.25" height="3.36"/>
          <rect class="cls-2" x="321.59" y="752.74" width="33.25" height="3.36"/>
          <rect class="cls-2" x="370.18" y="752.74" width="33.25" height="3.36"/>
          <rect class="cls-2" x="418.77" y="752.74" width="33.25" height="3.36"/>
          <rect class="cls-2" x="467.35" y="752.74" width="33.25" height="3.36"/>
          <rect class="cls-2" x="515.94" y="752.74" width="33.25" height="3.36"/>
          <rect class="cls-2" x="564.53" y="752.74" width="33.25" height="3.36"/>
          <rect class="cls-2" x="613.12" y="752.74" width="33.25" height="3.36"/>
          <rect class="cls-2" x="661.71" y="752.74" width="33.25" height="3.36"/>
          <rect class="cls-2" x="710.3" y="752.74" width="33.25" height="3.36"/>
          <rect class="cls-2" x="758.88" y="752.74" width="33.25" height="3.36"/>
          <rect class="cls-2" x="807.47" y="752.74" width="33.25" height="3.36"/>
          <rect class="cls-2" x="856.06" y="752.74" width="33.25" height="3.36"/>
          <rect class="cls-2" x="904.65" y="752.74" width="33.25" height="3.36"/>
          <rect class="cls-2" x="953.24" y="752.74" width="33.25" height="3.36"/>
        </g>
        <g>
          <rect class="cls-2" x="30.06" y="886.47" width="33.25" height="3.36"/>
          <rect class="cls-2" x="78.65" y="886.47" width="33.25" height="3.36"/>
          <rect class="cls-2" x="127.24" y="886.47" width="33.25" height="3.36"/>
          <rect class="cls-2" x="175.83" y="886.47" width="33.25" height="3.36"/>
          <rect class="cls-2" x="224.41" y="886.47" width="33.25" height="3.36"/>
          <rect class="cls-2" x="273" y="886.47" width="33.25" height="3.36"/>
          <rect class="cls-2" x="321.59" y="886.47" width="33.25" height="3.36"/>
          <rect class="cls-2" x="370.18" y="886.47" width="33.25" height="3.36"/>
          <rect class="cls-2" x="418.77" y="886.47" width="33.25" height="3.36"/>
          <rect class="cls-2" x="467.35" y="886.47" width="33.25" height="3.36"/>
          <rect class="cls-2" x="515.94" y="886.47" width="33.25" height="3.36"/>
          <rect class="cls-2" x="564.53" y="886.47" width="33.25" height="3.36"/>
          <rect class="cls-2" x="613.12" y="886.47" width="33.25" height="3.36"/>
          <rect class="cls-2" x="661.71" y="886.47" width="33.25" height="3.36"/>
          <rect class="cls-2" x="710.3" y="886.47" width="33.25" height="3.36"/>
          <rect class="cls-2" x="758.88" y="886.47" width="33.25" height="3.36"/>
          <rect class="cls-2" x="807.47" y="886.47" width="33.25" height="3.36"/>
          <rect class="cls-2" x="856.06" y="886.47" width="33.25" height="3.36"/>
          <rect class="cls-2" x="904.65" y="886.47" width="33.25" height="3.36"/>
          <rect class="cls-2" x="953.24" y="886.47" width="33.25" height="3.36"/>
        </g>
      </g>
      <g>
        <rect class="cls-2" x="30.06" y="421.58" width="33.25" height="3.36"/>
        <rect class="cls-2" x="78.65" y="421.58" width="33.25" height="3.36"/>
        <rect class="cls-2" x="127.24" y="421.58" width="33.25" height="3.36"/>
        <rect class="cls-2" x="175.83" y="421.58" width="33.25" height="3.36"/>
        <rect class="cls-2" x="224.41" y="421.58" width="33.25" height="3.36"/>
        <rect class="cls-2" x="273" y="421.58" width="33.25" height="3.36"/>
        <rect class="cls-2" x="321.59" y="421.58" width="33.25" height="3.36"/>
        <rect class="cls-2" x="370.18" y="421.58" width="33.25" height="3.36"/>
        <rect class="cls-2" x="418.77" y="421.58" width="33.25" height="3.36"/>
        <rect class="cls-2" x="467.35" y="421.58" width="33.25" height="3.36"/>
        <rect class="cls-2" x="515.94" y="421.58" width="33.25" height="3.36"/>
        <rect class="cls-2" x="564.53" y="421.58" width="33.25" height="3.36"/>
        <rect class="cls-2" x="613.12" y="421.58" width="33.25" height="3.36"/>
        <rect class="cls-2" x="661.71" y="421.58" width="33.25" height="3.36"/>
        <rect class="cls-2" x="710.3" y="421.58" width="33.25" height="3.36"/>
        <rect class="cls-2" x="758.88" y="421.58" width="33.25" height="3.36"/>
        <rect class="cls-2" x="807.47" y="421.58" width="33.25" height="3.36"/>
        <rect class="cls-2" x="856.06" y="421.58" width="33.25" height="3.36"/>
        <rect class="cls-2" x="904.65" y="421.58" width="33.25" height="3.36"/>
        <rect class="cls-2" x="953.24" y="421.58" width="33.25" height="3.36"/>
      </g>
      <g>
        <rect class="cls-2" x="30.64" y="1093.54" width="33.25" height="3.36"/>
        <rect class="cls-2" x="79.22" y="1093.54" width="33.25" height="3.36"/>
        <rect class="cls-2" x="127.81" y="1093.54" width="33.25" height="3.36"/>
        <rect class="cls-2" x="176.4" y="1093.54" width="33.25" height="3.36"/>
        <rect class="cls-2" x="224.99" y="1093.54" width="33.25" height="3.36"/>
        <rect class="cls-2" x="273.58" y="1093.54" width="33.25" height="3.36"/>
        <rect class="cls-2" x="322.16" y="1093.54" width="33.25" height="3.36"/>
        <rect class="cls-2" x="370.75" y="1093.54" width="33.25" height="3.36"/>
        <rect class="cls-2" x="419.34" y="1093.54" width="33.25" height="3.36"/>
        <rect class="cls-2" x="467.93" y="1093.54" width="33.25" height="3.36"/>
        <rect class="cls-2" x="516.52" y="1093.54" width="33.25" height="3.36"/>
        <rect class="cls-2" x="565.11" y="1093.54" width="33.25" height="3.36"/>
        <rect class="cls-2" x="613.69" y="1093.54" width="33.25" height="3.36"/>
        <rect class="cls-2" x="662.28" y="1093.54" width="33.25" height="3.36"/>
        <rect class="cls-2" x="710.87" y="1093.54" width="33.25" height="3.36"/>
        <rect class="cls-2" x="759.46" y="1093.54" width="33.25" height="3.36"/>
        <rect class="cls-2" x="808.05" y="1093.54" width="33.25" height="3.36"/>
        <rect class="cls-2" x="856.64" y="1093.54" width="33.25" height="3.36"/>
        <rect class="cls-2" x="905.22" y="1093.54" width="33.25" height="3.36"/>
        <rect class="cls-2" x="953.81" y="1093.54" width="33.25" height="3.36"/>
      </g>
    </g>
  </g>
</svg>