<?xml version="1.0" encoding="UTF-8"?>
<svg id="_Слой_2" data-name="Слой 2" xmlns="http://www.w3.org/2000/svg" viewBox="0 0 421.31 82.81">
  <defs>
    <style>
      .cls-1 {
        fill: #fff;
      }

      .cls-2 {
        fill: #4c9350;
      }

      .cls-3 {
        fill: #1a1a1a;
        opacity: .76;
      }

      .cls-4 {
        fill: #42c352;
      }
    </style>
  </defs>
  <g id="_Слой_1-2" data-name="Слой 1">
    <g>
      <path class="cls-3" d="M36.57,0h384.74v82.81H36.57C16.39,82.81,0,66.42,0,46.24v-9.67C0,16.39,16.39,0,36.57,0Z"/>
      <g>
        <rect class="cls-4" x="28.49" y="18.71" width="72.71" height="43.05" rx="3.05" ry="3.05"/>
        <circle class="cls-2" cx="64.85" cy="40.24" r="12.12"/>
        <circle class="cls-1" cx="64.85" cy="40.23" r="5.52"/>
        <path class="cls-2" d="M97.48,18.71h-7.66v2.32c0,5,4.05,9.05,9.05,9.05h2.32v-7.66c0-2.06-1.67-3.72-3.72-3.72Z"/>
        <path class="cls-2" d="M101.2,58.03v-7.66h-2.32c-5,0-9.05,4.05-9.05,9.05v2.32h7.66c2.06,0,3.72-1.67,3.72-3.72Z"/>
        <path class="cls-2" d="M32.23,61.75h7.63v-2.3c0-5-4.05-9.05-9.05-9.05h-2.3v7.63c0,2.06,1.67,3.72,3.72,3.72Z"/>
        <path class="cls-2" d="M28.49,22.42v7.66h2.32c5,0,9.05-4.05,9.05-9.05v-2.32h-7.66c-2.06,0-3.72,1.67-3.72,3.72Z"/>
        <rect class="cls-2" x="28.48" y="29.94" width="2.39" height="20.56"/>
        <rect class="cls-2" x="98.81" y="30.09" width="2.39" height="20.56"/>
        <rect class="cls-2" x="64.07" y="-5.91" width="2.39" height="51.62" transform="translate(45.37 85.17) rotate(-90)"/>
        <rect class="cls-2" x="64.07" y="34.75" width="2.39" height="51.62" transform="translate(4.71 125.83) rotate(-90)"/>
      </g>
    </g>
  </g>
</svg>