<?xml version="1.0" encoding="UTF-8"?>
<svg id="_Слой_2" data-name="Слой 2" xmlns="http://www.w3.org/2000/svg" viewBox="0 0 83.24 66.11">
  <defs>
    <style>
      .cls-1 {
        fill: #fff;
        stroke: #004651;
        stroke-miterlimit: 10;
      }
    </style>
  </defs>
  <g id="_Слой_1-2" data-name="Слой 1">
    <g>
      <path class="cls-1" d="M56.79,8.95c-1.04-.03-2.37-.05-4.14.55-2.9.99-4.78,2.92-5.71,4.03-.78.94-2.05,2.73-2.75,5.31-.69,2.54-.52,4.69-.33,5.89l.84,3.22c-.3.24-.93.81-1.24,1.76-.36,1.06-.11,1.97,0,2.38.64,2.34,3,3.41,3.4,3.59l.77,4.05,1.76,1.73c0,2.48.01,4.95.02,7.43-4.78,1.44-8.44,3.27-10.93,4.72-4.08,2.38-5.74,4.14-6.85,5.71-.92,1.31-1.49,2.53-1.83,3.4v2.82h52.93v-3.66c-1.04-1.17-2.46-2.63-4.28-4.15-.48-.4-2.32-1.93-5.31-3.79-2.26-1.41-5.42-3.15-9.44-4.76v-7.39c.58-.57,1.16-1.15,1.74-1.72.38-1.6.76-3.19,1.14-4.79.53-.31,1.97-1.26,2.65-3.08.19-.5.57-1.57.29-2.9-.22-1.02-.73-1.72-1.03-2.08l.59-2.45v-7.36l-2.71-3.15c-1.46-2.07-2.75-2.59-3.66-2.67-1.08-.1-2.09.36-2.71-.26-.48-.48-.16-1.02-.64-1.63-.2-.25-.69-.7-2.58-.75Z"/>
      <path class="cls-1" d="M27.48,9.02c-1.04-.03-2.37-.05-4.14.55-2.9.99-4.78,2.92-5.71,4.03-.78.94-2.05,2.73-2.75,5.31-.69,2.54-.52,4.69-.33,5.89l.84,3.22c-.3.24-.93.81-1.24,1.76-.36,1.06-.11,1.97,0,2.38.64,2.34,3,3.41,3.4,3.59l.77,4.05,1.76,1.73c0,2.48.01,4.95.02,7.43-4.78,1.44-8.44,3.27-10.93,4.72-4.08,2.38-5.74,4.14-6.85,5.71-.92,1.31-1.49,2.53-1.83,3.4v2.82h52.93v-3.66c-1.04-1.17-2.46-2.63-4.28-4.15-.48-.4-2.32-1.93-5.31-3.79-2.26-1.41-5.42-3.15-9.44-4.76v-7.39c.58-.57,1.16-1.15,1.74-1.72.38-1.6.76-3.19,1.14-4.79.53-.31,1.97-1.26,2.65-3.08.19-.5.57-1.57.29-2.9-.22-1.02-.73-1.72-1.03-2.08l.59-2.45v-7.36l-2.71-3.15c-1.46-2.07-2.75-2.59-3.66-2.67-1.08-.1-2.09.36-2.71-.26-.48-.48-.16-1.02-.64-1.63-.2-.25-.69-.7-2.58-.75Z"/>
      <path class="cls-1" d="M42.1.51c-1.2-.03-2.72-.06-4.75.63-3.33,1.14-5.5,3.35-6.56,4.63-.89,1.09-2.35,3.14-3.15,6.1-.79,2.92-.59,5.39-.38,6.77l.97,3.7c-.34.27-1.06.93-1.43,2.02-.41,1.22-.13,2.26,0,2.73.73,2.69,3.45,3.92,3.91,4.12l.88,4.66,2.02,1.99c0,2.85.01,5.69.02,8.54-5.5,1.66-9.7,3.76-12.56,5.43-4.69,2.73-6.6,4.75-7.87,6.56-1.06,1.51-1.71,2.91-2.1,3.91v3.24h60.83v-4.21c-1.2-1.34-2.83-3.02-4.92-4.77-.55-.46-2.67-2.22-6.1-4.35-2.6-1.62-6.23-3.63-10.85-5.47v-8.5c.67-.66,1.33-1.32,2-1.98.44-1.83.87-3.67,1.31-5.5.61-.36,2.26-1.45,3.05-3.54.22-.58.66-1.8.33-3.34-.25-1.17-.84-1.98-1.18-2.39l.67-2.82v-8.46l-3.11-3.62c-1.68-2.38-3.16-2.97-4.21-3.07-1.24-.12-2.4.42-3.11-.29-.55-.55-.19-1.18-.74-1.87-.23-.29-.79-.8-2.97-.86Z"/>
    </g>
  </g>
</svg>