<?xml version="1.0" encoding="UTF-8"?>
<svg id="_Слой_2" data-name="Слой 2" xmlns="http://www.w3.org/2000/svg" viewBox="0 0 188.18 177.33">
  <defs>
    <style>
      .cls-1 {
        fill: #006177;
        stroke: #004651;
        stroke-width: 2px;
      }

      .cls-1, .cls-2 {
        stroke-miterlimit: 10;
      }

      .cls-2 {
        fill: none;
        stroke: #fff;
        stroke-width: 2.81px;
      }
    </style>
  </defs>
  <g id="_Слой_1-2" data-name="Слой 1">
    <g>
      <rect class="cls-1" x="1" y="1" width="186.18" height="175.33" rx="34.78" ry="34.78"/>
      <g>
        <path class="cls-2" d="M160.11,30.86v15.23H28.07v-15.23c0-6.59,5.4-11.99,12-11.99h108.06c6.6,0,11.99,5.4,11.99,11.99Z"/>
        <path class="cls-2" d="M28.07,52.69h132.04v93.78c0,6.59-5.39,11.99-11.99,11.99H40.06c-6.6,0-12-5.4-12-11.99V52.69Z"/>
        <rect class="cls-2" x="104.74" y="30.86" width="48.1" height="4.72" rx="2.36" ry="2.36"/>
        <circle class="cls-2" cx="43.5" cy="33.22" r="5.32"/>
        <circle class="cls-2" cx="59.4" cy="33.22" r="5.32"/>
        <circle class="cls-2" cx="75.3" cy="33.22" r="5.32"/>
        <circle class="cls-2" cx="91.2" cy="33.22" r="5.32"/>
        <g>
          <path class="cls-2" d="M126.18,127.52c-4.79,0-8.9,2.89-10.7,7.01l-48-20.83c.62-1.42.96-2.99.96-4.64s-.34-3.22-.96-4.64l48.18-20.91c1.88,3.92,5.89,6.63,10.52,6.63"/>
          <path class="cls-2" d="M115.66,83.52c-.73-1.52-1.14-3.22-1.14-5.03,0-6.44,5.22-11.65,11.66-11.65s11.65,5.22,11.65,11.65-5.22,11.65-11.65,11.65"/>
          <path class="cls-2" d="M126.18,127.52c6.44,0,11.65,5.22,11.65,11.65s-5.22,11.66-11.65,11.66-11.66-5.22-11.66-11.66c0-1.65.34-3.22.96-4.64"/>
          <path class="cls-2" d="M67.48,113.7c-1.79,4.13-5.91,7.01-10.7,7.01-6.44,0-11.65-5.22-11.65-11.65s5.22-11.65,11.65-11.65c4.79,0,8.9,2.89,10.7,7.01"/>
        </g>
      </g>
    </g>
  </g>
</svg>