<?xml version="1.0" encoding="UTF-8"?>
<svg id="_Слой_2" data-name="Слой 2" xmlns="http://www.w3.org/2000/svg" viewBox="0 0 188.18 177.33">
  <defs>
    <style>
      .cls-1 {
        fill: #fff;
        stroke: #004651;
        stroke-width: 2px;
      }

      .cls-1, .cls-2, .cls-3 {
        stroke-miterlimit: 10;
      }

      .cls-2 {
        fill: #006177;
      }

      .cls-2, .cls-3 {
        stroke: #006177;
      }

      .cls-3 {
        fill: none;
        stroke-width: 2.26px;
      }
    </style>
  </defs>
  <g id="_Слой_1-2" data-name="Слой 1">
    <g>
      <rect class="cls-1" x="1" y="1" width="186.18" height="175.33" rx="34.78" ry="34.78"/>
      <g>
        <g>
          <rect class="cls-3" x="10.63" y="33.57" width="166.92" height="100.55"/>
          <rect class="cls-3" x="72.45" y="134.11" width="43.28" height="9.15"/>
          <rect class="cls-3" x="56.39" y="143.26" width="75.4" height="10.17"/>
        </g>
        <g>
          <path class="cls-2" d="M70.91,109.04c-.94,0-1.42-.56-1.42-1.67v-49.48h-17.06c-.99,0-1.48-.51-1.48-1.52,0-.96.49-1.45,1.48-1.45h36.95c.99,0,1.48.48,1.48,1.45,0,1.02-.5,1.52-1.48,1.52h-17.06v49.48c0,1.12-.47,1.67-1.42,1.67Z"/>
          <path class="cls-2" d="M113.86,109.04c-.94,0-1.62-.58-2.02-1.75l-19.35-50.84c-.23-.66-.19-1.15.1-1.49.29-.33.66-.49,1.11-.49.67,0,1.19.43,1.55,1.29l18.61,48.94,18.61-48.94c.36-.86.9-1.29,1.62-1.29.49,0,.85.19,1.08.57.22.38.22.85,0,1.41l-19.35,50.84c-.4,1.17-1.06,1.75-1.96,1.75Z"/>
        </g>
      </g>
    </g>
  </g>
</svg>