<svg xmlns="http://www.w3.org/2000/svg" viewBox="0 0 1016.55 573.13"><defs><style>.cls-1{fill:#c8c8c8;}.cls-2{fill:#fff;}.cls-3{fill:#eaeaea;}.cls-4{fill:#11d649;}.cls-5{fill:#4c9350;}</style></defs><title>back_top</title><g id="Слой_2" data-name="Слой 2"><g id="Слой_1-2" data-name="Слой 1"><rect class="cls-1" width="1016.55" height="573.13" rx="42.46"/><rect class="cls-2" width="1016.55" height="548.91" rx="41.55"/><rect class="cls-3" x="63.56" y="129.56" width="882.79" height="134.97" rx="49.78"/><rect class="cls-4" x="137.18" y="142.94" width="177.52" height="107.53" rx="10.85"/><ellipse class="cls-5" cx="225.94" cy="196.72" rx="29.59" ry="30.27"/><ellipse class="cls-2" cx="225.96" cy="196.7" rx="13.47" ry="13.78"/><path class="cls-5" d="M305.61,143H286.92v5.81A22.36,22.36,0,0,0,309,171.38h5.68V152.26A9.2,9.2,0,0,0,305.61,143Z"/><path class="cls-5" d="M314.7,241.16V222H309a22.36,22.36,0,0,0-22.1,22.62v5.8h18.69A9.19,9.19,0,0,0,314.7,241.16Z"/><path class="cls-5" d="M146.32,250.46H165v-5.75a22.36,22.36,0,0,0-22.11-22.61h-5.61v19.06A9.19,9.19,0,0,0,146.32,250.46Z"/><path class="cls-5" d="M137.18,152.21v19.12h5.68A22.36,22.36,0,0,0,165,148.72v-5.81H146.28A9.2,9.2,0,0,0,137.18,152.21Z"/><rect class="cls-5" x="137.15" y="171" width="5.84" height="51.35"/><rect class="cls-5" x="308.86" y="171.37" width="5.84" height="51.35"/><rect class="cls-5" x="223.98" y="82.91" width="5.97" height="126.03" transform="translate(81.04 372.89) rotate(-90)"/><rect class="cls-5" x="223.98" y="184.46" width="5.97" height="126.03" transform="translate(-20.51 474.44) rotate(-90)"/></g></g></svg>