<svg xmlns="http://www.w3.org/2000/svg" viewBox="0 0 402.63 178.95"><defs><style>.cls-1{fill:#05cc5a;}.cls-2{fill:#02e26b;}.cls-3{fill:#fff;}.cls-4{fill:#11d649;}</style></defs><title>button_2x</title><g id="Слой_2" data-name="Слой 2"><g id="Слой_1-2" data-name="Слой 1"><rect class="cls-1" y="12.45" width="402.63" height="166.5" rx="28.82"/><rect class="cls-2" width="402.63" height="163.87" rx="28.59"/><rect class="cls-3" x="22.74" y="30.17" width="125.81" height="103.54" rx="6.26"/><ellipse class="cls-4" cx="85.65" cy="81.94" rx="31.56" ry="33.17"/><path class="cls-3" d="M106,80.83,75.1,62.08a1.29,1.29,0,0,0-2,1.11v37.49a1.29,1.29,0,0,0,2,1.11L106,83A1.29,1.29,0,0,0,106,80.83Z"/><path class="cls-3" d="M179.73,41.13V81.94H139.28V57.25l36.47-18.73A2.77,2.77,0,0,1,179.73,41.13Z"/><path class="cls-3" d="M179.73,122.74V81.94H139.28v24.68l36.47,18.74A2.78,2.78,0,0,0,179.73,122.74Z"/></g></g></svg>