<svg xmlns="http://www.w3.org/2000/svg" viewBox="0 0 325.06 105.98"><defs><style>.cls-1{fill:#1a1a1a;opacity:0.76;}.cls-2{fill:#42c352;}.cls-3{fill:#4c9350;}.cls-4{fill:#fff;}.cls-5{opacity:0.31;}.cls-6{fill:#9db0ff;opacity:0.69;}.cls-7{fill:#8497a1;stroke:#8a9dd9;stroke-miterlimit:10;stroke-width:2px;}.cls-8{fill:#ce4a48;}</style></defs><title>info_moneyldpi</title><g id="Слой_2" data-name="Слой 2"><g id="Слой_1-2" data-name="Слой 1"><rect class="cls-1" width="325.06" height="105.98" rx="36.34"/><rect class="cls-2" x="29.99" y="7.84" width="58.95" height="34.9" rx="3.02"/><circle class="cls-3" cx="59.46" cy="25.3" r="9.82"/><circle class="cls-4" cx="59.47" cy="25.29" r="4.47"/><path class="cls-3" d="M86.16,7.85H32.76A2.78,2.78,0,0,0,30,10.61V17h0V33.62h0V40a2.77,2.77,0,0,0,2.77,2.77H86.16A2.77,2.77,0,0,0,88.93,40V17.07h0V10.62A2.77,2.77,0,0,0,86.16,7.85ZM87,17.07V33.52a7.34,7.34,0,0,0-7.29,7.29H39.2a7.34,7.34,0,0,0-7.29-7.27V17.06a7.34,7.34,0,0,0,7.3-7.28h40.5A7.33,7.33,0,0,0,87,17.07Z"/><g class="cls-5"><rect x="29.99" y="7.83" width="58.95" height="34.9" rx="3.02"/><circle cx="59.46" cy="25.29" r="9.82"/><circle cx="59.47" cy="25.28" r="4.47"/><path d="M86.16,7.84H32.76A2.77,2.77,0,0,0,30,10.6v6.34h0V33.61h0V40a2.77,2.77,0,0,0,2.77,2.77H86.16A2.77,2.77,0,0,0,88.93,40V17.06h0V10.61A2.77,2.77,0,0,0,86.16,7.84ZM87,17.06V33.51a7.34,7.34,0,0,0-7.29,7.29H39.2a7.34,7.34,0,0,0-7.29-7.27V17.05a7.34,7.34,0,0,0,7.3-7.28h40.5A7.33,7.33,0,0,0,87,17.06Z"/></g><rect class="cls-6" x="29.71" y="56.88" width="57.99" height="34.91"/><line class="cls-7" x1="40.94" y1="56.88" x2="40.94" y2="91.79"/><line class="cls-7" x1="77.75" y1="56.88" x2="77.75" y2="91.79"/><line class="cls-7" x1="68.55" y1="56.88" x2="68.55" y2="91.79"/><line class="cls-7" x1="59.34" y1="56.88" x2="59.34" y2="91.79"/><line class="cls-7" x1="50.14" y1="56.88" x2="50.14" y2="91.79"/><polygon class="cls-8" points="47.05 87.73 66.23 81.24 74.67 76.77 87.7 70.56 87.7 67.5 75.81 73.08 65.04 78.46 46.93 85 29.71 85.06 29.75 87.73 47.05 87.73"/><rect class="cls-2" x="29.97" y="13.58" width="58.95" height="34.9" rx="3.02"/><circle class="cls-3" cx="59.45" cy="31.04" r="9.82"/><circle class="cls-4" cx="59.45" cy="31.03" r="4.47"/><path class="cls-3" d="M86.15,13.59H32.75A2.78,2.78,0,0,0,30,16.35v6.34h0V39.36h0v6.35a2.77,2.77,0,0,0,2.77,2.77H86.15a2.77,2.77,0,0,0,2.77-2.77V22.81h0V16.36A2.77,2.77,0,0,0,86.15,13.59ZM87,22.81V39.26a7.33,7.33,0,0,0-7.28,7.28H39.19a7.33,7.33,0,0,0-7.29-7.26V22.8a7.35,7.35,0,0,0,7.3-7.28H79.7A7.34,7.34,0,0,0,87,22.81Z"/></g></g></svg>