<svg xmlns="http://www.w3.org/2000/svg" viewBox="0 0 1033.98 197.73"><defs><style>.cls-1{fill:#1a1a1a;opacity:0.76;}.cls-2{fill:#00a6c2;}.cls-3{fill:#00ccef;}.cls-4{fill:#2ce4ff;}.cls-5{fill:#e2eaff;}.cls-6{fill:#35a2ff;}.cls-7{fill:#fff;}.cls-8{fill:#42c352;}.cls-9{fill:#4c9350;}.cls-10{opacity:0.31;}.cls-11{fill:#9db0ff;opacity:0.69;}.cls-12{fill:#8497a1;stroke:#8a9dd9;stroke-width:2px;}.cls-12,.cls-14,.cls-21{stroke-miterlimit:10;}.cls-13{fill:#ce4a48;}.cls-14,.cls-21{fill:none;}.cls-14{stroke:#fff;stroke-width:2.39px;}.cls-15{fill:#75b4ef;}.cls-16{fill:#e4b279;}.cls-17{fill:#f0bd7d;}.cls-18{fill:#5e91bb;}.cls-19{fill:#f3ba82;}.cls-20{fill:#b4724b;}.cls-21{stroke:#5a82a4;}.cls-22{fill:#c07751;}.cls-23{fill:#9f6245;}.cls-24{fill:#f0bc8e;}.cls-25{fill:#ca8434;}.cls-26{fill:#f7ac3b;}</style></defs><title>Ресурс 19ldpi</title><g id="Слой_2" data-name="Слой 2"><g id="Слой_1-2" data-name="Слой 1"><rect class="cls-1" x="331.99" y="11.09" width="325.06" height="82.81" rx="32.12"/><polygon class="cls-2" points="396.61 26.28 415.83 26.28 411.56 45.2 396.61 26.28"/><polygon class="cls-3" points="415.83 26.28 433.27 45.2 411.56 45.2 415.83 26.28"/><polygon class="cls-2" points="411.56 45.2 433.27 45.2 396.61 78.72 411.56 45.2"/><polygon class="cls-2" points="396.61 26.27 377.4 26.27 381.67 45.2 396.61 26.27"/><polygon class="cls-3" points="377.4 26.27 359.95 45.2 381.67 45.2 377.4 26.27"/><polygon class="cls-2" points="381.67 45.2 359.95 45.2 396.61 78.72 381.67 45.2"/><polygon class="cls-3" points="396.61 78.72 411.56 45.2 381.67 45.2 396.61 78.72"/><polygon class="cls-4" points="396.61 26.27 381.67 45.2 411.56 45.2 396.61 26.27"/><rect class="cls-5" x="376.75" y="38.9" width="15.92" height="4.85" rx="2.43" transform="translate(113.83 317.61) rotate(-51.7)"/><rect class="cls-6" x="577.75" y="19.85" width="64.08" height="65.29" rx="8.24"/><rect class="cls-7" x="605.45" y="30.55" width="8.68" height="43.42" rx="2.42" transform="translate(557.54 662.04) rotate(-90)"/><rect class="cls-7" x="605.53" y="30.13" width="8.52" height="44.24" rx="2.42"/><rect class="cls-1" width="325.06" height="105.98" rx="36.34"/><rect class="cls-8" x="29.99" y="7.84" width="58.95" height="34.9" rx="3.02"/><circle class="cls-9" cx="59.46" cy="25.3" r="9.82"/><circle class="cls-7" cx="59.47" cy="25.29" r="4.47"/><path class="cls-9" d="M86.16,7.85H32.76A2.78,2.78,0,0,0,30,10.61V17h0V33.62h0V40a2.77,2.77,0,0,0,2.77,2.77H86.16A2.77,2.77,0,0,0,88.93,40V17.07h0V10.62A2.77,2.77,0,0,0,86.16,7.85ZM87,17.07V33.52a7.34,7.34,0,0,0-7.29,7.29H39.2a7.34,7.34,0,0,0-7.29-7.27V17.06a7.34,7.34,0,0,0,7.3-7.28h40.5A7.33,7.33,0,0,0,87,17.07Z"/><g class="cls-10"><rect x="29.99" y="7.83" width="58.95" height="34.9" rx="3.02"/><circle cx="59.46" cy="25.29" r="9.82"/><circle cx="59.47" cy="25.28" r="4.47"/><path d="M86.16,7.84H32.76A2.77,2.77,0,0,0,30,10.6v6.34h0V33.61h0V40a2.77,2.77,0,0,0,2.77,2.77H86.16A2.77,2.77,0,0,0,88.93,40V17.06h0V10.61A2.77,2.77,0,0,0,86.16,7.84ZM87,17.06V33.51a7.34,7.34,0,0,0-7.29,7.29H39.2a7.34,7.34,0,0,0-7.29-7.27V17.05a7.34,7.34,0,0,0,7.3-7.28h40.5A7.33,7.33,0,0,0,87,17.06Z"/></g><rect class="cls-11" x="29.71" y="56.88" width="57.99" height="34.91"/><line class="cls-12" x1="40.94" y1="56.88" x2="40.94" y2="91.79"/><line class="cls-12" x1="77.75" y1="56.88" x2="77.75" y2="91.79"/><line class="cls-12" x1="68.55" y1="56.88" x2="68.55" y2="91.79"/><line class="cls-12" x1="59.34" y1="56.88" x2="59.34" y2="91.79"/><line class="cls-12" x1="50.14" y1="56.88" x2="50.14" y2="91.79"/><polygon class="cls-13" points="47.05 87.73 66.23 81.24 74.67 76.77 87.7 70.56 87.7 67.5 75.81 73.08 65.04 78.46 46.93 85 29.71 85.06 29.75 87.73 47.05 87.73"/><rect class="cls-8" x="29.97" y="13.58" width="58.95" height="34.9" rx="3.02"/><circle class="cls-9" cx="59.45" cy="31.04" r="9.82"/><circle class="cls-7" cx="59.45" cy="31.03" r="4.47"/><path class="cls-9" d="M86.15,13.59H32.75A2.78,2.78,0,0,0,30,16.35v6.34h0V39.36h0v6.35a2.77,2.77,0,0,0,2.77,2.77H86.15a2.77,2.77,0,0,0,2.77-2.77V22.81h0V16.36A2.77,2.77,0,0,0,86.15,13.59ZM87,22.81V39.26a7.33,7.33,0,0,0-7.28,7.28H39.19a7.33,7.33,0,0,0-7.29-7.26V22.8a7.35,7.35,0,0,0,7.3-7.28H79.7A7.34,7.34,0,0,0,87,22.81Z"/><rect class="cls-1" x="1.82" y="138.67" width="284.84" height="59.06" rx="29.53"/><circle class="cls-14" cx="45.03" cy="168.2" r="20.17"/><path class="cls-7" d="M58.34,169.38H45.5V152.11a1.1,1.1,0,0,0-2.2,0v18.37a1.1,1.1,0,0,0,1.1,1.1H58.34a1.1,1.1,0,1,0,0-2.2Z"/><rect class="cls-1" x="668.48" y="10.96" width="365.5" height="82.81" rx="32.12"/><path class="cls-15" d="M923.78,78H873.47V66.21A7.75,7.75,0,0,1,879,58.82a66.45,66.45,0,0,1,39.45,0,7.7,7.7,0,0,1,5.38,7.36Z"/><path class="cls-16" d="M905.42,52.21v8c-.18.56-2.6,3.21-6.79,3a10.79,10.79,0,0,1-6.79-3v-8Z"/><path class="cls-17" d="M907.21,47h0a.45.45,0,0,1-.46-.44V43.79a.45.45,0,0,1,.46-.44h0c.14,0,.63-.76,1.2-.67.29,0,.47.57.54,1.07a2,2,0,0,1-.31,1.33l-1,1.52A.46.46,0,0,1,907.21,47Z"/><path class="cls-17" d="M890.14,47h0a.46.46,0,0,0,.47-.44V43.79a.46.46,0,0,0-.47-.44h0c-.13,0-.63-.76-1.19-.67-.29,0-.47.57-.54,1.07a2,2,0,0,0,.3,1.33l1,1.52A.45.45,0,0,0,890.14,47Z"/><path class="cls-18" d="M905.42,56.19v4c-.18.55-2.6,3.21-6.79,3a10.74,10.74,0,0,1-6.79-3v-4l-1.06.12v4.23A12.45,12.45,0,0,0,898.63,64c4.83.2,7.63-2.87,7.84-3.51V56.3Z"/><path class="cls-19" d="M907.85,36.9V49.05a7.81,7.81,0,0,1-2.25,5.46l-.18.17v.57A9.38,9.38,0,0,1,903,56.7a9.59,9.59,0,0,1-3.75.76H898a9.77,9.77,0,0,1-6.19-2.21v-.66l-.08-.08A7.89,7.89,0,0,1,889.56,50a6.37,6.37,0,0,1-.07-1V36.9A5.06,5.06,0,0,1,894.68,32h8A5.06,5.06,0,0,1,907.85,36.9Z"/><path class="cls-20" d="M911.87,37a18.14,18.14,0,0,1-.91,4.47c-.54,2-.92,2.82-1.86,3.2a3.35,3.35,0,0,1-1.24.2v-.43c0-2.24,0-4.49,0-6.73a3.73,3.73,0,0,0-2.38-2.41,3.5,3.5,0,0,0-1.77-.12,3.81,3.81,0,0,0-1.68,1,10,10,0,0,1-3.46,1.55,13,13,0,0,1-3.81.73c-2,.05-2.89-.49-4,0a1.73,1.73,0,0,0-.23.12,1.56,1.56,0,0,0-.58.73,3.68,3.68,0,0,0-.32,1.33c0,.7,0,1.4,0,2.1s0,1.41,0,2.11a4.6,4.6,0,0,1-1.63-.31c-.81-.32-1.4-1.18-1.64-5.45a31.79,31.79,0,0,1-.09-4l.25,0c.18,0,.61,0,1.59-.75a13,13,0,0,0,1.86-1.86,7.91,7.91,0,0,1,3.3-2c1.26-.33,1.34.1,3.27-.13s2-.64,3.44-.75c1.71-.14,2,.37,3.62.39a9.18,9.18,0,0,0,2-.21,9,9,0,0,1,1.65.39,8.12,8.12,0,0,1,3.67,2.57,4.6,4.6,0,0,1,.77,1.64A11.4,11.4,0,0,1,911.87,37Z"/><line class="cls-21" x1="883.08" y1="65.86" x2="883.08" y2="77.98"/><line class="cls-21" x1="914.17" y1="65.86" x2="914.17" y2="77.98"/><path class="cls-22" d="M905.59,29.88a9.18,9.18,0,0,1-2,.21c-1.62,0-1.91-.53-3.62-.39-1.49.11-1.61.53-3.44.75s-2-.2-3.27.13a7.91,7.91,0,0,0-3.3,2,13,13,0,0,1-1.86,1.86c-1,.74-1.41.75-1.59.75l-.25,0a6,6,0,0,1,.21-1.18,8.28,8.28,0,0,1,2.76-4.56,11.24,11.24,0,0,1,4.85-2.17c1.24-.28,5-1.1,7.49.4,1,.61,1.14,1.18,2.59,1.82A5.59,5.59,0,0,0,905.59,29.88Z"/><path class="cls-23" d="M911.87,37a18.14,18.14,0,0,1-.91,4.47c-.54,2-.92,2.82-1.86,3.2a3.35,3.35,0,0,1-1.24.2v-.43a5.18,5.18,0,0,0,1.44-1.84c.38-1,.73-2.21.73-2.21.12-.4.27-.93.47-1.78.72-3,.7-3.89,1.19-4.11A11.4,11.4,0,0,1,911.87,37Z"/><path class="cls-24" d="M903,56.7a9.59,9.59,0,0,1-3.75.76H898a9.77,9.77,0,0,1-6.19-2.21v-.66l-.08-.08A7.89,7.89,0,0,1,889.56,50a8,8,0,0,0,.88,1.11,10.19,10.19,0,0,0,2.23,1.72,17.33,17.33,0,0,0,6.84,1.72c1,0,1.87-.26,2.56.29a2.11,2.11,0,0,1,.51.64A3.29,3.29,0,0,1,903,56.7Z"/><polygon class="cls-25" points="715.6 26.35 737.88 26.35 723.28 45.45 736.09 45.45 703.16 78.38 712.6 55.78 703.6 55.78 715.6 26.35"/><polygon class="cls-26" points="713.01 26.35 735.12 26.35 720.51 46.45 733.33 46.45 703.16 78.38 709.84 56.78 700.83 56.78 713.01 26.35"/></g></g></svg>