<svg xmlns="http://www.w3.org/2000/svg" viewBox="0 0 178.29 183.21"><defs><style>.cls-1{fill:#c8c8c8;}.cls-2{fill:#fff;}.cls-3{fill:#35a2ff;}.cls-4,.cls-7{fill:#86bfeb;}.cls-5{fill:#ce4a48;}.cls-6{fill:#bd986b;}.cls-7{opacity:0.66;}</style></defs><title>Mapldpi</title><g id="Слой_2" data-name="Слой 2"><g id="Слой_1-2" data-name="Слой 1"><rect class="cls-1" y="15.3" width="178.29" height="167.9" rx="33.31"/><rect class="cls-2" width="178.29" height="167.9" rx="33.31"/><polygon class="cls-3" points="29.37 28.03 29.37 124.53 59.26 139.87 59.26 42.73 29.37 28.03"/><polygon class="cls-4" points="148.93 28.03 148.93 124.53 119.04 139.87 119.04 42.73 148.93 28.03"/><polygon class="cls-4" points="89.15 28.03 89.15 124.53 59.26 139.87 59.26 42.73 89.15 28.03"/><polygon class="cls-3" points="89.15 28.03 89.15 124.53 119.04 139.87 119.04 42.73 89.15 28.03"/><path class="cls-5" d="M105.37,47.47a7.34,7.34,0,0,0,.41,5.07,16.84,16.84,0,0,0,5,7.22,16.38,16.38,0,0,0,5-7.17,7.43,7.43,0,0,0,.36-5.12,5.64,5.64,0,0,0-10.82,0Z"/><circle class="cls-2" cx="110.79" cy="48.62" r="3.74"/><rect class="cls-6" x="109.77" y="59.44" width="2.05" height="10.23" rx="1.02" transform="translate(143.49 188.53) rotate(-135)"/><rect class="cls-6" x="109.79" y="59.34" width="2.01" height="10.42" rx="1" transform="translate(-13.19 97.25) rotate(-45)"/><path class="cls-6" d="M31.23,71.52a35.44,35.44,0,0,0,3.32,7.25.9.9,0,0,0,1.25.35l1-.6A.91.91,0,0,0,37,77.29a33.23,33.23,0,0,1-3-6.67.9.9,0,0,0-1.11-.6l-1.08.32A.92.92,0,0,0,31.23,71.52Z"/><path class="cls-6" d="M39.7,85.66a27.16,27.16,0,0,0,6.12,5.28.89.89,0,0,0,1.29-.28l.52-1a.91.91,0,0,0-.33-1.18,24.55,24.55,0,0,1-5.45-4.73.91.91,0,0,0-1.26-.11l-.86.73A.91.91,0,0,0,39.7,85.66Z"/><path class="cls-6" d="M54.93,92.62a9.2,9.2,0,0,0,3.79-2.37c1-.94,1.84-1.88,2.73-2.77a.92.92,0,0,0,0-1.28l-.79-.79a.91.91,0,0,0-1.29,0c-1.83,1.81-3.46,3.92-5.26,4.4a.93.93,0,0,0-.59,1L53.7,92A.91.91,0,0,0,54.93,92.62Z"/><path class="cls-6" d="M67.51,82c2-1.56,4-3.14,6-4.64a.91.91,0,0,0,.24-1.25l-.66-.91A.91.91,0,0,0,71.84,75c-2.09,1.55-4.09,3.08-6.13,4.7A.9.9,0,0,0,65.52,81l.72.87A.92.92,0,0,0,67.51,82Z"/><path class="cls-6" d="M80.34,73.27a9.57,9.57,0,0,1,3.27-.65,15.25,15.25,0,0,1,3.47.41.91.91,0,0,0,1.08-.66l.26-1.09a.91.91,0,0,0-.74-1.06,18.33,18.33,0,0,0-4.13-.48,12.52,12.52,0,0,0-4.22.83.93.93,0,0,0-.59,1.19l.46,1A.92.92,0,0,0,80.34,73.27Z"/><path class="cls-6" d="M95.7,74.23c.69,0,1.38-.13,2.06-.23l1-.2a4.66,4.66,0,0,0,.63-.18,5.34,5.34,0,0,0,.56-.23c1.29-.6,2.37-1.24,3.5-1.89a.91.91,0,0,0,.37-1.23l-.57-1A.91.91,0,0,0,102,69c-1.09.62-2.22,1.28-3.24,1.76-.11,0-.28.13-.34.14a1.24,1.24,0,0,1-.29.08l-.87.17a14.69,14.69,0,0,1-1.74.19.91.91,0,0,0-.85.9v1.13A.92.92,0,0,0,95.7,74.23Z"/><path class="cls-6" d="M110.73,75.77q1,3.38,2.12,6.71A.86.86,0,0,0,114,83l1.06-.36a.87.87,0,0,0,.56-1.09c-.74-2.18-1.43-4.38-2.09-6.59a.86.86,0,0,0-1.07-.57l-1.08.32A.85.85,0,0,0,110.73,75.77Z"/><path class="cls-6" d="M115.44,89.71a22.87,22.87,0,0,0,3.75,6.37.85.85,0,0,0,1.24.09l.83-.76a.87.87,0,0,0,.12-1.18,20.23,20.23,0,0,1-3.28-5.61.87.87,0,0,0-1.12-.45l-1,.41A.87.87,0,0,0,115.44,89.71Z"/><path class="cls-6" d="M124.27,101.7c1.46,1.79,2.82,3.55,4.11,5.48a.86.86,0,0,0,1.24.22l.88-.7a.86.86,0,0,0,.24-1.15c-1.29-1.94-2.77-3.87-4.25-5.68a.87.87,0,0,0-1.22-.1l-.86.73A.86.86,0,0,0,124.27,101.7Z"/><path class="cls-6" d="M135.1,112.05c2.19.88,4.29,1.68,6.35,2.7a.84.84,0,0,0,1.12-.42l.48-1a.88.88,0,0,0-.39-1.18c-2.11-1-4.36-1.91-6.49-2.75a.86.86,0,0,0-1.1.49l-.44,1A.86.86,0,0,0,135.1,112.05Z"/><polygon class="cls-7" points="148.93 28.03 148.93 124.53 119.04 139.87 119.04 42.73 148.93 28.03"/><polygon class="cls-7" points="89.15 28.03 89.15 124.53 59.26 139.87 59.26 42.73 89.15 28.03"/></g></g></svg>