<?xml version="1.0" encoding="UTF-8"?>
<svg id="_Слой_2" data-name="Слой 2" xmlns="http://www.w3.org/2000/svg" viewBox="0 0 221.56 62.96">
  <defs>
    <style>
      .cls-1, .cls-2 {
        fill: #1a1a1a;
      }

      .cls-2 {
        opacity: .76;
      }
    </style>
  </defs>
  <g id="_Слой_1-2" data-name="Слой 1">
    <g>
      <g>
        <rect class="cls-2" width="221.56" height="62.96" rx="18.96" ry="18.96"/>
        <polygon class="cls-1" points="30.27 6.05 34.65 19.51 48.79 19.51 37.35 27.83 41.72 41.28 30.27 32.97 18.83 41.28 23.2 27.83 11.75 19.51 25.9 19.51 30.27 6.05"/>
        <rect class="cls-1" x="11.75" y="44.6" width="200.16" height="10.67" rx="5.33" ry="5.33"/>
      </g>
      <polygon class="cls-1" points="71.08 6.05 75.45 19.51 89.6 19.51 78.15 27.83 82.52 41.28 71.08 32.97 59.63 41.28 64 27.83 52.56 19.51 66.7 19.51 71.08 6.05"/>
      <polygon class="cls-1" points="111.88 6.05 116.25 19.51 130.4 19.51 118.96 27.83 123.33 41.28 111.88 32.97 100.43 41.28 104.81 27.83 93.36 19.51 107.51 19.51 111.88 6.05"/>
      <polygon class="cls-1" points="152.68 6.05 157.06 19.51 171.21 19.51 159.76 27.83 164.13 41.28 152.68 32.97 141.24 41.28 145.61 27.83 134.16 19.51 148.31 19.51 152.68 6.05"/>
      <polygon class="cls-1" points="193.49 6.05 197.86 19.51 212.01 19.51 200.56 27.83 204.93 41.28 193.49 32.97 182.04 41.28 186.41 27.83 174.97 19.51 189.12 19.51 193.49 6.05"/>
    </g>
  </g>
</svg>