<svg xmlns="http://www.w3.org/2000/svg" viewBox="0 0 91.04 92.64"><defs><style>.cls-1{fill:#c8c8c8;}.cls-2{fill:#fff;}.cls-3{fill:#35a2ff;}</style></defs><title>Settingsldpi</title><g id="Слой_2" data-name="Слой 2"><g id="Слой_1-2" data-name="Слой 1"><rect class="cls-1" y="6.91" width="91.04" height="85.73" rx="17.01"/><rect class="cls-2" width="91.04" height="85.73" rx="17.01"/><path class="cls-3" d="M65.52,56.2a23.64,23.64,0,0,1-7.46,7.17c1.79,2.41,3.67,4.78,5.62,7.06a32.53,32.53,0,0,0,8.66-8.33q-1.65-1.53-3.36-3C67.84,58.11,66.69,57.14,65.52,56.2Z"/><path class="cls-3" d="M51.18,57.33a15.42,15.42,0,0,0,8.57-8.24l7.8,3.41a24.29,24.29,0,0,1-5.37,7.7,23.92,23.92,0,0,1-7.9,5Z"/><path class="cls-3" d="M69.09,38.15a23.78,23.78,0,0,1-.2,10.35c1.48.22,3,.41,4.47.58s3,.32,4.49.43a32.76,32.76,0,0,0,.24-12C75.09,37.61,72.07,37.83,69.09,38.15Z"/><path class="cls-3" d="M59.75,49.09A15.57,15.57,0,0,0,60,37.2l7.92-3.1a24,24,0,0,1-.36,18.4Z"/><path class="cls-3" d="M58.85,22.87A23.68,23.68,0,0,1,66,30.33c2.4-1.79,4.77-3.67,7.06-5.63A32.88,32.88,0,0,0,64.75,16q-1.53,1.66-3,3.36C60.76,20.54,59.8,21.7,58.85,22.87Z"/><path class="cls-3" d="M60,37.2a15.57,15.57,0,0,0-8.25-8.57l3.41-7.79A24,24,0,0,1,67.91,34.1Z"/><path class="cls-3" d="M40.81,19.29a23.89,23.89,0,0,1,10.34.21c.22-1.49.42-3,.59-4.48s.31-3,.43-4.49a32.82,32.82,0,0,0-12-.24C40.27,13.3,40.49,16.31,40.81,19.29Z"/><path class="cls-3" d="M51.74,28.63a15.76,15.76,0,0,0-5.92-1.3,15.45,15.45,0,0,0-6,1.07l-3.1-7.92a24,24,0,0,1,18.39.36Z"/><path class="cls-3" d="M25.52,29.53A23.76,23.76,0,0,1,33,22.36c-1.79-2.41-3.67-4.78-5.62-7.06a32.69,32.69,0,0,0-8.66,8.33c1.1,1,2.22,2,3.35,3S24.35,28.59,25.52,29.53Z"/><path class="cls-3" d="M39.86,28.4a15.42,15.42,0,0,0-8.57,8.24l-7.8-3.41A23.94,23.94,0,0,1,36.76,20.48Z"/><path class="cls-3" d="M22,47.58a23.78,23.78,0,0,1,.2-10.35c-1.49-.22-3-.41-4.47-.58s-3-.31-4.49-.43a32.55,32.55,0,0,0-.25,12C16,48.12,19,47.9,22,47.58Z"/><path class="cls-3" d="M31.29,36.64a15.45,15.45,0,0,0-.24,11.89l-7.92,3.1a23.91,23.91,0,0,1-1.65-9.23,24.16,24.16,0,0,1,2-9.17Z"/><path class="cls-3" d="M32.18,62.87A23.86,23.86,0,0,1,25,55.41C22.6,57.19,20.24,59.08,18,61a32.84,32.84,0,0,0,8.33,8.66q1.54-1.65,3-3.36T32.18,62.87Z"/><path class="cls-3" d="M31.05,48.53a15.59,15.59,0,0,0,8.24,8.57l-3.41,7.79A24.05,24.05,0,0,1,23.13,51.63Z"/><path class="cls-3" d="M50.23,66.44a23.58,23.58,0,0,1-10.34-.21c-.22,1.49-.42,3-.59,4.48s-.31,3-.43,4.49a32.82,32.82,0,0,0,12,.24C50.77,72.44,50.55,69.42,50.23,66.44Z"/><path class="cls-3" d="M39.29,57.1a15.51,15.51,0,0,0,11.89.23l3.1,7.92a23.93,23.93,0,0,1-18.4-.36Z"/></g></g></svg>