<svg xmlns="http://www.w3.org/2000/svg" viewBox="0 0 91.04 92.6"><defs><style>.cls-1{fill:#c8c8c8;}.cls-2,.cls-4,.cls-5{fill:#fff;}.cls-3{fill:#35a2ff;}.cls-4{stroke:#35a2ff;stroke-width:0.75px;}.cls-4,.cls-5{stroke-miterlimit:10;}.cls-5{stroke:#fff;}</style></defs><title>Trans_to_personldpi</title><g id="Слой_2" data-name="Слой 2"><g id="Слой_1-2" data-name="Слой 1"><rect class="cls-1" y="6.86" width="91.04" height="85.73" rx="17.01"/><path class="cls-2" d="M91,17V68.72A17,17,0,0,1,78.57,85.1a16.59,16.59,0,0,1-4.54.63H17a16.65,16.65,0,0,1-4.54-.63A17.05,17.05,0,0,1,0,68.72V17A17,17,0,0,1,17,0H74A17,17,0,0,1,91,17Z"/><path class="cls-3" d="M78.57,70.5V85.34A16.59,16.59,0,0,1,74,86H17a16.65,16.65,0,0,1-4.54-.63V70.5a10.17,10.17,0,0,1,7.2-9.71,87.23,87.23,0,0,1,51.84,0A10.11,10.11,0,0,1,78.57,70.5Z"/><path class="cls-3" d="M54.31,52.09v10.5c-.24.73-3.34,4.22-8.71,4a13.68,13.68,0,0,1-8.71-4V52.09Z"/><path class="cls-3" d="M56.8,45.3h0a.6.6,0,0,1-.61-.57V41a.6.6,0,0,1,.61-.58h0c.18,0,.83-1,1.57-.88.38.07.62.75.71,1.41a2.65,2.65,0,0,1-.4,1.75l-1.27,2A.59.59,0,0,1,56.8,45.3Z"/><path class="cls-3" d="M34.37,45.3h0a.6.6,0,0,0,.61-.57V41a.6.6,0,0,0-.61-.58h0c-.18,0-.83-1-1.57-.88-.38.07-.62.75-.71,1.41a2.59,2.59,0,0,0,.4,1.75l1.27,2A.59.59,0,0,0,34.37,45.3Z"/><path class="cls-3" d="M54.45,57.32v5.21c-.25.73-3.43,4.22-8.93,4a14.14,14.14,0,0,1-8.93-4V57.32l-1.38.15V63a16.39,16.39,0,0,0,10.31,4.6c6.35.26,10-3.76,10.31-4.6,0-1.7,0-3.87,0-5.56Z"/><path class="cls-4" d="M50.83,24.39H40.37a6.63,6.63,0,0,0-6.79,6.41v16a10,10,0,0,0,.79,3.91A10.69,10.69,0,0,0,36.54,54a12,12,0,0,0,21.08-7.18v-16A6.63,6.63,0,0,0,50.83,24.39Z"/><path class="cls-2" d="M55.61,56.3v.82a14.36,14.36,0,0,1-9.14,3.27H44.68a14.35,14.35,0,0,1-9.13-3.27v-.87a15.9,15.9,0,0,0,9.13,2.84h1.88A15.85,15.85,0,0,0,55.61,56.3Z"/><path class="cls-3" d="M33.6,37l0,2.77,0,2.76a5.92,5.92,0,0,1-1-.09,7.25,7.25,0,0,1-1.13-.31c-1.06-.42-1.84-1.56-2.16-7.17-.19-3.47-.29-5.21.15-6.75a10.87,10.87,0,0,1,3.64-6,14.62,14.62,0,0,1,6.36-2.86c1.64-.36,6.52-1.45,9.85.53,1.35.81,1.5,1.55,3.41,2.39,1.71.75,2.34.48,4.07,1.09a10.58,10.58,0,0,1,4.82,3.37c1.24,1.69,1.25,3.29,1.27,5.44,0,1.39-.4,2.89-1.21,5.87-.7,2.59-1.2,3.71-2.44,4.21a3.8,3.8,0,0,1-1.55.27c0-3.14-.07-6.28-.1-9.42a4.94,4.94,0,0,0-3.12-3.16,4.61,4.61,0,0,0-2.34-.17,5.13,5.13,0,0,0-2.21,1.36,13.16,13.16,0,0,1-4.54,2,17.11,17.11,0,0,1-5,1c-2.69.07-3.8-.63-5.22,0l-.3.16a2.15,2.15,0,0,0-.76,1A4.82,4.82,0,0,0,33.6,37Z"/><line class="cls-5" x1="25.09" y1="70.04" x2="25.09" y2="85.96"/><line class="cls-5" x1="65.94" y1="70.04" x2="65.94" y2="85.96"/></g></g></svg>