<svg xmlns="http://www.w3.org/2000/svg" viewBox="0 0 91.19 92.6"><defs><style>.cls-1{fill:#c8c8c8;}.cls-2{fill:#fff;}.cls-3{fill:none;stroke:#35a2ff;stroke-miterlimit:10;stroke-width:2px;}</style></defs><title>Trans_to_adsldpi</title><g id="Слой_2" data-name="Слой 2"><g id="Слой_1-2" data-name="Слой 1"><rect class="cls-1" x="0.16" y="6.87" width="91.04" height="85.73" rx="17.01"/><rect class="cls-2" width="91.04" height="85.73" rx="17.01"/><path class="cls-3" d="M78.33,46.25a121.63,121.63,0,0,1-3.17,20.08,3,3,0,0,1-.67,1.87,3.21,3.21,0,0,1-1.84,1.36c-2.78.59-5.29-4.37-10.08-9.18A44,44,0,0,0,52.67,53a45,45,0,0,0-17-5.59V26.11A54.38,54.38,0,0,0,52,21a44.52,44.52,0,0,0,9.36-5.88C67.69,9.85,70,4.67,72.66,5.35c1.32.33,2,1.91,2.5,3.22C78,16.09,78.52,25,78.49,31.14"/><path class="cls-3" d="M85.94,38.55c0,4.2-3,7.61-6.69,7.61a5.55,5.55,0,0,1-.82-.06c.17-3,.26-6.1.25-9.33,0-2-.05-3.9-.13-5.78a5.37,5.37,0,0,1,.7,0C82.94,31,85.94,34.35,85.94,38.55Z"/><path class="cls-3" d="M18.36,26.06H35.69a0,0,0,0,1,0,0V47.44a0,0,0,0,1,0,0H18.36a7.25,7.25,0,0,1-7.25-7.25V33.31A7.25,7.25,0,0,1,18.36,26.06Z"/><path class="cls-3" d="M17.41,47.12c-1.27,2,1.05,4.25,3.12,10.27C24.35,68.45,20.77,73.16,25,77c3.41,3.1,9.91,3.75,12.71.79A7.18,7.18,0,0,0,39,70.9a8.87,8.87,0,0,0-3.12-4C29.74,61.28,35,52,29.82,47.4"/></g></g></svg>