<svg xmlns="http://www.w3.org/2000/svg" viewBox="0 0 91.19 92.6"><defs><style>.cls-1{fill:#c8c8c8;}.cls-2{fill:#fff;}.cls-3{fill:#35a2ff;}.cls-4{fill:#97f992;}</style></defs><title>Trans_to_taskldpi</title><g id="Слой_2" data-name="Слой 2"><g id="Слой_1-2" data-name="Слой 1"><rect class="cls-1" x="0.16" y="6.87" width="91.04" height="85.73" rx="17.01"/><rect class="cls-2" width="91.04" height="85.73" rx="17.01"/><path class="cls-3" d="M71.71,31.74v26.2c0,5.2-4.51,9.44-10,9.44h-32c-5.51,0-10-4.24-10-9.44V27.79c0-5.19,4.51-9.44,10-9.44H59.1l5.43-3.2h-37c-6.23,0-11.33,4.8-11.33,10.67V59.91c0,5.87,5.1,10.68,11.33,10.68H63.78c6.23,0,11.33-4.81,11.33-10.68V27.12Z"/><path class="cls-4" d="M73,11.61C69.6,17.05,55.16,39.88,50.38,47.42a1.82,1.82,0,0,1-3.08,0L32.15,23.64a3.35,3.35,0,0,0-3.64-1.44L27,22.6a2.14,2.14,0,0,0-1.29,3.18L48.15,62.46a.92.92,0,0,0,1.7,0l29-47.35a3.36,3.36,0,0,0-3.64-5l-.11,0A3.43,3.43,0,0,0,73,11.61Z"/></g></g></svg>