<svg xmlns="http://www.w3.org/2000/svg" viewBox="0 0 178.6 176.43"><defs><style>.cls-1{fill:#c8c8c8;}.cls-2{fill:#fff;}.cls-3{fill:#bb803a;}.cls-4{fill:#ffac4d;}.cls-5{fill:#ffdbb4;}.cls-6{fill:#666;}.cls-7{fill:#636363;}</style></defs><title>trans_to_buldldpi</title><g id="Слой_2" data-name="Слой 2"><g id="Слой_1-2" data-name="Слой 1"><rect class="cls-1" x="0.3" y="13.09" width="178.29" height="163.34" rx="32.85"/><rect class="cls-2" width="178.29" height="163.34" rx="32.85"/><path class="cls-3" d="M107.44,31.5H114a5.7,5.7,0,0,1,5.7,5.7V137.81a5.7,5.7,0,0,1-5.7,5.7h-6.52a0,0,0,0,1,0,0V31.5A0,0,0,0,1,107.44,31.5Z" transform="translate(-28.39 67.38) rotate(-29.55)"/><path class="cls-4" d="M96.81,37.52h6.52a5.7,5.7,0,0,1,5.7,5.7V143.84a5.7,5.7,0,0,1-5.7,5.7H96.81a0,0,0,0,1,0,0v-112A0,0,0,0,1,96.81,37.52Z" transform="translate(238.58 124.14) rotate(150.45)"/><rect class="cls-5" x="103.17" y="57.71" width="7.09" height="60.28" rx="3.17" transform="translate(242.88 111.63) rotate(150.45)"/><polygon class="cls-6" points="44.96 36.42 57.73 58.94 63.2 51.35 72.87 53.62 57.3 26.16 52.95 33.27 44.96 36.42"/><path class="cls-6" d="M57.3,26.16,72.87,53.62,94.35,41.26c-1.84-3.87-1.29-7.5,5.42-13.82,2.61-2.45,7.34-6.9,14.77-8.71a27.07,27.07,0,0,1,9-.64l5.63-8.93a112.63,112.63,0,0,0-31.41,1q-1.09.18-2.16.39a120.41,120.41,0,0,0-22.08,6.43Z"/><rect class="cls-7" x="39.44" y="37.88" width="12.73" height="25.88" transform="translate(-19.1 29.2) rotate(-29.55)"/><path class="cls-2" d="M106.45,16l-15,2.61a1.84,1.84,0,0,1-2.21-1.5l-.07-.52A2.05,2.05,0,0,1,91,14.36l14.94-2.61a1.83,1.83,0,0,1,2.21,1.5l.07.52A2,2,0,0,1,106.45,16Z"/></g></g></svg>