<svg xmlns="http://www.w3.org/2000/svg" viewBox="0 0 91.04 92.6"><defs><style>.cls-1{fill:#c8c8c8;}.cls-2{fill:#fff;}.cls-3{fill:#35a2ff;}</style></defs><title>Trans_to_statiisticsldpi</title><g id="Слой_2" data-name="Слой 2"><g id="Слой_1-2" data-name="Слой 1"><rect class="cls-1" y="6.87" width="91.04" height="85.73" rx="17.01"/><path class="cls-2" d="M91,17V68.73a16.78,16.78,0,0,1-2.1,8.15A17.13,17.13,0,0,1,78.87,85a12.29,12.29,0,0,1-1.23.31,16.5,16.5,0,0,1-3.61.4H17a16.54,16.54,0,0,1-3.68-.41c-.4-.08-.78-.19-1.16-.3A17.15,17.15,0,0,1,2,76.75a16.84,16.84,0,0,1-2-8V17A17.06,17.06,0,0,1,17,0H74A17.06,17.06,0,0,1,91,17Z"/><rect class="cls-3" x="39.84" y="40.11" width="11.29" height="45.63"/><rect class="cls-3" x="58.74" y="11.52" width="11.29" height="74.21"/><path class="cls-3" d="M88.94,24.81V76.88A17.13,17.13,0,0,1,78.87,85a12.29,12.29,0,0,1-1.23.31V24.81Z"/><path class="cls-3" d="M13.33,49.74V85.33c-.4-.08-.78-.19-1.16-.3A17.15,17.15,0,0,1,2,76.75v-27Z"/><rect class="cls-3" x="20.94" y="31.99" width="11.29" height="53.75"/></g></g></svg>