<svg xmlns="http://www.w3.org/2000/svg" viewBox="0 0 285.6 126.94"><defs><style>.cls-1{fill:#06ba4f;}.cls-2{fill:#02e26b;}.cls-3{fill:#c4c4c4;}.cls-4{fill:#f9fbfa;}</style></defs><title>Connect_ggplay</title><g id="Слой_2" data-name="Слой 2"><g id="Слой_1-2" data-name="Слой 1"><rect class="cls-1" y="8.83" width="285.6" height="118.1" rx="34.87"/><rect class="cls-2" width="285.6" height="116.24" rx="34.59"/><polygon class="cls-3" points="119.51 83.19 163.83 83.19 175.15 95.15 197.49 79.23 193.77 37.81 125.96 69.65 119.51 83.19"/><path class="cls-3" d="M194.23,43.31q4.65,26.77,9.31,53.53a13.48,13.48,0,0,1-1.69,5.18,12.84,12.84,0,0,1-7.83,6.14c-4.92,1-9.57-2.81-12.8-5.71-12.25-11-24.16-26.34-29.94-34.07Z"/><rect class="cls-4" x="90.05" y="16.27" width="105.36" height="55.98" rx="27.99"/><path class="cls-4" d="M91.37,43.31q-4.65,26.77-9.31,53.53a13.36,13.36,0,0,0,1.7,5.18,12.79,12.79,0,0,0,7.82,6.14c4.92,1,9.57-2.81,12.8-5.71,12.25-11,24.17-26.34,29.94-34.07Z"/><rect class="cls-2" x="116.23" y="31.15" width="7.67" height="29.28"/><rect class="cls-2" x="116.23" y="31.15" width="7.67" height="29.28" transform="translate(165.86 -74.28) rotate(90)"/><circle class="cls-2" cx="165.52" cy="36.52" r="4.54"/><circle class="cls-2" cx="165.79" cy="54.95" r="4.54"/><circle class="cls-2" cx="174.87" cy="46.01" r="4.54"/><circle class="cls-2" cx="156.44" cy="46.01" r="4.54"/></g></g></svg>