<svg xmlns="http://www.w3.org/2000/svg" viewBox="0 0 1016.55 1262.87"><defs><style>.cls-1{fill:#fff;}.cls-2{fill:#00373d;}</style></defs><title>Back</title><g id="Слой_2" data-name="Слой 2"><g id="Слой_1-2" data-name="Слой 1"><rect class="cls-1" width="1016.55" height="1262.87" rx="63.03"/><rect class="cls-2" x="33.25" y="422.99" width="33.25" height="3.18"/><rect class="cls-2" x="81.84" y="422.99" width="33.25" height="3.18"/><rect class="cls-2" x="130.43" y="422.99" width="33.25" height="3.18"/><rect class="cls-2" x="179.02" y="422.99" width="33.25" height="3.18"/><rect class="cls-2" x="227.6" y="422.99" width="33.25" height="3.18"/><rect class="cls-2" x="276.19" y="422.99" width="33.25" height="3.18"/><rect class="cls-2" x="324.78" y="422.99" width="33.25" height="3.18"/><rect class="cls-2" x="373.37" y="422.99" width="33.25" height="3.18"/><rect class="cls-2" x="421.96" y="422.99" width="33.25" height="3.18"/><rect class="cls-2" x="470.55" y="422.99" width="33.25" height="3.18"/><rect class="cls-2" x="519.13" y="422.99" width="33.25" height="3.18"/><rect class="cls-2" x="567.72" y="422.99" width="33.25" height="3.18"/><rect class="cls-2" x="616.31" y="422.99" width="33.25" height="3.18"/><rect class="cls-2" x="664.9" y="422.99" width="33.25" height="3.18"/><rect class="cls-2" x="713.49" y="422.99" width="33.25" height="3.18"/><rect class="cls-2" x="762.07" y="422.99" width="33.25" height="3.18"/><rect class="cls-2" x="810.66" y="422.99" width="33.25" height="3.18"/><rect class="cls-2" x="859.25" y="422.99" width="33.25" height="3.18"/><rect class="cls-2" x="907.84" y="422.99" width="33.25" height="3.18"/><rect class="cls-2" x="956.43" y="422.99" width="33.25" height="3.18"/><rect class="cls-2" x="33.25" y="646.32" width="33.25" height="3.18"/><rect class="cls-2" x="81.84" y="646.32" width="33.25" height="3.18"/><rect class="cls-2" x="130.43" y="646.32" width="33.25" height="3.18"/><rect class="cls-2" x="179.02" y="646.32" width="33.25" height="3.18"/><rect class="cls-2" x="227.6" y="646.32" width="33.25" height="3.18"/><rect class="cls-2" x="276.19" y="646.32" width="33.25" height="3.18"/><rect class="cls-2" x="324.78" y="646.32" width="33.25" height="3.18"/><rect class="cls-2" x="373.37" y="646.32" width="33.25" height="3.18"/><rect class="cls-2" x="421.96" y="646.32" width="33.25" height="3.18"/><rect class="cls-2" x="470.55" y="646.32" width="33.25" height="3.18"/><rect class="cls-2" x="519.13" y="646.32" width="33.25" height="3.18"/><rect class="cls-2" x="567.72" y="646.32" width="33.25" height="3.18"/><rect class="cls-2" x="616.31" y="646.32" width="33.25" height="3.18"/><rect class="cls-2" x="664.9" y="646.32" width="33.25" height="3.18"/><rect class="cls-2" x="713.49" y="646.32" width="33.25" height="3.18"/><rect class="cls-2" x="762.07" y="646.32" width="33.25" height="3.18"/><rect class="cls-2" x="810.66" y="646.32" width="33.25" height="3.18"/><rect class="cls-2" x="859.25" y="646.32" width="33.25" height="3.18"/><rect class="cls-2" x="907.84" y="646.32" width="33.25" height="3.18"/><rect class="cls-2" x="956.43" y="646.32" width="33.25" height="3.18"/></g></g></svg>