<?xml version="1.0" encoding="UTF-8"?>
<svg id="_Слой_2" data-name="Слой 2" xmlns="http://www.w3.org/2000/svg" viewBox="0 0 1016.55 278.49">
  <defs>
    <style>
      .cls-1 {
        fill: #7f5e40;
      }

      .cls-2 {
        fill: #fff;
      }

      .cls-3 {
        fill: #77a6e8;
      }

      .cls-4 {
        fill: #876345;
      }

      .cls-5 {
        fill: #b6b5ba;
      }

      .cls-6 {
        fill: #c4c4c8;
      }

      .cls-7 {
        fill: #aaa9af;
      }

      .cls-8 {
        fill: #9c7b53;
      }

      .cls-9 {
        fill: #afafaf;
      }
    </style>
  </defs>
  <g id="_Слой_1-2" data-name="Слой 1">
    <g>
      <g>
        <rect class="cls-9" y="7.83" width="1016.55" height="270.66" rx="55.48" ry="55.48"/>
        <rect class="cls-2" y="0" width="1016.55" height="262.7" rx="55.48" ry="55.48"/>
      </g>
      <g>
        <g>
          <rect class="cls-8" x="55.27" y="103.67" width="176.05" height="16.62"/>
          <rect class="cls-1" x="80.29" y="120.29" width="126" height="15.22"/>
          <rect class="cls-4" x="20.62" y="167.68" width="107.07" height="12.27" transform="translate(-99.66 247.98) rotate(-90)"/>
          <rect class="cls-4" x="158.9" y="167.68" width="107.07" height="12.27" transform="translate(38.61 386.25) rotate(-90)"/>
        </g>
        <g>
          <rect class="cls-5" x="105.97" y="87.34" width="16.22" height="8.13"/>
          <rect class="cls-6" x="70.14" y="25.89" width="87.89" height="62.52" rx="2.28" ry="2.28"/>
          <rect class="cls-3" x="74.79" y="30.1" width="78.58" height="54.1" rx="3.16" ry="3.16"/>
          <path class="cls-7" d="M122.26,95.47h18.95c1.34,0,2.43,1.09,2.43,2.43v3.34c0,1.34-1.09,2.43-2.43,2.43h-54.24c-1.34,0-2.43-1.09-2.43-2.43v-3.34c0-1.34,1.09-2.43,2.43-2.43h18.95"/>
        </g>
        <g>
          <rect class="cls-5" x="183.62" y="39.11" width="35.47" height="64.56"/>
          <rect class="cls-7" x="188.81" y="44.73" width="25.08" height="4.23"/>
          <rect class="cls-7" x="188.81" y="51.92" width="25.08" height="4.23"/>
          <circle class="cls-7" cx="201.35" cy="95.87" r="2.18"/>
        </g>
      </g>
    </g>
  </g>
</svg>