<?xml version="1.0" encoding="UTF-8"?>
<svg id="_Слой_2" data-name="Слой 2" xmlns="http://www.w3.org/2000/svg" viewBox="0 0 1016.55 278.49">
  <defs>
    <style>
      .cls-1 {
        opacity: .2;
      }

      .cls-1, .cls-2, .cls-3, .cls-4, .cls-5 {
        fill: #fff;
      }

      .cls-6 {
        fill: #1980bf;
      }

      .cls-7 {
        fill: #84a981;
      }

      .cls-2 {
        opacity: .53;
      }

      .cls-8 {
        fill: #ffc533;
      }

      .cls-9 {
        fill: #bad4b8;
      }

      .cls-10 {
        fill: #d2a12b;
      }

      .cls-11 {
        fill: #6da6c6;
      }

      .cls-12 {
        fill: #f2f2f2;
      }

      .cls-4 {
        opacity: .87;
      }

      .cls-5 {
        opacity: .3;
      }

      .cls-13 {
        fill: #d3d366;
      }

      .cls-14 {
        fill: #ffd373;
      }

      .cls-15 {
        fill: #c5e8fc;
      }

      .cls-16 {
        fill: #a5a251;
      }

      .cls-17 {
        opacity: .1;
      }

      .cls-18 {
        opacity: .04;
      }

      .cls-19 {
        fill: #f7f7f7;
      }

      .cls-20 {
        fill: #afafaf;
      }
    </style>
  </defs>
  <g id="_Слой_1-2" data-name="Слой 1">
    <g>
      <g>
        <rect class="cls-20" y="7.83" width="1016.55" height="270.66" rx="55.48" ry="55.48"/>
        <rect class="cls-3" y="0" width="1016.55" height="262.7" rx="55.48" ry="55.48"/>
      </g>
      <g>
        <g>
          <path class="cls-15" d="M130.2,185.58c-.03,7.49-.58,13.17-3.32,18.65-.85,1.74-4.25,8.09-9.48,9.57-2.24.64-4.91.58-4.91.58-1.82-.05-3.48-.08-5.15-1.03-1.67-.97-1.41-1.74-2.92-2.43-2.43-1.11-5.06,0-5.25.08-1.67.73-1.72,1.68-3.37,2.49-1.39.67-3.87.76-4.84.73-.96.03-3.44-.06-4.84-.73-1.64-.81-1.69-1.76-3.35-2.49-.19-.08-2.83-1.18-5.26-.08-1.52.68-1.25,1.46-2.92,2.43-1.68.95-3.33.98-5.15,1.03,0,0-2.65.06-4.91-.58-4.66-1.32-7.85-6.51-9.12-8.86-.14-.28-.27-.53-.36-.72-2.73-5.48-3.29-11.16-3.32-18.65-.02-3.25.06-6.83.11-10.9.17-15.86-.36-26.35.3-33.39.46-4.89,1.5-8.09,3.78-10.26.71-.67,3.89-3.49,4.72-7.72.03-.14.06-.26.08-.4.13-.79.43-2.93-.58-5.09-1.03-2.23-2.88-3.04-3.81-3.95-2.62-2.54-3.11-6.32-2.73-15.22.52-11.88.77-17.82,2.51-22.16.96-2.43,4.12-10.4,10.95-16.61,1.79-1.63,5.45-4.64,8.01-10.02.14-.28.27-.58.38-.86h31.05c.11.28.24.58.38.86,2.54,5.39,6.23,8.39,8,10.02,6.83,6.21,9.99,14.18,10.97,16.61.79,1.99,1.28,4.34,1.61,7.44.4,3.63.6,8.31.88,14.72.38,8.9-.11,12.69-2.72,15.22-.95.92-2.8,1.73-3.82,3.95-1.01,2.16-.71,4.3-.58,5.09.71,4.45,4.08,7.44,4.8,8.12,2.28,2.16,3.32,5.37,3.79,10.26.66,7.04.11,17.53.28,33.39.05,4.06.13,7.64.11,10.9Z"/>
          <path class="cls-17" d="M130.2,185.58c-.03,7.49-.58,13.17-3.32,18.65-.85,1.74-4.25,8.09-9.48,9.57-2.24.64-4.91.58-4.91.58-1.82-.05-3.48-.08-5.15-1.03-1.67-.97-1.41-1.74-2.92-2.43-2.43-1.11-5.06,0-5.25.08-1.67.73-1.72,1.68-3.37,2.49-1.39.67-3.87.76-4.84.73-.96.03-3.44-.06-4.84-.73-1.64-.81-1.69-1.76-3.35-2.49-.19-.08-2.83-1.18-5.26-.08-1.52.68-1.25,1.46-2.92,2.43-1.68.95-3.33.98-5.15,1.03,0,0-2.65.06-4.91-.58-4.66-1.32-7.85-6.51-9.12-8.86,4.42-5.03,11.19-11.02,18.82-19.36,2.72-2.96,5.53-6.19,8.41-9.81,4.38-5.51,8.88-11.86,13.26-19.27,1.64-2.77,3.26-5.68,4.85-8.75,1.11-2.13,2.13-4.2,3.19-6.46,1.34-2.82,2.77-5.93,4.54-9.81,10.82-23.69,15.93-38.74,18.98-47.57.4,3.63.6,8.31.88,14.72.38,8.9-.11,12.69-2.72,15.22-.95.92-2.8,1.73-3.82,3.95-1.01,2.16-.71,4.3-.58,5.09.71,4.45,4.08,7.44,4.8,8.12,2.28,2.16,3.32,5.37,3.79,10.26.66,7.04.11,17.53.28,33.39.05,4.06.13,7.64.11,10.9Z"/>
          <polygon class="cls-12" points="75.45 49 106.33 49 102.32 27.78 79.45 27.78 75.45 49"/>
          <path class="cls-11" d="M130.2,185.58H51.73c-.02-3.25.06-6.83.11-10.9.17-15.86-.36-26.35.3-33.39h77.67c.66,7.04.11,17.53.28,33.39.05,4.06.13,7.64.11,10.9Z"/>
          <path class="cls-6" d="M84.89,15.33h12.16c2.91,0,5.28,2.36,5.28,5.28v7.18h-22.71v-7.18c0-2.91,2.36-5.28,5.28-5.28Z"/>
          <path class="cls-19" d="M100.15,164.11c-1.7-3.37-4.6-8.1-6.61-11.7-.95-1.3-2.13-5.07-3.61-2.56-1.68,2.65-4.19,7.26-6.05,10.42-1.96,3.29-3.66,6.38-3.29,10.25.4,6.09,6.75,10.62,12.75,9.11,7-1.49,9.85-9.48,6.86-15.41l-.05-.12Z"/>
          <path class="cls-1" d="M99.63,49c-3.92,5.54-8.74,12.61-13.97,21.96-15.6,27.86-14.89,40.08-25.01,52.36.03-.14.06-.26.08-.4.13-.79.43-2.93-.58-5.09-1.03-2.23-2.88-3.04-3.81-3.95-2.62-2.54-3.11-6.32-2.73-15.22.52-11.88.77-17.82,2.51-22.16.96-2.43,4.12-10.4,10.95-16.61,1.79-1.63,5.45-4.64,8.01-10.02.14-.28.27-.58.38-.86h24.18Z"/>
        </g>
        <g>
          <path class="cls-9" d="M234.85,136.68c-.05,4-.19,7.88-.44,11.67-1.21,20.54-4.86,37.75-8.45,50.55h-112.28c-3.32-11.84-6.68-27.42-8.14-45.93-.11-1.51-.22-3.06-.31-4.63-.23-3.77-.37-7.65-.42-11.65-.02-1.42-.02-2.81,0-4.2.02-3.21.09-6.32.23-9.38.19-3.97.45-7.82.81-11.52.64-6.91,1.54-13.37,2.58-19.29,1.29-7.39,2.82-13.99,4.33-19.7l10.8-.1,12-.12,12.92-.11,15.72-.15,62.44-.59c3,11.37,6.23,27.1,7.55,44.89.17,2.21.3,4.44.4,6.7.2,4.38.28,8.9.23,13.56Z"/>
          <g>
            <path class="cls-16" d="M145.05,135.75c0,4.58,1.11,8.87,3.07,12.61h-42.89c-.23-3.77-.37-7.66-.42-11.65-.05-4.67.03-9.2.23-13.58h43.08c-1.96,3.75-3.07,8.05-3.07,12.63Z"/>
            <path class="cls-16" d="M234.84,136.69c-.05,4-.19,7.88-.44,11.67h-42.88c1.96-3.74,3.07-8.03,3.07-12.61s-1.11-8.87-3.07-12.63h43.08c.2,4.38.28,8.91.23,13.56Z"/>
          </g>
          <path class="cls-2" d="M135.57,72.38c-.06.3-.19.58-.37.84l-29.35,38.37c.64-6.91,1.54-13.37,2.58-19.29l15.13-19.8,12-.12Z"/>
          <path class="cls-2" d="M164.21,72.12l-58.68,80.86c-.11-1.51-.22-3.06-.31-4.63-.23-3.77-.37-7.65-.42-11.65-.02-1.42-.02-2.81,0-4.2l43.69-60.23,15.72-.15Z"/>
          <polygon class="cls-7" points="231.36 58.61 226.95 72.6 112.69 72.6 108.21 58.61 118.64 62.76 121.09 54.51 122.59 54.51 129.84 62.76 137.07 54.51 138.58 54.51 145.82 62.76 153.05 54.51 154.56 54.51 161.8 62.76 166.88 56.96 169.03 54.51 170.54 54.51 172.69 56.96 177.77 62.76 185.02 54.51 186.52 54.51 193.75 62.76 201 54.51 202.51 54.51 209.74 62.76 216.98 54.51 218.49 54.51 220.93 62.76 231.36 58.61"/>
          <polygon class="cls-7" points="109.3 212.9 113.64 198.91 225.95 198.91 230.35 212.9 220.1 208.75 217.69 217 216.21 217 209.09 208.75 201.98 217 200.5 217 193.38 208.75 186.28 217 184.79 217 177.67 208.75 172.68 214.55 170.57 217 169.08 217 166.97 214.55 161.98 208.75 154.86 217 153.37 217 146.27 208.75 139.15 217 137.66 217 130.56 208.75 123.44 217 121.95 217 119.55 208.75 109.3 212.9"/>
          <ellipse class="cls-13" cx="169.82" cy="135.74" rx="24.77" ry="26.19"/>
          <path class="cls-18" d="M234.85,136.68c-.05,4-.19,7.88-.44,11.67-1.21,20.54-4.86,37.75-8.45,50.55h-69.76l78.01-82.49c.17,2.21.3,4.44.4,6.7.2,4.38.28,8.9.23,13.56Z"/>
        </g>
        <g>
          <g>
            <path class="cls-8" d="M172.24,187.05c0,19.88-16.37,36-36.55,36-.28,0-.55,0-.83,0-2.22-.05-4.4-.3-6.5-.72-2.19-.43-4.32-1.06-6.36-1.88-2.64-1.05-5.12-2.39-7.41-4-9.35-6.51-15.45-17.25-15.45-29.39,0-19.87,16.36-36,36.55-36,6.4,0,12.41,1.62,17.64,4.46,2.57,1.4,4.95,3.09,7.09,5.03,1.44,1.31,2.79,2.74,4.02,4.27,1.14,1.42,2.17,2.94,3.08,4.53,3.01,5.23,4.73,11.27,4.73,17.71Z"/>
            <ellipse class="cls-14" cx="135.69" cy="187.06" rx="31.18" ry="30.71"/>
            <g>
              <rect class="cls-10" x="133.48" y="160.62" width="4.41" height="4.35" rx=".95" ry=".95"/>
              <path class="cls-10" d="M144.55,166.67l2.25,1.07c.48.23,1.05.03,1.28-.44l1.08-2.21c.23-.47.03-1.04-.45-1.26l-2.25-1.07c-.48-.23-1.05-.03-1.28.44l-1.08,2.21c-.23.47-.03,1.04.45,1.26Z"/>
              <path class="cls-10" d="M152.9,172.54l1.55,1.92c.33.41.94.47,1.35.15l1.95-1.53c.41-.32.48-.92.15-1.33l-1.55-1.92c-.33-.41-.94-.47-1.35-.15l-1.95,1.53c-.41.32-.48.92-.15,1.33Z"/>
              <path class="cls-10" d="M157.84,181.39l.55,2.39c.12.51.64.83,1.15.71l2.43-.55c.52-.12.84-.63.72-1.13l-.55-2.39c-.12-.51-.64-.83-1.15-.71l-2.43.55c-.52.12-.84.63-.72,1.13Z"/>
              <path class="cls-10" d="M158.4,191.47l-.55,2.39c-.12.51.21,1.02.72,1.13l2.43.55c.52.12,1.03-.2,1.15-.71l.55-2.39c.12-.51-.21-1.02-.72-1.13l-2.43-.55c-.52-.12-1.03.2-1.15.71Z"/>
              <path class="cls-10" d="M154.45,200.8l-1.55,1.92c-.33.41-.26,1.01.15,1.33l1.95,1.53c.41.32,1.02.26,1.35-.15l1.55-1.92c.33-.41.26-1.01-.15-1.33l-1.95-1.53c-.41-.32-1.02-.26-1.35.15Z"/>
              <path class="cls-10" d="M146.79,207.52l-2.25,1.07c-.48.23-.68.79-.45,1.26l1.08,2.21c.23.47.81.67,1.28.44l2.25-1.07c.48-.23.68-.79.45-1.26l-1.08-2.21c-.23-.47-.81-.67-1.28-.44Z"/>
              <rect class="cls-10" x="133.48" y="210.29" width="4.41" height="4.35" rx=".95" ry=".95"/>
              <path class="cls-10" d="M126.82,208.58l-2.25-1.07c-.48-.23-1.05-.03-1.28.44l-1.08,2.21c-.23.47-.03,1.04.45,1.26l2.25,1.07c.48.23,1.05.03,1.28-.44l1.08-2.21c.23-.47.03-1.04-.45-1.26Z"/>
              <path class="cls-10" d="M118.47,202.72l-1.55-1.92c-.33-.41-.94-.47-1.35-.15l-1.95,1.53c-.41.32-.48.92-.15,1.33l1.55,1.92c.33.41.94.47,1.35.15l1.95-1.53c.41-.32.48-.92.15-1.33Z"/>
              <path class="cls-10" d="M113.53,193.87l-.55-2.39c-.12-.51-.64-.83-1.15-.71l-2.43.55c-.52.12-.84.63-.72,1.13l.55,2.39c.12.51.64.83,1.15.71l2.43-.55c.52-.12.84-.63.72-1.13Z"/>
              <path class="cls-10" d="M112.97,183.78l.55-2.39c.12-.51-.21-1.02-.72-1.13l-2.43-.55c-.52-.12-1.03.2-1.15.71l-.55,2.39c-.12.51.21,1.02.72,1.13l2.43.55c.52.12,1.03-.2,1.15-.71Z"/>
              <path class="cls-10" d="M116.92,174.46l1.55-1.92c.33-.41.26-1.01-.15-1.33l-1.95-1.53c-.41-.32-1.02-.26-1.35.15l-1.55,1.92c-.33.41-.26,1.01.15,1.33l1.95,1.53c.41.32,1.02.26,1.35-.15Z"/>
              <path class="cls-10" d="M124.58,167.74l2.25-1.07c.48-.23.68-.79.45-1.26l-1.08-2.21c-.23-.47-.81-.67-1.28-.44l-2.25,1.07c-.48.23-.68.79-.45,1.26l1.08,2.21c.23.47.81.67,1.28.44Z"/>
              <rect class="cls-10" x="133.48" y="160.62" width="4.41" height="4.35" rx=".95" ry=".95"/>
            </g>
            <g>
              <path class="cls-10" d="M144.79,188.95c-.75-1.15-1.86-2.1-3.3-2.86-1.15-.6-2.53-1.19-4.11-1.79-.4-.15-.81-.3-1.24-.44-.67-.26-1.27-.5-1.81-.72-.3-.13-.58-.26-.85-.38-.73-.32-1.27-.71-1.62-1.16-.35-.44-.53-1.04-.53-1.77,0-.86.19-1.52.58-1.99.39-.47.89-.81,1.51-1.02.29-.09.59-.17.9-.21v-6.19c-1.57.15-2.99.56-4.23,1.23-1.6.86-2.84,2.06-3.73,3.59-.89,1.53-1.34,3.36-1.34,5.5,0,1.76.34,3.21,1.01,4.33.67,1.12,1.66,2.06,2.95,2.82,1.3.76,2.92,1.51,4.87,2.25.16.06.31.11.47.16.97.35,1.82.65,2.53.91.18.06.35.14.51.21.58.27,1.04.56,1.39.9.43.43.65,1.05.65,1.88,0,1.12-.4,1.96-1.18,2.51-.25.18-.54.33-.85.45v6.49c2.29-.31,4.18-1.16,5.67-2.57,1.92-1.79,2.88-4.29,2.88-7.47,0-1.96-.38-3.5-1.14-4.65ZM126.04,192.94l-2.47,5.41c1.45,1.78,3.21,3.13,5.28,4.05,1.76.77,3.59,1.22,5.49,1.34v-6.24c-1.21-.1-2.44-.46-3.7-1.08-1.51-.75-3.04-1.9-4.59-3.48ZM141.08,171.44c-1.18-.52-2.41-.84-3.7-.99v6.32c.58.15,1.16.36,1.74.65,1.21.6,2.47,1.56,3.78,2.89l2.77-5.35c-1.38-1.63-2.91-2.8-4.59-3.52Z"/>
              <path class="cls-10" d="M137.38,170.45v6.32c-.64-.18-1.3-.26-1.95-.26-.37,0-.74.03-1.09.09v-6.19c.45-.05.91-.06,1.39-.06.56,0,1.11.03,1.65.1Z"/>
              <path class="cls-10" d="M137.38,168.44v2.01c-.54-.07-1.09-.1-1.65-.1-.48,0-.94.02-1.39.06v-1.97h3.04Z"/>
              <path class="cls-10" d="M137.38,197.15v6.49c-.64.08-1.33.13-2.05.13-.34,0-.67,0-1-.03v-6.24c.25.03.49.04.74.04.88,0,1.65-.13,2.3-.39Z"/>
              <path class="cls-10" d="M137.38,203.64v2.03h-3.04v-1.93c.33.02.66.03,1,.03.72,0,1.4-.05,2.05-.13Z"/>
            </g>
            <path class="cls-5" d="M160.42,160.54l-38.07,59.86-.35.04c-2.64-1.05-5.12-2.39-7.41-4l38.73-60.93c2.57,1.4,4.95,3.09,7.09,5.03Z"/>
            <path class="cls-5" d="M167.51,169.34l-32.65,53.7c-2.22-.05-4.4-.3-6.5-.72l36.07-57.51c1.14,1.42,2.17,2.94,3.08,4.53Z"/>
          </g>
          <path class="cls-4" d="M116.65,155.81l1.2-4.41c.12-.46.78-.46.91,0l1.21,4.41c.47,1.71,1.83,3.05,3.57,3.51l4.48,1.19c.46.12.46.77,0,.89l-4.48,1.19c-1.74.46-3.09,1.8-3.56,3.51l-1.2,4.41c-.12.46-.78.46-.91,0l-1.21-4.41c-.47-1.71-1.83-3.05-3.57-3.51l-4.48-1.19c-.46-.12-.46-.77,0-.89l4.48-1.19c1.74-.46,3.09-1.8,3.56-3.51Z"/>
        </g>
      </g>
    </g>
  </g>
</svg>