<?xml version="1.0" encoding="UTF-8"?>
<svg id="_Слой_2" data-name="Слой 2" xmlns="http://www.w3.org/2000/svg" viewBox="0 0 1016.55 278.49">
  <defs>
    <style>
      .cls-1 {
        opacity: .6;
      }

      .cls-2 {
        fill: #fff;
      }

      .cls-3 {
        fill: #878686;
      }

      .cls-4 {
        opacity: .1;
      }

      .cls-5 {
        fill: #919191;
        stroke: #5b5b5b;
      }

      .cls-5, .cls-6 {
        stroke-miterlimit: 10;
        stroke-width: 2.6px;
      }

      .cls-6 {
        fill: #6d6d6d;
        stroke: #4d4d4d;
      }

      .cls-7 {
        fill: #707070;
      }

      .cls-8 {
        fill: #afafaf;
      }
    </style>
  </defs>
  <g id="_Слой_1-2" data-name="Слой 1">
    <g>
      <g>
        <rect class="cls-8" y="7.83" width="1016.55" height="270.66" rx="55.48" ry="55.48"/>
        <rect class="cls-2" y="0" width="1016.55" height="262.7" rx="55.48" ry="55.48"/>
      </g>
      <g>
        <g>
          <path class="cls-6" d="M235.58,65.77v131.55c0,16.64-13.62,30.25-30.25,30.25H73.78c-16.64,0-30.26-13.61-30.26-30.25V65.77c0-16.64,13.62-30.25,30.26-30.25h131.55c16.63,0,30.25,13.61,30.25,30.25Z"/>
          <polygon class="cls-4" points="92.12 192.97 67.84 206.24 44.71 161.73 44.71 101.72 92.12 192.97"/>
          <path class="cls-4" d="M235.58,134.04v63.28c0,16.64-13.62,30.25-30.25,30.25h-58.84l9.68-15.39,34.13-54.27,5.6-8.89,18-28.62,6.3,3.96,15.39,9.69Z"/>
          <g class="cls-1">
            <polygon class="cls-2" points="109.3 36.85 92.36 51.42 81.87 60.44 75.04 53.33 77.26 51.42 94.19 36.85 109.3 36.85"/>
            <polygon class="cls-2" points="131.15 36.85 114.22 51.42 106.19 58.33 101.37 53.33 103.59 51.42 120.52 36.85 131.15 36.85"/>
          </g>
          <path class="cls-5" d="M220.19,66.1v130.89c0,8.36-6.84,15.19-15.19,15.19H74.11c-8.36,0-15.2-6.84-15.2-15.19V66.1c0-8.05,6.35-14.69,14.28-15.16h0c.3-.02.6-.03.91-.03h130.89c8.36,0,15.19,6.84,15.19,15.19Z"/>
          <g>
            <path class="cls-2" d="M78.97,96.66c1.44.74,2.33,2.07,3,4.14.86,2.68,1.7,6.19,2.54,9.19,2.21,8.22,4.63,17.04,6.4,24.31,2.71,12.35,3.71,9.36,6.56-.6,2.05-6.86,4.8-15.02,7.29-22.71,1.5-4.07,3.03-11.01,5.19-13.17,3.27-3.19,8.73-2.41,10.68,2.39.41.93.73,1.89,1.06,2.91,2.98,9.48,6.87,21.4,9.3,29.87.59,1.21,2.51,12.06,4.35,8.99,1.08-2.1,1.61-5.14,2.26-7.53,1.83-7.25,4.25-15.36,6.57-23.42,1.7-4.56,2.32-12.41,6.26-14.37,2.32-1.08,6.11-1.47,8.09.15.53.67.31,1.58.1,2.38-.64,2.14-1.81,5.56-3.15,9.7-3.75,11.41-8.32,25.35-12.21,37.19-1.26,3.14-2.16,8.8-4.35,9.9-3.07,1.54-7.43,1.2-9.74-1.59-2.7-4.14-3.76-10.31-5.59-15.12-2.36-7.34-4.33-13.18-6.04-19.15-.68-2.27-1.3-5.01-2.2-7.11-.4-.89-.79-1.36-1.19-1.35-.59.08-.88.78-1.15,1.3-1.3,3.04-2.65,8.86-3.96,12.6-1.72,5.28-4.09,12.07-6.23,18.31-1.28,3.4-2.04,6.86-3.83,9.91-2.08,3.26-6.24,3.5-9.05,2.74-1.91-.44-2.88-2.03-3.37-3.86-3-9.76-11.02-35.92-15.3-49.88-.77-2.64-1.55-4.49-1.16-5.55,1.15-2.1,6.25-1.74,8.72-.63l.13.06Z"/>
            <path class="cls-2" d="M211.67,153.75c-1.34,2.88-4.21,3.09-8.26,3.85-6.86,1.11-15.28.83-21.59-1.8-20.66-7.66-23.91-38.21-8.54-52.55,7.64-7.37,19.12-9.85,29.63-8.55,3.69.53,6.63.88,8.21,3.02,1.76,2.39.57,5.83-2.6,6.39-3.88.43-9.98-1.36-14.48-.36-17.27,1.8-23.25,22.94-14.64,36.26,4.76,7.48,14.22,10.01,22.7,8.79,2.48-.3,4.7-.83,6.37-.52,2.79.43,4.18,3,3.24,5.34l-.05.12Z"/>
          </g>
        </g>
        <g>
          <circle class="cls-3" cx="58.24" cy="50.24" r="4.48"/>
          <g>
            <rect class="cls-7" x="57.54" y="47.41" width="1.41" height="5.66"/>
            <rect class="cls-7" x="57.54" y="47.41" width="1.41" height="5.66" transform="translate(108.48 -8) rotate(90)"/>
          </g>
        </g>
        <g>
          <circle class="cls-3" cx="58.24" cy="212.85" r="4.48"/>
          <g>
            <rect class="cls-7" x="57.54" y="210.02" width="1.41" height="5.66"/>
            <rect class="cls-7" x="57.54" y="210.02" width="1.41" height="5.66" transform="translate(271.09 154.61) rotate(90)"/>
          </g>
        </g>
        <g>
          <circle class="cls-3" cx="220.85" cy="50.24" r="4.48"/>
          <g>
            <rect class="cls-7" x="220.15" y="47.41" width="1.41" height="5.66"/>
            <rect class="cls-7" x="220.15" y="47.41" width="1.41" height="5.66" transform="translate(271.09 -170.61) rotate(90)"/>
          </g>
        </g>
        <g>
          <circle class="cls-3" cx="220.85" cy="212.85" r="4.48"/>
          <g>
            <rect class="cls-7" x="220.15" y="210.02" width="1.41" height="5.66"/>
            <rect class="cls-7" x="220.15" y="210.02" width="1.41" height="5.66" transform="translate(433.7 -8) rotate(90)"/>
          </g>
        </g>
      </g>
    </g>
  </g>
</svg>