<?xml version="1.0" encoding="UTF-8"?>
<svg id="_Слой_2" data-name="Слой 2" xmlns="http://www.w3.org/2000/svg" viewBox="0 0 293.07 132.89">
  <defs>
    <style>
      .cls-1 {
        fill: #fff;
      }

      .cls-2 {
        fill: #4c9350;
      }

      .cls-3 {
        fill: #006177;
      }

      .cls-4 {
        fill: #42c352;
      }

      .cls-5 {
        fill: #00454c;
      }
    </style>
  </defs>
  <g id="_Слой_1-2" data-name="Слой 1">
    <g>
      <g>
        <rect class="cls-5" x="0" y="7.45" width="293.07" height="125.44" rx="23.18" ry="23.18"/>
        <rect class="cls-3" x="0" y="0" width="293.07" height="125.44" rx="23.18" ry="23.18"/>
      </g>
      <g>
        <rect class="cls-4" x="13.04" y="74.55" width="54.28" height="32.14" rx="2.28" ry="2.28"/>
        <circle class="cls-2" cx="40.18" cy="90.62" r="9.05"/>
        <circle class="cls-1" cx="40.19" cy="90.62" r="4.12"/>
        <path class="cls-2" d="M64.54,74.56h-5.71v1.74c0,3.73,3.03,6.76,6.76,6.76h1.74v-5.71c0-1.54-1.24-2.78-2.78-2.78Z"/>
        <path class="cls-2" d="M67.32,103.91v-5.72h-1.74c-3.73,0-6.76,3.03-6.76,6.76v1.74h5.72c1.54,0,2.78-1.24,2.78-2.78Z"/>
        <path class="cls-2" d="M15.84,106.69h5.7v-1.72c0-3.73-3.03-6.76-6.76-6.76h-1.72v5.7c0,1.54,1.24,2.78,2.78,2.78Z"/>
        <path class="cls-2" d="M13.04,77.32v5.72h1.74c3.73,0,6.76-3.03,6.76-6.76v-1.74h-5.72c-1.54,0-2.78,1.24-2.78,2.78Z"/>
        <rect class="cls-2" x="13.03" y="82.94" width="1.78" height="15.35"/>
        <rect class="cls-2" x="65.54" y="83.05" width="1.78" height="15.35"/>
        <rect class="cls-2" x="39.6" y="56.18" width="1.78" height="38.54" transform="translate(-34.95 115.94) rotate(-90)"/>
        <rect class="cls-2" x="39.6" y="86.53" width="1.78" height="38.54" transform="translate(-65.3 146.29) rotate(-90)"/>
      </g>
    </g>
  </g>
</svg>