<svg xmlns="http://www.w3.org/2000/svg" viewBox="0 0 245.88 141.88"><defs><style>.cls-1,.cls-14{fill:#fff;}.cls-2{fill:#3d737b;}.cls-3{fill:#1a5657;}.cls-4{fill:#685c50;}.cls-5{fill:#f9e423;}.cls-6{fill:#c6ae20;}.cls-7{fill:#2d2e2d;}.cls-8{fill:#52a2aa;}.cls-9{fill:#076068;}.cls-10{fill:#e5c925;}.cls-11{fill:gray;}.cls-12{fill:aqua;}.cls-13{fill:#008e45;}.cls-14{opacity:0.88;}</style></defs><title>Fickle_bus</title><g id="Слой_2" data-name="Слой 2"><g id="Слой_1-2" data-name="Слой 1"><path class="cls-1" d="M0,0H220.48a25.4,25.4,0,0,1,25.4,25.4v91.07a25.4,25.4,0,0,1-25.4,25.4H0a0,0,0,0,1,0,0V0A0,0,0,0,1,0,0Z"/><path class="cls-2" d="M68.29,127,60.7,127a8.75,8.75,0,0,1-3.11-3.41c-.24-.47-1.36-2.7-.9-4.19.89-2.87,8-4.31,13.5-3.77-3,.56-5.68,2-6.25,3.88-.46,1.5.52,3.09,1.23,4.23A11.75,11.75,0,0,0,68.29,127Z"/><path class="cls-3" d="M73.8,125.62a8.27,8.27,0,0,1-2.18,1.44l-3.33,0a11.75,11.75,0,0,1-3.12-3.32c-.71-1.14-1.69-2.73-1.23-4.23.57-1.88,3.29-3.32,6.25-3.88,3.08.29,5.66,1.21,6.36,2.84C77.37,120.35,75.89,123.71,73.8,125.62Z"/><polygon class="cls-4" points="107.84 15.66 107.84 18.23 59.72 18.23 107.84 15.66"/><path class="cls-5" d="M107.85,82.49v38H30.25A5.25,5.25,0,0,1,25,115.24V88L28.5,91.3H87.4Z"/><path class="cls-6" d="M104.59,9.1a274.54,274.54,0,0,1,47.14,15.19c2.44,1,4.84,2.11,7.19,3.19a13.52,13.52,0,0,1,3.7,3.7c.41.62,2.15,3.21,1.75,4.11-2,4.56-67.31-15.64-65.77-23.43C98.88,10.4,101.48,9.58,104.59,9.1Z"/><path class="cls-7" d="M26,18.79C26,17.68,28.77,16.44,32.1,15a31.35,31.35,0,0,1,8-2.34c5.77-.85,29-2.57,60.53-4.14.32,0,4-.42,6.14,2.36,1,1.26,1.91,3.54,1.06,5.11-1.1,2-4.67,1.91-5.86,1.88C85.88,17.53,26.28,23.86,26,18.79Z"/><polygon points="123.88 118.12 205.48 109.95 199.83 81.12 121 84.11 123.88 118.12"/><ellipse class="cls-2" cx="192.41" cy="106.17" rx="6.69" ry="11.12"/><ellipse class="cls-2" cx="188.43" cy="106.17" rx="6.69" ry="11.12"/><rect class="cls-2" x="188.43" y="95.05" width="3.99" height="1.6"/><rect class="cls-2" x="188.43" y="116.29" width="3.99" height="1"/><ellipse class="cls-8" cx="192.41" cy="106.17" rx="5.5" ry="9.15"/><ellipse class="cls-2" cx="192.41" cy="106.17" rx="4.57" ry="7.6"/><ellipse class="cls-9" cx="192.41" cy="106.17" rx="2.27" ry="3.78"/><ellipse class="cls-2" cx="135.95" cy="109.95" rx="10.43" ry="17.34"/><ellipse class="cls-2" cx="129.73" cy="109.95" rx="10.43" ry="17.34"/><rect class="cls-2" x="129.73" y="92.61" width="6.22" height="2.5"/><rect class="cls-2" x="129.73" y="125.74" width="6.22" height="1.56"/><ellipse class="cls-8" cx="135.95" cy="109.95" rx="8.58" ry="14.27"/><ellipse class="cls-2" cx="135.95" cy="109.95" rx="7.13" ry="11.85"/><ellipse class="cls-9" cx="135.95" cy="109.95" rx="3.55" ry="5.89"/><path class="cls-10" d="M208.56,47.7v62.87l-8,.79c.08-2.06.12-4,.11-5.64,0-1.2,0-2.29,0-3.28a19.52,19.52,0,0,0-1.16-6.29A7.08,7.08,0,0,0,197,92.53a3.55,3.55,0,0,0-2-.85c-2.32.12-3.77,5.31-4.25,7a32.61,32.61,0,0,0-1.16,7.41,39,39,0,0,0,.23,6.34l-41.61,4.1a31.51,31.51,0,0,0,.42-9.16,37.77,37.77,0,0,0-2.25-9.47A15,15,0,0,0,142.17,92a7.93,7.93,0,0,0-6-1.85c-2.77.4-4.43,2.47-5.39,3.7-1.53,2-2.85,4.7-3.5,13.36q0,.41-.06.84a102.26,102.26,0,0,0-.16,10.57l-19.25,1.9V15.66L208,46.86A.89.89,0,0,1,208.56,47.7Z"/><path class="cls-11" d="M107.85,15.71V82.49L87.4,91.3H28.5L25,87.85V20.69a3.13,3.13,0,0,1,3-3.17l34-1.1Z"/><polygon class="cls-6" points="208.56 53.73 208.56 63.71 107.84 56.54 107.84 42.67 208.56 53.73"/><polygon points="206.92 84.21 113.93 82.79 113.93 23.12 206.92 49.52 206.92 84.21"/><polygon class="cls-11" points="205.07 82.07 116.61 80.01 116.61 27.38 205.07 50.67 205.07 82.07"/><polygon class="cls-12" points="147.51 37.34 147.51 79.57 146.61 79.56 122.23 79.06 122.23 31.5 125.03 32.15 125.62 32.28 133.3 34.06 134.04 34.23 147.51 37.34"/><rect class="cls-13" x="167.86" y="51.91" width="6.32" height="9.71"/><polygon class="cls-12" points="174.41 43.8 174.41 80.04 173.21 80.02 169.06 79.93 164.76 79.84 153.83 79.6 153.83 38.8 156.75 39.51 164.43 41.38 164.43 41.38 174.41 43.8"/><polygon class="cls-12" points="200.55 51.22 200.55 80.04 196.97 79.98 190.65 79.86 190.65 79.86 180.74 79.68 180.74 46.05 181.36 46.21 185.25 47.23 200.55 51.22"/><path class="cls-6" d="M107.85,108.63v11.86H30.25A5.25,5.25,0,0,1,25,115.24v-6.61Z"/><polygon class="cls-12" points="104.97 20.77 104.97 82.5 96.28 82.6 85.5 82.73 79.67 82.8 65.94 82.97 26.86 83.44 26.86 22.13 32.39 22.04 38.2 21.94 38.2 21.94 48.93 21.75 71.89 21.35 79.2 21.21 104.97 20.77"/><polygon class="cls-14" points="147.51 68.63 147.51 79.57 146.61 79.56 122.23 45.85 122.23 33.69 147.51 68.63"/><polygon class="cls-14" points="147.51 52.22 147.51 61.53 125.62 32.28 133.3 34.06 134.04 34.23 147.51 52.22"/><polygon class="cls-14" points="174.41 70.13 174.41 80.04 173.21 80.02 153.83 55.12 153.83 43.68 174.41 70.13"/><polygon class="cls-14" points="174.41 54.21 174.41 62.21 156.75 39.51 164.43 41.38 164.43 41.38 174.41 54.21"/><polygon class="cls-14" points="169.06 79.93 164.76 79.84 153.83 65.8 153.83 60.36 169.06 79.93"/><polygon class="cls-14" points="196.97 79.98 190.65 79.86 190.65 79.86 180.74 67.12 180.74 59.11 196.97 79.98"/><polygon class="cls-14" points="200.55 66.88 200.55 70.87 181.36 46.21 185.25 47.23 200.55 66.88"/><polygon class="cls-14" points="54.63 120.49 40.77 120.49 25.01 100.23 25.01 87.97 28.5 91.3 25.01 87.85 25.01 82.41 31.92 91.3 54.63 120.49"/><path class="cls-6" d="M127.26,108a102.26,102.26,0,0,0-.16,10.57l-19.25,1.9V108.63Z"/><path class="cls-6" d="M189.82,112.41l-41.61,4.1a31.51,31.51,0,0,0,.42-9.16l41-1.28A39,39,0,0,0,189.82,112.41Z"/><path class="cls-6" d="M208.56,105.47v5.1l-8,.79c.08-2.06.12-4,.11-5.64Z"/><polygon class="cls-14" points="79.67 82.8 65.94 82.97 26.86 32.75 26.86 22.13 32.39 22.04 79.67 82.8"/><polygon class="cls-14" points="96.28 82.6 85.5 82.73 38.2 21.94 48.93 21.75 96.28 82.6"/><polygon class="cls-14" points="104.97 54.33 104.97 63.86 71.89 21.35 79.2 21.21 104.97 54.33"/></g></g></svg>