<svg xmlns="http://www.w3.org/2000/svg" viewBox="0 0 160.2 123.46"><defs><style>.cls-1{fill:#00a6c2;}.cls-2{fill:#00ccef;}.cls-3{fill:#2ce4ff;}.cls-4{opacity:0.28;}.cls-5{fill:#e2eaff;}.cls-6{opacity:0.1;}</style></defs><title>Fickle_free_diam</title><g id="Слой_2" data-name="Слой 2"><g id="Слой_1-2" data-name="Слой 1"><polygon class="cls-1" points="79.81 29.19 106.27 30.04 99.55 55.91 79.81 29.19"/><polygon class="cls-2" points="106.27 30.04 129.44 56.87 99.55 55.91 106.27 30.04"/><polygon class="cls-1" points="99.55 55.91 129.44 56.87 77.48 101.4 99.55 55.91"/><polygon class="cls-1" points="79.81 29.18 53.35 28.33 58.39 54.57 79.81 29.18"/><polygon class="cls-2" points="53.35 28.33 28.49 53.61 58.39 54.57 53.35 28.33"/><polygon class="cls-1" points="58.39 54.57 28.49 53.61 77.48 101.4 58.39 54.57"/><polygon class="cls-2" points="77.48 101.4 99.55 55.9 58.39 54.57 77.48 101.4"/><polygon class="cls-3" points="79.81 29.18 58.39 54.57 99.55 55.9 79.81 29.18"/><g class="cls-4"><polygon points="79.81 29.19 106.27 30.04 99.55 55.9 79.81 29.19"/><polygon points="106.27 30.04 129.45 56.87 99.55 55.9 106.27 30.04"/><polygon points="99.55 55.9 129.45 56.87 77.48 101.4 99.55 55.9"/><polygon points="79.81 29.18 53.35 28.33 58.39 54.57 79.81 29.18"/><polygon points="53.35 28.33 28.49 53.6 58.39 54.57 53.35 28.33"/><polygon points="58.39 54.57 28.49 53.6 77.48 101.39 58.39 54.57"/><polygon points="77.48 101.39 99.55 55.9 58.39 54.57 77.48 101.39"/><polygon points="79.81 29.18 58.39 54.57 99.55 55.9 79.81 29.18"/><rect x="51.79" y="46.03" width="21.93" height="6.68" rx="3.02" transform="translate(-15.45 65.5) rotate(-49.85)"/></g><polygon class="cls-1" points="119.58 65.36 140.87 65.36 136.14 86.32 119.58 65.36"/><polygon class="cls-2" points="140.87 65.36 160.19 86.32 136.14 86.32 140.87 65.36"/><polygon class="cls-1" points="136.14 86.32 160.19 86.32 119.58 123.46 136.14 86.32"/><polygon class="cls-1" points="119.58 65.36 98.29 65.36 103.02 86.32 119.58 65.36"/><polygon class="cls-2" points="98.29 65.36 78.97 86.32 103.02 86.32 98.29 65.36"/><polygon class="cls-1" points="103.02 86.32 78.97 86.32 119.58 123.46 103.02 86.32"/><polygon class="cls-2" points="119.58 123.46 136.14 86.32 103.02 86.32 119.58 123.46"/><polygon class="cls-3" points="119.58 65.36 103.02 86.32 136.14 86.32 119.58 65.36"/><rect class="cls-5" x="97.58" y="79.34" width="17.64" height="5.37" rx="2.43" transform="translate(-23.92 114.68) rotate(-51.7)"/><g class="cls-6"><polygon points="119.58 65.36 140.87 65.36 136.13 86.32 119.58 65.36"/><polygon points="140.87 65.36 160.19 86.32 136.13 86.32 140.87 65.36"/><polygon points="136.13 86.32 160.19 86.32 119.58 123.46 136.13 86.32"/><polygon points="119.58 65.36 98.29 65.36 103.02 86.32 119.58 65.36"/><polygon points="98.29 65.36 78.96 86.32 103.02 86.32 98.29 65.36"/><polygon points="103.02 86.32 78.96 86.32 119.58 123.46 103.02 86.32"/><polygon points="119.58 123.46 136.13 86.32 103.02 86.32 119.58 123.46"/><polygon points="119.58 65.36 103.02 86.32 136.13 86.32 119.58 65.36"/><rect x="97.58" y="79.34" width="17.64" height="5.37" rx="2.43" transform="matrix(0.62, -0.78, 0.78, 0.62, -23.92, 114.68)"/></g><polygon class="cls-1" points="128.1 5.38 140.82 6.2 137.19 18.54 128.1 5.38"/><polygon class="cls-2" points="140.82 6.2 151.56 19.46 137.19 18.54 140.82 6.2"/><polygon class="cls-1" points="137.19 18.54 151.56 19.46 125.87 40.1 137.19 18.54"/><polygon class="cls-1" points="128.1 5.38 115.38 4.56 117.4 17.27 128.1 5.38"/><polygon class="cls-2" points="115.38 4.56 103.02 16.35 117.4 17.27 115.38 4.56"/><polygon class="cls-1" points="117.4 17.27 103.02 16.35 125.87 40.1 117.4 17.27"/><polygon class="cls-2" points="125.87 40.1 137.19 18.54 117.4 17.27 125.87 40.1"/><polygon class="cls-3" points="128.1 5.38 117.4 17.27 137.19 18.54 128.1 5.38"/><rect class="cls-5" x="114.3" y="13.23" width="10.56" height="3.22" rx="1.45" transform="translate(28.58 93.81) rotate(-48.02)"/><polygon class="cls-1" points="29.18 54.58 48.77 46.25 52.62 67.39 29.18 54.58"/><polygon class="cls-2" points="48.77 46.25 74.76 57.98 52.62 67.39 48.77 46.25"/><polygon class="cls-1" points="52.62 67.39 74.76 57.98 51.91 108.05 52.62 67.39"/><polygon class="cls-1" points="29.18 54.58 9.58 62.9 22.14 80.34 29.18 54.58"/><polygon class="cls-2" points="9.58 62.9 0 89.75 22.14 80.34 9.58 62.9"/><polygon class="cls-1" points="22.14 80.34 0 89.75 51.91 108.05 22.14 80.34"/><polygon class="cls-2" points="51.91 108.05 52.61 67.39 22.14 80.34 51.91 108.05"/><polygon class="cls-3" points="29.18 54.58 22.14 80.34 52.61 67.39 29.18 54.58"/><rect class="cls-5" x="14.75" y="72.39" width="17.64" height="5.37" rx="2.43" transform="translate(-55.07 78.03) rotate(-74.73)"/><polygon class="cls-1" points="33.36 5.07 42.3 0 45.3 9.93 33.36 5.07"/><polygon class="cls-2" points="42.3 0 55.4 4.2 45.3 9.93 42.3 0"/><polygon class="cls-1" points="45.3 9.93 55.4 4.2 47.19 29.47 45.3 9.93"/><polygon class="cls-1" points="33.36 5.07 24.42 10.14 31.39 17.81 33.36 5.07"/><polygon class="cls-2" points="24.42 10.14 21.29 23.54 31.39 17.81 24.42 10.14"/><polygon class="cls-1" points="31.39 17.81 21.29 23.54 47.19 29.47 31.39 17.81"/><polygon class="cls-2" points="47.19 29.47 45.3 9.93 31.39 17.81 47.19 29.47"/><polygon class="cls-3" points="33.36 5.07 31.39 17.81 45.3 9.93 33.36 5.07"/><rect class="cls-5" x="27.53" y="13.91" width="8.51" height="2.59" rx="0.66" transform="translate(11.93 44.32) rotate(-81.25)"/><polygon class="cls-1" points="72.09 6.65 78.23 6.45 77.06 12.54 72.09 6.65"/><polygon class="cls-2" points="78.23 6.45 83.99 12.32 77.06 12.54 78.23 6.45"/><polygon class="cls-1" points="77.06 12.54 83.99 12.32 72.62 23.4 77.06 12.54"/><polygon class="cls-1" points="72.09 6.65 65.95 6.84 67.51 12.84 72.09 6.65"/><polygon class="cls-2" points="65.95 6.84 60.57 13.06 67.51 12.84 65.95 6.84"/><polygon class="cls-1" points="67.51 12.84 60.57 13.06 72.62 23.4 67.51 12.84"/><polygon class="cls-2" points="72.62 23.4 77.06 12.54 67.51 12.84 72.62 23.4"/><polygon class="cls-3" points="72.09 6.65 67.51 12.84 77.06 12.54 72.09 6.65"/><rect class="cls-5" x="65.9" y="10.8" width="5.09" height="1.55" rx="0.49" transform="translate(18.43 59.71) rotate(-53.51)"/></g></g></svg>