<svg xmlns="http://www.w3.org/2000/svg" viewBox="0 0 205.09 109.63"><defs><style>.cls-1{fill:#4c9350;}.cls-2{fill:#42c352;}.cls-3{fill:#fff;}.cls-4{opacity:0.25;}.cls-5{opacity:0.17;}.cls-6{fill:gray;}</style></defs><title>Fickle_db_money</title><g id="Слой_2" data-name="Слой 2"><g id="Слой_1-2" data-name="Слой 1"><path class="cls-1" d="M128.09,56.41v13a6.54,6.54,0,0,1-6.55,6.53H110.29V71.75h-2.21a15.93,15.93,0,0,1,15.8-15.81v.47Z" transform="translate(-0.24 -0.23)"/><path class="cls-1" d="M128.09,55.94v.47h-4.21v-.47h4.21Z" transform="translate(-0.24 -0.23)"/><path class="cls-1" d="M128.09,20.27V55.94h-4.21V20.27Z" transform="translate(-0.24 -0.23)"/><path class="cls-1" d="M128.09,6.82V20.27h-4.21a15.92,15.92,0,0,1-15.8-15.81h2.21V.27h11.25A6.55,6.55,0,0,1,128.09,6.82Z" transform="translate(-0.24 -0.23)"/><path class="cls-2" d="M123.88,20.27V55.94a15.93,15.93,0,0,0-15.8,15.81H20.25A15.91,15.91,0,0,0,4.45,56V20.24A15.93,15.93,0,0,0,20.28,4.46h87.8A15.92,15.92,0,0,0,123.88,20.27ZM85.48,38.11a21.31,21.31,0,1,0-21.31,21.3A21.31,21.31,0,0,0,85.48,38.11Z" transform="translate(-0.24 -0.23)"/><path class="cls-1" d="M110.29,71.75v4.18h-2.21V71.75Z" transform="translate(-0.24 -0.23)"/><path class="cls-1" d="M110.29.27V4.46h-2.21V.27Z" transform="translate(-0.24 -0.23)"/><path class="cls-1" d="M110.29.25v0h-2.21V4.46H20.28V.25Z" transform="translate(-0.24 -0.23)"/><path class="cls-1" d="M108.08,71.75v4.18H20.25V71.75Z" transform="translate(-0.24 -0.23)"/><path class="cls-1" d="M64.17,16.8a21.31,21.31,0,1,1-21.3,21.31A21.31,21.31,0,0,1,64.17,16.8Zm9.71,21.29a9.7,9.7,0,1,0-9.69,9.72A9.69,9.69,0,0,0,73.88,38.09Z" transform="translate(-0.24 -0.23)"/><path class="cls-3" d="M64.19,28.4a9.71,9.71,0,1,1-9.7,9.69A9.69,9.69,0,0,1,64.19,28.4Z" transform="translate(-0.24 -0.23)"/><path class="cls-1" d="M20.28.25V4.46h-.74V.25Z" transform="translate(-0.24 -0.23)"/><path class="cls-1" d="M20.28.23v0h-.74V4.46h.74A15.93,15.93,0,0,1,4.45,20.24V20H.26V6.78A6.56,6.56,0,0,1,6.81.23Z" transform="translate(-0.24 -0.23)"/><path class="cls-1" d="M20.25,71.9v4h-.71V71.75h.71Z" transform="translate(-0.24 -0.23)"/><path class="cls-1" d="M20.25,71.75h-.71v4.18H6.83A6.54,6.54,0,0,1,.3,69.38V56.15H4.45V56A15.91,15.91,0,0,1,20.25,71.75Z" transform="translate(-0.24 -0.23)"/><path class="cls-1" d="M4.45,56v.17H.3V56H4.45Z" transform="translate(-0.24 -0.23)"/><path class="cls-1" d="M4.45,20.24V56H.3v.17H.24V20h0v.23H4.45Z" transform="translate(-0.24 -0.23)"/><path class="cls-1" d="M4.45,20v.23H.26V20Z" transform="translate(-0.24 -0.23)"/><rect class="cls-4" x="0.02" y="0.03" width="127.83" height="75.68" rx="6.62"/><rect class="cls-2" x="13.29" y="9.73" width="127.83" height="75.68" rx="6.92"/><circle class="cls-1" cx="77.2" cy="47.59" r="21.3"/><circle class="cls-3" cx="77.21" cy="47.57" r="9.7"/><path class="cls-1" d="M134.81,10H121.35v4.08A15.92,15.92,0,0,0,137.27,30h4.08V16.52A6.54,6.54,0,0,0,134.81,10Z" transform="translate(-0.24 -0.23)"/><path class="cls-1" d="M141.35,79.1V65.64h-4.08a15.92,15.92,0,0,0-15.92,15.92v4.09h13.46A6.55,6.55,0,0,0,141.35,79.1Z" transform="translate(-0.24 -0.23)"/><path class="cls-1" d="M20.11,85.64H33.52v-4A15.91,15.91,0,0,0,17.61,65.68h-4V79.1A6.54,6.54,0,0,0,20.11,85.64Z" transform="translate(-0.24 -0.23)"/><path class="cls-1" d="M13.53,16.49V30h4.09A15.92,15.92,0,0,0,33.54,14V10H20.08A6.54,6.54,0,0,0,13.53,16.49Z" transform="translate(-0.24 -0.23)"/><rect class="cls-1" x="13.27" y="29.49" width="4.2" height="36.14"/><rect class="cls-1" x="136.91" y="29.75" width="4.2" height="36.14"/><rect class="cls-1" x="76.08" y="-33.31" width="4.2" height="90.75" transform="translate(65.88 90.01) rotate(-90)"/><rect class="cls-1" x="76.08" y="38.17" width="4.2" height="90.75" transform="translate(-5.6 161.49) rotate(-90)"/><rect class="cls-5" x="13.29" y="9.72" width="127.83" height="75.68" rx="6.6"/><rect class="cls-2" x="26.56" y="19.44" width="127.83" height="75.68" rx="7.64"/><circle class="cls-1" cx="90.47" cy="57.29" r="21.3"/><circle class="cls-3" cx="90.48" cy="57.28" r="9.7"/><path class="cls-1" d="M148.07,19.68H134.61v4.09a15.92,15.92,0,0,0,15.92,15.92h4.09V26.23A6.55,6.55,0,0,0,148.07,19.68Z" transform="translate(-0.24 -0.23)"/><path class="cls-1" d="M154.62,88.8V75.34h-4.09a15.92,15.92,0,0,0-15.92,15.92v4.09h13.46A6.55,6.55,0,0,0,154.62,88.8Z" transform="translate(-0.24 -0.23)"/><path class="cls-1" d="M33.37,95.35H46.79v-4A15.91,15.91,0,0,0,30.87,75.39h-4V88.8A6.54,6.54,0,0,0,33.37,95.35Z" transform="translate(-0.24 -0.23)"/><path class="cls-1" d="M26.8,26.2V39.66h4.08A15.92,15.92,0,0,0,46.8,23.74V19.65H33.34A6.54,6.54,0,0,0,26.8,26.2Z" transform="translate(-0.24 -0.23)"/><rect class="cls-1" x="26.53" y="39.19" width="4.2" height="36.14"/><rect class="cls-1" x="150.18" y="39.45" width="4.2" height="36.14"/><rect class="cls-1" x="89.34" y="-23.61" width="4.2" height="90.75" transform="translate(69.44 112.98) rotate(-90)"/><rect class="cls-1" x="89.34" y="47.87" width="4.2" height="90.75" transform="translate(-2.04 184.46) rotate(-90)"/><path d="M131.47,69.44a11.19,11.19,0,0,1,1.78-5.6A8,8,0,0,1,137.86,60a6.72,6.72,0,0,1,4.78.65A7.08,7.08,0,0,1,146,67.15a8.38,8.38,0,0,1-2.09,4.7A111.62,111.62,0,0,1,133.11,83.9c-6.24,5.86-6.58,6.06-8.51,8.1-5,5.25-6.38,7.78-7.13,9.36a26.17,26.17,0,0,0-2.4,8.5h35.3q1.17-5,2.33-10.1l-20.4-.09c.31-.44.79-1.1,1.39-1.86a42.76,42.76,0,0,1,6.63-6.54,94.89,94.89,0,0,0,8.78-8.57c3.85-4.16,4.91-6,5.54-7.25a18,18,0,0,0,2.11-7,16.87,16.87,0,0,0-1-7.24,16.24,16.24,0,0,0-4.95-6.9,16.9,16.9,0,0,0-10-3.31,19.57,19.57,0,0,0-12.58,3.11c-6.71,4.59-7.81,12.14-8,13.43Z" transform="translate(-0.24 -0.23)"/><polygon points="161.73 50.73 173.61 50.73 195.29 109.63 183.44 109.63 177.18 93.25 166.69 109.63 152.64 109.63 172.06 79.77 161.73 50.73"/><polygon points="190.66 50.73 204.39 50.73 182.5 84.99 176.34 72.61 190.66 50.73"/><path class="cls-6" d="M131.82,67.86a11.25,11.25,0,0,1,1.79-5.61,7.85,7.85,0,0,1,4.6-3.81,6.67,6.67,0,0,1,4.78.65,7.07,7.07,0,0,1,3.32,6.48,8.34,8.34,0,0,1-2.08,4.69,111.78,111.78,0,0,1-10.77,12.06c-6.14,6-6.57,6.05-8.51,8.1-5,5.24-6.37,7.78-7.13,9.35a26.73,26.73,0,0,0-2.4,8.51h35.3l2.34-10.11-20.41-.08c.32-.45.79-1.1,1.4-1.87a42.78,42.78,0,0,1,6.63-6.54,94.67,94.67,0,0,0,8.77-8.56c3.86-4.17,4.91-6,5.54-7.25a18,18,0,0,0,2.11-7,17,17,0,0,0-1-7.25,16.17,16.17,0,0,0-5-6.89,17,17,0,0,0-10-3.32,19.65,19.65,0,0,0-12.59,3.11c-6.7,4.6-7.81,12.14-8,13.44Z" transform="translate(-0.24 -0.23)"/><polygon class="cls-6" points="162.09 49.14 173.97 49.14 195.65 108.05 183.79 108.05 177.53 91.67 167.04 108.05 152.99 108.05 172.41 78.19 162.09 49.14"/><polygon class="cls-6" points="191.01 49.14 204.74 49.14 182.85 83.41 176.69 71.03 191.01 49.14"/><path class="cls-3" d="M132.17,66.27a11.22,11.22,0,0,1,1.79-5.6,7.85,7.85,0,0,1,4.6-3.81,6.67,6.67,0,0,1,4.79.64A7.1,7.1,0,0,1,146.66,64a8.37,8.37,0,0,1-2.08,4.7,111,111,0,0,1-10.77,12c-6.23,5.86-6.57,6.06-8.51,8.1-5,5.25-6.37,7.79-7.12,9.36a26.53,26.53,0,0,0-2.41,8.51h35.31q1.15-5.06,2.33-10.11L133,96.5c.31-.44.78-1.1,1.39-1.86A42.32,42.32,0,0,1,141,88.1a94.6,94.6,0,0,0,8.77-8.57c3.86-4.16,4.91-6,5.54-7.24a18.23,18.23,0,0,0,2.12-7,17,17,0,0,0-1-7.24,16.17,16.17,0,0,0-5-6.89,16.85,16.85,0,0,0-10-3.32A19.58,19.58,0,0,0,128.94,51c-6.7,4.59-7.81,12.14-8,13.44Z" transform="translate(-0.24 -0.23)"/><polygon class="cls-3" points="162.44 47.56 174.32 47.56 196 106.47 184.15 106.47 177.88 90.08 167.4 106.47 153.34 106.47 172.76 76.6 162.44 47.56"/><polygon class="cls-3" points="191.36 47.56 205.09 47.56 183.21 81.83 177.05 69.45 191.36 47.56"/></g></g></svg>